<svg width="153" height="226" viewBox="0 0 153 226" fill="none" xmlns="http://www.w3.org/2000/svg">
<g clip-path="url(#clip0_2378_83228)">
<path d="M148.455 210.141L151.631 213.712L152.315 213.115L109.966 165.593V160.719C109.966 160.493 109.915 160.27 109.818 160.066C109.721 159.862 109.58 159.681 109.405 159.537L91.5287 82.9186C91.7166 82.7711 91.8684 82.5833 91.9727 82.3693C92.077 82.1553 92.1311 81.9207 92.131 81.683V72.1787C92.131 71.7538 91.9608 71.3462 91.6579 71.0458C91.355 70.7453 90.9442 70.5765 90.5159 70.5765H90.0505V67.3043H91.5561C91.7376 67.3043 91.9117 67.2328 92.04 67.1055C92.1684 66.9782 92.2405 66.8055 92.2405 66.6254C92.237 66.4465 92.1638 66.2758 92.0362 66.1492C91.9086 66.0227 91.7365 65.95 91.5561 65.9465H90.0505V64.7653H91.5561C91.7376 64.7653 91.9117 64.6938 92.04 64.5664C92.1684 64.4391 92.2405 64.2665 92.2405 64.0864C92.2405 63.9064 92.1684 63.7337 92.04 63.6064C91.9117 63.479 91.7376 63.4075 91.5561 63.4075H90.0505V32.3147C90.0505 32.2332 90.0505 32.1518 90.0505 32.0703C90.0505 31.9888 90.0505 32.0703 90.0505 32.0024C90.0505 31.9345 90.0505 32.0024 90.0505 32.0024C90.0505 32.0024 90.0505 32.0024 90.0505 31.9074C90.0433 31.817 90.0433 31.7262 90.0505 31.6358L87.313 8.35014C87.2716 8.04714 87.2075 7.74759 87.1213 7.45401C87.1562 7.32427 87.1608 7.18835 87.1347 7.05658C87.1086 6.92482 87.0525 6.80069 86.9708 6.69367C87.4681 6.16703 87.7467 5.47365 87.751 4.75208V2.90551C87.751 2.15165 87.45 1.42846 86.9139 0.894122C86.3778 0.359786 85.6502 0.0577891 84.8903 0.0541992H77.4168C76.6545 0.0541992 75.9234 0.354612 75.3843 0.889336C74.8453 1.42406 74.5424 2.1493 74.5424 2.90551V4.75208C74.5467 5.47365 74.8253 6.16703 75.3226 6.69367C75.2409 6.80069 75.1848 6.92482 75.1587 7.05658C75.1326 7.18835 75.1372 7.32427 75.172 7.45401C75.0859 7.74759 75.0218 8.04714 74.9804 8.35014L72.2429 31.6494C72.2361 31.7353 72.2361 31.8215 72.2429 31.9074C72.2384 31.9389 72.2384 31.9709 72.2429 32.0024C72.2364 32.0246 72.2364 32.0481 72.2429 32.0703C72.2361 32.1516 72.2361 32.2334 72.2429 32.3147V63.4483H70.7236C70.5421 63.4483 70.368 63.5198 70.2397 63.6471C70.1113 63.7744 70.0392 63.9471 70.0392 64.1271C70.0392 64.3072 70.1113 64.4799 70.2397 64.6072C70.368 64.7345 70.5421 64.806 70.7236 64.806H72.2429V65.9873H70.7236C70.5444 65.9908 70.3739 66.0639 70.2485 66.1908C70.1231 66.3178 70.0529 66.4884 70.0529 66.6662C70.0511 66.7547 70.0671 66.8426 70.1 66.9249C70.1328 67.0072 70.182 67.0822 70.2444 67.1454C70.3069 67.2086 70.3814 67.2589 70.4637 67.2931C70.546 67.3274 70.6343 67.3451 70.7236 67.345H72.2429V70.6172H71.7638C71.3355 70.6172 70.9247 70.786 70.6218 71.0865C70.3189 71.387 70.1487 71.7945 70.1487 72.2194V81.7238C70.1525 81.9986 70.2275 82.2679 70.3665 82.5057C70.5056 82.7435 70.7039 82.9418 70.9426 83.0815L53.1487 159.578C52.9038 159.754 52.7042 159.984 52.5663 160.251C52.4283 160.517 52.3558 160.813 52.3548 161.112V171.391C52.3548 171.391 24.4732 202.891 18.3138 209.408C12.1543 215.925 9.89588 219.904 0.21875 219.904V224.642C8.86931 224.642 12.7429 222.388 22.1189 212.341C29.346 204.561 45.3878 186.543 52.2316 178.723V223.529L46.7566 223.61V211.743H36.2034V223.814H34.4651V211.689H23.912V224.126C16.5754 224.384 12.0722 224.615 12.0722 224.615C12.0722 224.615 20.4627 225.077 33.0416 225.389C36.1761 225.484 39.5843 225.565 43.1978 225.633L54.5311 225.81C58.4595 225.81 62.5247 225.918 66.6447 225.932H79.1551H91.6793C95.7856 225.932 99.8919 225.851 103.793 225.81C111.65 225.715 119 225.579 125.282 225.402C137.861 225.077 146.252 224.615 146.252 224.615C146.252 224.615 142.337 224.411 135.849 224.167V218.166H125.296V223.855H123.571V218.166H113.018V223.597H110.787L100.494 199.836L108.898 180.42L109.72 216.278L110.582 178.627L151.193 224.235L153.246 222.443L148.702 217.337L148.455 210.141ZM147.538 216.265L144.048 212.354V205.199L147.538 209.123V216.265ZM117.631 175.532L121.121 179.456V186.598L117.631 182.674V175.532ZM116.728 181.655L113.224 177.731V170.644L116.728 174.568V181.655ZM122.038 180.474L125.529 184.398V191.54L122.038 187.629V180.474ZM126.432 185.416L129.936 189.34V196.441L126.432 192.517V185.416ZM130.84 190.359L134.33 194.283V201.424L130.84 197.5V190.359ZM135.247 195.301L138.737 199.225V206.367L135.247 202.443V195.301ZM139.641 200.243L143.131 204.167V211.377L139.641 207.466V200.243ZM112.265 169.571V176.713L109.911 174.079V166.924L112.265 169.571ZM89.9957 159.144V83.2716H90.16L107.858 159.157L89.9957 159.144ZM103.683 167.779C103.683 169.34 103.615 170.915 103.519 172.097C103.423 173.278 103.314 174.065 103.314 174.065C103.314 174.065 103.191 173.278 103.095 172.097C102.999 170.915 102.93 169.381 102.93 167.779C102.93 166.177 102.999 164.629 103.095 163.448C103.191 162.266 103.314 161.492 103.314 161.492C103.314 161.492 103.423 162.28 103.519 163.448C103.615 164.615 103.683 166.217 103.683 167.792V167.779ZM99.755 167.779C99.755 169.34 99.6866 170.915 99.5907 172.097C99.4949 173.278 99.3854 174.065 99.3854 174.065C99.3854 174.065 99.2622 173.278 99.1664 172.097C99.0706 170.915 99.0022 169.381 99.0022 167.779C99.0022 166.177 99.0706 164.629 99.1664 163.448C99.2622 162.266 99.3854 161.492 99.3854 161.492C99.3854 161.492 99.4949 162.28 99.5907 163.448C99.6866 164.615 99.755 166.217 99.755 167.792V167.779ZM95.8267 167.779C95.8267 169.34 95.8266 170.915 95.6624 172.097C95.4981 173.278 95.4571 174.065 95.4571 174.065C95.4571 174.065 95.3339 173.278 95.2381 172.097C95.1423 170.915 95.0738 169.381 95.0738 167.779C95.0738 166.177 95.0738 164.629 95.2381 163.448C95.4023 162.266 95.4571 161.492 95.4571 161.492C95.4571 161.492 95.5666 162.28 95.6761 163.448C95.7856 164.615 95.8267 166.217 95.8267 167.792V167.779ZM54.4217 159.144L72.065 83.4889V159.144H54.4217ZM55.1334 167.779C55.1334 169.34 55.065 170.915 54.9692 172.097C54.8733 173.278 54.7501 174.065 54.7501 174.065C54.7501 174.065 54.6407 173.278 54.5448 172.097C54.449 170.915 54.3806 169.381 54.3806 167.779C54.3806 166.177 54.449 164.629 54.5448 163.448C54.6407 162.266 54.7501 161.492 54.7501 161.492C54.7501 161.492 54.8733 162.28 54.9692 163.448C55.065 164.615 55.1334 166.217 55.1334 167.792V167.779ZM70.094 167.779C70.094 166.204 70.094 164.629 70.2445 163.448C70.3951 162.266 70.4635 161.492 70.4635 161.492C70.4635 161.492 70.5867 162.28 70.6825 163.448C70.7783 164.615 70.8468 166.163 70.8468 167.779C70.8468 169.395 70.8468 170.915 70.6825 172.097C70.5183 173.278 70.4635 174.065 70.4635 174.065C70.4635 174.065 70.354 173.278 70.2445 172.097C70.135 170.915 70.094 169.354 70.094 167.792V167.779ZM74.5835 159.144L77.7179 154.025V159.144H74.5835ZM81.0577 152.355V159.144H78.6213V152.545L81.0577 148.567L81.8242 149.843C81.3698 150.617 81.1071 151.487 81.0577 152.382V152.355ZM75.5827 109.612H80.3733V118.546L75.5006 110.712L75.5827 109.612ZM82.1117 121.411L86.1084 114.88L86.3548 128.336L82.1117 121.411ZM86.4506 131.947V132.735H81.7695V124.29L86.4506 131.947ZM81.7832 118.574V109.639H86.0674V111.527L81.7832 118.574ZM86.0263 107.834H81.7832V98.8859L85.9853 105.77L86.0263 107.834ZM80.4144 107.834H75.6648V106.612L80.4007 98.8859L80.4144 107.834ZM75.0352 113.265L75.2815 124.982L75.5279 114.052L80.0312 121.425L73.9265 131.404V111.445L75.0352 113.265ZM80.4144 132.721H75.2542L80.4144 124.276V132.721ZM82.6865 146.829C82.7011 147.086 82.7011 147.345 82.6865 147.603L82.2075 146.829L82.7139 146.014C82.6318 146.299 82.6455 146.557 82.6455 146.842L82.6865 146.829ZM78.2381 149.707L78.0601 149.381C77.6445 148.699 77.4398 147.91 77.4716 147.114C77.3912 146.037 77.6806 144.965 78.2928 144.072L79.9901 146.788L78.2381 149.707ZM79.8532 143.149C80.2477 143.054 80.6518 143.004 81.0577 143C81.2993 142.985 81.5416 142.985 81.7832 143C81.8767 143.143 81.9591 143.292 82.0295 143.448L81.0577 145.05L79.8532 143.149ZM80.3733 142.144C80.0287 142.172 79.6886 142.24 79.3605 142.348L74.5835 134.541H80.3733V142.144ZM77.8001 143.271C76.8884 144.338 76.4405 145.72 76.5545 147.114C76.5134 148.069 76.7612 149.015 77.2663 149.829C77.423 150.108 77.547 150.405 77.6358 150.712L73.8854 156.835V136.876L77.8001 143.271ZM81.7421 142.144V134.541H86.4506V136.211L82.7002 142.348C82.3902 142.24 82.0688 142.167 81.7421 142.131V142.144ZM86.8339 134.541H87.5183L86.8202 135.681L86.8339 134.541ZM87.1761 113.102L88.189 111.459V131.418L86.8202 129.3L87.1761 113.102ZM87.3266 104.616L87.6414 86.9647L88.189 86.0686V106.014L87.3266 104.616ZM85.8484 102.185L82.0706 96.0346L85.6294 90.2098L85.8484 102.185ZM75.6785 103L75.9659 89.5309L79.949 96.0346L75.6785 103ZM74.7614 104.507L73.8443 106.014V86.0415L74.3782 86.9376L74.7614 104.507ZM79.689 161.139C79.4407 161.131 79.1994 161.056 78.9909 160.922H81.0577V164.154L80.0038 161.153L79.689 161.139ZM84.8492 149.775C85.3419 148.956 85.5844 148.013 85.5472 147.059C85.6612 145.666 85.2133 144.284 84.3017 143.217L86.5465 139.537L86.6559 145.036L86.7518 139.212L88.23 136.808V156.767L84.4659 150.644C84.5579 150.353 84.6867 150.075 84.8492 149.816V149.775ZM85.6157 86.7882L81.7421 93.129V84.6973H85.5746L85.6157 86.7882ZM80.3733 93.129L76.0891 86.1229V84.6973H80.346L80.3733 93.129ZM77.8685 160.922C78.0046 161.212 78.2107 161.464 78.4686 161.656C78.7265 161.848 79.0281 161.974 79.3468 162.022L80.0722 164.113L80.3597 169.327L75.2131 160.922H77.8685ZM84.3975 153.998L87.5183 159.116H84.3975V153.998ZM74.6793 163.502L79.9901 172.178L78.7308 174.228H74.6245L74.6793 163.502ZM82.0295 164.086L82.755 161.995C83.0745 161.949 83.3772 161.824 83.6354 161.632C83.8937 161.44 84.0992 161.186 84.2333 160.895H86.9708L81.8242 169.3L82.0295 164.086ZM66.9732 167.725C66.9732 169.286 66.9732 170.861 66.8089 172.042C66.6447 173.224 66.5899 174.011 66.5899 174.011C66.5899 174.011 66.4804 173.224 66.3709 172.042C66.2614 170.861 66.2204 169.327 66.2204 167.725C66.2204 166.122 66.2204 164.575 66.3709 163.393C66.5215 162.212 66.5899 161.438 66.5899 161.438C66.5899 161.438 66.7131 162.226 66.8089 163.393C66.9047 164.561 66.9184 166.217 66.9184 167.792L66.9732 167.725ZM63.0448 167.725C63.0448 169.286 62.9764 170.861 62.8806 172.042C62.7848 173.224 62.6616 174.011 62.6616 174.011C62.6616 174.011 62.5521 173.224 62.4426 172.042C62.3331 170.861 62.292 169.327 62.292 167.725C62.292 166.122 62.292 164.575 62.4426 163.393C62.5932 162.212 62.6616 161.438 62.6616 161.438C62.6616 161.438 62.7848 162.226 62.8806 163.393C62.9764 164.561 62.9901 166.217 62.9901 167.792L63.0448 167.725ZM58.5142 163.393C58.6237 162.226 58.7332 161.438 58.7332 161.438C58.7332 161.438 58.8564 162.226 58.9523 163.393C59.0481 164.561 59.1165 166.109 59.1165 167.725C59.1165 169.34 59.0481 170.861 58.9523 172.042C58.8564 173.224 58.7332 174.011 58.7332 174.011C58.7332 174.011 58.6238 173.224 58.5279 172.042C58.4321 170.861 58.3637 169.327 58.3637 167.725C58.3637 166.122 58.3637 164.642 58.4595 163.461L58.5142 163.393ZM58.4184 206.109H53.8605V203.23H58.4184V206.109ZM58.4184 217.636H56.3379L57.5972 214.703H58.3911L58.4184 217.636ZM58.4184 186.557L57.296 183.991H58.4184V186.557ZM58.4184 183.081H56.9128L55.6399 180.148H58.3774L58.4184 183.081ZM53.8605 180.365L55.0239 183.081H53.8605V180.365ZM53.8605 183.963H55.4208L56.6938 186.883H53.8605V183.963ZM53.8605 187.806H57.077L58.35 190.725H53.8605V187.806ZM53.8605 191.635H58.4184V194.568H53.8605V191.635ZM53.8605 210.834H57.4055L56.1463 213.766H53.8605V210.834ZM53.8605 214.676H55.7494L54.4764 217.609H53.8605V214.676ZM57.9667 213.766L58.3637 212.857V213.766H57.9667ZM58.3637 208.512L57.7477 209.87H53.8057V206.937H58.3637V208.512ZM58.3637 202.253H53.8057V199.32H58.3637V202.253ZM58.3637 198.41H53.8057V195.477H58.3637V198.41ZM58.3637 178.044V179.211H55.1882L54.6817 178.044H58.3637ZM53.8057 218.519H54.0247L53.8057 219.021V218.519ZM55.9136 218.519H58.3637V221.438H54.6406L55.9136 218.519ZM60.1841 195.084L62.1825 199.7L60.1841 204.303V195.084ZM60.1841 190.739V178.044H69.3685V183.108L63.1817 197.623L60.1841 190.739ZM69.3685 187.453V211.893L64.0577 199.673L69.3685 187.453ZM92.7332 186.72L98.3588 199.7L92.7332 212.735V186.72ZM83.3709 174.201L82.1117 172.151L87.4225 163.475V174.201H83.3709ZM91.1455 167.697C91.1455 166.122 91.1455 164.547 91.3097 163.366C91.474 162.185 91.5287 161.411 91.5287 161.411C91.5287 161.411 91.6382 162.199 91.7477 163.366C91.8572 164.534 91.8983 166.082 91.8983 167.697C91.8983 169.313 91.8983 170.834 91.7477 172.015C91.5972 173.196 91.5287 173.984 91.5287 173.984C91.5287 173.984 91.4056 173.196 91.3097 172.015C91.2139 170.834 91.1455 169.354 91.1455 167.792V167.697ZM107.023 163.366C107.119 162.199 107.228 161.411 107.228 161.411C107.228 161.411 107.352 162.199 107.447 163.366C107.543 164.534 107.612 166.082 107.612 167.697C107.612 169.313 107.543 170.834 107.447 172.015C107.352 173.196 107.228 173.984 107.228 173.984C107.228 173.984 107.119 173.196 107.023 172.015C106.927 170.834 106.859 169.3 106.859 167.697C106.859 166.095 106.982 164.642 106.982 163.461L107.023 163.366ZM88.23 70.6172H82.1117L84.1237 67.345H88.23V70.6172ZM88.23 55.2338L82.1117 45.3357L88.23 35.4376V55.2338ZM81.0577 43.6113L74.4466 32.8985H87.6688L81.0577 43.6113ZM79.9901 45.3357L73.8854 55.2338V35.4376L79.9901 45.3357ZM74.3508 57.9493L81.0577 47.0872L87.7647 57.9493L87.6962 58.0579H74.4055L74.3508 57.9493ZM74.474 31.1199L81.0577 18.7642L87.6278 31.1199H74.474ZM86.5875 59.8638L84.3701 63.4754H77.7316L75.5006 59.8366L86.5875 59.8638ZM83.5489 64.8332L82.8234 66.0144H79.2783L78.5529 64.8332H83.5489ZM81.9885 67.3722L81.0577 68.9065L80.1133 67.3722H81.9885ZM88.23 66.0144H84.945L85.6704 64.8332H88.23V66.0144ZM86.4506 63.4483L88.23 60.6648V63.4754L86.4506 63.4483ZM87.6004 27.291L82.0295 16.809L85.5472 10.1695L87.6004 27.291ZM77.2663 7.53548H84.9039L81.003 14.8946L77.0883 7.53548H77.2663ZM77.9917 1.3848C78.8267 1.31691 79.9216 1.27618 81.0303 1.27618C82.139 1.27618 83.234 1.27618 84.0553 1.3848C84.8766 1.49342 85.4241 1.507 85.4241 1.507C85.4241 1.507 84.8766 1.58847 84.0553 1.64278C83.234 1.69709 82.1253 1.75141 81.0303 1.75141C79.9353 1.75141 78.8267 1.7514 77.9917 1.64278C77.1568 1.53416 76.6229 1.507 76.6229 1.507C76.6229 1.507 77.2252 1.43911 78.0464 1.3848H77.9917ZM77.2936 2.38956C78.3065 2.38956 79.6616 2.28093 81.0303 2.28093C82.3991 2.28093 83.7679 2.28094 84.7671 2.38956C85.7663 2.49818 86.4643 2.53891 86.4643 2.53891C86.4643 2.53891 85.78 2.63396 84.7671 2.68827C83.7542 2.74258 82.3854 2.81046 81.0303 2.81046C79.6753 2.81046 78.2928 2.81047 77.2936 2.68827C76.2944 2.56607 75.5964 2.53891 75.5964 2.53891C75.5964 2.53891 76.3218 2.45745 77.3484 2.38956H77.2936ZM76.445 10.1695L79.9764 16.809L74.3919 27.291L76.445 10.1695ZM73.8854 60.6648L75.5964 63.4754H73.8854V60.6648ZM73.8854 64.8332H76.4313L77.1568 66.0144H73.8854V64.8332ZM73.8854 67.3722H77.9917L80.0038 70.6444H73.8991L73.8854 67.3722ZM72.6399 72.4231C73.1463 72.4231 73.858 72.3009 74.7341 72.2466C76.4587 72.1379 78.7719 72.0565 81.0851 72.0565C83.3983 72.0565 85.6978 72.1379 87.4361 72.2466C88.2985 72.2466 89.0239 72.3823 89.5303 72.4231L90.3242 72.5045L89.5303 72.5996C89.0239 72.5996 88.2985 72.7218 87.4361 72.7761C85.6978 72.8847 83.3299 72.9526 81.0851 72.9662C78.8403 72.9798 76.4587 72.8847 74.7341 72.7625C73.858 72.7625 73.1463 72.6403 72.6399 72.5996L71.846 72.5045L72.6399 72.4231ZM72.6399 74.1746C73.1463 74.1746 73.858 74.0524 74.7341 73.9981C76.4587 73.8895 78.7719 73.808 81.0851 73.808C83.3983 73.808 85.6978 73.8895 87.4361 73.9981C88.2985 73.9981 89.0239 74.1339 89.5303 74.1746L90.3242 74.2561L89.5303 74.3511C89.0239 74.3511 88.2985 74.4733 87.4361 74.514C85.6978 74.6362 83.3299 74.7041 81.0851 74.7177C78.8403 74.7313 76.4587 74.6362 74.7341 74.514C73.858 74.514 73.1463 74.3918 72.6399 74.3511L71.846 74.2561L72.6399 74.1746ZM49.631 176.075C48.3581 177.541 46.5923 179.673 44.416 182.198C42.2397 184.724 39.7075 187.629 36.9563 190.779L28.3194 200.555C25.3492 203.841 22.3653 207.141 19.532 210.196C18.1084 211.716 16.7397 213.169 15.4257 214.554C14.1817 215.891 12.8061 217.101 11.3194 218.166C10.0562 219.055 8.63519 219.7 7.13099 220.066C6.4603 220.257 5.76223 220.324 5.2421 220.433C4.72197 220.542 4.11972 220.555 3.62697 220.582C2.65515 220.582 1.88864 220.582 1.35482 220.582H0.56094H1.35482C1.87495 220.582 2.64145 220.501 3.61327 220.406C4.09234 220.406 4.62616 220.27 5.20104 220.189C5.81962 220.07 6.43177 219.92 7.03517 219.741C8.47068 219.319 9.81931 218.648 11.0183 217.758C12.4244 216.672 13.7175 215.448 14.8782 214.106C16.1374 212.748 17.5062 211.187 18.9023 209.666C21.6398 206.597 24.6511 203.284 27.6076 199.972L36.3266 190.277L43.9917 181.872L49.4667 175.966L51.5609 173.74L49.631 176.075ZM53.8057 223.407L54.2437 222.402H58.35V223.352H54.2437L53.8057 223.407ZM60.1841 223.407V208.756L63.127 201.967L69.3685 216.373V223.325H66.412C64.3178 223.339 62.2373 223.366 60.1841 223.393V223.407ZM108.638 223.542L103.56 223.474C100.042 223.474 96.4152 223.379 92.7332 223.366V217.134L99.3033 201.981L108.638 223.542ZM92.7332 182.484V178.152H107.79L99.358 197.636L92.7332 182.484Z" fill="#015467"/>
</g>
<defs>
<clipPath id="clip0_2378_83228">
<rect width="153" height="226" fill="white"/>
</clipPath>
</defs>
</svg>
