<svg width="80" height="80" viewBox="0 0 80 80" fill="none" xmlns="http://www.w3.org/2000/svg">
<path d="M78.8281 46.2531C79.4753 46.2531 80 45.7286 80 45.0812V30.4578C80 29.1223 78.9136 28.0359 77.5781 28.0359H64.348L67.2889 23.8723C68.2667 22.4859 68.1064 20.6077 66.9067 19.4058L64.3436 16.8427L67.3502 13.8366C67.4717 13.8683 67.5977 13.8863 67.7266 13.8863C68.1231 13.8863 68.4958 13.7319 68.7763 13.4516L75.5594 6.66844C77.0825 5.14531 77.0825 2.66734 75.5594 1.14437C74.8217 0.406406 73.8408 0 72.7973 0C71.7539 0 70.773 0.406406 70.0352 1.14406L63.2517 7.9275C62.8408 8.33875 62.7234 8.93297 62.8969 9.45047L59.9231 12.4237L57.36 9.86063C56.1584 8.65891 54.2794 8.49844 52.8928 9.47875L44.3967 15.4783C43.4531 16.1433 42.9025 17.2295 42.9236 18.3839L43.0991 28.0141L41.2622 28.0111C41.2606 28.0111 41.2592 28.0111 41.2578 28.0111C40.6125 28.0111 40.0055 28.2617 39.5484 28.7175C39.0903 29.1742 38.8373 29.7819 38.8363 30.4289L38.8198 40.4117L35.1328 40.4056C34.9648 38.7088 33.5297 37.3787 31.7894 37.3787H10.7906C9.03844 37.3787 7.59719 38.7273 7.44547 40.4408H2.42188C1.08641 40.4408 0 41.5272 0 42.8627V77.5781C0 78.9136 1.08641 80 2.42188 80H27.0573H52.9428H77.5781C78.9136 80 80 78.9136 80 77.5781V50.55C80 49.9027 79.4753 49.3781 78.8281 49.3781C78.1809 49.3781 77.6562 49.9027 77.6562 50.55V52.8453H54.1145V42.7806L77.6562 42.8194V45.0811C77.6562 45.7284 78.1809 46.2531 78.8281 46.2531ZM60.7434 14.9178C60.7463 14.915 60.7492 14.9128 60.752 14.91C60.7548 14.9072 60.757 14.9042 60.7598 14.9014L64.4437 11.2181L65.5491 12.3233L61.8658 16.0058C61.8631 16.0084 61.86 16.0106 61.8573 16.0134C61.8547 16.0161 61.8523 16.0191 61.8497 16.0219L57.6291 20.2417C57.4816 20.3891 57.2855 20.4703 57.0766 20.4703C56.8677 20.4703 56.6716 20.3891 56.5239 20.2416C56.3764 20.0942 56.2953 19.898 56.2953 19.6891C56.2953 19.4802 56.3766 19.2839 56.5239 19.1366L60.7434 14.9178ZM71.6927 2.80141C71.9878 2.50625 72.3802 2.34375 72.7975 2.34375C73.2148 2.34375 73.6072 2.50625 73.9023 2.80156C74.5116 3.41062 74.5116 4.40188 73.9023 5.01109L67.7269 11.1866L65.5172 8.97688L71.6927 2.80141ZM45.7478 17.3933L54.2452 11.3928C54.6977 11.0731 55.3103 11.1256 55.7025 11.5178L58.2656 14.0808L54.8667 17.4791C54.2766 18.0692 53.9516 18.8541 53.9516 19.6891C53.9516 20.5241 54.2766 21.3089 54.8666 21.8989C55.4567 22.4891 56.2416 22.8141 57.0766 22.8141C57.9116 22.8141 58.6964 22.4891 59.2864 21.8991L62.6862 18.4998L65.2487 21.0622C65.6406 21.4548 65.6931 22.0684 65.3742 22.5208L59.372 31.0186C59.1552 31.3261 58.802 31.5056 58.4247 31.4986L46.5975 31.283C45.9841 31.2714 45.4945 30.7819 45.4828 30.1692L45.2672 18.3409C45.2602 17.9647 45.4395 17.6106 45.7478 17.3933ZM41.18 30.4328C41.18 30.4247 41.18 30.4002 41.2028 30.3775C41.2256 30.3548 41.2525 30.3577 41.2581 30.3548L43.1489 30.358C43.2572 32.1677 44.7231 33.5917 46.5534 33.6266L58.3814 33.8422C58.403 33.8425 58.4242 33.8428 58.4458 33.8428C59.5761 33.8427 60.6345 33.2952 61.2867 32.37L62.6925 30.3798H64.7134V40.4545L41.1634 40.4156L41.18 30.4328ZM9.77406 40.7389C9.77406 40.1784 10.23 39.7223 10.7906 39.7223H31.7895C32.35 39.7223 32.8061 40.1784 32.8061 40.7389V42.2066C32.8061 42.767 32.35 43.2231 31.7895 43.2231C29.9367 43.2231 28.4292 44.7305 28.4292 46.5834V56.0611C28.4292 56.6737 27.9642 57.1927 27.3927 57.2178C27.0922 57.2327 26.807 57.1245 26.5908 56.9175C26.3744 56.7105 26.2552 56.4314 26.2552 56.132V47.3522C26.2552 45.0755 24.403 43.2231 22.1261 43.2231H21.1C18.8233 43.2231 16.9709 45.0753 16.9709 47.3522C16.9709 47.9648 16.5059 48.4837 15.9345 48.5089C15.6334 48.5222 15.3486 48.4155 15.1325 48.2086C14.9161 48.0014 14.7969 47.7225 14.7969 47.423V46.5834C14.7969 44.7306 13.2895 43.2231 11.4366 43.2231H10.7906C10.2302 43.2231 9.77406 42.767 9.77406 42.2066V40.7389ZM2.42188 42.7844H7.48359C7.75875 44.3623 9.13516 45.5669 10.7906 45.5669H11.4363C11.9967 45.5669 12.4528 46.023 12.4528 46.5834V47.423C12.4528 48.3544 12.8387 49.2578 13.5117 49.9019C14.1944 50.5553 15.0925 50.8916 16.0375 50.8505C17.875 50.7691 19.3144 49.2327 19.3144 47.352C19.3144 46.3677 20.1152 45.5667 21.0997 45.5667H22.1258C23.1102 45.5667 23.9111 46.3677 23.9111 47.352V52.8452H2.34375V42.8623C2.34375 42.8195 2.37875 42.7844 2.42188 42.7844ZM2.34375 65.2516V55.1891H12.9427V65.2516H2.34375ZM2.34375 77.5781V67.5953H18.5562C19.2034 67.5953 19.7281 67.0708 19.7281 66.4234C19.7281 65.7761 19.2034 65.2516 18.5562 65.2516H15.2864V55.1891H23.9111V56.132C23.9111 57.0634 24.2972 57.9669 24.9702 58.6109C25.6152 59.2281 26.4511 59.5628 27.3391 59.5628C27.3911 59.5628 27.4433 59.5617 27.4956 59.5595C29.3333 59.4784 30.7727 57.9417 30.7727 56.0611V55.1891H38.8281V65.2511H27.0573C27.0542 65.2511 27.0514 65.2516 27.0483 65.2516H24.025C23.3778 65.2516 22.8531 65.7761 22.8531 66.4234C22.8531 67.0708 23.3778 67.5953 24.025 67.5953H25.8855V77.6562H2.42188C2.37875 77.6562 2.34375 77.6211 2.34375 77.5781ZM64.7136 65.2511H52.9428H41.1719V55.1895H64.7136V65.2511ZM28.2292 77.6562V67.5953H51.7709V77.6562H28.2292ZM77.5781 77.6562H54.1145V67.5953H77.6562V77.5781C77.6562 77.6211 77.6212 77.6562 77.5781 77.6562ZM77.6562 65.2516H67.0573V55.1891H77.6562V65.2516ZM51.7708 52.8453H30.7728V46.5834C30.7728 46.023 31.2289 45.5669 31.7894 45.5669C33.457 45.5669 34.8411 44.3444 35.1019 42.7492L51.7709 42.7767V52.8453H51.7708ZM67.0573 40.4581V30.3797H77.5781C77.6212 30.3797 77.6562 30.4148 77.6562 30.4578V40.4758L67.0573 40.4581Z" fill="#00B0F0"/>
</svg>
