<svg width="72" height="80" viewBox="0 0 72 80" fill="none" xmlns="http://www.w3.org/2000/svg">
<path d="M71.5805 22.0062C71.5805 18.0866 70.2111 14.2634 67.7244 11.2413C67.3131 10.7419 66.5747 10.6698 66.0748 11.0809C65.575 11.4922 65.5033 12.2306 65.9145 12.7306C68.0569 15.3342 69.2367 18.6284 69.2367 22.0062C69.2367 25.1447 68.2419 28.0552 66.5514 30.4391C65.668 27.6905 63.2656 25.6181 60.3369 25.2131C61.9562 23.6897 62.9705 21.53 62.9705 19.1366C62.9705 14.5344 59.2264 10.7903 54.6241 10.7903C50.0217 10.7903 46.2777 14.5344 46.2777 19.1366C46.2777 21.53 47.2919 23.6898 48.9112 25.2131C45.9827 25.618 43.5802 27.6903 42.6967 30.4387C41.0064 28.0547 40.0116 25.1445 40.0116 22.0061C40.0116 13.9495 46.5667 7.39516 54.6241 7.39516C57.2509 7.39516 59.8261 8.10016 62.0708 9.43375C62.6272 9.76469 63.3462 9.58109 63.6769 9.025C64.0075 8.46844 63.8244 7.74953 63.268 7.41891C62.4564 6.93672 61.6078 6.52547 60.732 6.1875C60.113 2.66125 57.0152 0 53.3617 0H7.90391C3.77609 0 0.417969 3.35813 0.417969 7.48594V72.5141C0.417969 76.6419 3.77609 80 7.90391 80H53.3617C57.4886 80 60.8461 76.6419 60.8461 72.5141V51.4281C60.8461 50.7808 60.3214 50.2563 59.6742 50.2563C59.027 50.2563 58.5023 50.7808 58.5023 51.4281V72.5141C58.5023 75.3494 56.1963 77.6562 53.3617 77.6562H7.90391C5.06859 77.6562 2.76172 75.3494 2.76172 72.5141V7.48594C2.76172 4.65063 5.06844 2.34375 7.90391 2.34375H53.3617C55.4398 2.34375 57.2556 3.59719 58.0602 5.40297C56.9352 5.17078 55.7841 5.05156 54.6242 5.05156C54.245 5.05156 8.21953 5.05156 8.21953 5.05156C6.70312 5.05156 5.46953 6.28531 5.46953 7.80156V16.4023C5.46953 17.0497 5.99422 17.5742 6.64141 17.5742C7.28859 17.5742 7.81328 17.0497 7.81328 16.4023V7.80156C7.81328 7.5775 7.99563 7.39531 8.21953 7.39531H46.0316C41.0305 10.3472 37.668 15.7909 37.668 22.0062C37.668 30.962 44.6473 38.3173 53.4523 38.9214V72.1984C53.4523 72.4225 53.27 72.6047 53.0461 72.6047H8.21953C7.99547 72.6047 7.81328 72.4225 7.81328 72.1984V21.8711C7.81328 21.2238 7.28859 20.6992 6.64141 20.6992C5.99422 20.6992 5.46953 21.2238 5.46953 21.8711V72.1984C5.46953 73.7147 6.70328 74.9484 8.21953 74.9484H53.0461C54.5625 74.9484 55.7961 73.7147 55.7961 72.1984V38.9214C56.7202 38.858 57.6244 38.7208 58.5023 38.5145V45.9594C58.5023 46.6067 59.027 47.1313 59.6742 47.1313C60.3214 47.1313 60.8461 46.6067 60.8461 45.9594V37.7803C67.1267 35.2942 71.5805 29.1606 71.5805 22.0062ZM48.6216 19.1367C48.6216 15.8269 51.3142 13.1342 54.6242 13.1342C57.9342 13.1342 60.6269 15.8269 60.6269 19.1367C60.6269 22.4467 57.9342 25.1394 54.6242 25.1394C51.3142 25.1394 48.6216 22.4466 48.6216 19.1367ZM49.9608 27.4831H59.2875C62.1789 27.4831 64.5342 29.8175 64.5709 32.7003C61.9605 35.13 58.4633 36.6189 54.6244 36.6189C50.7853 36.6189 47.288 35.13 44.6775 32.7002C44.7141 29.8173 47.0694 27.4831 49.9608 27.4831Z" fill="#00B0F0"/>
<path d="M33.7887 10.1016H11.6914C11.0442 10.1016 10.5195 10.6261 10.5195 11.2734V16.3242C10.5195 16.9716 11.0442 17.4961 11.6914 17.4961H33.7887C34.4359 17.4961 34.9606 16.9716 34.9606 16.3242V11.2734C34.9606 10.6262 34.4359 10.1016 33.7887 10.1016ZM32.6169 15.1525H12.8633V12.4453H32.6169V15.1525Z" fill="#00B0F0"/>
<path d="M10.5195 26.4258C10.5195 27.0731 11.0442 27.5977 11.6914 27.5977H16.7422C17.3894 27.5977 17.9141 27.0731 17.9141 26.4258V21.375C17.9141 20.7277 17.3894 20.2031 16.7422 20.2031H11.6914C11.0442 20.2031 10.5195 20.7277 10.5195 21.375V26.4258ZM12.8633 22.5469H15.5703V25.2539H12.8633V22.5469Z" fill="#00B0F0"/>
<path d="M21.793 22.5469H33.7886C34.4358 22.5469 34.9605 22.0223 34.9605 21.375C34.9605 20.7277 34.4358 20.2031 33.7886 20.2031H21.793C21.1458 20.2031 20.6211 20.7277 20.6211 21.375C20.6211 22.0223 21.1458 22.5469 21.793 22.5469Z" fill="#00B0F0"/>
<path d="M21.793 27.5977H28.7378C29.385 27.5977 29.9097 27.0731 29.9097 26.4258C29.9097 25.7784 29.385 25.2539 28.7378 25.2539H21.793C21.1458 25.2539 20.6211 25.7784 20.6211 26.4258C20.6211 27.0731 21.1458 27.5977 21.793 27.5977Z" fill="#00B0F0"/>
<path d="M10.5195 36.5273C10.5195 37.1747 11.0442 37.6992 11.6914 37.6992H16.7422C17.3894 37.6992 17.9141 37.1747 17.9141 36.5273V31.4766C17.9141 30.8292 17.3894 30.3047 16.7422 30.3047H11.6914C11.0442 30.3047 10.5195 30.8292 10.5195 31.4766V36.5273ZM12.8633 32.6484H15.5703V35.3555H12.8633V32.6484Z" fill="#00B0F0"/>
<path d="M21.793 32.6484H33.7886C34.4358 32.6484 34.9605 32.1239 34.9605 31.4766C34.9605 30.8292 34.4358 30.3047 33.7886 30.3047H21.793C21.1458 30.3047 20.6211 30.8292 20.6211 31.4766C20.6211 32.1239 21.1458 32.6484 21.793 32.6484Z" fill="#00B0F0"/>
<path d="M21.793 37.6992H28.7378C29.385 37.6992 29.9097 37.1747 29.9097 36.5273C29.9097 35.88 29.385 35.3555 28.7378 35.3555H21.793C21.1458 35.3555 20.6211 35.88 20.6211 36.5273C20.6211 37.1747 21.1458 37.6992 21.793 37.6992Z" fill="#00B0F0"/>
<path d="M10.5195 46.6294C10.5195 47.2767 11.0442 47.8013 11.6914 47.8013H16.7422C17.3894 47.8013 17.9141 47.2767 17.9141 46.6294V41.5786C17.9141 40.9313 17.3894 40.4067 16.7422 40.4067H11.6914C11.0442 40.4067 10.5195 40.9313 10.5195 41.5786V46.6294ZM12.8633 42.7505H15.5703V45.4575H12.8633V42.7505Z" fill="#00B0F0"/>
<path d="M21.793 42.7505H33.7886C34.4358 42.7505 34.9605 42.226 34.9605 41.5786C34.9605 40.9313 34.4358 40.4067 33.7886 40.4067H21.793C21.1458 40.4067 20.6211 40.9313 20.6211 41.5786C20.6211 42.226 21.1458 42.7505 21.793 42.7505Z" fill="#00B0F0"/>
<path d="M21.793 47.8013H28.7378C29.385 47.8013 29.9097 47.2767 29.9097 46.6294C29.9097 45.9821 29.385 45.4575 28.7378 45.4575H21.793C21.1458 45.4575 20.6211 45.9821 20.6211 46.6294C20.6211 47.2767 21.1458 47.8013 21.793 47.8013Z" fill="#00B0F0"/>
<path d="M10.5195 56.731C10.5195 57.3783 11.0442 57.9028 11.6914 57.9028H16.7422C17.3894 57.9028 17.9141 57.3783 17.9141 56.731V51.6802C17.9141 51.0328 17.3894 50.5083 16.7422 50.5083H11.6914C11.0442 50.5083 10.5195 51.0328 10.5195 51.6802V56.731ZM12.8633 52.8521H15.5703V55.5591H12.8633V52.8521Z" fill="#00B0F0"/>
<path d="M34.9605 51.6802C34.9605 51.0328 34.4358 50.5083 33.7886 50.5083H21.793C21.1458 50.5083 20.6211 51.0328 20.6211 51.6802C20.6211 52.3275 21.1458 52.8521 21.793 52.8521H33.7886C34.4358 52.8521 34.9605 52.3275 34.9605 51.6802Z" fill="#00B0F0"/>
<path d="M21.793 55.5591C21.1458 55.5591 20.6211 56.0836 20.6211 56.731C20.6211 57.3783 21.1458 57.9028 21.793 57.9028H28.7378C29.385 57.9028 29.9097 57.3783 29.9097 56.731C29.9097 56.0836 29.385 55.5591 28.7378 55.5591H21.793Z" fill="#00B0F0"/>
<path d="M34.3477 68.0044H49.5002C50.1473 68.0044 50.672 67.4799 50.672 66.8325V61.7817C50.672 61.1344 50.1473 60.6099 49.5002 60.6099H34.3477C33.7005 60.6099 33.1758 61.1344 33.1758 61.7817V66.8325C33.1758 67.4797 33.7005 68.0044 34.3477 68.0044ZM35.5195 62.9535H48.3283V65.6605H35.5195V62.9535Z" fill="#00B0F0"/>
</svg>
