<svg width="902" height="594" viewBox="0 0 902 594" fill="none" xmlns="http://www.w3.org/2000/svg">
<path d="M13.5 15.5L16.5 1.5L48.5 17.5L96.5 43.5L156.5 75L199 99.5L237.5 130L268 167.5V179L248.5 182.5L251.5 250L237.5 270.5V285.5L229 298.5L248.5 301.5L237.5 345.5L229 362L212.5 368L202.5 351L182.5 359.5L175 354L166 359.5L150.5 341L143.5 354L101.5 314.5L91 291.5L107 282.5L124 301.5H143.5L146.5 285.5L138.5 257L129 191L116.5 176L103 126L85 107L50 96.5L28 80L19 96.5L1 67.5L7 56L1 36.5L13.5 32L10.5 27L13.5 15.5Z" fill="#5E8698" stroke="white" stroke-opacity="0.5"/>
<path d="M243 113.5L237.5 129V130L268 167.5V179L248.5 182.5L251.5 250L237.5 270.5L238 285.5L229 298.5L248.5 302L236 348.5H248.5L266.5 335H278L303.5 317.5L312 322.5L323 314L353.5 306L379 310.5L389.5 306V287.5L399 284.5L414.5 276V268L403 247L399 224.5L396.5 194.5L362 175.5V160L340.5 139L323 141L295.5 124.5L243 113.5Z" fill="#5E8698" stroke="white" stroke-opacity="0.5"/>
<path d="M315.5 112L297 125.5L323 141L340.5 139L362 160L382.5 173.5H401.5L411.5 181.5L438 202L449 187L483.5 186L502 183.5L513.5 182L522 179L533 175.5L539.5 173.5L552.5 182L576 195L586.5 177.5L584 153.5V133L577 129L567 133L541.5 113.5L529.5 115L508 105.5L505.5 83.5L469.5 65H434.5L423.5 77.5L410 80.5L383 85L334.5 108L315.5 112Z" fill="#5E8698" stroke="white" stroke-opacity="0.5"/>
<path d="M389.5 287.5V305.5L402 313L417.5 317.5H436.5L449.5 313L465 311.5V293.5L472.5 292V286L489 281.5L497.5 277L506.5 286H518L529.5 277L547.5 240.5L567 218L569.5 206.5L576 195L539.5 173.5L513.5 182L484 186L449 187L438 202L401.5 173.5H382.5L362 160V175.5L396.5 194.5L399 224.5L403 247L414.5 268L414 276L398.5 284.5L389.5 287.5Z" fill="#5E8698" stroke="white" stroke-opacity="0.5"/>
<path d="M421 340L435.5 318L436.5 317.5L449.5 313L465 311.5V293.5L472.5 292V286L489 281.5L497.5 277L506.5 286H518V289.5L510.5 309.5L512 337L521.5 356L528 358L541.5 359V369L533.5 373L508.5 351H499.5V364L487.5 371L478 354L471 374L467 367L454.5 356L435.5 345.5L421 340Z" fill="#5E8698" stroke="white" stroke-opacity="0.5"/>
<path d="M510.5 309.5L513.5 301.5L543.5 303L554.5 304.5L566 298.5L578 295.5L580 275L599.5 276.5L615 267L622.5 266.5L629.5 281H639L642.5 279L673 279.5L658 308V318L653 330L658 343L656.5 349L643 343V330L636.5 327.5L625.5 339.5L595 350L563 344L541.5 357.5L541 359L528 358L521.5 356L512 337L510.5 309.5Z" fill="#5E8698" stroke="white" stroke-opacity="0.5"/>
<path d="M591.5 96L577 128V129L584 133.252V153.5L586.5 177.5L569.5 206.5L567 218L547.5 240.5L529.5 277L518 286V289.5L513.5 301.5L543 303L554.5 304.5L566 298.5L578 295.5L580 275L599.5 276.5L615 267L622.5 266.5L629.5 281H639L642.5 279L706.5 279.5L732.5 295.5L743 292H753.5L765 295.5L772.5 285.5L805 292L805.5 259L795.5 238L799.5 227.5V178.5L809 169.5V143L795 136L792.5 124.5L778 130.5L766.5 146.5L736 129L741 65.5L727 69L710.5 46.5L677.5 69L628 59.5L610 66.5L606.5 94L591.5 96Z" fill="#5E8698" stroke="white" stroke-opacity="0.5"/>
<path d="M559.5 376.5L542 368.5L541.5 357.5L563 344L580 347L595 350L603 347L625.5 339.5L636.5 327.5L643 330V343L656.5 349L658 343L653 330L658 318V308L673 279.5H706.5L732.5 295.5L743 292H753.5L765 295.5L772.5 285.5L805 292L807.5 312L797.5 327L779 387.5V397L791 415L793 449L818.5 478.5L851 505L860.5 506L877.5 515L894.5 527L891.5 542.5L893.5 554L901 562L899.5 592.5L883 580.5L871.5 579L857.5 565L840.5 559.5L838 531L823.5 529.5L806.5 509L781.5 525L755.5 514L727 512L719 518.5H711L703 513L659 514.5L645.5 509.5L635.5 521.5L608.5 536L611.5 552.5L565.5 560L551 554L539 562.5L532 545.5L547 534.5L563 515L564 502.5L570 493L573 466V441.5V408L571.5 391L559.5 376.5Z" fill="#5E8698" stroke="white" stroke-opacity="0.5"/>
<path d="M619.006 413.454L615.451 408.047H616.996L619.642 412.36H621.515L621.303 413.454H619.006ZM619.717 413.352L616.825 418H615.185L618.883 412.217L619.717 413.352ZM622.082 408.047V418H620.776V408.047H622.082ZM627.359 408.047L623.791 413.454H621.562L621.357 412.36H623.162L625.808 408.047H627.359ZM625.979 418L623.094 413.352L623.935 412.217L627.619 418H625.979ZM629.718 413.146H631.939C632.536 413.146 633.04 413.251 633.45 413.461C633.86 413.666 634.17 413.951 634.38 414.315C634.594 414.675 634.701 415.086 634.701 415.546C634.701 415.888 634.642 416.209 634.523 416.51C634.405 416.806 634.227 417.066 633.99 417.289C633.758 417.512 633.468 417.688 633.122 417.815C632.78 417.938 632.386 418 631.939 418H628.795V410.604H630.06V416.961H631.939C632.304 416.961 632.596 416.895 632.814 416.763C633.033 416.631 633.19 416.46 633.286 416.25C633.382 416.04 633.43 415.822 633.43 415.594C633.43 415.37 633.382 415.152 633.286 414.938C633.19 414.723 633.033 414.546 632.814 414.404C632.596 414.258 632.304 414.186 631.939 414.186H629.718V413.146ZM637.333 410.604V418H636.068V410.604H637.333ZM644.49 410.604V411.649H640.915V410.604H644.49ZM645.604 410.604V418H644.34V410.604H645.604ZM640.607 410.604H641.879L641.688 414.172C641.656 414.723 641.603 415.211 641.53 415.635C641.462 416.054 641.366 416.414 641.243 416.715C641.125 417.016 640.974 417.262 640.792 417.453C640.614 417.64 640.4 417.779 640.149 417.87C639.899 417.957 639.609 418 639.281 418H638.885V416.886L639.158 416.865C639.354 416.852 639.521 416.806 639.657 416.729C639.799 416.651 639.917 416.537 640.013 416.387C640.108 416.232 640.186 416.034 640.245 415.792C640.309 415.55 640.357 415.263 640.389 414.931C640.425 414.598 640.452 414.211 640.471 413.769L640.607 410.604ZM648.681 413.146H650.902C651.499 413.146 652.003 413.251 652.413 413.461C652.823 413.666 653.133 413.951 653.343 414.315C653.557 414.675 653.664 415.086 653.664 415.546C653.664 415.888 653.605 416.209 653.486 416.51C653.368 416.806 653.19 417.066 652.953 417.289C652.721 417.512 652.431 417.688 652.085 417.815C651.743 417.938 651.349 418 650.902 418H647.758V410.604H649.022V416.961H650.902C651.267 416.961 651.559 416.895 651.777 416.763C651.996 416.631 652.153 416.46 652.249 416.25C652.345 416.04 652.393 415.822 652.393 415.594C652.393 415.37 652.345 415.152 652.249 414.938C652.153 414.723 651.996 414.546 651.777 414.404C651.559 414.258 651.267 414.186 650.902 414.186H648.681V413.146ZM656.296 410.604V418H655.031V410.604H656.296ZM658.176 414.384V414.227C658.176 413.693 658.253 413.199 658.408 412.743C658.563 412.283 658.786 411.884 659.078 411.547C659.37 411.205 659.723 410.941 660.138 410.754C660.552 410.562 661.017 410.467 661.532 410.467C662.052 410.467 662.519 410.562 662.934 410.754C663.353 410.941 663.708 411.205 664 411.547C664.296 411.884 664.522 412.283 664.677 412.743C664.832 413.199 664.909 413.693 664.909 414.227V414.384C664.909 414.917 664.832 415.411 664.677 415.867C664.522 416.323 664.296 416.722 664 417.063C663.708 417.401 663.355 417.665 662.94 417.856C662.53 418.043 662.065 418.137 661.546 418.137C661.026 418.137 660.559 418.043 660.145 417.856C659.73 417.665 659.374 417.401 659.078 417.063C658.786 416.722 658.563 416.323 658.408 415.867C658.253 415.411 658.176 414.917 658.176 414.384ZM659.44 414.227V414.384C659.44 414.753 659.484 415.102 659.57 415.43C659.657 415.753 659.787 416.04 659.96 416.291C660.138 416.542 660.359 416.74 660.623 416.886C660.887 417.027 661.195 417.098 661.546 417.098C661.892 417.098 662.195 417.027 662.455 416.886C662.719 416.74 662.938 416.542 663.111 416.291C663.285 416.04 663.414 415.753 663.501 415.43C663.592 415.102 663.638 414.753 663.638 414.384V414.227C663.638 413.862 663.592 413.518 663.501 413.194C663.414 412.866 663.282 412.577 663.104 412.326C662.931 412.071 662.713 411.87 662.448 411.725C662.188 411.579 661.883 411.506 661.532 411.506C661.186 411.506 660.881 411.579 660.616 411.725C660.356 411.87 660.138 412.071 659.96 412.326C659.787 412.577 659.657 412.866 659.57 413.194C659.484 413.518 659.44 413.862 659.44 414.227ZM667.862 415.997L671.273 410.604H672.545V418H671.273V412.606L667.862 418H666.604V410.604H667.862V415.997ZM670.583 407.924H671.608C671.608 408.279 671.526 408.596 671.362 408.874C671.198 409.147 670.964 409.362 670.658 409.517C670.353 409.672 669.991 409.749 669.571 409.749C668.938 409.749 668.437 409.58 668.067 409.243C667.703 408.901 667.521 408.462 667.521 407.924H668.546C668.546 408.193 668.623 408.43 668.778 408.635C668.933 408.84 669.198 408.942 669.571 408.942C669.936 408.942 670.196 408.84 670.351 408.635C670.506 408.43 670.583 408.193 670.583 407.924ZM677.535 417.098C677.836 417.098 678.114 417.036 678.369 416.913C678.624 416.79 678.834 416.621 678.998 416.407C679.162 416.188 679.256 415.94 679.278 415.662H680.481C680.459 416.1 680.311 416.507 680.037 416.886C679.768 417.259 679.415 417.562 678.978 417.795C678.54 418.023 678.059 418.137 677.535 418.137C676.979 418.137 676.494 418.039 676.079 417.843C675.669 417.647 675.327 417.378 675.054 417.036C674.785 416.694 674.582 416.302 674.445 415.86C674.313 415.414 674.247 414.942 674.247 414.445V414.158C674.247 413.661 674.313 413.192 674.445 412.75C674.582 412.303 674.785 411.909 675.054 411.567C675.327 411.226 675.669 410.957 676.079 410.761C676.494 410.565 676.979 410.467 677.535 410.467C678.114 410.467 678.62 410.585 679.053 410.822C679.486 411.055 679.825 411.374 680.071 411.779C680.322 412.18 680.459 412.636 680.481 413.146H679.278C679.256 412.841 679.169 412.565 679.019 412.319C678.873 412.073 678.672 411.877 678.417 411.731C678.166 411.581 677.872 411.506 677.535 411.506C677.148 411.506 676.822 411.583 676.558 411.738C676.298 411.889 676.09 412.094 675.936 412.354C675.785 412.609 675.676 412.894 675.607 413.208C675.544 413.518 675.512 413.835 675.512 414.158V414.445C675.512 414.769 675.544 415.088 675.607 415.402C675.671 415.717 675.778 416.002 675.929 416.257C676.084 416.512 676.291 416.717 676.551 416.872C676.815 417.022 677.143 417.098 677.535 417.098ZM683.277 410.604V418H682.013V410.604H683.277ZM688.131 410.604L684.624 414.842H682.854L682.662 413.734H684.111L686.593 410.604H688.131ZM686.771 418L684.05 414.65L684.863 413.734L688.377 418H686.771ZM690.845 415.997L694.256 410.604H695.527V418H694.256V412.606L690.845 418H689.587V410.604H690.845V415.997ZM698.925 415.997L702.336 410.604H703.607V418H702.336V412.606L698.925 418H697.667V410.604H698.925V415.997ZM701.646 407.924H702.671C702.671 408.279 702.589 408.596 702.425 408.874C702.261 409.147 702.026 409.362 701.721 409.517C701.415 409.672 701.053 409.749 700.634 409.749C700 409.749 699.499 409.58 699.13 409.243C698.765 408.901 698.583 408.462 698.583 407.924H699.608C699.608 408.193 699.686 408.43 699.841 408.635C699.996 408.84 700.26 408.942 700.634 408.942C700.998 408.942 701.258 408.84 701.413 408.635C701.568 408.43 701.646 408.193 701.646 407.924ZM710.375 412.025V420.844H709.104V410.604H710.266L710.375 412.025ZM715.358 414.24V414.384C715.358 414.922 715.295 415.421 715.167 415.881C715.039 416.337 714.853 416.733 714.606 417.07C714.365 417.408 714.066 417.67 713.711 417.856C713.355 418.043 712.948 418.137 712.487 418.137C712.018 418.137 711.603 418.059 711.243 417.904C710.883 417.749 710.578 417.524 710.327 417.228C710.076 416.931 709.876 416.576 709.726 416.161C709.58 415.746 709.479 415.279 709.425 414.76V413.994C709.479 413.447 709.582 412.957 709.732 412.524C709.883 412.091 710.081 411.722 710.327 411.417C710.578 411.107 710.881 410.872 711.236 410.713C711.592 410.549 712.002 410.467 712.467 410.467C712.932 410.467 713.344 410.558 713.704 410.74C714.064 410.918 714.367 411.173 714.613 411.506C714.859 411.839 715.044 412.237 715.167 412.702C715.295 413.162 715.358 413.675 715.358 414.24ZM714.087 414.384V414.24C714.087 413.871 714.048 413.525 713.971 413.201C713.893 412.873 713.772 412.586 713.608 412.34C713.449 412.089 713.244 411.893 712.993 411.752C712.743 411.606 712.444 411.533 712.098 411.533C711.779 411.533 711.501 411.588 711.264 411.697C711.031 411.807 710.833 411.955 710.669 412.142C710.505 412.324 710.37 412.534 710.266 412.771C710.165 413.003 710.09 413.244 710.04 413.495V415.266C710.131 415.585 710.259 415.885 710.423 416.168C710.587 416.446 710.806 416.672 711.079 416.845C711.353 417.013 711.697 417.098 712.111 417.098C712.453 417.098 712.747 417.027 712.993 416.886C713.244 416.74 713.449 416.542 713.608 416.291C713.772 416.04 713.893 415.753 713.971 415.43C714.048 415.102 714.087 414.753 714.087 414.384ZM721.333 416.735V412.928C721.333 412.636 721.274 412.383 721.155 412.169C721.041 411.95 720.868 411.782 720.636 411.663C720.403 411.545 720.116 411.485 719.774 411.485C719.455 411.485 719.175 411.54 718.934 411.649C718.697 411.759 718.51 411.902 718.373 412.08C718.241 412.258 718.175 412.449 718.175 412.654H716.91C716.91 412.39 716.979 412.128 717.115 411.868C717.252 411.608 717.448 411.374 717.703 411.164C717.963 410.95 718.273 410.781 718.633 410.658C718.997 410.531 719.403 410.467 719.85 410.467C720.387 410.467 720.861 410.558 721.271 410.74C721.686 410.923 722.01 411.198 722.242 411.567C722.479 411.932 722.598 412.39 722.598 412.941V416.387C722.598 416.633 722.618 416.895 722.659 417.173C722.705 417.451 722.771 417.69 722.857 417.891V418H721.538C721.474 417.854 721.424 417.66 721.388 417.419C721.351 417.173 721.333 416.945 721.333 416.735ZM721.552 413.516L721.565 414.404H720.287C719.927 414.404 719.606 414.434 719.323 414.493C719.041 414.548 718.804 414.632 718.612 414.746C718.421 414.86 718.275 415.004 718.175 415.177C718.075 415.345 718.024 415.544 718.024 415.771C718.024 416.004 718.077 416.216 718.182 416.407C718.286 416.599 718.444 416.751 718.653 416.865C718.868 416.975 719.13 417.029 719.439 417.029C719.827 417.029 720.169 416.947 720.465 416.783C720.761 416.619 720.996 416.419 721.169 416.182C721.347 415.945 721.442 415.715 721.456 415.491L721.996 416.1C721.964 416.291 721.878 416.503 721.736 416.735C721.595 416.968 721.406 417.191 721.169 417.405C720.937 417.615 720.659 417.79 720.335 417.932C720.016 418.068 719.656 418.137 719.255 418.137C718.754 418.137 718.314 418.039 717.936 417.843C717.562 417.647 717.27 417.385 717.061 417.057C716.855 416.724 716.753 416.353 716.753 415.942C716.753 415.546 716.83 415.197 716.985 414.896C717.14 414.591 717.364 414.338 717.655 414.138C717.947 413.933 718.298 413.778 718.708 413.673C719.118 413.568 719.576 413.516 720.082 413.516H721.552ZM725.954 415.997L729.365 410.604H730.637V418H729.365V412.606L725.954 418H724.696V410.604H725.954V415.997ZM728.675 407.924H729.7C729.7 408.279 729.618 408.596 729.454 408.874C729.29 409.147 729.055 409.362 728.75 409.517C728.445 409.672 728.082 409.749 727.663 409.749C727.03 409.749 726.528 409.58 726.159 409.243C725.795 408.901 725.612 408.462 725.612 407.924H726.638C726.638 408.193 726.715 408.43 726.87 408.635C727.025 408.84 727.289 408.942 727.663 408.942C728.028 408.942 728.287 408.84 728.442 408.635C728.597 408.43 728.675 408.193 728.675 407.924ZM732.332 414.384V414.227C732.332 413.693 732.41 413.199 732.564 412.743C732.719 412.283 732.943 411.884 733.234 411.547C733.526 411.205 733.879 410.941 734.294 410.754C734.709 410.562 735.174 410.467 735.688 410.467C736.208 410.467 736.675 410.562 737.09 410.754C737.509 410.941 737.865 411.205 738.156 411.547C738.452 411.884 738.678 412.283 738.833 412.743C738.988 413.199 739.065 413.693 739.065 414.227V414.384C739.065 414.917 738.988 415.411 738.833 415.867C738.678 416.323 738.452 416.722 738.156 417.063C737.865 417.401 737.511 417.665 737.097 417.856C736.687 418.043 736.222 418.137 735.702 418.137C735.183 418.137 734.715 418.043 734.301 417.856C733.886 417.665 733.531 417.401 733.234 417.063C732.943 416.722 732.719 416.323 732.564 415.867C732.41 415.411 732.332 414.917 732.332 414.384ZM733.597 414.227V414.384C733.597 414.753 733.64 415.102 733.727 415.43C733.813 415.753 733.943 416.04 734.116 416.291C734.294 416.542 734.515 416.74 734.779 416.886C735.044 417.027 735.351 417.098 735.702 417.098C736.049 417.098 736.352 417.027 736.611 416.886C736.876 416.74 737.094 416.542 737.268 416.291C737.441 416.04 737.571 415.753 737.657 415.43C737.748 415.102 737.794 414.753 737.794 414.384V414.227C737.794 413.862 737.748 413.518 737.657 413.194C737.571 412.866 737.438 412.577 737.261 412.326C737.088 412.071 736.869 411.87 736.604 411.725C736.345 411.579 736.039 411.506 735.688 411.506C735.342 411.506 735.037 411.579 734.772 411.725C734.513 411.87 734.294 412.071 734.116 412.326C733.943 412.577 733.813 412.866 733.727 413.194C733.64 413.518 733.597 413.862 733.597 414.227ZM745.669 413.81V414.835H741.759V413.81H745.669ZM742.025 410.604V418H740.761V410.604H742.025ZM746.694 410.604V418H745.423V410.604H746.694Z" fill="white"/>
<path d="M229.797 179.738C225.485 179.738 221.977 183.247 221.977 187.559C221.977 192.979 229.805 202.238 229.805 202.238C229.805 202.238 237.618 192.713 237.618 187.559C237.618 183.247 234.11 179.738 229.797 179.738ZM232.157 189.849C231.507 190.5 230.652 190.825 229.797 190.825C228.943 190.825 228.088 190.5 227.438 189.849C226.137 188.548 226.137 186.431 227.438 185.13C228.068 184.499 228.906 184.152 229.797 184.152C230.689 184.152 231.527 184.5 232.157 185.13C233.458 186.431 233.458 188.548 232.157 189.849Z" fill="#44D0F7"/>
<path d="M253.797 243.738C249.485 243.738 245.977 247.247 245.977 251.559C245.977 256.979 253.805 266.238 253.805 266.238C253.805 266.238 261.618 256.713 261.618 251.559C261.618 247.247 258.11 243.738 253.797 243.738ZM256.157 253.849C255.507 254.5 254.652 254.825 253.797 254.825C252.943 254.825 252.088 254.5 251.438 253.849C250.137 252.548 250.137 250.431 251.438 249.13C252.068 248.499 252.906 248.152 253.797 248.152C254.689 248.152 255.527 248.5 256.157 249.13C257.458 250.431 257.458 252.548 256.157 253.849Z" fill="#FFC000"/>
<path d="M270.797 189.738C266.485 189.738 262.977 193.247 262.977 197.559C262.977 202.979 270.805 212.238 270.805 212.238C270.805 212.238 278.618 202.713 278.618 197.559C278.618 193.247 275.11 189.738 270.797 189.738ZM273.157 199.849C272.507 200.5 271.652 200.825 270.797 200.825C269.943 200.825 269.088 200.5 268.438 199.849C267.137 198.548 267.137 196.431 268.438 195.13C269.068 194.499 269.906 194.152 270.797 194.152C271.689 194.152 272.527 194.5 273.157 195.13C274.458 196.431 274.458 198.548 273.157 199.849Z" fill="#015467"/>
</svg>
