<svg width="70" height="80" viewBox="0 0 70 80" fill="none" xmlns="http://www.w3.org/2000/svg">
<path d="M56.6775 15.3647L50.192 21.8499L47.3268 18.9849C46.625 18.2827 45.6915 17.8961 44.6987 17.8961C43.7058 17.8961 42.7727 18.2829 42.071 18.9847C41.369 19.6867 40.9822 20.62 40.9822 21.6127C40.9822 22.6054 41.369 23.5387 42.0709 24.2407L46.9638 29.1333C47.8258 29.9961 48.9724 30.4713 50.1922 30.4713C51.4118 30.4713 52.5581 29.9964 53.4201 29.1342L61.9335 20.6206C62.6355 19.9186 63.0223 18.9853 63.0223 17.9927C63.0223 16.9997 62.6355 16.0665 61.9337 15.3649C61.2318 14.6629 60.2984 14.2762 59.3057 14.2762C58.313 14.2762 57.3794 14.6629 56.6775 15.3647ZM60.678 17.9928C60.678 18.3593 60.5351 18.704 60.2759 18.9632L51.7623 27.4769C51.3428 27.8963 50.7852 28.1273 50.192 28.1273C49.5986 28.1273 49.0412 27.8962 48.6216 27.4762L43.7282 22.5832C43.4691 22.3241 43.3262 21.9795 43.3262 21.6129C43.3262 21.2462 43.4691 20.9016 43.7283 20.6424C43.9875 20.3833 44.332 20.2404 44.6987 20.2404C45.0653 20.2404 45.4099 20.3831 45.6692 20.6425L49.3633 24.3365C49.8209 24.7941 50.5632 24.7941 51.0206 24.3365L58.335 17.0225C58.5941 16.7632 58.9387 16.6205 59.3054 16.6205C59.672 16.6205 60.0166 16.7632 60.2759 17.0225C60.5353 17.2816 60.678 17.6262 60.678 17.9928ZM69.2076 22.3333C69.2076 18.1294 67.6741 14.0827 64.8893 10.9392C64.46 10.4544 63.7193 10.4096 63.2348 10.8389C62.7502 11.2682 62.7054 12.0088 63.1345 12.4934C65.5391 15.2081 66.8633 18.7025 66.8633 22.3333C66.8633 30.5198 60.2032 37.1799 52.0169 37.1799C43.8304 37.1799 37.1703 30.5198 37.1703 22.3333C37.1703 13.9921 43.6865 7.48687 52.0169 7.48687C54.5312 7.48687 57.0146 8.12652 59.1989 9.33643C59.7656 9.65008 60.4785 9.4452 60.7922 8.87916C61.1058 8.3128 60.9011 7.59955 60.3349 7.2859C57.8038 5.88377 54.9274 5.1427 52.0167 5.1427C48.0549 5.1427 44.4024 6.4906 41.492 8.75085C38.3705 5.11098 35.7382 2.26922 34.3909 0.841773C33.3304 -0.281867 31.4758 -0.279366 30.4174 0.841929C27.5772 3.85106 20.2526 11.8352 13.5978 20.9634C5.09859 32.6217 0.789062 41.8565 0.789062 48.4114C0.789062 54.0338 2.28636 59.5548 5.11922 64.3774C5.45037 64.9411 6.17347 65.1174 6.72357 64.7944C7.28164 64.4665 7.46839 63.7482 7.14052 63.19C4.51911 58.727 3.13323 53.6166 3.13323 48.4114C3.13323 47.1764 3.31186 45.8544 3.63473 44.4687C12.6495 44.0792 19.1531 47.0493 26.0266 50.1881C27.3043 50.7717 28.593 51.3596 29.9096 51.9322L29.9213 51.9374C34.0211 53.7199 38.3954 55.3491 43.58 56.203C46.0359 56.6074 48.5436 56.8093 51.0933 56.8093C54.2418 56.8093 57.4536 56.4999 60.7053 55.8845C57.3914 68.4014 45.96 77.6559 32.4043 77.6559C23.8824 77.6559 15.7996 73.9543 10.2287 67.5005C9.80568 67.0102 9.06555 66.9565 8.57562 67.3791C8.08553 67.8021 8.0313 68.5421 8.45419 69.0322C14.4709 76.0026 23.2003 80.0002 32.4044 80.0002C50.0342 80.0002 64.0197 65.609 64.0197 48.4116C64.0197 45.2404 62.9976 41.4034 60.9821 36.9956C65.9122 33.9699 69.2076 28.5294 69.2076 22.3333ZM61.2504 53.3843C55.2939 54.6264 49.4809 54.7991 43.9612 53.8899C40.5393 53.3264 37.4613 52.3951 34.5697 51.3022C48.2709 48.9146 55.2937 48.9595 61.5261 51.3765C61.4576 52.0529 61.3643 52.722 61.2504 53.3843ZM61.6756 48.4114C61.6756 48.5838 61.672 48.7554 61.6691 48.927C54.6312 46.4 46.6132 46.628 30.5449 49.6505C29.3462 49.1258 28.1684 48.5891 27.0007 48.0557C20.0532 44.883 13.4671 41.8784 4.30594 42.1014C9.19245 27.2993 27.9224 6.90067 32.122 2.45128C32.2958 2.26703 32.5138 2.26765 32.6867 2.45097C34.0232 3.86716 36.6396 6.69189 39.7422 10.3111C36.7032 13.4133 34.8261 17.6579 34.8261 22.3333C34.8261 31.8122 42.538 39.524 52.0169 39.524C54.4636 39.524 56.7921 39.0091 58.9011 38.0836C60.7412 42.1314 61.6756 45.6028 61.6756 48.4114Z" fill="#015467"/>
</svg>
