<svg width="80" height="74" viewBox="0 0 80 74" fill="none" xmlns="http://www.w3.org/2000/svg">
<path d="M36.3774 19.5536C37.5974 20.5864 38.9021 20.9333 40.2916 20.5942C42.8796 19.9008 44.1852 16.6639 43.2638 13.2253C42.5616 10.6048 40.1213 7.49497 37.0054 8.32966C34.4174 9.0231 33.1118 12.26 34.0332 15.6986C34.4525 17.2634 35.2849 18.6323 36.3774 19.5536ZM37.6119 10.5937C39.271 10.1493 40.7639 12.9522 40.9997 13.8318C41.5519 15.8926 40.9375 17.9945 39.685 18.3301C37.9563 18.7925 36.558 16.0651 36.2972 15.092C35.745 13.0312 36.3594 10.9292 37.6119 10.5937Z" fill="#015467"/>
<path d="M50.3862 20.7194C53.0929 20.7194 55.0695 17.9972 55.6856 15.6985C56.6068 12.2599 55.3014 9.02318 52.7134 8.32959C49.5975 7.49521 47.1573 10.6044 46.455 13.2252C45.5337 16.6638 46.8392 19.9007 49.4272 20.5941C49.7408 20.6782 50.062 20.7194 50.3862 20.7194ZM48.7189 13.8319C48.9794 12.8601 50.3781 10.1308 52.1067 10.5938C53.3592 10.9294 53.9736 13.0313 53.4214 15.0921C53.1614 16.0626 51.762 18.7938 50.0336 18.3302C48.7812 17.9946 48.1667 15.8926 48.7189 13.8319Z" fill="#015467"/>
<path d="M27.6274 18.3048C25.188 19.7133 25.6947 23.1568 26.8632 25.1806C28.0319 27.205 30.7626 29.3639 33.1999 27.9567C35.6393 26.5484 35.1326 23.1045 33.9641 21.0809C32.4018 18.3747 29.618 17.1556 27.6274 18.3048ZM32.0279 25.9267C31.1999 26.4925 29.8586 25.4898 28.8929 24.0086C28.0241 22.6762 27.8794 20.8153 28.7993 20.3347C29.9244 19.7465 31.4683 21.4404 31.9343 22.2528C32.3985 23.0623 32.9451 25.3001 32.0279 25.9267Z" fill="#015467"/>
<path d="M60.0578 27.9108C61.157 27.366 62.1489 26.3966 62.8508 25.1807C64.0192 23.1571 64.5259 19.7133 62.0866 18.3049C60.0956 17.1555 57.3123 18.3747 55.7498 21.081C54.5816 23.1046 54.0747 26.5483 56.5141 27.9568C57.6919 28.5424 58.8731 28.5271 60.0578 27.9108ZM57.6859 25.9269C56.8169 25.4575 56.8662 23.555 57.7795 22.253C58.7034 20.6525 60.2123 19.8947 60.9145 20.3349C61.8578 20.9263 61.6823 22.6718 60.8209 24.0088C59.8247 25.5552 58.77 26.395 57.6859 25.9269Z" fill="#015467"/>
<path d="M34.6377 42.902C36.3388 44.4342 39.0228 44.8902 41.1625 44.138C43.6449 43.2653 46.038 43.2603 48.4794 44.1227C50.7828 44.9361 53.2938 44.4658 55.0328 42.8948C57.632 40.5467 58.1892 36.685 56.358 33.7125L50.9889 24.9975C49.6624 22.8442 47.3603 21.5586 44.8311 21.5586C42.302 21.5586 40 22.8442 38.6735 24.9975L33.3045 33.7125C31.4703 36.6895 32.031 40.5544 34.6377 42.902ZM35.3 34.9419L40.6691 26.2267C41.5658 24.7712 43.1217 23.9023 44.8313 23.9023C46.5408 23.9023 48.0967 24.7712 48.9935 26.2269L54.3625 34.9419C55.7656 37.2194 54.9714 39.7917 53.4617 41.1555C52.3614 42.1492 50.7516 42.4392 49.2602 41.9125C46.3363 40.8797 43.3503 40.8842 40.3853 41.9267C38.9088 42.4456 37.3077 42.152 36.2064 41.1603C34.6922 39.7967 33.8947 37.2228 35.3 34.9419Z" fill="#015467"/>
<path d="M78.7337 46.0954C77.0687 44.0632 73.9305 43.394 71.5708 44.6454C73.6833 40.6995 74.9005 36.3126 75.1148 31.8184C75.1456 31.1718 74.6466 30.6228 74 30.5918C73.3506 30.5615 72.8044 31.0601 72.7734 31.7067C72.3306 40.9932 67.2139 49.4967 59.295 54.2889C58.592 51.8834 56.3664 50.1212 53.7369 50.1212H41.8019C40.0641 50.1212 38.3798 49.5684 37.0589 48.5647C32.9912 45.474 27.1925 44.9747 22.6525 47.3298C18.9397 42.4775 16.9053 36.487 16.9053 30.3514C16.9053 14.9398 29.4436 2.40152 44.8552 2.40152C58.9009 2.40152 70.8214 12.892 72.5831 26.8031C72.6644 27.4451 73.2508 27.9003 73.893 27.8184C74.5352 27.7371 74.9897 27.1506 74.9083 26.5086C72.9987 11.429 60.0786 0.0576172 44.8552 0.0576172C28.1511 0.0576172 14.5614 13.6473 14.5614 30.3512C14.5614 36.9323 16.7211 43.3595 20.6666 48.5901C20.0663 49.049 19.5012 49.5603 18.9788 50.1209H14.4975V48.5022C14.4975 47.855 13.9728 47.3303 13.3256 47.3303H1.17188C0.524687 47.3303 0 47.855 0 48.5022V72.7706C0 73.4178 0.524687 73.9425 1.17188 73.9425H13.3256C13.9728 73.9425 14.4975 73.4178 14.4975 72.7706V70.6298H19.3302L27.9433 73.2193C29.5375 73.6992 31.1916 73.9426 32.8595 73.9426H42.885C43.5322 73.9426 44.0569 73.4179 44.0569 72.7707C44.0569 72.1236 43.5322 71.5989 42.885 71.5989H32.8595C31.4206 71.5989 29.9939 71.389 28.6186 70.975L19.84 68.3357C19.7306 68.3029 19.6169 68.2862 19.5027 68.2862H14.4975V52.4651H19.5025C19.8441 52.4651 20.1686 52.3161 20.3913 52.0572C24.1586 47.6743 30.9963 46.9017 35.6411 50.4309C37.367 51.7426 39.5552 52.4651 41.802 52.4651H53.737C58.4672 52.4651 58.0708 59.3862 53.6263 59.3862H38.5427C37.8955 59.3862 37.3708 59.9109 37.3708 60.5581C37.3708 61.2053 37.8955 61.73 38.5427 61.73H53.6263C55.9767 61.73 58.1745 60.1995 59.0245 58.0309L72.0634 47.1243C75.4519 44.2879 79.7894 49.4842 76.5286 52.3396L56.4398 69.9329C55.2139 71.0072 53.6402 71.5989 52.0087 71.5989H47.993C47.3458 71.5989 46.8211 72.1236 46.8211 72.7707C46.8211 73.4179 47.3458 73.9426 47.993 73.9426H52.0087C54.2086 73.9426 56.3309 73.1447 57.9844 71.6959L78.0728 54.1029C80.3534 52.1061 80.6559 48.4389 78.7337 46.0954ZM12.1537 71.5989H7.2175V62.9296C7.2175 62.2825 6.69281 61.7578 6.04563 61.7578C6.04219 61.7578 6.03891 61.7579 6.03547 61.7579C6.03203 61.7579 6.02875 61.7578 6.02531 61.7578C5.37813 61.7578 4.85344 62.2825 4.85344 62.9296V71.5989H2.34391V49.6743H4.85344V57.8217C4.85344 58.4689 5.37813 58.9936 6.02531 58.9936C6.02875 58.9936 6.03203 58.9934 6.03547 58.9934C6.03891 58.9934 6.04219 58.9936 6.04563 58.9936C6.69281 58.9936 7.2175 58.4689 7.2175 57.8217V49.6743H12.1536V71.5989H12.1537Z" fill="#015467"/>
</svg>
