<svg width="80" height="80" viewBox="0 0 80 80" fill="none" xmlns="http://www.w3.org/2000/svg">
<path d="M78.7566 58.7872H69.5275C63.8969 58.7872 59.3159 54.2064 59.3159 48.5756V48.0909H63.5347V48.5756C63.5347 51.88 66.223 54.5684 69.5275 54.5684H78.7566C79.4039 54.5684 79.9284 54.0439 79.9284 53.3966C79.9284 52.7492 79.4039 52.2247 78.7566 52.2247H69.5275C67.5155 52.2247 65.8784 50.5877 65.8784 48.5756V48.0909H66.517C67.1644 48.0909 67.6889 47.5664 67.6889 46.9191C67.6889 46.2717 67.1644 45.7472 66.517 45.7472H65.8784V33.7359H66.517C67.1644 33.7359 67.6889 33.2114 67.6889 32.5641C67.6889 31.9167 67.1644 31.3922 66.517 31.3922H65.8784V30.3073C65.8784 23.3844 60.2462 17.752 53.3233 17.752H50.2534V15.7859H50.892C51.5394 15.7859 52.0639 15.2614 52.0639 14.6141C52.0639 13.9667 51.5394 13.4422 50.892 13.4422H50.2534V12.555C50.2534 5.63234 44.6213 0 37.6983 0H25.9322C19.0092 0 13.3769 5.63234 13.3769 12.5553V13.9584H12.7383C12.0911 13.9584 11.5664 14.483 11.5664 15.1303C11.5664 15.7777 12.0911 16.3022 12.7383 16.3022H13.3769V36.6647H12.7383C12.0911 36.6647 11.5664 37.1892 11.5664 37.8366C11.5664 38.4839 12.0911 39.0084 12.7383 39.0084H13.3769V39.5966C13.3769 41.6086 11.74 43.2455 9.72797 43.2455H1.17188C0.524687 43.2455 0 43.77 0 44.4173C0 45.0647 0.524687 45.5892 1.17188 45.5892H9.72812C13.0325 45.5892 15.7208 42.9009 15.7208 39.5966V39.0084H19.9395V39.5966C19.9395 45.227 15.3587 49.808 9.72812 49.808H1.17188C0.524687 49.808 0 50.3325 0 50.9798C0 51.6272 0.524687 52.1517 1.17188 52.1517H9.72812C16.6511 52.1517 22.2833 46.5195 22.2833 39.5966V39.0084H22.9219C23.5691 39.0084 24.0938 38.4839 24.0938 37.8366C24.0938 37.1892 23.5691 36.6647 22.9219 36.6647H22.2833V16.3022H22.9219C23.5691 16.3022 24.0938 15.7777 24.0938 15.1303C24.0938 14.483 23.5691 13.9584 22.9219 13.9584H22.2833V12.5553C22.2833 10.5433 23.9203 8.90625 25.9323 8.90625H28.9239C29.5711 8.90625 30.0958 8.38172 30.0958 7.73438C30.0958 7.08703 29.5711 6.5625 28.9239 6.5625H25.9323C22.628 6.5625 19.9395 9.25078 19.9395 12.5553V13.9584H15.7208V12.5553C15.7208 6.92469 20.3016 2.34375 25.9323 2.34375H37.6984C43.3291 2.34375 47.9098 6.92453 47.9098 12.5553V13.4425H43.6911V12.5553C43.6911 9.25094 41.0028 6.5625 37.6984 6.5625H33.4553C32.8081 6.5625 32.2834 7.08703 32.2834 7.73438C32.2834 8.38172 32.8081 8.90625 33.4553 8.90625H37.6984C39.7105 8.90625 41.3473 10.5433 41.3473 12.5553V13.4425H40.7086C40.0614 13.4425 39.5367 13.967 39.5367 14.6144C39.5367 15.2617 40.0614 15.7862 40.7086 15.7862H41.3473V17.7541C34.5209 17.8667 29.0022 23.4548 29.0022 30.3075V31.3923H28.3636C27.7164 31.3923 27.1917 31.9169 27.1917 32.5642C27.1917 33.2116 27.7164 33.7361 28.3636 33.7361H29.0022V54.6236H28.3636C27.7164 54.6236 27.1917 55.1481 27.1917 55.7955C27.1917 56.4428 27.7164 56.9673 28.3636 56.9673H29.0022V57.3488C29.0022 59.3608 27.3653 60.9977 25.3533 60.9977H1.17188C0.524687 60.9977 0 61.5222 0 62.1695C0 62.8169 0.524687 63.3414 1.17188 63.3414H25.3531C28.6575 63.3414 31.3458 60.6531 31.3458 57.3488V56.9673H35.5645V57.3488C35.5645 62.9792 30.9837 67.5602 25.3531 67.5602H10.6445C9.99734 67.5602 9.47266 68.0847 9.47266 68.732C9.47266 69.3794 9.99734 69.9039 10.6445 69.9039H25.3531C32.2761 69.9039 37.9083 64.2717 37.9083 57.3488V56.9673H38.5469C39.1941 56.9673 39.7188 56.4428 39.7188 55.7955C39.7188 55.1481 39.1941 54.6236 38.5469 54.6236H37.9083V33.7361H38.5469C39.1941 33.7361 39.7188 33.2116 39.7188 32.5642C39.7188 31.9169 39.1941 31.3923 38.5469 31.3923H37.9083V30.3075C37.9083 28.3659 39.4325 26.7738 41.3472 26.6645V64.0502H40.7084C40.0612 64.0502 39.5366 64.5747 39.5366 65.222C39.5366 65.8694 40.0612 66.3939 40.7084 66.3939H41.3472V67.4448C41.3472 74.3678 46.9795 80.0002 53.9025 80.0002H78.7566C79.4039 80.0002 79.9284 79.4756 79.9284 78.8283C79.9284 78.1809 79.4039 77.6564 78.7566 77.6564H53.9025C48.2719 77.6564 43.6909 73.0756 43.6909 67.4448V66.3939H47.9097V67.4448C47.9097 70.7492 50.598 73.4377 53.9025 73.4377H62.3145C62.9619 73.4377 63.4864 72.9131 63.4864 72.2658C63.4864 71.6184 62.9619 71.0939 62.3145 71.0939H53.9025C51.8905 71.0939 50.2534 69.4569 50.2534 67.4448V66.3939H50.892C51.5394 66.3939 52.0639 65.8694 52.0639 65.222C52.0639 64.5747 51.5394 64.0502 50.892 64.0502H50.2534V26.6584H53.3233C55.3353 26.6584 56.9722 28.2955 56.9722 30.3075V31.3923H56.3334C55.6861 31.3923 55.1616 31.9169 55.1616 32.5642C55.1616 33.2116 55.6861 33.7361 56.3334 33.7361H56.9722V45.7473H56.3334C55.6861 45.7473 55.1616 46.2719 55.1616 46.9192C55.1616 47.5666 55.6861 48.0911 56.3334 48.0911H56.9722V48.5758C56.9722 55.4988 62.6045 61.1311 69.5275 61.1311H78.7566C79.4039 61.1311 79.9284 60.6066 79.9284 59.9592C79.9284 59.3119 79.4039 58.7872 78.7566 58.7872ZM19.9395 16.3022V36.6647H15.7208V16.3022H19.9395ZM47.9097 15.7861V17.7522H43.6909V15.7861H47.9097ZM35.5645 54.6236H31.3458V33.7361H35.5645V54.6236ZM47.9097 64.0502H43.6909V26.6584H47.9097V64.0502ZM53.3234 24.3147H41.5573C38.253 24.3147 35.5645 27.003 35.5645 30.3075V31.3923H31.3458V30.3075C31.3458 24.6769 35.9267 20.0959 41.5573 20.0959H53.3234C58.9539 20.0959 63.5348 24.6767 63.5348 30.3075V31.3923H59.3161V30.3075C59.3159 27.003 56.6277 24.3147 53.3234 24.3147ZM59.3159 33.7361H63.5347V45.7473H59.3159V33.7361Z" fill="#015467"/>
</svg>
