<svg width="80" height="76" viewBox="0 0 80 76" fill="none" xmlns="http://www.w3.org/2000/svg">
<path d="M20.2717 41.6836C20.7872 41.1144 20.9189 40.293 20.6075 39.5906C20.2955 38.8875 19.5972 38.433 18.8281 38.433H15.0597C15.3455 32.2047 17.9066 26.39 22.3442 21.9509C24.0895 20.2056 26.0462 18.7509 28.1852 17.6028C28.3111 18.1692 28.8348 19.2125 29.1442 19.7486C29.4772 20.3252 29.8586 20.8789 30.2777 21.3944C30.9756 22.2522 32.1722 22.5398 33.1883 22.0942C33.7719 21.8383 34.4212 21.8733 34.9703 22.1905C35.5194 22.5075 35.8745 23.0523 35.9445 23.6853C36.0666 24.7869 36.9139 25.6792 38.005 25.8552C38.6684 25.9622 39.3358 26.0158 40.003 26.0156C40.6814 26.0156 41.3597 25.9603 42.0325 25.8495C43.1002 25.6739 43.9305 24.7841 44.0516 23.6859C44.1214 23.0527 44.4767 22.5075 45.0261 22.1903C45.5751 21.8731 46.225 21.8381 46.8086 22.0944C47.8202 22.5384 49.0058 22.2642 49.6917 21.4275C50.8775 19.9813 51.6612 18.2677 51.8094 17.607C55.6142 19.6605 58.8784 22.7022 61.1834 26.3894C61.542 26.9603 62.1334 27.3214 62.8056 27.3803C62.8698 27.3859 62.9336 27.3888 62.9972 27.3888C63.6011 27.3888 64.17 27.1375 64.582 26.6822L68.0525 22.8334C68.7172 22.093 68.7862 21.0023 68.2203 20.1808C63.9923 14.0484 57.8087 9.41125 50.7709 7.08078C50.4573 6.55313 50.1053 6.04469 49.7189 5.56969C49.0209 4.71203 47.8241 4.42422 46.8083 4.86984C46.225 5.12578 45.5756 5.09078 45.0262 4.77359C44.477 4.45656 44.1219 3.91141 44.0519 3.27828C43.9306 2.18109 43.1016 1.29188 42.0359 1.11609C40.6833 0.892814 39.3131 0.892345 37.9639 1.11438C36.8964 1.29016 36.0661 2.18 35.945 3.27797C35.8752 3.91125 35.5198 4.45641 34.9705 4.77359C34.4212 5.09078 33.7716 5.12578 33.1881 4.86953C32.1766 4.42563 30.9911 4.69969 30.3048 5.53641C29.9044 6.02485 29.5445 6.54203 29.2237 7.0825C25.2969 8.38109 21.6678 10.3655 18.4323 12.9891C17.9297 13.3967 17.8527 14.1345 18.2602 14.6373C18.4917 14.923 18.8298 15.0713 19.1711 15.0713C19.4305 15.0713 19.6914 14.9856 19.9084 14.8095C22.4131 12.7786 25.1703 11.1588 28.1287 9.975C28.1534 10.7169 28.5106 11.432 29.1352 11.8911C29.9061 12.4578 30.1384 13.4473 29.7741 14.2759C26.363 15.6522 23.3069 17.6742 20.6869 20.2942C15.5295 25.4533 12.6892 32.3114 12.6892 39.6052C12.6892 40.2523 13.2139 40.777 13.8611 40.777H17.9339L10.3877 49.1473L2.84015 40.777H6.91281C7.56 40.777 8.08469 40.2523 8.08469 39.6052C8.08469 31.8027 10.9322 24.2917 16.1023 18.4561C16.5316 17.9716 16.4867 17.2311 16.0023 16.8019C15.5177 16.3727 14.7772 16.4175 14.3481 16.9019C9.05719 22.8736 6.03219 30.4802 5.76093 38.4333H1.94547C1.1775 38.4333 0.479685 38.8869 0.167654 39.5889C-0.144378 40.2909 -0.0137526 41.1127 0.50031 41.682L8.94312 51.0452C9.31156 51.453 9.83797 51.6869 10.3875 51.6869C10.937 51.6869 11.4634 51.453 11.833 51.0442L20.2717 41.6836ZM66.203 21.3844L63.0222 24.9119C59.9742 20.1458 55.4497 16.3877 50.2219 14.2741C50.1141 14.0284 50.0539 13.7611 50.0539 13.4817C50.0539 12.8475 50.3483 12.2677 50.8614 11.8903C51.4856 11.4316 51.8431 10.7177 51.8686 9.97688C57.6144 12.2856 62.6403 16.2703 66.203 21.3844ZM32.2458 7.01531C33.5009 7.56641 34.9575 7.48719 36.1422 6.80297C37.3269 6.11906 38.1239 4.89719 38.2742 3.53469C38.2809 3.47391 38.3159 3.43125 38.3444 3.42672C39.4408 3.24625 40.5542 3.24672 41.6541 3.42828C41.6817 3.43281 41.7156 3.47703 41.7222 3.53563C41.8728 4.89781 42.6698 6.11938 43.8541 6.80313C45.0384 7.48703 46.4948 7.56625 47.7495 7.01594C47.8062 6.99125 47.8639 7.00375 47.9003 7.04844C48.5602 7.85969 49.1203 8.80516 49.5206 9.85485C49.5412 9.90891 49.5231 9.96531 49.4734 10.0019C48.3692 10.8133 47.71 12.1142 47.71 13.4817C47.71 14.862 48.3869 16.163 49.4731 16.9613C49.5225 16.9977 49.5405 17.0541 49.5197 17.1086C49.1278 18.1384 48.5758 19.0916 47.8792 19.9414C47.8608 19.9638 47.8064 19.9727 47.7506 19.9481C46.4955 19.3969 45.0389 19.4762 43.8542 20.1605C42.6695 20.8444 41.8725 22.0663 41.7222 23.4288C41.7155 23.4895 41.6806 23.532 41.6522 23.5367C40.5677 23.7152 39.4664 23.7166 38.3784 23.5411C38.3209 23.5317 38.2809 23.4881 38.2742 23.427C38.1234 22.0653 37.3264 20.8441 36.1423 20.1605C35.4802 19.7781 34.7331 19.5847 33.9834 19.5847C33.3925 19.5847 32.8 19.705 32.2467 19.9477C32.1903 19.9727 32.1323 19.9598 32.0959 19.9152C31.755 19.4959 31.4448 19.0456 31.1739 18.5764C30.903 18.107 30.668 17.6131 30.4756 17.1086C30.455 17.0545 30.4731 16.9981 30.5228 16.9616C31.6047 16.1666 32.2862 14.8675 32.2862 13.4816C32.2862 12.1142 31.627 10.8134 30.5231 10.002C30.4737 9.96563 30.4558 9.90922 30.4766 9.85469C30.8684 8.82485 31.4203 7.87172 32.117 7.02203C32.1355 6.99985 32.19 6.99094 32.2458 7.01531Z" fill="#015467"/>
<path d="M79.4937 37.5277L71.051 28.1661C70.6826 27.7583 70.1562 27.5244 69.6066 27.5244C69.0571 27.5244 68.5307 27.7583 68.1613 28.1671L59.7199 37.5288C59.1985 38.1083 59.0715 38.9108 59.3887 39.6227C59.7057 40.3344 60.3868 40.7766 61.166 40.7766H64.9338C64.7352 45.0805 63.4241 49.2643 61.1309 52.9014C60.7857 53.4488 60.9496 54.1725 61.4971 54.5177C62.0445 54.863 62.7682 54.6988 63.1134 54.1514C65.7016 50.0464 67.1466 45.3057 67.2918 40.4439C67.3087 39.9197 67.1088 39.4027 66.7437 39.0257C66.3788 38.6489 65.8693 38.4329 65.3456 38.4329H62.0604L69.6065 30.0639L77.1538 38.4329H73.8454C72.7963 38.4329 71.9238 39.2839 71.9004 40.3302C71.7573 46.7775 69.6996 52.9497 65.9499 58.1793C62.6365 62.8005 58.2096 66.4185 53.0702 68.7255L53.3762 63.416C55.6763 62.1221 57.7759 60.503 59.6235 58.5946C60.0737 58.1296 60.0618 57.3877 59.5968 56.9375C59.1316 56.4872 58.3896 56.4993 57.9398 56.9643C56.6085 58.3393 55.1334 59.548 53.5398 60.5783L54.3418 46.6588H55.1331C56.2101 46.6588 57.0862 45.7827 57.0862 44.7057V39.2333C57.0862 38.1564 56.2101 37.2804 55.1331 37.2804H45.9907V34.5889C45.9907 32.5475 44.3298 30.8866 42.2884 30.8866H37.7041C35.6627 30.8866 34.0018 32.5474 34.0018 34.5889V37.2804H24.8595C23.7824 37.2804 22.9063 38.1564 22.9063 39.2335V44.7057C22.9063 45.7827 23.7824 46.6588 24.8595 46.6588H25.6507L26.4526 60.5761C23.3807 58.5893 20.7632 55.9425 18.8113 52.8243C18.4532 52.2527 17.8623 51.891 17.1902 51.8318C16.5148 51.7732 15.8679 52.0266 15.4121 52.5303L11.9434 56.3755C11.2751 57.1163 11.2057 58.208 11.7738 59.0289C15.5981 64.5738 20.8763 68.8164 27.0724 71.3374L27.1804 73.211C27.2399 74.2432 28.0963 75.0518 29.1302 75.0518H50.8618C51.8957 75.0518 52.7523 74.2432 52.8116 73.211L52.9196 71.3383C58.9101 68.8985 64.0624 64.8339 67.8546 59.5449C71.8041 54.0364 74.0052 47.555 74.2324 40.7764H78.0484C78.8276 40.7764 79.5087 40.3343 79.8257 39.6225C80.1431 38.9107 80.0162 38.1083 79.4937 37.5277ZM36.3456 34.5891C36.3456 33.84 36.9549 33.2305 37.7041 33.2305H42.2884C43.0374 33.2305 43.647 33.8399 43.647 34.5891V37.2805H36.3456V34.5891ZM25.2501 39.6241H54.7424V44.315H25.2501V39.6241ZM13.7918 57.826L16.972 54.3005C19.3921 58.0821 22.7132 61.2161 26.616 63.4124L26.9221 68.7252C21.6438 66.3591 17.1327 62.6207 13.7918 57.826ZM29.4993 72.7082L27.9985 46.6588H51.9941L50.4934 72.7082H29.4993Z" fill="#015467"/>
<path d="M35.1758 52.668C34.5286 52.668 34.0039 53.1927 34.0039 53.8398V65.528C34.0039 66.1752 34.5286 66.6998 35.1758 66.6998C35.823 66.6998 36.3477 66.1752 36.3477 65.528V53.8398C36.3477 53.1927 35.823 52.668 35.1758 52.668Z" fill="#015467"/>
<path d="M44.8203 52.668C44.1731 52.668 43.6484 53.1927 43.6484 53.8398V65.528C43.6484 66.1752 44.1731 66.6998 44.8203 66.6998C45.4675 66.6998 45.9922 66.1752 45.9922 65.528V53.8398C45.9922 53.1927 45.4675 52.668 44.8203 52.668Z" fill="#015467"/>
<path d="M39.9995 17.9734C42.4762 17.9734 44.4911 15.9585 44.4911 13.4818C44.4911 11.0051 42.4762 8.99023 39.9995 8.99023C37.5228 8.99023 35.5078 11.0051 35.5078 13.4818C35.5078 15.9585 37.5228 17.9734 39.9995 17.9734ZM39.9995 11.3338C41.1839 11.3338 42.1473 12.2973 42.1473 13.4816C42.1473 14.666 41.1839 15.6295 39.9995 15.6295C38.8152 15.6295 37.8516 14.666 37.8516 13.4816C37.8516 12.2974 38.8152 11.3338 39.9995 11.3338Z" fill="#015467"/>
</svg>
