<svg width="80" height="80" viewBox="0 0 80 80" fill="none" xmlns="http://www.w3.org/2000/svg">
<g clip-path="url(#clip0_1868_99236)">
<path d="M78.8151 62.8218C78.1609 62.8218 77.6311 63.3515 77.6311 64.0058V69.7022H2.36877V56.8013C2.36877 56.147 1.83838 55.6172 1.18469 55.6172C0.530394 55.6172 0 56.147 0 56.8013V70.088C0 71.1817 0.889891 72.0716 1.98364 72.0716H78.0162C79.1099 72.0716 79.9998 71.1817 79.9998 70.088V64.0058C79.9998 63.3515 79.4694 62.8218 78.8151 62.8218Z" fill="#015467"/>
<path d="M76.6441 13.6743C64.6758 22.799 63.1029 24.4342 58.2036 26.051C58.6412 20.6976 63.1182 19.306 63.3312 19.2431C63.958 19.0625 64.3218 18.4094 64.1435 17.7814C63.9653 17.1521 63.311 16.7871 62.6811 16.9647C61.4849 17.3034 59.5702 18.3545 58.1664 20.0165V8.99719C58.1664 8.34289 57.636 7.8125 56.9817 7.8125C56.3274 7.8125 55.7976 8.34289 55.7976 8.99719V20.0165C54.5171 18.5003 52.6592 17.3547 51.2829 16.9647C50.6536 16.7871 49.9987 17.1521 49.8205 17.7814C49.6416 18.4106 50.0072 19.0655 50.6371 19.2444C50.6878 19.2584 55.6829 20.747 55.7921 26.7089C52.7288 27.373 50.938 27.2509 45.9533 27.2509C40.4223 27.2509 35.0689 28.9874 30.473 32.2735C28.518 33.6706 26.4147 34.7601 24.2157 35.5261C24.4927 29.8999 29.1516 28.4558 29.3676 28.3923C29.9938 28.2122 30.3576 27.5592 30.1794 26.9311C30.0012 26.3018 29.3463 25.9369 28.7176 26.1145C27.4786 26.4654 25.5798 27.5354 24.2028 29.1662V18.1463C24.2028 17.492 23.6724 16.9623 23.0181 16.9623C22.3638 16.9623 21.8341 17.492 21.8341 18.1463V29.1662C20.4852 27.5695 18.5925 26.4746 17.3187 26.1145C16.6919 25.9369 16.0418 26.3 15.8612 26.9262C15.6799 27.5531 16.0424 28.208 16.6674 28.3923C16.8786 28.4539 21.8335 29.981 21.8335 36.0546C21.8335 36.109 21.8328 36.1639 21.8322 36.2194C18.3459 37.0403 17.4145 36.8542 2.08923 36.8542C0.937498 36.8536 0 37.7911 0 38.9428V52.0635C0 52.7178 0.530394 53.2482 1.18469 53.2482C1.83838 53.2482 2.36877 52.7178 2.36877 52.0635V48.8927C16.95 48.8927 19.1412 49.2168 23.9196 47.7782C24.5458 47.5896 24.9011 46.9292 24.7125 46.303C24.5239 45.6762 23.8635 45.3216 23.2366 45.5102C18.9941 46.787 17.4768 46.524 2.36877 46.524V39.2223H16.3702C21.9006 39.2223 27.254 37.4859 31.8505 34.1998C36.0424 31.203 40.9191 29.6191 45.9533 29.6191C51.3817 29.6191 58.8842 30.3082 67.0818 23.9434L77.6311 15.9009V22.5921L65.6377 31.7364C61.2694 35.1281 56.1126 36.9207 50.725 36.9207C45.338 36.9207 38.3843 36.2878 30.473 41.9433C29.4995 42.6391 28.471 43.269 27.4175 43.814C26.3183 44.3835 26.7297 46.0509 27.9632 46.0509C28.6736 46.0509 31.2817 44.2773 31.8505 43.8702C39.0508 38.7231 45.2752 39.2895 50.725 39.2895C56.6436 39.2895 62.3027 37.3248 67.0818 33.6138L77.6311 25.5706V59.2681C77.6311 59.9224 78.1615 60.4528 78.8158 60.4528C79.4701 60.4528 79.9998 59.9224 79.9998 59.2681V15.3357C79.9998 13.6127 78.0168 12.6257 76.6441 13.6743Z" fill="#015467"/>
<path d="M72.2673 41.0184C72.2673 42.0359 71.4421 42.8605 70.4247 42.8605C69.4072 42.8605 68.582 42.0359 68.582 41.0184C68.582 40.0004 69.4072 39.1758 70.4247 39.1758C71.4421 39.1758 72.2673 40.0004 72.2673 41.0184Z" fill="#015467"/>
<path d="M64.2673 52.3885C64.2673 53.406 63.4421 54.2312 62.4247 54.2312C61.4072 54.2312 60.582 53.406 60.582 52.3885C60.582 51.3711 61.4072 50.5459 62.4247 50.5459C63.4421 50.5459 64.2673 51.3711 64.2673 52.3885Z" fill="#015467"/>
<path d="M53.6339 47.7089C53.6339 48.7263 52.8093 49.5515 51.7913 49.5515C50.7738 49.5515 49.9492 48.7263 49.9492 47.7089C49.9492 46.6914 50.7738 45.8662 51.7913 45.8662C52.8093 45.8662 53.6339 46.6914 53.6339 47.7089Z" fill="#015467"/>
<path d="M45.7902 60.9217C45.7902 61.9392 44.9656 62.7644 43.9481 62.7644C42.9301 62.7644 42.1055 61.9392 42.1055 60.9217C42.1055 59.9043 42.9301 59.0791 43.9481 59.0791C44.9656 59.0791 45.7902 59.9043 45.7902 60.9217Z" fill="#015467"/>
<path d="M16.1534 54.8127C16.1534 55.8308 15.3289 56.6554 14.3108 56.6554C13.2933 56.6554 12.4688 55.8308 12.4688 54.8127C12.4688 53.7953 13.2933 52.9707 14.3108 52.9707C15.3289 52.9707 16.1534 53.7953 16.1534 54.8127Z" fill="#015467"/>
<path d="M26.2081 65.1884C26.2081 66.2058 25.3835 67.031 24.3661 67.031C23.348 67.031 22.5234 66.2058 22.5234 65.1884C22.5234 64.1709 23.348 63.3457 24.3661 63.3457C25.3835 63.3457 26.2081 64.1709 26.2081 65.1884Z" fill="#015467"/>
<path d="M33.1033 52.9706C33.1033 53.988 32.2781 54.8126 31.2606 54.8126C30.2432 54.8126 29.418 53.988 29.418 52.9706C29.418 51.9525 30.2432 51.1279 31.2606 51.1279C32.2781 51.1279 33.1033 51.9525 33.1033 52.9706Z" fill="#015467"/>
<path d="M10.6261 63.3456C10.6261 64.363 9.80151 65.1882 8.78344 65.1882C7.76599 65.1882 6.94141 64.363 6.94141 63.3456C6.94141 62.3281 7.76599 61.5029 8.78344 61.5029C9.80151 61.5029 10.6261 62.3281 10.6261 63.3456Z" fill="#015467"/>
<path d="M71.4269 64.6063C71.4269 65.6238 70.6023 66.449 69.5848 66.449C68.5674 66.449 67.7422 65.6238 67.7422 64.6063C67.7422 63.5889 68.5674 62.7637 69.5848 62.7637C70.6023 62.7637 71.4269 63.5889 71.4269 64.6063Z" fill="#015467"/>
</g>
<defs>
<clipPath id="clip0_1868_99236">
<rect width="80" height="80" fill="white"/>
</clipPath>
</defs>
</svg>
