<svg width="80" height="68" viewBox="0 0 80 68" fill="none" xmlns="http://www.w3.org/2000/svg">
<path d="M20.5878 48.957C15.9178 48.957 13.6452 48.2253 11.239 47.4505C8.76657 46.6547 6.20989 45.8316 1.172 45.8316C0.524744 45.8316 0 46.3562 0 47.0036C0 47.651 0.524744 48.1756 1.172 48.1756C5.84188 48.1756 8.11462 48.9073 10.5208 49.682C16.0336 51.8371 25.1933 51.8201 30.6549 49.6819C35.764 47.6762 44.2704 47.6854 49.3526 49.6822C51.8253 50.4781 54.3819 51.301 59.42 51.301C69.2349 51.3266 69.2687 48.1963 78.8366 48.1756C80.3857 48.1233 80.3899 45.8857 78.8366 45.8316C70.116 45.7726 69.3543 48.3222 61.6746 48.8929C61.6544 34.223 57.8406 23.6264 50.3303 17.3847C46.2909 14.0279 41.12 11.9825 35.3763 11.47C32.6721 11.2285 30.4416 11.3751 29.1173 11.5253C29.0208 10.2111 28.9405 9.42068 28.9384 9.40099C28.8944 8.9736 28.6199 8.60434 28.2232 8.43917C28.015 8.35244 23.0295 6.3166 14.5559 6.3166C13.9087 6.3166 13.3839 6.84119 13.3839 7.4886C13.3839 8.13601 13.9087 8.6606 14.5559 8.6606C16.9045 8.6606 18.9741 8.82796 20.7261 9.06424C20.8641 10.8783 21.1604 15.3687 21.1604 20.4798C21.1604 25.4288 20.8824 29.1583 20.7407 30.7383C14.4962 31.7448 5.78515 30.7087 2.49527 29.4519C2.32525 24.1695 2.28868 15.7339 2.45995 10.3634C3.51928 10.0126 5.79906 9.36052 9.06863 8.97501C9.71151 8.89938 10.1712 8.31666 10.0953 7.67393C10.0195 7.03121 9.43586 6.57131 8.79423 6.64726C5.99205 6.97761 3.87354 7.48969 2.53762 7.88239C2.66857 4.20809 2.81827 2.05208 2.82093 2.01426C2.86656 1.36872 2.3801 0.808195 1.73441 0.762565C1.08871 0.718342 0.528338 1.20324 0.482708 1.84893C0.47802 1.91738 0 8.79468 0 19.0227C0 29.242 0.476926 37.8528 0.481771 37.9387C0.516306 38.5862 1.07808 39.0812 1.71768 39.0431C2.364 39.0068 2.85843 38.4535 2.82218 37.8073C2.81968 37.7636 2.69435 35.4982 2.57262 31.934C10.3247 34.4404 23.2687 33.5572 28.2235 31.3654C28.6101 31.2044 28.8812 30.8494 28.9351 30.4342C28.9461 30.35 29.0837 29.2697 29.2144 27.4245C29.8621 27.2945 30.8964 27.2317 32.0391 27.7208C33.9518 28.5401 35.5107 30.5939 36.6725 33.8252C36.8907 34.4402 37.5789 34.7497 38.1719 34.5317C38.781 34.3127 39.0972 33.6414 38.8782 33.0323C37.4762 29.1323 35.4655 26.6119 32.9023 25.5408C31.5584 24.9794 30.3069 24.9303 29.3513 25.0389C29.521 21.8309 29.4555 16.8959 29.2675 13.8727C47.9603 11.9013 59.7392 25.5362 59.3307 48.957C54.721 48.9477 52.4617 48.2205 50.071 47.4507C47.7875 46.7158 45.4322 45.9574 41.1168 45.8458C40.9619 43.2037 40.6927 40.7834 40.3143 38.638C40.2018 38.0008 39.5941 37.5746 38.9565 37.6875C38.3191 37.7998 37.8934 38.4077 38.006 39.0451C38.3624 41.066 38.6184 43.35 38.769 45.8491C29.9865 46.1127 29.589 48.9741 20.5878 48.957ZM26.6888 29.4281C26.0109 29.6535 24.8033 30.0116 23.129 30.3426C23.282 28.4879 23.5046 25.0102 23.5046 20.4798C23.5046 15.7703 23.2566 11.5762 23.1055 9.45725C24.7805 9.78713 25.9909 10.145 26.6743 10.3714C26.8112 11.9508 27.1092 15.9062 27.1092 20.4105C27.109 24.774 26.8291 28.0561 26.6888 29.4281Z" fill="#015467"/>
<path d="M50.0688 55.4206C44.5682 53.2696 35.4104 53.278 29.9348 55.4209C24.8433 57.4216 16.3291 57.4216 11.2373 55.4206C10.6313 55.2256 10.0045 55.0238 9.34022 54.8351C8.71781 54.6586 8.06946 55.0198 7.89257 55.6422C7.71567 56.2649 8.07712 56.9131 8.69968 57.09C9.32475 57.2675 9.90481 57.4543 10.5189 57.6519C16.0172 59.8015 25.1683 59.7967 30.653 57.6521C35.756 55.6481 44.2623 55.6534 49.3505 57.6521C50.655 58.0718 52.0039 58.5062 53.7344 58.818C54.3715 58.9325 54.9809 58.5095 55.0956 57.8724C55.2103 57.2355 54.787 56.6259 54.15 56.5112C52.5735 56.2271 51.3569 55.8355 50.0688 55.4206Z" fill="#015467"/>
<path d="M70.6632 54.8349C69.9991 55.0237 69.3723 55.2254 68.7661 55.4204C66.3601 56.195 64.0873 56.9268 59.4173 56.9268C57.8671 56.9796 57.8651 59.2171 59.4173 59.2708C64.4553 59.2708 67.0119 58.4476 69.4845 57.6517C70.0986 57.4541 70.6787 57.2673 71.3037 57.0898C71.9263 56.9129 72.2877 56.2649 72.1108 55.642C71.934 55.0196 71.2856 54.6581 70.6632 54.8349Z" fill="#015467"/>
<path d="M78.8348 61.7705C73.7966 61.7705 71.2399 62.5937 68.7673 63.3894C63.6524 65.3948 55.1634 65.3876 50.0691 63.3894C44.5765 61.2425 35.427 61.2423 29.9347 63.3894C28.5319 63.8412 27.2071 64.2677 25.4166 64.5542C24.7775 64.6564 24.3423 65.2574 24.4446 65.8967C24.547 66.5359 25.1478 66.9697 25.7871 66.8689C27.7546 66.5538 29.2281 66.0794 30.6531 65.6208C35.7574 63.6182 44.2531 63.6204 49.3509 65.6209C54.8496 67.7702 64.0009 67.7655 69.4857 65.6209C71.8919 64.8461 74.1646 64.1145 78.8348 64.1145C80.3855 64.0614 80.3866 61.824 78.8348 61.7705Z" fill="#015467"/>
<path d="M20.5878 64.8958C15.9178 64.8958 13.6452 64.164 11.239 63.3894C8.76657 62.5937 6.21004 61.7705 1.172 61.7705C0.524744 61.7705 0 62.2951 0 62.9425C0 63.5899 0.524744 64.1145 1.172 64.1145C5.84203 64.1145 8.11462 64.8463 10.5208 65.6209C12.9933 66.4168 15.55 67.2398 20.5878 67.2398C21.2351 67.2398 21.7598 66.7153 21.7598 66.0678C21.7598 65.4204 21.2351 64.8958 20.5878 64.8958Z" fill="#015467"/>
<path d="M39.8747 26.1459C39.9199 26.1928 44.396 30.9538 45.0095 40.7317C45.0481 41.3791 45.6139 41.8704 46.2526 41.8281C46.8986 41.7874 47.3894 41.231 47.349 40.585C46.6772 29.8791 41.7646 24.7265 41.5558 24.5123C41.105 24.0499 40.3667 24.0407 39.9029 24.4901C39.4391 24.9394 39.4272 25.6806 39.8747 26.1459Z" fill="#015467"/>
<path d="M53.449 44.4392C54.0927 44.4565 54.6349 43.9449 54.6505 43.2973C54.6574 43.0256 54.7851 36.5633 51.6849 30.007C51.4081 29.4219 50.7096 29.1722 50.1244 29.4485C49.5392 29.7252 49.2892 30.4238 49.5659 31.009C52.4173 37.0393 52.3089 43.1698 52.3073 43.2384C52.2912 43.8852 52.8022 44.4225 53.449 44.4392Z" fill="#015467"/>
<path d="M40.4428 18.6805C37.3934 16.4793 33.6257 16.9197 33.4666 16.9391C32.8258 17.0189 32.3723 17.6019 32.4501 18.2431C32.5279 18.8841 33.1111 19.341 33.7529 19.2656C33.783 19.262 36.7834 18.9299 39.071 20.581C39.2785 20.7307 39.5182 20.8029 39.7559 20.8029C40.1195 20.8028 40.4781 20.6341 40.7072 20.3168C41.086 19.7919 40.9677 19.0593 40.4428 18.6805Z" fill="#015467"/>
</svg>
