<svg width="80" height="80" viewBox="0 0 80 80" fill="none" xmlns="http://www.w3.org/2000/svg">
<path d="M7.31171 27.3617L12.0305 29.2259C12.1717 29.2816 12.3173 29.3081 12.4608 29.3081C12.915 29.3081 13.3462 29.0422 13.537 28.6006C15.0767 25.0355 17.2925 21.8583 20.1233 19.1572C20.5915 18.7105 20.6087 17.9688 20.162 17.5003C19.7155 17.0323 18.9736 17.0148 18.5051 17.4616C15.7222 20.1169 13.4886 23.1994 11.8545 26.6364L9.31171 25.6319C10.9737 22.0845 13.2369 18.8658 16.0506 16.0506C22.4487 9.65406 30.9542 6.13125 40.0001 6.13125C40.6475 6.13125 41.172 5.60672 41.172 4.95937V2.43438C41.172 2.38438 41.2126 2.34375 41.2626 2.34375H41.4205C41.5219 2.34375 41.6194 2.38156 41.6947 2.45L46.3876 6.71656C46.607 6.91641 46.728 7.18984 46.7278 7.48625C46.7278 7.78203 46.6072 8.05453 46.3883 8.25344L41.6975 12.5197C41.6211 12.5886 41.5228 12.6267 41.4206 12.6267H41.2628C41.212 12.6267 41.1722 12.587 41.1722 12.5363V10.0109C41.1722 9.36359 40.6476 8.83906 40.0003 8.83906C33.9162 8.83906 28.0194 10.6 22.9476 13.9314C22.4065 14.2867 22.2561 15.0133 22.6115 15.5542C22.9669 16.0953 23.6937 16.2459 24.2344 15.8903C28.5967 13.0248 33.6194 11.4164 38.8284 11.2064V12.5359C38.8284 13.8783 39.9205 14.9702 41.2628 14.9702H41.4206C42.1044 14.9702 42.7608 14.7175 43.2715 14.2561L47.9653 9.98734C48.6681 9.34828 49.0714 8.43688 49.0717 7.48703C49.0722 6.53656 48.6691 5.62406 47.9651 4.98297L43.2711 0.715469C42.7633 0.254062 42.1061 0 41.4205 0H41.2626C39.9203 0 38.8283 1.09203 38.8283 2.43438V3.80594C29.5953 4.09734 20.9575 7.83078 14.3931 14.3934C11.0781 17.7102 8.4778 21.552 6.66405 25.8128C6.54014 26.1036 6.53905 26.4322 6.66093 26.7239C6.78311 27.0155 7.01764 27.2456 7.31171 27.3617Z" fill="#015467"/>
<path d="M77.5644 38.8277H76.1924C75.901 29.5935 72.1675 20.956 65.605 14.3935C62.2917 11.0802 58.45 8.47962 54.1869 6.66399C53.8961 6.54008 53.5675 6.53915 53.2758 6.66087C52.9841 6.78274 52.7541 7.01743 52.6378 7.31149L50.7736 12.0293C50.5413 12.6177 50.8177 13.2845 51.3984 13.5356C61.6189 17.9545 68.3461 27.7965 68.7925 38.8276H67.4627C66.1202 38.8276 65.028 39.9196 65.028 41.2621V41.4201C65.028 42.1056 65.2819 42.7624 65.7433 43.2707L70.0111 47.9646C70.0111 47.9648 70.0113 47.9649 70.0114 47.9651C70.6514 48.6684 71.5634 49.0716 72.5136 49.0716C73.4638 49.0715 74.3756 48.6682 75.0156 47.9648L79.2844 43.2698C79.745 42.7621 79.9988 42.1052 79.9988 41.4201V41.2621C79.9989 39.9198 78.9069 38.8277 77.5644 38.8277ZM77.6552 41.4202C77.6552 41.5218 77.6175 41.6193 77.5497 41.694L73.2819 46.3879C73.0825 46.6071 72.8095 46.7281 72.5136 46.7281C72.2178 46.7281 71.945 46.6074 71.7453 46.3881L67.478 41.6946C67.4095 41.6193 67.3717 41.5218 67.3717 41.4202V41.2623C67.3717 41.2123 67.4125 41.1715 67.4627 41.1715H69.988C70.6353 41.1715 71.1599 40.647 71.1599 39.9996C71.1599 27.9413 64.212 17.016 53.363 11.854L54.3677 9.31165C57.9169 10.9751 61.1352 13.2382 63.9477 16.0509C70.3442 22.4473 73.867 30.9524 73.867 39.9995C73.867 40.6468 74.3916 41.1713 75.0389 41.1713H77.5644C77.6144 41.1713 77.6552 41.2121 77.6552 41.2621V41.4202Z" fill="#015467"/>
<path d="M72.6895 52.6387L67.9708 50.7745C67.3822 50.5423 66.7156 50.8186 66.4644 51.3995C62.0469 61.6201 52.205 68.3475 41.173 68.7939V67.4644C41.173 66.122 40.0809 65.0301 38.7386 65.0301H38.5808C37.897 65.0301 37.2406 65.2828 36.7298 65.7442L32.0361 70.013C31.3333 70.652 30.93 71.5634 30.9297 72.5133C30.9292 73.4637 31.3323 74.3762 32.0363 75.0173L36.7302 79.2848C37.238 79.7462 37.8952 80.0003 38.5808 80.0003H38.7386C40.0809 80.0003 41.173 78.9083 41.173 77.5659V76.1939C49.5088 75.9255 57.4933 72.7994 63.7716 67.3225C64.2592 66.897 64.3097 66.1569 63.8842 65.669C63.4589 65.1815 62.7186 65.1309 62.2308 65.5564C56.0859 70.917 48.1913 73.8692 40.0011 73.8692C39.3538 73.8692 38.8292 74.3937 38.8292 75.0411V77.5661C38.8292 77.6161 38.7886 77.6567 38.7386 77.6567H38.5808C38.4794 77.6567 38.3819 77.6189 38.3066 77.5505L33.6136 73.2839C33.3942 73.084 33.2733 72.8106 33.2734 72.5142C33.2734 72.2184 33.3941 71.9459 33.613 71.747L38.3038 67.4808C38.3802 67.4119 38.4784 67.3737 38.5806 67.3737H38.7384C38.7892 67.3737 38.8291 67.4134 38.8291 67.4642V69.9892C38.8291 70.6365 39.3536 71.1611 40.0009 71.1611C52.0603 71.1611 62.9855 64.2131 68.1463 53.3637L70.6891 54.3684C69.4411 57.03 67.8456 59.5209 65.9359 61.7872C65.5189 62.2822 65.582 63.0214 66.0769 63.4384C66.572 63.8556 67.3113 63.7922 67.7281 63.2975C70.0488 60.5434 71.9358 57.4784 73.3369 54.1875C73.4608 53.8965 73.4619 53.568 73.34 53.2762C73.2181 52.985 72.9836 52.7548 72.6895 52.6387Z" fill="#015467"/>
<path d="M28.6008 66.4636C24.403 64.6501 20.6425 61.8137 17.7261 58.2614C17.3152 57.7609 16.5767 57.6886 16.0767 58.0992C15.5766 58.51 15.5039 59.2482 15.9145 59.7486C18.8253 63.294 22.5145 66.18 26.6366 68.1451L25.6317 70.6887C22.0844 69.0267 18.8656 66.7636 16.0505 63.9498C9.65406 57.5517 6.13125 49.0462 6.13125 40.0003C6.13125 39.3529 5.60672 38.8284 4.95937 38.8284H2.43438C2.38438 38.8284 2.34375 38.7878 2.34375 38.7378V38.58C2.34375 38.4786 2.38156 38.3811 2.45 38.3057L6.71656 33.6128C6.91641 33.3934 7.18953 33.2726 7.48578 33.2726H7.48625C7.78203 33.2726 8.05453 33.3932 8.25344 33.6121L12.5197 38.3029C12.5886 38.3793 12.6267 38.4776 12.6267 38.5798V38.7376C12.6267 38.7884 12.587 38.8282 12.5363 38.8282H10.0109C9.36359 38.8282 8.83906 39.3528 8.83906 40.0001C8.83906 45.2645 10.1817 50.4692 12.722 55.0512C13.0361 55.6173 13.7492 55.8218 14.3152 55.5079C14.8811 55.194 15.0856 54.4809 14.7719 53.9148C12.6125 50.0198 11.3894 45.6375 11.2069 41.172H12.5361C13.8784 41.172 14.9703 40.08 14.9703 38.7376V38.5798C14.9703 37.8961 14.7177 37.2396 14.2562 36.7289L9.9875 32.0351C9.34844 31.3323 8.43703 30.929 7.48719 30.9287C7.48672 30.9287 7.48625 30.9287 7.48578 30.9287C6.53578 30.9287 5.62391 31.3317 4.98297 32.0353L0.715469 36.7293C0.254062 37.2371 0 37.8943 0 38.58V38.7378C0 40.0801 1.09203 41.1721 2.43438 41.1721H3.80594C4.09734 50.4051 7.83078 59.0429 14.3934 65.6073C17.7102 68.9223 21.552 71.5226 25.8128 73.3364C26.1038 73.4603 26.4322 73.4612 26.7239 73.3395C27.0155 73.2175 27.2456 72.9829 27.3617 72.6889L29.2259 67.9701C29.4584 67.3814 29.1817 66.7145 28.6008 66.4636Z" fill="#015467"/>
<path d="M24.0039 36.5088C24.0039 37.1561 24.5284 37.6807 25.1758 37.6807H39.697C40.3444 37.6807 40.8689 37.1561 40.8689 36.5088C40.8689 35.8614 40.3444 35.3369 39.697 35.3369H25.1758C24.5284 35.3369 24.0039 35.8616 24.0039 36.5088Z" fill="#015467"/>
<path d="M49.0211 27.4639C47.3336 27.4639 45.7561 28.2964 44.8011 29.6909C44.4355 30.2248 44.5719 30.9542 45.1059 31.32C45.6398 31.6857 46.3694 31.5492 46.735 31.0151C47.2527 30.259 48.1073 29.8076 49.0211 29.8076C50.5455 29.8076 51.7856 31.0479 51.7856 32.5721C51.7856 34.0964 50.5453 35.3367 49.0211 35.3367H44.75C44.1027 35.3367 43.5781 35.8612 43.5781 36.5086C43.5781 37.1559 44.1027 37.6804 44.75 37.6804H49.0211C51.8378 37.6804 54.1294 35.3889 54.1294 32.5721C54.1294 29.7554 51.8378 27.4639 49.0211 27.4639Z" fill="#015467"/>
<path d="M25.1758 47.0166C24.5284 47.0166 24.0039 47.5411 24.0039 48.1885C24.0039 48.8358 24.5284 49.3604 25.1758 49.3604H32.1206C32.768 49.3604 33.2925 48.8358 33.2925 48.1885C33.2925 47.5411 32.768 47.0166 32.1206 47.0166H25.1758Z" fill="#015467"/>
<path d="M37.1719 49.3601H57.1992C60.0159 49.3601 62.3075 47.0686 62.3075 44.2518C62.3075 41.4351 60.0159 39.1436 57.1992 39.1436C55.512 39.1436 53.9344 39.9761 52.9794 41.3704C52.6136 41.9043 52.75 42.6337 53.2839 42.9995C53.818 43.3654 54.5472 43.2289 54.913 42.695C55.4308 41.9389 56.2856 41.4873 57.1992 41.4873C58.7236 41.4873 59.9638 42.7276 59.9638 44.2518C59.9638 45.7761 58.7234 47.0164 57.1992 47.0164H37.1719C36.5245 47.0164 36 47.5409 36 48.1882C36 48.8356 36.5247 49.3601 37.1719 49.3601Z" fill="#015467"/>
<path d="M48.805 42.3486C48.805 41.7013 48.2805 41.1768 47.6331 41.1768H18.8633C18.2159 41.1768 17.6914 41.7013 17.6914 42.3486C17.6914 42.996 18.2159 43.5205 18.8633 43.5205H47.6331C48.2803 43.5205 48.805 42.996 48.805 42.3486Z" fill="#015467"/>
<path d="M37.4867 31.0518C38.1341 31.0518 38.6586 30.5272 38.6586 29.8799C38.6586 29.2325 38.1341 28.708 37.4867 28.708H33.3828C32.7355 28.708 32.2109 29.2325 32.2109 29.8799C32.2109 30.5272 32.7355 31.0518 33.3828 31.0518H37.4867Z" fill="#015467"/>
</svg>
