<svg width="80" height="70" viewBox="0 0 80 70" fill="none" xmlns="http://www.w3.org/2000/svg">
<path d="M78.8281 13.8105C79.4753 13.8105 80 13.286 80 12.6387V4.20508C80 2.26664 78.423 0.689453 76.4844 0.689453H3.51562C1.57703 0.689453 0 2.26664 0 4.20508V65.7951C0 67.7335 1.57703 69.3107 3.51562 69.3107H27.5639C28.2111 69.3107 28.7358 68.7862 28.7358 68.1388C28.7358 67.4915 28.2111 66.967 27.5639 66.967H20.3853C22.0777 65.384 23.1375 63.1335 23.1375 60.6388C23.1375 55.8571 19.2473 51.967 14.4656 51.967C9.68391 51.967 5.79375 55.8571 5.79375 60.6388C5.79375 63.1335 6.85375 65.384 8.54594 66.967H3.51562C2.86937 66.967 2.34375 66.4413 2.34375 65.7951V45.9948C5.31734 46.0766 6.94812 46.4698 8.66219 46.8835C10.6377 47.3605 12.6805 47.8538 16.7027 47.8538C20.7248 47.8538 22.7675 47.3605 24.743 46.8835C25.8012 46.628 26.8286 46.3806 28.1588 46.2091C27.3713 47.2654 26.9039 48.5735 26.9039 49.9896C26.9039 53.4873 29.7494 56.3329 33.247 56.3329C36.7447 56.3329 39.5902 53.4873 39.5902 49.9896C39.5902 48.7532 39.2333 47.5993 38.6188 46.6232C38.9925 46.7071 39.3561 46.7949 39.7236 46.8837C41.6992 47.3607 43.7419 47.854 47.7642 47.854C51.1642 47.854 53.1498 47.5015 54.8761 47.1043C54.862 47.232 54.8523 47.3609 54.8523 47.4921C54.8523 49.4305 56.4294 51.0077 58.368 51.0077C60.3066 51.0077 61.8836 49.4305 61.8836 47.4921C61.8836 46.9646 61.7667 46.464 61.5577 46.0146C62.0891 45.9916 62.6647 45.9788 63.2959 45.9788C67.0394 45.9788 68.8597 46.4182 70.7869 46.8835C72.5605 47.3118 74.3903 47.7526 77.6559 47.8384V65.7949C77.6559 66.4412 77.1303 66.9668 76.4841 66.9668H32.2519C31.6047 66.9668 31.08 67.4913 31.08 68.1387C31.08 68.786 31.6047 69.3105 32.2519 69.3105H76.4844C78.423 69.3105 80 67.7334 80 65.7949V17.3266C80 16.6793 79.4753 16.1548 78.8281 16.1548C78.1809 16.1548 77.6562 16.6793 77.6562 17.3266V27.9282C74.6823 27.8463 73.0514 27.4532 71.3373 27.0395C69.3617 26.5624 67.3187 26.0691 63.2964 26.0691C59.2741 26.0691 57.2311 26.5624 55.2555 27.0395C53.3284 27.5048 51.5081 27.9441 47.7647 27.9441C44.0214 27.9441 42.2013 27.5048 40.2742 27.0395C38.2986 26.5624 36.2559 26.0691 32.2336 26.0691C28.2114 26.0691 26.1688 26.5624 24.1933 27.0395C22.2663 27.5048 20.4463 27.9441 16.703 27.9441C12.9597 27.9441 11.1397 27.5048 9.21266 27.0395C7.43906 26.6112 5.61 26.1701 2.34406 26.0843V7.73711C5.31766 7.81898 6.94844 8.21211 8.6625 8.62586C10.638 9.10289 12.6808 9.59617 16.703 9.59617C20.7252 9.59617 22.7678 9.10289 24.7433 8.62586C26.6703 8.16055 28.4903 7.72117 32.2336 7.72117C35.9769 7.72117 37.797 8.16055 39.7241 8.62586C41.6997 9.10289 43.7423 9.59617 47.7647 9.59617C51.787 9.59617 53.83 9.10289 55.8056 8.62586C57.7327 8.16055 59.553 7.72117 63.2964 7.72117C67.0398 7.72117 68.8602 8.16055 70.7873 8.62586C72.5609 9.05414 74.3908 9.49492 77.6564 9.5807V12.6387C77.6562 13.2859 78.1809 13.8105 78.8281 13.8105ZM8.1375 60.6388C8.1375 57.1495 10.9762 54.3107 14.4656 54.3107C17.955 54.3107 20.7938 57.1495 20.7938 60.6388C20.7938 64.1282 17.955 66.967 14.4656 66.967C10.9762 66.967 8.1375 64.1282 8.1375 60.6388ZM33.2473 53.9891C31.042 53.9891 29.248 52.1951 29.248 49.9896C29.248 47.7845 31.042 45.9902 33.2473 45.9902C35.4527 45.9902 37.2467 47.7843 37.2467 49.9896C37.2467 52.1951 35.4525 53.9891 33.2473 53.9891ZM58.3683 48.664C57.722 48.664 57.1964 48.1384 57.1964 47.4921C57.1964 46.8459 57.722 46.3202 58.3683 46.3202C59.0145 46.3202 59.5402 46.8459 59.5402 47.4921C59.5402 48.1384 59.0145 48.664 58.3683 48.664ZM8.66219 29.3174C10.6377 29.7945 12.6805 30.2877 16.7027 30.2877C20.7248 30.2877 22.7675 29.7945 24.743 29.3174C26.67 28.8521 28.49 28.4127 32.2333 28.4127C35.9766 28.4127 37.7967 28.8521 39.7237 29.3174C41.6994 29.7945 43.742 30.2877 47.7644 30.2877C51.7867 30.2877 53.8297 29.7945 55.8053 29.3174C57.7323 28.8521 59.5527 28.4127 63.2961 28.4127C67.0395 28.4127 68.8598 28.8521 70.787 29.3174C72.5606 29.7457 74.3905 30.1865 77.6561 30.2723V33.7835C74.6822 33.7016 73.0513 33.3085 71.3372 32.8946C69.3616 32.4174 67.3186 31.9243 63.2962 31.9243C59.2739 31.9243 57.2309 32.4174 55.2553 32.8945C53.3283 33.3599 51.508 33.7993 47.7645 33.7993C44.0212 33.7993 42.2011 33.3599 40.2741 32.8946C38.2984 32.4174 36.2558 31.9243 32.2334 31.9243C28.2114 31.9243 26.1687 32.4174 24.1931 32.8945C22.8461 33.2198 21.5737 33.527 19.6522 33.6874C19.0072 33.7413 18.528 34.3077 18.5819 34.9527C18.6358 35.5977 19.2008 36.0768 19.8472 36.023C21.9484 35.8477 23.3692 35.5046 24.7431 35.1729C26.6702 34.7076 28.4902 34.2682 32.2333 34.2682C35.9766 34.2682 37.7967 34.7076 39.7237 35.1729C41.6994 35.6501 43.742 36.1432 47.7644 36.1432C51.7869 36.1432 53.8297 35.6501 55.8053 35.173C57.7323 34.7076 59.5527 34.2682 63.2961 34.2682C67.0395 34.2682 68.8598 34.7076 70.787 35.173C72.5608 35.6013 74.3898 36.0423 77.6561 36.128V39.639C74.6822 39.5571 73.0513 39.164 71.3372 38.7501C69.3616 38.2729 67.3186 37.7798 63.2962 37.7798C59.2738 37.7798 57.2308 38.2729 55.2552 38.7499C54.3278 38.974 53.4519 39.1854 52.3647 39.3505C51.7248 39.4477 51.2848 40.0452 51.382 40.6851C51.4792 41.3249 52.0764 41.7649 52.7167 41.6677C53.9036 41.4874 54.8703 41.2541 55.8052 41.0282C57.7322 40.5629 59.5525 40.1235 63.2961 40.1235C67.0395 40.1235 68.8598 40.5629 70.787 41.0284C72.5608 41.4566 74.3898 41.8976 77.6561 41.9834V45.4943C74.6822 45.4124 73.0513 45.0193 71.3372 44.6055C69.3616 44.1285 67.3186 43.6352 63.2962 43.6352C59.2739 43.6352 57.2309 44.1285 55.2553 44.6055C53.3283 45.0709 51.508 45.5102 47.7645 45.5102C44.0212 45.5102 42.2011 45.0709 40.2741 44.6055C38.2984 44.1285 36.2558 43.6352 32.2334 43.6352C28.2113 43.6352 26.1686 44.1285 24.1931 44.6055C22.2661 45.0709 20.4461 45.5102 16.7028 45.5102C12.9595 45.5102 11.1395 45.0709 9.2125 44.6055C7.43891 44.1773 5.60984 43.7362 2.34391 43.6504V40.1395C5.3175 40.2213 6.94828 40.6145 8.66234 41.0282C10.6378 41.5054 12.6806 41.9985 16.7028 41.9985C20.725 41.9985 22.7677 41.5054 24.7431 41.0282C26.6702 40.5629 28.4902 40.1235 32.2334 40.1235C35.9767 40.1235 37.7969 40.5629 39.7239 41.0282C41.6995 41.5054 43.7422 41.9985 47.7645 41.9985C48.4117 41.9985 48.9364 41.474 48.9364 40.8266C48.9364 40.1793 48.4117 39.6548 47.7645 39.6548C44.0212 39.6548 42.2011 39.2154 40.2741 38.7501C38.2984 38.2729 36.2558 37.7798 32.2334 37.7798C28.2114 37.7798 26.1686 38.2729 24.1931 38.7501C22.2661 39.2154 20.4461 39.6548 16.7028 39.6548C12.9595 39.6548 11.1395 39.2154 9.2125 38.7501C7.43891 38.3216 5.60984 37.8807 2.34391 37.7949V34.284C5.3175 34.3659 6.94828 34.759 8.66234 35.1727C10.3339 35.5763 12.0622 35.9937 14.9998 36.1107C15.0158 36.1113 15.0316 36.1116 15.0473 36.1116C15.673 36.1116 16.1923 35.6171 16.2175 34.9865C16.2433 34.3396 15.7398 33.7946 15.0931 33.7688C12.3872 33.6612 10.845 33.2888 9.2125 32.8945C7.43891 32.4662 5.60984 32.0252 2.34406 31.9395V28.4285C5.31734 28.5105 6.94812 28.9035 8.66219 29.3174ZM71.3373 6.34773C69.3617 5.8707 67.3187 5.37742 63.2964 5.37742C59.2741 5.37742 57.2311 5.8707 55.2555 6.34773C53.3284 6.81305 51.5081 7.25242 47.7647 7.25242C44.0214 7.25242 42.2013 6.81305 40.2742 6.34773C38.2986 5.8707 36.2559 5.37742 32.2336 5.37742C28.2114 5.37742 26.1688 5.8707 24.1933 6.34773C22.2663 6.81305 20.4463 7.25242 16.703 7.25242C12.9597 7.25242 11.1397 6.81305 9.21266 6.34773C7.43875 5.91945 5.60969 5.47836 2.34375 5.39258V4.20508C2.34375 3.55883 2.86937 3.0332 3.51562 3.0332H76.4844C77.1306 3.0332 77.6562 3.55883 77.6562 4.20508V7.23649C74.6823 7.15477 73.0514 6.76148 71.3373 6.34773Z" fill="#015467"/>
<path d="M7.20312 15.2939C7.20312 17.2324 8.78016 18.8096 10.7187 18.8096C12.6573 18.8096 14.2344 17.2324 14.2344 15.2939C14.2344 13.3555 12.6573 11.7783 10.7187 11.7783C8.78016 11.7783 7.20312 13.3555 7.20312 15.2939ZM11.8906 15.2939C11.8906 15.9402 11.365 16.4658 10.7187 16.4658C10.0725 16.4658 9.54688 15.9402 9.54688 15.2939C9.54688 14.6477 10.0725 14.1221 10.7187 14.1221C11.365 14.1221 11.8906 14.6477 11.8906 15.2939Z" fill="#015467"/>
<path d="M17.0859 22.2588C17.0859 24.1972 18.663 25.7744 20.6016 25.7744C22.5402 25.7744 24.1172 24.1972 24.1172 22.2588C24.1172 20.3204 22.5402 18.7432 20.6016 18.7432C18.663 18.7432 17.0859 20.3204 17.0859 22.2588ZM20.6016 21.0869C21.2478 21.0869 21.7734 21.6125 21.7734 22.2588C21.7734 22.905 21.2478 23.4307 20.6016 23.4307C19.9553 23.4307 19.4297 22.905 19.4297 22.2588C19.4297 21.6125 19.9553 21.0869 20.6016 21.0869Z" fill="#015467"/>
<path d="M65.918 23.4307C67.8566 23.4307 69.4336 21.8535 69.4336 19.915C69.4336 17.9766 67.8566 16.3994 65.918 16.3994C63.9794 16.3994 62.4023 17.9766 62.4023 19.915C62.4023 21.8535 63.9794 23.4307 65.918 23.4307ZM65.918 18.7432C66.5642 18.7432 67.0898 19.2688 67.0898 19.915C67.0898 20.5613 66.5642 21.0869 65.918 21.0869C65.2717 21.0869 64.7461 20.5613 64.7461 19.915C64.7461 19.2688 65.2717 18.7432 65.918 18.7432Z" fill="#015467"/>
<path d="M52.6094 15.2939C52.6094 13.3555 51.0323 11.7783 49.0938 11.7783C47.1552 11.7783 45.5781 13.3555 45.5781 15.2939C45.5781 17.2324 47.1552 18.8096 49.0938 18.8096C51.0323 18.8096 52.6094 17.2324 52.6094 15.2939ZM47.9219 15.2939C47.9219 14.6477 48.4475 14.1221 49.0938 14.1221C49.74 14.1221 50.2656 14.6477 50.2656 15.2939C50.2656 15.9402 49.74 16.4658 49.0938 16.4658C48.4475 16.4658 47.9219 15.9402 47.9219 15.2939Z" fill="#015467"/>
<path d="M29.6367 16.4322C29.6367 18.9985 31.7245 21.0863 34.2908 21.0863C36.857 21.0863 38.9448 18.9985 38.9448 16.4322C38.9448 13.866 36.857 11.7783 34.2908 11.7783C31.7245 11.7783 29.6367 13.866 29.6367 16.4322ZM36.6013 16.4322C36.6013 17.7061 35.5648 18.7425 34.2909 18.7425C33.017 18.7425 31.9806 17.7061 31.9806 16.4322C31.9806 15.1585 33.017 14.1221 34.2909 14.1221C35.5648 14.1221 36.6013 15.1585 36.6013 16.4322Z" fill="#015467"/>
<path d="M56.162 58.5614C56.162 54.3706 52.7525 50.9609 48.5614 50.9609C44.3705 50.9609 40.9609 54.3705 40.9609 58.5614C40.9609 62.7523 44.3705 66.162 48.5614 66.162C52.7523 66.162 56.162 62.7523 56.162 58.5614ZM43.3047 58.5614C43.3047 55.6628 45.6628 53.3047 48.5614 53.3047C51.46 53.3047 53.8183 55.6628 53.8183 58.5614C53.8183 61.46 51.4602 63.8183 48.5614 63.8183C45.6628 63.8183 43.3047 61.46 43.3047 58.5614Z" fill="#015467"/>
<path d="M74.6081 56.9105C74.6081 53.4129 71.7627 50.5674 68.265 50.5674C64.7673 50.5674 61.9219 53.4129 61.9219 56.9105C61.9219 60.4082 64.7673 63.2536 68.265 63.2536C71.7627 63.2536 74.6081 60.408 74.6081 56.9105ZM64.2656 56.9105C64.2656 54.7054 66.0597 52.9111 68.265 52.9111C70.4703 52.9111 72.2644 54.7052 72.2644 56.9105C72.2644 59.1158 70.4703 60.9097 68.265 60.9097C66.0597 60.9097 64.2656 59.1157 64.2656 56.9105Z" fill="#015467"/>
<path d="M22.9219 51.6514C23.5691 51.6514 24.0938 51.1267 24.0938 50.4795C24.0938 49.8323 23.5691 49.3076 22.9219 49.3076C22.2747 49.3076 21.75 49.8323 21.75 50.4795C21.75 51.1267 22.2747 51.6514 22.9219 51.6514Z" fill="#015467"/>
<path d="M20.6016 14.5918C21.2488 14.5918 21.7734 14.0671 21.7734 13.4199C21.7734 12.7727 21.2488 12.248 20.6016 12.248C19.9544 12.248 19.4297 12.7727 19.4297 13.4199C19.4297 14.0671 19.9544 14.5918 20.6016 14.5918Z" fill="#015467"/>
<path d="M46.2344 24.7383C46.8816 24.7383 47.4062 24.2136 47.4062 23.5664C47.4062 22.9192 46.8816 22.3945 46.2344 22.3945C45.5872 22.3945 45.0625 22.9192 45.0625 23.5664C45.0625 24.2136 45.5872 24.7383 46.2344 24.7383Z" fill="#015467"/>
<path d="M63.0234 14.1221C63.6706 14.1221 64.1953 13.5974 64.1953 12.9502C64.1953 12.303 63.6706 11.7783 63.0234 11.7783C62.3762 11.7783 61.8516 12.303 61.8516 12.9502C61.8516 13.5974 62.3762 14.1221 63.0234 14.1221Z" fill="#015467"/>
<path d="M73.2812 18.8438C73.9285 18.8438 74.4531 18.3191 74.4531 17.6719C74.4531 17.0247 73.9285 16.5 73.2812 16.5C72.634 16.5 72.1094 17.0247 72.1094 17.6719C72.1094 18.3191 72.634 18.8438 73.2812 18.8438Z" fill="#015467"/>
<path d="M60.7109 65.5967C61.3581 65.5967 61.8828 65.072 61.8828 64.4248C61.8828 63.7776 61.3581 63.2529 60.7109 63.2529C60.0637 63.2529 59.5391 63.7776 59.5391 64.4248C59.5391 65.072 60.0637 65.5967 60.7109 65.5967Z" fill="#015467"/>
</svg>
