<svg width="320" height="198" viewBox="0 0 320 198" fill="none" xmlns="http://www.w3.org/2000/svg">
<g filter="url(#filter0_d_1868_99262)">
<path d="M290.172 170.479C290.172 176.647 294.299 181.756 299.47 181.756C304.641 181.756 308.759 176.647 308.759 170.479C308.759 164.312 304.657 159.21 299.47 159.21C294.283 159.21 290.172 164.311 290.172 170.479ZM293.098 170.479C293.098 168.165 293.824 166.075 294.986 164.568C296.148 163.061 297.736 162.148 299.47 162.148C302.922 162.148 305.834 165.815 305.834 170.479C305.834 172.797 305.109 174.89 303.949 176.398C302.789 177.906 301.203 178.819 299.47 178.819C297.736 178.819 296.148 177.904 294.986 176.395C293.824 174.886 293.098 172.793 293.098 170.479Z" fill="#015467" stroke="#015467" stroke-width="0.5"/>
<path d="M298.459 188.819C298.734 189.095 299.106 189.25 299.494 189.25C299.883 189.25 300.255 189.095 300.529 188.819C300.803 188.544 300.957 188.17 300.957 187.781V165.402C300.957 165.012 300.803 164.639 300.529 164.363C300.255 164.088 299.882 163.933 299.494 163.933C299.106 163.933 298.734 164.088 298.459 164.363C298.185 164.639 298.031 165.012 298.031 165.402V187.781C298.031 188.17 298.185 188.544 298.459 188.819Z" fill="#015467" stroke="#015467" stroke-width="0.5"/>
<path d="M294.844 171.423L294.844 171.423C294.846 172.661 295.336 173.847 296.207 174.723C297.078 175.598 298.259 176.091 299.492 176.093L299.493 176.093C300.725 176.091 301.906 175.598 302.777 174.723C303.648 173.847 304.139 172.661 304.141 171.423V171.423V170.724C304.141 170.335 303.987 169.961 303.713 169.686C303.439 169.41 303.066 169.255 302.678 169.255C302.29 169.255 301.917 169.41 301.643 169.686C301.369 169.961 301.215 170.335 301.215 170.724V171.423C301.215 171.883 301.033 172.324 300.71 172.648C300.387 172.973 299.949 173.156 299.492 173.156C299.036 173.156 298.598 172.973 298.274 172.648C297.951 172.324 297.769 171.883 297.769 171.423V170.724C297.769 170.335 297.616 169.961 297.341 169.686C297.067 169.41 296.695 169.255 296.307 169.255C295.918 169.255 295.546 169.41 295.272 169.686C294.998 169.961 294.844 170.335 294.844 170.724L294.844 171.423Z" fill="#015467" stroke="#015467" stroke-width="0.5"/>
<path d="M209.788 95.514L209.788 95.5134L212.481 82.5115L212.481 82.5095L212.481 82.5095C212.552 82.181 212.732 81.8864 212.993 81.6746M209.788 95.514L212.993 81.6746M209.788 95.514C209.744 95.7288 209.748 95.9509 209.8 96.164C209.852 96.3768 209.951 96.5753 210.089 96.7452L209.788 95.514ZM212.993 81.6746C213.253 81.4627 213.578 81.3465 213.913 81.3452M212.993 81.6746L213.913 81.3452M213.913 81.3452L213.914 81.3452L253.53 81.3452C253.88 81.3361 254.222 81.4534 254.493 81.6758C254.764 81.898 254.946 82.2104 255.008 82.5558L257.698 95.5499C257.699 95.5506 257.699 95.5513 257.699 95.5521C257.747 95.7664 257.746 95.9888 257.695 96.2027C257.644 96.4171 257.545 96.6172 257.405 96.7874L257.399 96.7949L257.399 96.7948C257.257 96.9542 257.083 97.0806 256.887 97.1653C256.693 97.2495 256.482 97.2904 256.271 97.285H211.222H211.221V97.035L213.913 81.3452ZM254.447 94.3472H213.016L215.104 84.2831H252.359L254.447 94.3472Z" fill="#015467" stroke="#015467" stroke-width="0.5"/>
<path d="M245.952 187.83L245.952 187.83C245.939 188.217 245.774 188.584 245.493 188.85C245.213 189.116 244.839 189.259 244.454 189.25H220.807C220.418 189.25 220.046 189.095 219.772 188.819C219.498 188.543 219.344 188.17 219.344 187.781V158.526C219.344 158.25 219.421 157.978 219.568 157.744C219.715 157.509 219.925 157.321 220.174 157.201C220.423 157.081 220.7 157.034 220.975 157.066C221.249 157.098 221.509 157.207 221.724 157.381C221.724 157.381 221.724 157.381 221.724 157.381L245.395 176.443C245.396 176.443 245.396 176.444 245.397 176.444C245.57 176.58 245.71 176.754 245.806 176.952C245.903 177.151 245.952 177.37 245.952 177.591M245.952 187.83V177.591M245.952 187.83V187.821M245.952 187.83V187.821M245.952 177.591V187.821M245.952 177.591V187.821M242.994 178.255V186.312H222.237V161.543L242.994 178.255Z" fill="#015467" stroke="#015467" stroke-width="0.5"/>
<path d="M244.457 163.749L244.457 163.75C244.456 163.75 244.456 163.75 244.455 163.75C244.451 163.75 244.446 163.75 244.442 163.75L244.409 163.75L244.407 163.75L244.407 163.749C244.09 163.74 243.784 163.626 243.538 163.425L219.84 144.362L219.838 144.36C219.669 144.222 219.533 144.048 219.439 143.85C219.345 143.653 219.296 143.437 219.294 143.219L219.294 143.217L219.294 124.516H205.549H205.548V124.266C205.367 124.268 205.188 124.228 205.024 124.151C204.861 124.073 204.716 123.96 204.602 123.819L244.457 163.749ZM244.457 163.749C244.826 163.734 245.177 163.58 245.439 163.317C245.713 163.042 245.867 162.67 245.87 162.283V162.281V159.037H269.068C269.285 159.037 269.499 158.988 269.695 158.895C269.892 158.801 270.064 158.665 270.201 158.496C270.339 158.328 270.437 158.13 270.489 157.919C270.54 157.708 270.545 157.487 270.501 157.274L270.501 157.273L257.681 95.626C257.68 95.6084 257.68 95.5909 257.682 95.5733L257.686 95.5331L257.677 95.4937C257.604 95.1693 257.424 94.879 257.165 94.6707C256.906 94.4623 256.585 94.3484 256.253 94.3477H256.252L211.2 94.3477L211.199 94.3477C210.867 94.3484 210.546 94.4623 210.287 94.6707L210.444 94.8654L210.287 94.6707C210.028 94.879 209.848 95.1693 209.775 95.4937L209.769 95.5208V95.5485V95.5485V95.5486V95.5486V95.5487V95.5487V95.5488V95.5488V95.5489V95.5489V95.549V95.5491V95.5491V95.5492V95.5493V95.5493V95.5494V95.5495V95.5496V95.5496V95.5497V95.5498V95.5499V95.5499V95.55V95.5501V95.5502V95.5503V95.5504V95.5504V95.5505V95.5506V95.5507V95.5508V95.5509V95.551V95.5511V95.5512V95.5513V95.5514V95.5515V95.5516V95.5517V95.5518V95.5519V95.552V95.5521V95.5522V95.5523V95.5525V95.5526V95.5527V95.5528V95.5529V95.553V95.5532V95.5533V95.5534V95.5535V95.5536V95.5538V95.5539V95.554V95.5542V95.5543V95.5544V95.5545V95.5547V95.5548V95.5549V95.5551V95.5552V95.5554V95.5555V95.5556V95.5558V95.5559V95.5561V95.5562V95.5564V95.5565V95.5566V95.5568V95.5569V95.5571V95.5572V95.5574V95.5576V95.5577V95.5579V95.558V95.5582V95.5583V95.5585V95.5587V95.5588V95.559V95.5591V95.5593V95.5595V95.5596V95.5598V95.56V95.5601V95.5603V95.5605V95.5606V95.5608V95.561V95.5612V95.5613V95.5615V95.5617V95.5619V95.562V95.5622V95.5624V95.5626V95.5627V95.5629V95.5631V95.5633V95.5635V95.5637V95.5638V95.564V95.5642V95.5644V95.5646V95.5648V95.565V95.5651V95.5653V95.5655V95.5657V95.5659V95.5661V95.5663V95.5665V95.5667V95.5669V95.5671V95.5673V95.5675V95.5677V95.5679V95.5681V95.5683V95.5685V95.5687V95.5689V95.5691V95.5693V95.5695V95.5697V95.5699V95.5701V95.5703V95.5705V95.5707V95.5709V95.5711V95.5713V95.5715V95.5717V95.5719V95.5722V95.5724V95.5726V95.5728V95.573V95.5732V95.5734V95.5736V95.5738V95.5741V95.5743V95.5745V95.5747V95.5749V95.5751V95.5753V95.5756V95.5758V95.576V95.5762V95.5764V95.5766V95.5769V95.5771V95.5773V95.5775V95.5777V95.578V95.5782V95.5784V95.5786V95.5788V95.5791V95.5793V95.5795V95.5797V95.5799V95.5802V95.5804V95.5806V95.5808V95.5811V95.5813V95.5815V95.5817V95.582V95.5822V95.5824V95.5826V95.5828V95.5831V95.5833V95.5835V95.5837V95.584V95.5842V95.5844V95.5847V95.5849V95.5851V95.5853V95.5856V95.5858V95.586V95.5862V95.5865V95.5867V95.5869V95.5871V95.5874V95.5876V95.5878V95.588V95.5883V95.5885V95.5887V95.589V95.5892V95.5894V95.5896V95.5899V95.5901V95.5903V95.5905V95.5908V95.591V95.5912V95.5914V95.5917V95.5919V95.5921V95.5924V95.5926V95.5928V95.593V95.5933V95.5935V95.5937V95.5939V95.5942V95.5944V95.5946V95.5948V95.5951V95.5953V95.5955V95.5957V95.596V95.5962V95.5964V95.5966V95.5968V95.5971V95.5973V95.5975V95.5977V95.598V95.5982V95.5984V95.5986V95.5988V95.5991V95.5993V95.5995V95.5997V95.5999V95.6002V95.6004V95.6006V95.6008V95.601V95.6012V95.6015V95.6017V95.6019V95.6021V95.6023V95.6025V95.6028V95.603V95.6032V95.6034V95.6036V95.6038V95.604L204.115 122.751C204.115 122.751 204.115 122.752 204.115 122.752L244.457 163.749ZM222.26 123.04V123.039C222.26 122.65 222.106 122.277 221.832 122.001C221.558 121.726 221.186 121.57 220.797 121.57H207.359L212.414 97.2774H255.087L267.313 156.099H244.455C244.067 156.099 243.695 156.254 243.421 156.529C243.146 156.805 242.993 157.178 242.993 157.568V159.215L222.236 142.512L222.26 123.04Z" fill="#015467" stroke="#015467" stroke-width="0.5"/>
<path d="M244.456 179.018L244.456 179.018C244.451 179.018 244.446 179.018 244.44 179.018C244.44 179.018 244.439 179.018 244.438 179.018C244.11 179.016 243.792 178.902 243.537 178.694C243.537 178.694 243.537 178.694 243.537 178.694L219.839 159.631L219.838 159.63C219.668 159.492 219.531 159.317 219.437 159.119C219.343 158.921 219.294 158.705 219.293 158.486L219.293 158.485L219.293 143.216L244.456 179.018ZM244.456 179.018C244.837 179.011 245.201 178.856 245.471 178.585C245.744 178.31 245.899 177.939 245.901 177.551V177.549V162.28V162.28H245.651M244.456 179.018L245.346 161.134L245.347 161.134L245.19 161.329M245.651 162.28C245.652 162.097 245.61 161.916 245.53 161.751C245.451 161.586 245.334 161.442 245.19 161.329M245.651 162.28V177.549M245.651 162.28V177.549M245.19 161.329L245.345 161.132L221.673 142.071L221.516 142.265M245.19 161.329L221.516 142.265M221.516 142.265L221.673 142.07L221.673 142.071C221.458 141.897 221.198 141.788 220.924 141.756C220.65 141.724 220.372 141.771 220.123 141.891C219.874 142.011 219.664 142.199 219.517 142.433C219.371 142.668 219.293 142.939 219.293 143.216H219.543M221.516 142.265C221.338 142.121 221.122 142.031 220.895 142.004C220.668 141.978 220.438 142.016 220.232 142.116C220.025 142.215 219.851 142.371 219.729 142.566C219.607 142.761 219.543 142.986 219.543 143.216M219.543 143.216V158.485M219.543 143.216V158.485M219.543 158.485C219.543 158.667 219.584 158.847 219.663 159.012C219.741 159.176 219.855 159.321 219.996 159.436L219.543 158.485ZM245.651 177.549C245.649 177.872 245.521 178.18 245.294 178.409C245.071 178.633 244.77 178.761 244.455 178.768L245.651 177.549ZM222.235 146.233L242.992 162.944V174.491L222.235 157.78V146.233Z" fill="#015467" stroke="#015467" stroke-width="0.5"/>
<path d="M183.553 189.249H220.803C221.191 189.249 221.563 189.094 221.838 188.819C222.112 188.543 222.266 188.17 222.266 187.78V123.047C222.266 122.658 222.112 122.284 221.838 122.009C221.563 121.733 221.191 121.578 220.803 121.578H183.553C183.164 121.578 182.792 121.733 182.518 122.009C182.244 122.284 182.09 122.658 182.09 123.047V187.78C182.09 188.17 182.244 188.543 182.518 188.819C182.792 189.094 183.164 189.249 183.553 189.249ZM219.34 124.516V186.312H185.016V124.516H219.34Z" fill="#015467" stroke="#015467" stroke-width="0.5"/>
<path d="M244.471 189.25H279.829C280.217 189.25 280.589 189.095 280.864 188.819C281.138 188.543 281.292 188.17 281.292 187.781V157.568C281.292 157.178 281.138 156.805 280.864 156.529C280.589 156.254 280.217 156.099 279.829 156.099H244.471C244.082 156.099 243.71 156.254 243.436 156.529C243.162 156.805 243.008 157.178 243.008 157.568V187.781C243.008 188.17 243.162 188.543 243.436 188.819C243.71 189.095 244.082 189.25 244.471 189.25ZM278.366 159.036V186.312H245.933V159.036H278.366Z" fill="#015467" stroke="#015467" stroke-width="0.5"/>
<path d="M213.565 144.092L213.567 144.092C213.954 144.09 214.324 143.934 214.598 143.659C214.871 143.384 215.026 143.013 215.028 142.625V142.623V129.012C215.028 128.623 214.874 128.249 214.6 127.974C214.326 127.698 213.954 127.543 213.565 127.543H206.83C206.442 127.543 206.069 127.698 205.795 127.974C205.521 128.249 205.367 128.623 205.367 129.012V142.623C205.367 143.012 205.521 143.386 205.795 143.662C206.069 143.937 206.442 144.092 206.83 144.092L213.565 144.092ZM212.103 130.481V141.154H208.293V130.481H212.103Z" fill="#015467" stroke="#015467" stroke-width="0.5"/>
<path d="M190.725 144.092H197.46C197.848 144.092 198.22 143.937 198.495 143.662C198.769 143.386 198.923 143.012 198.923 142.623V129.012C198.923 128.623 198.769 128.249 198.495 127.974C198.22 127.698 197.848 127.543 197.46 127.543H190.725C190.336 127.543 189.964 127.698 189.69 127.974C189.416 128.249 189.262 128.623 189.262 129.012V142.623C189.262 143.012 189.416 143.386 189.69 143.662C189.964 143.937 190.336 144.092 190.725 144.092ZM195.997 130.481V141.154H192.187V130.481H195.997Z" fill="#015467" stroke="#015467" stroke-width="0.5"/>
<path d="M206.83 162.839H213.565C213.954 162.839 214.326 162.684 214.6 162.408C214.874 162.133 215.028 161.759 215.028 161.37V147.767C215.028 147.378 214.874 147.004 214.6 146.729C214.326 146.453 213.954 146.298 213.565 146.298H206.83C206.442 146.298 206.069 146.453 205.795 146.729C205.521 147.004 205.367 147.378 205.367 147.767V161.37C205.367 161.759 205.521 162.133 205.795 162.408C206.069 162.684 206.442 162.839 206.83 162.839ZM212.103 149.236V159.901H208.293V149.236H212.103Z" fill="#015467" stroke="#015467" stroke-width="0.5"/>
<path d="M190.725 162.839H197.46C197.848 162.839 198.22 162.684 198.495 162.408C198.769 162.133 198.923 161.759 198.923 161.37V147.767C198.923 147.378 198.769 147.004 198.495 146.729C198.22 146.453 197.848 146.298 197.46 146.298H190.725C190.336 146.298 189.964 146.453 189.69 146.729C189.416 147.004 189.262 147.378 189.262 147.767V161.37C189.262 161.759 189.416 162.133 189.69 162.408C189.964 162.684 190.336 162.839 190.725 162.839ZM195.997 149.236V159.901H192.187V149.236H195.997Z" fill="#015467" stroke="#015467" stroke-width="0.5"/>
<path d="M214.92 180.681L214.688 180.587C214.749 180.438 214.779 180.279 214.778 180.118H215.028V180.117V166.523C215.028 166.133 214.874 165.76 214.6 165.484C214.326 165.209 213.954 165.054 213.565 165.054H206.83C206.442 165.054 206.069 165.209 205.795 165.484C205.521 165.76 205.367 166.133 205.367 166.523V180.126C205.367 180.515 205.521 180.889 205.795 181.164C206.069 181.44 206.442 181.595 206.83 181.595H213.565C213.758 181.595 213.95 181.556 214.128 181.482C214.306 181.407 214.468 181.298 214.604 181.161C214.74 181.023 214.847 180.86 214.92 180.681ZM212.103 167.992V178.657H208.293V167.992H212.103Z" fill="#015467" stroke="#015467" stroke-width="0.5"/>
<path d="M198.498 181.161L198.32 180.985L198.673 180.118H198.923V180.117V166.523C198.923 166.133 198.769 165.76 198.495 165.484C198.22 165.209 197.848 165.054 197.46 165.054H190.725C190.336 165.054 189.964 165.209 189.69 165.484C189.416 165.76 189.262 166.133 189.262 166.523V180.126C189.262 180.515 189.416 180.889 189.69 181.164C189.964 181.44 190.336 181.595 190.725 181.595H197.46C197.653 181.595 197.844 181.556 198.022 181.482C198.2 181.407 198.362 181.298 198.498 181.161ZM195.997 167.992V178.657H192.187V167.992H195.997Z" fill="#015467" stroke="#015467" stroke-width="0.5"/>
<path d="M196.318 123.076H196.318V123.071V100.48C196.318 100.09 196.164 99.717 195.89 99.4414C195.616 99.1658 195.244 99.0107 194.855 99.0107H186.592C186.203 99.0107 185.831 99.1658 185.557 99.4414C185.283 99.717 185.129 100.09 185.129 100.48V123.046C185.129 123.435 185.283 123.809 185.557 124.084C185.831 124.36 186.203 124.515 186.592 124.515H194.855C194.855 124.515 194.855 124.515 194.855 124.515C195.239 124.515 195.606 124.364 195.88 124.095C196.153 123.826 196.31 123.46 196.318 123.076ZM193.392 101.924V121.577H188.055V101.924H193.392Z" fill="#015467" stroke="#015467" stroke-width="0.5"/>
<path d="M270.578 180.025L270.578 180.025V180.02V167.115C270.578 166.726 270.424 166.353 270.15 166.077C269.876 165.802 269.504 165.646 269.115 165.646H256.275C255.887 165.646 255.515 165.802 255.241 166.077C254.966 166.353 254.812 166.726 254.812 167.115V179.995C254.812 180.385 254.966 180.758 255.241 181.034C255.515 181.309 255.887 181.464 256.275 181.464H269.115C269.115 181.464 269.115 181.464 269.115 181.464C269.499 181.464 269.866 181.313 270.14 181.044C270.413 180.775 270.57 180.409 270.578 180.025ZM267.652 168.56V178.527H257.738V168.56H267.652Z" fill="#015467" stroke="#015467" stroke-width="0.5"/>
<path d="M244.471 162.79H279.829C280.217 162.79 280.589 162.635 280.864 162.36C281.138 162.084 281.292 161.711 281.292 161.321C281.292 160.932 281.138 160.559 280.864 160.283C280.589 160.008 280.217 159.853 279.829 159.853H244.471C244.082 159.853 243.71 160.008 243.436 160.283C243.162 160.559 243.008 160.932 243.008 161.321C243.008 161.711 243.162 162.084 243.436 162.36C243.71 162.635 244.082 162.79 244.471 162.79Z" fill="#015467" stroke="#015467" stroke-width="0.5"/>
<path d="M240.209 90.0931H254.763C255.151 90.0931 255.524 89.9381 255.798 89.6625C256.072 89.3869 256.226 89.0134 256.226 88.6242C256.226 88.235 256.072 87.8615 255.798 87.586C255.524 87.3103 255.151 87.1553 254.763 87.1553H240.209C239.821 87.1553 239.448 87.3103 239.174 87.586C238.9 87.8615 238.746 88.235 238.746 88.6242C238.746 89.0134 238.9 89.3869 239.174 89.6625C239.448 89.9381 239.821 90.0931 240.209 90.0931Z" fill="#015467" stroke="#015467" stroke-width="0.5"/>
<path d="M229.295 90.0931H236.345C236.734 90.0931 237.106 89.9381 237.38 89.6625C237.654 89.3869 237.808 89.0134 237.808 88.6242C237.808 88.235 237.654 87.8615 237.38 87.586C237.106 87.3103 236.734 87.1553 236.345 87.1553H229.295C228.906 87.1553 228.534 87.3103 228.26 87.586C227.986 87.8615 227.832 88.235 227.832 88.6242C227.832 89.0134 227.986 89.3869 228.26 89.6625C228.534 89.9381 228.906 90.0931 229.295 90.0931Z" fill="#015467" stroke="#015467" stroke-width="0.5"/>
<path d="M212.717 90.0931H225.872C226.26 90.0931 226.633 89.9381 226.907 89.6625C227.181 89.3869 227.335 89.0134 227.335 88.6242C227.335 88.235 227.181 87.8615 226.907 87.586C226.633 87.3103 226.26 87.1553 225.872 87.1553H212.717C212.328 87.1553 211.956 87.3103 211.682 87.586C211.408 87.8615 211.254 88.235 211.254 88.6242C211.254 89.0134 211.408 89.3869 211.682 89.6625C211.956 89.9381 212.328 90.0931 212.717 90.0931Z" fill="#015467" stroke="#015467" stroke-width="0.5"/>
<path d="M216.139 77.3758C216.413 77.6514 216.785 77.8065 217.174 77.8065C217.562 77.8065 217.934 77.6514 218.209 77.3758C218.483 77.1002 218.637 76.7267 218.637 76.3375V55.6725C218.637 54.4841 218.987 53.3958 219.541 52.6109C220.096 51.8246 220.836 51.3637 221.621 51.3637H227.281C230.57 51.3637 233.191 48.055 233.191 44.109C233.191 42.9224 233.552 41.8345 234.117 41.0491C234.683 40.2617 235.434 39.8002 236.215 39.8002H255.952C256.34 39.8002 256.713 39.6451 256.987 39.3695C257.261 39.0939 257.415 38.7204 257.415 38.3312C257.415 37.9421 257.261 37.5686 256.987 37.293C256.713 37.0174 256.34 36.8623 255.952 36.8623H236.215C232.886 36.8623 230.265 40.1613 230.265 44.109C230.265 45.3013 229.912 46.3916 229.358 47.1777C228.802 47.9653 228.061 48.4259 227.281 48.4259H221.621C218.331 48.4259 215.711 51.7261 215.711 55.6725V76.3375C215.711 76.7267 215.865 77.1002 216.139 77.3758Z" fill="#015467" stroke="#015467" stroke-width="0.5"/>
<path d="M251.466 57.4215V57.4215H255.804C256.342 57.4055 256.852 57.1763 257.222 56.7835C257.594 56.3899 257.795 55.8641 257.781 55.3212L257.781 55.318L257.781 55.318C257.765 53.9971 258.272 52.7234 259.189 51.777C260.107 50.8305 261.361 50.2886 262.677 50.2705L262.68 50.2705V50.2705H277.792C278.181 50.2705 278.553 50.4256 278.827 50.7012L278.65 50.8775L278.827 50.7012C279.101 50.9768 279.255 51.3503 279.255 51.7394C279.255 52.1286 279.101 52.5021 278.827 52.7777L278.65 52.6014L278.827 52.7777C278.553 53.0533 278.181 53.2084 277.792 53.2084H262.684C262.146 53.2244 261.636 53.4536 261.266 53.8463C260.894 54.24 260.693 54.7659 260.707 55.3087L260.707 55.3124L260.707 55.3124C260.72 56.6326 260.213 57.9046 259.296 58.8505C258.379 59.7964 257.126 60.3391 255.811 60.3593L255.808 60.3594V60.3594H251.47C250.933 60.3774 250.426 60.6074 250.057 60.9999C249.687 61.3933 249.487 61.9181 249.5 62.4597L249.5 62.466H249.5V75.2892V75.2975L249.5 75.2975C249.487 75.6781 249.328 76.0392 249.055 76.3042C248.782 76.5693 248.417 76.7176 248.037 76.7174M251.466 57.4215L248.037 76.4674M251.466 57.4215L251.462 57.4215C250.148 57.4418 248.896 57.9849 247.98 58.9311C247.064 59.877 246.559 61.1485 246.575 62.4675M251.466 57.4215L246.825 62.466M248.037 76.7174L248.037 76.4674M248.037 76.7174C248.037 76.7174 248.037 76.7174 248.037 76.7174V76.4674M248.037 76.7174C247.649 76.7174 247.277 76.5623 247.003 76.2868C246.728 76.0112 246.575 75.6377 246.575 75.2485V62.4675M248.037 76.4674C247.716 76.4674 247.407 76.339 247.18 76.1104C246.952 75.8818 246.825 75.5718 246.825 75.2485V62.466M246.575 62.4675C246.575 62.468 246.575 62.4685 246.575 62.469L246.825 62.466M246.575 62.4675V62.466H246.825" fill="#015467" stroke="#015467" stroke-width="0.5"/>
<path d="M225.01 75.1086C225.284 75.3843 225.656 75.5393 226.045 75.5393C226.433 75.5393 226.805 75.3843 227.08 75.1086C227.354 74.8331 227.508 74.4596 227.508 74.0704V63.6769C227.508 63.2878 227.354 62.9143 227.08 62.6387C226.805 62.3631 226.433 62.208 226.045 62.208C225.656 62.208 225.284 62.3631 225.01 62.6387C224.736 62.9143 224.582 63.2878 224.582 63.6769V74.0704C224.582 74.4596 224.736 74.8331 225.01 75.1086Z" fill="#015467" stroke="#015467" stroke-width="0.5"/>
<path d="M233.58 75.1094C233.855 75.385 234.227 75.5401 234.615 75.5401C235.004 75.5401 235.376 75.385 235.65 75.1094C235.924 74.8338 236.078 74.4603 236.078 74.0711V55.4621C236.078 55.0729 235.924 54.6994 235.65 54.4238C235.376 54.1482 235.004 53.9932 234.615 53.9932C234.227 53.9932 233.855 54.1482 233.58 54.4238C233.306 54.6994 233.152 55.0729 233.152 55.4621V74.0711C233.152 74.4603 233.306 74.8338 233.58 75.1094Z" fill="#015467" stroke="#015467" stroke-width="0.5"/>
<path d="M240.737 75.1091C241.011 75.3847 241.383 75.5398 241.771 75.5398C242.16 75.5398 242.532 75.3847 242.806 75.1091C243.08 74.8336 243.234 74.4601 243.234 74.0708V66.2453C243.234 65.8561 243.08 65.4826 242.806 65.207C242.532 64.9314 242.16 64.7764 241.771 64.7764C241.383 64.7764 241.011 64.9314 240.737 65.207C240.462 65.4826 240.309 65.8561 240.309 66.2453V74.0708C240.309 74.46 240.462 74.8335 240.737 75.1091Z" fill="#015467" stroke="#015467" stroke-width="0.5"/>
<path d="M6.21283 189.25H313.787C314.176 189.25 314.548 189.095 314.822 188.82C315.096 188.544 315.25 188.171 315.25 187.781C315.25 187.392 315.096 187.019 314.822 186.743C314.548 186.468 314.176 186.312 313.787 186.312H6.21283C5.82446 186.312 5.45224 186.468 5.178 186.743C4.90381 187.019 4.75 187.392 4.75 187.781C4.75 188.171 4.90382 188.544 5.178 188.82C5.45221 189.095 5.82441 189.25 6.21283 189.25Z" fill="#015467" stroke="#015467" stroke-width="0.5"/>
<path d="M113.289 9.4791L113.512 9.36629C113.617 9.57399 113.671 9.80386 113.67 10.0367M113.289 9.4791L112.199 16.1307L112.197 16.3807C112.197 16.3807 112.198 16.3807 112.198 16.3807C112.391 16.3819 112.582 16.3448 112.76 16.2716C112.939 16.1982 113.101 16.0901 113.238 15.9535C113.375 15.817 113.484 15.6546 113.558 15.4758C113.632 15.297 113.67 15.1053 113.67 14.9118V10.0367M113.289 9.4791L113.512 9.36629C113.407 9.15854 113.254 8.97896 113.066 8.84263C105.888 3.58363 97.2338 0.75 88.3505 0.75C79.4674 0.75 70.8136 3.5836 63.6355 8.84253L113.289 9.4791ZM113.67 10.0367C113.67 10.037 113.67 10.0374 113.67 10.0378L113.42 10.0361H113.67V10.0367ZM110.728 10.7588V13.4429H65.9489V10.7588C72.5093 6.13942 80.3263 3.66063 88.3384 3.66063C96.3505 3.66063 104.167 6.13942 110.728 10.7588Z" fill="#015467" stroke="#015467" stroke-width="0.5"/>
<path d="M64.4941 189.249H112.199C112.587 189.249 112.959 189.094 113.234 188.818C113.508 188.543 113.662 188.169 113.662 187.78V14.9113C113.662 14.5221 113.508 14.1486 113.234 13.8731C112.959 13.5975 112.587 13.4424 112.199 13.4424H64.4941C64.1057 13.4424 63.7335 13.5974 63.4593 13.8731C63.1851 14.1486 63.0312 14.5221 63.0312 14.9113V187.78C63.0312 188.169 63.1851 188.543 63.4593 188.818C63.7335 189.094 64.1057 189.249 64.4941 189.249ZM110.728 16.3802V186.311H65.9488V16.3802H110.728Z" fill="#015467" stroke="#015467" stroke-width="0.5"/>
<path d="M54.0503 99.3406H26.2441C25.8557 99.3406 25.4835 99.1855 25.2093 98.9099C24.9351 98.6343 24.7813 98.2608 24.7813 97.8716V94.3534V94.3529H25.0313L54.0503 99.3406ZM54.0503 99.3406C54.4387 99.3406 54.8109 99.1855 55.0851 98.9099C55.3593 98.6343 55.5131 98.2608 55.5131 97.8716L55.5131 94.354L55.2631 94.3529H55.5131V94.3535C55.514 94.1466 55.471 93.9418 55.387 93.7527C55.303 93.5637 55.18 93.3946 55.026 93.2569C46.1339 85.2647 34.1608 85.2646 25.2687 93.2566L54.0503 99.3406ZM52.5875 95.0209V96.4027H27.7069V95.0209C35.2223 88.6426 45.0721 88.6426 52.5875 95.0209Z" fill="#015467" stroke="#015467" stroke-width="0.5"/>
<path d="M26.2441 189.25H54.0503C54.4387 189.25 54.8109 189.094 55.0851 188.819C55.3593 188.543 55.5131 188.17 55.5131 187.781V97.8723C55.5131 97.4831 55.3593 97.1096 55.0851 96.834C54.8109 96.5584 54.4387 96.4033 54.0503 96.4033H26.2441C25.8557 96.4033 25.4835 96.5584 25.2093 96.834C24.9351 97.1096 24.7812 97.4831 24.7812 97.8723V187.781C24.7812 188.17 24.9351 188.543 25.2093 188.819C25.4835 189.094 25.8557 189.25 26.2441 189.25ZM52.5875 99.3412V186.312H27.7069V99.3412H52.5875Z" fill="#015467" stroke="#015467" stroke-width="0.5"/>
<path d="M72.2949 80.911H77.7769C78.1653 80.911 78.5375 80.7559 78.8117 80.4803C79.0859 80.2047 79.2397 79.8312 79.2397 79.442V71.0314C79.2397 70.6423 79.0859 70.2688 78.8117 69.9932C78.5375 69.7176 78.1653 69.5625 77.7769 69.5625H72.2949C71.9065 69.5625 71.5343 69.7176 71.26 69.9932C70.9858 70.2688 70.832 70.6423 70.832 71.0314V79.442C70.832 79.8312 70.9858 80.2047 71.26 80.4803C71.5343 80.7559 71.9065 80.911 72.2949 80.911ZM76.3141 72.5004V77.9731H73.7577V72.5004H76.3141Z" fill="#015467" stroke="#015467" stroke-width="0.5"/>
<path d="M72.2949 94.4403H77.7769C78.1653 94.4403 78.5375 94.2852 78.8117 94.0096C79.0859 93.734 79.2397 93.3605 79.2397 92.9713V84.5607C79.2397 84.1716 79.0859 83.7981 78.8117 83.5225C78.5375 83.2469 78.1653 83.0918 77.7769 83.0918H72.2949C71.9065 83.0918 71.5343 83.2469 71.26 83.5225C70.9858 83.7981 70.832 84.1716 70.832 84.5607V92.9713C70.832 93.3605 70.9858 93.734 71.26 94.0096C71.5343 94.2852 71.9065 94.4403 72.2949 94.4403ZM76.3141 86.0297V91.5024H73.7577V86.0297H76.3141Z" fill="#015467" stroke="#015467" stroke-width="0.5"/>
<path d="M72.2949 107.972H77.7769C78.1653 107.972 78.5375 107.817 78.8117 107.542C79.0859 107.266 79.2397 106.893 79.2397 106.504V98.093C79.2397 97.7038 79.0859 97.3303 78.8117 97.0547C78.5375 96.7791 78.1653 96.624 77.7769 96.624H72.2949C71.9065 96.624 71.5343 96.7791 71.26 97.0547C70.9858 97.3303 70.832 97.7038 70.832 98.093V106.504C70.832 106.893 70.9858 107.266 71.26 107.542C71.5343 107.817 71.9065 107.972 72.2949 107.972ZM76.3141 99.5619V105.035H73.7577V99.5619H76.3141Z" fill="#015467" stroke="#015467" stroke-width="0.5"/>
<path d="M72.2949 121.494H77.7769C78.1653 121.494 78.5375 121.339 78.8117 121.063C79.0859 120.787 79.2397 120.414 79.2397 120.025V111.622C79.2397 111.233 79.0859 110.86 78.8117 110.584C78.5375 110.308 78.1653 110.153 77.7769 110.153H72.2949C71.9065 110.153 71.5343 110.308 71.26 110.584C70.9858 110.86 70.832 111.233 70.832 111.622V120.025C70.832 120.414 70.9858 120.787 71.26 121.063C71.5343 121.339 71.9065 121.494 72.2949 121.494ZM76.3141 113.091V118.556H73.7577V113.091H76.3141Z" fill="#015467" stroke="#015467" stroke-width="0.5"/>
<path d="M72.2949 135.023H77.7769C78.1653 135.023 78.5375 134.868 78.8117 134.592C79.0859 134.317 79.2397 133.943 79.2397 133.554V125.152C79.2397 124.762 79.0859 124.389 78.8117 124.113C78.5375 123.838 78.1653 123.683 77.7769 123.683H72.2949C71.9065 123.683 71.5343 123.838 71.26 124.113C70.9858 124.389 70.832 124.762 70.832 125.152V133.554C70.832 133.943 70.9858 134.317 71.26 134.592C71.5343 134.868 71.9065 135.023 72.2949 135.023ZM76.3141 126.62V132.085H73.7577V126.62H76.3141Z" fill="#015467" stroke="#015467" stroke-width="0.5"/>
<path d="M65.9461 120.054L65.9462 120.054V120.049V105.357C65.9462 104.967 65.7924 104.594 65.5182 104.318C65.2439 104.043 64.8717 103.888 64.4833 103.888H54.0449C53.6565 103.888 53.2843 104.043 53.01 104.318C52.7358 104.594 52.582 104.967 52.582 105.357V120.024C52.582 120.414 52.7358 120.787 53.01 121.063C53.2843 121.338 53.6565 121.493 54.0449 121.493H64.4833C64.4833 121.493 64.4833 121.493 64.4833 121.493C64.8667 121.493 65.2345 121.342 65.5079 121.073C65.7813 120.804 65.9385 120.438 65.9461 120.054ZM63.0205 106.801V118.556H55.5077V106.801H63.0205Z" fill="#015467" stroke="#015467" stroke-width="0.5"/>
<path d="M54.0449 157.753H64.4833C64.8717 157.753 65.2439 157.598 65.5182 157.323C65.7924 157.047 65.9462 156.674 65.9462 156.285V141.584C65.9462 141.195 65.7924 140.821 65.5182 140.546C65.2439 140.27 64.8717 140.115 64.4833 140.115H54.0449C53.6565 140.115 53.2843 140.27 53.01 140.546C52.7358 140.821 52.582 141.195 52.582 141.584V156.285C52.582 156.674 52.7358 157.047 53.01 157.323C53.2843 157.598 53.6565 157.753 54.0449 157.753ZM63.0205 143.053V154.816H55.5077V143.053H63.0205Z" fill="#015467" stroke="#015467" stroke-width="0.5"/>
<path d="M112.201 90.2313H124.006C124.394 90.2313 124.767 90.0762 125.041 89.8006C125.315 89.525 125.469 89.1515 125.469 88.7623V79.4416C125.469 79.0524 125.315 78.6789 125.041 78.4033C124.767 78.1277 124.394 77.9727 124.006 77.9727H112.201C111.813 77.9727 111.441 78.1277 111.166 78.4033C110.892 78.6789 110.738 79.0524 110.738 79.4416V88.7623C110.738 89.1515 110.892 89.525 111.166 89.8006C111.441 90.0762 111.813 90.2313 112.201 90.2313ZM122.543 80.9105V87.2934H113.664V80.9105H122.543Z" fill="#015467" stroke="#015467" stroke-width="0.5"/>
<path d="M112.201 118.812H124.006C124.394 118.812 124.767 118.657 125.041 118.381C125.315 118.105 125.469 117.732 125.469 117.343V108.014C125.469 107.625 125.315 107.251 125.041 106.976C124.767 106.7 124.394 106.545 124.006 106.545H112.201C111.813 106.545 111.441 106.7 111.166 106.976C110.892 107.251 110.738 107.625 110.738 108.014V117.343C110.738 117.732 110.892 118.105 111.166 118.381C111.441 118.657 111.813 118.812 112.201 118.812ZM122.543 109.483V115.874H113.664V109.483H122.543Z" fill="#015467" stroke="#015467" stroke-width="0.5"/>
<path d="M112.201 147.384H124.006C124.394 147.384 124.767 147.229 125.041 146.953C125.315 146.677 125.469 146.304 125.469 145.915V136.594C125.469 136.205 125.315 135.831 125.041 135.556C124.767 135.28 124.394 135.125 124.006 135.125H112.201C111.813 135.125 111.44 135.28 111.166 135.556C110.892 135.831 110.738 136.205 110.738 136.594V145.915C110.738 146.304 110.892 146.677 111.166 146.953C111.441 147.229 111.813 147.384 112.201 147.384ZM122.543 138.063V144.446H113.664V138.063H122.543Z" fill="#015467" stroke="#015467" stroke-width="0.5"/>
<path d="M183.522 144.093L183.523 144.093C183.91 144.09 184.281 143.935 184.554 143.66C184.827 143.385 184.982 143.014 184.984 142.626V142.624L184.984 129.045L184.984 129.043C184.982 128.655 184.827 128.284 184.554 128.009C184.281 127.734 183.91 127.579 183.523 127.576V127.576H183.522H171.717C171.328 127.576 170.956 127.731 170.682 128.007C170.408 128.282 170.254 128.656 170.254 129.045V142.624C170.254 143.013 170.408 143.387 170.682 143.662C170.956 143.938 171.328 144.093 171.717 144.093L183.522 144.093ZM182.059 130.514V141.155H173.18V130.514H182.059Z" fill="#015467" stroke="#015467" stroke-width="0.5"/>
<path d="M184.876 180.681L184.644 180.587C184.705 180.438 184.736 180.279 184.734 180.118H184.984V180.117V166.523C184.984 166.133 184.831 165.76 184.556 165.484C184.282 165.209 183.91 165.054 183.522 165.054H171.717C171.328 165.054 170.956 165.209 170.682 165.484C170.408 165.76 170.254 166.133 170.254 166.523V180.126C170.254 180.515 170.408 180.889 170.682 181.164C170.956 181.44 171.328 181.595 171.717 181.595H183.522C183.715 181.595 183.906 181.556 184.084 181.482C184.262 181.407 184.424 181.298 184.56 181.161C184.696 181.023 184.803 180.86 184.876 180.681ZM182.059 167.992V178.657H173.18V167.992H182.059Z" fill="#015467" stroke="#015467" stroke-width="0.5"/>
<path d="M40.1464 110.661H54.0455C54.4339 110.661 54.8061 110.506 55.0804 110.231C55.3546 109.955 55.5084 109.582 55.5084 109.193C55.5084 108.803 55.3546 108.43 55.0804 108.154C54.8061 107.879 54.4339 107.724 54.0455 107.724H40.1464C39.758 107.724 39.3859 107.879 39.1117 108.154C38.8375 108.43 38.6836 108.803 38.6836 109.193C38.6836 109.582 38.8375 109.955 39.1117 110.231C39.3859 110.506 39.758 110.661 40.1464 110.661Z" fill="#015467" stroke="#015467" stroke-width="0.5"/>
<path d="M26.2441 130.798H37.9762C38.3646 130.798 38.7368 130.643 39.0111 130.368C39.2853 130.092 39.4391 129.718 39.4391 129.329C39.4391 128.94 39.2853 128.567 39.0111 128.291C38.7368 128.015 38.3646 127.86 37.9762 127.86H26.2441C25.8557 127.86 25.4835 128.015 25.2093 128.291C24.9351 128.567 24.7812 128.94 24.7812 129.329C24.7812 129.718 24.9351 130.092 25.2093 130.368C25.4835 130.643 25.8557 130.798 26.2441 130.798Z" fill="#015467" stroke="#015467" stroke-width="0.5"/>
<path d="M40.1464 121.494H48.3857C48.774 121.494 49.1462 121.338 49.4205 121.063C49.6947 120.787 49.8485 120.414 49.8485 120.025C49.8485 119.635 49.6947 119.262 49.4205 118.986C49.1462 118.711 48.774 118.556 48.3857 118.556H40.1464C39.758 118.556 39.3859 118.711 39.1117 118.986C38.8375 119.262 38.6836 119.635 38.6836 120.025C38.6836 120.414 38.8375 120.787 39.1117 121.063C39.3859 121.338 39.758 121.494 40.1464 121.494Z" fill="#015467" stroke="#015467" stroke-width="0.5"/>
<path d="M36.7949 152.284H52.885C53.2734 152.284 53.6456 152.129 53.9199 151.853C54.1941 151.577 54.3479 151.204 54.3479 150.815C54.3479 150.425 54.194 150.052 53.9199 149.776C53.6457 149.501 53.2734 149.346 52.885 149.346H36.7949C36.4064 149.346 36.0342 149.501 35.76 149.776C35.4859 150.052 35.332 150.425 35.332 150.815C35.332 151.204 35.4858 151.577 35.76 151.853C36.0343 152.129 36.4065 152.284 36.7949 152.284Z" fill="#015467" stroke="#015467" stroke-width="0.5"/>
<path d="M103.475 112.903L103.652 112.727C103.88 112.956 104.188 113.084 104.51 113.084C104.67 113.084 104.828 113.052 104.976 112.991C105.123 112.929 105.257 112.838 105.37 112.724C105.483 112.61 105.572 112.475 105.633 112.326C105.693 112.177 105.724 112.018 105.723 111.857H105.973V111.856V74.2326C105.973 73.8434 105.819 73.4699 105.545 73.1943C105.27 72.9187 104.898 72.7637 104.51 72.7637C104.121 72.7637 103.749 72.9187 103.475 73.1943C103.201 73.4699 103.047 73.8434 103.047 74.2326V111.865C103.047 112.254 103.201 112.628 103.475 112.903Z" fill="#015467" stroke="#015467" stroke-width="0.5"/>
<path d="M103.475 131.4C103.749 131.675 104.121 131.83 104.51 131.83C104.898 131.83 105.27 131.675 105.545 131.4C105.819 131.124 105.973 130.751 105.973 130.361V119.359C105.973 118.969 105.819 118.596 105.545 118.32C105.27 118.045 104.898 117.89 104.51 117.89C104.121 117.89 103.749 118.045 103.475 118.32C103.201 118.596 103.047 118.969 103.047 119.359V130.361C103.047 130.751 103.201 131.124 103.475 131.4Z" fill="#015467" stroke="#015467" stroke-width="0.5"/>
<path d="M172.809 9.4791L173.032 9.36629C173.137 9.57392 173.191 9.80378 173.189 10.0367M172.809 9.4791L171.718 16.1307L171.717 16.3807C171.717 16.3807 171.717 16.3807 171.718 16.3807C171.91 16.3819 172.101 16.3448 172.28 16.2716C172.459 16.1982 172.621 16.0902 172.758 15.9535C172.895 15.8169 173.003 15.6545 173.077 15.4758C173.151 15.2971 173.189 15.1054 173.189 14.9118V10.0367M172.809 9.4791L173.032 9.36629C172.927 9.15865 172.774 8.9791 172.585 8.84274C165.407 3.58367 156.753 0.75 147.87 0.75C138.987 0.75 130.333 3.5836 123.155 8.84253L172.809 9.4791ZM173.189 10.0367C173.189 10.037 173.189 10.0374 173.189 10.0378L172.939 10.0361H173.189V10.0367ZM170.247 10.7587V13.4429H125.468V10.7587C132.028 6.13714 139.845 3.65701 147.858 3.65701C155.871 3.65701 163.688 6.13714 170.247 10.7587Z" fill="#015467" stroke="#015467" stroke-width="0.5"/>
<path d="M124.014 189.249H171.718C172.107 189.249 172.479 189.094 172.753 188.818C173.027 188.543 173.181 188.169 173.181 187.78V14.9113C173.181 14.5221 173.027 14.1486 172.753 13.8731C172.479 13.5974 172.107 13.4424 171.718 13.4424H124.014C123.625 13.4424 123.253 13.5974 122.979 13.8731C122.705 14.1486 122.551 14.5221 122.551 14.9113V187.78C122.551 188.169 122.705 188.543 122.979 188.818C123.253 189.094 123.625 189.249 124.014 189.249ZM170.247 16.3802V186.311H125.468V16.3802H170.247Z" fill="#015467" stroke="#015467" stroke-width="0.5"/>
<path d="M131.814 80.911H137.296C137.685 80.911 138.057 80.7559 138.331 80.4803C138.605 80.2047 138.759 79.8312 138.759 79.442V71.0314C138.759 70.6423 138.605 70.2688 138.331 69.9932C138.057 69.7176 137.685 69.5625 137.296 69.5625H131.814C131.426 69.5625 131.054 69.7176 130.78 69.9932C130.506 70.2687 130.352 70.6422 130.352 71.0314V79.442C130.352 79.8313 130.506 80.2048 130.78 80.4803C131.054 80.7559 131.426 80.911 131.814 80.911ZM135.834 72.5004V77.9731H133.277V72.5004H135.834Z" fill="#015467" stroke="#015467" stroke-width="0.5"/>
<path d="M131.814 94.4403H137.296C137.685 94.4403 138.057 94.2852 138.331 94.0096C138.605 93.734 138.759 93.3605 138.759 92.9713V84.5607C138.759 84.1716 138.605 83.7981 138.331 83.5225C138.057 83.2469 137.685 83.0918 137.296 83.0918H131.814C131.426 83.0918 131.054 83.2469 130.78 83.5225C130.506 83.798 130.352 84.1715 130.352 84.5607V92.9713C130.352 93.3606 130.506 93.734 130.78 94.0096C131.054 94.2852 131.426 94.4403 131.814 94.4403ZM135.834 86.0297V91.5024H133.277V86.0297H135.834Z" fill="#015467" stroke="#015467" stroke-width="0.5"/>
<path d="M131.814 107.972H137.296C137.685 107.972 138.057 107.817 138.331 107.542C138.605 107.266 138.759 106.893 138.759 106.504V98.093C138.759 97.7038 138.605 97.3303 138.331 97.0547C138.057 96.7791 137.685 96.624 137.296 96.624H131.814C131.426 96.624 131.054 96.7791 130.78 97.0547C130.506 97.3302 130.352 97.7037 130.352 98.093V106.504C130.352 106.893 130.506 107.266 130.78 107.542C131.054 107.817 131.426 107.972 131.814 107.972ZM135.834 99.5619V105.035H133.277V99.5619H135.834Z" fill="#015467" stroke="#015467" stroke-width="0.5"/>
<path d="M131.814 121.494H137.296C137.685 121.494 138.057 121.339 138.331 121.063C138.605 120.787 138.759 120.414 138.759 120.025V111.622C138.759 111.233 138.605 110.86 138.331 110.584C138.057 110.308 137.685 110.153 137.296 110.153H131.814C131.426 110.153 131.054 110.308 130.78 110.584C130.506 110.86 130.352 111.233 130.352 111.622V120.025C130.352 120.414 130.506 120.788 130.78 121.063C131.054 121.339 131.426 121.494 131.814 121.494ZM135.834 113.091V118.556H133.277V113.091H135.834Z" fill="#015467" stroke="#015467" stroke-width="0.5"/>
<path d="M131.814 135.023H137.296C137.685 135.023 138.057 134.868 138.331 134.592C138.605 134.317 138.759 133.943 138.759 133.554V125.152C138.759 124.762 138.605 124.389 138.331 124.113C138.057 123.838 137.685 123.683 137.296 123.683H131.814C131.426 123.683 131.054 123.838 130.78 124.113C130.506 124.389 130.352 124.762 130.352 125.152V133.554C130.352 133.943 130.506 134.317 130.78 134.592C131.054 134.868 131.426 135.023 131.814 135.023ZM135.834 126.62V132.085H133.277V126.62H135.834Z" fill="#015467" stroke="#015467" stroke-width="0.5"/>
<path d="M162.991 112.903L163.168 112.727C163.395 112.956 163.704 113.084 164.025 113.084C164.185 113.084 164.344 113.052 164.491 112.991C164.639 112.929 164.773 112.838 164.886 112.724C164.999 112.61 165.088 112.475 165.148 112.326C165.209 112.177 165.239 112.018 165.238 111.857H165.488V111.856V74.2326C165.488 73.8434 165.334 73.4699 165.06 73.1943C164.786 72.9187 164.414 72.7637 164.025 72.7637C163.637 72.7637 163.265 72.9187 162.991 73.1943C162.716 73.4699 162.562 73.8434 162.562 74.2326V111.865C162.562 112.254 162.716 112.628 162.991 112.903Z" fill="#015467" stroke="#015467" stroke-width="0.5"/>
<path d="M162.991 131.4C163.265 131.675 163.637 131.83 164.025 131.83C164.414 131.83 164.786 131.675 165.06 131.4C165.334 131.124 165.488 130.751 165.488 130.361V119.359C165.488 118.969 165.334 118.596 165.06 118.32C164.786 118.045 164.414 117.89 164.025 117.89C163.637 117.89 163.265 118.045 162.991 118.32C162.716 118.596 162.562 118.969 162.562 119.359V130.361C162.562 130.751 162.716 131.124 162.991 131.4Z" fill="#015467" stroke="#015467" stroke-width="0.5"/>
</g>
<defs>
<filter id="filter0_d_1868_99262" x="0.5" y="0.5" width="319" height="197" filterUnits="userSpaceOnUse" color-interpolation-filters="sRGB">
<feFlood flood-opacity="0" result="BackgroundImageFix"/>
<feColorMatrix in="SourceAlpha" type="matrix" values="0 0 0 0 0 0 0 0 0 0 0 0 0 0 0 0 0 0 127 0" result="hardAlpha"/>
<feOffset dy="4"/>
<feGaussianBlur stdDeviation="2"/>
<feComposite in2="hardAlpha" operator="out"/>
<feColorMatrix type="matrix" values="0 0 0 0 0 0 0 0 0 0 0 0 0 0 0 0 0 0 0.25 0"/>
<feBlend mode="normal" in2="BackgroundImageFix" result="effect1_dropShadow_1868_99262"/>
<feBlend mode="normal" in="SourceGraphic" in2="effect1_dropShadow_1868_99262" result="shape"/>
</filter>
</defs>
</svg>
