<svg width="320" height="273" viewBox="0 0 320 273" fill="none" xmlns="http://www.w3.org/2000/svg">
<path fill-rule="evenodd" clip-rule="evenodd" d="M16.9605 111.729C20.5705 110.96 20.3505 122.307 16.7305 122.387C12.8205 122.457 14.0405 112.348 16.9605 111.729ZM16.2805 118.721C17.8005 118.791 18.0505 117.722 18.1005 116.474C16.6105 116.394 16.0605 117.203 16.2905 118.691L16.2805 118.721Z" fill="#015467"/>
<path fill-rule="evenodd" clip-rule="evenodd" d="M302.86 111.729C304.37 113.636 308.25 116.024 307.42 119.92C305.96 126.812 293.46 111.958 302.86 111.729ZM303.54 118.721C304.46 118.911 304.95 116.843 304 116.673C303.58 117.063 302.94 118.002 303.54 118.691V118.721Z" fill="#015467"/>
<path fill-rule="evenodd" clip-rule="evenodd" d="M291.218 119.511C288.988 122.757 286.288 124.785 283.918 127.912C282.762 129.351 281.693 130.859 280.718 132.427C279.388 134.754 279.528 138.05 276.848 139.189C278.378 129.839 285.008 125.075 290.758 119.511H291.218Z" fill="#015467"/>
<path fill-rule="evenodd" clip-rule="evenodd" d="M56.2095 184.27C55.4295 187.366 50.5495 185.628 47.3095 184.679C39.9395 182.521 33.4095 178.436 26.7695 176.488C26.8708 175.961 27.155 175.487 27.5721 175.149C27.9892 174.811 28.5125 174.63 29.0495 174.64C37.9595 175.759 47.6395 182.272 56.2095 184.27Z" fill="#015467"/>
<path fill-rule="evenodd" clip-rule="evenodd" d="M41.3801 186.727C38.1601 187.276 34.8801 185.328 32.0201 184.07C29.1601 182.811 25.9001 181.672 23.5801 179.964C24.0801 180.084 23.9001 179.574 24.2601 179.554C24.6201 179.535 24.6701 179.315 24.7201 179.554C29.4401 180.643 33.2001 183.21 37.2701 184.889C38.6501 185.458 40.4301 185.478 41.3801 186.727Z" fill="#015467"/>
<path fill-rule="evenodd" clip-rule="evenodd" d="M159.565 245.752C164.945 247.2 173.085 246.181 174.625 251.076C168.065 253.454 157.205 251.965 148.844 252.714C152.675 254.223 158.695 254.492 162.305 256.41C163.195 256.88 165.885 258.987 165.725 259.886C165.355 261.994 155.565 261.744 152.495 261.934C147.054 262.284 142.774 262.554 138.114 262.933C143.554 263.932 150.384 264.731 155.915 266.01C160.535 267.069 163.855 267.878 165.275 271.134C159.505 273.621 146.634 272.003 137.894 272.563C135.404 272.722 132.774 273.322 130.814 272.772C128.854 272.223 127.524 270.185 126.484 269.286C130.794 267.218 136.394 266.29 143.134 266.419C138.734 264.761 131.514 266.419 126.484 264.781C124.704 264.182 119.684 260.646 120.094 258.628C120.644 255.921 132.484 255.771 136.754 255.761C143.484 255.761 149.104 256.221 155.005 256.38C147.514 253.763 134.114 253.703 124.004 253.304C122.789 253.399 121.568 253.399 120.354 253.304C118.353 252.854 115.183 249.368 114.193 247.77C116.373 246.481 119.894 246.281 122.864 246.132C137.184 245.402 152.865 247.25 166.215 247.97C164.295 246.971 160.225 247.89 159.565 245.752Z" fill="#015467"/>
<path fill-rule="evenodd" clip-rule="evenodd" d="M256.538 172.002C261.818 171.203 269.148 169.585 275.479 168.516C279.379 167.856 283.029 166.668 285.289 169.135C281.969 170.733 277.979 171.722 274.109 172.821C279.459 173.38 289.209 170.144 293.269 173.43C290.589 175.668 285.999 176.187 281.869 177.126C281.059 177.776 283.119 177.706 282.319 178.355C277.499 178.575 270.878 181.462 268.178 177.736C273.559 175.268 281.259 174.879 287.799 173.43C281.539 172.661 274.529 174.549 268.398 175.688C264.098 176.497 260.838 177.276 257.908 175.079C257.838 174.08 258.818 173.98 259.278 173.43C255.078 174.25 248.838 176.427 245.588 173.43C244.928 172.242 246.908 171.802 247.408 170.973C243.978 172.052 239.547 171.972 236.917 170.364C236.777 169.005 238.567 169.365 238.967 168.516C237.507 168.436 236.897 169.115 235.317 168.925C234.967 183.499 238.097 198.333 237.377 213.187C236.967 221.418 236.977 229.919 238.287 237.78C235.847 238.679 232.337 239.668 228.927 239.009C227.927 239.268 228.927 241.366 228.017 241.676C226.807 241.186 227.087 239.368 226.647 238.19C225.487 238.03 226.287 239.648 225.277 239.628C224.267 239.608 224.707 238.09 224.137 237.63C215.587 233.235 206.216 229.359 197.216 225.124C194.336 223.775 191.756 221.917 188.776 221.028C187.896 221.748 188.436 223.725 187.856 224.714C180.856 226.522 170.955 225.663 162.765 226.353C167.335 226.862 176.095 226.592 181.016 226.562C183.426 226.562 185.546 226.982 185.806 229.229C172.065 232.226 154.735 230.348 138.574 231.477C138.574 232.136 138.974 232.346 138.804 233.115C149.995 234.614 161.805 235.533 173.255 236.811C173.525 237.65 175.085 238.22 174.625 239.059C158.325 240.207 139.984 239.508 123.974 240.907C125.334 241.386 127.044 241.566 127.394 242.954C123.554 242.845 117.314 243.803 113.704 242.345C112.884 242.005 109.703 239.578 109.823 238.449C110.083 236.452 115.074 236.282 117.584 235.992C120.84 235.602 124.115 235.395 127.394 235.373C127.394 234.913 126.344 233.774 125.794 233.115C115.894 232.386 105.793 231.817 95.223 231.687C94.5029 230.688 92.3429 230.078 92.7129 228.82C101.713 227.471 113.004 227.821 123.064 227.172C124.124 227.112 126.184 227.272 126.254 225.943C115.974 225.394 104.403 225.424 93.8529 225.743C92.8529 225.464 93.3729 226.532 92.4829 226.353C91.4489 226.224 90.4387 225.948 89.4828 225.533C88.8328 224.455 89.4128 223.536 89.0228 222.257C88.7028 221.188 87.6027 220.439 87.4227 219.39C87.0427 217.093 87.4227 214.396 87.1927 211.808C86.0827 198.823 88.2827 183.14 85.8327 172.052C84.4726 172.441 85.2926 172.651 85.8327 173.281C84.8326 175.358 83.4426 177.007 79.6725 176.557C78.2424 177.396 77.6724 179.024 76.2424 179.833C73.725 179.93 71.2042 179.792 68.7121 179.424C69.7822 180.742 67.2621 182.64 65.712 183.529C52.2016 182.95 44.5514 177.126 34.2211 173.69C36.1011 169.175 42.3713 171.982 46.7715 172.871C44.8714 171.572 41.9613 171.183 40.1512 169.794C40.6713 168.216 41.6313 167.027 44.2614 167.337C43.0913 166.478 45.0214 164.95 45.6314 163.851C31.281 170.504 18.1906 178.285 2.74008 183.939C1.97005 183.869 2.10005 183.01 2.05005 182.301C1.36003 181.741 1.05003 182.75 0 182.5C0.770024 165.919 2.51007 146.15 1.60004 127.381C1.11003 117.571 1.60005 107.692 1.14004 97.863C0.470014 84.2379 1.38004 69.8936 0.680014 57.2874C4.26013 54.6503 9.7303 56.3784 15.2805 57.0876C22.4007 57.9966 28.5709 59.0854 35.8211 59.9545C39.2812 60.354 42.8213 61.2331 46.0914 61.3929C48.7515 61.5128 51.5216 60.6437 54.3017 60.394C64.612 59.3951 75.0523 58.9855 86.0127 58.3962C86.9124 45.4308 87.1427 32.4278 86.7027 19.4387C88.9428 20.7673 88.5928 24.4333 89.4428 27.0205C91.5228 24.663 90.6228 20.2479 92.4429 18.0303C92.0829 16.6218 89.2228 16.452 89.7128 14.9636C118.644 13.9647 148.205 15.4531 177.326 16.6018C180.326 16.7217 183.966 17.3011 186.906 16.8016C189.846 16.3022 192.746 13.8049 196.036 12.2966C205.366 7.91135 215.697 4.15545 225.037 0.409548C226.197 0.189789 226.187 1.01888 226.867 1.22865C226.737 0.569373 226.937 0.229749 227.327 0C229.087 0.509443 231.687 0.549398 233.257 1.84798C236.537 4.55502 235.367 16.6718 235.077 22.3356C234.547 32.904 235.017 45.3904 234.847 54.92C242.728 55.2196 250.788 55.9788 258.848 56.5582C263.848 56.9278 269.158 58.1365 273.679 57.9966C276.919 57.8967 280.529 56.9977 283.949 56.5582C292.529 55.5593 300.709 54.2207 309.73 53.082C313.55 52.5925 316.42 51.7035 319.31 53.9011C318.83 79.623 319.03 110.269 318.17 136.89C317.71 151.285 319.41 165.349 320 179.104C319.54 179.524 318.91 179.044 318.4 178.904C318.48 179.724 318.4 180.403 317.72 180.543C317.3 180.782 315.92 180.303 315.21 180.752C312.48 178.075 307.21 176.757 303.109 174.809C293.629 170.224 283.989 165.119 274.589 160.465C271.989 161.264 269.368 162.053 266.588 162.712C269.088 162.962 273.189 161.174 275.489 162.922C275.189 163.921 273.599 163.821 272.488 164.151C274.809 164.237 277.077 164.866 279.109 165.989C271.468 167.524 263.93 169.533 256.538 172.002ZM231.897 11.7272C232.007 8.73045 232.317 3.14655 230.987 2.50725C230.497 2.26752 229.187 2.21757 229.837 2.91681C229.047 7.12221 229.837 11.6972 230.067 16.442C231.117 37.2293 229.287 58.8257 230.067 79.3732C231.647 58.8157 231.047 33.7032 231.897 11.7272ZM214.787 34.7021C211.587 41.8542 207.956 48.6868 205.196 56.2185C205.196 56.3384 205.196 56.4583 205.426 56.4183C208.553 49.0703 212.058 41.8885 215.927 34.9018C219.893 27.4557 222.664 19.4332 224.137 11.1278C223.057 11.1878 222.557 11.7571 221.627 11.9569C219.627 16.2822 217.217 20.2778 215.007 24.4533C215.387 24.8329 215.757 23.9139 215.927 23.6342C216.927 21.966 217.767 20.3078 218.667 18.7195C219.927 16.452 220.717 13.5951 222.767 12.3665C222.027 20.7174 217.897 27.7097 214.787 34.7021ZM211.787 18.1002C205.836 30.2869 200.956 42.6234 195.586 54.9899C193.776 59.1553 191.466 63.3607 191.026 68.1056C200.026 50.6746 207.326 31.6454 216.807 14.614C216.807 14.3643 216.737 14.1346 216.347 14.2045C215.286 15.9479 213.7 17.3115 211.817 18.1002H211.787ZM117.784 18.1002H124.624C125.874 17.8904 123.724 17.8505 123.254 17.8904C113.664 18.1901 101.703 16.8915 93.8229 18.31C101.883 18.0303 110.023 18.1202 117.814 18.1002H117.784ZM175.995 19.7184C178.106 19.4288 181.586 20.3677 182.616 19.1091C180.296 19.2689 177.676 19.0592 175.995 19.7184ZM95.453 21.7163C95.183 21.7163 95.203 22.0459 95.223 22.3356C95.803 27.0105 96.483 30.7064 96.823 35.0417C97.123 39.0373 97.273 42.963 97.273 47.1285C97.273 71.1922 96.133 96.1749 96.133 121.108C96.133 137.62 95.503 154.072 96.363 170.294C97.223 186.516 98.2331 202.808 98.6431 218.651C108.213 218.501 117.154 217.792 127.164 218.042C128.164 212.797 125.844 208.102 124.654 202.878C123.78 199.57 123.095 196.215 122.604 192.829C122.214 189.153 123.604 184.958 123.744 180.742C123.744 179.813 123.414 178.984 123.514 178.075C123.634 177.016 124.394 175.778 124.434 174.599C124.494 172.461 123.484 169.874 123.064 167.217C121.724 158.836 120.204 148.827 119.864 141.196C119.664 136.561 121.254 131.516 120.094 128.28C120.496 127.286 120.801 126.256 121.004 125.203C121.004 124.204 122.404 125.653 122.374 124.594C121.904 117.462 125.574 112.337 123.514 106.144C121.654 107.822 121.514 111.079 120.094 113.136C119.924 114.045 121.254 113.596 120.774 114.775C119.284 117.851 120.004 120.958 119.634 124.614C119.174 129.259 117.764 133.904 116.904 138.339C116.516 140.156 116.361 142.016 116.444 143.873C116.524 144.612 117.004 145.281 117.124 146.13C117.344 147.629 116.964 149.177 117.124 150.635C117.894 151.275 118.394 149.067 119.184 150.226C118.724 151.594 120.044 151.365 120.324 152.074C121.164 158.217 121.524 164.8 122.834 170.514C119.964 175.618 115.684 180.093 112.834 184.858C111.763 186.616 111.403 188.634 109.833 190.192C109.223 189.783 107.833 190.082 107.103 189.783C103.573 184.498 107.203 176.547 105.953 169.285C105.673 167.627 104.463 164.85 104.813 163.142C105.393 160.385 111.323 156.749 111.893 154.151C113.024 148.847 109.263 145.99 110.293 140.017C106.573 139.737 108.783 136.511 108.923 134.273C109.133 130.797 107.713 127.411 108.013 123.415C108.553 116.083 111.543 108.491 112.114 100.67C112.724 92.389 113.834 84.4976 116.454 78.1246C120.904 75.967 126.454 74.8182 131.514 73.21C131.374 70.2132 129.814 66.6571 129.454 63.161C129.334 61.9423 129.774 60.6337 129.454 59.475C129.134 58.3163 127.194 57.4772 127.174 56.1986C127.174 54.3806 129.684 52.3128 130.374 50.8644C132.844 50.3549 135.114 51.6935 137.444 52.103C139.164 52.3927 140.854 52.103 142.234 52.7124C143.136 53.1743 143.915 53.842 144.509 54.6612C145.103 55.4804 145.496 56.4281 145.655 57.4272C145.725 58.2863 145.235 59.1753 145.205 60.0943C145.045 64.0899 144.985 68.3553 143.834 71.9813C146.645 72.251 151.355 72.6006 153.415 74.2289C156.755 73.5696 161.315 74.2289 162.545 75.4575C164.185 77.6551 163.275 80.452 163.455 83.0392C163.555 84.4876 164.135 86.0359 164.365 87.5543C164.635 89.2524 164.575 91.0405 164.825 92.6787C165.565 97.4335 167.285 102.148 168.245 107.023C169.205 111.898 170.245 116.912 170.985 122.007C171.455 122.506 171.465 120.868 172.355 121.597C173.625 126.192 171.565 130.338 170.755 134.103C169.945 137.869 170.615 141.365 168.705 144.552C167.705 144.802 165.705 144.202 164.595 144.342C165.205 140.556 162.385 139.108 164.135 135.941C162.305 135.342 162.555 132.945 161.635 130.617C160.235 127.101 157.455 122.286 157.065 118.93C156.715 115.933 156.865 113.066 155.465 110.329C155.376 115.674 154.995 121.009 154.325 126.312C155.211 127.008 155.983 127.837 156.615 128.769C154.855 133.644 159.565 135.622 157.975 141.066C159.155 146.17 158.435 154.181 158.435 160.535C158.435 163.531 158.435 166.438 158.205 169.345C157.965 172.042 157.065 174.789 157.065 177.336C157.065 178.954 157.785 180.543 157.755 181.851C157.665 185.357 156.195 189.003 155.015 191.89C153.925 194.527 151.075 196.945 150.675 199.472C150.185 202.638 151.945 205.795 153.185 207.673C153.915 208.762 155.125 209.351 155.465 210.54C156.185 212.977 155.585 214.915 156.385 217.532C155.855 218.082 154.615 218.002 153.875 218.351C163.925 218.691 174.235 218.781 184.676 218.761C183.466 170.813 182.166 119.869 182.166 71.4219C182.166 63.2608 182.956 55.1198 182.626 47.0386C182.276 38.7177 181.426 30.6065 181.256 22.4455C152.295 22.885 125.084 21.2468 95.453 21.7862V21.7163ZM91.8029 26.0215C92.3629 25.2923 93.1629 23.7041 92.4829 22.5354C92.5229 23.8739 91.2928 25.0726 91.8029 26.0915V26.0215ZM198.806 25.0226C195.806 31.0161 191.906 37.2792 191.726 45.1107C195.256 37.7587 199.806 30.2269 202.676 22.9749C201.516 23.814 200.026 24.3134 198.816 25.0626L198.806 25.0226ZM89.9628 31.7853C90.3732 31.4371 90.6917 30.9936 90.8905 30.4937C91.0893 29.9939 91.1622 29.453 91.1028 28.9184C90.5828 29.7775 89.7128 30.2969 89.9728 31.8252L89.9628 31.7853ZM210.207 34.8619C210.257 34.5123 209.957 34.3524 209.987 34.8619C202.876 48.8049 196.997 63.3408 192.416 78.3044C198.626 64.1099 203.296 48.487 210.217 34.9018L210.207 34.8619ZM217.297 83.6486C218.557 77.2655 219.297 70.5029 220.027 63.7703C220.757 57.0377 221.697 50.0153 221.177 42.8631C219.297 55.8489 218.017 70.393 217.297 83.6486ZM202.006 90.4112C198.826 99.681 195.236 109.5 191.506 118.48C190.256 121.477 188.076 124.824 187.636 127.471C186.506 134.213 188.106 141.216 188.086 147.349C187.696 141.355 189.036 135.961 190.146 131.366C193.076 119.13 198.086 108.451 202.916 97.7531C205.296 92.4989 207.726 86.4055 211.817 83.6186C212.907 73.3198 214.887 62.7414 215.697 52.8822C209.817 64.4895 206.416 77.5752 202.006 90.4411V90.4112ZM187.636 60.2841C188.086 58.1664 189.636 55.9588 189.456 53.931C188.496 55.6192 186.816 57.7369 187.636 60.3141V60.2841ZM273.639 60.4939C273.459 61.9523 275.409 61.4928 275.469 62.7414C275.019 63.091 273.789 62.7414 274.099 63.7403C277.349 91.1404 274.329 124.054 275.009 152.883C276.439 151.564 276.259 149.706 276.839 148.168C278.589 143.513 281.509 139.178 284.139 135.262C287.719 129.908 291.139 124.074 296.689 120.918C291.029 130.248 284.369 138.678 280.259 149.397C283.259 148.468 284.359 145.621 285.959 143.453C287.559 141.286 289.459 139.028 291.209 136.9C294.759 132.555 298.069 128.01 303.299 125.213C299.359 130.547 294.199 135.891 291.439 141.615C295.519 137.969 298.439 133.264 303.759 130.747C299.426 137.685 294.544 144.266 289.159 150.426C288.529 151.115 287.209 151.894 287.559 152.883C288.769 153.113 289.369 151.654 289.839 151.035C291.929 148.268 294.019 145.831 296.229 143.253C299.149 139.837 301.669 135.921 305.81 133.824C305.29 135.612 304.029 136.731 303.069 138.129C302.489 138.489 301.959 137.899 301.479 138.539C297.659 143.443 293.169 147.748 290.299 153.522C292.919 154.092 294.669 151.744 296.229 150.456C299.683 147.729 302.959 144.786 306.04 141.645C307.48 140.097 308.73 137.889 311.04 137.54C308.12 142.434 303.569 145.861 300.769 150.865C301.723 150.656 302.645 150.32 303.509 149.866C304.35 149.447 305.289 148.458 305.79 148.228C306.29 147.998 306.92 148.228 307.39 148.028C308.73 147.329 311.81 145.361 312.18 144.332C312.77 142.694 312.18 139.108 312.18 136.341C312.18 128.51 312.8 118.96 312.18 112.157C310.47 93.318 313.6 71.342 310.81 54.9899C298.439 56.8279 285.519 58.2064 273.649 60.5238L273.639 60.4939ZM314.25 61.1032C315.06 67.656 314.58 76.6862 314.94 83.0292C314.94 83.249 315.23 83.189 315.17 82.8294C315.56 74.1989 315.3 64.929 315.62 55.779C315.62 55.6492 315.62 55.5293 315.4 55.5693C312.74 56.4283 313.94 58.4461 314.3 61.1332L314.25 61.1032ZM267.708 59.465C257.058 58.9156 245.038 58.0166 235.077 57.4672C234.907 57.4672 234.817 57.637 234.847 57.8767V58.2863C240.788 58.8457 247.138 59.0654 253.338 59.5149C259.538 59.9644 265.888 60.6837 271.339 60.5138C270.918 59.0255 268.768 59.5549 267.718 59.495L267.708 59.465ZM23.3507 145.151C25.8308 139.597 28.9609 134.343 30.881 128.969C30.2892 130.705 29.2553 132.258 27.8809 133.474C29.0009 129.858 31.951 126.861 33.591 123.225C35.0811 119.899 35.8211 115.983 37.0112 112.367C38.2012 108.751 39.2012 105.075 40.4313 101.509C37.0512 107.043 34.8311 113.876 32.221 119.949C31.361 121.947 30.5009 124.574 28.8009 125.683C28.5809 123.035 30.1809 120.918 29.9409 118.92C23.7107 130.817 16.3405 141.685 13.2804 156.429C15.9805 155.84 16.9705 150.865 19.2106 149.866C17.0805 152.943 16.0205 156.968 12.1404 158.477C10.4103 156.988 11.7204 154.691 12.1404 153.143C14.7005 143.683 18.9106 135.482 23.3207 127.74C24.9795 124.503 26.8088 121.355 28.8009 118.311C29.4509 117.412 30.801 116.792 31.311 115.853C32.631 113.576 32.851 110.469 33.821 107.862C36.6911 100.061 39.9812 92.7087 42.0313 84.8872C37.6989 92.7917 33.8127 100.932 30.3909 109.271C29.2709 111.958 28.6609 115.264 26.0608 116.652C28.8909 99.5911 37.5612 86.6852 43.1713 72.8004C38.1712 79.0236 34.2611 87.0049 29.7109 93.6976C28.3409 95.6954 26.7108 98.8719 23.5507 98.822C23.0807 95.3458 25.2908 92.2392 26.7408 89.1925C29.7409 82.8994 32.661 77.0458 35.8711 71.362C37.4212 68.605 38.8712 65.4185 41.5713 63.7803C40.5713 66.6072 38.4712 68.7748 37.0112 71.362C35.5511 73.9492 34.3911 76.6862 32.901 79.3532C30.0709 84.4077 26.4508 89.5821 25.6008 96.1549C28.3309 94.7764 29.8309 91.9695 31.311 89.6021C36.0711 81.9304 41.2213 74.5285 45.6814 66.8569C45.8414 66.0977 44.6814 66.4973 44.5414 66.0378C45.0114 65.0888 46.5915 65.1488 46.3615 63.5705C43.4814 63.5705 40.1012 62.7614 36.7811 62.5716C31.681 74.2388 24.1808 83.7684 20.7806 96.994C21.6107 96.944 21.2807 95.136 22.1507 95.7653C22.0007 97.6133 21.0707 99.6311 19.1506 99.2515C21.7907 84.3278 30.3309 74.7183 35.8111 62.3618C26.5908 60.5338 16.3705 59.6048 6.6002 58.2663C11.1303 72.0512 8.28026 88.713 9.11028 105.215C10.3403 129.369 9.5703 153.382 9.11028 176.327C10.6305 175.719 11.9672 174.728 12.9904 173.45C11.7704 173.37 10.3803 173.82 9.9903 172.631C9.48029 170.903 15.4605 169.964 17.2905 169.355C19.845 168.555 22.2955 167.455 24.5908 166.078C25.4008 154.651 31.481 145.101 34.5911 135.752C30.3309 142.374 26.5908 150.006 22.7207 156.859C21.4807 159.086 20.4406 161.963 17.7205 163.002C18.4006 156.569 20.8906 150.685 23.3507 145.151ZM134.464 68.3053C136.864 68.585 138.624 68.9946 138.804 70.5629C139.024 72.4907 135.854 73.5596 135.804 75.4775C136.974 77.0458 138.314 76.1368 140.594 76.4764C142.114 75.4775 141.324 73.6495 141.744 71.7616C141.544 71.1123 140.424 71.302 140.374 70.5329C140.336 67.3099 140.563 64.0891 141.054 60.9034C138.804 60.5039 135.054 59.3251 133.294 60.9034C133.305 60.7383 133.268 60.5734 133.189 60.4283C133.109 60.2832 132.989 60.1639 132.844 60.0843C133.184 62.8602 133.726 65.6077 134.464 68.3053ZM85.8727 60.5238C76.3424 61.7225 62.932 62.3618 52.7816 62.9811C51.6116 63.0511 49.1515 62.4118 48.6815 63.9801C52.9316 64.2598 57.9118 63.5805 63.052 63.161C69.8822 62.6215 76.0524 62.5017 82.9026 62.1621C83.9026 62.1021 86.2627 62.3718 86.0927 60.9334C86.4427 60.8834 86.1327 60.5938 85.8727 60.5238ZM234.637 60.7236C234.637 67.5661 233.767 73.5995 233.947 80.6019C236.087 79.9926 235.387 77.6052 235.547 75.6873C235.927 71.0323 237.827 68.1555 242.388 67.2864C243.238 67.1166 244.208 67.4563 244.898 67.2864C245.978 67.0167 246.158 66.0478 247.188 66.0578C247.522 71.1071 246.981 76.1761 245.588 81.0414C247.448 82.4798 251.998 82.9393 252.428 86.1658C252.548 87.0149 252.008 88.1636 251.978 89.0327C251.848 92.1792 252.898 95.8452 253.118 99.691C253.528 107.193 252.368 115.474 252.428 121.827C254.768 121.547 257.428 121.028 258.818 122.436C259.088 128.1 259.528 133.065 257.678 137.6C254.358 138.239 250.088 138.019 246.728 138.598C247.158 143.593 246.328 148.588 246.498 153.972C246.498 154.841 247.698 153.662 248.098 154.381C248.436 155.793 248.663 157.229 248.778 158.677C247.783 159.143 246.703 159.403 245.604 159.439C244.506 159.475 243.411 159.287 242.388 158.886C241.128 155.89 240.758 152.813 240.107 149.047C239.343 143.739 238.043 138.521 236.227 133.474C235.227 138.958 236.867 146.889 234.407 151.095C234.697 155.27 234.407 159.965 235.317 163.601C246.888 160.674 258.958 158.187 271.368 156.019C269.988 125.243 272.949 92.8185 271.138 62.7714C258.898 62.2919 245.938 61.3629 234.637 60.7236ZM83.3626 64.4096C73.3623 65.5483 59.3618 65.3086 48.6815 66.2576C47.1815 96.4146 49.8916 129.019 48.6815 159.496C61.6819 161.703 73.9523 164.49 86.3227 167.287C86.3227 162.642 86.0527 158.247 85.8727 153.762C85.7327 153.542 84.7026 153.982 84.7326 153.143C83.8926 148.228 84.3426 142.155 83.8126 136.96C80.2725 143.953 80.4825 155.81 77.2024 162.572C75.3724 163.152 72.3823 163.142 71.2622 161.963C71.1422 160.345 71.8422 159.476 71.7222 157.857C72.2822 157.228 73.4123 158.377 73.3223 157.248C73.7323 152.433 72.8723 146.989 73.0923 141.675C72.3123 141.675 72.6323 142.764 71.9522 142.904C70.4422 140.906 64.782 141.985 61.9519 140.646C61.0346 135.707 60.8024 130.665 61.2619 125.663C63.256 124.695 65.5506 124.548 67.6521 125.253C67.3521 118.451 66.4821 109.64 66.9721 101.899C67.1821 98.6322 68.1421 95.4057 68.1121 92.6787C68.1121 91.4101 67.4121 90.2913 67.6521 89.1925C68.3821 85.9061 73.1523 86.1958 74.5023 84.0681C73.3323 80.7417 72.2222 73.5496 74.2723 70.5429C78.7024 70.8126 82.3226 71.312 83.6226 74.2289C84.9226 77.1457 83.2526 81.3511 85.6827 83.6585C85.5727 76.7261 85.9727 70.2632 86.1327 63.5705H85.6827C84.9962 64.0482 84.1962 64.3375 83.3626 64.4096ZM213.187 90.0316C214.247 89.3423 214.317 87.7641 215.237 86.9549C215.947 79.7328 217.237 71.9713 217.067 64.6194C215.777 73.0901 214.037 81.1613 213.187 90.0316ZM219.347 92.8984C220.347 85.2668 222.347 77.4354 221.857 69.1244C221.077 76.9659 219.057 84.7773 219.347 92.8984ZM189.006 72.0013C189.586 71.8814 190.676 70.3531 189.686 70.1533C189.541 70.7964 189.313 71.4178 189.006 72.0013ZM237.827 77.1157C238.967 77.735 240.698 77.8149 240.107 79.9926C240.978 78.9237 243.168 78.9937 244.218 78.1446C244.228 76.2127 243.999 74.2869 243.538 72.4108C241.618 73.1201 237.717 72.9203 237.827 71.4119C237.687 73.1001 237.297 75.4675 237.827 77.1157ZM31.561 103.557C35.5611 95.8452 39.5612 86.4155 44.5614 78.9637C44.4014 76.9659 45.1514 74.7183 44.7914 73.23C40.1812 83.1491 35.3811 92.9084 31.561 103.557ZM143.134 75.4775C142.984 77.0758 140.624 77.9448 140.134 79.3732C140.044 79.6429 140.414 80.502 140.364 81.0114C140.264 81.8305 139.714 82.7196 139.674 83.269C139.424 86.8051 140.154 90.9805 140.364 95.156C140.894 105.994 143.214 117.212 139.674 125.483C139.238 124.906 138.695 124.418 138.074 124.044C137.304 120.998 135.074 119.05 134.204 115.853C133.624 113.806 133.974 110.489 134.204 107.862C134.784 101.02 135.014 92.8785 136.254 86.7552C136.484 85.5765 137.024 84.6974 136.934 83.8783C136.784 82.35 135.254 81.0814 136.714 79.7828C134.354 79.4931 133.764 76.5763 131.714 76.7061C132.594 79.1735 137.484 82.2301 135.134 86.3456C132.384 83.4787 130.234 80.0825 127.374 77.3554C123.924 78.8338 120.194 80.0525 117.104 81.8605C117.225 83.1073 117.071 84.3654 116.654 85.5465C116.124 85.6164 116.394 84.9571 115.964 84.9371C114.524 96.1848 113.474 106.384 111.863 117.112C110.983 122.896 108.863 128.24 110.263 134.733C111.593 134.673 113.694 135.022 115.264 134.733C115.164 133.544 116.484 132.895 116.864 131.656C117.804 128.559 116.864 124.324 118.004 121.208C116.854 121.477 117.104 123.006 115.724 123.055C116.174 118.94 117.994 115.064 119.824 110.759C121.464 106.903 124.374 102.178 123.704 97.843C123.204 94.6066 119.964 90.4311 122.794 86.9849C125.684 90.551 124.624 96.9041 125.074 102.768C125.504 108.421 128.134 115.534 124.394 118.131C124.284 120.838 123.704 123.125 123.934 126.122C127.644 127.051 131.084 129.229 134.654 129.608C134.654 130.737 135.854 130.717 136.024 131.656C135.824 132.325 135.254 133.434 135.564 133.914C139.664 134.063 140.564 132.185 140.564 128.999C143.654 128.21 147.445 128.07 149.465 126.332C150.605 126.332 152.125 126.861 152.885 126.532C154.455 118.54 151.805 109.251 152.885 101.129C153.065 99.8109 153.885 98.4923 154.035 97.2337C154.335 93.4379 153.805 89.5121 156.545 86.9849C157.935 90.0316 155.365 91.8895 155.175 94.7764C154.985 97.6632 155.605 100.151 155.625 103.377C155.775 103.797 156.785 103.437 156.545 104.196C159.155 111.888 161.545 119.769 163.845 127.77C166.085 127.251 167.545 126.042 169.545 125.303C169.075 116.483 164.925 108.162 163.155 100.101C161.735 93.6177 162.705 87.1148 159.965 81.2512C157.965 79.7528 155.865 77.8349 152.885 77.765C150.885 77.715 148.885 78.7639 146.955 77.5552C144.785 80.5519 143.124 83.9482 140.564 86.5454C140.464 82.6896 143.454 79.8527 145.135 76.9159C144.636 76.2381 143.936 75.7348 143.134 75.4775ZM75.8324 81.6507C76.6324 82.6996 79.0725 82.29 79.7125 83.4887C80.1625 82.7296 79.4825 82.2001 79.9325 81.4909C80.6625 81.4909 80.9325 81.0314 81.7626 81.0814C82.1223 80.0018 82.0396 78.8238 81.5325 77.8049C79.8225 77.3654 78.5324 76.5763 76.2824 76.5763C75.922 78.2425 75.7708 79.9472 75.8324 81.6507ZM189.686 77.9548C188.756 79.4531 188.056 81.1413 187.176 82.6696C187.376 83.6685 186.716 85.4066 187.636 85.7463C188.006 83.1191 189.756 79.593 189.686 77.9348V77.9548ZM238.057 83.8983C238.177 84.198 237.787 84.9571 238.287 84.8972C238.227 84.2279 239.907 84.0481 239.197 83.4588C239.007 83.7784 238.627 83.9083 238.057 83.8783V83.8983ZM250.378 89.4322C249.108 87.9234 247.56 86.6721 245.818 85.7463C244.254 84.8816 242.568 84.2586 240.818 83.8983C238.127 89.0726 240.437 98.7221 237.817 103.986C235.217 102.388 236.197 99.5312 236.677 95.7853C237.077 92.6487 237.567 89.8418 237.817 87.3845C236.92 86.2001 235.844 85.1622 234.627 84.3078C233.367 85.3667 233.797 87.1248 233.707 88.6131C233.407 93.9972 233.027 100.45 233.257 106.234C235.777 106.114 238.187 105.894 240.788 105.824C243.518 102.618 241.958 95.5455 244.668 92.3091C243.718 100.45 248.168 105.005 248.538 112.597C249.441 112.395 250.356 112.255 251.278 112.177C252.918 103.747 249.388 97.0739 250.378 89.4123V89.4322ZM81.7626 88.4333C81.8695 88.2925 81.9452 88.1307 81.9849 87.9585C82.0245 87.7863 82.0272 87.6077 81.9926 87.4344C81.5204 87.3563 81.06 87.2187 80.6225 87.0249C80.7225 87.6442 81.4425 87.854 81.7626 88.3934V88.4333ZM77.6524 87.4344C75.6524 89.8018 70.4722 89.7719 69.6522 93.1781C69.6173 94.0695 69.6911 94.9617 69.8722 95.8352C70.0622 101.539 67.0921 108.821 68.5121 115.514C69.4622 115.743 70.5122 115.923 71.5122 116.123C71.1222 110.469 74.7423 106.134 75.3924 102.188C75.7224 100.19 74.5623 97.893 75.6224 95.8352C77.053 100.213 77.897 104.761 78.1324 109.36C81.1325 109.36 82.8026 109.54 85.4327 109.57C85.5727 102.578 85.9727 94.7564 85.4327 87.844C84.2926 88.8429 82.5726 89.5821 82.2426 91.1204C82.0326 92.0594 82.5526 93.1182 82.6926 94.197C83.2826 98.8919 84.9126 105.764 82.2426 107.522C79.6825 102.298 81.5725 93.0882 79.5025 87.4344H77.6524ZM199.726 111.408C198.086 115.214 196.446 119.07 194.936 122.886C193.426 126.701 191.256 130.807 191.736 134.982C192.896 133.424 191.856 129.888 193.796 129.039C194.496 129.429 193.456 131.386 194.476 131.496C200.366 121.747 205.786 108.861 210.217 97.2737C210.99 94.5358 211.069 91.6488 210.447 88.8728C210.447 88.743 210.447 88.6231 210.217 88.6631C205.726 95.2059 203.086 103.527 199.726 111.338V111.408ZM36.5811 107.113C38.4412 101.269 43.0313 96.7742 42.5213 89.4822C40.6913 95.2958 37.7112 101.219 36.5811 107.043V107.113ZM187.586 108.112C189.856 102.118 191.776 95.8952 194.196 90.0815C194.196 89.8318 194.126 89.5921 193.746 89.672C192.296 96.1449 187.206 100.51 187.636 108.062L187.586 108.112ZM214.047 101.559C213.317 105.135 213.387 109.41 210.397 111.188C209.617 109.77 210.057 107.263 209.947 105.195C205.386 113.516 202.216 123.885 198.946 133.684C197.036 139.478 194.656 144.192 196.666 150.665C200.356 142.165 204.666 133.154 206.666 123.825C204.366 127.63 202.896 132.186 200.506 135.911C203.166 126.402 208.606 118.69 212.377 109.89C213.577 107.083 215.977 104.036 216.477 101.279C217.127 97.7232 216.617 93.6876 216.477 90.2114C215.487 93.7975 214.907 97.5733 214.097 101.509L214.047 101.559ZM219.977 96.4346C220.837 96.5045 220.827 93.8874 220.437 94.177C220.737 95.2359 220.027 95.4856 220.027 96.3846L219.977 96.4346ZM212.457 101.349C212.157 100.25 213.457 99.5612 212.677 98.6821C212.477 99.2415 211.907 100.63 212.507 101.299L212.457 101.349ZM223.457 101.759C223.307 100.94 223.747 99.5811 223.227 99.0917C223.157 99.741 222.527 101.389 223.457 101.709V101.759ZM136.064 107.502C136.144 106.304 137.004 103.976 136.064 103.197C136.394 104.736 135.414 106.244 136.064 107.453V107.502ZM205.426 144.182C208.757 135.662 212.367 126.202 216.157 117.541C217.957 113.426 221.247 109.47 220.027 103.807C214.447 116.613 210.297 130.697 205.426 144.132V144.182ZM246.958 122.866C247.954 122.401 249.05 122.191 250.148 122.256C249.468 120.788 249.818 119.14 249.918 117.332C249.388 116.583 247.818 116.762 247.408 115.903C246.948 111.538 247.228 106.913 244.218 104.426C244.298 110.699 246.198 116.523 246.958 122.816V122.866ZM72.4023 119.799C71.4635 119.955 70.591 120.382 69.8922 121.028C70.3769 122.559 70.3769 124.202 69.8922 125.733C71.6622 125.003 72.2122 126.292 73.7723 125.942C73.0423 119.06 76.5624 113.836 75.3724 107.962C72.8823 110.849 73.0523 115.444 72.4023 119.749V119.799ZM137.204 114.675C137.654 113.676 137.204 111.848 136.974 110.779C136.694 112.117 136.234 113.616 137.204 114.615V114.675ZM233.297 113.186C233.987 113.076 234.207 111.858 233.977 111.548C232.957 111.408 233.297 112.497 233.297 113.186ZM242.198 115.444C243.088 114.904 244.408 112.317 242.878 111.548C242.188 112.457 242.378 114.125 242.168 115.444H242.198ZM75.8624 121.997C76.7824 119.34 78.9425 117.801 79.7425 115.004C74.7023 113.476 76.4724 119.769 75.8324 121.997H75.8624ZM79.5125 119.33C80.2525 117.741 81.8426 116.922 82.5126 115.234C80.6125 115.714 79.7025 118.091 79.4825 119.33H79.5125ZM81.7925 121.997C82.6126 119.789 86.5027 118.181 84.9827 115.234C84.0826 117.532 82.1126 119.929 81.7626 121.997H81.7925ZM242.418 121.997C243.138 120.179 245.158 117.681 243.568 115.644C243.088 117.611 241.488 119.539 242.388 121.997H242.418ZM220.297 124.664C220.662 122.217 220.662 119.729 220.297 117.282C218.597 119.449 219.557 122.067 220.297 124.664ZM90.7028 120.768C90.6128 120.219 90.9128 118.271 90.4728 118.77C90.5128 119.27 90.2228 121.217 90.6628 120.768H90.7028ZM31.601 135.112C31.071 135.042 31.381 134.223 30.921 134.113C27.6209 141.465 24.2408 148.737 21.5607 156.649C25.4608 149.946 29.2009 143.074 33.201 136.571C34.5011 134.453 36.6511 132.026 37.3112 130.008C38.3912 126.672 37.7512 123.315 37.9912 119.769C36.2911 125.243 35.0511 131.207 31.561 135.112H31.601ZM244.028 122.816C244.308 122.186 245.028 120.938 244.258 120.568C244.578 121.527 242.858 122.486 243.988 122.816H244.028ZM90.0228 125.073C90.4428 124.594 91.2828 122.906 90.4828 122.616C90.2928 123.275 89.2928 124.274 89.9728 125.073H90.0228ZM75.4224 128.759C76.6444 127.57 77.3607 125.957 77.4224 124.254C76.9224 125.922 75.1323 126.432 75.3724 128.759H75.4224ZM200.006 171.183C197.806 177.616 195.006 183.729 195.216 190.652C201.426 173.4 207.216 154.911 214.377 137.979C215.377 135.582 217.207 132.475 217.377 130.607C217.547 128.739 216.757 126.342 217.147 124.454C210.537 139.108 205.296 155.49 199.956 171.183H200.006ZM250.428 125.073C250.146 127.394 249.993 129.728 249.968 132.066C251.278 130.447 250.968 127.391 251.798 125.303C251.365 125.066 250.864 124.985 250.378 125.073H250.428ZM253.848 127.121C253.458 126.292 254.738 125.243 253.618 125.073C253.808 125.912 252.798 126.811 253.798 127.121H253.848ZM247.008 128.969C246.838 127.97 248.008 126.132 247.008 125.683C246.611 126.739 246.594 127.901 246.958 128.969H247.008ZM85.4127 128.599C85.2027 128.03 85.8827 126.672 84.9527 126.751C84.7026 127.281 84.5426 128.45 85.4127 128.599ZM75.8324 134.133C75.7424 134.523 75.8324 137.64 76.0524 137C77.2402 133.716 78.6125 130.501 80.1625 127.371C78.8725 129.718 76.2924 131.916 75.8324 134.093V134.133ZM40.6913 136.181C42.0013 134.553 41.3213 130.048 41.1513 127.78C40.4838 130.515 40.3278 133.35 40.6913 136.141V136.181ZM67.3921 135.362C68.2021 133.744 68.3221 130.487 67.8421 128.37H66.9321C66.5321 130.367 66.5021 133.774 67.3921 135.322V135.362ZM65.102 134.952C65.408 132.846 65.408 130.706 65.102 128.599H64.422C63.972 130.527 64.572 133.154 65.102 134.913V134.952ZM70.3522 134.543C69.8322 132.465 71.5222 129.678 69.8922 128.599C69.5722 130.178 69.2922 133.444 70.3522 134.503V134.543ZM63.512 137.2C63.392 135.202 63.802 130.927 62.5919 129.209C61.9619 131.027 61.6019 136.421 63.512 137.16V137.2ZM195.846 137.2C195.846 135.262 197.456 133.734 196.986 132.076C196.746 133.594 193.936 135.592 195.846 137.16V137.2ZM124.204 133.104C124.004 132.805 123.864 132.455 123.284 132.485C123.184 133.154 122.364 134.633 123.284 134.952C123.694 133.954 125.284 133.144 125.114 132.285C124.294 132.046 124.924 133.164 124.204 133.065V133.104ZM166.635 134.333C167.575 135.332 166.835 137.21 166.635 138.429C167.525 138.539 167.755 138.069 168.695 138.229C168.505 136.451 168.995 134.303 168.695 133.104C168.175 132.805 166.865 133.594 166.635 134.293V134.333ZM144.735 138.429C145.635 136.77 148.635 134.433 148.385 133.104C146.768 134.554 145.517 136.365 144.735 138.389V138.429ZM127.854 135.362C128.214 134.593 129.074 134.273 129.224 133.364C128.294 133.404 127.764 134.962 127.854 135.322V135.362ZM141.774 134.952C142.004 134.413 142.674 134.253 142.914 133.724C142.294 133.104 141.364 134.643 141.774 134.913V134.952ZM233.037 224.495C233.567 193.209 229.937 164.63 229.617 133.504C229.967 164.56 229.737 196.066 233.037 224.495ZM132.184 137.59C132.534 136.171 134.824 135.492 134.464 134.113C133.825 134.459 133.283 134.957 132.885 135.564C132.487 136.171 132.246 136.867 132.184 137.59ZM154.095 135.342C154.095 135.072 154.495 135.152 154.545 134.932C154.175 134.932 154.415 134.363 154.095 134.313C153.935 134.703 153.295 135.172 154.095 135.322V135.342ZM76.7424 143.943C76.5124 140.666 78.5625 138.339 78.5625 135.951C77.1424 137.969 74.8823 140.716 76.7424 143.923V143.943ZM79.2525 142.944V144.582C79.7625 144.492 79.3425 143.583 79.4825 143.144C79.9125 141.006 81.0225 138.389 80.6225 136.151C79.5171 138.22 79.0541 140.571 79.2925 142.904L79.2525 142.944ZM285.059 152.363C287.819 150.436 290.059 147.479 292.129 144.782C294.26 142.166 296.24 139.431 298.059 136.591C293.579 141.665 287.209 145.101 285.059 152.323V152.363ZM30.4209 156.059C31.961 149.576 37.5012 145.611 36.5811 137.61C34.4411 143.503 31.511 149.826 30.4209 156.019V156.059ZM154.775 139.248C155.655 139.657 156.175 138.169 155.235 138.249C154.995 138.459 155.005 138.938 154.775 139.208V139.248ZM112.564 139.657C112.525 140.38 112.729 141.095 113.141 141.69C113.554 142.285 114.153 142.726 114.844 142.944C114.974 140.746 115.294 138.209 112.564 139.587V139.657ZM211.137 156.639C213.137 150.955 216.707 145.651 217.747 139.837C215.627 145.361 212.297 150.925 211.137 156.629V156.639ZM155.915 144.582C156.149 143.09 156.302 141.586 156.375 140.077H155.685C155.227 141.559 155.309 143.154 155.915 144.582ZM189.916 142.324C190.336 147.069 189.786 152.683 190.596 157.078C190.806 152.204 191.276 145.411 191.056 141.505C190.886 141.935 190.366 142.085 189.916 142.284V142.324ZM38.6412 150.116C38.4912 149.946 37.4812 149.397 37.7212 150.116C36.9411 152.204 35.9011 155.17 35.9011 157.288C37.6511 153.632 39.7121 150.133 42.0613 146.829C41.9113 146.01 42.3613 144.652 41.8313 144.172C40.5813 145.95 40.5713 148.877 38.6412 150.076V150.116ZM198.816 165.279C200.816 158.417 203.726 151.245 205.196 144.582C203.056 151.295 200.026 158.337 198.816 165.239V165.279ZM133.294 146.999C133.894 147.169 134.544 146.38 134.894 146.999C133.844 151.454 130.994 154.291 130.104 158.886C132.924 156.089 134.524 152.204 136.944 149.047C135.923 147.759 135.01 146.39 134.214 144.952C134.124 145.801 133.444 146.15 133.294 146.999ZM124.404 149.666C124.314 148.667 126.024 147.389 125.084 146.999C124.654 147.579 123.844 148.857 124.434 149.666H124.404ZM194.706 154.571C196.276 153.013 195.036 150.186 194.936 147.808C194.716 149.806 194.156 152.573 194.706 154.571ZM113.474 151.085V154.161C115.474 154.371 115.664 149.437 113.474 151.095V151.085ZM308.1 158.876C307.81 156.269 308.7 152.603 307.65 150.675C305.72 152.483 307.6 156.689 308.1 158.886V158.876ZM133.094 160.924C131.094 165.149 128.014 169.525 129.434 173.42C131.204 171.423 132.074 168.885 133.314 166.428C134.554 163.971 136.374 161.723 137.194 159.256C138.014 156.789 138.074 154.032 139.024 151.265C138.694 151.215 138.634 150.925 138.334 150.855C136.614 153.772 135.004 156.988 133.104 160.934L133.094 160.924ZM296.469 152.573C297.579 152.673 298.469 151.474 298.059 150.935C297.669 151.574 296.859 151.864 296.469 152.573ZM35.6711 160.974C37.1512 160.594 38.1812 159.815 39.5512 159.336C39.9912 157.138 41.1813 154.511 40.4613 151.954C38.7612 154.831 37.2912 157.937 35.6711 160.934V160.974ZM140.404 154.211C139.734 155.7 140.174 157.298 139.944 158.926C139.164 164.46 136.854 170.833 137.434 176.957C137.584 178.585 138.434 180.233 138.574 181.881C139.424 193.209 138.754 207.803 138.344 218.351C141.834 217.962 145.845 219.25 148.615 218.152C148.615 216.533 145.945 217.262 145.425 216.104C145.325 210.65 143.424 205.475 143.824 200.321C144.042 199.306 144.193 198.279 144.275 197.244C144.115 194.298 141.914 191.251 141.544 188.024C141.034 183.619 142.274 178.035 143.134 175.119C142.234 167.936 141.284 160.894 141.134 153.592H140.454L140.404 154.211ZM298.299 155.57C298.919 155.1 299.779 154.841 300.129 154.132C299.179 154.231 297.639 154.811 298.299 155.57ZM300.359 157.208C301.179 157.368 301.689 158.627 302.409 158.207C302.259 157.208 302.709 155.76 302.179 155.14C301.729 156.029 300.599 156.239 300.349 157.248L300.359 157.208ZM32.291 155.81C30.6165 158.896 28.7874 161.897 26.8108 164.8C28.0847 164.391 29.309 163.842 30.4609 163.162C30.681 160.674 32.391 157.328 32.291 155.81ZM271.178 157.448C262.958 160.365 248.388 162.992 238.777 165.03C237.687 165.269 234.907 165.11 235.127 166.878C240.818 165.769 246.878 164.37 253.128 162.982C259.588 161.563 267.128 159.176 273.659 159.086C273.618 158.647 271.868 157.188 271.138 157.448H271.178ZM4.91014 164.21C4.79014 166.598 3.74011 169.575 4.91014 170.773C5.64016 167.667 5.49017 161.603 5.14016 158.886C4.87015 160.505 4.96015 162.353 4.87015 164.21H4.91014ZM194.516 166.468C194.576 164.061 196.166 161.943 195.656 159.705C194.978 160.679 194.521 161.788 194.318 162.956C194.114 164.125 194.168 165.323 194.476 166.468H194.516ZM48.2615 160.934C47.6815 161.503 46.6014 161.633 46.4314 162.572C50.6116 162.353 54.1417 163.501 58.0718 164.42C67.7521 166.688 77.0724 168.636 86.3627 170.773V169.135C73.3823 167.427 60.3719 164.031 48.2215 160.934H48.2615ZM126.974 163.801C126.864 164.45 127.394 164.53 127.204 165.239C128.204 165.179 127.984 164.021 128.344 163.391C127.594 163.291 127.414 163.681 126.934 163.801H126.974ZM315.45 170.154C315.53 172.441 314.65 175.888 316.36 177.326C316.411 172.927 316.03 168.534 315.22 164.21C315.149 166.194 315.212 168.179 315.41 170.154H315.45ZM192.446 173.231C192.296 170.833 192.736 166.818 192.216 165.439C192.296 167.847 191.906 171.852 192.426 173.231H192.446ZM90.4428 177.126C90.3828 174.549 92.0529 172.422 91.3528 169.954C90.1928 171.443 89.8228 174.729 90.4328 177.126H90.4428ZM109.603 173.021C109.823 172.631 110.263 170.613 109.383 170.564C109.195 170.955 109.116 171.389 109.153 171.821C109.19 172.253 109.342 172.667 109.593 173.021H109.603ZM134.014 177.546C135.284 177.596 135.354 175.468 134.924 174.679C134.787 175.679 134.479 176.649 134.014 177.546ZM226.187 187.795C225.977 184.089 226.677 179.564 225.737 176.517C225.297 180.023 225.297 184.748 226.187 187.785V187.795ZM222.297 178.355C222.447 186.077 221.837 195.566 222.977 201.719C222.497 194.018 223.067 185.377 222.517 177.746C222.507 177.975 222.577 178.325 222.297 178.355ZM90.6428 183.889C90.5528 182.161 91.4729 180.273 90.8728 178.765C89.8128 179.724 90.4528 182.291 90.6628 183.889H90.6428ZM108.643 182.89C108.923 182.121 109.573 180.433 108.643 179.813C108.299 180.802 108.313 181.881 108.683 182.86L108.643 182.89ZM92.2929 184.089C92.4829 183.939 92.9129 182.67 92.0729 182.86C92.1629 183.22 91.7529 184.069 92.2929 184.089ZM144.094 185.727C144.435 185.612 144.729 185.39 144.935 185.095C145.14 184.801 145.245 184.448 145.235 184.089C144.674 183.872 144.138 183.598 143.634 183.27C143.474 184.338 144.035 184.788 144.055 185.727H144.094ZM91.6129 200.281C91.9129 196.036 93.5429 190.821 92.2929 186.546C89.5628 189.473 90.9928 196.116 91.5729 200.281H91.6129ZM145.005 189.013C145.785 189.013 145.855 188.404 146.145 188.014C145.475 188.104 144.825 188.204 144.965 189.013H145.005ZM128.124 193.109C128.124 191.581 129.334 189.972 129.034 188.804C127.954 189.583 127.064 191.73 128.084 193.109H128.124ZM146.295 193.528C146.635 194.238 146.405 195.476 147.205 195.786C148.385 193.698 150.485 191.351 151.085 189.433C150.125 191.321 147.725 191.96 146.295 193.528ZM92.7129 203.518C93.2429 202.728 93.8029 199.901 93.1729 199.422C93.2929 200.96 92.2329 202.449 92.7129 203.518ZM146.565 208.232C146.425 207.743 146.845 206.744 146.335 206.594C145.995 206.964 146.295 207.883 146.565 208.272V208.232ZM190.146 218.271C191.466 218.271 191.906 219.15 193.336 219.09C192.996 217.622 191.196 217.472 190.146 216.633V218.271ZM98.1431 221.348V222.167C105.443 222.527 116.514 222.896 123.924 223.166C125.604 223.226 128.314 224.165 128.254 221.518C117.764 221.398 107.443 222.237 98.1931 221.388L98.1431 221.348ZM137.614 223.396C149.325 223.126 162.755 222.627 174.805 221.967C162.425 221.837 150.805 222.287 138.754 221.967C138.294 222.367 138.294 223.156 137.664 223.436L137.614 223.396ZM228.297 225.493C228.197 224.824 228.527 222.707 228.067 223.036C228.117 223.695 227.787 225.823 228.297 225.493ZM233.547 234.723C234.017 233.824 233.227 231.357 233.087 231.027C233.447 232.406 231.997 234.254 233.497 234.713L233.547 234.723ZM139.314 235.133H142.504C144.505 235.223 143.504 234.763 142.044 234.923C141.364 234.584 140.094 234.773 139.314 234.514C139.034 234.514 138.774 234.574 138.854 234.923C138.854 235.073 138.994 235.153 139.294 235.123L139.314 235.133Z" fill="#015467"/>
</svg>
