<svg width="331" height="209" viewBox="0 0 331 209" fill="none" xmlns="http://www.w3.org/2000/svg">
<g clip-path="url(#clip0_1752_96088)">
<path d="M304.404 37.215C304.293 36.5305 304.217 35.8204 304.056 35.1299C303.622 33.2528 302.2 31.9486 300.371 31.6983C298.343 31.4209 296.712 32.2622 295.767 34.082C295.58 34.4408 295.425 34.8163 295.24 35.2188C294.214 35.1344 293.649 34.8419 293.281 33.7714C292.848 32.511 292.066 31.3078 291.2 30.269C289.936 28.7477 288.109 28.7131 286.57 29.9825C285.868 30.56 285.305 31.237 285.036 32.1386C284.97 32.3587 284.66 32.508 284.463 32.6889C284.278 32.4823 284.018 32.3044 283.919 32.0617C283.675 31.4586 283.585 30.7801 283.281 30.2117C282.937 29.5227 282.481 28.8942 281.932 28.3512C280.378 26.9189 278.207 26.946 277.089 28.6648C276.95 28.8381 276.798 29.0004 276.634 29.1503C276.384 28.8141 276.143 28.5125 275.927 28.1929C275.168 27.0772 274.223 26.2073 272.889 25.7926C271.235 25.277 269.775 25.6675 268.704 27.0124C268.3 27.5174 268.006 28.1115 267.651 28.6874C266.969 28.7206 266.572 28.4522 266.436 27.73C266.177 26.3867 265.412 25.3267 264.356 24.4779C262.266 22.7983 260.139 23.2175 258.82 25.5499C258.647 25.8514 258.488 26.1726 258.201 26.7123C257.869 26.1876 257.573 25.8394 257.409 25.4383C256.721 23.7572 255.412 22.8209 253.736 22.2721C251.931 21.6856 250.958 22.0234 249.938 23.6291C249.756 23.9155 249.569 24.1975 249.384 24.4824C248.624 24.1809 248.607 23.5311 248.381 23.0004C247.746 21.5092 246.71 20.3905 245.145 19.8507C243.493 19.2793 242.036 19.8402 240.951 21.3735C240.702 21.7263 240.717 22.4003 240.023 22.2586C239.399 22.1319 239.229 21.6344 239.112 21.0705C238.765 19.3442 237.562 18.2752 236.099 17.4927C234.215 16.484 232.128 17.0404 230.855 18.8044C229.818 20.2382 229.64 20.2367 228.689 18.7848C228.33 18.236 228.005 17.6616 227.626 17.1263C226.138 15.0849 223.665 14.5738 221.432 15.8222C221.28 15.9081 221.112 15.9729 220.976 16.0378C218.518 13.5139 215.643 12.76 212.208 13.8953C211.939 13.55 211.666 13.1656 211.357 12.8113C211.049 12.4569 210.75 12.0574 210.361 11.789C207.93 10.0883 206.539 10.3582 204.588 11.9519C204.219 11.4996 203.848 11.0472 203.481 10.5949C202.721 9.66261 201.699 8.97646 200.544 8.62436C198.62 8.01373 197.575 8.31528 195.894 10.0356C195.502 9.68126 195.135 9.28172 194.711 8.98018C192.792 7.56444 190.773 6.70052 188.369 7.84185C188.126 7.95644 187.685 7.84185 187.419 7.69108C186.587 7.22219 185.823 6.62513 184.977 6.18338C183.406 5.3662 181.796 5.12798 180.115 6.22409C179.508 5.82756 178.867 5.39786 178.213 4.99229C176.594 3.98363 174.871 3.72732 173.064 4.4088C172.875 4.48858 172.67 4.52201 172.466 4.50626C172.262 4.49051 172.065 4.42604 171.891 4.31834C171.043 3.87809 170.164 3.49664 169.284 3.12122C168.148 2.63423 166.966 2.45331 165.79 2.94784C165.143 3.21922 164.782 2.95839 164.423 2.49552C163.663 1.54567 162.675 0.889812 161.587 0.34553C159.764 -0.559095 156.922 0.243007 156.209 2.42014C155.925 3.28858 155.334 3.81627 154.702 4.35603C143.779 13.6817 132.853 23.0044 121.926 32.324C109.319 43.0881 96.7143 53.8531 84.1108 64.6191C71.7301 75.1871 59.3468 85.7517 46.961 96.3127C36.1247 105.56 25.295 114.81 14.4718 124.062C11.3323 126.743 8.18723 129.418 5.03659 132.089C4.72675 132.366 4.38693 132.607 4.02338 132.81C2.9357 133.383 2.76709 133.88 3.4613 134.801C3.66638 135.074 3.98993 135.254 4.34845 135.555C3.54788 136.344 2.79291 137.104 2.01968 137.844C1.54572 138.296 1.00793 138.693 0.56131 139.171C-0.166351 139.952 -0.186066 141.036 0.581085 141.722C3.87451 144.673 7.18869 147.6 10.5237 150.503C10.9125 150.84 11.4518 151.033 11.9485 151.22C23.826 155.704 35.7054 160.181 47.5869 164.651C60.5874 169.542 73.5899 174.429 86.5945 179.31C103.523 185.665 120.453 192.019 137.384 198.372C146.299 201.72 155.22 205.047 164.106 208.474C165.625 209.058 166.954 209.273 168.359 208.355C169.284 207.752 170.319 207.894 171.33 208.053C171.984 208.143 172.63 208.285 173.261 208.477C174.455 208.862 175.266 208.515 176.055 207.526C178.546 204.393 181.135 201.344 183.684 198.249C199.31 179.32 214.943 160.384 230.58 141.44C247.011 121.531 263.437 101.617 279.857 81.6969C288.641 71.0485 297.438 60.4106 306.249 49.7833C307.172 48.6766 307.505 47.5926 307.084 46.3532C306.375 44.2666 306.335 42.1528 306.437 39.9998C306.51 38.4197 306.703 38.0397 304.711 37.4171C304.601 37.3626 304.498 37.2947 304.404 37.215ZM207.595 152.461C207.92 152.041 208.225 151.602 208.576 151.205C208.89 150.851 209.256 150.542 209.598 150.213L209.803 150.436L207.78 152.63C207.42 153.105 207.083 153.597 206.698 154.049C201.938 159.651 197.179 165.251 192.419 170.848C184.1 180.642 175.783 190.436 167.467 200.231C166.744 201.08 165.901 201.825 165.114 202.62C164.022 202.318 162.902 202.083 161.841 201.697C153.688 198.722 145.521 195.779 137.404 192.706C127.497 188.955 117.633 185.087 107.75 181.27C99.7095 178.166 91.6674 175.064 83.6232 171.965C77.5331 169.626 71.4004 167.394 65.3468 164.968C58.7341 162.317 52.1974 159.483 45.6136 156.761C41.4087 155.024 37.187 153.33 32.9609 151.644C27.7341 149.56 22.4998 147.494 17.2578 145.446C15.2541 144.66 13.2413 143.893 11.2133 143.172C8.45767 142.194 5.68225 141.268 2.82178 140.286C3.83197 139.252 4.74948 138.326 5.64578 137.389C6.13339 136.878 6.55722 136.861 7.20438 137.223C9.87344 138.694 12.5516 140.167 15.3043 141.478C18.6539 143.071 22.0491 144.586 25.4823 145.984C31.8018 148.547 38.1334 151.103 44.5258 153.491C49.5693 155.376 54.713 156.995 59.8051 158.754C67.2715 161.336 74.6635 164.155 82.2104 166.477C94.6975 170.32 106.955 174.787 119.16 179.393C131.708 184.131 144.394 188.468 157.068 192.845C160.293 193.959 163.53 195.037 166.767 196.112C168.286 196.616 168.853 196.414 169.889 195.226C172.203 192.564 174.526 189.911 176.857 187.265C184.513 178.554 192.172 169.845 199.832 161.14C202.395 158.227 204.997 155.353 207.595 152.461ZM303.95 39.561C302.948 40.7416 302.086 41.7834 301.196 42.7981C288.974 56.7263 276.75 70.6515 264.525 84.5736C255.257 95.1276 245.987 105.682 236.713 116.236C225.702 128.761 214.688 141.283 203.669 153.802C195.499 163.093 187.332 172.388 179.166 181.685C175.733 185.59 172.275 189.475 168.877 193.412C168.18 194.219 167.58 194.341 166.568 193.985C160.242 191.767 153.908 189.57 147.541 187.473C135.879 183.633 124.451 179.181 112.906 175.006C107.107 172.91 101.36 170.664 95.5208 168.686C87.19 165.863 78.7787 163.268 70.4312 160.49C65.8891 158.982 61.4138 157.263 56.8945 155.679C51.9239 153.936 46.9033 152.327 41.9662 150.497C32.4748 146.976 23.1778 142.981 13.9933 138.737C12.3101 137.96 10.6847 137.051 9.07745 136.125C8.07635 135.549 7.06766 134.945 6.11215 134.063L156.226 5.92707C156.654 6.84979 157.06 7.4981 156.954 8.4178C156.802 9.73704 157.756 10.607 159.155 10.6402C160.159 10.6658 161.04 10.1155 161.282 9.31489C161.547 8.42986 161.183 7.82527 160.043 7.27043C159.936 7.21766 159.82 7.18299 159.708 7.13926C158.918 6.82717 158.758 6.22107 158.786 5.36168C159.849 5.59688 160.782 5.7974 161.705 6.00698C162.173 6.11252 162.643 6.21353 163.097 6.36128C163.367 6.44873 163.767 6.56483 163.838 6.76384C164.273 7.98056 164.734 9.20331 164.984 10.4653C165.266 11.9021 166.63 12.8294 167.985 12.2866C168.625 12.0303 169.128 11.6066 169.161 10.8482C169.192 10.1547 168.775 9.75514 168.186 9.49129C167.912 9.36916 167.603 9.30282 167.361 9.13848C166.705 8.68617 166.273 8.11324 166.343 7.14529C167.505 7.39708 168.546 7.6157 169.585 7.8494C169.939 7.91496 170.285 8.01599 170.618 8.15094C170.866 8.26251 171.212 8.45247 171.256 8.66506C171.52 9.94209 172.433 10.9764 172.471 12.3589C172.512 13.6073 174.116 14.6703 175.358 14.4381C175.965 14.3235 176.5 14.0491 176.704 13.3932C176.895 12.7751 176.814 12.1871 176.336 11.7423C175.99 11.4189 175.589 11.1599 175.151 10.9779C174.24 10.6145 174.048 9.89535 173.854 8.9078C175.651 9.31338 177.276 9.66166 178.885 10.0612C179.201 10.1411 179.667 10.4125 179.708 10.6567C179.938 11.9896 181.009 13.06 180.834 14.5316C180.729 15.409 181.382 15.9729 182.163 16.2398C182.976 16.5172 183.822 16.573 184.531 15.9217C185.185 15.3186 185.337 14.3356 184.768 13.6601C184.442 13.2741 183.953 12.8701 183.48 12.7902C182.462 12.6183 182.309 11.9338 182.134 11.1724C182.295 11.1 182.414 10.9915 182.505 11.0111C183.965 11.3232 185.429 11.6217 186.874 12.0001C187.144 12.071 187.453 12.4373 187.532 12.7238C187.934 14.2029 189.078 15.3563 189.244 16.968C189.341 17.9103 190.737 18.5722 191.661 18.3988C192.475 18.2481 193.128 17.5907 193.204 16.8549C193.292 15.9955 192.647 15.1256 191.533 14.8693C190.395 14.6054 190.208 13.7611 189.792 12.6605C191.275 12.9907 192.479 13.3375 193.708 13.5154C195.262 13.74 196.343 14.3597 196.736 15.997C196.937 16.8293 197.496 17.4927 197.294 18.5149C197.091 19.51 198.328 20.3785 199.498 20.3588C200.231 20.3483 200.786 20.0422 201.073 19.3773C201.35 18.7381 201.322 18.0882 200.85 17.5304C200.658 17.3039 200.428 17.1116 200.171 16.962C199.39 16.5097 199.045 15.792 198.706 14.8783C200.458 14.9628 201.978 15.498 203.517 15.9036C203.85 15.991 204.204 16.4041 204.338 16.7479C204.847 18.0581 205.954 19.0803 206.009 20.6332C206.044 21.4972 207.265 22.1108 208.251 22.049C209.205 21.9872 210.052 21.268 210.153 20.4342C210.244 19.6713 209.65 18.7682 208.623 18.4938C207.683 18.2435 207.33 17.6872 207.036 16.6755C208.521 17.0404 209.79 17.3585 211.063 17.6585C211.566 17.7777 211.859 18.0475 212.105 18.524C212.546 19.3666 213.054 20.1733 213.624 20.9363C213.989 21.4354 214.329 21.8409 214.09 22.533C213.865 23.1858 214.242 23.706 214.798 24.0316C215.793 24.6211 216.837 24.6935 217.874 24.1115C218.588 23.7105 218.979 22.9853 218.81 22.3385C218.626 21.6314 218.127 21.2831 217.41 21.1323C215.928 20.8308 215.243 20.1463 214.754 18.5225C216.425 18.9009 218.051 19.2673 219.678 19.6382C220.182 19.7528 220.461 20.0513 220.667 20.5518C221.025 21.4293 221.522 22.2495 221.93 23.1149C222.118 23.475 222.25 23.8606 222.324 24.2593C222.517 25.6057 222.901 26.0565 224.147 26.2721C225.107 26.4379 226.088 25.9223 226.339 25.1202C226.564 24.3965 226.132 23.4361 225.196 23.1511C223.873 22.7456 223.446 21.7625 222.883 20.4192C225.358 21.0132 227.56 21.5394 229.761 22.0776C229.929 22.1183 230.199 22.2043 230.217 22.3083C230.494 23.7165 231.957 24.7387 231.469 26.4244C231.246 27.1993 231.853 27.8883 232.672 28.1733C233.558 28.4748 234.539 28.2773 234.977 27.6682C235.358 27.139 235.447 26.554 235.066 26.0097C234.835 25.6765 234.498 25.4067 234.2 25.1277C233.527 24.5143 233.073 23.6997 232.907 22.8074C235.303 23.3667 237.556 23.8839 239.801 24.4297C240.005 24.4794 240.31 24.7131 240.315 24.8684C240.34 25.7564 241.006 26.6038 240.181 27.5551C239.446 28.4025 239.856 29.3945 240.91 29.8288C241.248 29.9492 241.603 30.0208 241.961 30.0413C242.795 30.1243 243.531 29.9418 243.927 29.1186C244.302 28.3391 243.953 27.7255 243.374 27.2219C242.795 26.7184 242.51 26.1213 242.767 25.2348C244.852 25.4624 246.841 26.0972 248.861 26.5646C249.021 26.6023 249.255 26.7365 249.282 26.8661C249.455 27.6908 250.005 28.4251 249.434 29.39C248.545 30.8796 249.347 32.0737 251.105 32.122C251.887 32.1446 252.522 31.9184 252.913 31.2023C253.289 30.5103 253.039 29.9358 252.534 29.4322C251.968 28.8683 251.57 28.2577 251.775 27.2596C253.403 27.6335 254.965 27.9773 256.524 28.3542C258.287 28.7809 258.564 29.1081 258.6 30.8525C258.608 31.1887 258.463 31.537 258.342 31.8642C258.094 32.5321 258.375 33.0341 258.849 33.4473C259.144 33.7116 259.503 33.896 259.891 33.9823C260.278 34.0687 260.682 34.0542 261.063 33.9403C261.312 33.8851 261.543 33.7687 261.736 33.602C261.928 33.4352 262.075 33.2232 262.164 32.9855C262.253 32.7477 262.28 32.4917 262.243 32.2408C262.207 31.9899 262.107 31.7521 261.954 31.5491C261.713 31.2204 261.31 31.0123 261.043 30.6957C260.739 30.3248 260.522 29.8921 260.952 29.3885C262.471 29.7308 263.99 30.0609 265.498 30.4168C267.422 30.8691 267.507 30.943 267.733 32.8005C267.779 33.1774 267.581 33.583 267.501 33.9765C267.318 34.9082 267.704 35.6349 268.564 35.9923C269.398 36.3421 270.369 36.143 270.87 35.5294C271.396 34.8811 271.326 34.0217 270.65 33.2678C270.452 33.0462 270.145 32.906 269.993 32.6648C269.796 32.3481 269.703 31.9667 269.474 31.3772C271.693 31.9004 273.659 32.3512 275.617 32.8397C275.875 32.9045 276.243 33.1171 276.292 33.3236C276.474 34.0956 277.018 34.7635 276.637 35.7028C276.207 36.7582 276.608 37.3613 277.647 37.8136C278.686 38.2659 279.774 38.0699 280.275 37.3733C280.776 36.6768 280.554 35.843 279.667 35.0515C279.535 34.9339 279.31 34.8871 279.231 34.7499C279.042 34.3718 278.874 33.9838 278.727 33.5875C280.55 33.9961 282.121 34.3187 283.676 34.7168C284.167 34.8404 284.879 35.0665 285.01 35.4209C285.302 36.2079 285.911 36.912 285.643 37.9191C285.242 39.4268 286.228 40.4491 287.802 40.2862C288.548 40.2093 289.235 39.941 289.5 39.1705C289.766 38.4001 289.446 37.7789 288.759 37.3462C288.202 36.9949 287.74 36.5923 287.811 35.7103C289.962 36.2018 291.995 36.6542 294.017 37.1427C295.46 37.4909 295.796 38.3744 295.057 39.7721C294.579 40.6767 294.665 41.3944 295.513 41.9251C296.074 42.2523 296.702 42.4487 297.351 42.4995C298.375 42.59 299.081 42.094 299.326 41.3084C299.561 40.5802 299.326 40.1023 298.361 39.457C297.927 39.1554 297.386 38.9459 297.667 38.0805C299.788 38.4577 301.885 38.952 303.95 39.561ZM304.075 42.8976C304.45 43.4449 304.682 43.8173 304.154 44.3631C301.916 46.691 299.735 49.0581 297.543 51.4297C297.262 51.7394 297.025 52.0859 296.839 52.4595C296.601 52.9314 296.646 53.4726 297.125 53.7154C297.308 53.7917 297.505 53.8286 297.704 53.8237C297.902 53.8187 298.097 53.7721 298.276 53.6867C298.732 53.4319 299.092 52.9947 299.451 52.5982C300.818 51.0905 302.153 49.5601 303.511 48.0479C303.87 47.6471 304.25 47.2661 304.65 46.9066C304.719 46.8685 304.796 46.8485 304.874 46.8485C304.952 46.8485 305.029 46.8685 305.097 46.9066C305.151 46.9694 305.189 47.0446 305.206 47.1253C305.224 47.2061 305.222 47.2899 305.199 47.3694C305.027 47.6806 304.823 47.9736 304.591 48.2439C303.68 49.3491 302.742 50.4376 301.829 51.5443C289.627 66.3419 277.423 81.1416 265.219 95.9433C251.531 112.537 237.84 129.129 224.145 145.72C209.579 163.372 195.011 181.024 180.441 198.674C178.466 201.07 176.479 203.461 174.516 205.866C174.05 206.436 173.612 206.63 173.044 205.903C173.287 205.602 173.536 205.27 173.804 204.955C176.201 202.054 178.598 199.152 180.995 196.25C181.299 195.885 181.613 195.484 181.738 195.043C181.832 194.707 181.759 194.149 181.53 193.946C181.3 193.742 180.673 193.679 180.415 193.848C179.88 194.196 179.438 194.71 179.02 195.205C176.334 198.409 173.667 201.629 170.987 204.84C170.808 205.078 170.591 205.285 170.345 205.453C170.182 205.549 169.928 205.493 169.451 205.522L170.768 203.802C171.241 203.187 171.739 202.588 172.18 201.95C172.534 201.438 172.745 200.835 172.233 200.317C171.777 199.855 171.247 200.072 170.758 200.372C170.674 200.421 170.533 200.372 170.287 200.372L304.075 42.8976ZM163.952 206.045C163.512 205.926 163.22 205.87 162.946 205.768C114.988 187.739 67.0309 169.707 19.0747 151.674C18.9676 151.624 18.8658 151.562 18.7709 151.492C18.7209 151.462 18.6762 151.423 18.6387 151.379C18.6205 151.337 18.6102 151.293 18.6083 151.248C19.2266 151.121 20.1062 151.248 20.1821 150.396C20.2581 149.544 19.4925 149.212 18.7967 148.974C15.2344 147.754 11.6721 146.53 8.09308 145.355C7.38062 145.122 6.84891 144.788 6.3248 143.905C9.36304 144.871 12.1445 145.696 14.8531 146.791C20.2353 148.968 25.6388 151.088 31.0271 153.26C38.9113 156.44 46.8045 159.593 54.6568 162.852C62.6185 166.154 70.5132 169.617 78.6177 172.577C84.7478 174.816 90.8622 177.095 96.9609 179.413C102.671 181.577 108.398 183.705 114.045 186.023C122.631 189.546 131.306 192.835 140.035 195.99C147.69 198.758 155.311 201.62 162.965 204.397C163.746 204.685 163.946 205.145 163.952 206.045ZM301.916 36.5471C301.764 36.5908 301.579 36.6979 301.431 36.6692C300.503 36.4793 299.58 36.2697 298.662 36.0405C298.235 35.9335 297.511 36.0646 297.556 35.4465C297.59 35.0077 298.059 34.5675 298.411 34.2011C298.594 34.0111 298.939 33.9342 299.223 33.889C300.825 33.6387 301.737 34.5434 301.916 36.5471ZM202.692 13.5018C201.214 13.1264 199.852 12.7796 198.488 12.4358C197.945 12.2986 197.913 11.8961 197.986 11.4619C198.093 10.8271 198.532 10.5964 199.138 10.5768C200.637 10.5271 202.003 11.5915 202.695 13.5018H202.692ZM291.364 34.1091C289.541 34.0172 288.514 33.7609 287.182 33.099C287.264 32.8366 287.295 32.5261 287.448 32.2954C288.334 30.9746 289.619 31.0711 290.283 32.2607C290.596 32.8185 290.928 33.3658 291.364 34.1091ZM269.82 29.2664C270.428 27.8522 270.91 27.4571 271.712 27.5793C272.956 27.7768 273.898 28.7764 274.159 30.3007L269.82 29.2664ZM232.44 20.5051C233.021 19.2597 233.53 18.8119 234.31 18.9808C235.525 19.2446 236.476 19.8854 236.847 21.2635C235.276 21.461 233.983 20.7267 232.44 20.5006V20.5051ZM210.492 15.2764C209.124 14.9839 207.92 14.7472 206.727 14.4622C206.069 14.3114 205.943 13.7732 206.394 13.2741C206.976 12.6318 207.971 12.5444 208.825 13.0887C209.585 13.5711 210.072 14.2722 210.492 15.2718V15.2764ZM260.709 26.9777C261.307 25.2182 261.979 24.98 263.202 26.0731C263.672 26.4937 264.153 26.9475 264.156 27.7527C262.961 27.7669 261.78 27.5014 260.709 26.9777ZM162.716 4.08766L158.388 3.02021C159.358 2.099 159.539 1.97536 160.18 2.06583C161.367 2.23167 162.231 2.89356 162.716 4.08766ZM193.927 11.3955C192.823 11.1603 192.138 11.0231 191.457 10.8693C190.878 10.7523 190.305 10.6048 189.742 10.4276C189.644 10.3794 189.56 10.3078 189.498 10.2194C189.435 10.131 189.395 10.0284 189.382 9.92098C189.397 9.74307 189.619 9.53049 189.804 9.43399C190.014 9.32531 190.253 9.28721 190.486 9.32544C191.715 9.57723 192.856 10.0024 193.927 11.394V11.3955ZM278.415 31.2626C278.461 30.4424 278.719 29.8182 279.415 29.6509C280.111 29.4835 280.62 30.0413 280.992 30.566C281.247 30.9234 281.367 31.3742 281.669 32.0587L278.415 31.2626ZM246.271 23.6879C245.071 23.4316 244.047 23.2356 243.035 22.9838C242.675 22.8948 242.633 22.4184 242.914 22.1153C243.388 21.6057 244.169 21.4926 244.861 21.8937C245.481 22.248 245.972 22.738 246.271 23.6879ZM185.733 9.48827C184.636 9.24252 183.536 9.00581 182.444 8.73442C182.212 8.68674 182 8.56938 181.837 8.3982C181.716 8.21205 181.671 7.98716 181.712 7.76949C181.748 7.69364 181.804 7.62817 181.872 7.57915C181.941 7.53012 182.021 7.49913 182.105 7.48905C182.459 7.474 182.813 7.52096 183.151 7.62776C184.158 8.0077 185.06 8.55349 185.733 9.48375V9.48827ZM222.509 17.9224C223.117 17.0992 223.234 17.0178 223.901 17.1278C224.855 17.2861 225.652 17.6631 225.982 18.8451C224.686 18.6732 223.53 18.5813 222.509 17.9179V17.9224ZM214.074 15.893C216.178 15.4633 217.393 15.8176 218.31 17.0524C216.837 16.9337 215.399 16.5387 214.074 15.8885V15.893ZM254.865 25.4851C253.801 25.7866 252.969 25.1835 252.073 25.0765C251.95 25.0629 251.732 24.6618 251.787 24.5578C251.904 24.3302 252.209 23.9939 252.369 24.0271C253.317 24.2216 254.307 24.4085 254.865 25.4851ZM173.946 6.50753C175.651 6.04467 176.808 6.47738 178.016 7.61721C176.579 7.30963 175.324 7.22671 173.946 6.50753ZM169.305 5.4642C168.421 5.47475 167.586 5.32097 166.512 4.71035C167.811 4.52037 168.558 5.00736 169.298 5.4642H169.305ZM210.543 149.49L210.294 149.294L211.357 148.158L211.54 148.323L210.543 149.49ZM169.125 201.78C169.199 201.854 169.277 201.931 169.346 202.004L168.344 203.099L168.171 202.948C168.49 202.559 168.808 202.17 169.125 201.78ZM212.709 146.916L212.504 146.756L213.15 146.085L213.312 146.221C213.111 146.451 212.91 146.683 212.709 146.916ZM273.357 145.986C272.988 145.404 272.821 145.168 272.681 144.917C271.652 143.079 271.046 142.908 269.09 143.873C265.899 145.446 262.987 147.424 260.197 149.595C258.356 151.027 256.551 152.503 254.728 153.967C252.334 155.879 250.219 158.07 248.247 160.402C244.239 165.147 240.145 169.833 236.901 175.152C235.941 176.726 235.145 178.398 234.297 180.037C233.094 182.362 233.044 184.838 233.386 187.354C233.448 187.826 233.527 188.296 233.615 188.764C233.767 189.598 233.529 190.252 232.856 190.807C231.238 192.146 230.708 193.914 230.987 195.933C231.09 196.574 230.968 197.23 230.642 197.792C229.253 200.345 229.778 203.165 231.982 205.055C233.536 206.386 235.324 207.114 237.428 206.974C238.294 206.915 239.099 206.727 239.75 206.148C240.133 205.773 240.643 205.554 241.181 205.534C243.199 205.457 244.674 204.649 245.992 202.954C249.098 198.948 252.481 195.153 255.776 191.291C261.434 184.657 267.102 178.028 272.778 171.406C277.278 166.129 281.786 160.874 286.246 155.575C288.015 153.473 289.604 151.223 291.376 149.126C294.074 145.933 296.784 142.743 299.627 139.677C304.928 133.96 309.436 127.655 313.871 121.283C318.751 114.272 323.272 107.045 327.543 99.6598C328.759 97.549 329.725 95.2874 330.734 93.0696C331.27 91.88 331.016 91.2076 330.004 90.4251C328.462 89.2325 326.592 89.1601 325.023 90.3482C323.879 91.2136 322.811 92.18 321.742 93.1344C318.663 95.8799 315.652 98.7129 312.516 101.386C306.855 106.229 301.911 111.711 297.28 117.519C293.938 121.716 290.292 125.686 286.824 129.788C284.51 132.525 282.28 135.331 279.988 138.081C278.036 140.419 276.038 142.721 274.063 145.045C273.864 145.26 273.705 145.511 273.357 145.986ZM246.605 198.884C245.701 197.527 245.013 196.182 244.023 195.114C242.969 193.975 241.754 192.994 240.416 192.201C239.191 191.484 237.741 191.146 236.286 190.593C237.208 189.744 238.101 189.034 238.868 188.204C243.638 183.015 248.465 177.874 253.109 172.574C259.8 164.934 266.361 157.182 272.96 149.464C277.695 143.925 282.437 138.39 287.088 132.783C287.867 131.845 288.642 131.604 289.708 131.772C290.064 131.823 290.415 131.907 290.755 132.021C293.929 133.146 296.332 135.196 298.171 138.078C297.479 138.868 296.804 139.619 296.146 140.386C293.581 143.379 290.981 146.35 288.466 149.381C283.842 154.935 279.283 160.538 274.651 166.092C272.202 169.026 269.638 171.874 267.162 174.781C261.338 181.593 255.521 188.412 249.713 195.238C248.662 196.458 247.625 197.677 246.605 198.884ZM290.011 129.737C290.55 129.051 290.901 128.587 291.27 128.137C295.068 123.531 298.823 118.892 302.685 114.34C304.601 112.054 306.639 109.871 308.788 107.8C312.161 104.587 315.682 101.528 319.144 98.4099C321.365 96.4107 323.589 94.416 325.816 92.4258C326.904 91.4518 327.297 91.4307 328.753 92.3609C327.745 94.4205 326.851 96.569 325.69 98.5652C321.411 105.938 316.931 113.19 312.027 120.178C308.392 125.354 304.839 130.581 300.643 135.347C300.339 135.685 300.023 135.999 299.631 136.403C297.135 133.202 294.188 130.854 290.011 129.737ZM270.486 145.621C271.923 147.843 271.686 147.614 270.384 149.167C268.043 151.956 265.705 154.745 263.322 157.5C258.005 163.638 252.672 169.762 247.322 175.871C246.912 176.34 246.532 176.879 245.812 177.168C244.433 174.67 243.854 171.814 244.15 168.981C244.185 168.603 244.431 168.199 244.687 167.894C247.025 165.105 249.28 162.234 251.767 159.581C255.788 155.29 260.543 151.834 265.345 148.466C266.946 147.343 268.622 146.286 270.486 145.621ZM236.746 205.065C235.277 204.955 233.743 204.299 232.763 202.819C231.985 201.643 231.669 200.304 232.497 198.951C232.818 198.43 233.283 198.125 233.849 198.407C235.282 199.122 236.802 199.693 237.878 200.993C238.486 201.73 238.803 202.528 238.771 203.444C238.73 204.471 238.068 205.052 236.746 205.065ZM241.884 171.519C242.046 172.013 242.176 172.272 242.215 172.547C242.472 174.493 243.093 176.373 244.047 178.092C244.523 178.934 244.362 179.52 243.535 179.99C243.165 180.18 242.764 180.302 242.35 180.351C241.407 180.502 240.456 180.595 239.505 180.698C237.986 180.86 237.425 180.82 236.187 180.417C237.117 179.975 237.899 179.874 238.703 179.746C239.644 179.621 240.567 179.39 241.456 179.057C242.823 178.505 242.975 177.842 242.262 176.548C241.665 175.47 241.077 174.388 240.494 173.322L241.884 171.519ZM233.018 194.829C233.441 193.065 233.509 192.964 234.887 192.984C238.941 193.04 241.723 195.179 243.73 198.467C244.346 199.478 244.287 200.648 244.128 201.771C244.029 202.46 243.549 202.814 242.609 202.882C243.531 201.006 243.064 199.456 242.116 198.009C240.933 196.198 239.194 194.813 237.156 194.059C235.99 193.607 234.844 193.388 233.869 194.501C233.737 194.662 233.444 194.673 233.018 194.829ZM235.519 183.036C237.412 182.851 239.095 182.443 240.878 182.662C239.99 184.06 236.997 187.06 235.818 187.74C235.262 186.229 235.447 184.711 235.519 183.036ZM234.957 196.043C236.61 195.966 237.889 196.743 239.008 197.789C240.026 198.739 240.959 199.782 240.804 201.346C239.532 198.832 237.202 197.51 234.957 196.043ZM237.883 177.426C238.328 176.714 238.689 176.137 239.165 175.372C239.558 176.055 239.839 176.541 240.119 177.031C239.453 177.663 238.782 177.569 237.883 177.426ZM41.9586 95.5241C42.7379 95.5935 42.9414 96.278 42.6361 96.9248C42.4933 97.2263 42.1804 97.4645 41.9206 97.7118C40.0718 99.4969 38.2413 101.302 36.3591 103.052C34.3463 104.923 32.2925 106.751 30.2341 108.575C29.8211 108.914 29.373 109.21 28.8973 109.455C28.3914 109.739 27.9493 109.526 27.6364 109.121C27.3235 108.715 27.4526 108.319 27.7686 107.985C28.0557 107.684 28.3762 107.417 28.6907 107.138C30.4665 105.537 32.2636 103.96 34.0075 102.328C36.0614 100.412 38.059 98.4355 40.1114 96.5177C40.5002 96.1528 41.1124 95.6131 41.7064 95.5317C41.7899 95.5192 41.8745 95.5167 41.9586 95.5241ZM278.437 87.3915C278.618 87.0167 278.825 86.6545 279.056 86.3075C281.56 82.0362 284.706 78.2036 287.597 74.1961C287.765 73.9499 287.965 73.7272 288.192 73.5342C288.584 73.2236 289.022 73.0442 289.5 73.3834C289.702 73.5202 289.847 73.7244 289.909 73.9586C289.971 74.1928 289.946 74.4414 289.839 74.659C289.609 75.1415 289.325 75.5968 288.991 76.0159C286.269 79.7746 283.327 83.3931 280.975 87.4111C280.811 87.7281 280.597 88.0168 280.34 88.266C280.082 88.4861 279.732 88.5932 279.538 88.6882C278.645 88.7349 278.154 88.0881 278.437 87.3915ZM314.918 97.4932C315.271 97.9455 314.93 98.3978 314.614 98.7521C314.38 99.0145 314.058 99.1954 313.788 99.4276C311.218 101.639 308.648 103.85 306.08 106.061C305.908 106.224 305.723 106.372 305.525 106.503C305.086 106.769 304.644 106.841 304.211 106.458C303.778 106.075 303.769 105.612 304.026 105.173C304.257 104.758 304.555 104.383 304.909 104.064C307.49 101.867 310.086 99.6874 312.697 97.5264C313.075 97.2128 313.481 96.9926 313.876 96.9685C314.242 96.9353 314.601 97.0846 314.918 97.4887V97.4932ZM162.237 189.174C159.661 188.317 157.087 187.449 154.515 186.572C154.074 186.393 153.683 186.112 153.375 185.751C153.223 185.584 153.223 185.184 153.291 184.936C153.337 184.785 153.686 184.634 153.879 184.649C154.472 184.709 155.059 184.826 155.629 184.999C159.39 186.205 163.144 187.434 166.899 188.657C167.223 188.762 167.83 189.001 167.912 189.391C168.081 190.199 167.457 190.419 166.577 190.363C165.011 190.259 162.606 189.291 162.237 189.169V189.174ZM203.121 167.443C202.916 168.22 202.389 168.986 201.893 169.611C196.56 176.346 191.199 183.058 185.809 189.747C185.627 189.985 185.424 190.206 185.201 190.407C184.825 190.731 184.316 191.033 183.927 190.638C183.783 190.464 183.678 190.261 183.618 190.044C183.559 189.827 183.546 189.6 183.581 189.377C183.684 188.887 184.036 188.419 184.364 188.01C185.751 186.293 187.199 184.624 188.574 182.896C192.328 178.183 196.048 173.444 199.8 168.723C200.366 168.033 200.977 167.382 201.631 166.772C201.998 166.42 202.383 166.27 202.676 166.309C203.074 166.364 203.305 166.75 203.121 167.439V167.443ZM284.483 149.562C286.642 146.854 288.827 144.166 291.039 141.499C291.358 141.15 291.754 140.88 292.197 140.712C292.75 140.485 293.228 140.846 293.108 141.405C292.989 141.915 292.76 142.393 292.437 142.806C290.285 145.52 288.11 148.216 285.912 150.895C285.614 151.261 285.249 151.568 284.835 151.799C284.326 152.074 284.062 151.73 283.933 151.272C283.902 151.158 283.886 151.041 283.884 150.923C283.875 150.42 284.164 149.963 284.483 149.562Z" fill="#015467"/>
</g>
<defs>
<clipPath id="clip0_1752_96088">
<rect width="331" height="209" fill="white" transform="matrix(-1 0 0 1 331 0)"/>
</clipPath>
</defs>
</svg>
