<svg width="136" height="136" viewBox="0 0 136 136" fill="none" xmlns="http://www.w3.org/2000/svg">
<path d="M107.894 31.7341C106.892 31.7341 106.08 30.9222 106.08 29.9208C106.08 28.9193 106.892 28.1074 107.894 28.1074C108.895 28.1074 109.707 28.9193 109.707 29.9208C109.707 30.9222 108.895 31.7341 107.894 31.7341Z" fill="#44D0F7"/>
<path d="M91.7928 42.8326C91.4387 43.1867 90.9745 43.3639 90.5108 43.3639C90.047 43.3639 89.5828 43.1867 89.2287 42.8326L87.9467 41.5506L86.6647 42.8326C86.3106 43.1867 85.8464 43.3639 85.3827 43.3639C84.9189 43.3639 84.4547 43.1867 84.1006 42.8326C83.3925 42.1245 83.3925 40.9767 84.1006 40.2686L85.3827 38.9865L84.1006 37.7045C83.3925 36.9964 83.3925 35.8486 84.1006 35.1405C84.8087 34.4323 85.9566 34.4323 86.6647 35.1405L87.9467 36.4225L89.2287 35.1405C89.9369 34.4323 91.0847 34.4323 91.7928 35.1405C92.5009 35.8486 92.5009 36.9964 91.7928 37.7045L90.5108 38.9865L91.7928 40.2686C92.5014 40.9771 92.5014 42.1245 91.7928 42.8326Z" fill="#44D0F7"/>
<path d="M80.6948 28.1066C77.695 28.1066 75.2548 25.6663 75.2548 22.6666C75.2548 19.6669 77.695 17.2266 80.6948 17.2266C83.6945 17.2266 86.1348 19.6669 86.1348 22.6666C86.1348 25.6663 83.6945 28.1066 80.6948 28.1066ZM80.6948 20.8532C79.6943 20.8532 78.8814 21.667 78.8814 22.6666C78.8814 23.6662 79.6943 24.4799 80.6948 24.4799C81.6953 24.4799 82.5081 23.6662 82.5081 22.6666C82.5081 21.667 81.6953 20.8532 80.6948 20.8532Z" fill="#44D0F7"/>
<path d="M93.3876 51.6797C102.142 51.6797 116.961 53.207 116.961 58.933V111.52C116.961 117.246 102.142 118.773 93.3876 118.773C84.6328 118.773 69.8143 117.246 69.8143 111.52V58.933C69.8143 53.207 84.6328 51.6797 93.3876 51.6797ZM93.3876 55.3064C81.4341 55.3064 74.2529 57.6533 73.479 58.885C74.3598 60.2463 81.5193 62.5597 93.3876 62.5597C105.119 62.5597 112.246 60.2998 113.26 58.933C112.246 57.5662 105.119 55.3064 93.3876 55.3064ZM113.347 81.2375C108.402 83.5857 99.4464 84.3197 93.3876 84.3197C87.3306 84.3197 78.3777 83.5862 73.4314 81.2393L73.4278 89.6423C74.1078 90.9932 81.3208 93.3864 93.3876 93.3864C105.44 93.3864 112.648 90.9991 113.344 89.6477L113.347 81.2375ZM93.3876 80.693C105.461 80.693 112.676 78.2971 113.349 76.9467L113.355 63.0996C108.412 65.451 99.4496 66.1864 93.3876 66.1864C87.3338 66.1864 78.3873 65.4538 73.4391 63.11L73.4332 76.9562C74.1354 78.3085 81.3421 80.693 93.3876 80.693ZM113.349 76.9807C113.343 77.0042 113.334 77.0215 113.334 77.0664H113.349V76.9807ZM113.344 89.7057C113.34 89.7261 113.334 89.7316 113.334 89.7597H113.344V89.7057ZM93.3876 115.146C105.491 115.146 112.715 112.738 113.334 111.52L113.342 93.9335C108.395 96.2795 99.4437 97.013 93.3876 97.013C87.3279 97.013 78.3709 96.2786 73.4255 93.9294L73.4178 111.39C74.0606 112.738 81.2841 115.146 93.3876 115.146Z" fill="#44D0F7"/>
<path d="M87.9484 60.7458H80.6951C79.6927 60.7458 78.8817 59.9339 78.8817 58.9325C78.8817 57.9311 79.6927 57.1191 80.6951 57.1191H87.9484C88.9507 57.1191 89.7617 57.9311 89.7617 58.9325C89.7617 59.9339 88.9507 60.7458 87.9484 60.7458Z" fill="#44D0F7"/>
<path d="M42.6142 24.4805C51.3689 24.4805 66.1875 26.0077 66.1875 31.7338V111.52C66.1875 117.246 51.3689 118.774 42.6142 118.774C33.8594 118.774 19.0409 117.246 19.0409 111.52V31.7338C19.0409 26.0077 33.8594 24.4805 42.6142 24.4805ZM62.5767 55.8502C57.6317 58.1994 48.6739 58.9338 42.6142 58.9338C36.5581 58.9338 27.6075 58.2003 22.6607 55.8548L22.6503 91.4514C23.3158 92.8014 30.5329 95.2005 42.6142 95.2005C54.6515 95.2005 61.8559 92.8191 62.5667 91.4668L62.5767 55.8502ZM42.6142 55.3071C54.696 55.3071 61.913 52.9076 62.5781 51.5581L62.5826 35.9004C57.639 38.2518 48.6766 38.9871 42.6142 38.9871C36.5608 38.9871 27.6147 38.2545 22.6662 35.9113L22.6616 51.5735C23.3729 52.9262 30.5768 55.3071 42.6142 55.3071ZM42.6142 28.1071C30.6607 28.1071 23.4794 30.454 22.7056 31.6857C23.5864 33.0471 30.7459 35.3605 42.6142 35.3605C54.3455 35.3605 61.4728 33.1006 62.4869 31.7338C61.4728 30.367 54.3455 28.1071 42.6142 28.1071ZM62.5781 51.5825C62.5704 51.6052 62.5608 51.6292 62.5608 51.6805H62.5781V51.5825ZM62.5667 91.5411C62.5649 91.5556 62.5608 91.5566 62.5608 91.5738H62.5667V91.5411ZM42.6142 115.147C54.7177 115.147 61.9411 112.739 62.5608 111.52L62.5654 95.7494C57.6177 98.0941 48.6689 98.8271 42.6142 98.8271C36.5531 98.8271 27.5934 98.0923 22.6489 95.7422L22.6444 111.39C23.2872 112.739 30.5106 115.147 42.6142 115.147Z" fill="#44D0F7"/>
<path d="M37.1749 33.5466H29.9216C28.9193 33.5466 28.1083 32.7347 28.1083 31.7333C28.1083 30.7318 28.9193 29.9199 29.9216 29.9199H37.1749C38.1773 29.9199 38.9883 30.7318 38.9883 31.7333C38.9883 32.7347 38.1773 33.5466 37.1749 33.5466Z" fill="#44D0F7"/>
<path d="M42.6243 87.9748C37.6254 87.9748 33.5576 83.907 33.5576 78.9081C33.5576 74.4695 39.9505 66.5874 41.2326 65.0524C41.923 64.2273 43.3256 64.2273 44.0165 65.0524C45.2985 66.5878 51.6914 74.4695 51.6914 78.9081C51.691 83.907 47.6232 87.9748 42.6243 87.9748ZM42.6243 69.1215C40.0299 72.5084 37.1843 76.9619 37.1843 78.9081C37.1843 81.9078 39.6246 84.3481 42.6243 84.3481C45.624 84.3481 48.0643 81.9078 48.0643 78.9081C48.0643 76.9619 45.2183 72.5079 42.6243 69.1215Z" fill="#44D0F7"/>
</svg>
