<svg width="80" height="80" viewBox="0 0 80 80" fill="none" xmlns="http://www.w3.org/2000/svg">
<path d="M16.5335 18.6665C17.1226 18.6665 17.6001 18.189 17.6001 17.5999C17.6001 17.0108 17.1226 16.5332 16.5335 16.5332C15.9444 16.5332 15.4668 17.0108 15.4668 17.5999C15.4668 18.189 15.9444 18.6665 16.5335 18.6665Z" fill="#015467"/>
<path d="M26.004 25.1946C26.2123 25.4029 26.4853 25.5071 26.7581 25.5071C27.0309 25.5071 27.304 25.4029 27.5123 25.1946L28.2664 24.4405L29.0205 25.1946C29.2288 25.4029 29.5019 25.5071 29.7747 25.5071C30.0475 25.5071 30.3205 25.4029 30.5288 25.1946C30.9453 24.7781 30.9453 24.1029 30.5288 23.6863L29.7747 22.9322L30.5288 22.1781C30.9453 21.7616 30.9453 21.0864 30.5288 20.6698C30.1123 20.2533 29.4371 20.2533 29.0205 20.6698L28.2664 21.424L27.5123 20.6698C27.0957 20.2533 26.4205 20.2533 26.004 20.6698C25.5875 21.0864 25.5875 21.7616 26.004 22.1781L26.7581 22.9322L26.004 23.6863C25.5872 24.1031 25.5872 24.7781 26.004 25.1946Z" fill="#015467"/>
<path d="M32.532 16.5328C34.2966 16.5328 35.732 15.0973 35.732 13.3328C35.732 11.5683 34.2966 10.1328 32.532 10.1328C30.7675 10.1328 29.332 11.5683 29.332 13.3328C29.332 15.0973 30.7675 16.5328 32.532 16.5328ZM32.532 12.2661C33.1206 12.2661 33.5987 12.7448 33.5987 13.3328C33.5987 13.9208 33.1206 14.3995 32.532 14.3995C31.9435 14.3995 31.4654 13.9208 31.4654 13.3328C31.4654 12.7448 31.9435 12.2661 32.532 12.2661Z" fill="#015467"/>
<path d="M25.0659 30.4004C19.916 30.4004 11.1992 31.2988 11.1992 34.6671V65.6004C11.1992 68.9687 19.916 69.8671 25.0659 69.8671C30.2158 69.8671 38.9326 68.9687 38.9326 65.6004V34.6671C38.9326 31.2988 30.2158 30.4004 25.0659 30.4004ZM25.0659 32.5337C32.0974 32.5337 36.3216 33.9143 36.7768 34.6388C36.2587 35.4396 32.0472 36.8004 25.0659 36.8004C18.1651 36.8004 13.9726 35.4711 13.376 34.6671C13.9726 33.8631 18.1651 32.5337 25.0659 32.5337ZM13.3248 47.7873C16.2339 49.1687 21.5019 49.6004 25.0659 49.6004C28.6288 49.6004 33.8952 49.1689 36.8048 47.7884L36.807 52.7313C36.407 53.526 32.164 54.9337 25.0659 54.9337C17.9763 54.9337 13.736 53.5295 13.327 52.7345L13.3248 47.7873ZM25.0659 47.4671C17.9638 47.4671 13.72 46.0577 13.3238 45.2633L13.3203 37.118C16.2283 38.5012 21.5 38.9337 25.0659 38.9337C28.627 38.9337 33.8896 38.5028 36.8003 37.1241L36.8038 45.2689C36.3907 46.0644 32.1515 47.4671 25.0659 47.4671ZM13.3238 45.2833C13.3275 45.2972 13.3326 45.3073 13.3326 45.3337H13.3238V45.2833ZM13.327 52.7687C13.3291 52.7807 13.3326 52.7839 13.3326 52.8004H13.327V52.7687ZM25.0659 67.7337C17.9462 67.7337 13.6971 66.3172 13.3326 65.6004L13.328 55.2556C16.2379 56.6356 21.5035 57.0671 25.0659 57.0671C28.6304 57.0671 33.8992 56.6351 36.8083 55.2532L36.8128 65.5239C36.4347 66.3172 32.1856 67.7337 25.0659 67.7337Z" fill="#015467"/>
<path d="M28.2659 35.7329H32.5325C33.1221 35.7329 33.5992 35.2553 33.5992 34.6663C33.5992 34.0772 33.1221 33.5996 32.5325 33.5996H28.2659C27.6763 33.5996 27.1992 34.0772 27.1992 34.6663C27.1992 35.2553 27.6763 35.7329 28.2659 35.7329Z" fill="#015467"/>
<path d="M54.9331 14.4004C49.7832 14.4004 41.0664 15.2988 41.0664 18.6671V65.6004C41.0664 68.9686 49.7832 69.867 54.9331 69.867C60.0829 69.867 68.7997 68.9686 68.7997 65.6004V18.6671C68.7997 15.2988 60.0829 14.4004 54.9331 14.4004ZM43.1904 32.8532C46.0992 34.2351 51.3685 34.6671 54.9331 34.6671C58.4955 34.6671 63.7605 34.2356 66.6704 32.8559L66.6765 53.795C66.2851 54.5892 62.0397 56.0004 54.9331 56.0004C47.8523 56.0004 43.6144 54.5996 43.1963 53.8041L43.1904 32.8532ZM54.9331 32.5337C47.8261 32.5337 43.5808 31.1223 43.1896 30.3284L43.1869 21.118C46.0949 22.5012 51.3669 22.9337 54.9331 22.9337C58.4939 22.9337 63.7563 22.5028 66.6672 21.1244L66.6699 30.3375C66.2515 31.1332 62.0139 32.5337 54.9331 32.5337ZM54.9331 16.5337C61.9645 16.5337 66.1888 17.9143 66.644 18.6388C66.1259 19.4396 61.9144 20.8004 54.9331 20.8004C48.0323 20.8004 43.8397 19.4711 43.2432 18.6671C43.8397 17.8631 48.0323 16.5337 54.9331 16.5337ZM43.1896 30.3428C43.1941 30.3561 43.1997 30.3703 43.1997 30.4004H43.1896V30.3428ZM43.1963 53.8478C43.1973 53.8564 43.1997 53.8569 43.1997 53.867H43.1963V53.8478ZM54.9331 67.7337C47.8133 67.7337 43.5643 66.3172 43.1997 65.6004L43.1971 56.3233C46.1075 57.7025 51.3715 58.1337 54.9331 58.1337C58.4984 58.1337 63.7688 57.7014 66.6773 56.319L66.68 65.5238C66.3019 66.3172 62.0528 67.7337 54.9331 67.7337Z" fill="#015467"/>
<path d="M58.1331 19.7329H62.3997C62.9893 19.7329 63.4664 19.2553 63.4664 18.6663C63.4664 18.0772 62.9893 17.5996 62.3997 17.5996H58.1331C57.5435 17.5996 57.0664 18.0772 57.0664 18.6663C57.0664 19.2553 57.5435 19.7329 58.1331 19.7329Z" fill="#015467"/>
<path d="M54.9273 51.7481C57.8679 51.7481 60.2607 49.3553 60.2607 46.4148C60.2607 43.8039 56.5001 39.1673 55.746 38.2644C55.3399 37.7791 54.5148 37.7791 54.1084 38.2644C53.3543 39.1676 49.5938 43.8039 49.5938 46.4148C49.594 49.3553 51.9868 51.7481 54.9273 51.7481ZM54.9273 40.658C56.4535 42.6503 58.1273 45.27 58.1273 46.4148C58.1273 48.1793 56.6919 49.6148 54.9273 49.6148C53.1628 49.6148 51.7273 48.1793 51.7273 46.4148C51.7273 45.27 53.4015 42.65 54.9273 40.658Z" fill="#015467"/>
</svg>
