<svg width="80" height="80" viewBox="0 0 80 80" fill="none" xmlns="http://www.w3.org/2000/svg">
<path d="M68.2854 69.3873C68.8745 69.3873 69.3521 68.9097 69.3521 68.3206C69.3521 67.7315 68.8745 67.2539 68.2854 67.2539C67.6963 67.2539 67.2188 67.7315 67.2188 68.3206C67.2188 68.9097 67.6963 69.3873 68.2854 69.3873Z" fill="#015467"/>
<path d="M15.4867 10.9276C15.0702 10.5111 14.395 10.5111 13.9784 10.9276L13.2238 11.682L12.4691 10.9276C12.0526 10.5111 11.3774 10.5111 10.9608 10.9276C10.5443 11.3442 10.5443 12.0199 10.9608 12.4359L11.7152 13.19L10.9608 13.9442C10.5443 14.3604 10.5443 15.0359 10.9608 15.4524C11.1691 15.6607 11.4422 15.765 11.715 15.765C11.9878 15.765 12.2608 15.6607 12.4691 15.4524L13.2238 14.698L13.9784 15.4524C14.1867 15.6607 14.4598 15.765 14.7326 15.765C15.0054 15.765 15.2784 15.6607 15.4867 15.4524C15.9032 15.0359 15.9032 14.3602 15.4867 13.9442L14.7323 13.19L15.4867 12.4359C15.9035 12.0196 15.9035 11.3442 15.4867 10.9276Z" fill="#015467"/>
<path d="M56.5504 13.9199H19.2171C18.6275 13.9199 18.1504 14.3975 18.1504 14.9866V68.3199C18.1504 68.909 18.6275 69.3866 19.2171 69.3866H50.1504C50.4005 69.3866 50.6421 69.2991 50.8336 69.1391L57.2336 63.8058C57.4763 63.6031 57.6171 63.3031 57.6171 62.9866V14.9866C57.6171 14.3975 57.14 13.9199 56.5504 13.9199ZM20.2837 16.0533H55.4837V61.9199H50.1504C49.5608 61.9199 49.0837 62.3975 49.0837 62.9866V67.2533H20.2837V16.0533ZM53.6043 64.0533L51.2171 66.0423V64.0533H53.6043Z" fill="#015467"/>
<path d="M25.6172 43.7874C25.6172 44.3764 26.0943 44.854 26.6839 44.854H36.2839C36.8735 44.854 37.3505 44.3764 37.3505 43.7874C37.3505 43.1983 36.8735 42.7207 36.2839 42.7207H26.6839C26.0943 42.7207 25.6172 43.1983 25.6172 43.7874Z" fill="#015467"/>
<path d="M26.6839 45.9199C26.0943 45.9199 25.6172 46.3975 25.6172 46.9866C25.6172 47.5757 26.0943 48.0533 26.6839 48.0533H42.6839C43.2735 48.0533 43.7505 47.5757 43.7505 46.9866C43.7505 46.3975 43.2735 45.9199 42.6839 45.9199H26.6839Z" fill="#015467"/>
<path d="M38.4172 53.387C38.4172 52.7979 37.9401 52.3203 37.3505 52.3203H26.6839C26.0943 52.3203 25.6172 52.7979 25.6172 53.387C25.6172 53.9761 26.0943 54.4537 26.6839 54.4537H37.3505C37.9401 54.4537 38.4172 53.9761 38.4172 53.387Z" fill="#015467"/>
<path d="M26.6839 55.5195C26.0943 55.5195 25.6172 55.9971 25.6172 56.5862C25.6172 57.1753 26.0943 57.6529 26.6839 57.6529H32.0172C32.6068 57.6529 33.0839 57.1753 33.0839 56.5862C33.0839 55.9971 32.6068 55.5195 32.0172 55.5195H26.6839Z" fill="#015467"/>
<path d="M46.9521 55.5195H36.2854C35.6958 55.5195 35.2188 55.9971 35.2188 56.5862C35.2188 57.1753 35.6958 57.6529 36.2854 57.6529H46.9521C47.5417 57.6529 48.0187 57.1753 48.0187 56.5862C48.0187 55.9971 47.5417 55.5195 46.9521 55.5195Z" fill="#015467"/>
<path d="M42.6839 58.7207H26.6839C26.0943 58.7207 25.6172 59.1983 25.6172 59.7874C25.6172 60.3764 26.0943 60.854 26.6839 60.854H42.6839C43.2735 60.854 43.7505 60.3764 43.7505 59.7874C43.7505 59.1983 43.2735 58.7207 42.6839 58.7207Z" fill="#015467"/>
<path d="M68.2853 21.3872H66.152V20.3206C66.152 19.7315 65.6749 19.2539 65.0853 19.2539H60.8186C60.229 19.2539 59.752 19.7315 59.752 20.3206V60.8539C59.752 61.443 60.229 61.9206 60.8186 61.9206H61.8853V65.1206C61.8853 65.7096 62.3624 66.1872 62.952 66.1872C63.5416 66.1872 64.0186 65.7096 64.0186 65.1206V61.9206H65.0853C65.6749 61.9206 66.152 61.443 66.152 60.8539V23.5206H67.2186V35.2539C67.2186 35.843 67.6957 36.3206 68.2853 36.3206C68.8749 36.3206 69.352 35.843 69.352 35.2539V22.4539C69.352 21.8648 68.8749 21.3872 68.2853 21.3872ZM64.0186 21.3872V37.3872H61.8853V21.3872H64.0186ZM64.0186 39.5206V55.5206H61.8853V39.5206H64.0186ZM61.8853 59.7872V57.6539H64.0186V59.7872H61.8853Z" fill="#015467"/>
<path d="M34.1455 29.9363C34.1455 27.3253 30.3849 22.6888 29.6308 21.7859C29.2247 21.3005 28.3996 21.3005 27.9932 21.7859C27.239 22.6891 23.4785 27.3253 23.4785 29.9363C23.4785 32.8768 25.8713 35.2696 28.8118 35.2696C31.7524 35.2696 34.1455 32.8768 34.1455 29.9363ZM25.6121 29.9363C25.6121 28.7915 27.286 26.1717 28.8121 24.1795C30.3383 26.1717 32.0121 28.7915 32.0121 29.9363C32.0121 31.7008 30.5767 33.1363 28.8121 33.1363C27.0476 33.1363 25.6121 31.7008 25.6121 29.9363Z" fill="#015467"/>
<path d="M39.002 32.0543H39.9686C41.4665 32.0543 42.6854 30.8356 42.6854 29.3372V27.305C42.6854 25.8066 41.4668 24.5879 39.9686 24.5879H39.002C37.5041 24.5879 36.2852 25.8066 36.2852 27.305V29.3372C36.2852 30.8356 37.5041 32.0543 39.002 32.0543ZM38.4185 27.305C38.4185 26.9831 38.6798 26.7212 39.002 26.7212H39.9686C40.2905 26.7212 40.5521 26.9831 40.5521 27.305V29.3372C40.5521 29.6591 40.2908 29.921 39.9686 29.921H39.002C38.6801 29.921 38.4185 29.6591 38.4185 29.3372V27.305Z" fill="#015467"/>
<path d="M44.8186 32.0526C45.4082 32.0526 45.8853 31.575 45.8853 30.9859V25.6526C45.8853 25.0635 45.4082 24.5859 44.8186 24.5859C44.229 24.5859 43.752 25.0635 43.752 25.6526V30.9859C43.752 31.575 44.229 32.0526 44.8186 32.0526Z" fill="#015467"/>
<path d="M48.0178 32.0526H51.2178C51.8074 32.0526 52.2845 31.575 52.2845 30.9859C52.2845 30.3969 51.8074 29.9193 51.2178 29.9193H49.0845V25.6526C49.0845 25.0635 48.6074 24.5859 48.0178 24.5859C47.4282 24.5859 46.9512 25.0635 46.9512 25.6526V30.9859C46.9512 31.575 47.4282 32.0526 48.0178 32.0526Z" fill="#015467"/>
</svg>
