<svg width="136" height="136" viewBox="0 0 136 136" fill="none" xmlns="http://www.w3.org/2000/svg">
<path d="M111.294 27.9939C112.295 27.9939 113.107 27.182 113.107 26.1805C113.107 25.179 112.295 24.3672 111.294 24.3672C110.292 24.3672 109.48 25.179 109.48 26.1805C109.48 27.182 110.292 27.9939 111.294 27.9939Z" fill="#1FC4F4"/>
<path d="M20.4064 55.4127C20.7605 55.7667 21.2247 55.944 21.6884 55.944C22.1522 55.944 22.6164 55.7667 22.9705 55.4127L24.2525 54.1307L25.5345 55.4127C25.8886 55.7667 26.3528 55.944 26.8166 55.944C27.2803 55.944 27.7445 55.7667 28.0986 55.4127C28.8067 54.7046 28.8067 53.5567 28.0986 52.8486L26.8166 51.5666L28.0986 50.2846C28.8067 49.5765 28.8067 48.4286 28.0986 47.7205C27.3905 47.0124 26.2426 47.0124 25.5345 47.7205L24.2525 49.0026L22.9705 47.7205C22.2624 47.0124 21.1145 47.0124 20.4064 47.7205C19.6983 48.4286 19.6983 49.5765 20.4064 50.2846L21.6884 51.5666L20.4064 52.8486C19.6979 53.5572 19.6979 54.7046 20.4064 55.4127Z" fill="#1FC4F4"/>
<path d="M39.667 33.4336C43.1663 33.4336 46.0136 30.5862 46.0136 27.0869C46.0136 23.5876 43.1663 20.7402 39.667 20.7402C36.1677 20.7402 33.3203 23.5876 33.3203 27.0869C33.3203 30.5862 36.1677 33.4336 39.667 33.4336ZM39.667 24.3669C41.1671 24.3669 42.387 25.5868 42.387 27.0869C42.387 28.587 41.1671 29.8069 39.667 29.8069C38.1669 29.8069 36.947 28.587 36.947 27.0869C36.947 25.5868 38.1669 24.3669 39.667 24.3669Z" fill="#1FC4F4"/>
<path d="M78.6526 58.8208C90.6519 58.8208 100.413 49.0592 100.413 37.0608C100.413 25.0624 90.6519 15.3008 78.6526 15.3008C66.6533 15.3008 56.8926 25.0624 56.8926 37.0608C56.8926 49.0592 66.6533 58.8208 78.6526 58.8208ZM78.6526 18.9274C88.6508 18.9274 96.7859 27.0616 96.7859 37.0608C96.7859 47.06 88.6508 55.1941 78.6526 55.1941C68.6543 55.1941 60.5192 47.06 60.5192 37.0608C60.5192 27.0616 68.6543 18.9274 78.6526 18.9274Z" fill="#1FC4F4"/>
<path d="M78.6452 47.9689C83.6441 47.9689 87.7119 43.9011 87.7119 38.9022C87.7119 34.4636 81.319 26.5815 80.037 25.0465C79.3466 24.2215 77.9439 24.2215 77.2531 25.0465C75.971 26.582 69.5781 34.4636 69.5781 38.9022C69.5786 43.9011 73.6463 47.9689 78.6452 47.9689ZM78.6452 29.1157C81.2397 32.5025 84.0852 36.9561 84.0852 38.9022C84.0852 41.9019 81.6449 44.3422 78.6452 44.3422C75.6455 44.3422 73.2052 41.9019 73.2052 38.9022C73.2052 36.9561 76.0513 32.5021 78.6452 29.1157Z" fill="#1FC4F4"/>
<path d="M116.733 73.3281H18.8133C17.811 73.3281 17 74.14 17 75.1415V118.661C17 119.663 17.811 120.475 18.8133 120.475H116.733C117.736 120.475 118.547 119.663 118.547 118.661V75.1415C118.547 74.14 117.736 73.3281 116.733 73.3281ZM114.92 116.848H20.6267V76.9548H114.92V116.848Z" fill="#1FC4F4"/>
<path d="M24.2528 104.154C25.2551 104.154 26.0661 103.342 26.0661 102.341V91.3095C30.6153 90.5438 34.2157 86.9434 34.9823 82.3942H46.0128C47.0151 82.3942 47.8261 81.5823 47.8261 80.5809C47.8261 79.5795 47.0151 78.7676 46.0128 78.7676H33.3195C32.3171 78.7676 31.5061 79.5795 31.5061 80.5809C31.5061 84.5802 28.253 87.8342 24.2528 87.8342C23.2505 87.8342 22.4395 88.6462 22.4395 89.6476V102.341C22.4395 103.342 23.2505 104.154 24.2528 104.154Z" fill="#1FC4F4"/>
<path d="M26.0672 84.2067C27.0687 84.2067 27.8806 83.3949 27.8806 82.3934C27.8806 81.3919 27.0687 80.5801 26.0672 80.5801C25.0658 80.5801 24.2539 81.3919 24.2539 82.3934C24.2539 83.3949 25.0658 84.2067 26.0672 84.2067Z" fill="#1FC4F4"/>
<path d="M89.534 115.033H102.227C103.23 115.033 104.041 114.221 104.041 113.22C104.041 109.221 107.294 105.966 111.294 105.966C112.296 105.966 113.107 105.155 113.107 104.153V91.4598C113.107 90.4584 112.296 89.6465 111.294 89.6465C110.292 89.6465 109.481 90.4584 109.481 91.4598V102.491C104.932 103.257 101.331 106.857 100.565 111.406H89.534C88.5317 111.406 87.7207 112.218 87.7207 113.22C87.7207 114.221 88.5317 115.033 89.534 115.033Z" fill="#1FC4F4"/>
<path d="M109.479 113.22C110.481 113.22 111.293 112.409 111.293 111.407C111.293 110.406 110.481 109.594 109.479 109.594C108.478 109.594 107.666 110.406 107.666 111.407C107.666 112.409 108.478 113.22 109.479 113.22Z" fill="#1FC4F4"/>
<path d="M62.3329 100.528C61.3305 100.528 60.5195 101.34 60.5195 102.341C60.5195 103.343 61.3305 104.155 62.3329 104.155H65.9595V105.968C65.9595 106.97 66.7705 107.781 67.7729 107.781C68.7752 107.781 69.5862 106.97 69.5862 105.968V104.155H73.2129C74.2152 104.155 75.0262 103.343 75.0262 102.341V96.9015C75.0262 95.9001 74.2152 95.0882 73.2129 95.0882H69.5862V93.2748H73.2129C74.2152 93.2748 75.0262 92.4629 75.0262 91.4615C75.0262 90.4601 74.2152 89.6482 73.2129 89.6482H69.5862V87.8348C69.5862 86.8334 68.7752 86.0215 67.7729 86.0215C66.7705 86.0215 65.9595 86.8334 65.9595 87.8348V89.6482H62.3329C61.3305 89.6482 60.5195 90.4601 60.5195 91.4615V96.9015C60.5195 97.9029 61.3305 98.7148 62.3329 98.7148H65.9595V100.528H62.3329ZM64.1462 95.0882V93.2748H65.9595V95.0882H64.1462ZM69.5862 98.7148H71.3995V100.528H69.5862V98.7148Z" fill="#1FC4F4"/>
<path d="M67.7731 113.22C76.7727 113.22 84.0931 105.899 84.0931 96.9001C84.0931 87.9014 76.7727 80.5801 67.7731 80.5801C58.7736 80.5801 51.4531 87.9014 51.4531 96.9001C51.4531 105.899 58.7736 113.22 67.7731 113.22ZM67.7731 84.2067C74.7717 84.2067 80.4665 89.9011 80.4665 96.9001C80.4665 103.899 74.7717 109.593 67.7731 109.593C60.7746 109.593 55.0798 103.899 55.0798 96.9001C55.0798 89.9011 60.7746 84.2067 67.7731 84.2067Z" fill="#1FC4F4"/>
<path d="M33.0778 69.5821C33.2478 69.6325 33.4196 69.6565 33.5878 69.6565C34.3721 69.6565 35.0965 69.1429 35.3286 68.3522C37.686 60.3092 42.7588 53.3927 49.6404 48.678V51.5667C49.6404 52.5681 50.4514 53.38 51.4537 53.38C52.456 53.38 53.267 52.5681 53.267 51.5667V44.3133C53.267 43.3119 52.456 42.5 51.4537 42.5H44.2004C43.198 42.5 42.387 43.3119 42.387 44.3133C42.387 45.3147 43.198 46.1267 44.2004 46.1267H46.9621C39.7119 51.301 34.3694 58.7311 31.847 67.3322C31.5655 68.2929 32.1163 69.3006 33.0778 69.5821Z" fill="#1FC4F4"/>
<path d="M94.9724 63.5229V60.6342C94.9724 59.6328 94.1614 58.8209 93.159 58.8209C92.1567 58.8209 91.3457 59.6328 91.3457 60.6342V67.8876C91.3457 68.889 92.1567 69.7009 93.159 69.7009H100.412C101.415 69.7009 102.226 68.889 102.226 67.8876C102.226 66.8862 101.415 66.0742 100.412 66.0742H97.6507C104.901 60.8999 110.243 53.4698 112.766 44.8687C113.047 43.9081 112.496 42.9003 111.535 42.6188C110.575 42.3364 109.566 42.889 109.284 43.8487C106.927 51.8913 101.854 58.8078 94.9724 63.5229Z" fill="#1FC4F4"/>
</svg>
