<svg width="50" height="50" viewBox="0 0 50 50" fill="none" xmlns="http://www.w3.org/2000/svg">
<g clip-path="url(#clip0_2513_47612)">
<circle cx="25" cy="25" r="25" fill="white"/>
<path d="M31.675 16.825C31.3783 16.825 31.0883 16.913 30.8416 17.0778C30.595 17.2426 30.4027 17.4769 30.2892 17.751C30.1756 18.0251 30.1459 18.3267 30.2038 18.6176C30.2617 18.9086 30.4046 19.1759 30.6143 19.3857C30.8241 19.5954 31.0914 19.7383 31.3824 19.7962C31.6733 19.8541 31.9749 19.8244 32.249 19.7108C32.5231 19.5973 32.7574 19.405 32.9222 19.1584C33.087 18.9117 33.175 18.6217 33.175 18.325C33.175 17.9272 33.017 17.5456 32.7357 17.2643C32.4544 16.983 32.0728 16.825 31.675 16.825ZM37.425 19.85C37.4007 18.8129 37.2064 17.7868 36.85 16.8125C36.5322 15.9789 36.0375 15.2241 35.4 14.6C34.781 13.9593 34.0245 13.4677 33.1875 13.1625C32.2158 12.7952 31.1886 12.5965 30.15 12.575C28.825 12.5 28.4 12.5 25 12.5C21.6 12.5 21.175 12.5 19.85 12.575C18.8114 12.5965 17.7842 12.7952 16.8125 13.1625C15.9771 13.4708 15.2212 13.962 14.6 14.6C13.9593 15.219 13.4677 15.9755 13.1625 16.8125C12.7952 17.7842 12.5965 18.8114 12.575 19.85C12.5 21.175 12.5 21.6 12.5 25C12.5 28.4 12.5 28.825 12.575 30.15C12.5965 31.1886 12.7952 32.2158 13.1625 33.1875C13.4677 34.0245 13.9593 34.781 14.6 35.4C15.2212 36.038 15.9771 36.5292 16.8125 36.8375C17.7842 37.2048 18.8114 37.4035 19.85 37.425C21.175 37.5 21.6 37.5 25 37.5C28.4 37.5 28.825 37.5 30.15 37.425C31.1886 37.4035 32.2158 37.2048 33.1875 36.8375C34.0245 36.5323 34.781 36.0407 35.4 35.4C36.0403 34.7782 36.5354 34.0227 36.85 33.1875C37.2064 32.2132 37.4007 31.1871 37.425 30.15C37.425 28.825 37.5 28.4 37.5 25C37.5 21.6 37.5 21.175 37.425 19.85ZM35.175 30C35.1659 30.7935 35.0222 31.5796 34.75 32.325C34.5504 32.869 34.2298 33.3605 33.8125 33.7625C33.4071 34.1756 32.9165 34.4955 32.375 34.7C31.6296 34.9722 30.8435 35.1159 30.05 35.125C28.8 35.1875 28.3375 35.2 25.05 35.2C21.7625 35.2 21.3 35.2 20.05 35.125C19.2261 35.1404 18.4057 35.0136 17.625 34.75C17.1072 34.5351 16.6392 34.216 16.25 33.8125C15.8351 33.4109 15.5186 32.919 15.325 32.375C15.0198 31.6189 14.8506 30.8149 14.825 30C14.825 28.75 14.75 28.2875 14.75 25C14.75 21.7125 14.75 21.25 14.825 20C14.8306 19.1888 14.9787 18.3849 15.2625 17.625C15.4826 17.0974 15.8203 16.6271 16.25 16.25C16.6298 15.8202 17.0991 15.4789 17.625 15.25C18.3869 14.9751 19.19 14.8313 20 14.825C21.25 14.825 21.7125 14.75 25 14.75C28.2875 14.75 28.75 14.75 30 14.825C30.7935 14.8341 31.5796 14.9778 32.325 15.25C32.893 15.4608 33.4029 15.8036 33.8125 16.25C34.2221 16.634 34.5422 17.1034 34.75 17.625C35.0278 18.3862 35.1716 19.1897 35.175 20C35.2375 21.25 35.25 21.7125 35.25 25C35.25 28.2875 35.2375 28.75 35.175 30ZM25 18.5875C23.7323 18.59 22.4937 18.9682 21.4408 19.6743C20.3879 20.3804 19.568 21.3827 19.0845 22.5547C18.6011 23.7266 18.4759 25.0156 18.7247 26.2587C18.9736 27.5017 19.5853 28.6432 20.4826 29.5387C21.3799 30.4343 22.5225 31.0438 23.7661 31.2902C25.0096 31.5366 26.2983 31.4089 27.4693 30.9232C28.6403 30.4375 29.6411 29.6155 30.3452 28.5613C31.0492 27.507 31.425 26.2677 31.425 25C31.4267 24.1564 31.2615 23.3208 30.939 22.5412C30.6166 21.7616 30.1432 21.0535 29.5461 20.4576C28.949 19.8616 28.2399 19.3896 27.4597 19.0687C26.6796 18.7477 25.8436 18.5842 25 18.5875ZM25 29.1625C24.1767 29.1625 23.372 28.9184 22.6874 28.461C22.0029 28.0036 21.4694 27.3535 21.1544 26.5929C20.8393 25.8323 20.7569 24.9954 20.9175 24.1879C21.0781 23.3805 21.4745 22.6388 22.0567 22.0567C22.6388 21.4745 23.3805 21.0781 24.1879 20.9175C24.9954 20.7569 25.8323 20.8393 26.5929 21.1544C27.3535 21.4694 28.0036 22.0029 28.461 22.6874C28.9184 23.372 29.1625 24.1767 29.1625 25C29.1625 25.5466 29.0548 26.0879 28.8456 26.5929C28.6365 27.0979 28.3299 27.5568 27.9433 27.9433C27.5568 28.3299 27.0979 28.6365 26.5929 28.8456C26.0879 29.0548 25.5466 29.1625 25 29.1625Z" fill="#30454E"/>
</g>
<defs>
<clipPath id="clip0_2513_47612">
<rect width="50" height="50" fill="white"/>
</clipPath>
</defs>
</svg>
