<svg width="80" height="80" viewBox="0 0 80 80" fill="none" xmlns="http://www.w3.org/2000/svg">
<g clip-path="url(#clip0_1566_105995)">
<path d="M65.8734 31.7983V29.4215C65.8734 28.7642 65.3405 28.2307 64.6826 28.2307C64.0252 28.2307 63.4924 28.7642 63.4924 29.4215V32.5581C63.4924 33.0281 63.7689 33.4541 64.1986 33.6458C72.2558 37.2334 77.4628 45.2486 77.4628 54.0651C77.4628 66.3839 67.4396 76.4059 55.1202 76.4059C52.611 76.4059 50.1647 75.9963 47.8277 75.1876C47.915 75.0552 47.9998 74.9203 48.0804 74.7811C48.4088 74.2123 48.6584 73.6184 48.8378 73.0111C50.8575 73.6837 52.9644 74.0249 55.1208 74.0249C66.1273 74.0249 75.0818 65.071 75.0818 54.0651C75.0818 48.6715 72.8467 43.4267 68.9502 39.6755C68.728 39.4618 68.432 39.3422 68.1244 39.3422H42.1185C41.8108 39.3422 41.5148 39.4612 41.2927 39.6749C39.2022 41.6872 37.589 44.1085 36.5411 46.7812L35.0622 44.2195C37.3705 39.5223 41.2493 35.7808 46.0442 33.6452C46.4739 33.4541 46.7504 33.0281 46.7504 32.5575V20.7704H63.4924V24.659C63.4924 25.3169 64.0252 25.8498 64.6832 25.8498C65.3405 25.8498 65.8734 25.3169 65.8734 24.659V20.7704H66.9195C69.2828 20.7704 71.2054 18.8478 71.2054 16.4845C71.2054 14.1218 69.2828 12.1992 66.9195 12.1992H62.066C61.4087 12.1992 60.8758 12.7321 60.8758 13.3894C60.8758 14.0468 61.4087 14.5802 62.066 14.5802H66.9195C67.9699 14.5802 68.8244 15.4347 68.8244 16.4845C68.8244 17.5349 67.9699 18.3894 66.9195 18.3894H64.6905C64.6881 18.3894 64.6856 18.3894 64.6832 18.3894H45.5602C45.5572 18.3894 45.5547 18.3894 45.5523 18.3894H43.5833C42.5329 18.3894 41.6784 17.5349 41.6784 16.4845C41.6784 15.4347 42.5329 14.5802 43.5833 14.5802H57.304C57.9614 14.5802 58.4942 14.0468 58.4942 13.3894C58.4942 12.7321 57.9614 12.1992 57.304 12.1992H43.5833C41.22 12.1992 39.2974 14.1218 39.2974 16.4845C39.2974 18.8478 41.22 20.7704 43.5833 20.7704H44.3694V31.7983C39.8602 33.9784 36.1339 37.4635 33.6584 41.7885L32.9577 40.5751V28.3894H33.9373C36.3006 28.3894 38.2232 26.4668 38.2232 24.1035C38.2232 21.7409 36.3006 19.8183 33.9373 19.8183H15.0731C12.7098 19.8183 10.7872 21.7409 10.7872 24.1035C10.7872 26.4668 12.7098 28.3894 15.0731 28.3894H16.0527V40.5751L0.930025 66.7684C-0.518342 69.277 -0.518342 72.2726 0.930025 74.7811C2.37839 77.2897 4.97178 78.7875 7.86852 78.7875H28.2561C28.9141 78.7875 29.4469 78.254 29.4469 77.5967C29.4469 76.9393 28.9141 76.4065 28.2561 76.4065H7.86852C5.83299 76.4065 4.00986 75.3536 2.9918 73.5903C1.97373 71.8276 1.97373 69.7219 2.9918 67.9592L18.2744 41.4894C18.3788 41.3082 18.4337 41.1031 18.4337 40.8937V28.3894H30.5767V40.8937C30.5767 41.1031 30.6316 41.3082 30.736 41.4894L46.018 67.9592C47.0361 69.7219 47.0361 71.827 46.018 73.5903C45.0005 75.3536 43.1774 76.4065 41.1413 76.4065H33.0187C32.3614 76.4065 31.8285 76.9393 31.8285 77.5967C31.8285 78.254 32.3614 78.7875 33.0187 78.7875H41.1413C42.9882 78.7875 44.7106 78.1759 46.0931 77.0846C48.9666 78.2137 51.9995 78.7875 55.1202 78.7875C68.753 78.7875 79.8438 67.6974 79.8438 54.0658C79.8438 44.5693 74.3854 35.9139 65.8734 31.7983ZM17.2429 26.0084H15.0731C14.0227 26.0084 13.1682 25.154 13.1682 24.1035C13.1682 23.0537 14.0227 22.1992 15.0731 22.1992H33.9373C34.9871 22.1992 35.8416 23.0537 35.8416 24.1035C35.8416 25.154 34.9871 26.0084 33.9373 26.0084H17.2429ZM38.1365 49.5449C38.9245 46.5914 40.4589 43.904 42.6073 41.7238H67.6349C70.86 45.002 72.7008 49.4729 72.7008 54.0651C72.7008 63.7582 64.8138 71.6439 55.1202 71.6439C53.0682 71.6439 51.0675 71.2936 49.1607 70.602C49.132 69.2837 48.7744 67.9702 48.0804 66.7684L38.1365 49.5449Z" fill="#00B0F0"/>
<path d="M43.9573 72.4001C44.5536 71.3674 44.5536 70.1827 43.9573 69.1493L32.7274 49.6986C32.515 49.3306 32.122 49.1035 31.6966 49.1035H17.316C16.8906 49.1035 16.4976 49.3306 16.2851 49.6986L5.05466 69.1493C4.45834 70.182 4.45834 71.3667 5.05466 72.3995C5.65097 73.4328 6.67698 74.0248 7.8696 74.0248H41.1424C42.335 74.0248 43.361 73.4328 43.9573 72.4001ZM7.11704 71.2093C6.86618 70.7747 7.04868 70.4591 7.11704 70.3401L18.0033 51.4845H31.0093L41.8955 70.3401C41.9639 70.4585 42.1464 70.7747 41.8949 71.2093C41.6441 71.6438 41.2797 71.6438 41.1424 71.6438H7.8696C7.73289 71.6438 7.36789 71.6438 7.11704 71.2093Z" fill="#00B0F0"/>
<path d="M28.1661 62.2178C27.7535 61.2401 26.3058 61.2639 25.9463 62.2728C25.5856 63.2866 26.7037 64.2375 27.6486 63.712C28.1686 63.4227 28.3926 62.7665 28.1661 62.2178Z" fill="#00B0F0"/>
<path d="M21.8141 15.0553C22.8504 15.0553 23.3924 13.754 22.6557 13.0216C22.2456 12.6139 21.584 12.5626 21.1146 12.9007C20.7325 13.1766 20.5482 13.674 20.655 14.133C20.7801 14.6646 21.2666 15.0553 21.8141 15.0553Z" fill="#00B0F0"/>
<path d="M25.8927 10.3303C26.8009 10.9425 28.0118 10.0349 27.6914 8.99483C27.5418 8.5096 27.0914 8.16353 26.5818 8.15071C26.0636 8.13851 25.5851 8.4742 25.4233 8.96736C25.2603 9.4648 25.4477 10.044 25.8927 10.3303Z" fill="#00B0F0"/>
<path d="M22.8727 2.89188C23.071 3.36307 23.5581 3.66641 24.0708 3.62308C24.5322 3.58402 24.9344 3.27213 25.0919 2.83817C25.4569 1.82986 24.3473 0.89053 23.411 1.38675C22.8806 1.66812 22.6383 2.33707 22.8727 2.89188Z" fill="#00B0F0"/>
<path d="M64.4767 47.1759C64.6494 47.6172 65.1054 47.9126 65.5753 47.9126C66.1356 47.912 66.6337 47.5031 66.7436 46.9538C66.9474 45.9381 65.7877 45.1654 64.9247 45.7251C64.4523 46.0315 64.257 46.6559 64.4767 47.1759Z" fill="#00B0F0"/>
<path d="M66.1717 53.4967C65.1591 53.7078 64.8735 55.0756 65.7432 55.6536C66.1656 55.9344 66.7357 55.9143 67.1361 55.6024C67.5529 55.2777 67.7055 54.6966 67.5035 54.2089C67.288 53.6895 66.7241 53.388 66.1717 53.4967Z" fill="#00B0F0"/>
<path d="M49.7768 64.0818C49.9727 64.5463 50.4451 64.846 50.9505 64.8142C51.4168 64.7843 51.8325 64.4743 51.9936 64.0354C52.3641 63.0277 51.2563 62.078 50.3151 62.5761C49.7841 62.8575 49.543 63.527 49.7768 64.0818Z" fill="#00B0F0"/>
<path d="M45.1659 52.4598C44.6514 52.5672 44.2577 53.003 44.2132 53.5279C44.171 54.0216 44.4506 54.4989 44.8992 54.7065C45.3393 54.9091 45.8721 54.8218 46.2224 54.4867C46.5801 54.1455 46.6869 53.6011 46.4892 53.1495C46.2676 52.6459 45.7067 52.3517 45.1659 52.4598Z" fill="#00B0F0"/>
<path d="M58.8239 51.2238C59.0015 51.6761 59.4709 51.9691 59.9513 51.9581C60.4389 51.9471 60.879 51.6273 61.0438 51.1695C61.2086 50.7111 61.067 50.1862 60.7002 49.8682C60.3004 49.5215 59.7016 49.4874 59.2616 49.7791C58.7971 50.0886 58.6066 50.7075 58.8239 51.2238Z" fill="#00B0F0"/>
<path d="M19.8319 64.6841C19.647 64.2452 19.2112 63.9492 18.7327 63.9492C18.2346 63.9492 17.7811 64.2715 17.6121 64.7384C17.2379 65.7748 18.4183 66.7275 19.3546 66.155C19.8453 65.8547 20.0565 65.2163 19.8319 64.6841Z" fill="#00B0F0"/>
<path d="M21.5954 56.2685C21.0888 56.3735 20.6927 56.7995 20.6439 57.3189C20.5975 57.8096 20.8636 58.2918 21.3086 58.5067C21.7694 58.7282 22.3309 58.6275 22.6855 58.2601C23.0359 57.8975 23.1152 57.3378 22.8857 56.8911C22.6465 56.426 22.1087 56.1654 21.5954 56.2685Z" fill="#00B0F0"/>
</g>
<defs>
<clipPath id="clip0_1566_105995">
<rect width="80" height="80" fill="white"/>
</clipPath>
</defs>
</svg>
