<svg width="80" height="80" viewBox="0 0 80 80" fill="none" xmlns="http://www.w3.org/2000/svg">
<g clip-path="url(#clip0_1566_106013)">
<path d="M71.1988 72.1364V58.27C72.5986 57.7103 73.5905 56.3425 73.5905 54.7469C73.5905 53.1494 72.5986 51.78 71.1988 51.2197V45.4767C71.1988 42.0552 68.7056 39.2067 65.4409 38.6481V28.7384C66.9311 28.2455 68.0097 26.8402 68.0097 25.1867C68.0097 23.1216 66.3316 21.4414 64.2691 21.4414H39.5228C38.4702 18.2731 35.6572 15.9589 32.3563 15.5328V13.9056C32.3563 12.2434 31.0059 10.8913 29.3464 10.8913H28.472V8.57109H36.307C36.8708 12.0961 39.9334 14.7984 43.6169 14.7984C47.6967 14.7984 51.0159 11.4792 51.0159 7.39922C51.0159 3.31922 47.6964 0 43.6167 0C39.9334 0 36.8706 2.70234 36.3069 6.22734H28.4719V3.95781C28.4719 2.635 27.3978 1.55891 26.0777 1.55891H21.095C19.7723 1.55891 18.6963 2.635 18.6963 3.95781V10.8913H18.1852C16.523 10.8913 15.1708 12.2434 15.1708 13.9056V15.4622H15.1203C10.3175 15.4622 6.41016 19.3717 6.41016 24.1769V46.5837C6.41016 47.2311 6.93484 47.7556 7.58203 47.7556C8.22922 47.7556 8.75391 47.2311 8.75391 46.5837V34.9067H36.687V38.6478C33.42 39.2062 30.9248 42.0548 30.9248 45.4766V51.2195C29.525 51.7798 28.5331 53.1492 28.5331 54.7467C28.5331 56.3423 29.525 57.7102 30.9248 58.2698V63.6909H8.75391V51.9961C8.75391 51.3487 8.22922 50.8242 7.58203 50.8242C6.93484 50.8242 6.41016 51.3487 6.41016 51.9961V77.455C6.41016 78.8581 7.54969 79.9998 8.95063 79.9998H70.0269C71.6597 79.9998 72.9881 78.6714 72.9881 77.0386V74.8506C72.9881 73.6359 72.2502 72.5908 71.1988 72.1364ZM43.6167 2.34375C46.4042 2.34375 48.672 4.61172 48.672 7.39922C48.672 10.1867 46.4042 12.4547 43.6167 12.4547C40.8267 12.4547 38.5569 10.1867 38.5569 7.39922C38.5569 4.61172 40.8267 2.34375 43.6167 2.34375ZM65.4067 71.8939L64.4192 70.1823C63.7108 68.9394 62.7809 68.6784 62.1256 68.6784H57.3467C56.4014 68.6784 55.6297 69.1817 55.0508 70.1786L54.0645 71.8941H48.0594L47.0705 70.1742C46.4942 69.1817 45.7225 68.6786 44.7772 68.6786H39.9983C39.343 68.6786 38.4131 68.9395 37.7077 70.1772L36.7172 71.8941H33.2688V58.5409H68.855V71.8941H65.4067V71.8939ZM60.2989 38.5469V28.9275H63.0974V38.5469H60.2989ZM52.2336 38.5469V34.9067H53.4402C54.0873 34.9067 54.612 34.3822 54.612 33.7348C54.612 33.0875 54.0873 32.563 53.4402 32.563H48.6834C48.0363 32.563 47.5116 33.0875 47.5116 33.7348C47.5116 34.3822 48.0363 34.9067 48.6834 34.9067H49.89V38.5469H44.173V28.9275H57.9553V38.5469H52.2336ZM39.0308 38.5469V28.9275H41.8291V38.5469H39.0308ZM65.6661 25.1867C65.6661 25.957 65.0394 26.5836 64.2692 26.5836H37.8589C37.0861 26.5836 36.4575 25.9569 36.4575 25.1867C36.4575 24.4139 37.0861 23.7852 37.8589 23.7852H38.6316H38.6409H64.2694C65.0394 23.7853 65.6661 24.4139 65.6661 25.1867ZM21.04 3.95781C21.04 3.93234 21.0641 3.90266 21.095 3.90266H26.0777C26.1005 3.90266 26.1281 3.92812 26.1281 3.95781V10.8913H21.04V3.95781ZM8.75391 32.563V24.1769C8.75391 20.6639 11.6098 17.8059 15.1203 17.8059H16.3427C16.9898 17.8059 17.5145 17.2814 17.5145 16.6341V13.9056C17.5145 13.5359 17.8153 13.235 18.1852 13.235H29.3464C29.7075 13.235 30.0125 13.5422 30.0125 13.9056V16.6341C30.0125 17.2814 30.5372 17.8059 31.1844 17.8059H31.2553C33.7697 17.8059 36.023 19.3108 37.0439 21.5319C35.3695 21.9052 34.1138 23.4016 34.1138 25.1867C34.1138 26.8406 35.1944 28.2463 36.687 28.7389V32.563H8.75391ZM32.1694 53.3019C32.1898 53.3006 32.2103 53.2997 32.2303 53.2973C32.2639 53.295 32.2973 53.2922 32.3314 53.2922H48.3778C49.025 53.2922 49.5497 52.7677 49.5497 52.1203C49.5497 51.473 49.025 50.9484 48.3778 50.9484H33.2686V45.4766C33.2686 42.9478 35.3278 40.8905 37.8589 40.8905H64.2692C66.798 40.8905 68.8552 42.9478 68.8552 45.4766V50.9484H53.5333C52.8861 50.9484 52.3614 51.473 52.3614 52.1203C52.3614 52.7677 52.8861 53.2922 53.5333 53.2922H69.7924C69.8266 53.2922 69.86 53.295 69.8934 53.2973C69.9136 53.2997 69.9341 53.3006 69.9544 53.3019C70.6803 53.3828 71.2467 53.9995 71.2467 54.7469C71.2467 55.5466 70.5942 56.197 69.7922 56.197H32.3314C31.5294 56.197 30.8769 55.5466 30.8769 54.7469C30.8769 53.9995 31.4434 53.3828 32.1694 53.3019ZM8.75391 77.4552V66.0348H30.9248V72.1373C29.8759 72.5922 29.14 73.6367 29.14 74.8508V77.6562H8.95063C8.84406 77.6562 8.75391 77.5641 8.75391 77.4552ZM70.6444 77.0387C70.6444 77.3736 70.3616 77.6562 70.0269 77.6562H31.4838V74.8508C31.4838 74.5127 31.7588 74.2377 32.0967 74.2377H37.3938C37.8125 74.2377 38.1995 74.0141 38.4089 73.6514L39.7406 71.343C39.8995 71.0644 39.9863 71.0234 39.9981 71.0222L44.7856 71.0219C44.7892 71.0234 44.8769 71.0642 45.0411 71.3467L46.3655 73.6498C46.5745 74.0134 46.962 74.2377 47.3814 74.2377H54.7425C55.1619 74.2377 55.5494 74.0134 55.7584 73.6498L57.08 71.3511C57.2467 71.0641 57.3344 71.0233 57.3467 71.0222L62.1339 71.0217C62.1375 71.0234 62.2242 71.0641 62.3861 71.3483L63.7147 73.6514C63.9239 74.0141 64.3109 74.2377 64.7299 74.2377H70.027C70.3617 74.2377 70.6445 74.5184 70.6445 74.8508V77.0387H70.6444Z" fill="#00B0F0"/>
</g>
<defs>
<clipPath id="clip0_1566_106013">
<rect width="80" height="80" fill="white"/>
</clipPath>
</defs>
</svg>
