<svg width="80" height="80" viewBox="0 0 80 80" fill="none" xmlns="http://www.w3.org/2000/svg">
<g clip-path="url(#clip0_1566_105987)">
<path d="M78.828 77.6562H73.7139C74.6638 75.5492 75.3494 73.4222 75.7553 71.3114C75.8775 70.676 75.4614 70.0616 74.8258 69.9394C74.1902 69.8178 73.576 70.2333 73.4538 70.8689C73.0208 73.1202 72.238 75.4002 71.1238 77.6561H66.1311V75.8517C66.1311 75.2044 65.6066 74.6798 64.9592 74.6798C64.3119 74.6798 63.7874 75.2044 63.7874 75.8517V77.6561H58.7947C57.0482 74.1205 56.1266 70.5527 56.0538 67.0408C56.0143 65.1369 56.2255 63.2169 56.6805 61.2949H73.2375C73.6428 63.0067 73.855 64.7166 73.8677 66.4133C73.8725 67.0575 74.3963 67.5764 75.0394 67.5764H75.0483C75.6956 67.5716 76.2163 67.043 76.2114 66.3958C76.1984 64.6522 75.9953 62.8997 75.6084 61.1482C75.9689 60.9483 76.2131 60.5643 76.2131 60.1228C76.2131 59.4755 75.6886 58.951 75.0413 58.951H75.0255C74.5947 57.5604 74.0491 56.173 73.3859 54.7941C72.9469 53.8813 72.0447 53.2668 71.04 53.1729V51.3438C71.04 49.926 69.8983 48.7716 68.4861 48.7476V5.92952C68.4861 2.66 65.8263 0.00015625 62.5568 0.00015625L18.6217 0C15.3522 0 12.6922 2.65984 12.6922 5.92936V8.37936H9.00733C7.54077 8.37936 6.3478 9.57248 6.3478 11.0389V14.5228C5.99389 14.7245 5.75468 15.1045 5.75468 15.5411C5.75468 15.9776 5.99374 16.3576 6.3478 16.5593V45.6865C4.31921 48.633 3.12968 52.1999 3.12968 56.0397V59.2693H2.36328C1.71593 59.2693 1.1914 59.7938 1.1914 60.4411C1.1914 61.0885 1.71593 61.613 2.36328 61.613H3.12968V67.9319C3.12968 68.5792 3.65421 69.1038 4.30155 69.1038C4.9489 69.1038 5.47343 68.5792 5.47343 67.9319V61.613H37.393V77.6564H27.2321V71.1983C27.2321 70.0428 26.292 69.1028 25.1367 69.1028H17.73C16.5745 69.1028 15.6345 70.043 15.6345 71.1983V77.6564H5.47343V72.6175C5.47343 71.9702 4.9489 71.4456 4.30155 71.4456C3.65421 71.4456 3.12968 71.9702 3.12968 72.6175V77.6564H1.17187C0.52453 77.6564 0 78.1809 0 78.8283C0 79.4756 0.52453 80.0002 1.17187 80.0002H78.828C79.4753 80.0002 79.9998 79.4756 79.9998 78.8283C79.9998 78.1809 79.4753 77.6562 78.828 77.6562ZM17.9781 71.4464H24.8884V77.6561H17.9781V71.4464ZM61.7186 48.7454H61.4767C60.0439 48.7454 58.8782 49.9111 58.8782 51.344V53.173C57.8735 53.2671 56.9713 53.8816 56.5322 54.7944C55.8674 56.1772 55.323 57.5632 54.8933 58.9513H54.8771C54.2297 58.9513 53.7052 59.4758 53.7052 60.1232C53.7052 60.565 53.9499 60.9496 54.3111 61.1491C54.1358 61.9464 53.9994 62.7442 53.9015 63.5424H49.3983C49.3971 59.3939 49.398 31.5251 49.3983 22.8092C49.7522 22.6075 49.9913 22.2275 49.9913 21.791C49.9913 21.3546 49.7522 20.9745 49.3983 20.7729V17.289C49.3983 15.8225 48.2051 14.6295 46.7387 14.6295H43.2444V11.5373C43.2444 10.3722 44.1923 9.4242 45.3574 9.4242H59.6055C60.7707 9.4242 61.7186 10.3722 61.7186 11.5373V48.7454ZM37.0901 22.9629H47.0543V31.3087H37.0901V22.9629ZM37.0901 33.6524H47.0543V42.0465H37.0901V33.6524ZM46.7383 16.9731C46.9126 16.9731 47.0543 17.1148 47.0543 17.2889V20.619H37.0901V17.2889C37.0901 17.1148 37.2318 16.9731 37.4059 16.9731H46.7383ZM34.7463 31.0901H21.04V29.4828H34.7463V31.0901ZM18.6556 20.5732H16.0162C15.3689 20.5732 14.8443 21.0978 14.8443 21.7451C14.8443 22.3925 15.3689 22.917 16.0162 22.917H18.6556V31.311H8.69139V22.917H11.3308C11.9781 22.917 12.5026 22.3925 12.5026 21.7451C12.5026 21.0978 11.9781 20.5732 11.3308 20.5732H8.69139V16.7129H18.6556V20.5732ZM18.6556 33.6548V37.9466C14.8126 38.5341 11.3601 40.322 8.69139 42.913V33.6548H18.6556ZM20.9993 33.4338H34.726C34.7262 33.6713 34.721 44.163 34.7465 43.4924C31.4067 39.9507 26.674 37.7362 21.4332 37.7362C21.2882 37.7362 21.1437 37.7384 20.9995 37.7416V33.4338H20.9993ZM37.0901 44.3902H47.0543V55.225H39.7176C39.5785 52.0674 38.6366 49.1147 37.0901 46.5677V44.3902ZM40.503 61.6128C41.1504 61.6128 41.6749 61.0883 41.6749 60.441C41.6749 59.7936 41.1504 59.2691 40.503 59.2691H39.7368V57.5686H47.0544V63.5422H39.7368V61.6127H40.503V61.6128ZM39.7368 65.8861H53.7249C53.7096 66.4325 53.7124 66.9789 53.7335 67.5252H39.737V65.8861H39.7368ZM53.9343 69.8689C54.2807 72.47 55.0372 75.0681 56.2049 77.6562H49.3982V69.8689H53.9343ZM71.2739 55.81C71.7759 56.8543 72.2041 57.9022 72.5613 58.9513H57.358C57.7152 57.9024 58.1422 56.8547 58.6444 55.8102C58.7343 55.6235 58.9313 55.5027 59.1463 55.5027H70.7722C70.9872 55.5027 71.1841 55.6233 71.2739 55.81ZM68.6964 51.344V53.159H61.2219V51.344C61.2219 51.2035 61.3361 51.0891 61.4767 51.0891H68.4417C68.5821 51.0891 68.6964 51.2033 68.6964 51.344ZM15.0359 5.92936C15.0359 3.95234 16.6445 2.34375 18.6217 2.34375L62.5569 2.3439C64.5339 2.3439 66.1425 3.95249 66.1425 5.92952V48.7452H64.0624V11.5373C64.0624 9.07967 62.063 7.08045 59.6055 7.08045H45.3574C42.8999 7.08045 40.9007 9.07983 40.9007 11.5373V14.6293H37.4063C35.9398 14.6293 34.7468 15.8225 34.7468 17.2889V20.7728C34.3929 20.9745 34.1537 21.3545 34.1537 21.791C34.1537 22.2276 34.3927 22.6076 34.7468 22.8093V27.1392H21.0404C21.0182 18.8682 21.0742 30.9913 20.9996 16.5593C21.3535 16.3576 21.5928 15.9776 21.5928 15.5411C21.5928 15.1045 21.3537 14.7245 20.9996 14.5228V11.0389C20.9996 9.57232 19.8065 8.37936 18.3401 8.37936H15.0359V5.92936ZM9.00733 10.7231H18.3398C18.5139 10.7231 18.6556 10.8648 18.6556 11.0389V14.369H8.69139V11.0389C8.69139 10.8648 8.83326 10.7231 9.00733 10.7231ZM5.47343 59.2691V56.0396C5.47343 47.2394 12.6329 40.0798 21.4334 40.0798C30.2335 40.0798 37.3932 47.2393 37.3932 56.0396V59.2691H5.47343ZM39.7368 69.8689H47.0544V77.6562H39.7368V69.8689Z" fill="#00B0F0"/>
<path d="M21.4326 45.8594C20.3227 45.8594 19.2868 46.6603 18.5155 48.1148C17.959 49.1642 17.5996 50.4531 17.5996 51.3988C17.5996 53.5123 19.3191 55.2319 21.4326 55.2319C23.5462 55.2319 25.2657 53.5123 25.2657 51.3988C25.2657 50.4531 24.9062 49.1642 24.3498 48.1148C23.5785 46.6603 22.5426 45.8594 21.4326 45.8594ZM21.4326 52.888C20.6113 52.888 19.9434 52.2198 19.9434 51.3986C19.9434 50.1259 20.9687 48.2756 21.4276 48.2028C21.8966 48.2755 22.922 50.1258 22.922 51.3986C22.9221 52.2198 22.2538 52.888 21.4326 52.888Z" fill="#00B0F0"/>
</g>
<defs>
<clipPath id="clip0_1566_105987">
<rect width="80" height="80" fill="white"/>
</clipPath>
</defs>
</svg>
