<svg width="68" height="80" viewBox="0 0 68 80" fill="none" xmlns="http://www.w3.org/2000/svg">
<path d="M42.7293 39.3436C42.2846 38.8903 41.6902 38.6406 41.0551 38.6406C41.0541 38.6406 41.0532 38.6406 41.0523 38.6406C40.4159 38.6414 39.8209 38.8925 39.3765 39.3477C37.6974 41.068 34.8809 44.5527 34.8809 48.5642C34.8809 51.9533 37.6495 54.7106 41.0526 54.7106C44.4557 54.7106 47.2243 51.9534 47.2243 48.5642C47.2241 44.5295 44.4079 41.0555 42.7293 39.3436ZM41.0524 52.367C38.9416 52.367 37.2245 50.6613 37.2245 48.5644C37.2245 45.2644 39.9023 42.1645 41.0559 40.9847C42.2057 42.1572 44.8804 45.243 44.8804 48.5644C44.8804 50.6613 43.1632 52.367 41.0524 52.367Z" fill="#00B0F0"/>
<path d="M67.9912 31.8014C67.9912 29.8059 66.3988 28.1764 64.418 28.1142V20.7272C66.3987 20.665 67.9912 19.0355 67.9912 17.04C67.9912 15.0052 66.3357 13.3497 64.301 13.3497H36.8638C34.5166 5.63266 27.3259 0 18.8413 0C15.4835 0 12.1855 0.895 9.3043 2.58812C8.74633 2.91609 8.55977 3.63422 8.88758 4.19219C9.21555 4.75031 9.93383 4.93687 10.4916 4.60891C13.0134 3.12703 15.9007 2.34375 18.8413 2.34375C27.9327 2.34375 35.3291 9.72844 35.3291 18.8055C35.3291 27.8825 27.9327 35.2673 18.8413 35.2673C9.74976 35.2673 2.35336 27.8825 2.35336 18.8055C2.35336 14.4664 4.0307 10.3713 7.07633 7.27406C7.53008 6.8125 7.52383 6.07063 7.06242 5.61688C6.6007 5.16313 5.85898 5.16922 5.40523 5.63078C1.92586 9.16906 0.00976562 13.8478 0.00976562 18.8055C0.00976562 28.7875 7.83867 36.9767 17.6868 37.5747V57.8609C15.7062 57.9231 14.1137 59.5527 14.1137 61.5483C14.1137 63.5438 15.706 65.1733 17.6868 65.2355V72.6225C15.7062 72.6847 14.1137 74.3142 14.1137 76.3098C14.1137 78.3445 15.7691 80 17.8038 80H52.9612C53.5896 80 54.1895 79.3327 54.1266 78.7044C54.0734 78.0628 53.3371 77.523 52.7124 77.6562H17.8037C17.0613 77.6562 16.4573 77.0522 16.4573 76.3098C16.4573 75.5673 17.0613 74.9633 17.8037 74.9633H64.301C65.0434 74.9633 65.6474 75.5673 65.6474 76.3098C65.6474 77.0522 65.0434 77.6562 64.301 77.6562H57.8932C57.1495 77.4961 56.4496 78.0992 56.4748 78.8689C56.4968 79.4998 57.0146 80 57.646 80H64.3012C66.3359 80 67.9913 78.3445 67.9913 76.3098C67.9913 74.3142 66.399 72.6847 64.4182 72.6225V65.2355C66.3988 65.1733 67.9913 63.5438 67.9913 61.5483C67.9913 59.5527 66.399 57.9231 64.4182 57.8609V35.4888C66.3988 35.4266 67.9912 33.797 67.9912 31.8014ZM20.0304 57.858V37.5727C22.717 37.4047 25.2524 36.672 27.519 35.4917H62.0743V57.858H20.0304ZM65.6474 31.8016C65.6474 32.5439 65.0434 33.148 64.301 33.148H31.0066C31.962 32.3386 32.8362 31.4367 33.614 30.455H64.3009C65.0434 30.455 65.6474 31.0591 65.6474 31.8016ZM37.5751 20.7302H62.0745V28.1112H35.201C36.4713 25.8928 37.3027 23.393 37.5751 20.7302ZM64.301 15.6934C65.0434 15.6934 65.6474 16.2975 65.6474 17.04C65.6474 17.7823 65.0434 18.3864 64.301 18.3864H37.6676C37.6474 17.4712 37.5609 16.5723 37.4137 15.6934H64.301ZM62.0743 65.2384V72.6195H20.0304V65.2384H62.0743ZM65.6474 61.5483C65.6474 62.2906 65.0434 62.8947 64.301 62.8947H17.8037C17.0613 62.8947 16.4573 62.2906 16.4573 61.5483C16.4573 60.8058 17.0613 60.2017 17.8037 60.2017C33.3027 60.2017 48.8018 60.202 64.301 60.2017C65.0434 60.2017 65.6474 60.8058 65.6474 61.5483Z" fill="#00B0F0"/>
<path d="M21.2466 26.7448C21.9986 27.4885 23.0209 27.9001 24.078 27.8895C26.2375 27.8654 27.9942 26.092 27.9942 23.936V19.5202H29.4148C31.0658 19.5202 31.9872 17.5309 30.9141 16.274L26.1495 10.694C25.0591 9.41711 23.0255 9.41711 21.935 10.694L17.1705 16.274C16.0973 17.5309 17.0188 19.5202 18.6697 19.5202H20.0731V23.936C20.0734 24.999 20.49 25.9966 21.2466 26.7448ZM19.4819 17.1763L23.7175 12.2157C23.9341 12.0168 24.1506 12.0168 24.3672 12.2157L28.6028 17.1763H26.8223C26.1752 17.1763 25.6505 17.701 25.6505 18.3482V23.9359C25.6505 24.8137 24.9333 25.5359 24.0519 25.5457C23.0581 25.4632 22.5133 24.9266 22.4172 23.9359V18.3482C22.4172 17.701 21.8925 17.1763 21.2453 17.1763H19.4819Z" fill="#00B0F0"/>
<path d="M13.0134 17.6347C12.1081 17.3164 10.1874 16.9675 9.84314 15.8755C9.74173 15.1244 10.0409 14.587 10.7408 14.2634C11.5127 14.032 12.3491 14.1811 12.9344 14.6002C14.2611 15.5469 15.5374 14.1409 14.5195 12.8738C14.1433 12.5283 13.4428 12.1014 12.5284 11.9066V11.418C12.5284 10.7708 12.0038 10.2461 11.3566 10.2461C10.7094 10.2461 10.1847 10.7708 10.1847 11.418V11.988C8.29923 12.5066 7.00251 14.6591 7.60782 16.5798C8.23298 18.5634 10.4949 19.2334 12.2355 19.8455C13.4505 20.273 13.4459 21.2152 13.3875 21.6005C13.2652 22.4075 12.5638 23.2975 11.3127 23.3444C10.1878 23.3867 9.64751 23.1234 8.89438 22.685C8.33501 22.3594 7.61767 22.5487 7.29204 23.1081C6.96657 23.6675 7.15595 24.3848 7.71517 24.7105C8.41704 25.1191 9.1461 25.4925 10.1847 25.6328V26.1945C10.1847 26.8417 10.7094 27.3664 11.3566 27.3664C12.0038 27.3664 12.5284 26.8417 12.5284 26.1945V25.5083C14.1945 25.0391 15.4408 23.693 15.7049 21.9517C15.9994 20.0083 14.943 18.3138 13.0134 17.6347Z" fill="#00B0F0"/>
</svg>
