<svg width="50" height="50" viewBox="0 0 50 50" fill="none" xmlns="http://www.w3.org/2000/svg">
<g clip-path="url(#clip0_2513_47616)">
<circle cx="25" cy="25" r="25" fill="white"/>
<path d="M31.8755 21.2484C30.7564 21.2479 29.6547 21.5247 28.6687 22.0541C28.5788 21.8171 28.4188 21.6131 28.2102 21.4692C28.0015 21.3253 27.754 21.2483 27.5005 21.2484H22.5005C22.3363 21.2483 22.1737 21.2806 22.022 21.3434C21.8703 21.4061 21.7325 21.4982 21.6164 21.6143C21.5003 21.7304 21.4083 21.8682 21.3455 22.0199C21.2827 22.1716 21.2504 22.3342 21.2505 22.4984V37.4984C21.2504 37.6626 21.2827 37.8252 21.3455 37.9769C21.4083 38.1286 21.5003 38.2664 21.6164 38.3825C21.7325 38.4986 21.8703 38.5907 22.022 38.6534C22.1737 38.7162 22.3363 38.7485 22.5005 38.7484H27.5005C27.6647 38.7485 27.8273 38.7162 27.979 38.6534C28.1307 38.5907 28.2685 38.4986 28.3846 38.3825C28.5007 38.2664 28.5928 38.1286 28.6556 37.9769C28.7183 37.8252 28.7506 37.6626 28.7505 37.4984V30.6234C28.7505 30.2919 28.8822 29.9739 29.1166 29.7395C29.351 29.5051 29.669 29.3734 30.0005 29.3734C30.332 29.3734 30.65 29.5051 30.8844 29.7395C31.1188 29.9739 31.2505 30.2919 31.2505 30.6234V37.4984C31.2504 37.6626 31.2827 37.8252 31.3455 37.9769C31.4083 38.1286 31.5003 38.2664 31.6164 38.3825C31.7325 38.4986 31.8703 38.5907 32.022 38.6534C32.1737 38.7162 32.3363 38.7485 32.5005 38.7484H37.5005C37.6647 38.7485 37.8273 38.7162 37.979 38.6534C38.1307 38.5907 38.2685 38.4986 38.3846 38.3825C38.5007 38.2664 38.5928 38.1286 38.6556 37.9769C38.7183 37.8252 38.7506 37.6626 38.7505 37.4984V28.1234C38.7482 26.3007 38.0232 24.5534 36.7344 23.2645C35.4455 21.9757 33.6982 21.2507 31.8755 21.2484ZM36.2505 36.2484H33.7505V30.6234C33.7505 29.6288 33.3554 28.675 32.6522 27.9717C31.9489 27.2685 30.9951 26.8734 30.0005 26.8734C29.006 26.8734 28.0521 27.2685 27.3489 27.9717C26.6456 28.675 26.2505 29.6288 26.2505 30.6234V36.2484H23.7505V23.7484H26.2505V24.6273C26.2507 24.8863 26.3312 25.1389 26.4811 25.3501C26.6309 25.5614 26.8427 25.7209 27.0871 25.8066C27.3314 25.8924 27.5964 25.9001 27.8454 25.8288C28.0944 25.7575 28.3151 25.6107 28.4771 25.4086C29.038 24.6961 29.8075 24.1766 30.678 23.9226C31.5485 23.6686 32.4766 23.6928 33.3327 23.9918C34.1888 24.2908 34.9301 24.8496 35.4532 25.5903C35.9763 26.331 36.2551 27.2166 36.2505 28.1234V36.2484ZM18.7505 21.2484H13.7505C13.5863 21.2483 13.4237 21.2806 13.272 21.3434C13.1203 21.4061 12.9825 21.4982 12.8664 21.6143C12.7503 21.7304 12.6583 21.8682 12.5955 22.0199C12.5327 22.1716 12.5004 22.3342 12.5005 22.4984V37.4984C12.5004 37.6626 12.5327 37.8252 12.5955 37.9769C12.6583 38.1286 12.7503 38.2664 12.8664 38.3825C12.9825 38.4986 13.1203 38.5907 13.272 38.6534C13.4237 38.7162 13.5863 38.7485 13.7505 38.7484H18.7505C18.9147 38.7485 19.0773 38.7162 19.229 38.6534C19.3807 38.5907 19.5185 38.4986 19.6346 38.3825C19.7507 38.2664 19.8428 38.1286 19.9056 37.9769C19.9683 37.8252 20.0006 37.6626 20.0005 37.4984V22.4984C20.0006 22.3342 19.9683 22.1716 19.9056 22.0199C19.8428 21.8682 19.7507 21.7304 19.6346 21.6143C19.5185 21.4982 19.3807 21.4061 19.229 21.3434C19.0773 21.2806 18.9147 21.2483 18.7505 21.2484ZM17.5005 36.2484H15.0005V23.7484H17.5005V36.2484ZM16.2688 11.9271C15.7218 11.8944 15.1738 11.9733 14.6582 12.1589C14.1426 12.3446 13.6701 12.6333 13.2695 13.0073C12.869 13.3813 12.5487 13.8328 12.3281 14.3345C12.1075 14.8362 11.9913 15.3775 11.9865 15.9255C11.9817 16.4735 12.0884 17.0168 12.3001 17.5222C12.5119 18.0277 12.8242 18.4848 13.2181 18.8658C13.6121 19.2468 14.0794 19.5437 14.5917 19.7384C15.1039 19.9331 15.6505 20.0215 16.198 19.9984H16.2334C16.7819 20.031 17.3313 19.9514 17.848 19.7645C18.3647 19.5775 18.8378 19.2872 19.2385 18.9113C19.6392 18.5353 19.9591 18.0816 20.1785 17.5779C20.398 17.0741 20.5124 16.5309 20.5148 15.9815C20.5172 15.432 20.4075 14.8878 20.1925 14.3822C19.9775 13.8765 19.6617 13.42 19.2643 13.0406C18.8669 12.6611 18.3963 12.3667 17.8813 12.1752C17.3662 11.9838 16.8176 11.8994 16.2688 11.9271H16.2688ZM16.2334 17.4984H16.198C15.9818 17.5246 15.7626 17.5044 15.5549 17.4389C15.3472 17.3735 15.1559 17.2644 14.9938 17.119C14.8317 16.9735 14.7026 16.7951 14.6152 16.5957C14.5277 16.3963 14.4838 16.1805 14.4866 15.9628C14.4866 15.0302 15.1861 14.4271 16.2688 14.4271C16.4872 14.398 16.7093 14.416 16.9201 14.48C17.1309 14.5439 17.3256 14.6523 17.491 14.7978C17.6564 14.9433 17.7887 15.1226 17.879 15.3236C17.9693 15.5245 18.0155 15.7425 18.0144 15.9628C18.0144 16.8954 17.315 17.4984 16.2334 17.4984Z" fill="#30454E"/>
</g>
<defs>
<clipPath id="clip0_2513_47616">
<rect width="50" height="50" fill="white"/>
</clipPath>
</defs>
</svg>
