<svg width="80" height="80" viewBox="0 0 80 80" fill="none" xmlns="http://www.w3.org/2000/svg">
<path d="M19.5216 51.6984C19.7299 51.9067 20.0029 52.0109 20.2757 52.0109C20.5485 52.0109 20.8216 51.9067 21.0299 51.6984L21.8757 50.8525L22.7216 51.6984C22.9299 51.9067 23.2029 52.0109 23.4757 52.0109C23.7485 52.0109 24.0216 51.9067 24.2299 51.6984C24.6464 51.2819 24.6464 50.6067 24.2299 50.1901L23.384 49.3443L24.2299 48.4984C24.6464 48.0819 24.6464 47.4067 24.2299 46.9901C23.8133 46.5736 23.1381 46.5736 22.7216 46.9901L21.8757 47.836L21.0299 46.9901C20.6133 46.5736 19.9381 46.5736 19.5216 46.9901C19.1051 47.4067 19.1051 48.0819 19.5216 48.4984L20.3675 49.3443L19.5216 50.1901C19.1048 50.6067 19.1048 51.2816 19.5216 51.6984Z" fill="#015467"/>
<path d="M53.3426 22.1461C55.1071 22.1461 56.5426 20.7106 56.5426 18.9461C56.5426 17.1816 55.1071 15.7461 53.3426 15.7461C51.578 15.7461 50.1426 17.1816 50.1426 18.9461C50.1426 20.7106 51.578 22.1461 53.3426 22.1461ZM53.3426 17.8794C53.9306 17.8794 54.4092 18.3581 54.4092 18.9461C54.4092 19.5341 53.9306 20.0128 53.3426 20.0128C52.7546 20.0128 52.2759 19.5341 52.2759 18.9461C52.2759 18.3581 52.7546 17.8794 53.3426 17.8794Z" fill="#015467"/>
<path d="M22.4085 40.2779C22.9976 40.2779 23.4751 39.8003 23.4751 39.2112C23.4751 38.6221 22.9976 38.1445 22.4085 38.1445C21.8194 38.1445 21.3418 38.6221 21.3418 39.2112C21.3418 39.8003 21.8194 40.2779 22.4085 40.2779Z" fill="#015467"/>
<path d="M67.2087 70.1452H57.3316L47.1692 36.8876L62.942 45.1892V57.3452H61.8754C61.2863 57.3452 60.8087 57.8228 60.8087 58.4119V65.8785C60.8087 66.4676 61.2863 66.9452 61.8754 66.9452H66.142C66.7311 66.9452 67.2087 66.4676 67.2087 65.8785V58.4119C67.2087 57.8228 66.7311 57.3452 66.142 57.3452H65.0754V44.8087L66.7791 41.5719C66.9108 41.3215 66.938 41.0292 66.854 40.7588C66.77 40.4884 66.5826 40.2631 66.3322 40.1311L47.8103 30.3825C47.2036 28.1041 45.1423 26.4119 42.6754 26.4119C42.0468 26.4119 41.4522 26.5407 40.8916 26.7415L26.8015 19.3257L29.7282 15.5796C29.9855 15.25 30.0266 14.8004 29.8335 14.4297L26.6322 8.29505C26.3666 7.78571 25.7468 7.57745 25.229 7.82465C22.1775 9.27211 19.1786 11.7564 16.7852 14.8199C12.393 20.442 10.6351 27.2263 12.4108 31.7025C12.5175 31.9708 12.7279 32.1844 12.9946 32.2948C13.1252 32.3489 13.2639 32.3761 13.4023 32.3761C13.5466 32.3761 13.6908 32.3471 13.8258 32.2887L17.8783 30.5356C18.0423 30.4647 18.1855 30.3537 18.2954 30.2132L23.0132 24.1743L37.3447 31.7169C37.3447 31.7265 37.3418 31.7356 37.3418 31.7452C37.3418 33.09 37.8586 34.3057 38.6831 35.2447L28.0191 70.1452H13.8754C13.2863 70.1452 12.8087 70.6228 12.8087 71.2119C12.8087 71.8009 13.2863 72.2785 13.8754 72.2785H67.2087C67.7978 72.2785 68.2754 71.8009 68.2754 71.2119C68.2754 70.6228 67.7978 70.1452 67.2087 70.1452ZM65.0754 64.8119H62.942V59.4785H65.0754V64.8119ZM35.5988 52.6399L36.8138 48.6641C36.8172 48.662 36.821 48.6617 36.8244 48.6596L42.6754 45.1489L48.5263 48.6596C48.5298 48.6617 48.5335 48.6623 48.5367 48.6641L49.7516 52.6399L42.6754 56.3641L35.5988 52.6399ZM40.3852 57.5697L32.8866 61.5164L34.9644 54.7167L40.3852 57.5697ZM38.6295 42.7217L40.602 43.9052L37.7439 45.6201L38.6295 42.7217ZM40.4991 36.6031C41.1652 36.9028 41.8986 37.0785 42.6754 37.0785C43.4519 37.0785 44.1852 36.9031 44.8514 36.6033L46.0786 40.6193L42.6754 42.6612L39.2719 40.6193L40.4991 36.6031ZM47.6066 45.6199L44.7484 43.9052L46.721 42.7217L47.6066 45.6199ZM50.3863 54.7167L52.4642 61.5164L44.9655 57.5697L50.3863 54.7167ZM63.5618 43.1044L47.2175 34.5023C47.5274 33.9937 47.7684 33.4385 47.8943 32.8372L64.3946 41.5215L63.5618 43.1044ZM45.8754 31.7452C45.8754 33.5097 44.4399 34.9452 42.6754 34.9452C40.9108 34.9452 39.4754 33.5097 39.4754 31.7452C39.4754 29.9807 40.9108 28.5452 42.6754 28.5452C44.4399 28.5452 45.8754 29.9804 45.8754 31.7452ZM16.782 28.6852L14.0668 29.8591C13.1954 26.0748 14.873 20.7324 18.4663 16.1335C20.4167 13.6366 22.7887 11.5678 25.2303 10.2204L27.6236 14.8068L16.782 28.6852ZM24.3479 22.466L25.4668 21.0337L38.8306 28.0671C38.4151 28.5012 38.0743 29.0039 37.8234 29.558L24.3479 22.466ZM32.009 64.3889L42.6754 58.7751L53.3418 64.3889L55.1007 70.1452H30.2503L32.009 64.3889Z" fill="#015467"/>
</svg>
