<svg width="95" height="126" viewBox="0 0 95 126" fill="none" xmlns="http://www.w3.org/2000/svg">
<path d="M88.6667 0H6.33333C2.83553 0 0 2.82061 0 6.3V119.7C0 123.179 2.83553 126 6.33333 126H88.6667C92.1645 126 95 123.179 95 119.7V6.3C95 2.82061 92.1645 0 88.6667 0Z" fill="#FB6A6A"/>
<path fill-rule="evenodd" clip-rule="evenodd" d="M73.9648 13.5C73.4822 13.5 73.0901 13.635 72.7886 13.905C72.5171 14.145 72.3814 14.46 72.3814 14.85V18H76.9052V22.5H72.3814V36H76.9052V40.5H63.3338V36H67.8576V22.5H63.3338V18H67.8576V13.95C67.8576 12.42 68.2949 11.22 69.1695 10.35C70.0441 9.45 71.1751 9 72.5624 9H79.1671V13.5L73.9648 13.5ZM21.7148 18V19.08C22.6497 18.36 23.856 18 25.3338 18H28.5005C31.1544 18 33.0997 18.57 34.3362 19.71C35.5727 20.82 36.1909 22.65 36.1909 25.2V33.3C36.1909 35.82 35.5576 37.65 34.2909 38.79C33.0544 39.93 31.1243 40.5 28.5005 40.5H22.6648V49.5H18.0957V18H21.7148ZM25.56 22.5C24.5647 22.5 23.8259 22.77 23.3433 23.31C22.8608 23.82 22.6195 24.375 22.6195 24.975L22.6648 36H28.2743C29.3901 36 30.2346 35.745 30.8076 35.235C31.3806 34.725 31.6671 34.005 31.6671 33.075V25.425C31.6671 24.495 31.3806 23.775 30.8076 23.265C30.2346 22.755 29.3901 22.5 28.2743 22.5H25.56ZM50.6671 40.5C52.0846 40.5 53.2909 40.155 54.2862 39.465V40.5H58.81V9H54.2862V18H48.6767C46.0528 18 43.8362 18.57 42.5695 19.71C41.333 20.85 40.7148 22.68 40.7148 25.2V33.3C40.7148 35.85 41.333 37.695 42.5695 38.835C43.806 39.945 45.7513 40.5 48.4052 40.5H50.6671ZM53.5624 35.235C53.0798 35.745 52.3409 36 51.3457 36H48.6314C47.5155 36 46.6711 35.745 46.0981 35.235C45.5251 34.725 45.2386 34.005 45.2386 33.075V25.425C45.2386 24.495 45.5251 23.775 46.0981 23.265C46.6711 22.755 47.5155 22.5 48.6314 22.5H54.2862V33.525C54.2862 34.125 54.0449 34.695 53.5624 35.235Z" fill="white"/>
<path opacity="0.7" d="M49.9178 59.1599C51.2387 59.7572 50.964 60.5312 50.5578 64.1878C50.1428 67.9594 48.7517 74.8492 46.0718 81.6269C43.389 88.3934 39.4086 95.0421 35.9397 99.9634C32.4736 104.888 29.5073 108.087 27.2453 109.935C24.9746 111.783 23.4052 112.276 22.3795 112.439C21.3624 112.602 20.9007 112.439 20.626 111.943C20.3513 111.449 20.2548 110.636 20.4916 109.643C20.7224 108.662 21.2748 107.512 22.8412 106.04C24.4223 104.562 27.0086 102.754 30.6179 101.074C34.2271 99.3913 38.8504 97.8322 42.6467 96.7638C46.443 95.7011 49.4005 95.1234 51.9898 94.6719C54.5849 94.2176 56.8031 93.8952 58.9774 93.7269C61.1517 93.5699 63.2851 93.5699 65.3659 93.7269C67.4467 93.8952 69.4807 94.2176 71.2429 94.6327C72.9964 95.0421 74.481 95.5328 75.7757 96.318C77.0674 97.0919 78.1809 98.1603 78.7332 99.3549C79.2943 100.541 79.2943 101.859 78.8296 102.798C78.3679 103.743 77.4386 104.315 76.3777 104.649C75.3139 104.972 74.1128 105.053 72.6749 104.649C71.2429 104.234 69.5713 103.331 67.8178 102.142C66.0614 100.95 64.2086 99.4727 61.8063 97.176C59.3982 94.8794 56.4349 91.764 53.9391 88.7271C51.4433 85.6902 49.4005 82.7374 48.0123 80.2332C46.63 77.7291 45.8877 75.6793 45.2857 73.6294C44.6837 71.574 44.2219 69.5241 44.0378 67.679C43.8537 65.8338 43.9384 64.1878 44.1255 62.8726C44.3096 61.5659 44.5931 60.5732 45.0519 59.9142C45.5136 59.2693 46.1653 58.9328 46.6271 58.7701C47.0888 58.6075 47.3694 58.6075 47.6441 58.5654C47.9188 58.5234 48.1935 58.442 48.6173 58.5654C49.0206 58.6832 49.5554 58.9973 50.0902 59.3169" stroke="white" stroke-miterlimit="10" stroke-linejoin="round"/>
</svg>
