<svg width="515" height="625" viewBox="0 0 515 625" fill="none" xmlns="http://www.w3.org/2000/svg">
<path opacity="0.08" d="M59.9834 2.6748V135H31.5566V35.0068L0.859375 44.3613V22.3828L57.168 2.6748H59.9834ZM120.47 113.657H122.286C128.946 113.657 134.789 112.9 139.814 111.387C144.84 109.812 149.048 107.481 152.438 104.394C155.89 101.245 158.493 97.3398 160.249 92.6777C162.005 87.9551 162.883 82.3848 162.883 75.9668V49.8105C162.883 45.2695 162.459 41.334 161.611 38.0039C160.824 34.6133 159.644 31.7979 158.069 29.5576C156.495 27.3174 154.648 25.6523 152.529 24.5625C150.41 23.4727 148.079 22.9277 145.536 22.9277C142.872 22.9277 140.511 23.624 138.452 25.0166C136.454 26.4092 134.729 28.2861 133.275 30.6475C131.822 33.0088 130.732 35.6729 130.006 38.6396C129.279 41.6064 128.916 44.6338 128.916 47.7217C128.916 51.0518 129.279 54.1699 130.006 57.0762C130.793 59.9824 131.913 62.5254 133.366 64.7051C134.819 66.8848 136.666 68.6104 138.906 69.8818C141.146 71.0928 143.75 71.6982 146.717 71.6982C149.684 71.6982 152.257 71.1533 154.437 70.0635C156.677 68.9736 158.554 67.5205 160.067 65.7041C161.642 63.8877 162.822 61.9199 163.609 59.8008C164.396 57.6211 164.79 55.4717 164.79 53.3525L173.509 59.165C173.509 63.2217 172.601 67.2178 170.784 71.1533C169.028 75.0889 166.576 78.6611 163.428 81.8701C160.279 85.0791 156.616 87.6523 152.438 89.5898C148.321 91.4668 143.932 92.4053 139.27 92.4053C133.215 92.4053 127.766 91.3154 122.922 89.1357C118.139 86.9561 114.082 83.8984 110.752 79.9629C107.422 75.9668 104.879 71.2441 103.123 65.7949C101.367 60.3457 100.489 54.3516 100.489 47.8125C100.489 41.3945 101.579 35.3701 103.759 29.7393C105.938 24.0479 109.026 19.0527 113.022 14.7539C117.019 10.4551 121.771 7.06445 127.281 4.58203C132.852 2.09961 138.997 0.858398 145.718 0.858398C152.317 0.858398 158.372 2.12988 163.882 4.67285C169.392 7.15527 174.205 10.7275 178.322 15.3896C182.439 20.0518 185.618 25.7129 187.858 32.373C190.159 39.0332 191.31 46.541 191.31 54.8965V64.7051C191.31 73.666 190.28 81.9004 188.222 89.4082C186.163 96.916 183.136 103.576 179.14 109.389C175.204 115.201 170.421 120.136 164.79 124.192C159.22 128.249 152.893 131.337 145.809 133.456C138.785 135.515 131.096 136.544 122.74 136.544H120.47V113.657ZM299.84 2.76562V18.0234L249.525 135H219.555L269.869 24.835H205.387V2.76562H299.84ZM406.735 98.6719C406.735 107.027 404.768 114.051 400.832 119.742C396.896 125.434 391.508 129.702 384.666 132.548C377.885 135.394 370.135 136.816 361.416 136.816C352.758 136.816 344.978 135.394 338.075 132.548C331.233 129.702 325.814 125.434 321.818 119.742C317.822 114.051 315.824 107.027 315.824 98.6719C315.824 92.9805 316.944 87.8643 319.185 83.3232C321.485 78.7822 324.664 74.9072 328.721 71.6982C332.838 68.4893 337.651 66.0371 343.161 64.3418C348.731 62.6465 354.756 61.7988 361.234 61.7988C369.953 61.7988 377.733 63.3125 384.575 66.3398C391.478 69.3066 396.896 73.5449 400.832 79.0547C404.768 84.5645 406.735 91.1035 406.735 98.6719ZM378.218 96.583C378.218 92.708 377.491 89.4385 376.038 86.7744C374.646 84.0498 372.678 81.9609 370.135 80.5078C367.592 78.9941 364.625 78.2373 361.234 78.2373C357.844 78.2373 354.877 78.9941 352.334 80.5078C349.791 81.9609 347.793 84.0498 346.34 86.7744C344.947 89.4385 344.251 92.708 344.251 96.583C344.251 100.337 344.978 103.606 346.431 106.392C347.884 109.116 349.882 111.205 352.425 112.658C354.968 114.051 357.965 114.747 361.416 114.747C364.867 114.747 367.834 114.051 370.316 112.658C372.799 111.205 374.736 109.116 376.129 106.392C377.521 103.606 378.218 100.337 378.218 96.583ZM403.92 37.9131C403.92 44.7549 402.104 50.7793 398.471 55.9863C394.898 61.1328 389.903 65.1592 383.485 68.0654C377.067 70.9111 369.711 72.334 361.416 72.334C353.121 72.334 345.734 70.9111 339.256 68.0654C332.838 65.1592 327.782 61.1328 324.089 55.9863C320.456 50.7793 318.64 44.7549 318.64 37.9131C318.64 29.9209 320.456 23.1699 324.089 17.6602C327.782 12.1504 332.838 7.97266 339.256 5.12695C345.674 2.28125 353 0.858398 361.234 0.858398C369.59 0.858398 376.977 2.28125 383.395 5.12695C389.812 7.97266 394.838 12.1504 398.471 17.6602C402.104 23.1699 403.92 29.9209 403.92 37.9131ZM375.584 39.3662C375.584 36.0361 375.009 33.1602 373.858 30.7383C372.769 28.2559 371.164 26.3486 369.045 25.0166C366.926 23.624 364.322 22.9277 361.234 22.9277C358.268 22.9277 355.725 23.5938 353.605 24.9258C351.486 26.1973 349.852 28.0742 348.701 30.5566C347.611 32.9785 347.066 35.915 347.066 39.3662C347.066 42.7568 347.611 45.7236 348.701 48.2666C349.852 50.749 351.486 52.7168 353.605 54.1699C355.785 55.5625 358.389 56.2588 361.416 56.2588C364.504 56.2588 367.077 55.5625 369.136 54.1699C371.255 52.7168 372.859 50.749 373.949 48.2666C375.039 45.7236 375.584 42.7568 375.584 39.3662Z" fill="#015467"/>
<path opacity="0.08" d="M59.9834 490.675V623H31.5566V523.007L0.859375 532.361V510.383L57.168 490.675H59.9834ZM120.47 601.657H122.286C128.946 601.657 134.789 600.9 139.814 599.387C144.84 597.812 149.048 595.481 152.438 592.394C155.89 589.245 158.493 585.34 160.249 580.678C162.005 575.955 162.883 570.385 162.883 563.967V537.811C162.883 533.27 162.459 529.334 161.611 526.004C160.824 522.613 159.644 519.798 158.069 517.558C156.495 515.317 154.648 513.652 152.529 512.562C150.41 511.473 148.079 510.928 145.536 510.928C142.872 510.928 140.511 511.624 138.452 513.017C136.454 514.409 134.729 516.286 133.275 518.647C131.822 521.009 130.732 523.673 130.006 526.64C129.279 529.606 128.916 532.634 128.916 535.722C128.916 539.052 129.279 542.17 130.006 545.076C130.793 547.982 131.913 550.525 133.366 552.705C134.819 554.885 136.666 556.61 138.906 557.882C141.146 559.093 143.75 559.698 146.717 559.698C149.684 559.698 152.257 559.153 154.437 558.063C156.677 556.974 158.554 555.521 160.067 553.704C161.642 551.888 162.822 549.92 163.609 547.801C164.396 545.621 164.79 543.472 164.79 541.353L173.509 547.165C173.509 551.222 172.601 555.218 170.784 559.153C169.028 563.089 166.576 566.661 163.428 569.87C160.279 573.079 156.616 575.652 152.438 577.59C148.321 579.467 143.932 580.405 139.27 580.405C133.215 580.405 127.766 579.315 122.922 577.136C118.139 574.956 114.082 571.898 110.752 567.963C107.422 563.967 104.879 559.244 103.123 553.795C101.367 548.346 100.489 542.352 100.489 535.812C100.489 529.395 101.579 523.37 103.759 517.739C105.938 512.048 109.026 507.053 113.022 502.754C117.019 498.455 121.771 495.064 127.281 492.582C132.852 490.1 138.997 488.858 145.718 488.858C152.317 488.858 158.372 490.13 163.882 492.673C169.392 495.155 174.205 498.728 178.322 503.39C182.439 508.052 185.618 513.713 187.858 520.373C190.159 527.033 191.31 534.541 191.31 542.896V552.705C191.31 561.666 190.28 569.9 188.222 577.408C186.163 584.916 183.136 591.576 179.14 597.389C175.204 603.201 170.421 608.136 164.79 612.192C159.22 616.249 152.893 619.337 145.809 621.456C138.785 623.515 131.096 624.544 122.74 624.544H120.47V601.657ZM299.386 586.672C299.386 595.027 297.418 602.051 293.482 607.742C289.547 613.434 284.158 617.702 277.316 620.548C270.535 623.394 262.785 624.816 254.066 624.816C245.408 624.816 237.628 623.394 230.726 620.548C223.884 617.702 218.465 613.434 214.469 607.742C210.473 602.051 208.475 595.027 208.475 586.672C208.475 580.98 209.595 575.864 211.835 571.323C214.136 566.782 217.314 562.907 221.371 559.698C225.488 556.489 230.302 554.037 235.812 552.342C241.382 550.646 247.406 549.799 253.885 549.799C262.604 549.799 270.384 551.312 277.226 554.34C284.128 557.307 289.547 561.545 293.482 567.055C297.418 572.564 299.386 579.104 299.386 586.672ZM270.868 584.583C270.868 580.708 270.142 577.438 268.688 574.774C267.296 572.05 265.328 569.961 262.785 568.508C260.242 566.994 257.275 566.237 253.885 566.237C250.494 566.237 247.527 566.994 244.984 568.508C242.441 569.961 240.443 572.05 238.99 574.774C237.598 577.438 236.901 580.708 236.901 584.583C236.901 588.337 237.628 591.606 239.081 594.392C240.534 597.116 242.532 599.205 245.075 600.658C247.618 602.051 250.615 602.747 254.066 602.747C257.518 602.747 260.484 602.051 262.967 600.658C265.449 599.205 267.387 597.116 268.779 594.392C270.172 591.606 270.868 588.337 270.868 584.583ZM296.57 525.913C296.57 532.755 294.754 538.779 291.121 543.986C287.549 549.133 282.554 553.159 276.136 556.065C269.718 558.911 262.361 560.334 254.066 560.334C245.771 560.334 238.385 558.911 231.906 556.065C225.488 553.159 220.433 549.133 216.739 543.986C213.106 538.779 211.29 532.755 211.29 525.913C211.29 517.921 213.106 511.17 216.739 505.66C220.433 500.15 225.488 495.973 231.906 493.127C238.324 490.281 245.65 488.858 253.885 488.858C262.24 488.858 269.627 490.281 276.045 493.127C282.463 495.973 287.488 500.15 291.121 505.66C294.754 511.17 296.57 517.921 296.57 525.913ZM268.234 527.366C268.234 524.036 267.659 521.16 266.509 518.738C265.419 516.256 263.814 514.349 261.695 513.017C259.576 511.624 256.973 510.928 253.885 510.928C250.918 510.928 248.375 511.594 246.256 512.926C244.137 514.197 242.502 516.074 241.352 518.557C240.262 520.979 239.717 523.915 239.717 527.366C239.717 530.757 240.262 533.724 241.352 536.267C242.502 538.749 244.137 540.717 246.256 542.17C248.436 543.562 251.039 544.259 254.066 544.259C257.154 544.259 259.728 543.562 261.786 542.17C263.905 540.717 265.51 538.749 266.6 536.267C267.689 533.724 268.234 530.757 268.234 527.366ZM341.617 563.422L319.094 558.063L326.813 490.766H402.558V513.198H350.063L346.885 541.08C348.52 540.111 351.093 539.052 354.604 537.901C358.116 536.69 362.052 536.085 366.411 536.085C372.89 536.085 378.642 537.084 383.667 539.082C388.692 541.08 392.931 543.986 396.382 547.801C399.894 551.555 402.527 556.187 404.283 561.696C406.1 567.206 407.008 573.473 407.008 580.496C407.008 586.309 406.1 591.879 404.283 597.207C402.467 602.475 399.682 607.197 395.928 611.375C392.234 615.492 387.542 618.762 381.851 621.184C376.159 623.605 369.469 624.816 361.779 624.816C355.967 624.816 350.336 623.938 344.887 622.183C339.438 620.427 334.533 617.884 330.174 614.554C325.875 611.163 322.454 607.046 319.911 602.202C317.429 597.358 316.157 591.909 316.097 585.854H344.433C344.735 589.366 345.613 592.394 347.066 594.937C348.52 597.419 350.487 599.356 352.97 600.749C355.452 602.081 358.328 602.747 361.598 602.747C364.746 602.747 367.41 602.142 369.59 600.931C371.77 599.659 373.495 597.934 374.767 595.754C376.099 593.574 377.067 591.031 377.673 588.125C378.278 585.219 378.581 582.101 378.581 578.771C378.581 575.319 378.188 572.231 377.4 569.507C376.613 566.722 375.402 564.36 373.768 562.423C372.133 560.425 370.044 558.911 367.501 557.882C365.019 556.792 362.021 556.247 358.51 556.247C353.908 556.247 350.306 557.004 347.702 558.518C345.099 560.031 343.07 561.666 341.617 563.422Z" fill="#015467"/>
<g opacity="0.4" filter="url(#filter0_d_1228_72880)">
<circle cx="315" cy="315" r="147" fill="white"/>
<circle cx="315" cy="315" r="146.5" stroke="#015467"/>
</g>
<path d="M59.3818 246.675V379H30.9551V279.007L0.257812 288.361V266.383L56.5664 246.675H59.3818ZM119.868 357.657H121.685C128.345 357.657 134.188 356.9 139.213 355.387C144.238 353.812 148.446 351.481 151.837 348.394C155.288 345.245 157.892 341.34 159.647 336.678C161.403 331.955 162.281 326.385 162.281 319.967V293.811C162.281 289.27 161.857 285.334 161.01 282.004C160.223 278.613 159.042 275.798 157.468 273.558C155.894 271.317 154.047 269.652 151.928 268.562C149.809 267.473 147.478 266.928 144.935 266.928C142.271 266.928 139.909 267.624 137.851 269.017C135.853 270.409 134.127 272.286 132.674 274.647C131.221 277.009 130.131 279.673 129.404 282.64C128.678 285.606 128.314 288.634 128.314 291.722C128.314 295.052 128.678 298.17 129.404 301.076C130.191 303.982 131.312 306.525 132.765 308.705C134.218 310.885 136.064 312.61 138.305 313.882C140.545 315.093 143.148 315.698 146.115 315.698C149.082 315.698 151.655 315.153 153.835 314.063C156.075 312.974 157.952 311.521 159.466 309.704C161.04 307.888 162.221 305.92 163.008 303.801C163.795 301.621 164.188 299.472 164.188 297.353L172.907 303.165C172.907 307.222 171.999 311.218 170.183 315.153C168.427 319.089 165.975 322.661 162.826 325.87C159.678 329.079 156.015 331.652 151.837 333.59C147.72 335.467 143.33 336.405 138.668 336.405C132.613 336.405 127.164 335.315 122.32 333.136C117.537 330.956 113.48 327.898 110.15 323.963C106.82 319.967 104.277 315.244 102.521 309.795C100.766 304.346 99.8877 298.352 99.8877 291.812C99.8877 285.395 100.978 279.37 103.157 273.739C105.337 268.048 108.425 263.053 112.421 258.754C116.417 254.455 121.17 251.064 126.68 248.582C132.25 246.1 138.396 244.858 145.116 244.858C151.716 244.858 157.771 246.13 163.28 248.673C168.79 251.155 173.604 254.728 177.721 259.39C181.838 264.052 185.017 269.713 187.257 276.373C189.558 283.033 190.708 290.541 190.708 298.896V308.705C190.708 317.666 189.679 325.9 187.62 333.408C185.562 340.916 182.534 347.576 178.538 353.389C174.603 359.201 169.819 364.136 164.188 368.192C158.618 372.249 152.291 375.337 145.207 377.456C138.184 379.515 130.494 380.544 122.139 380.544H119.868V357.657ZM299.238 246.766V262.023L248.924 379H218.953L269.268 268.835H204.785V246.766H299.238ZM334.567 357.657H336.384C343.044 357.657 348.887 356.9 353.912 355.387C358.938 353.812 363.146 351.481 366.536 348.394C369.987 345.245 372.591 341.34 374.347 336.678C376.103 331.955 376.98 326.385 376.98 319.967V293.811C376.98 289.27 376.557 285.334 375.709 282.004C374.922 278.613 373.741 275.798 372.167 273.558C370.593 271.317 368.746 269.652 366.627 268.562C364.508 267.473 362.177 266.928 359.634 266.928C356.97 266.928 354.608 267.624 352.55 269.017C350.552 270.409 348.826 272.286 347.373 274.647C345.92 277.009 344.83 279.673 344.104 282.64C343.377 285.606 343.014 288.634 343.014 291.722C343.014 295.052 343.377 298.17 344.104 301.076C344.891 303.982 346.011 306.525 347.464 308.705C348.917 310.885 350.764 312.61 353.004 313.882C355.244 315.093 357.848 315.698 360.814 315.698C363.781 315.698 366.354 315.153 368.534 314.063C370.774 312.974 372.651 311.521 374.165 309.704C375.739 307.888 376.92 305.92 377.707 303.801C378.494 301.621 378.888 299.472 378.888 297.353L387.606 303.165C387.606 307.222 386.698 311.218 384.882 315.153C383.126 319.089 380.674 322.661 377.525 325.87C374.377 329.079 370.714 331.652 366.536 333.59C362.419 335.467 358.029 336.405 353.367 336.405C347.312 336.405 341.863 335.315 337.02 333.136C332.236 330.956 328.18 327.898 324.85 323.963C321.52 319.967 318.977 315.244 317.221 309.795C315.465 304.346 314.587 298.352 314.587 291.812C314.587 285.395 315.677 279.37 317.856 273.739C320.036 268.048 323.124 263.053 327.12 258.754C331.116 254.455 335.869 251.064 341.379 248.582C346.949 246.1 353.095 244.858 359.815 244.858C366.415 244.858 372.47 246.13 377.979 248.673C383.489 251.155 388.303 254.728 392.42 259.39C396.537 264.052 399.716 269.713 401.956 276.373C404.257 283.033 405.407 290.541 405.407 298.896V308.705C405.407 317.666 404.378 325.9 402.319 333.408C400.261 340.916 397.233 347.576 393.237 353.389C389.302 359.201 384.519 364.136 378.888 368.192C373.317 372.249 366.99 375.337 359.906 377.456C352.883 379.515 345.193 380.544 336.838 380.544H334.567V357.657Z" fill="#0282A0"/>
<defs>
<filter id="filter0_d_1228_72880" x="121" y="121" width="394" height="394" filterUnits="userSpaceOnUse" color-interpolation-filters="sRGB">
<feFlood flood-opacity="0" result="BackgroundImageFix"/>
<feColorMatrix in="SourceAlpha" type="matrix" values="0 0 0 0 0 0 0 0 0 0 0 0 0 0 0 0 0 0 127 0" result="hardAlpha"/>
<feOffset dx="3" dy="3"/>
<feGaussianBlur stdDeviation="25"/>
<feColorMatrix type="matrix" values="0 0 0 0 0 0 0 0 0 0.690196 0 0 0 0 0.941176 0 0 0 0.1 0"/>
<feBlend mode="normal" in2="BackgroundImageFix" result="effect1_dropShadow_1228_72880"/>
<feBlend mode="normal" in="SourceGraphic" in2="effect1_dropShadow_1228_72880" result="shape"/>
</filter>
</defs>
</svg>
