<svg width="50" height="50" viewBox="0 0 50 50" fill="none" xmlns="http://www.w3.org/2000/svg">
<g clip-path="url(#clip0_2513_47620)">
<circle cx="25" cy="25" r="25" fill="white"/>
<path d="M28.6125 23.1L24.8625 20.925C24.5293 20.7282 24.1495 20.6243 23.7625 20.6243C23.3755 20.6243 22.9957 20.7282 22.6625 20.925C22.3268 21.1142 22.0485 21.3907 21.857 21.7252C21.6656 22.0597 21.5682 22.4397 21.575 22.825V27.175C21.5682 27.5603 21.6656 27.9403 21.857 28.2748C22.0485 28.6093 22.3268 28.8858 22.6625 29.075C22.9957 29.2718 23.3755 29.3757 23.7625 29.3757C24.1495 29.3757 24.5293 29.2718 24.8625 29.075L28.6125 26.9C28.9331 26.7032 29.1979 26.4276 29.3816 26.0993C29.5652 25.771 29.6617 25.4012 29.6617 25.025C29.6617 24.6488 29.5652 24.279 29.3816 23.9507C29.1979 23.6224 28.9331 23.3468 28.6125 23.15V23.1ZM24.05 26.65V23.35L26.9 25L24.05 26.65ZM33.75 15H16.25C15.2554 15 14.3016 15.3951 13.5983 16.0983C12.8951 16.8016 12.5 17.7554 12.5 18.75V31.25C12.5 32.2446 12.8951 33.1984 13.5983 33.9017C14.3016 34.6049 15.2554 35 16.25 35H33.75C34.7446 35 35.6984 34.6049 36.4017 33.9017C37.1049 33.1984 37.5 32.2446 37.5 31.25V18.75C37.5 17.7554 37.1049 16.8016 36.4017 16.0983C35.6984 15.3951 34.7446 15 33.75 15ZM35 31.25C35 31.5815 34.8683 31.8995 34.6339 32.1339C34.3995 32.3683 34.0815 32.5 33.75 32.5H16.25C15.9185 32.5 15.6005 32.3683 15.3661 32.1339C15.1317 31.8995 15 31.5815 15 31.25V18.75C15 18.4185 15.1317 18.1005 15.3661 17.8661C15.6005 17.6317 15.9185 17.5 16.25 17.5H33.75C34.0815 17.5 34.3995 17.6317 34.6339 17.8661C34.8683 18.1005 35 18.4185 35 18.75V31.25Z" fill="#30454E"/>
</g>
<defs>
<clipPath id="clip0_2513_47620">
<rect width="50" height="50" fill="white"/>
</clipPath>
</defs>
</svg>
