<svg width="30" height="40" viewBox="0 0 30 40" fill="none" xmlns="http://www.w3.org/2000/svg">
  <path d="M28 0H2C0.89543 0 0 0.89543 0 2V38C0 39.1046 0.89543 40 2 40H28C29.1046 40 30 39.1046 30 38V2C30 0.89543 29.1046 0 28 0Z" fill="#A2ABB4"/>
  <path opacity="0.6" fill-rule="evenodd" clip-rule="evenodd" d="M8 17H7V18V33H8H22H23V18V17H16V18H22V32H8V18V17ZM10 17H12H13V18H15V19H13V20H15V21H13V22H15V23H13V24H15V25H13V26H14V30H11V26H12V24H10V23H12V22H10V21H12V20H10V19H12V18H10V17ZM13 27H12V29H13V27Z" fill="white"/>
  <path d="M15.5996 5V6H14.5996V5H15.5996Z" fill="white"/>
  <path d="M13.5996 8V7H15.5996V11H16.5996V12H13.5996V11H14.5996V8H13.5996Z" fill="white"/>
  <path d="M12.5996 12H8.59961V11L11.0996 8H8.59961V7H12.5996V8L10.2796 11H12.5996V12Z" fill="white"/>
  <path fill-rule="evenodd" clip-rule="evenodd" d="M18.3996 7V7.24C18.6063 7.08 18.8729 7 19.1996 7H19.8996C20.4863 7 20.9163 7.12667 21.1896 7.38C21.4629 7.62667 21.5996 8.03333 21.5996 8.6V10.4C21.5996 10.96 21.4596 11.3667 21.1796 11.62C20.9063 11.8733 20.4796 12 19.8996 12H18.6096V14H17.5996V7H18.3996ZM19.2496 8C19.0296 8 18.8663 8.06 18.7596 8.18C18.6529 8.29333 18.5996 8.41667 18.5996 8.55L18.6096 11H19.8496C20.0963 11 20.2829 10.9433 20.4096 10.83C20.5363 10.7167 20.5996 10.5567 20.5996 10.35V8.65C20.5996 8.44333 20.5363 8.28333 20.4096 8.17C20.2829 8.05667 20.0963 8 19.8496 8H19.2496Z" fill="white"/>
</svg>
