<svg width="80" height="80" viewBox="0 0 80 80" fill="none" xmlns="http://www.w3.org/2000/svg">
<path d="M46.1562 49.0636H58.7833C59.4305 49.0636 59.9552 48.5389 59.9552 47.8917V35.2646C59.9552 34.6175 59.4305 34.0928 58.7833 34.0928H46.1562C45.5091 34.0928 44.9844 34.6175 44.9844 35.2646V47.8917C44.9844 48.5389 45.5091 49.0636 46.1562 49.0636ZM47.3281 42.7501H51.2978V46.72H47.3281V42.7501ZM53.6417 46.7198V42.75H57.6116V46.7198H53.6417ZM57.6114 40.4064H53.6416V36.4367H57.6114V40.4064ZM51.298 36.4365V40.4062H47.3283V36.4365H51.298Z" fill="#00B0F0"/>
<path d="M21.2188 49.0636H33.8458C34.493 49.0636 35.0177 48.5389 35.0177 47.8917V35.2646C35.0177 34.6175 34.493 34.0928 33.8458 34.0928H21.2188C20.5716 34.0928 20.0469 34.6175 20.0469 35.2646V47.8917C20.0469 48.5389 20.5714 49.0636 21.2188 49.0636ZM22.3906 42.7501H26.3605V46.72H22.3906V42.7501ZM28.7041 46.7198V42.75H32.6737V46.7198H28.7041ZM32.6739 40.4064H28.7042V36.4367H32.6739V40.4064ZM26.3603 36.4365V40.4062H22.3905V36.4365H26.3603Z" fill="#00B0F0"/>
<path d="M78.8281 46.3297C79.4753 46.3297 80 45.805 80 45.1578V39.6844C80 39.0372 79.4753 38.5125 78.8281 38.5125H65.0055V34.3692C65.51 34.617 66.0505 34.742 66.5916 34.742C67.2087 34.742 67.8264 34.5806 68.3911 34.2575C69.5327 33.6042 70.2141 32.4291 70.2141 31.1141C70.2141 30.4864 70.0492 29.8647 69.7347 29.3111C69.4216 28.7667 68.9698 28.31 68.4261 27.9894L57.5355 21.5972C56.977 21.2692 56.2591 21.4566 55.9316 22.0147C55.6039 22.5728 55.7909 23.2909 56.3491 23.6186L67.2375 30.0095C67.4306 30.1234 67.5916 30.2861 67.7 30.4747C67.8114 30.6708 67.8703 30.8919 67.8703 31.1142C67.8703 31.783 67.4203 32.1128 67.2269 32.2234C67.0334 32.3341 66.5214 32.5548 65.9447 32.2161L40.5931 17.3364C40.2269 17.1214 39.773 17.1214 39.4067 17.3364L14.0542 32.2166C13.8525 32.3352 13.6366 32.3955 13.4125 32.3955C12.7956 32.3955 12.1297 31.9056 12.1297 31.1142C12.1297 30.6627 12.3719 30.2395 12.7605 30.0108L38.9938 14.613C39.6144 14.2495 40.3856 14.2495 41.0055 14.6123L51.632 20.8498C52.1898 21.1773 52.9081 20.9905 53.2359 20.4325C53.5636 19.8742 53.3766 19.1562 52.8186 18.8286L42.1908 12.5903C41.8672 12.4008 41.5244 12.2581 41.1722 12.1594V9.92H50.1019C50.4938 9.92 50.8597 9.72422 51.0769 9.39812C51.2942 9.07219 51.3342 8.65906 51.1836 8.29734L49.7931 4.96L51.1836 1.62266C51.3344 1.26094 51.2942 0.847969 51.0769 0.521875C50.8595 0.195781 50.4934 0 50.1016 0H40C39.3528 0 38.8281 0.524687 38.8281 1.17188V8.74813V12.1594C38.4756 12.2581 38.1325 12.4011 37.8084 12.5908L11.5727 27.9902C10.4705 28.6389 9.78578 29.8359 9.78578 31.1141C9.78578 33.1128 11.4127 34.7391 13.4123 34.7391C13.9584 34.7391 14.5 34.6109 14.9944 34.3689V38.5125H10.2203C9.57313 38.5125 9.04844 39.0372 9.04844 39.6844C9.04844 40.3316 9.57313 40.8563 10.2203 40.8563H14.9945V43.5633H6.22266C5.57547 43.5633 5.05078 44.088 5.05078 44.7352V54.6791C5.05078 55.3263 5.57547 55.8509 6.22266 55.8509H14.9945V62.7608C14.6044 62.6067 14.1822 62.5169 13.7408 62.5052C13.1755 61.9392 12.4692 61.545 11.6861 61.3609C10.8333 60.6706 9.775 60.2941 8.66922 60.2941C7.56344 60.2941 6.50531 60.6705 5.65234 61.3609C4.86906 61.545 4.16281 61.9392 3.5975 62.5052C3.15609 62.5169 2.73391 62.6067 2.34375 62.7608V40.8563H4.75156C5.39875 40.8563 5.92344 40.3316 5.92344 39.6844C5.92344 39.0372 5.39875 38.5125 4.75156 38.5125H1.17188C0.524687 38.5125 0 39.0372 0 39.6844V78.8281C0 79.4753 0.524687 80 1.17188 80H78.8281C79.4753 80 80 79.4753 80 78.8281V50.6266C80 49.9794 79.4753 49.4547 78.8281 49.4547C78.1809 49.4547 77.6562 49.9794 77.6562 50.6266V62.7608C77.2661 62.6067 76.8439 62.5169 76.4025 62.5052C75.8372 61.9392 75.1309 61.545 74.3477 61.3609C73.4947 60.6706 72.4366 60.2941 71.3308 60.2941C70.225 60.2941 69.1667 60.6705 68.3139 61.3609C67.5306 61.545 66.8245 61.9392 66.2592 62.5052C65.8178 62.5169 65.3956 62.6067 65.0055 62.7608V55.8509H73.7773C74.4245 55.8509 74.9492 55.3263 74.9492 54.6791V44.7352C74.9492 44.088 74.4245 43.5633 73.7773 43.5633H65.0055V40.8563H77.6562V45.1578C77.6562 45.805 78.1809 46.3297 78.8281 46.3297ZM47.4416 5.41078L48.3438 7.57625H41.1719V2.34375H48.3438L47.4414 4.50922C47.3213 4.79781 47.3213 5.12234 47.4416 5.41078ZM40 19.7056L62.6617 33.0066V67.5547H47.4855V53.8898C47.4855 53.2427 46.9608 52.718 46.3136 52.718H33.6866C33.0394 52.718 32.5147 53.2427 32.5147 53.8898V67.5547H17.3384V33.0066L40 19.7056ZM17.3383 72.6055V69.8984H62.6616V72.6055H17.3383ZM45.1417 55.0617V67.5547H41.1719V55.0617H45.1417ZM38.8281 67.5547H34.8583V55.0617H38.8281V67.5547ZM7.39453 53.507V45.9069H14.9945V53.507H7.39453ZM3.69734 64.8475C3.75938 64.8475 3.83078 64.8542 3.91562 64.868C4.35109 64.9388 4.78938 64.7588 5.04953 64.4025C5.36547 63.97 5.82969 63.6887 6.35625 63.6103C6.5925 63.5752 6.81234 63.4686 6.98641 63.305C7.44422 62.8747 8.04172 62.6377 8.66906 62.6377C9.29641 62.6377 9.89391 62.8747 10.3517 63.305C10.5258 63.4686 10.7456 63.5752 10.9819 63.6103C11.5086 63.6886 11.9727 63.97 12.2888 64.4025C12.5491 64.7586 12.9872 64.9384 13.4227 64.868C13.5075 64.8542 13.5789 64.8475 13.6409 64.8475C14.3872 64.8475 14.9945 65.4547 14.9945 66.2011C14.9945 66.9475 14.3873 67.5547 13.6409 67.5547H3.69719C2.95094 67.5547 2.34359 66.9475 2.34359 66.2011C2.34359 65.4547 2.95094 64.8475 3.69734 64.8475ZM2.34375 69.8984H14.9945V72.6055H13.7989C13.1517 72.6055 12.627 73.1302 12.627 73.7773V77.6562H2.34375V69.8984ZM14.9708 74.9492H65.0292V77.6562H14.9708V74.9492ZM67.373 77.6562V73.7773C67.373 73.1302 66.8483 72.6055 66.2011 72.6055H65.0055V69.8984H77.6562V77.6562H67.373ZM66.3589 64.8475C66.4208 64.8475 66.4923 64.8542 66.5772 64.868C67.0127 64.9388 67.4508 64.7588 67.7111 64.4025C68.0272 63.97 68.4912 63.6886 69.018 63.6103C69.2542 63.5752 69.4741 63.4686 69.6481 63.305C70.1059 62.8747 70.7034 62.6377 71.3308 62.6377C71.9581 62.6377 72.5556 62.8747 73.0134 63.305C73.1875 63.4686 73.4073 63.5752 73.6436 63.6103C74.1703 63.6886 74.6344 63.97 74.9503 64.4025C75.2105 64.7588 75.6488 64.9384 76.0842 64.868C76.1691 64.8542 76.2405 64.8475 76.3025 64.8475C77.0488 64.8475 77.6561 65.4547 77.6561 66.2011C77.6561 66.9475 77.0489 67.5547 76.3025 67.5547H66.3587C65.6125 67.5547 65.0052 66.9475 65.0052 66.2011C65.0052 65.4547 65.6127 64.8475 66.3589 64.8475ZM72.6055 45.907V53.5072H65.0055V45.907H72.6055Z" fill="#00B0F0"/>
</svg>
