<svg width="80" height="80" viewBox="0 0 80 80" fill="none" xmlns="http://www.w3.org/2000/svg">
<path d="M74.1406 24.7881H68.8319C68.1847 24.7881 67.66 25.3128 67.66 25.96C67.66 26.6072 68.1847 27.1319 68.8319 27.1319H74.1406C76.0792 27.1319 77.6562 28.7089 77.6562 30.6475V77.5781C77.6562 77.6212 77.6212 77.6562 77.5781 77.6562H64.5344V72.9688H70.5206C71.85 72.9688 72.9364 71.8872 72.9425 70.5578L72.9688 64.7875C72.9811 63.4633 71.8672 62.3481 70.5469 62.3547H64.5344V57.735H70.5206C71.85 57.735 72.9364 56.6536 72.9425 55.3242L72.9688 49.5538C72.9811 48.2295 71.8672 47.1145 70.5469 47.1209H64.5344V42.4334H70.5206C71.85 42.4334 72.9364 41.3519 72.9425 40.0225L72.9688 34.252C72.9811 32.928 71.8672 31.8128 70.5469 31.8192H64.5344V19.6875C64.5344 16.4566 61.9059 13.8281 58.675 13.8281H54.9544C54.3547 6.10266 47.8767 0 40 0C32.1233 0 25.6453 6.10266 25.0456 13.8281H21.25C18.0191 13.8281 15.3906 16.4566 15.3906 19.6875V24.7881H5.85938C2.62844 24.7881 0 27.4166 0 30.6475V77.5781C0 78.9136 1.08641 80 2.42188 80H77.5781C78.9136 80 80 78.9136 80 77.5781V30.6475C80 27.4166 77.3716 24.7881 74.1406 24.7881ZM64.5344 34.1631H70.5469C70.5548 34.1631 70.5794 34.1631 70.6022 34.1861C70.625 34.2091 70.625 34.2334 70.625 34.2414L70.5989 40.0117C70.5988 40.0547 70.5636 40.0895 70.5208 40.0895H64.5344V34.1631ZM64.5344 49.4647H70.5469C70.5548 49.4647 70.5794 49.4647 70.6022 49.4877C70.625 49.5106 70.625 49.5352 70.625 49.5431L70.5989 55.3134C70.5988 55.3563 70.5636 55.3913 70.5208 55.3913H64.5344V49.4647ZM64.5344 64.6984H70.5469C70.5548 64.6984 70.5794 64.6984 70.6022 64.7214C70.625 64.7444 70.625 64.7689 70.625 64.7769L70.5989 70.5472C70.5988 70.59 70.5636 70.625 70.5208 70.625H64.5344V64.6984ZM15.3906 70.625H9.47969C9.43609 70.625 9.40172 70.5911 9.40156 70.5477L9.375 64.7775C9.375 64.7692 9.37484 64.7444 9.39781 64.7214C9.42062 64.6984 9.44516 64.6984 9.45312 64.6984H15.3906V70.625ZM15.3906 55.3906H9.47969C9.43609 55.3906 9.40172 55.3567 9.40156 55.3133L9.375 49.5431C9.375 49.535 9.37484 49.5106 9.39812 49.4872C9.42109 49.4641 9.44516 49.4641 9.45312 49.4641H15.3906V55.3906ZM15.3906 40.0891H9.47969C9.43609 40.0891 9.40172 40.0552 9.40156 40.0117L9.375 34.2416C9.375 34.2334 9.37484 34.2091 9.39812 34.1856C9.42109 34.1625 9.44516 34.1625 9.45312 34.1625H15.3906V40.0891ZM15.3906 31.8188H9.45312C8.12797 31.8114 7.01953 32.9297 7.03125 34.2523L7.05781 40.0225C7.06391 41.3516 8.15031 42.4328 9.47969 42.4328H15.3906V47.1203H9.45312C8.12797 47.113 7.01953 48.2314 7.03125 49.5539L7.05781 55.3242C7.06391 56.6533 8.15031 57.7345 9.47969 57.7345H15.3906V62.3548H9.45312C8.12719 62.3475 7.01953 63.465 7.03125 64.7884L7.05781 70.5587C7.06375 71.8875 8.15031 72.9688 9.47969 72.9688H15.3906V77.6562H2.42188C2.37875 77.6562 2.34375 77.6212 2.34375 77.5781V30.6475C2.34375 28.7089 3.92078 27.1319 5.85938 27.1319H15.3906V31.8188ZM40 2.34375C46.9788 2.34375 52.6562 8.02125 52.6562 15C52.6562 21.9788 46.9788 27.6562 40 27.6562C33.0212 27.6562 27.3438 21.9788 27.3438 15C27.3438 8.02125 33.0212 2.34375 40 2.34375ZM50.4725 77.6562H41.1719V57.0197H50.4725V77.6562ZM27.1838 54.6759V52.3322H52.8164V54.6759H27.1838ZM62.1906 77.6562H52.8162V57.0197C54.0395 57.0906 55.1678 56.1959 55.16 54.9103V52.0978C55.16 50.9347 54.2137 49.9884 53.0506 49.9884H26.9494C25.7862 49.9884 24.84 50.9347 24.84 52.0978V54.9103C24.8317 56.1419 25.9398 57.1478 27.1838 57.0197V65.318C27.1838 65.9652 27.7084 66.4898 28.3556 66.4898C29.0028 66.4898 29.5275 65.9652 29.5275 65.318V57.0197H38.8281V77.6562H29.5275V70.7867C29.5275 70.1395 29.0028 69.6148 28.3556 69.6148C27.7084 69.6148 27.1838 70.1395 27.1838 70.7867V77.6562H17.7344V19.6875C17.7344 17.7489 19.3114 16.1719 21.25 16.1719H25.0456C25.6453 23.8973 32.1233 30 40 30C47.8767 30 54.3547 23.8973 54.9544 16.1719H58.675C60.6136 16.1719 62.1906 17.7489 62.1906 19.6875V77.6562ZM36.4844 18.5156V23.2031C36.4844 24.3662 37.4306 25.3125 38.5938 25.3125H41.4062C42.5694 25.3125 43.5156 24.3662 43.5156 23.2031V18.5156H48.2031C49.3662 18.5156 50.3125 17.5694 50.3125 16.4062V13.5938C50.3125 12.4306 49.3662 11.4844 48.2031 11.4844H43.5156V6.79688C43.5156 5.63375 42.5694 4.6875 41.4062 4.6875H38.5938C37.4306 4.6875 36.4844 5.63375 36.4844 6.79688V11.4844H31.7969C30.6338 11.4844 29.6875 12.4306 29.6875 13.5938V16.4062C29.6875 17.5694 30.6338 18.5156 31.7969 18.5156H36.4844ZM32.0312 13.8281H37.1875C38.0922 13.8281 38.8281 13.0922 38.8281 12.1875V7.03125H41.1719V12.1875C41.1719 13.0922 41.9078 13.8281 42.8125 13.8281H47.9688V16.1719H42.8125C41.9078 16.1719 41.1719 16.9078 41.1719 17.8125V22.9688H38.8281V17.8125C38.8281 16.9078 38.0922 16.1719 37.1875 16.1719H32.0312V13.8281ZM35.3125 69.7092C35.9597 69.7092 36.4844 69.1845 36.4844 68.5373V66.1387C36.4844 65.4916 35.9597 64.9669 35.3125 64.9669C34.6653 64.9669 34.1406 65.4916 34.1406 66.1387V68.5373C34.1406 69.1845 34.6653 69.7092 35.3125 69.7092ZM35.2344 34.6875H24.8756C23.5461 34.6875 22.4597 35.7691 22.4537 37.0984L22.4277 42.8686C22.4136 44.1861 23.5264 45.3091 24.8495 45.3016H35.2344C36.5698 45.3016 37.6562 44.2152 37.6562 42.8797V37.1094C37.6562 35.7739 36.5698 34.6875 35.2344 34.6875ZM35.3125 42.8797C35.3125 42.9228 35.2775 42.9578 35.2344 42.9578H24.8494C24.8183 42.9619 24.767 42.9105 24.7712 42.8794L24.7973 37.1089C24.7975 37.0661 24.8325 37.0312 24.8755 37.0312H35.2344C35.2775 37.0312 35.3125 37.0662 35.3125 37.1094V42.8797ZM44.6875 69.7092C45.3347 69.7092 45.8594 69.1845 45.8594 68.5373V66.1387C45.8594 65.4916 45.3347 64.9669 44.6875 64.9669C44.0403 64.9669 43.5156 65.4916 43.5156 66.1387V68.5373C43.5156 69.1845 44.0403 69.7092 44.6875 69.7092ZM55.1131 34.6875H44.7656C43.4302 34.6875 42.3438 35.7739 42.3438 37.1094V42.8797C42.3438 44.2152 43.4302 45.3016 44.7656 45.3016H55.0869C56.4162 45.3016 57.5027 44.22 57.5088 42.8906L57.5348 37.1202C57.5473 35.7962 56.4333 34.6811 55.1131 34.6875ZM55.165 42.88C55.1648 42.9228 55.1297 42.9578 55.0869 42.9578H44.7656C44.7225 42.9578 44.6875 42.9228 44.6875 42.8797V37.1094C44.6875 37.0662 44.7225 37.0312 44.7656 37.0312H55.1131C55.1211 37.0312 55.1456 37.0312 55.1684 37.0542C55.1912 37.0772 55.1912 37.1016 55.1912 37.1095L55.165 42.88Z" fill="#00B0F0"/>
</svg>
