<svg width="80" height="62" viewBox="0 0 80 62" fill="none" xmlns="http://www.w3.org/2000/svg">
<path d="M21.4943 23.8052H11.5575C10.7685 23.8052 10.1289 24.4448 10.1289 25.2337V35.1743C10.1289 35.9632 10.7685 36.6029 11.5575 36.6029H21.4943C22.2832 36.6029 22.9228 35.9632 22.9228 35.1743V25.2337C22.9228 24.4448 22.2832 23.8052 21.4943 23.8052ZM20.0657 33.7457H12.986V26.6623H20.0657V33.7457Z" fill="#00B0F0"/>
<path d="M21.4943 8.09082H11.5575C10.7685 8.09082 10.1289 8.73046 10.1289 9.51939V19.4599C10.1289 20.2489 10.7685 20.8885 11.5575 20.8885H21.4943C22.2832 20.8885 22.9228 20.2489 22.9228 19.4599V9.51939C22.9228 8.73046 22.2832 8.09082 21.4943 8.09082ZM20.0657 18.0314H12.986V10.948H20.0657V18.0314Z" fill="#00B0F0"/>
<path d="M38.458 35.1743V25.2337C38.458 24.4448 37.8184 23.8052 37.0294 23.8052H27.0926C26.3037 23.8052 25.6641 24.4448 25.6641 25.2337V35.1743C25.6641 35.9632 26.3037 36.6029 27.0926 36.6029H37.0294C37.8184 36.6029 38.458 35.9634 38.458 35.1743ZM35.6009 33.7457H28.5212V26.6623H35.6009V33.7457Z" fill="#00B0F0"/>
<path d="M27.0926 20.8885H37.0294C37.8184 20.8885 38.458 20.2489 38.458 19.4599V9.51939C38.458 8.73046 37.8184 8.09082 37.0294 8.09082H27.0926C26.3037 8.09082 25.6641 8.73046 25.6641 9.51939V19.4599C25.6641 20.249 26.3035 20.8885 27.0926 20.8885ZM28.5212 10.948H35.6009V18.0314H28.5212V10.948Z" fill="#00B0F0"/>
<path d="M42.9872 36.6029H52.924C53.7129 36.6029 54.3525 35.9632 54.3525 35.1743V25.2337C54.3525 24.4448 53.7129 23.8052 52.924 23.8052H42.9872C42.1982 23.8052 41.5586 24.4448 41.5586 25.2337V35.1743C41.5586 35.9634 42.1981 36.6029 42.9872 36.6029ZM44.4157 26.6623H51.4954V33.7457H44.4157V26.6623Z" fill="#00B0F0"/>
<path d="M42.9872 20.8885H52.924C53.7129 20.8885 54.3525 20.2489 54.3525 19.4599V9.51939C54.3525 8.73046 53.7129 8.09082 52.924 8.09082H42.9872C42.1982 8.09082 41.5586 8.73046 41.5586 9.51939V19.4599C41.5586 20.249 42.1981 20.8885 42.9872 20.8885ZM44.4157 10.948H51.4954V18.0314H44.4157V10.948Z" fill="#00B0F0"/>
<path d="M58.6981 36.6029H68.6349C69.4238 36.6029 70.0635 35.9632 70.0635 35.1743V25.2337C70.0635 24.4448 69.4238 23.8052 68.6349 23.8052H58.6981C57.9092 23.8052 57.2695 24.4448 57.2695 25.2337V35.1743C57.2695 35.9634 57.909 36.6029 58.6981 36.6029ZM60.1267 26.6623H67.2063V33.7457H60.1267V26.6623Z" fill="#00B0F0"/>
<path d="M58.6981 20.8885H68.6349C69.4238 20.8885 70.0635 20.2489 70.0635 19.4599V9.51939C70.0635 8.73046 69.4238 8.09082 68.6349 8.09082H58.6981C57.9092 8.09082 57.2695 8.73046 57.2695 9.51939V19.4599C57.2695 20.249 57.909 20.8885 58.6981 20.8885ZM60.1267 10.948H67.2063V18.0314H60.1267V10.948Z" fill="#00B0F0"/>
<path d="M78.5714 58.1952H77.1205V45.4273C77.1205 45.4022 77.118 45.3777 77.1168 45.3529C77.118 45.3281 77.1205 45.3036 77.1205 45.2784C77.1205 44.4895 76.4809 43.8499 75.692 43.8499V3.80306C76.4602 3.77931 77.0759 3.15074 77.0759 2.37681C77.0759 1.58789 76.4362 0.948242 75.6473 0.948242H74.2634H5.73661H4.35268C3.56375 0.948242 2.92411 1.58789 2.92411 2.37681C2.92411 3.15074 3.53982 3.77931 4.30804 3.80306V43.85C3.51911 43.85 2.87946 44.4897 2.87946 45.2786C2.87946 45.3038 2.88196 45.3282 2.88321 45.3531C2.88196 45.3779 2.87946 45.4024 2.87946 45.4275V58.1954H1.42857C0.639643 58.1954 0 58.835 0 59.624C0 60.4129 0.639643 61.0525 1.42857 61.0525H78.5714C79.3604 61.0525 80 60.4129 80 59.624C80 58.835 79.3604 58.1952 78.5714 58.1952ZM17.2632 46.707V58.195H12.9855V46.707H17.2632ZM20.1204 46.707H24.3982V58.195H20.1204V46.707ZM27.2554 46.707H31.4286V58.195H27.2554V46.707ZM34.2857 42.3916H45.7032V58.1952H34.2857V42.3916ZM48.5604 46.707H52.9382V58.195H48.5604V46.707ZM55.7952 46.707H60.073V58.195H55.7952V46.707ZM62.9302 46.707H67.208V58.195H62.9302V46.707ZM70.0652 46.707H74.2634V58.195H70.0652V46.707ZM7.16518 3.80521H72.8348V43.8499H48.5604V42.3915H48.6832C49.4721 42.3915 50.1118 41.7518 50.1118 40.9629C50.1118 40.174 49.4721 39.5343 48.6832 39.5343H31.3171C30.5282 39.5343 29.8886 40.174 29.8886 40.9629C29.8886 41.7518 30.5282 42.3915 31.3171 42.3915H31.4286V43.8499H7.16518V3.80521ZM5.73661 46.707H10.1284V58.195H5.73661V46.707Z" fill="#00B0F0"/>
</svg>
