<svg width="80" height="70" viewBox="0 0 80 70" fill="none" xmlns="http://www.w3.org/2000/svg">
<path d="M76.292 25.2518C69.7478 22.0488 56.7207 20.8323 49.4313 20.4598V18.4179H50.9367C52.0312 18.4179 52.9218 17.5274 52.9218 16.4327V13.5502C52.9218 12.903 52.3973 12.3783 51.7499 12.3783C51.1026 12.3783 50.5781 12.903 50.5781 13.5502V16.0738C49.2523 16.0738 30.4355 16.0738 29.423 16.0738V5.55771H37.2512C37.8985 5.55771 38.423 5.03302 38.423 4.38583C38.423 3.73864 37.8985 3.21395 37.2512 3.21395H32.9133V1.74707C32.9133 1.09988 32.3888 0.575195 31.7415 0.575195C31.0941 0.575195 30.5696 1.09988 30.5696 1.74707V3.21395H29.0641C27.9696 3.21395 27.0791 4.10442 27.0791 5.19896V16.433C27.0791 17.5276 27.9694 18.4182 29.0641 18.4182H30.5696V20.4601C23.7666 20.8074 0 22.5887 0 29.4331C0 29.4342 0.00015625 29.4351 0.00015625 29.4362C0.00015625 34.8476 0.00015625 49.1589 0.00015625 55.1378C0.00015625 56.7081 1.24766 58.1148 3.70813 59.3191C9.77658 62.2892 21.4907 63.5349 28.1958 63.9728L27.3322 65.5603C26.4905 67.1074 27.5421 69.0047 29.2954 69.1114C36.2341 69.5347 43.6057 69.5328 50.6638 69.0814C52.4321 68.9681 53.481 67.055 52.636 65.5013L51.8045 63.9728C58.249 63.5519 80.0002 61.6566 80.0002 55.138C80.0002 52.5933 80.0002 51.0519 80.0002 50.1578C80.0002 49.3145 80.0002 49.0469 80.0002 49.0617C80.0002 47.065 80.0002 41.8337 80.0002 29.4332C80.0002 27.8627 78.7525 26.4562 76.292 25.2518ZM49.4312 22.806C67.9758 23.7656 77.6562 27.3015 77.6562 29.4331C77.6562 30.2546 75.4747 32.2598 67.2181 33.969C66.1262 34.195 65.0864 34.3848 63.9912 34.566C64.7092 33.9512 65.0654 33.2724 65.0654 32.5246C65.0654 28.4115 53.6506 27.1723 49.4312 26.802V22.806ZM32.913 18.418H47.0873V20.3562C42.4716 20.182 37.6662 20.1768 32.913 20.3562V18.418ZM32.913 22.7013C37.5148 22.5256 42.329 22.5196 47.0873 22.7013V26.6249C42.4991 26.3346 37.5215 26.3332 32.913 26.6249V22.7013ZM31.741 30.6049C32.3883 30.6049 32.9129 30.0803 32.9129 29.4331V28.9754C37.5274 28.676 42.4631 28.6754 47.0871 28.9754V29.4331C47.0871 30.0803 47.6117 30.6049 48.259 30.6049C48.9063 30.6049 49.4309 30.0803 49.4309 29.4331V29.1562C51.8899 29.3779 54.1684 29.6863 56.1621 30.0754C61.0825 31.0356 62.5533 32.1646 62.7145 32.5248C62.5534 32.8849 61.0825 34.014 56.1621 34.9742C47.116 36.7396 32.8966 36.7421 23.8375 34.9742C18.9172 34.014 17.4463 32.8849 17.285 32.5248C17.4461 32.1646 18.9171 31.0356 23.8375 30.0754C25.8313 29.6863 28.1097 29.3779 30.5688 29.1562V29.4331C30.5691 30.0803 31.0937 30.6049 31.741 30.6049ZM2.34407 29.4315C2.34688 28.609 4.53095 26.6052 12.7821 24.8973C17.7672 23.8654 23.8886 23.1518 30.5691 22.8062V26.8021C26.3574 27.1718 14.9349 28.4104 14.9349 32.5248C14.9349 33.2724 15.2911 33.9514 16.0091 34.5662C14.8891 34.3809 13.8105 34.182 12.7822 33.9692C4.52563 32.2599 2.34407 30.2548 2.34407 29.4332C2.34407 29.4326 2.34407 29.4321 2.34407 29.4315ZM2.34407 32.8457C14.0932 40.5418 65.8856 40.5689 77.6562 32.8457V36.0848C77.6562 36.9062 75.4747 38.9115 67.2181 40.6206C52.1924 43.7311 27.8013 43.7297 12.7822 40.6206C4.52563 38.9114 2.34407 36.9064 2.34407 36.0848V32.8457ZM28.9352 61.6717C10.7302 60.55 2.34407 57.0433 2.34407 55.1376V52.257C7.97173 55.9303 22.2094 57.3078 28.9352 57.7191V61.6717ZM28.9352 55.3714C11.0194 54.2605 2.34407 50.8181 2.34407 48.8395V46.0086C7.96267 49.6759 22.1668 51.0567 28.9352 51.4708V55.3714ZM50.5143 66.7422C43.5868 67.1853 36.311 67.1911 29.4382 66.7717C29.3941 66.7691 29.3693 66.721 29.3912 66.6803L30.7832 64.1216C36.8188 64.4225 43.1979 64.4217 49.2171 64.1216L50.5771 66.6213C50.6059 66.6735 50.5735 66.7383 50.5143 66.7422ZM43.4431 55.4416H36.5574C35.3776 55.4416 34.4177 56.4014 34.4177 57.5814V61.9167C33.659 61.8941 32.9576 61.8769 31.2793 61.798V50.7723C31.2793 50.7039 31.3382 50.6251 31.4263 50.6251H48.5742C48.6632 50.6251 48.7212 50.7048 48.7212 50.7723V61.798C47.0879 61.8747 46.4827 61.8897 45.5827 61.9167V57.5814C45.5827 56.4014 44.6227 55.4416 43.4431 55.4416ZM43.2388 57.7855V61.9717C41.0885 62.0088 39.3204 62.0158 36.7615 61.9717V57.7855H43.2388ZM50.4734 49.1586C50.0271 48.6322 49.3274 48.2814 48.5742 48.2814H31.4262C30.6929 48.2814 29.9841 48.6189 29.5268 49.1586C11.0378 48.08 2.34391 44.554 2.34391 42.5909V39.4953C14.091 47.2086 65.9315 47.1947 77.6561 39.4953V42.5909C77.6561 43.2858 76.1037 44.8723 70.2859 46.4097C65.2836 47.7317 58.2704 48.7036 50.4734 49.1586ZM77.6562 46.0084V48.8395C77.6562 49.5331 76.108 51.1172 70.3053 52.6533C65.429 53.9439 58.6345 54.902 51.0651 55.3714V51.4708C57.8239 51.0572 72.0359 49.6772 77.6562 46.0084ZM77.6562 55.1378C77.6562 55.9592 75.4747 57.9645 67.2181 59.6737C62.6423 60.6209 57.109 61.2995 51.0651 61.672V57.7192C57.7895 57.308 72.0287 55.9303 77.6562 52.2572V55.1378Z" fill="#00B0F0"/>
</svg>
