<svg width="385" height="234" viewBox="0 0 385 234" fill="none" xmlns="http://www.w3.org/2000/svg">
<path d="M353.382 210.146C353.382 217.736 358.465 224.004 364.81 224.004C371.156 224.004 376.228 217.736 376.228 210.146C376.228 202.555 371.176 196.297 364.81 196.297C358.445 196.297 353.382 202.555 353.382 210.146ZM356.879 210.146C356.879 204.383 360.489 199.806 364.81 199.806C369.121 199.806 372.732 204.373 372.732 210.146C372.732 215.918 369.131 220.495 364.81 220.495C362.646 220.495 360.669 219.354 359.224 217.481C357.78 215.608 356.879 213.013 356.879 210.146Z" fill="#015467" stroke="#015467" stroke-width="0.5"/>
<path d="M363.604 232.735C363.932 233.064 364.377 233.249 364.841 233.249C365.305 233.249 365.75 233.064 366.077 232.735C366.405 232.406 366.589 231.96 366.589 231.495V203.878C366.589 203.413 366.405 202.967 366.077 202.638C365.75 202.309 365.305 202.124 364.841 202.124C364.377 202.124 363.932 202.309 363.604 202.638C363.276 202.967 363.092 203.413 363.092 203.878V231.495C363.092 231.96 363.276 232.406 363.604 232.735Z" fill="#015467" stroke="#015467" stroke-width="0.5"/>
<path d="M359.156 211.309L359.156 211.309C359.159 212.821 359.758 214.27 360.823 215.34C361.889 216.409 363.333 217.011 364.84 217.014L364.84 217.014C366.347 217.011 367.792 216.409 368.857 215.34C369.922 214.27 370.522 212.821 370.524 211.309V211.309V210.446C370.524 209.981 370.34 209.535 370.013 209.206C369.685 208.877 369.24 208.692 368.776 208.692C368.312 208.692 367.867 208.877 367.539 209.206C367.212 209.535 367.028 209.981 367.028 210.446V211.309C367.028 211.892 366.797 212.45 366.386 212.862C365.976 213.274 365.42 213.505 364.84 213.505C364.26 213.505 363.704 213.274 363.294 212.862C362.883 212.45 362.653 211.892 362.653 211.309V210.446C362.653 209.981 362.469 209.535 362.141 209.206C361.813 208.877 361.368 208.692 360.904 208.692C360.44 208.692 359.995 208.877 359.668 209.206C359.34 209.535 359.156 209.981 359.156 210.446L359.156 211.309Z" fill="#015467" stroke="#015467" stroke-width="0.5"/>
<path d="M254.071 117.646L254.071 117.646L257.398 101.601L257.398 101.599L257.398 101.599C257.483 101.206 257.699 100.854 258.01 100.601C258.321 100.348 258.709 100.21 259.11 100.208L259.111 100.208L308.056 100.208C308.475 100.197 308.884 100.337 309.208 100.603C309.532 100.868 309.751 101.242 309.824 101.655L313.149 117.692C313.149 117.692 313.149 117.693 313.149 117.694C313.207 117.95 313.205 118.215 313.144 118.471C313.084 118.727 312.965 118.966 312.798 119.169L312.792 119.176L312.792 119.176C312.623 119.367 312.414 119.518 312.18 119.619C311.948 119.719 311.696 119.768 311.443 119.761H255.785H255.785V119.511L254.071 117.646ZM254.071 117.646C254.019 117.903 254.024 118.168 254.086 118.423C254.148 118.677 254.266 118.914 254.431 119.117L254.071 117.646ZM309.261 116.253H257.93L260.533 103.717H306.658L309.261 116.253Z" fill="#015467" stroke="#015467" stroke-width="0.5"/>
<path d="M298.63 231.553L298.63 231.553C298.615 232.016 298.417 232.455 298.081 232.773C297.746 233.09 297.299 233.261 296.838 233.249H267.622C267.158 233.249 266.713 233.064 266.385 232.735C266.058 232.406 265.874 231.96 265.874 231.495V195.394C265.873 195.063 265.966 194.739 266.142 194.459C266.317 194.179 266.568 193.955 266.866 193.811C267.163 193.668 267.495 193.612 267.823 193.65C268.151 193.688 268.461 193.819 268.718 194.026C268.718 194.026 268.718 194.026 268.718 194.026L297.964 217.55C297.965 217.55 297.965 217.55 297.966 217.551C298.173 217.713 298.34 217.921 298.455 218.158C298.571 218.395 298.63 218.656 298.63 218.92M298.63 231.553V218.92M298.63 231.553V231.545M298.63 231.553V231.545M298.63 218.92V231.545M298.63 218.92V231.545M295.093 219.712V229.741H269.33V198.994L295.093 219.712Z" fill="#015467" stroke="#015467" stroke-width="0.5"/>
<path d="M296.842 201.78L296.842 201.781C296.842 201.781 296.841 201.781 296.841 201.781C296.835 201.781 296.83 201.781 296.824 201.781L296.783 201.781L296.781 201.781L296.781 201.78C296.403 201.769 296.039 201.634 295.745 201.395C295.745 201.395 295.744 201.394 295.744 201.394L266.466 177.869L266.464 177.867C266.262 177.702 266.099 177.493 265.987 177.258C265.875 177.022 265.815 176.764 265.813 176.503L265.813 176.501L265.813 153.365L248.773 153.365C248.772 153.365 248.772 153.365 248.772 153.365H248.771V153.115C248.548 153.117 248.327 153.068 248.124 152.973C247.922 152.877 247.744 152.737 247.602 152.564L296.842 201.78ZM296.842 201.78C297.283 201.762 297.702 201.578 298.015 201.264C298.342 200.936 298.526 200.492 298.529 200.029V200.027V195.965H327.249C327.509 195.965 327.765 195.907 327.999 195.795C328.233 195.684 328.44 195.521 328.604 195.32C328.768 195.118 328.885 194.883 328.947 194.63C329.009 194.378 329.014 194.115 328.963 193.86L328.962 193.859L313.122 117.78C313.12 117.754 313.12 117.727 313.123 117.701L313.127 117.661L313.118 117.621C313.031 117.234 312.815 116.887 312.506 116.639L312.349 116.833L312.506 116.639C312.197 116.39 311.813 116.254 311.416 116.253H311.416L255.754 116.253L255.753 116.253C255.357 116.254 254.972 116.39 254.663 116.639C254.354 116.887 254.139 117.234 254.051 117.621L254.045 117.649V117.676V117.676V117.676V117.676V117.677V117.677V117.677V117.677V117.677V117.677V117.677V117.677V117.677V117.677V117.677V117.677V117.677V117.678V117.678V117.678V117.678V117.678V117.678V117.678V117.678V117.678V117.678V117.678V117.679V117.679V117.679V117.679V117.679V117.679V117.679V117.679V117.68V117.68V117.68V117.68V117.68V117.68V117.68V117.68V117.681V117.681V117.681V117.681V117.681V117.681V117.681V117.681V117.682V117.682V117.682V117.682V117.682V117.682V117.683V117.683V117.683V117.683V117.683V117.683V117.683V117.684V117.684V117.684V117.684V117.684V117.684V117.685V117.685V117.685V117.685V117.685V117.685V117.686V117.686V117.686V117.686V117.686V117.687V117.687V117.687V117.687V117.687V117.687V117.688V117.688V117.688V117.688V117.688V117.689V117.689V117.689V117.689V117.689V117.69V117.69V117.69V117.69V117.69V117.691V117.691V117.691V117.691V117.691V117.692V117.692V117.692V117.692V117.693V117.693V117.693V117.693V117.693V117.694V117.694V117.694V117.694V117.695V117.695V117.695V117.695V117.695V117.696V117.696V117.696V117.696V117.697V117.697V117.697V117.697V117.698V117.698V117.698V117.698V117.699V117.699V117.699V117.699V117.699V117.7V117.7V117.7V117.7V117.701V117.701V117.701V117.701V117.702V117.702V117.702V117.702V117.703V117.703V117.703V117.703V117.704V117.704V117.704V117.704V117.705V117.705V117.705V117.705V117.706V117.706V117.706V117.707V117.707V117.707V117.707V117.708V117.708V117.708V117.708V117.709V117.709V117.709V117.709V117.71V117.71V117.71V117.711V117.711V117.711V117.711V117.712V117.712V117.712V117.712V117.713V117.713V117.713V117.713V117.714V117.714V117.714V117.715V117.715V117.715V117.715V117.716V117.716V117.716V117.716V117.717V117.717V117.717V117.718V117.718V117.718V117.718V117.719V117.719V117.719V117.72V117.72V117.72V117.72V117.721V117.721V117.721V117.721V117.722V117.722V117.722V117.723V117.723V117.723V117.723V117.724V117.724V117.724V117.725V117.725V117.725V117.725V117.726V117.726V117.726V117.727V117.727V117.727V117.727V117.728V117.728V117.728V117.728V117.729V117.729V117.729V117.73V117.73V117.73V117.73V117.731V117.731V117.731V117.732V117.732V117.732V117.732V117.733V117.733V117.733V117.733V117.734V117.734V117.734V117.735V117.735V117.735V117.735V117.736V117.736V117.736V117.737V117.737V117.737V117.737V117.738V117.738V117.738V117.738V117.739V117.739V117.739V117.74V117.74V117.74V117.74V117.741V117.741V117.741V117.741V117.742V117.742V117.742V117.742V117.743V117.743V117.743V117.744V117.744V117.744V117.744V117.745V117.745V117.745V117.745V117.746V117.746V117.746V117.746V117.747V117.747V117.747V117.747V117.748V117.748V117.748V117.748V117.749V117.749V117.749V117.749V117.75V117.75V117.75V117.75V117.751V117.751L247.058 151.258C247.058 151.258 247.058 151.258 247.058 151.258L296.842 201.78ZM269.36 151.602V151.601C269.36 151.136 269.176 150.69 268.848 150.361C268.52 150.032 268.075 149.847 267.611 149.847H250.937L257.206 119.751H310.024L325.154 192.456H296.841C296.377 192.456 295.932 192.641 295.604 192.97C295.276 193.299 295.092 193.746 295.092 194.211V196.366L269.33 175.659L269.36 151.602Z" fill="#015467" stroke="#015467" stroke-width="0.5"/>
<path d="M296.842 220.624L296.842 220.624C296.836 220.624 296.83 220.624 296.823 220.624C296.823 220.624 296.823 220.624 296.823 220.624L296.842 220.624ZM296.842 220.624C297.298 220.616 297.732 220.431 298.055 220.107C298.381 219.779 298.566 219.335 298.569 218.872V218.87V200.028V200.027H298.319M296.842 220.624L297.905 198.658L297.907 198.659L297.75 198.854M298.319 200.027C298.32 199.801 298.269 199.578 298.17 199.374C298.071 199.171 297.928 198.993 297.75 198.854M298.319 200.027V218.87V200.027ZM297.75 198.854L297.904 198.657M297.75 198.854L297.904 198.657M297.904 198.657L268.658 175.134C268.657 175.134 268.657 175.133 268.657 175.133M297.904 198.657L268.657 175.133M268.657 175.133C268.4 174.926 268.09 174.796 267.762 174.758C267.434 174.72 267.103 174.775 266.805 174.919C266.508 175.062 266.257 175.287 266.081 175.567C265.906 175.847 265.813 176.171 265.813 176.501L268.657 175.133ZM265.813 176.502L265.813 195.344L265.813 195.345C265.814 195.607 265.873 195.865 265.985 196.102C266.098 196.338 266.262 196.546 266.465 196.711L266.466 196.712L295.744 220.237C295.744 220.237 295.745 220.238 295.745 220.238C296.05 220.485 296.429 220.622 296.821 220.624C296.821 220.624 296.822 220.624 296.823 220.624L265.813 176.502ZM269.33 180.102L295.092 200.819V215.219L269.33 194.502V180.102Z" fill="#015467" stroke="#015467" stroke-width="0.5"/>
<path d="M221.6 233.25H267.621C268.085 233.25 268.53 233.064 268.858 232.735C269.186 232.406 269.37 231.96 269.37 231.495V151.612C269.37 151.147 269.186 150.701 268.858 150.372C268.53 150.042 268.085 149.857 267.621 149.857H221.6C221.135 149.857 220.691 150.042 220.363 150.372C220.035 150.701 219.851 151.147 219.851 151.612V231.495C219.851 231.96 220.035 232.406 220.363 232.735C220.691 233.064 221.135 233.25 221.6 233.25ZM265.873 153.366V229.741H223.348V153.366H265.873Z" fill="#015467" stroke="#015467" stroke-width="0.5"/>
<path d="M296.861 233.249H340.545C341.009 233.249 341.454 233.064 341.782 232.735C342.11 232.406 342.294 231.96 342.294 231.495V194.211C342.294 193.746 342.11 193.3 341.782 192.971C341.454 192.642 341.009 192.457 340.545 192.457H296.861C296.397 192.457 295.952 192.642 295.624 192.971C295.296 193.3 295.112 193.746 295.112 194.211V231.495C295.112 231.96 295.296 232.406 295.624 232.735C295.952 233.064 296.397 233.249 296.861 233.249ZM338.797 195.965V229.741H298.609V195.965H338.797Z" fill="#015467" stroke="#015467" stroke-width="0.5"/>
<path d="M258.681 177.523L258.683 177.523C259.145 177.52 259.588 177.334 259.915 177.006C260.242 176.678 260.427 176.234 260.43 175.771V175.769V158.972C260.43 158.507 260.246 158.061 259.918 157.732C259.59 157.403 259.145 157.218 258.681 157.218H250.36C249.896 157.218 249.451 157.403 249.123 157.732C248.795 158.061 248.611 158.507 248.611 158.972V175.769C248.611 176.234 248.795 176.68 249.123 177.009L249.298 176.835L249.123 177.009C249.451 177.338 249.896 177.523 250.36 177.523L258.681 177.523ZM256.933 160.726V174.015H252.108V160.726H256.933Z" fill="#015467" stroke="#015467" stroke-width="0.5"/>
<path d="M229.224 177.009L229.401 176.833L229.224 177.009C229.551 177.338 229.996 177.523 230.46 177.523H238.782C239.246 177.523 239.69 177.338 240.018 177.009C240.346 176.68 240.53 176.234 240.53 175.769V158.972C240.53 158.507 240.346 158.061 240.018 157.732C239.69 157.403 239.246 157.218 238.782 157.218H230.46C229.996 157.218 229.551 157.403 229.224 157.732C228.896 158.061 228.712 158.507 228.712 158.972V175.769C228.712 176.234 228.896 176.68 229.224 177.009ZM237.033 160.726V174.015H232.209V160.726H237.033Z" fill="#015467" stroke="#015467" stroke-width="0.5"/>
<path d="M249.123 200.144L249.298 199.97L249.123 200.144C249.451 200.473 249.896 200.658 250.36 200.658H258.681C259.145 200.658 259.59 200.473 259.918 200.144C260.246 199.815 260.43 199.369 260.43 198.904V182.117C260.43 181.652 260.246 181.206 259.918 180.877C259.59 180.548 259.145 180.363 258.681 180.363H250.36C249.896 180.363 249.451 180.548 249.123 180.877C248.795 181.206 248.611 181.652 248.611 182.117V198.904C248.611 199.369 248.795 199.815 249.123 200.144ZM256.933 183.871V197.15H252.108V183.871H256.933Z" fill="#015467" stroke="#015467" stroke-width="0.5"/>
<path d="M229.224 200.144L229.401 199.968L229.224 200.144C229.551 200.473 229.996 200.658 230.46 200.658H238.782C239.246 200.658 239.691 200.473 240.018 200.144C240.346 199.815 240.53 199.369 240.53 198.904V182.117C240.53 181.652 240.346 181.206 240.018 180.877C239.691 180.548 239.246 180.363 238.782 180.363H230.46C229.996 180.363 229.551 180.548 229.224 180.877C228.896 181.206 228.712 181.652 228.712 182.117V198.904C228.712 199.369 228.896 199.815 229.224 200.144ZM237.033 183.871V197.15H232.209V183.871H237.033Z" fill="#015467" stroke="#015467" stroke-width="0.5"/>
<path d="M249.123 223.289L249.298 223.114L260.18 222.038H260.43V222.038V205.262C260.43 204.797 260.246 204.351 259.918 204.021C259.59 203.692 259.145 203.507 258.681 203.507H250.36C249.896 203.507 249.451 203.692 249.123 204.021C248.795 204.351 248.611 204.797 248.611 205.262V222.049C248.611 222.513 248.795 222.96 249.123 223.289ZM256.933 207.016V220.294H252.108V207.016H256.933Z" fill="#015467" stroke="#015467" stroke-width="0.5"/>
<path d="M229.224 223.289L229.401 223.112C229.682 223.394 230.063 223.553 230.46 223.553H238.782C238.979 223.553 239.175 223.514 239.357 223.437C239.54 223.361 239.705 223.249 239.845 223.109C239.984 222.968 240.094 222.801 240.169 222.617C240.244 222.434 240.281 222.237 240.28 222.038H240.53V222.038V205.262C240.53 204.797 240.346 204.351 240.018 204.021C239.69 203.692 239.246 203.507 238.782 203.507H230.46C229.996 203.507 229.551 203.692 229.224 204.021C228.896 204.351 228.712 204.797 228.712 205.262V222.049C228.712 222.513 228.896 222.96 229.224 223.289ZM237.033 207.016V220.294H232.209V207.016H237.033Z" fill="#015467" stroke="#015467" stroke-width="0.5"/>
<path d="M237.313 151.647L237.313 151.647V151.642V123.763C237.313 123.299 237.129 122.852 236.801 122.523C236.474 122.194 236.029 122.009 235.565 122.009H225.355C224.891 122.009 224.447 122.194 224.119 122.523C223.791 122.852 223.607 123.299 223.607 123.763V151.611C223.607 152.076 223.791 152.523 224.119 152.852C224.447 153.181 224.891 153.366 225.355 153.366H235.565C235.565 153.366 235.565 153.366 235.565 153.366C236.023 153.366 236.462 153.186 236.789 152.864C237.116 152.543 237.304 152.105 237.313 151.647ZM233.816 125.488V149.857H227.104V125.488H233.816Z" fill="#015467" stroke="#015467" stroke-width="0.5"/>
<path d="M329.058 221.924L329.058 221.924V221.919V205.994C329.058 205.529 328.874 205.083 328.546 204.754C328.218 204.425 327.774 204.24 327.31 204.24H311.446C310.982 204.24 310.537 204.425 310.21 204.754C309.882 205.083 309.698 205.529 309.698 205.994V221.888C309.698 222.353 309.882 222.799 310.21 223.129C310.537 223.458 310.982 223.643 311.446 223.643H327.31C327.31 223.643 327.31 223.643 327.31 223.643C327.768 223.643 328.207 223.462 328.534 223.141C328.861 222.819 329.049 222.382 329.058 221.924ZM325.561 207.718V220.134H313.195V207.718H325.561Z" fill="#015467" stroke="#015467" stroke-width="0.5"/>
<path d="M296.861 200.598H340.545C341.009 200.598 341.454 200.413 341.782 200.084C342.11 199.755 342.294 199.308 342.294 198.844C342.294 198.379 342.11 197.933 341.782 197.603C341.454 197.274 341.009 197.089 340.545 197.089H296.861C296.397 197.089 295.952 197.274 295.624 197.603C295.296 197.933 295.112 198.379 295.112 198.844C295.112 199.308 295.296 199.755 295.624 200.084C295.952 200.413 296.397 200.598 296.861 200.598Z" fill="#015467" stroke="#015467" stroke-width="0.5"/>
<path d="M291.597 110.887H309.578C310.042 110.887 310.487 110.702 310.815 110.373C311.143 110.044 311.327 109.598 311.327 109.133C311.327 108.668 311.143 108.222 310.815 107.893C310.487 107.563 310.042 107.378 309.578 107.378H291.597C291.133 107.378 290.688 107.563 290.36 107.893C290.033 108.222 289.849 108.668 289.849 109.133C289.849 109.598 290.033 110.044 290.36 110.373C290.688 110.702 291.133 110.887 291.597 110.887Z" fill="#015467" stroke="#015467" stroke-width="0.5"/>
<path d="M278.111 110.887H286.822C287.286 110.887 287.73 110.702 288.058 110.373C288.386 110.044 288.57 109.598 288.57 109.133C288.57 108.668 288.386 108.222 288.058 107.893C287.73 107.563 287.286 107.378 286.822 107.378H278.111C277.647 107.378 277.202 107.563 276.874 107.893C276.546 108.222 276.362 108.668 276.362 109.133C276.362 109.598 276.546 110.044 276.874 110.373C277.202 110.702 277.647 110.887 278.111 110.887Z" fill="#015467" stroke="#015467" stroke-width="0.5"/>
<path d="M257.632 110.887H273.885C274.349 110.887 274.794 110.702 275.122 110.373C275.45 110.044 275.634 109.598 275.634 109.133C275.634 108.668 275.45 108.222 275.122 107.893C274.794 107.563 274.349 107.378 273.885 107.378H257.632C257.168 107.378 256.723 107.563 256.396 107.893C256.068 108.222 255.884 108.668 255.884 109.133C255.884 109.598 256.068 110.044 256.396 110.373C256.723 110.702 257.168 110.887 257.632 110.887Z" fill="#015467" stroke="#015467" stroke-width="0.5"/>
<path d="M261.899 95.2101C262.227 95.5392 262.672 95.7242 263.136 95.7242C263.6 95.7242 264.045 95.5392 264.373 95.2101C264.701 94.8811 264.885 94.435 264.885 93.97V68.4686C264.885 66.9911 265.321 65.6361 266.013 64.6567C266.705 63.676 267.636 63.0928 268.63 63.0928H275.623C279.644 63.0928 282.866 59.0483 282.866 54.1986C282.866 52.723 283.316 51.3685 284.021 50.3886C284.728 49.4068 285.672 48.8229 286.662 48.8229H311.046C311.51 48.8229 311.955 48.6378 312.283 48.3087C312.611 47.9797 312.794 47.5336 312.794 47.0687C312.794 46.6037 312.611 46.1576 312.283 45.8286C311.955 45.4995 311.51 45.3145 311.046 45.3145H286.662C282.592 45.3145 279.369 49.3472 279.369 54.1986C279.369 55.6809 278.93 57.0384 278.237 58.0192C277.543 59.0015 276.612 59.5844 275.623 59.5844H268.63C264.61 59.5844 261.388 63.6184 261.388 68.4686V93.97C261.388 94.435 261.572 94.8811 261.899 95.2101Z" fill="#015467" stroke="#015467" stroke-width="0.5"/>
<path d="M305.502 70.6855V70.6855H310.863C311.544 70.6655 312.189 70.3759 312.657 69.8797C313.127 69.3827 313.381 68.7189 313.364 68.0337L313.364 68.0304C313.345 66.4157 313.964 64.8588 315.087 63.702C316.21 62.5452 317.745 61.8829 319.355 61.8609L319.358 61.8608L338.028 61.8608C338.492 61.8608 338.937 62.0459 339.265 62.375C339.593 62.704 339.777 63.1501 339.777 63.6151C339.777 64.08 339.593 64.5261 339.265 64.8551C338.937 65.1842 338.492 65.3693 338.028 65.3693H319.362C318.681 65.3893 318.036 65.6788 317.567 66.175C317.098 66.6721 316.844 67.336 316.861 68.0212L316.861 68.0248C316.878 69.6387 316.257 71.1937 315.135 72.3498C314.012 73.5059 312.479 74.1691 310.871 74.1939L310.867 74.1939V74.1939H305.507C304.828 74.2164 304.185 74.507 303.719 75.0029C303.251 75.4997 302.998 76.1621 303.015 76.8458L303.015 76.8521H303.015V92.6764V92.6847L303.015 92.6847C303 93.1395 302.809 93.5707 302.483 93.8872C302.157 94.2037 301.721 94.3807 301.267 94.3804M305.502 70.6855L301.267 94.1304M305.502 70.6855L305.499 70.6855C303.891 70.7103 302.359 71.3739 301.238 72.5305C300.118 73.6866 299.499 75.2411 299.518 76.8536M305.502 70.6855L299.768 76.8521M301.267 94.3804L301.267 94.1304M301.267 94.3804C301.267 94.3804 301.267 94.3804 301.267 94.3804V94.1304M301.267 94.3804C300.803 94.3804 300.358 94.1954 300.03 93.8663C299.702 93.5373 299.518 93.0912 299.518 92.6262V76.8536M301.267 94.1304C300.87 94.1304 300.488 93.972 300.207 93.6899C299.926 93.4078 299.768 93.0252 299.768 92.6262V76.8521M299.518 76.8536C299.519 76.8541 299.519 76.8546 299.519 76.8551L299.768 76.8521M299.518 76.8536V76.8521H299.768" fill="#015467" stroke="#015467" stroke-width="0.5"/>
<path d="M272.859 92.412C273.187 92.7411 273.632 92.9262 274.096 92.9262C274.56 92.9262 275.004 92.7411 275.332 92.412C275.66 92.083 275.844 91.6369 275.844 91.172V78.346C275.844 77.8811 275.66 77.435 275.332 77.1059C275.004 76.7768 274.56 76.5918 274.096 76.5918C273.632 76.5918 273.187 76.7768 272.859 77.1059C272.531 77.435 272.347 77.8811 272.347 78.346V91.172C272.347 91.6369 272.531 92.083 272.859 92.412Z" fill="#015467" stroke="#015467" stroke-width="0.5"/>
<path d="M283.447 92.4122C283.775 92.7413 284.22 92.9264 284.684 92.9264C285.148 92.9264 285.593 92.7413 285.921 92.4122C286.248 92.0832 286.432 91.6371 286.432 91.1722V68.2078C286.432 67.7429 286.248 67.2968 285.921 66.9677C285.593 66.6387 285.148 66.4536 284.684 66.4536C284.22 66.4536 283.775 66.6387 283.447 66.9677C283.12 67.2968 282.936 67.7429 282.936 68.2078V91.1722C282.936 91.6371 283.12 92.0832 283.447 92.4122Z" fill="#015467" stroke="#015467" stroke-width="0.5"/>
<path d="M292.288 92.4121C292.616 92.7412 293.061 92.9262 293.525 92.9262C293.989 92.9262 294.434 92.7412 294.761 92.4121C295.089 92.0831 295.273 91.637 295.273 91.172V81.515C295.273 81.05 295.089 80.6039 294.761 80.2749C294.434 79.9458 293.989 79.7607 293.525 79.7607C293.061 79.7607 292.616 79.9458 292.288 80.2749C291.96 80.6039 291.776 81.05 291.776 81.515V91.172C291.776 91.6369 291.96 92.083 292.288 92.4121Z" fill="#015467" stroke="#015467" stroke-width="0.5"/>
<path d="M2.49843 233.25H382.502C382.966 233.25 383.41 233.064 383.738 232.735C384.066 232.406 384.25 231.96 384.25 231.495C384.25 231.03 384.066 230.584 383.738 230.255C383.41 229.926 382.966 229.741 382.502 229.741H2.49843C2.03442 229.741 1.58958 229.926 1.26176 230.255C0.933964 230.584 0.75 231.03 0.75 231.495C0.75 231.96 0.933979 232.406 1.26176 232.735C1.58954 233.064 2.03436 233.25 2.49843 233.25Z" fill="#015467" stroke="#015467" stroke-width="0.5"/>
<path d="M133.441 19.922H74.5034C74.0393 19.922 73.5945 19.7369 73.2667 19.4078C72.9389 19.0788 72.7549 18.6327 72.7549 18.1678V12.1517V12.1509H73.0049C73.0033 11.9122 73.0586 11.6764 73.1664 11.4636C73.2741 11.2507 73.4312 11.0669 73.6243 10.9275L133.441 19.922ZM133.441 19.922C133.671 19.9234 133.9 19.8791 134.113 19.7917C134.327 19.7041 134.521 19.5751 134.684 19.412C134.848 19.2489 134.978 19.055 135.066 18.8415C135.155 18.6279 135.2 18.399 135.2 18.1678V12.1515M133.441 19.922L135.2 12.1515M133.441 19.922C133.441 19.922 133.44 19.922 133.44 19.922L133.442 19.672V19.922H133.441ZM135.2 12.1515C135.202 11.8734 135.137 11.5987 135.012 11.3507C134.886 11.1024 134.703 10.8879 134.478 10.7251C125.619 4.24276 114.94 0.75 103.978 0.75C93.0151 0.75 82.3356 4.2428 73.4773 10.7252L135.2 12.1526C135.2 12.1523 135.2 12.1519 135.2 12.1515ZM131.683 13.0124V16.4136H76.2418V13.0124C84.3622 7.29379 94.0414 4.22482 103.963 4.22482C113.884 4.22482 123.563 7.29379 131.683 13.0124Z" fill="#015467" stroke="#015467" stroke-width="0.5"/>
<path d="M74.5033 233.249H133.442C133.906 233.249 134.351 233.064 134.678 232.735C135.006 232.406 135.19 231.96 135.19 231.495V18.1678C135.19 17.7028 135.006 17.2567 134.678 16.9277C134.351 16.5986 133.906 16.4136 133.442 16.4136H74.5033C74.0393 16.4136 73.5945 16.5986 73.2666 16.9277C72.9388 17.2568 72.7549 17.7029 72.7549 18.1678V231.495C72.7549 231.96 72.9389 232.406 73.2666 232.735C73.5944 233.064 74.0392 233.249 74.5033 233.249ZM131.683 19.922V229.741H76.2418V19.922H131.683Z" fill="#015467" stroke="#015467" stroke-width="0.5"/>
<path d="M61.5977 122.299H27.2436C26.7795 122.299 26.3347 122.114 26.0069 121.785C25.6791 121.456 25.4951 121.01 25.4951 120.545V116.203V116.202H25.7451L61.5977 122.299ZM61.5977 122.299C62.0617 122.299 62.5066 122.114 62.8344 121.785C63.1622 121.456 63.3461 121.01 63.3461 120.545L63.3461 116.203L63.0961 116.202H63.3461V116.202C63.3471 115.955 63.2957 115.711 63.1953 115.485L62.9669 115.587M61.5977 122.299L62.9669 115.587M62.9669 115.587L63.1953 115.485C63.0949 115.26 62.9478 115.058 62.7637 114.893M62.9669 115.587L62.7637 114.893M62.7637 114.893C51.8001 105.051 37.0415 105.051 26.0779 114.893L62.7637 114.893ZM59.8493 117V118.79H28.992V117C38.3086 109.087 50.5327 109.087 59.8493 117Z" fill="#015467" stroke="#015467" stroke-width="0.5"/>
<path d="M27.2436 233.249H61.5977C62.0618 233.249 62.5066 233.064 62.8344 232.735C63.1621 232.406 63.3461 231.96 63.3461 231.495V120.544C63.3461 120.079 63.1622 119.633 62.8344 119.304C62.5065 118.975 62.0617 118.79 61.5977 118.79H27.2436C26.7795 118.79 26.3347 118.975 26.0069 119.304C25.6791 119.633 25.4951 120.079 25.4951 120.544V231.495C25.4951 231.96 25.6791 232.406 26.0069 232.735C26.3347 233.064 26.7795 233.249 27.2436 233.249ZM59.8493 122.298V229.741H28.992V122.298H59.8493Z" fill="#015467" stroke="#015467" stroke-width="0.5"/>
<path d="M84.1439 99.5549H90.9169C91.3809 99.5549 91.8258 99.3699 92.1536 99.0408C92.4814 98.7118 92.6653 98.2657 92.6653 97.8007V87.4217C92.6653 86.9568 92.4814 86.5107 92.1536 86.1816C91.8258 85.8525 91.3809 85.6675 90.9169 85.6675H84.1439C83.6799 85.6675 83.2351 85.8525 82.9073 86.1816C82.5795 86.5107 82.3955 86.9568 82.3955 87.4217V97.8007C82.3955 98.2657 82.5795 98.7118 82.9073 99.0408C83.2351 99.3699 83.6799 99.5549 84.1439 99.5549ZM89.1685 89.1759V96.0465H85.8924V89.1759H89.1685Z" fill="#015467" stroke="#015467" stroke-width="0.5"/>
<path d="M84.1439 116.252H90.9169C91.3809 116.252 91.8258 116.067 92.1536 115.738C92.4814 115.409 92.6653 114.962 92.6653 114.498V104.118C92.6653 103.654 92.4814 103.207 92.1536 102.878C91.8258 102.549 91.3809 102.364 90.9169 102.364H84.1439C83.6799 102.364 83.2351 102.549 82.9073 102.878C82.5795 103.207 82.3955 103.654 82.3955 104.118V114.498C82.3955 114.962 82.5795 115.409 82.9073 115.738C83.2351 116.067 83.6799 116.252 84.1439 116.252ZM89.1685 105.873V112.743H85.8924V105.873H89.1685Z" fill="#015467" stroke="#015467" stroke-width="0.5"/>
<path d="M84.1439 132.949H90.9169C91.3809 132.949 91.8258 132.763 92.1536 132.434C92.4814 132.105 92.6653 131.659 92.6653 131.194V120.815C92.6653 120.35 92.4814 119.904 92.1536 119.575C91.8258 119.246 91.3809 119.061 90.9169 119.061H84.1439C83.6799 119.061 83.2351 119.246 82.9073 119.575C82.5795 119.904 82.3955 120.35 82.3955 120.815V131.194C82.3955 131.659 82.5795 132.105 82.9073 132.434C83.2351 132.763 83.6799 132.949 84.1439 132.949ZM89.1685 122.569V129.44H85.8924V122.569H89.1685Z" fill="#015467" stroke="#015467" stroke-width="0.5"/>
<path d="M84.1439 149.635H90.9169C91.3809 149.635 91.8258 149.45 92.1536 149.121C92.4814 148.792 92.6653 148.346 92.6653 147.881V137.512C92.6653 137.047 92.4814 136.601 92.1536 136.272C91.8258 135.943 91.3809 135.758 90.9169 135.758H84.1439C83.6799 135.758 83.2351 135.943 82.9073 136.272C82.5795 136.601 82.3955 137.047 82.3955 137.512V147.881C82.3955 148.346 82.5795 148.792 82.9073 149.121C83.2351 149.45 83.6799 149.635 84.1439 149.635ZM89.1685 139.266V146.127H85.8924V139.266H89.1685Z" fill="#015467" stroke="#015467" stroke-width="0.5"/>
<path d="M84.1439 166.332H90.9169C91.3809 166.332 91.8258 166.147 92.1536 165.818C92.4814 165.489 92.6653 165.043 92.6653 164.578V154.209C92.6653 153.744 92.4814 153.298 92.1536 152.969C91.8258 152.64 91.3809 152.455 90.9169 152.455H84.1439C83.6799 152.455 83.2351 152.64 82.9073 152.969C82.5795 153.298 82.3955 153.744 82.3955 154.209V164.578C82.3955 165.043 82.5795 165.489 82.9073 165.818C83.2351 166.147 83.6799 166.332 84.1439 166.332ZM89.1685 155.963V162.824H85.8924V155.963H89.1685Z" fill="#015467" stroke="#015467" stroke-width="0.5"/>
<path d="M76.242 147.916L76.2421 147.916V147.911V129.78C76.2421 129.315 76.0581 128.869 75.7303 128.54C75.4025 128.211 74.9577 128.026 74.4936 128.026H61.5971C61.133 128.026 60.6882 128.211 60.3604 128.54C60.0326 128.869 59.8486 129.315 59.8486 129.78V147.881C59.8486 148.346 60.0326 148.792 60.3604 149.121C60.6882 149.45 61.133 149.635 61.5971 149.635H74.4936C74.4936 149.635 74.4936 149.635 74.4936 149.635C74.9517 149.635 75.3912 149.455 75.718 149.133C76.0448 148.812 76.2329 148.375 76.242 147.916ZM72.7452 131.504V146.127H63.3455V131.504H72.7452Z" fill="#015467" stroke="#015467" stroke-width="0.5"/>
<path d="M60.3604 193.867L60.5375 193.69L60.3604 193.867C60.6882 194.196 61.133 194.381 61.5971 194.381H74.4936C74.9577 194.381 75.4025 194.196 75.7303 193.867C76.0581 193.538 76.2421 193.091 76.2421 192.627V174.486C76.2421 174.021 76.0581 173.575 75.7303 173.246C75.4025 172.916 74.9577 172.731 74.4936 172.731H61.5971C61.133 172.731 60.6882 172.916 60.3604 173.246C60.0326 173.575 59.8486 174.021 59.8486 174.486V192.627C59.8486 193.091 60.0326 193.538 60.3604 193.867ZM72.7452 176.24V190.872H63.3455V176.24H72.7452Z" fill="#015467" stroke="#015467" stroke-width="0.5"/>
<path d="M133.442 111.057H148.027C148.491 111.057 148.935 110.872 149.263 110.543C149.591 110.214 149.775 109.768 149.775 109.303V97.8006C149.775 97.3357 149.591 96.8896 149.263 96.5605C148.935 96.2314 148.491 96.0464 148.027 96.0464H133.442C132.978 96.0464 132.533 96.2314 132.205 96.5605C131.877 96.8896 131.693 97.3357 131.693 97.8006V109.303C131.693 109.768 131.877 110.214 132.205 110.543C132.533 110.872 132.978 111.057 133.442 111.057ZM146.278 99.5548V107.549H135.19V99.5548H146.278Z" fill="#015467" stroke="#015467" stroke-width="0.5"/>
<path d="M133.442 146.326H148.027C148.491 146.326 148.935 146.141 149.263 145.812C149.591 145.483 149.775 145.037 149.775 144.572V133.059C149.775 132.594 149.591 132.148 149.263 131.819C148.935 131.49 148.491 131.305 148.027 131.305H133.442C132.978 131.305 132.533 131.49 132.205 131.819C131.877 132.148 131.693 132.594 131.693 133.059V144.572C131.693 145.037 131.877 145.483 132.205 145.812C132.533 146.141 132.978 146.326 133.442 146.326ZM146.278 134.814V142.817H135.19V134.814H146.278Z" fill="#015467" stroke="#015467" stroke-width="0.5"/>
<path d="M133.442 181.585H148.027C148.491 181.585 148.935 181.4 149.263 181.071C149.591 180.742 149.775 180.296 149.775 179.831V168.328C149.775 167.863 149.591 167.418 149.263 167.088C148.935 166.759 148.491 166.574 148.027 166.574H133.442C132.978 166.574 132.533 166.759 132.205 167.088C131.877 167.418 131.693 167.863 131.693 168.328V179.831C131.693 180.296 131.877 180.742 132.205 181.071C132.533 181.4 132.978 181.585 133.442 181.585ZM146.278 170.083V178.077H135.19V170.083H146.278Z" fill="#015467" stroke="#015467" stroke-width="0.5"/>
<path d="M221.56 177.523L221.561 177.523C222.024 177.52 222.467 177.334 222.793 177.006C223.12 176.678 223.305 176.234 223.308 175.771V175.769L223.308 159.012L223.308 159.01C223.305 158.547 223.12 158.103 222.793 157.775C222.467 157.447 222.024 157.261 221.561 157.258V157.258H221.56H206.975C206.511 157.258 206.066 157.443 205.738 157.772C205.411 158.101 205.227 158.547 205.227 159.012V175.769C205.227 176.234 205.411 176.68 205.738 177.009L205.913 176.835L205.738 177.009C206.066 177.338 206.511 177.523 206.975 177.523L221.56 177.523ZM219.811 160.766V174.015H208.723V160.766H219.811Z" fill="#015467" stroke="#015467" stroke-width="0.5"/>
<path d="M205.738 223.289L205.913 223.114L223.058 222.038H223.308V222.038V205.262C223.308 204.797 223.124 204.351 222.796 204.021C222.469 203.692 222.024 203.507 221.56 203.507H206.975C206.511 203.507 206.066 203.692 205.738 204.021C205.411 204.351 205.227 204.797 205.227 205.262V222.049C205.227 222.513 205.411 222.96 205.738 223.289ZM219.811 207.016V220.294H208.723V207.016H219.811Z" fill="#015467" stroke="#015467" stroke-width="0.5"/>
<path d="M44.4252 136.268H61.5973C62.0613 136.268 62.5062 136.083 62.834 135.754C63.1618 135.425 63.3458 134.978 63.3458 134.513C63.3458 134.049 63.1618 133.602 62.834 133.273C62.5062 132.944 62.0613 132.759 61.5973 132.759H44.4252C43.9612 132.759 43.5164 132.944 43.1886 133.273C42.8609 133.602 42.6768 134.049 42.6768 134.513C42.6768 134.978 42.8609 135.425 43.1886 135.754C43.5164 136.083 43.9612 136.268 44.4252 136.268Z" fill="#015467" stroke="#015467" stroke-width="0.5"/>
<path d="M27.2436 161.117H41.7384C42.2024 161.117 42.6473 160.932 42.9751 160.603C43.3029 160.274 43.4869 159.828 43.4869 159.363C43.4869 158.898 43.3029 158.452 42.9751 158.123C42.6473 157.794 42.2024 157.609 41.7384 157.609H27.2436C26.7795 157.609 26.3347 157.794 26.0069 158.123C25.6791 158.452 25.4951 158.898 25.4951 159.363C25.4951 159.828 25.6791 160.274 26.0069 160.603C26.3347 160.932 26.7795 161.117 27.2436 161.117Z" fill="#015467" stroke="#015467" stroke-width="0.5"/>
<path d="M44.4252 149.635H54.6046C55.0686 149.635 55.5135 149.45 55.8413 149.121C56.1691 148.792 56.3531 148.346 56.3531 147.881C56.3531 147.416 56.1691 146.97 55.8413 146.641C55.5135 146.312 55.0686 146.127 54.6046 146.127H44.4252C43.9612 146.127 43.5164 146.312 43.1886 146.641C42.8609 146.97 42.6768 147.416 42.6768 147.881C42.6768 148.346 42.8609 148.792 43.1886 149.121C43.5164 149.45 43.9612 149.635 44.4252 149.635Z" fill="#015467" stroke="#015467" stroke-width="0.5"/>
<path d="M40.2797 187.631H60.1588C60.6228 187.631 61.0677 187.446 61.3955 187.117C61.7233 186.788 61.9073 186.342 61.9073 185.877C61.9073 185.412 61.7233 184.966 61.3955 184.637C61.0677 184.308 60.6229 184.123 60.1588 184.123H40.2797C39.8156 184.123 39.3708 184.308 39.043 184.637C38.7152 184.966 38.5312 185.412 38.5312 185.877C38.5312 186.342 38.7152 186.788 39.043 187.117C39.3708 187.446 39.8157 187.631 40.2797 187.631Z" fill="#015467" stroke="#015467" stroke-width="0.5"/>
<path d="M122.705 139.053C123.033 139.382 123.478 139.567 123.942 139.567L125.44 137.803H125.69V137.802V91.3729C125.69 90.9079 125.506 90.4618 125.178 90.1328C124.851 89.8037 124.406 89.6187 123.942 89.6187C123.478 89.6187 123.033 89.8037 122.705 90.1328C122.377 90.4618 122.193 90.9079 122.193 91.3729V137.813C122.193 138.278 122.377 138.724 122.705 139.053Z" fill="#015467" stroke="#015467" stroke-width="0.5"/>
<path d="M122.705 161.877C123.033 162.206 123.478 162.391 123.942 162.391C124.406 162.391 124.851 162.206 125.178 161.877C125.506 161.548 125.69 161.102 125.69 160.637V147.059C125.69 146.594 125.506 146.148 125.178 145.819C124.851 145.49 124.406 145.305 123.942 145.305C123.478 145.305 123.033 145.49 122.705 145.819C122.377 146.148 122.193 146.594 122.193 147.059V160.637C122.193 161.102 122.377 161.548 122.705 161.877Z" fill="#015467" stroke="#015467" stroke-width="0.5"/>
<path d="M206.974 19.922H148.037C147.573 19.922 147.128 19.7369 146.8 19.4078C146.472 19.0788 146.288 18.6327 146.288 18.1678V12.1517V12.1509H146.538C146.536 11.9122 146.592 11.6764 146.7 11.4636C146.807 11.2507 146.964 11.0669 147.157 10.9275L206.974 19.922ZM206.974 19.922C206.974 19.922 206.974 19.922 206.973 19.922L206.975 19.672V19.922H206.974ZM208.011 10.7251C199.153 4.24276 188.473 0.75 177.511 0.75C166.548 0.75 155.869 4.2428 147.01 10.7252L208.733 12.1526C208.733 12.1523 208.733 12.1519 208.733 12.1515C208.735 11.8733 208.67 11.5987 208.545 11.3507C208.419 11.1025 208.236 10.8879 208.011 10.7251ZM208.011 10.7251C208.011 10.7253 208.011 10.7255 208.012 10.7257L207.864 10.9275L208.01 10.7248C208.011 10.7249 208.011 10.725 208.011 10.7251ZM205.217 13.0124V16.4136H149.775V13.0124C157.894 7.29099 167.574 4.22035 177.496 4.22035C187.418 4.22035 197.097 7.29099 205.217 13.0124Z" fill="#015467" stroke="#015467" stroke-width="0.5"/>
<path d="M148.037 233.249H206.975C207.439 233.249 207.884 233.064 208.212 232.735C208.539 232.406 208.723 231.96 208.723 231.495V18.1678C208.723 17.7029 208.539 17.2568 208.212 16.9277C207.884 16.5986 207.439 16.4136 206.975 16.4136H148.037C147.573 16.4136 147.128 16.5986 146.8 16.9277C146.472 17.2568 146.288 17.7029 146.288 18.1678V231.495C146.288 231.96 146.472 232.406 146.8 232.735C147.128 233.064 147.572 233.249 148.037 233.249ZM205.217 19.922V229.741H149.775V19.922H205.217Z" fill="#015467" stroke="#015467" stroke-width="0.5"/>
<path d="M157.676 99.5549H164.449C164.913 99.5549 165.358 99.3699 165.686 99.0408C166.014 98.7118 166.198 98.2657 166.198 97.8007V87.4217C166.198 86.9568 166.014 86.5107 165.686 86.1816C165.358 85.8525 164.913 85.6675 164.449 85.6675H157.676C157.212 85.6675 156.767 85.8525 156.44 86.1816C156.112 86.5106 155.928 86.9567 155.928 87.4217V97.8007C155.928 98.2657 156.112 98.7118 156.44 99.0408C156.767 99.3699 157.212 99.5549 157.676 99.5549ZM162.701 89.1759V96.0465H159.425V89.1759H162.701Z" fill="#015467" stroke="#015467" stroke-width="0.5"/>
<path d="M157.676 116.252H164.449C164.913 116.252 165.358 116.067 165.686 115.738C166.014 115.409 166.198 114.962 166.198 114.498V104.118C166.198 103.654 166.014 103.207 165.686 102.878C165.358 102.549 164.913 102.364 164.449 102.364H157.676C157.212 102.364 156.767 102.549 156.44 102.878C156.112 103.207 155.928 103.653 155.928 104.118V114.498C155.928 114.962 156.112 115.409 156.44 115.738C156.767 116.067 157.212 116.252 157.676 116.252ZM162.701 105.873V112.743H159.425V105.873H162.701Z" fill="#015467" stroke="#015467" stroke-width="0.5"/>
<path d="M157.676 132.949H164.449C164.913 132.949 165.358 132.763 165.686 132.434C166.014 132.105 166.198 131.659 166.198 131.194V120.815C166.198 120.35 166.014 119.904 165.686 119.575C165.358 119.246 164.913 119.061 164.449 119.061H157.676C157.212 119.061 156.767 119.246 156.44 119.575C156.112 119.904 155.928 120.35 155.928 120.815V131.194C155.928 131.659 156.112 132.105 156.44 132.434C156.767 132.763 157.212 132.949 157.676 132.949ZM162.701 122.569V129.44H159.425V122.569H162.701Z" fill="#015467" stroke="#015467" stroke-width="0.5"/>
<path d="M157.676 149.635H164.449C164.913 149.635 165.358 149.45 165.686 149.121C166.014 148.792 166.198 148.346 166.198 147.881V137.512C166.198 137.047 166.014 136.601 165.686 136.272C165.358 135.943 164.913 135.758 164.449 135.758H157.676C157.212 135.758 156.767 135.943 156.44 136.272C156.112 136.601 155.928 137.047 155.928 137.512V147.881C155.928 148.346 156.112 148.792 156.44 149.121C156.767 149.45 157.212 149.635 157.676 149.635ZM162.701 139.266V146.127H159.425V139.266H162.701Z" fill="#015467" stroke="#015467" stroke-width="0.5"/>
<path d="M157.676 166.332H164.449C164.913 166.332 165.358 166.147 165.686 165.818C166.014 165.489 166.198 165.043 166.198 164.578V154.209C166.198 153.744 166.014 153.298 165.686 152.969C165.358 152.64 164.913 152.455 164.449 152.455H157.676C157.212 152.455 156.767 152.64 156.44 152.969C156.112 153.298 155.928 153.744 155.928 154.209V164.578C155.928 165.043 156.112 165.489 156.44 165.818C156.767 166.147 157.212 166.332 157.676 166.332ZM162.701 155.963V162.824H159.425V155.963H162.701Z" fill="#015467" stroke="#015467" stroke-width="0.5"/>
<path d="M196.238 139.053C196.566 139.382 197.011 139.567 197.475 139.567L198.973 137.803H199.223V137.802V91.3729C199.223 90.9079 199.039 90.4618 198.712 90.1328C198.384 89.8037 197.939 89.6187 197.475 89.6187C197.011 89.6187 196.566 89.8037 196.238 90.1328C195.911 90.4618 195.727 90.9079 195.727 91.3729V137.813C195.727 138.278 195.911 138.724 196.238 139.053Z" fill="#015467" stroke="#015467" stroke-width="0.5"/>
<path d="M196.238 161.877C196.566 162.206 197.011 162.391 197.475 162.391C197.939 162.391 198.384 162.206 198.712 161.877C199.039 161.548 199.223 161.102 199.223 160.637V147.059C199.223 146.594 199.039 146.148 198.712 145.819C198.384 145.49 197.939 145.305 197.475 145.305C197.011 145.305 196.566 145.49 196.238 145.819C195.911 146.148 195.727 146.594 195.727 147.059V160.637C195.727 161.102 195.911 161.548 196.238 161.877Z" fill="#015467" stroke="#015467" stroke-width="0.5"/>
</svg>
