<svg width="320" height="261" viewBox="0 0 320 261" fill="none" xmlns="http://www.w3.org/2000/svg">
<path fill-rule="evenodd" clip-rule="evenodd" d="M16.961 106.568C20.571 105.834 20.351 116.664 16.731 116.741C12.821 116.807 14.041 107.159 16.961 106.568ZM16.281 113.242C17.801 113.308 18.051 112.288 18.101 111.097C16.611 111.02 16.061 111.793 16.291 113.213L16.281 113.242Z" fill="#015467"/>
<path fill-rule="evenodd" clip-rule="evenodd" d="M302.859 106.568C304.369 108.389 308.249 110.668 307.419 114.386C305.959 120.965 293.459 106.788 302.859 106.568ZM303.539 113.242C304.459 113.423 304.949 111.45 303.999 111.288C303.579 111.66 302.939 112.556 303.539 113.214V113.242Z" fill="#015467"/>
<path fill-rule="evenodd" clip-rule="evenodd" d="M291.219 113.995C288.989 117.094 286.289 119.029 283.919 122.013C282.763 123.388 281.694 124.827 280.719 126.323C279.389 128.544 279.529 131.69 276.849 132.777C278.379 123.853 285.009 119.306 290.759 113.995H291.219Z" fill="#015467"/>
<path fill-rule="evenodd" clip-rule="evenodd" d="M56.2103 175.804C55.4303 178.76 50.5503 177.101 47.3103 176.195C39.9403 174.136 33.4103 170.237 26.7703 168.377C26.8715 167.874 27.1557 167.422 27.5728 167.099C27.99 166.776 28.5132 166.604 29.0503 166.614C37.9603 167.681 47.6403 173.898 56.2103 175.804Z" fill="#015467"/>
<path fill-rule="evenodd" clip-rule="evenodd" d="M41.3808 178.15C38.1608 178.674 34.8808 176.815 32.0208 175.614C29.1608 174.412 25.9008 173.326 23.5808 171.695C24.0808 171.81 23.9008 171.323 24.2608 171.304C24.6208 171.285 24.6708 171.075 24.7208 171.304C29.4408 172.344 33.2008 174.794 37.2708 176.395C38.6508 176.939 40.4308 176.958 41.3808 178.15Z" fill="#015467"/>
<path fill-rule="evenodd" clip-rule="evenodd" d="M159.565 234.485C164.945 235.868 173.085 234.895 174.625 239.567C168.065 241.836 157.204 240.415 148.844 241.131C152.674 242.57 158.695 242.828 162.305 244.658C163.195 245.106 165.885 247.118 165.725 247.976C165.355 249.988 155.564 249.749 152.494 249.93C147.054 250.264 142.774 250.522 138.114 250.884C143.554 251.837 150.384 252.6 155.914 253.82C160.535 254.831 163.855 255.603 165.275 258.711C159.505 261.085 146.634 259.541 137.894 260.075C135.404 260.227 132.774 260.799 130.814 260.275C128.854 259.75 127.524 257.806 126.484 256.947C130.794 254.974 136.394 254.087 143.134 254.211C138.734 252.629 131.514 254.211 126.484 252.648C124.703 252.076 119.683 248.701 120.093 246.775C120.643 244.191 132.484 244.048 136.754 244.038C143.484 244.038 149.104 244.477 155.004 244.63C147.514 242.132 134.114 242.074 124.003 241.693C122.789 241.784 121.568 241.784 120.353 241.693C118.353 241.264 115.183 237.937 114.193 236.411C116.373 235.181 119.893 234.991 122.863 234.848C137.184 234.152 152.864 235.915 166.215 236.602C164.295 235.649 160.225 236.526 159.565 234.485Z" fill="#015467"/>
<path fill-rule="evenodd" clip-rule="evenodd" d="M256.538 165.05C261.818 164.287 269.148 162.742 275.479 161.722C279.379 161.093 283.029 159.959 285.289 162.313C281.969 163.839 277.979 164.783 274.109 165.831C279.459 166.365 289.209 163.276 293.269 166.413C290.589 168.549 285.999 169.044 281.869 169.941C281.059 170.56 283.119 170.494 282.319 171.113C277.499 171.323 270.878 174.078 268.178 170.522C273.559 168.167 281.259 167.795 287.799 166.413C281.539 165.679 274.529 167.481 268.398 168.568C264.098 169.34 260.838 170.084 257.908 167.986C257.838 167.033 258.818 166.937 259.278 166.413C255.078 167.195 248.838 169.273 245.588 166.413C244.928 165.279 246.908 164.859 247.408 164.068C243.978 165.097 239.547 165.021 236.917 163.486C236.777 162.189 238.567 162.533 238.967 161.722C237.507 161.646 236.897 162.294 235.317 162.113C234.967 176.023 238.097 190.181 237.377 204.358C236.967 212.214 236.977 220.328 238.287 227.831C235.847 228.689 232.337 229.633 228.927 229.004C227.927 229.252 228.927 231.254 228.017 231.549C226.807 231.082 227.087 229.347 226.647 228.222C225.487 228.069 226.287 229.614 225.277 229.595C224.267 229.576 224.707 228.127 224.137 227.688C215.587 223.493 206.216 219.794 197.216 215.751C194.336 214.464 191.756 212.691 188.776 211.843C187.896 212.529 188.436 214.417 187.856 215.361C180.856 217.086 170.955 216.266 162.765 216.924C167.335 217.41 176.095 217.153 181.016 217.124C183.426 217.124 185.546 217.525 185.806 219.67C172.065 222.53 154.735 220.738 138.574 221.815C138.574 222.444 138.974 222.645 138.804 223.379C149.995 224.809 161.805 225.686 173.255 226.906C173.525 227.707 175.085 228.251 174.625 229.051C158.325 230.148 139.984 229.48 123.974 230.815C125.334 231.273 127.044 231.444 127.394 232.77C123.554 232.665 117.314 233.58 113.704 232.188C112.884 231.864 109.703 229.547 109.823 228.47C110.083 226.563 115.074 226.401 117.584 226.124C120.84 225.752 124.115 225.555 127.394 225.533C127.394 225.095 126.344 224.008 125.794 223.379C115.894 222.683 105.793 222.139 95.223 222.015C94.5029 221.062 92.3429 220.48 92.7129 219.279C101.713 217.992 113.004 218.326 123.064 217.706C124.124 217.649 126.184 217.801 126.254 216.533C115.974 216.009 104.403 216.037 93.8529 216.343C92.8529 216.076 93.3729 217.096 92.4829 216.924C91.4489 216.801 90.4387 216.538 89.4828 216.142C88.8328 215.113 89.4128 214.236 89.0228 213.015C88.7028 211.995 87.6027 211.28 87.4227 210.279C87.0427 208.086 87.4227 205.512 87.1927 203.043C86.0827 190.648 88.2827 175.68 85.8327 165.097C84.4726 165.469 85.2926 165.669 85.8327 166.27C84.8326 168.253 83.4426 169.826 79.6725 169.397C78.2424 170.198 77.6724 171.752 76.2424 172.524C73.725 172.616 71.2042 172.485 68.7121 172.133C69.7822 173.392 67.2621 175.203 65.712 176.052C52.2016 175.499 44.5514 169.941 34.2211 166.661C36.1011 162.352 42.3713 165.031 46.7715 165.879C44.8714 164.64 41.9613 164.268 40.1512 162.943C40.6713 161.436 41.6313 160.302 44.2614 160.597C43.0913 159.777 45.0214 158.319 45.6314 157.27C31.281 163.62 18.1906 171.047 2.74008 176.443C1.97005 176.376 2.10005 175.556 2.05005 174.879C1.36003 174.345 1.05003 175.308 0 175.07C0.770024 159.243 2.51007 140.376 1.60004 122.461C1.11003 113.099 1.60005 103.67 1.14004 94.2884C0.470014 81.284 1.38004 67.5932 0.680014 55.5613C4.26013 53.0443 9.7303 54.6937 15.2805 55.3706C22.4007 56.2382 28.5709 57.2774 35.8211 58.1068C39.2812 58.4882 42.8213 59.3272 46.0914 59.4797C48.7515 59.5941 51.5216 58.7647 54.3017 58.5263C64.612 57.5729 75.0523 57.182 86.0127 56.6195C86.9124 44.2449 87.1427 31.8342 86.7027 19.4369C88.9428 20.705 88.5928 24.2039 89.4428 26.6732C91.5228 24.4232 90.6228 20.2092 92.4429 18.0926C92.0829 16.7484 89.2228 16.5863 89.7128 15.1657C118.644 14.2123 148.205 15.6329 177.326 16.7293C180.326 16.8437 183.966 17.3967 186.906 16.92C189.846 16.4433 192.746 14.0598 196.036 12.6201C205.366 8.43471 215.697 4.84993 225.037 1.27468C226.197 1.06493 226.187 1.85625 226.867 2.05647C226.737 1.42722 226.937 1.10307 227.327 0.883789C229.087 1.37002 231.687 1.40816 233.257 2.64758C236.537 5.23129 235.367 16.796 235.077 22.2018C234.547 32.2888 235.017 44.2063 234.847 53.3017C242.728 53.5877 250.788 54.3123 258.848 54.8653C263.848 55.218 269.158 56.3717 273.679 56.2382C276.919 56.1428 280.529 55.2848 283.949 54.8653C292.529 53.9119 300.709 52.6343 309.73 51.5474C313.55 51.0803 316.42 50.2318 319.31 52.3292C318.83 76.8793 319.03 106.13 318.17 131.538C317.71 145.276 319.41 158.7 320 171.828C319.54 172.229 318.91 171.771 318.4 171.638C318.48 172.419 318.4 173.068 317.72 173.201C317.3 173.43 315.92 172.972 315.21 173.401C312.48 170.846 307.21 169.588 303.109 167.729C293.629 163.353 283.989 158.481 274.589 154.038C271.989 154.801 269.368 155.554 266.588 156.183C269.088 156.421 273.189 154.715 275.489 156.383C275.189 157.337 273.599 157.241 272.488 157.556C274.809 157.638 277.077 158.239 279.109 159.31C271.468 160.776 263.93 162.693 256.538 165.05ZM231.897 12.0767C232.007 9.2165 232.317 3.88699 230.987 3.27682C230.497 3.048 229.187 3.00033 229.837 3.66771C229.047 7.68153 229.837 12.0481 230.067 16.5767C231.117 36.417 229.287 57.0295 230.067 76.6409C231.647 57.02 231.047 33.0515 231.897 12.0767ZM214.787 34.0049C211.587 40.8312 207.956 47.3525 205.196 54.5411C205.196 54.6555 205.196 54.7699 205.426 54.7318C208.553 47.7185 212.058 40.864 215.927 34.1956C219.893 27.0886 222.664 19.4316 224.137 11.5047C223.057 11.5619 222.557 12.1053 221.627 12.296C219.627 16.4242 217.217 20.2378 215.007 24.223C215.387 24.5853 215.757 23.7082 215.927 23.4412C216.927 21.849 217.767 20.2664 218.667 18.7505C219.927 16.5863 220.717 13.8596 222.767 12.6869C222.027 20.6573 217.897 27.3311 214.787 34.0049ZM211.787 18.1594C205.836 29.7909 200.956 41.5653 195.586 53.3684C193.776 57.3441 191.466 61.3579 191.026 65.8866C200.026 49.2498 207.326 31.0875 216.807 14.832C216.807 14.5937 216.737 14.3744 216.347 14.4411C215.286 16.1051 213.7 17.4066 211.817 18.1594H211.787ZM117.784 18.1594H124.624C125.874 17.9592 123.724 17.921 123.254 17.9592C113.664 18.2452 101.703 17.0058 93.8229 18.3596C101.883 18.0926 110.023 18.1785 117.814 18.1594H117.784ZM175.995 19.7039C178.106 19.4274 181.586 20.3236 182.616 19.1223C180.296 19.2749 177.676 19.0747 175.995 19.7039ZM95.453 21.6107C95.183 21.6107 95.203 21.9253 95.223 22.2018C95.803 26.6637 96.483 30.1913 96.823 34.329C97.123 38.1426 97.273 41.8895 97.273 45.8652C97.273 68.8326 96.133 92.6771 96.133 116.474C96.133 132.234 95.503 147.936 96.363 163.419C97.223 178.903 98.2331 194.453 98.6431 209.573C108.213 209.43 117.154 208.754 127.164 208.992C128.164 203.987 125.844 199.506 124.654 194.519C123.78 191.362 123.095 188.16 122.604 184.928C122.214 181.42 123.604 177.415 123.744 173.392C123.744 172.505 123.414 171.714 123.514 170.846C123.634 169.836 124.394 168.654 124.434 167.529C124.494 165.488 123.484 163.019 123.064 160.483C121.724 152.484 120.204 142.931 119.864 135.647C119.664 131.223 121.254 126.408 120.094 123.319C120.496 122.371 120.801 121.388 121.004 120.383C121.004 119.43 122.404 120.812 122.374 119.801C121.904 112.994 125.574 108.103 123.514 102.192C121.654 103.794 121.514 106.902 120.094 108.866C119.924 109.733 121.254 109.304 120.774 110.429C119.284 113.366 120.004 116.331 119.634 119.82C119.174 124.254 117.764 128.687 116.904 132.92C116.516 134.655 116.361 136.43 116.444 138.202C116.524 138.907 117.004 139.546 117.124 140.357C117.344 141.787 116.964 143.264 117.124 144.656C117.894 145.267 118.394 143.16 119.184 144.266C118.724 145.572 120.044 145.352 120.324 146.029C121.164 151.893 121.524 158.176 122.834 163.629C119.964 168.501 115.684 172.772 112.834 177.32C111.763 178.998 111.403 180.924 109.833 182.411C109.223 182.02 107.833 182.306 107.103 182.02C103.573 176.977 107.203 169.388 105.953 162.456C105.673 160.874 104.463 158.223 104.813 156.593C105.393 153.962 111.323 150.491 111.893 148.012C113.024 142.95 109.263 140.223 110.293 134.522C106.573 134.255 108.783 131.175 108.923 129.04C109.133 125.722 107.713 122.49 108.013 118.676C108.553 111.678 111.543 104.433 112.114 96.9674C112.724 89.0637 113.834 81.5319 116.454 75.4492C120.904 73.3898 126.454 72.2934 131.514 70.7585C131.374 67.8983 129.814 64.5042 129.454 61.1673C129.334 60.0041 129.774 58.7552 129.454 57.6492C129.134 56.5433 127.194 55.7424 127.174 54.5221C127.174 52.7869 129.684 50.8133 130.374 49.4309C132.844 48.9447 135.114 50.2222 137.444 50.6131C139.164 50.8896 140.854 50.6131 142.234 51.1947C143.136 51.6356 143.915 52.2728 144.509 53.0547C145.103 53.8366 145.496 54.7411 145.655 55.6947C145.725 56.5147 145.235 57.3632 145.205 58.2403C145.045 62.0539 144.985 66.1249 143.834 69.5858C146.645 69.8432 151.355 70.1769 153.415 71.7309C156.755 71.1017 161.315 71.7309 162.545 72.9036C164.185 75.0011 163.275 77.6706 163.455 80.1399C163.555 81.5223 164.135 83.0001 164.365 84.4493C164.635 86.0701 164.575 87.7766 164.825 89.3402C165.565 93.8784 167.285 98.3784 168.245 103.031C169.205 107.684 170.245 112.47 170.985 117.332C171.455 117.809 171.465 116.245 172.355 116.941C173.625 121.327 171.565 125.283 170.755 128.878C169.945 132.472 170.615 135.809 168.705 138.85C167.705 139.089 165.705 138.517 164.595 138.65C165.205 135.037 162.385 133.654 164.135 130.632C162.305 130.06 162.555 127.772 161.635 125.55C160.235 122.194 157.455 117.599 157.065 114.396C156.715 111.535 156.865 108.799 155.465 106.187C155.376 111.288 154.995 116.38 154.325 121.441C155.211 122.106 155.983 122.897 156.615 123.787C154.855 128.439 159.565 130.327 157.975 135.523C159.155 140.395 158.435 148.041 158.435 154.105C158.435 156.965 158.435 159.739 158.205 162.514C157.965 165.088 157.065 167.71 157.065 170.141C157.065 171.685 157.785 173.201 157.755 174.45C157.665 177.797 156.195 181.277 155.015 184.032C153.925 186.549 151.075 188.856 150.675 191.268C150.185 194.29 151.945 197.303 153.185 199.096C153.915 200.135 155.125 200.697 155.465 201.832C156.185 204.158 155.585 206.008 156.385 208.506C155.855 209.03 154.615 208.954 153.875 209.287C163.925 209.612 174.235 209.697 184.676 209.678C183.466 163.915 182.166 115.292 182.166 69.0519C182.166 61.2626 182.956 53.4924 182.626 45.7794C182.276 37.8376 181.426 30.096 181.256 22.3067C152.295 22.7262 125.084 21.1626 95.453 21.6774V21.6107ZM91.8029 25.7198C92.3629 25.0239 93.1629 23.508 92.4829 22.3925C92.5229 23.67 91.2928 24.8141 91.8029 25.7866V25.7198ZM198.806 24.7664C195.806 30.4868 191.906 36.4647 191.726 43.9393C195.256 36.9223 199.806 29.7337 202.676 22.812C201.516 23.6128 200.026 24.0895 198.816 24.8046L198.806 24.7664ZM89.9628 31.221C90.3732 30.8886 90.6917 30.4654 90.8905 29.9883C91.0893 29.5112 91.1622 28.9949 91.1028 28.4847C90.5828 29.3046 89.7128 29.8004 89.9728 31.2591L89.9628 31.221ZM210.207 34.1574C210.257 33.8237 209.957 33.6712 209.987 34.1574C202.876 47.4652 196.997 61.3389 192.416 75.6208C198.626 62.073 203.296 47.1618 210.217 34.1956L210.207 34.1574ZM217.297 80.7215C218.557 74.6293 219.297 68.1747 220.027 61.7488C220.757 55.3229 221.697 48.6205 221.177 41.7942C219.297 54.1884 218.017 68.0699 217.297 80.7215ZM202.006 87.176C198.826 96.0236 195.236 105.395 191.506 113.967C190.256 116.827 188.076 120.021 187.636 122.547C186.506 128.983 188.106 135.666 188.086 141.52C187.696 135.799 189.036 130.651 190.146 126.265C193.076 114.586 198.086 104.394 202.916 94.1835C205.296 89.1686 207.726 83.3529 211.817 80.6929C212.907 70.8633 214.887 60.7668 215.697 51.3568C209.817 62.4353 206.416 74.9248 202.006 87.2046V87.176ZM187.636 58.4215C188.086 56.4003 189.636 54.2932 189.456 52.3578C188.496 53.9691 186.816 55.9903 187.636 58.4501V58.4215ZM273.639 58.6217C273.459 60.0136 275.409 59.5751 275.469 60.7668C275.019 61.1005 273.789 60.7668 274.099 61.7202C277.349 87.872 274.329 119.286 275.009 146.802C276.439 145.543 276.259 143.77 276.839 142.302C278.589 137.859 281.509 133.721 284.139 129.984C287.719 124.873 291.139 119.306 296.689 116.293C291.029 125.198 284.369 133.244 280.259 143.474C283.259 142.588 284.359 139.87 285.959 137.802C287.559 135.733 289.459 133.578 291.209 131.547C294.759 127.4 298.069 123.062 303.299 120.392C299.359 125.484 294.199 130.584 291.439 136.047C295.519 132.567 298.439 128.077 303.759 125.674C299.426 132.296 294.544 138.577 289.159 144.456C288.529 145.114 287.209 145.858 287.559 146.802C288.769 147.021 289.369 145.629 289.839 145.038C291.929 142.397 294.019 140.071 296.229 137.611C299.149 134.35 301.669 130.613 305.81 128.611C305.29 130.317 304.029 131.385 303.069 132.72C302.489 133.063 301.959 132.501 301.479 133.111C297.659 137.792 293.169 141.901 290.299 147.412C292.919 147.955 294.669 145.715 296.229 144.485C299.683 141.883 302.959 139.074 306.04 136.076C307.48 134.598 308.73 132.491 311.04 132.157C308.12 136.829 303.569 140.099 300.769 144.876C301.723 144.676 302.645 144.355 303.509 143.922C304.35 143.522 305.289 142.578 305.79 142.359C306.29 142.139 306.92 142.359 307.39 142.168C308.73 141.501 311.81 139.623 312.18 138.641C312.77 137.077 312.18 133.654 312.18 131.013C312.18 123.539 312.8 114.424 312.18 107.932C310.47 89.9504 313.6 68.9756 310.81 53.3684C298.439 55.1227 285.519 56.4384 273.649 58.6503L273.639 58.6217ZM314.25 59.2032C315.06 65.4575 314.58 74.0763 314.94 80.1304C314.94 80.3401 315.23 80.2829 315.17 79.9397C315.56 71.7023 315.3 62.8548 315.62 54.1216C315.62 53.9977 315.62 53.8833 315.4 53.9214C312.74 54.7413 313.94 56.6672 314.3 59.2319L314.25 59.2032ZM267.708 57.6397C257.058 57.1153 245.038 56.2572 235.077 55.7329C234.907 55.7329 234.817 55.8949 234.847 56.1238V56.5147C240.788 57.0486 247.138 57.2583 253.338 57.6873C259.538 58.1164 265.888 58.8028 271.339 58.6407C270.918 57.2202 268.768 57.7255 267.718 57.6683L267.708 57.6397ZM23.3507 139.422C25.8308 134.121 28.9609 129.107 30.881 123.977C30.2892 125.634 29.2553 127.116 27.8809 128.277C29.0009 124.826 31.951 121.966 33.591 118.495C35.0811 115.32 35.8211 111.583 37.0112 108.132C38.2012 104.68 39.2012 101.172 40.4313 97.7683C37.0512 103.05 34.8311 109.571 32.221 115.368C31.361 117.275 30.5009 119.782 28.8009 120.841C28.5809 118.314 30.1809 116.293 29.9409 114.386C23.7107 125.741 16.3405 136.114 13.2804 150.186C15.9805 149.624 16.9705 144.876 19.2106 143.922C17.0805 146.859 16.0205 150.701 12.1404 152.141C10.4103 150.72 11.7204 148.527 12.1404 147.049C14.7005 138.021 18.9106 130.193 23.3207 122.805C24.9795 119.714 26.8088 116.71 28.8009 113.804C29.4509 112.946 30.801 112.355 31.311 111.459C32.631 109.285 32.851 106.32 33.821 103.832C36.6911 96.3858 39.9812 89.3688 42.0313 81.9037C37.6989 89.4481 33.8127 97.2178 30.3909 105.176C29.2709 107.741 28.6609 110.897 26.0608 112.222C28.8909 95.9377 37.5612 83.6198 43.1713 70.3676C38.1712 76.3072 34.2611 83.9249 29.7109 90.3127C28.3409 92.2195 26.7108 95.2513 23.5507 95.2036C23.0807 91.8858 25.2908 88.9207 26.7408 86.0128C29.7409 80.0064 32.661 74.4195 35.8711 68.9947C37.4212 66.3633 38.8712 63.3219 41.5713 61.7584C40.5713 64.4565 38.4712 66.5254 37.0112 68.9947C35.5511 71.464 34.3911 74.0763 32.901 76.6219C30.0709 81.4461 26.4508 86.3847 25.6008 92.6581C28.3309 91.3424 29.8309 88.6633 31.311 86.4037C36.0711 79.0816 41.2213 72.0169 45.6814 64.6948C45.8414 63.9702 44.6814 64.3516 44.5414 63.913C45.0114 63.0073 46.5915 63.0645 46.3615 61.5581C43.4814 61.5581 40.1012 60.7859 36.7811 60.6047C31.681 71.7404 24.1808 80.8359 20.7806 93.4589C21.6107 93.4112 21.2807 91.6856 22.1507 92.2862C22.0007 94.05 21.0707 95.9759 19.1506 95.6136C21.7907 81.3698 30.3309 72.1981 35.8111 60.4045C26.5908 58.6598 16.3705 57.7731 6.6002 56.4956C11.1303 69.6525 8.28026 85.5552 9.11028 101.305C10.3403 124.359 9.5703 147.278 9.11028 169.178C10.6305 168.597 11.9672 167.651 12.9904 166.432C11.7704 166.356 10.3803 166.785 9.9903 165.65C9.48029 164.001 15.4605 163.105 17.2905 162.523C19.845 161.759 22.2955 160.71 24.5908 159.396C25.4008 148.489 31.481 139.375 34.5911 130.451C30.3309 136.772 26.5908 144.056 22.7207 150.596C21.4807 152.722 20.4406 155.468 17.7205 156.46C18.4006 150.32 20.8906 144.704 23.3507 139.422ZM134.464 66.0773C136.864 66.3442 138.624 66.7351 138.804 68.2319C139.024 70.072 135.854 71.0921 135.804 72.9227C136.974 74.4195 138.314 73.5519 140.594 73.8761C142.114 72.9227 141.324 71.178 141.744 69.376C141.544 68.7563 140.424 68.9375 140.374 68.2033C140.336 65.1271 140.563 62.0531 141.054 59.0126C138.804 58.6312 135.054 57.5062 133.294 59.0126C133.305 58.8549 133.268 58.6976 133.189 58.5591C133.109 58.4206 132.989 58.3067 132.844 58.2308C133.184 60.8802 133.726 63.5026 134.464 66.0773ZM85.8727 58.6503C76.3424 59.7944 62.932 60.4045 52.7816 60.9956C51.6116 61.0624 49.1515 60.4522 48.6815 61.949C52.9316 62.216 57.9118 61.5677 63.052 61.1673C69.8822 60.6524 76.0524 60.538 82.9026 60.2139C83.9026 60.1567 86.2627 60.4141 86.0927 59.0412C86.4427 58.9935 86.1327 58.717 85.8727 58.6503ZM234.637 58.841C234.637 65.3717 233.767 71.1303 233.947 77.8136C236.087 77.232 235.387 74.9534 235.547 73.1229C235.927 68.68 237.827 65.9342 242.388 65.1048C243.238 64.9427 244.208 65.2669 244.898 65.1048C245.978 64.8474 246.158 63.9226 247.188 63.9321C247.522 68.7514 246.981 73.5895 245.588 78.2331C247.448 79.606 251.998 80.0446 252.428 83.1241C252.548 83.9344 252.008 85.0308 251.978 85.8603C251.848 88.8635 252.898 92.3625 253.118 96.0331C253.528 103.193 252.368 111.097 252.428 117.16C254.768 116.893 257.428 116.398 258.818 117.742C259.088 123.148 259.528 127.886 257.678 132.215C254.358 132.825 250.088 132.615 246.728 133.168C247.158 137.935 246.328 142.702 246.498 147.841C246.498 148.67 247.698 147.545 248.098 148.232C248.436 149.579 248.663 150.95 248.778 152.331C247.783 152.777 246.703 153.024 245.604 153.059C244.506 153.093 243.411 152.914 242.388 152.532C241.128 149.671 240.758 146.735 240.107 143.141C239.343 138.074 238.043 133.094 236.227 128.277C235.227 133.511 236.867 141.081 234.407 145.095C234.697 149.08 234.407 153.561 235.317 157.032C246.888 154.238 258.958 151.864 271.368 149.795C269.988 120.421 272.949 89.4737 271.138 60.7954C258.898 60.3378 245.938 59.4511 234.637 58.841ZM83.3626 62.359C73.3623 63.4459 59.3618 63.2171 48.6815 64.1228C47.1815 92.9059 49.8916 124.025 48.6815 153.113C61.6819 155.22 73.9523 157.88 86.3227 160.55C86.3227 156.116 86.0527 151.921 85.8727 147.641C85.7327 147.431 84.7026 147.85 84.7326 147.049C83.8926 142.359 84.3426 136.562 83.8126 131.604C80.2725 138.278 80.4825 149.595 77.2024 156.05C75.3724 156.603 72.3823 156.593 71.2622 155.468C71.1422 153.923 71.8422 153.094 71.7222 151.55C72.2822 150.949 73.4123 152.045 73.3223 150.968C73.7323 146.373 72.8723 141.177 73.0923 136.104C72.3123 136.104 72.6323 137.144 71.9522 137.277C70.4422 135.37 64.782 136.4 61.9519 135.122C61.0346 130.408 60.8024 125.596 61.2619 120.821C63.256 119.898 65.5506 119.758 67.6521 120.431C67.3521 113.938 66.4821 105.529 66.9721 98.1401C67.1821 95.0225 68.1421 91.943 68.1121 89.3402C68.1121 88.1294 67.4121 87.0616 67.6521 86.0128C68.3821 82.8762 73.1523 83.1526 74.5023 81.1219C73.3323 77.9471 72.2222 71.0826 74.2723 68.2129C78.7024 68.4703 82.3226 68.947 83.6226 71.7309C84.9226 74.5149 83.2526 78.5287 85.6827 80.731C85.5727 74.1144 85.9727 67.9459 86.1327 61.5581H85.6827C84.9962 62.0141 84.1962 62.2902 83.3626 62.359ZM213.187 86.8137C214.247 86.1559 214.317 84.6495 215.237 83.8772C215.947 76.9842 217.237 69.5762 217.067 62.5592C215.777 70.644 214.037 78.3475 213.187 86.8137ZM219.347 89.55C220.347 82.266 222.347 74.7913 221.857 66.8591C221.077 74.3432 219.057 81.7988 219.347 89.55ZM189.006 69.6048C189.586 69.4904 190.676 68.0317 189.686 67.8411C189.541 68.4549 189.313 69.0479 189.006 69.6048ZM237.827 74.4863C238.967 75.0774 240.698 75.1536 240.107 77.232C240.978 76.2119 243.168 76.2786 244.218 75.4683C244.228 73.6244 243.999 71.7863 243.538 69.9957C241.618 70.6726 237.717 70.482 237.827 69.0423C237.687 70.6536 237.297 72.9131 237.827 74.4863ZM31.561 99.7227C35.5611 92.3625 39.5612 83.3624 44.5614 76.25C44.4014 74.3432 45.1514 72.1981 44.7914 70.7775C40.1812 80.2448 35.3811 89.5595 31.561 99.7227ZM143.134 72.9227C142.984 74.4481 140.624 75.2776 140.134 76.6409C140.044 76.8983 140.414 77.7183 140.364 78.2045C140.264 78.9863 139.714 79.8348 139.674 80.3592C139.424 83.7342 140.154 87.7194 140.364 91.7047C140.894 102.049 143.214 112.756 139.674 120.65C139.238 120.099 138.695 119.633 138.074 119.277C137.304 116.369 135.074 114.51 134.204 111.459C133.624 109.505 133.974 106.339 134.204 103.832C134.784 97.3011 135.014 89.5309 136.254 83.6866C136.484 82.5615 137.024 81.7225 136.934 80.9408C136.784 79.4821 135.254 78.2712 136.714 77.0318C134.354 76.7553 133.764 73.9714 131.714 74.0954C132.594 76.4502 137.484 79.3676 135.134 83.2957C132.384 80.5594 130.234 77.3178 127.374 74.7151C123.924 76.1261 120.194 77.2892 117.104 79.0149C117.225 80.2048 117.071 81.4056 116.654 82.5329C116.124 82.5997 116.394 81.9704 115.964 81.9514C114.524 92.6866 113.474 102.421 111.863 112.66C110.983 118.181 108.863 123.281 110.263 129.478C111.593 129.421 113.694 129.755 115.264 129.478C115.164 128.344 116.484 127.724 116.864 126.542C117.804 123.586 116.864 119.544 118.004 116.569C116.854 116.827 117.104 118.285 115.724 118.333C116.174 114.405 117.994 110.706 119.824 106.597C121.464 102.917 124.374 98.4071 123.704 94.2693C123.204 91.1803 119.964 87.1951 122.794 83.9058C125.684 87.3095 124.624 93.3731 125.074 98.9696C125.504 104.366 128.134 111.154 124.394 113.633C124.284 116.217 123.704 118.4 123.934 121.26C127.644 122.147 131.084 124.225 134.654 124.587C134.654 125.665 135.854 125.646 136.024 126.542C135.824 127.181 135.254 128.239 135.564 128.697C139.664 128.84 140.564 127.047 140.564 124.006C143.654 123.253 147.445 123.119 149.465 121.46C150.605 121.46 152.125 121.966 152.885 121.651C154.455 114.024 151.805 105.157 152.885 97.406C153.065 96.1475 153.885 94.889 154.035 93.6877C154.335 90.0648 153.805 86.3179 156.545 83.9058C157.935 86.8137 155.365 88.587 155.175 91.3424C154.985 94.0977 155.605 96.4716 155.625 99.5511C155.775 99.9516 156.785 99.6083 156.545 100.333C159.155 107.674 161.545 115.196 163.845 122.833C166.085 122.337 167.545 121.184 169.545 120.478C169.075 112.06 164.925 104.118 163.155 96.424C161.735 90.2364 162.705 84.0298 159.965 78.4333C157.965 77.0032 155.865 75.1727 152.885 75.106C150.885 75.0583 148.885 76.0593 146.955 74.9057C144.785 77.7659 143.124 81.0075 140.564 83.4863C140.464 79.8062 143.454 77.0986 145.135 74.2956C144.636 73.6487 143.936 73.1682 143.134 72.9227ZM75.8324 78.8147C76.6324 79.8158 79.0725 79.4249 79.7125 80.5689C80.1625 79.8443 79.4825 79.339 79.9325 78.6621C80.6625 78.6621 80.9325 78.2236 81.7626 78.2712C82.1223 77.2408 82.0396 76.1165 81.5325 75.1441C79.8225 74.7246 78.5324 73.9714 76.2824 73.9714C75.922 75.5618 75.7708 77.1887 75.8324 78.8147ZM189.686 75.2871C188.756 76.7172 188.056 78.3285 187.176 79.7872C187.376 80.7406 186.716 82.3995 187.636 82.7236C188.006 80.2162 189.756 76.8507 189.686 75.268V75.2871ZM238.057 80.9598C238.177 81.2458 237.787 81.9704 238.287 81.9132C238.227 81.2745 239.907 81.1028 239.197 80.5403C239.007 80.8454 238.627 80.9694 238.057 80.9408V80.9598ZM250.378 86.2417C249.108 84.8016 247.56 83.6073 245.818 82.7236C244.254 81.8984 242.568 81.3037 240.818 80.9598C238.127 85.8984 240.437 95.1083 237.817 100.133C235.217 98.6073 236.197 95.8805 236.677 92.3053C237.077 89.3116 237.567 86.6326 237.817 84.2872C236.92 83.1568 235.844 82.1662 234.627 81.3507C233.367 82.3613 233.797 84.0393 233.707 85.4599C233.407 90.5987 233.027 96.7577 233.257 102.278C235.777 102.163 238.187 101.954 240.788 101.887C243.518 98.8265 241.958 92.0765 244.668 88.9874C243.718 96.7577 248.168 101.105 248.538 108.351C249.441 108.159 250.356 108.025 251.278 107.951C252.918 99.9039 249.388 93.5352 250.378 86.2226V86.2417ZM81.7626 85.2883C81.8695 85.1539 81.9452 84.9995 81.9849 84.8351C82.0245 84.6707 82.0272 84.5002 81.9926 84.3349C81.5204 84.2603 81.06 84.129 80.6225 83.944C80.7225 84.5351 81.4425 84.7353 81.7626 85.2501V85.2883ZM77.6524 84.3349C75.6524 86.5944 70.4722 86.5658 69.6522 89.8169C69.6173 90.6676 69.6911 91.5193 69.8722 92.353C70.0622 97.7969 67.0921 104.747 68.5121 111.135C69.4622 111.354 70.5122 111.526 71.5122 111.716C71.1222 106.32 74.7423 102.183 75.3924 98.4166C75.7224 96.5098 74.5623 94.317 75.6224 92.353C77.053 96.5315 77.897 100.872 78.1324 105.262C81.1325 105.262 82.8026 105.434 85.4327 105.462C85.5727 98.7884 85.9727 91.3233 85.4327 84.7258C84.2926 85.6792 82.5726 86.3847 82.2426 87.8529C82.0326 88.7491 82.5526 89.7597 82.6926 90.7894C83.2826 95.2704 84.9126 101.83 82.2426 103.508C79.6825 98.5214 81.5725 89.7311 79.5025 84.3349H77.6524ZM199.726 107.216C198.086 110.849 196.446 114.529 194.936 118.171C193.426 121.813 191.256 125.731 191.736 129.717C192.896 128.229 191.856 124.854 193.796 124.044C194.496 124.416 193.456 126.284 194.476 126.389C200.366 117.084 205.786 104.785 210.217 93.7259C210.99 91.1128 211.069 88.3572 210.447 85.7078C210.447 85.5838 210.447 85.4694 210.217 85.5076C205.726 91.7523 203.086 99.6941 199.726 107.15V107.216ZM36.5811 103.117C38.4412 97.5395 43.0313 93.2491 42.5213 86.2893C40.6913 91.8381 37.7112 97.4918 36.5811 103.05V103.117ZM187.586 104.07C189.856 98.3498 191.776 92.4102 194.196 86.8614C194.196 86.623 194.126 86.3942 193.746 86.4705C192.296 92.6485 187.206 96.8149 187.636 104.023L187.586 104.07ZM214.047 97.8159C213.317 101.229 213.387 105.31 210.397 107.007C209.617 105.653 210.057 103.26 209.947 101.286C205.386 109.228 202.216 119.124 198.946 128.477C197.036 134.007 194.656 138.507 196.666 144.685C200.356 136.572 204.666 127.972 206.666 119.067C204.366 122.7 202.896 127.047 200.506 130.603C203.166 121.527 208.606 114.167 212.377 105.767C213.577 103.088 215.977 100.18 216.477 97.549C217.127 94.1549 216.617 90.3032 216.477 86.9853C215.487 90.408 214.907 94.0119 214.097 97.7683L214.047 97.8159ZM219.977 92.925C220.837 92.9917 220.827 90.4938 220.437 90.7703C220.737 91.7809 220.027 92.0193 220.027 92.8773L219.977 92.925ZM212.457 97.6157C212.157 96.567 213.457 95.9091 212.677 95.0701C212.477 95.604 211.907 96.9293 212.507 97.5681L212.457 97.6157ZM223.457 98.0066C223.307 97.2248 223.747 95.9282 223.227 95.461C223.157 96.0808 222.527 97.6539 223.457 97.9589V98.0066ZM136.064 103.489C136.144 102.345 137.004 100.123 136.064 99.3795C136.394 100.848 135.414 102.287 136.064 103.441V103.489ZM205.426 138.497C208.757 130.365 212.367 121.336 216.157 113.07C217.957 109.142 221.247 105.367 220.027 99.9611C214.447 112.184 210.297 125.627 205.426 138.45V138.497ZM246.958 118.152C247.954 117.708 249.05 117.508 250.148 117.57C249.468 116.169 249.818 114.596 249.918 112.87C249.388 112.155 247.818 112.327 247.408 111.507C246.948 107.34 247.228 102.926 244.218 100.552C244.298 106.54 246.198 112.098 246.958 118.104V118.152ZM72.4023 115.225C71.4635 115.374 70.591 115.782 69.8922 116.398C70.3769 117.859 70.3769 119.427 69.8922 120.888C71.6622 120.192 72.2122 121.422 73.7723 121.088C73.0423 114.519 76.5624 109.533 75.3724 103.927C72.8823 106.683 73.0523 111.068 72.4023 115.177V115.225ZM137.204 110.334C137.654 109.381 137.204 107.636 136.974 106.616C136.694 107.893 136.234 109.323 137.204 110.277V110.334ZM233.297 108.914C233.987 108.809 234.207 107.645 233.977 107.35C232.957 107.216 233.297 108.256 233.297 108.914ZM242.198 111.068C243.088 110.553 244.408 108.084 242.878 107.35C242.188 108.218 242.378 109.81 242.168 111.068H242.198ZM75.8624 117.322C76.7824 114.786 78.9425 113.318 79.7425 110.649C74.7023 109.19 76.4724 115.196 75.8324 117.322H75.8624ZM79.5125 114.777C80.2525 113.261 81.8426 112.479 82.5126 110.868C80.6125 111.326 79.7025 113.595 79.4825 114.777H79.5125ZM81.7925 117.322C82.6126 115.215 86.5027 113.681 84.9827 110.868C84.0826 113.061 82.1126 115.349 81.7626 117.322H81.7925ZM242.418 117.322C243.138 115.587 245.158 113.204 243.568 111.259C243.088 113.137 241.488 114.977 242.388 117.322H242.418ZM220.297 119.868C220.662 117.532 220.662 115.158 220.297 112.822C218.597 114.891 219.557 117.389 220.297 119.868ZM90.7028 116.15C90.6128 115.625 90.9128 113.766 90.4728 114.243C90.5128 114.72 90.2228 116.579 90.6628 116.15H90.7028ZM31.601 129.841C31.071 129.774 31.381 128.992 30.921 128.887C27.6209 135.904 24.2408 142.845 21.5607 150.396C25.4608 143.999 29.2009 137.439 33.201 131.233C34.5011 129.211 36.6511 126.895 37.3112 124.969C38.3912 121.784 37.7512 118.581 37.9912 115.196C36.2911 120.421 35.0511 126.113 31.561 129.841H31.601ZM244.028 118.104C244.308 117.504 245.028 116.312 244.258 115.959C244.578 116.874 242.858 117.79 243.988 118.104H244.028ZM90.0228 120.259C90.4428 119.801 91.2828 118.19 90.4828 117.914C90.2928 118.543 89.2928 119.496 89.9728 120.259H90.0228ZM75.4224 123.777C76.6444 122.642 77.3607 121.102 77.4224 119.477C76.9224 121.069 75.1323 121.556 75.3724 123.777H75.4224ZM200.006 164.268C197.806 170.408 195.006 176.243 195.216 182.85C201.426 166.384 207.216 148.737 214.377 132.577C215.377 130.289 217.207 127.324 217.377 125.541C217.547 123.758 216.757 121.47 217.147 119.668C210.537 133.654 205.296 149.29 199.956 164.268H200.006ZM250.428 120.259C250.146 122.474 249.993 124.702 249.968 126.933C251.278 125.388 250.968 122.471 251.798 120.478C251.365 120.252 250.864 120.174 250.378 120.259H250.428ZM253.848 122.213C253.458 121.422 254.738 120.421 253.618 120.259C253.808 121.06 252.798 121.918 253.798 122.213H253.848ZM247.008 123.977C246.838 123.024 248.008 121.27 247.008 120.841C246.611 121.849 246.594 122.958 246.958 123.977H247.008ZM85.4127 123.624C85.2027 123.081 85.8827 121.784 84.9527 121.861C84.7026 122.366 84.5426 123.481 85.4127 123.624ZM75.8324 128.906C75.7424 129.278 75.8324 132.253 76.0524 131.643C77.2402 128.508 78.6125 125.439 80.1625 122.452C78.8725 124.692 76.2924 126.79 75.8324 128.868V128.906ZM40.6913 130.861C42.0013 129.307 41.3213 125.007 41.1513 122.843C40.4838 125.453 40.3278 128.158 40.6913 130.823V130.861ZM67.3921 130.079C68.2021 128.534 68.3221 125.426 67.8421 123.405H66.9321C66.5321 125.312 66.5021 128.563 67.3921 130.041V130.079ZM65.102 129.688C65.408 127.677 65.408 125.635 65.102 123.624H64.422C63.972 125.465 64.572 127.972 65.102 129.65V129.688ZM70.3522 129.297C69.8322 127.314 71.5222 124.654 69.8922 123.624C69.5722 125.131 69.2922 128.248 70.3522 129.259V129.297ZM63.512 131.833C63.392 129.926 63.802 125.846 62.5919 124.206C61.9619 125.941 61.6019 131.09 63.512 131.795V131.833ZM195.846 131.833C195.846 129.984 197.456 128.525 196.986 126.942C196.746 128.391 193.936 130.298 195.846 131.795V131.833ZM124.204 127.924C124.004 127.638 123.864 127.305 123.284 127.333C123.184 127.972 122.364 129.383 123.284 129.688C123.694 128.735 125.284 127.962 125.114 127.143C124.294 126.914 124.924 127.981 124.204 127.886V127.924ZM166.635 129.097C167.575 130.05 166.835 131.843 166.635 133.006C167.525 133.111 167.755 132.663 168.695 132.815C168.505 131.118 168.995 129.068 168.695 127.924C168.175 127.638 166.865 128.391 166.635 129.059V129.097ZM144.735 133.006C145.635 131.423 148.635 129.192 148.385 127.924C146.768 129.308 145.517 131.036 144.735 132.968V133.006ZM127.854 130.079C128.214 129.345 129.074 129.04 129.224 128.172C128.294 128.21 127.764 129.698 127.854 130.041V130.079ZM141.774 129.688C142.004 129.173 142.674 129.021 142.914 128.515C142.294 127.924 141.364 129.393 141.774 129.65V129.688ZM233.037 215.151C233.567 185.29 229.937 158.014 229.617 128.306C229.967 157.947 229.737 188.017 233.037 215.151ZM132.184 132.205C132.534 130.851 134.824 130.203 134.464 128.887C133.825 129.217 133.283 129.692 132.885 130.272C132.487 130.851 132.246 131.515 132.184 132.205ZM154.095 130.06C154.095 129.802 154.495 129.879 154.545 129.669C154.175 129.669 154.415 129.126 154.095 129.078C153.935 129.45 153.295 129.898 154.095 130.041V130.06ZM76.7424 138.269C76.5124 135.142 78.5625 132.92 78.5625 130.641C77.1424 132.567 74.8823 135.189 76.7424 138.25V138.269ZM79.2525 137.315V138.879C79.7625 138.793 79.3425 137.925 79.4825 137.506C79.9125 135.466 81.0225 132.968 80.6225 130.832C79.5171 132.807 79.0541 135.051 79.2925 137.277L79.2525 137.315ZM285.059 146.306C287.819 144.466 290.059 141.644 292.129 139.07C294.26 136.573 296.24 133.963 298.059 131.252C293.579 136.095 287.209 139.375 285.059 146.268V146.306ZM30.4209 149.833C31.961 143.646 37.5012 139.861 36.5811 132.224C34.4411 137.849 31.511 143.884 30.4209 149.795V149.833ZM154.775 133.788C155.655 134.179 156.175 132.758 155.235 132.834C154.995 133.035 155.005 133.492 154.775 133.75V133.788ZM112.564 134.179C112.525 134.868 112.729 135.551 113.141 136.118C113.554 136.686 114.153 137.107 114.844 137.315C114.974 135.218 115.294 132.796 112.564 134.112V134.179ZM211.137 150.386C213.137 144.962 216.707 139.899 217.747 134.35C215.627 139.623 212.297 144.933 211.137 150.377V150.386ZM155.915 138.879C156.149 137.454 156.302 136.019 156.375 134.579H155.685C155.227 135.993 155.309 137.516 155.915 138.879ZM189.916 136.724C190.336 141.253 189.786 146.611 190.596 150.806C190.806 146.153 191.276 139.67 191.056 135.942C190.886 136.352 190.366 136.495 189.916 136.686V136.724ZM38.6412 144.161C38.4912 143.999 37.4812 143.474 37.7212 144.161C36.9411 146.153 35.9011 148.985 35.9011 151.006C37.6511 147.517 39.7121 144.177 42.0613 141.024C41.9113 140.242 42.3613 138.946 41.8313 138.488C40.5813 140.185 40.5713 142.978 38.6412 144.123V144.161ZM198.816 158.633C200.816 152.083 203.726 145.238 205.196 138.879C203.056 145.286 200.026 152.007 198.816 158.595V158.633ZM133.294 141.186C133.894 141.348 134.544 140.595 134.894 141.186C133.844 145.438 130.994 148.146 130.104 152.532C132.924 149.862 134.524 146.153 136.944 143.141C135.923 141.912 135.01 140.604 134.214 139.232C134.124 140.042 133.444 140.376 133.294 141.186ZM124.404 143.732C124.314 142.778 126.024 141.558 125.084 141.186C124.654 141.739 123.844 142.959 124.434 143.732H124.404ZM194.706 148.413C196.276 146.926 195.036 144.227 194.936 141.958C194.716 143.865 194.156 146.506 194.706 148.413ZM113.474 145.085V148.022C115.474 148.222 115.664 143.512 113.474 145.095V145.085ZM308.1 152.522C307.81 150.034 308.7 146.535 307.65 144.695C305.72 146.42 307.6 150.434 308.1 152.532V152.522ZM133.094 154.476C131.094 158.509 128.014 162.685 129.434 166.404C131.204 164.497 132.074 162.075 133.314 159.73C134.554 157.384 136.374 155.239 137.194 152.884C138.014 150.529 138.074 147.898 139.024 145.257C138.694 145.209 138.634 144.933 138.334 144.866C136.614 147.65 135.004 150.72 133.104 154.486L133.094 154.476ZM296.469 146.506C297.579 146.601 298.469 145.457 298.059 144.942C297.669 145.553 296.859 145.829 296.469 146.506ZM35.6711 154.524C37.1512 154.162 38.1812 153.418 39.5512 152.961C39.9912 150.863 41.1813 148.356 40.4613 145.915C38.7612 148.661 37.2912 151.626 35.6711 154.486V154.524ZM140.404 148.07C139.734 149.49 140.174 151.016 139.944 152.57C139.164 157.852 136.854 163.934 137.434 169.779C137.584 171.333 138.434 172.906 138.574 174.479C139.424 185.29 138.754 199.22 138.344 209.287C141.834 208.916 145.845 210.145 148.615 209.097C148.615 207.552 145.945 208.248 145.425 207.142C145.325 201.937 143.424 196.998 143.824 192.079C144.042 191.11 144.193 190.129 144.275 189.142C144.115 186.33 141.914 183.422 141.544 180.342C141.034 176.138 142.274 170.808 143.134 168.024C142.234 161.169 141.284 154.448 141.134 147.479H140.454L140.404 148.07ZM298.299 149.366C298.919 148.918 299.779 148.67 300.129 147.993C299.179 148.089 297.639 148.642 298.299 149.366ZM300.359 150.93C301.179 151.082 301.689 152.284 302.409 151.883C302.259 150.93 302.709 149.547 302.179 148.956C301.729 149.805 300.599 150.005 300.349 150.968L300.359 150.93ZM32.291 149.595C30.6165 152.541 28.7874 155.405 26.8108 158.176C28.0847 157.785 29.309 157.261 30.4609 156.612C30.681 154.238 32.391 151.044 32.291 149.595ZM271.178 151.159C262.958 153.943 248.388 156.45 238.777 158.395C237.687 158.624 234.907 158.471 235.127 160.159C240.818 159.1 246.878 157.766 253.128 156.44C259.588 155.087 267.128 152.808 273.659 152.722C273.618 152.303 271.868 150.911 271.138 151.159H271.178ZM4.91014 157.613C4.79014 159.892 3.74011 162.733 4.91014 163.877C5.64016 160.912 5.49017 155.125 5.14016 152.532C4.87015 154.076 4.96015 155.84 4.87015 157.613H4.91014ZM194.516 159.768C194.576 157.47 196.166 155.449 195.656 153.313C194.978 154.242 194.521 155.301 194.318 156.416C194.114 157.531 194.168 158.675 194.476 159.768H194.516ZM48.2615 154.486C47.6815 155.029 46.6014 155.153 46.4314 156.05C50.6116 155.84 54.1417 156.936 58.0718 157.813C67.7521 159.978 77.0724 161.837 86.3627 163.877V162.313C73.3823 160.683 60.3719 157.442 48.2215 154.486H48.2615ZM126.974 157.222C126.864 157.842 127.394 157.918 127.204 158.595C128.204 158.538 127.984 157.432 128.344 156.831C127.594 156.736 127.414 157.108 126.934 157.222H126.974ZM315.45 163.286C315.53 165.469 314.65 168.758 316.36 170.131C316.411 165.933 316.03 161.74 315.22 157.613C315.149 159.506 315.212 161.401 315.41 163.286H315.45ZM192.446 166.222C192.296 163.934 192.736 160.102 192.216 158.786C192.296 161.084 191.906 164.907 192.426 166.222H192.446ZM90.4428 169.941C90.3828 167.481 92.0529 165.45 91.3528 163.095C90.1928 164.516 89.8228 167.652 90.4328 169.941H90.4428ZM109.603 166.022C109.823 165.65 110.263 163.724 109.383 163.677C109.195 164.05 109.116 164.464 109.153 164.877C109.19 165.289 109.342 165.685 109.593 166.022H109.603ZM134.014 170.341C135.284 170.389 135.354 168.358 134.924 167.605C134.787 168.56 134.479 169.485 134.014 170.341ZM226.187 180.123C225.977 176.586 226.677 172.267 225.737 169.359C225.297 172.705 225.297 177.215 226.187 180.113V180.123ZM222.297 171.113C222.447 178.483 221.837 187.54 222.977 193.413C222.497 186.063 223.067 177.816 222.517 170.532C222.507 170.751 222.577 171.085 222.297 171.113ZM90.6428 176.395C90.5528 174.746 91.4729 172.944 90.8728 171.504C89.8128 172.419 90.4528 174.87 90.6628 176.395H90.6428ZM108.643 175.442C108.923 174.708 109.573 173.096 108.643 172.505C108.299 173.449 108.313 174.478 108.683 175.413L108.643 175.442ZM92.2929 176.586C92.4829 176.443 92.9129 175.232 92.0729 175.413C92.1629 175.756 91.7529 176.567 92.2929 176.586ZM144.094 178.149C144.435 178.039 144.729 177.828 144.935 177.547C145.14 177.265 145.245 176.928 145.235 176.586C144.674 176.379 144.138 176.117 143.634 175.804C143.474 176.824 144.035 177.253 144.055 178.149H144.094ZM91.6129 192.04C91.9129 187.988 93.5429 183.012 92.2929 178.931C89.5628 181.725 90.9928 188.065 91.5729 192.04H91.6129ZM145.005 181.286C145.785 181.286 145.855 180.705 146.145 180.333C145.475 180.418 144.825 180.514 144.965 181.286H145.005ZM128.124 185.195C128.124 183.736 129.334 182.201 129.034 181.086C127.954 181.829 127.064 183.879 128.084 185.195H128.124ZM146.295 185.595C146.635 186.272 146.405 187.455 147.205 187.75C148.385 185.758 150.485 183.517 151.085 181.686C150.125 183.488 147.725 184.099 146.295 185.595ZM92.7129 195.129C93.2429 194.376 93.8029 191.678 93.1729 191.22C93.2929 192.689 92.2329 194.109 92.7129 195.129ZM146.565 199.629C146.425 199.162 146.845 198.209 146.335 198.066C145.995 198.419 146.295 199.296 146.565 199.668V199.629ZM190.146 209.211C191.466 209.211 191.906 210.05 193.336 209.993C192.996 208.591 191.196 208.448 190.146 207.648V209.211ZM98.1431 212.148V212.929C105.443 213.273 116.514 213.625 123.924 213.883C125.604 213.94 128.314 214.836 128.254 212.31C117.764 212.195 107.443 212.996 98.1931 212.186L98.1431 212.148ZM137.614 214.102C149.325 213.845 162.755 213.368 174.805 212.739C162.425 212.615 150.805 213.044 138.754 212.739C138.294 213.12 138.294 213.873 137.664 214.14L137.614 214.102ZM228.297 216.104C228.197 215.465 228.527 213.444 228.067 213.759C228.117 214.388 227.787 216.419 228.297 216.104ZM233.547 224.914C234.017 224.056 233.227 221.701 233.087 221.386C233.447 222.702 231.997 224.466 233.497 224.904L233.547 224.914ZM139.314 225.305H142.504C144.505 225.39 143.504 224.952 142.044 225.104C141.364 224.78 140.094 224.961 139.314 224.713C139.034 224.713 138.774 224.771 138.854 225.104C138.854 225.247 138.994 225.324 139.294 225.295L139.314 225.305Z" fill="#015467"/>
</svg>
