<svg width="80" height="80" viewBox="0 0 80 80" fill="none" xmlns="http://www.w3.org/2000/svg">
  <path d="M54.6328 23.678H25.3672C24.6694 23.678 24.1041 24.2433 24.1041 24.9411C24.1041 25.6389 24.6694 26.2042 25.3672 26.2042H54.6328C55.3306 26.2042 55.8959 25.6387 55.8959 24.9411C55.8959 24.2434 55.3305 23.678 54.6328 23.678Z" fill="#00B0F0"/>
  <path d="M76.4639 13.4491H55.8959V5.9725C55.8959 4.31766 54.7216 2.93234 53.1627 2.60453C52.7522 1.10594 51.3822 0 49.7552 0H30.2447C28.6177 0 27.2473 1.10609 26.837 2.60453C25.2781 2.9325 24.1039 4.3175 24.1039 5.9725V13.4494H3.53609C1.58641 13.4491 0 15.0355 0 16.9853V75.8966C0 77.8464 1.58641 79.4327 3.53609 79.4327H12.6084C13.3062 79.4327 13.8716 78.8674 13.8716 78.1695C13.8716 77.4717 13.3062 76.9064 12.6084 76.9064H3.53609C2.97906 76.9064 2.52625 76.4536 2.52625 75.8966V53.9291C3.46438 55.1305 4.62641 56.1477 5.95 56.9181V70.563C5.95 72.3205 7.37953 73.7502 9.13703 73.7502H57.2397C57.9375 73.7502 58.5028 73.1849 58.5028 72.487C58.5028 71.7892 57.9375 71.2239 57.2397 71.2239H9.13719C8.77297 71.2239 8.47641 70.9275 8.47641 70.563V58.0244C8.82109 58.1291 9.17062 58.2156 9.52344 58.2881C9.52844 58.2891 9.53344 58.2902 9.53844 58.2911C9.92063 58.3691 10.307 58.4289 10.6977 58.4688C10.7167 58.4708 10.7361 58.4722 10.7552 58.4739C10.9178 58.4897 11.0811 58.502 11.2452 58.5113C11.2888 58.5138 11.3323 58.5163 11.3762 58.5183C11.5609 58.5267 11.7464 58.5325 11.9327 58.5325H32.2967V58.7848C32.2967 60.7347 33.8831 62.3209 35.8328 62.3209H44.1672C46.117 62.3209 47.7033 60.7345 47.7033 58.7848V58.5325H68.0673C68.2536 58.5325 68.4391 58.5267 68.6237 58.5183C68.6675 58.5163 68.7113 58.5136 68.755 58.5113C68.9188 58.502 69.0819 58.4897 69.2442 58.4739C69.2636 58.472 69.283 58.4705 69.3023 58.4688C69.6928 58.4289 70.0791 58.3691 70.4611 58.2913C70.4662 58.2903 70.4716 58.2892 70.4766 58.2881C70.8292 58.2156 71.1786 58.1289 71.5233 58.0244V70.563C71.5233 70.9275 71.2269 71.2239 70.8625 71.2239H61.7869C61.0891 71.2239 60.5238 71.7892 60.5238 72.487C60.5238 73.1849 61.0891 73.7502 61.7869 73.7502H70.8625C72.62 73.7502 74.0495 72.3205 74.0495 70.563V56.9181C75.3731 56.1477 76.5353 55.1305 77.4733 53.9291V75.8966C77.4733 76.4536 77.0205 76.9064 76.4634 76.9064H16.9873C16.2895 76.9064 15.7242 77.4717 15.7242 78.1695C15.7242 78.8674 16.2895 79.4327 16.9873 79.4327H76.4638C78.4136 79.4327 79.9998 77.8463 79.9998 75.8966V16.9853C80 15.0355 78.4136 13.4491 76.4639 13.4491ZM29.2347 3.53641C29.2347 2.97938 29.6877 2.52656 30.2447 2.52656H49.7552C50.3122 2.52656 50.765 2.97938 50.765 3.53641V4.48375C50.765 5.04078 50.3122 5.49359 49.7552 5.49359H30.2447C29.6877 5.49359 29.2347 5.04078 29.2347 4.48375V3.53641ZM26.6303 5.97266C26.6303 5.75766 26.7048 5.55953 26.8295 5.40297C26.8366 5.42906 26.8461 5.45406 26.8538 5.47984C26.865 5.51813 26.877 5.55594 26.8895 5.59375C26.9116 5.66047 26.9358 5.72578 26.9617 5.79063C26.9759 5.82609 26.9897 5.86188 27.005 5.89688C27.0358 5.96734 27.0697 6.03578 27.1048 6.10391C27.1184 6.13031 27.1309 6.1575 27.1453 6.18359C27.1964 6.27625 27.2509 6.36672 27.3098 6.45406C27.3198 6.46875 27.3311 6.48234 27.3412 6.49703C27.3912 6.56891 27.4434 6.63938 27.4988 6.70734C27.5212 6.73516 27.5452 6.76141 27.5684 6.78828C27.6142 6.84141 27.6611 6.89359 27.7097 6.94375C27.7372 6.97188 27.7652 6.99938 27.7933 7.02656C27.8422 7.07375 27.8925 7.11922 27.9441 7.16344C27.9734 7.18859 28.0023 7.21375 28.0325 7.23813C28.09 7.28422 28.1492 7.32797 28.2095 7.37047C28.2356 7.38875 28.2608 7.40828 28.2872 7.42609C28.375 7.48469 28.4648 7.54016 28.5578 7.59063C28.5669 7.59563 28.5767 7.59953 28.5858 7.60438C28.67 7.64938 28.7561 7.69094 28.8441 7.72906C28.8763 7.74297 28.9094 7.755 28.942 7.76797C29.0091 7.79453 29.0766 7.82 29.1456 7.8425C29.1838 7.855 29.222 7.86625 29.2606 7.87734C29.3273 7.89672 29.3948 7.91406 29.4631 7.92953C29.5025 7.93844 29.5419 7.94734 29.5819 7.955C29.6552 7.96891 29.7292 7.97953 29.8041 7.98906C29.8394 7.99344 29.8742 7.99922 29.9098 8.0025C30.0203 8.01297 30.1319 8.01953 30.245 8.01953H49.7555C49.8686 8.01953 49.9802 8.01297 50.0906 8.0025C50.1264 7.99906 50.1612 7.99344 50.1964 7.98906C50.2709 7.97969 50.3453 7.96906 50.4184 7.955C50.4586 7.94734 50.4978 7.93844 50.5373 7.92938C50.6053 7.91391 50.6728 7.89672 50.7392 7.87734C50.778 7.86609 50.8167 7.85485 50.8548 7.84219C50.9234 7.81969 50.9906 7.79453 51.0572 7.76813C51.0902 7.755 51.1237 7.74281 51.1564 7.72875C51.2436 7.69109 51.3291 7.64969 51.4123 7.60531C51.4223 7.60016 51.4327 7.59578 51.4427 7.59031C51.5355 7.53969 51.6252 7.48438 51.7128 7.42594C51.7397 7.40797 51.7652 7.38828 51.7916 7.36953C51.8516 7.32703 51.9105 7.28375 51.9675 7.23781C51.9977 7.21359 52.0269 7.18813 52.0563 7.16281C52.1077 7.11875 52.1577 7.07344 52.2064 7.02625C52.2348 6.99875 52.263 6.97125 52.2906 6.94281C52.3394 6.89266 52.3859 6.84078 52.4316 6.78766C52.455 6.76047 52.4789 6.73406 52.5014 6.70625C52.5567 6.63828 52.6089 6.56766 52.6591 6.49563C52.6692 6.48109 52.6803 6.46766 52.69 6.45313C52.7489 6.36578 52.8036 6.27516 52.8547 6.1825C52.8689 6.15672 52.8811 6.12984 52.8945 6.10375C52.9298 6.03547 52.9639 5.96672 52.9947 5.89594C53.01 5.86109 53.0238 5.82531 53.038 5.79C53.0639 5.72516 53.0881 5.65969 53.1102 5.59297C53.1227 5.55516 53.1347 5.51719 53.1461 5.47875C53.1538 5.45297 53.1633 5.42813 53.1702 5.40219C53.2948 5.55859 53.3695 5.75656 53.3695 5.97203V13.4488H26.6303V5.97266ZM45.177 58.7852C45.177 59.3422 44.7242 59.795 44.1672 59.795H35.8328C35.2758 59.795 34.823 59.3422 34.823 58.7852V55.7542C34.823 55.1972 35.2758 54.7444 35.8328 54.7444H44.1672C44.7242 54.7444 45.177 55.1972 45.177 55.7542V58.7852ZM77.4737 46.5997C77.4737 50.3177 75.3055 53.5383 72.1673 55.0645C72.0912 55.1014 72.0142 55.1355 71.9375 55.1702C71.7825 55.2403 71.6256 55.3066 71.4664 55.3686C71.4072 55.3917 71.3484 55.4163 71.2889 55.4381C71.1911 55.4739 71.0917 55.5061 70.9925 55.5386C70.9364 55.5572 70.8805 55.5763 70.8241 55.5936C70.7233 55.6245 70.6214 55.6527 70.5192 55.6803C70.4628 55.6956 70.4064 55.7108 70.3498 55.7252C70.2484 55.7506 70.1464 55.7741 70.0436 55.7961C69.983 55.8091 69.9222 55.8214 69.8613 55.833C69.7623 55.8522 69.6631 55.8703 69.5633 55.8864C69.4923 55.8977 69.4211 55.9074 69.3498 55.9169C69.2588 55.9294 69.1677 55.942 69.0756 55.9517C68.983 55.9616 68.8898 55.9684 68.7967 55.9755C68.7238 55.9811 68.6514 55.9883 68.5781 55.9922C68.4089 56.0011 68.2387 56.0066 68.0677 56.0066H47.7034V55.7542C47.7034 53.8044 46.117 52.2181 44.1673 52.2181H35.833C33.8831 52.2181 32.2969 53.8045 32.2969 55.7542V56.0066H11.9327C11.7616 56.0066 11.5916 56.0013 11.4222 55.9922C11.3486 55.9881 11.2759 55.9811 11.203 55.9755C11.11 55.9684 11.017 55.9617 10.9247 55.9517C10.8325 55.9417 10.7411 55.9292 10.6498 55.9167C10.5789 55.9072 10.5078 55.8975 10.4373 55.8863C10.3372 55.8703 10.2378 55.8519 10.1388 55.8327C10.0781 55.8209 10.0175 55.8088 9.95719 55.7958C9.85422 55.7738 9.75187 55.7502 9.65031 55.7247C9.59391 55.7105 9.53766 55.6953 9.48156 55.68C9.37937 55.6523 9.27734 55.6241 9.17641 55.5931C9.11984 55.5758 9.06375 55.5564 9.0075 55.5378C8.90844 55.5053 8.80922 55.4731 8.71172 55.4377C8.64922 55.4147 8.5875 55.3888 8.52547 55.3645C8.37203 55.3047 8.22062 55.2409 8.07125 55.1734C7.99125 55.1372 7.91094 55.1019 7.83156 55.0633C4.69422 53.5372 2.52641 50.3172 2.52641 46.5997V16.9853C2.52641 16.4283 2.97922 15.9755 3.53625 15.9755H76.4638C77.0208 15.9755 77.4736 16.4283 77.4736 16.9853L77.4737 46.5997Z" fill="#00B0F0"/>
</svg>
