<svg width="80" height="70" viewBox="0 0 80 70" fill="none" xmlns="http://www.w3.org/2000/svg">
  <path d="M38.6258 21.0932C38.1677 20.6353 37.4255 20.6353 36.9676 21.0932L33.2348 24.826L33.1816 24.7729C32.7235 24.3145 32.1143 24.0622 31.4663 24.0622C30.8184 24.0622 30.2092 24.3145 29.751 24.7727L28.0383 26.4853C26.5295 27.9942 24.5231 28.8253 22.3888 28.8253H21.9306C21.4188 28.048 20.5396 27.5331 19.5413 27.5331H16.5834C15.871 26.6656 14.7907 26.1113 13.5834 26.1113H10.295C9.64734 26.1113 9.12256 26.6363 9.12256 27.2838C9.12256 27.9312 9.64734 28.4562 10.295 28.4562H13.5834C14.4305 28.4562 15.1197 29.1454 15.1197 29.9925V39.6949C15.1197 40.542 14.4305 41.2312 13.5834 41.2312H1.17242C0.524777 41.2312 0 41.7562 0 42.4037C0 43.0511 0.524777 43.5761 1.17242 43.5761H13.5836C14.6386 43.5761 15.5961 43.1524 16.2964 42.467H19.5417C20.5399 42.467 21.4191 41.952 21.9309 41.1748H22.3891C24.5232 41.1748 26.5296 42.0058 28.0386 43.5148L29.7513 45.2275C30.2242 45.7002 30.8454 45.9367 31.4666 45.9367C32.0879 45.9367 32.7091 45.7002 33.182 45.2273L33.2351 45.1742L36.9678 48.9069C37.1968 49.1357 37.497 49.2503 37.7969 49.2503C38.0969 49.2503 38.3971 49.1359 38.6261 48.9069C39.0839 48.449 39.0839 47.7066 38.6261 47.2489L34.8932 43.516L34.9464 43.4629C35.4047 43.0047 35.657 42.3955 35.657 41.7476C35.657 41.0996 35.4047 40.4904 34.9464 40.0322L33.234 38.3197C31.7935 36.8792 30.1168 35.7608 28.2912 35.0002C30.1166 34.2395 31.7933 33.1212 33.2339 31.6807L34.9464 29.9683C35.4047 29.5101 35.657 28.9009 35.657 28.253C35.657 27.605 35.4047 26.9958 34.9465 26.5376L34.8932 26.4843L38.6261 22.7515C39.0836 22.2934 39.0836 21.5511 38.6258 21.0932ZM20.0566 39.607C20.0566 39.8911 19.8254 40.1221 19.5415 40.1221H17.4407C17.4562 39.9817 17.4648 39.8393 17.4648 39.6949V29.9925C17.4648 29.9541 17.463 29.9161 17.4618 29.8779H19.5415C19.8254 29.8779 20.0566 30.109 20.0566 30.393V39.607ZM33.2881 41.6902C33.2939 41.6961 33.3117 41.714 33.3117 41.7474C33.3117 41.7809 33.2939 41.7987 33.2879 41.8046L31.5234 43.5694C31.4921 43.6008 31.4407 43.6009 31.4091 43.5694L29.6966 41.8568C27.7477 39.908 25.1573 38.8335 22.4014 38.8303V36.1728C25.867 36.1759 29.1247 37.5267 31.5757 39.9777L33.2881 41.6902ZM33.2881 28.31L31.5754 30.0225C29.1246 32.4735 25.867 33.8243 22.4013 33.8274V31.1699C25.1571 31.1667 27.7475 30.0924 29.6963 28.1434L31.4088 26.431C31.4147 26.4251 31.4325 26.4072 31.4662 26.4072C31.4996 26.4072 31.5174 26.4251 31.5232 26.431L33.2879 28.1957C33.2937 28.2017 33.3116 28.2195 33.3116 28.253C33.3116 28.2864 33.2939 28.3041 33.2881 28.31Z" fill="#015467"/>
  <path d="M1.17242 28.4562H5.29858C5.94623 28.4562 6.471 27.9312 6.471 27.2838C6.471 26.6363 5.94623 26.1113 5.29858 26.1113H1.17242C0.524777 26.1113 0 26.6363 0 27.2838C0 27.9312 0.524777 28.4562 1.17242 28.4562Z" fill="#015467"/>
  <path d="M68.7694 41.2312H66.4164C65.5693 41.2312 64.8801 40.542 64.8801 39.6949V29.9925C64.8801 29.1454 65.5693 28.4562 66.4164 28.4562H78.8276C79.4752 28.4562 80 27.9312 80 27.2838C80 26.6363 79.4752 26.1113 78.8276 26.1113H66.4164C65.209 26.1113 64.1288 26.6656 63.4164 27.5331H60.4585C59.4602 27.5331 58.5811 28.048 58.0692 28.8253H57.6111C56.9017 28.8253 56.1888 28.728 55.4923 28.5364C54.8671 28.3647 54.2226 28.7316 54.0508 29.3558C53.879 29.9802 54.2459 30.6255 54.8703 30.7973C55.7654 31.0435 56.6831 31.1687 57.5984 31.1698V33.8271C54.1329 33.824 50.8751 32.4732 48.4241 30.0222L46.7117 28.3099C46.7058 28.3039 46.688 28.2861 46.688 28.2525C46.688 28.219 46.7056 28.2012 46.7117 28.1953L48.4763 26.4305C48.5077 26.3993 48.5592 26.3991 48.5906 26.4305L50.0735 27.9134C50.5315 28.3713 51.2737 28.3713 51.7316 27.9134C52.1895 27.4556 52.1895 26.7132 51.7316 26.2555L50.2486 24.7724C49.3026 23.8268 47.7636 23.827 46.818 24.7726L46.7649 24.8257L43.0322 21.093C42.5742 20.6352 41.832 20.6352 41.3741 21.093C40.9162 21.5509 40.9162 22.2933 41.3741 22.751L45.1069 26.4838L45.0538 26.537C44.5954 26.9952 44.3431 27.6044 44.3431 28.2525C44.3431 28.9003 44.5954 29.5095 45.0538 29.9677L46.7661 31.6802C48.2067 33.1207 49.8834 34.239 51.7089 34.9997C49.8835 35.7604 48.2068 36.8787 46.7663 38.3192L45.0538 40.0316C44.5954 40.4898 44.3431 41.099 44.3431 41.7469C44.3431 42.3949 44.5954 43.0041 45.0536 43.4623L45.1069 43.5156L41.3741 47.2484C40.9162 47.7063 40.9162 48.4487 41.3741 48.9064C41.6031 49.1352 41.9032 49.2498 42.2032 49.2498C42.5032 49.2498 42.8033 49.1354 43.0324 48.9064L46.7652 45.1735L46.8184 45.2267C47.2912 45.6997 47.9123 45.9362 48.5337 45.9361C49.1549 45.9361 49.776 45.6997 50.2492 45.2268L51.9617 43.5143C53.4705 42.0053 55.4769 41.1743 57.6112 41.1743H58.0694C58.5812 41.9516 59.4604 42.4665 60.4586 42.4665H63.7039C64.4043 43.152 65.3617 43.5756 66.4168 43.5756H68.7697C69.4174 43.5756 69.9422 43.0507 69.9422 42.4032C69.9422 41.7557 69.4171 41.2312 68.7694 41.2312ZM50.3034 41.8568L48.5911 43.5692C48.5596 43.6008 48.5081 43.6009 48.4766 43.5692L46.7119 41.8045C46.7061 41.7985 46.6883 41.7807 46.6883 41.7472C46.6883 41.7138 46.7061 41.696 46.7119 41.69L48.4246 39.9775C50.8754 37.5265 54.133 36.1757 57.5987 36.1726V38.8301C54.8427 38.8335 52.2523 39.9078 50.3034 41.8568ZM59.9434 39.607V30.393C59.9434 30.109 60.1746 29.8779 60.4585 29.8779H62.5382C62.5371 29.9161 62.5352 29.9541 62.5352 29.9925V39.6949C62.5352 39.8393 62.5438 39.9817 62.5593 40.1221H60.4585C60.1746 40.1221 59.9434 39.8911 59.9434 39.607Z" fill="#015467"/>
  <path d="M78.8276 41.2312H73.7658C73.1182 41.2312 72.5934 41.7562 72.5934 42.4037C72.5934 43.0511 73.1182 43.5761 73.7658 43.5761H78.8276C79.4752 43.5761 80 43.0511 80 42.4037C80 41.7562 79.4751 41.2312 78.8276 41.2312Z" fill="#015467"/>
  <path d="M50.9051 10.9816L52.3674 11.5665L51.2214 16.8176C51.0799 17.4657 51.3764 18.1137 51.9595 18.4299C52.1843 18.5518 52.4268 18.6112 52.6669 18.6112C53.0502 18.6112 53.4269 18.4599 53.7135 18.1698L60.1745 11.6292C60.4768 11.3235 60.6303 10.9023 60.5961 10.4738C60.5617 10.0452 60.343 9.65392 59.9955 9.39974L58.3367 8.18746L59.6386 2.72365C59.7937 2.07256 59.4901 1.39709 58.9001 1.08084C58.3108 0.764602 57.58 0.885284 57.1237 1.37442L50.3741 8.60422C50.0416 8.96048 49.9065 9.45727 50.0127 9.93296C50.1188 10.4083 50.4524 10.8004 50.9051 10.9816ZM56.5962 5.37536L55.922 8.20543C55.7835 8.78539 56.0052 9.38755 56.4865 9.73959C56.4863 9.73943 56.4866 9.73959 56.4865 9.73959L57.7983 10.698L54.1513 14.3901L54.8151 11.3486C54.9701 10.641 54.5943 9.93187 53.9214 9.66252L52.9547 9.27578L56.5962 5.37536Z" fill="#015467"/>
  <path d="M26.4427 18.1698C26.7292 18.4599 27.106 18.6112 27.4893 18.6112C27.7294 18.6112 27.972 18.5518 28.1967 18.4299C28.7796 18.1137 29.0763 17.4657 28.9348 16.8177L27.7888 11.5665L29.2514 10.9814C29.7038 10.8004 30.0372 10.4083 30.1433 9.93265C30.2496 9.45711 30.1144 8.96032 29.7819 8.60374L23.0327 1.37457C22.5764 0.885439 21.8454 0.764445 21.2561 1.08084C20.6662 1.39709 20.3625 2.07271 20.5176 2.7238L21.8194 8.18746L20.1601 9.40005C19.813 9.65392 19.5943 10.0452 19.5599 10.4738C19.5257 10.9023 19.6794 11.3235 19.9812 11.6289L26.4427 18.1698ZM23.6695 9.7399C23.6694 9.7399 23.6697 9.7399 23.6695 9.7399C24.1509 9.38802 24.3728 8.78555 24.2345 8.2059L23.5601 5.37536L27.2017 9.27593L26.2346 9.66268C25.562 9.93187 25.1862 10.641 25.3411 11.3478L26.005 14.3901L22.358 10.698L23.6695 9.7399Z" fill="#015467"/>
  <path d="M53.7135 51.8302C53.2475 51.3582 52.5426 51.2537 51.9594 51.57C51.3764 51.8862 51.0797 52.5342 51.2212 53.1821L52.3672 58.4333L50.9046 59.0185C50.4522 59.1995 50.1188 59.5915 50.0127 60.0672C49.9064 60.5428 50.0416 61.0396 50.3741 61.3961L57.1233 68.6253C57.4096 68.9322 57.804 69.0941 58.2035 69.0941C58.441 69.0941 58.6803 69.0369 58.9 68.919C59.4898 68.6028 59.7935 67.9272 59.6384 67.2761L58.3367 61.8126L59.9961 60.6C60.3431 60.3461 60.5618 59.9548 60.5962 59.5262C60.6305 59.0977 60.4768 58.6766 60.1749 58.3711L53.7135 51.8302ZM56.4868 60.2601C56.4869 60.2601 56.4866 60.2601 56.4868 60.2601C56.0055 60.612 55.7835 61.2145 55.9218 61.7941L56.5962 64.6247L52.9547 60.7241L53.9217 60.3374C54.5943 60.0682 54.9701 59.3591 54.8152 58.6522L54.1513 55.61L57.7983 59.302L56.4868 60.2601Z" fill="#015467"/>
  <path d="M29.2512 59.0185L27.789 58.4335L28.935 53.1824C29.0764 52.5343 28.7799 51.8864 28.1968 51.5701C27.6136 51.2539 26.9089 51.3585 26.4427 51.8302L19.9817 58.3708C19.6794 58.6766 19.5259 59.0977 19.5601 59.5262C19.5945 59.9548 19.8132 60.3461 20.1607 60.6003L21.8196 61.8126L20.5177 67.2764C20.3627 67.9275 20.6663 68.603 21.2562 68.9192C21.4758 69.0371 21.7153 69.0943 21.9528 69.0943C22.3524 69.0943 22.7464 68.9323 23.0327 68.6256L29.7822 61.3958C30.1147 61.0396 30.2498 60.5428 30.1437 60.0671C30.0374 59.5917 29.7039 59.1996 29.2512 59.0185ZM23.5601 64.6247L24.2343 61.7946C24.3728 61.2147 24.1512 60.6125 23.6698 60.2605C23.67 60.2606 23.6697 60.2605 23.6698 60.2605L22.358 59.302L26.005 55.61L25.3413 58.6514C25.1862 59.3591 25.562 60.0682 26.235 60.3375L27.2017 60.7243L23.5601 64.6247Z" fill="#015467"/>
</svg>
