<svg width="80" height="80" viewBox="0 0 80 80" fill="none" xmlns="http://www.w3.org/2000/svg">
  <path d="M45.1458 10.1053H34.8542C34.6734 10.1053 34.5262 9.95828 34.5262 9.77734V6.22266C34.5262 6.04172 34.6734 5.89469 34.8542 5.89469H46.7369C47.4347 5.89469 48 5.32938 48 4.63156C48 3.93375 47.4347 3.36844 46.7369 3.36844H41.2631V1.26312C41.2631 0.565469 40.6978 0 40 0C39.3023 0 38.7369 0.565469 38.7369 1.26312V3.36844H34.8542C33.2805 3.36844 32 4.64891 32 6.22266V9.77719C32 11.3511 33.2805 12.6316 34.8542 12.6316H45.1458C45.3267 12.6316 45.4738 12.7786 45.4738 12.9595V16.5141C45.4738 16.6952 45.3267 16.8422 45.1458 16.8422H33.2631C32.5655 16.8422 32 17.4075 32 18.1053C32 18.8031 32.5656 19.3684 33.2631 19.3684H38.7369V21.4738C38.7369 22.1716 39.3025 22.7369 40 22.7369C40.6978 22.7369 41.2631 22.1716 41.2631 21.4738V19.3684H45.1458C46.7197 19.3684 48 18.088 48 16.5142V12.9595C48 11.3858 46.7195 10.1053 45.1458 10.1053Z" fill="#00B0F0"/>
  <path d="M51.3684 30.2034C51.3684 28.4081 49.9077 26.9473 48.1123 26.9473H31.8877C30.0923 26.9473 28.6316 28.4081 28.6316 30.2034V34.6386C28.6316 35.3895 28.8895 36.0802 29.3184 36.6316C28.8897 37.183 28.6316 37.8734 28.6316 38.6245V43.0597C28.6316 43.8106 28.8895 44.5013 29.3184 45.0527C28.8897 45.6041 28.6316 46.2945 28.6316 47.0456V51.4808C28.6316 52.2317 28.8895 52.9223 29.3184 53.4738C28.8897 54.0252 28.6316 54.7156 28.6316 55.4667V59.9019C28.6316 60.6528 28.8895 61.3434 29.3184 61.8948C28.8897 62.4463 28.6316 63.1367 28.6316 63.8878V68.323C28.6316 69.0739 28.8895 69.7645 29.3184 70.3159C28.8897 70.8673 28.6316 71.5578 28.6316 72.3089V76.7441C28.6316 78.5394 30.0923 80.0002 31.8877 80.0002H48.1123C49.9077 80.0002 51.3684 78.5394 51.3684 76.7441V72.3089C51.3684 71.558 51.1105 70.8673 50.6816 70.3159C51.1103 69.7645 51.3684 69.0741 51.3684 68.323V63.8878C51.3684 63.1369 51.1105 62.4463 50.6816 61.8948C51.1103 61.3434 51.3684 60.653 51.3684 59.9019V55.4667C51.3684 54.7158 51.1105 54.0252 50.6816 53.4738C51.1103 52.9223 51.3684 52.2319 51.3684 51.4808V47.0456C51.3684 46.2947 51.1105 45.6041 50.6816 45.0527C51.1103 44.5013 51.3684 43.8108 51.3684 43.0597V38.6245C51.3684 37.8736 51.1105 37.183 50.6816 36.6316C51.1103 36.0802 51.3684 35.3897 51.3684 34.6386V30.2034ZM48.842 76.7439C48.842 77.1464 48.5148 77.4736 48.1122 77.4736H31.8877C31.4853 77.4736 31.1578 77.1464 31.1578 76.7439V72.3087C31.1578 71.9062 31.4852 71.5791 31.8877 71.5791H48.1123C48.5148 71.5791 48.8422 71.9062 48.8422 72.3087L48.842 76.7439ZM48.842 68.3228C48.842 68.7253 48.5148 69.0527 48.1122 69.0527H31.8877C31.4853 69.0527 31.1578 68.7255 31.1578 68.3228V63.8877C31.1578 63.4852 31.4852 63.1578 31.8877 63.1578H48.1123C48.5148 63.1578 48.8422 63.485 48.8422 63.8877L48.842 68.3228ZM48.842 59.9019C48.842 60.3044 48.5148 60.6317 48.1122 60.6317H31.8877C31.4853 60.6317 31.1578 60.3045 31.1578 59.9019V55.4667C31.1578 55.0642 31.4852 54.7369 31.8877 54.7369H48.1123C48.5148 54.7369 48.8422 55.0641 48.8422 55.4667L48.842 59.9019ZM48.842 43.0597C48.842 43.4627 48.5153 43.7894 48.1122 43.7894H45.5706C44.873 43.7894 44.3075 44.355 44.3075 45.0525C44.3075 45.7502 44.8731 46.3156 45.5706 46.3156H48.1122C48.5152 46.3156 48.842 46.6423 48.842 47.0453V51.4805C48.842 51.8834 48.5153 52.2102 48.1122 52.2102H31.8877C31.4847 52.2102 31.1578 51.8834 31.1578 51.4805V47.0453C31.1578 46.6423 31.4845 46.3156 31.8877 46.3156H39.4178C40.1155 46.3156 40.6809 45.75 40.6809 45.0525C40.6809 44.3548 40.1153 43.7894 39.4178 43.7894H31.8877C31.4847 43.7894 31.1578 43.4627 31.1578 43.0595V38.6244C31.1578 38.2214 31.4845 37.8945 31.8877 37.8945H48.1123C48.5153 37.8945 48.8422 38.2212 48.8422 38.6244L48.842 43.0597ZM48.842 34.6386C48.842 35.0411 48.5148 35.3684 48.1122 35.3684H31.8877C31.4853 35.3684 31.1578 35.0413 31.1578 34.6386V30.2034C31.1578 29.8009 31.4852 29.4736 31.8877 29.4736H48.1123C48.5148 29.4736 48.8422 29.8008 48.8422 30.2034L48.842 34.6386Z" fill="#00B0F0"/>
  <path d="M80 47.0456C80 45.2503 78.5392 43.7895 76.7439 43.7895H60.5192C58.7239 43.7895 57.2631 45.2503 57.2631 47.0456V51.4808C57.2631 52.2317 57.5211 52.9223 57.95 53.4737C57.5213 54.0252 57.2631 54.7156 57.2631 55.4667V59.9019C57.2631 60.6528 57.5211 61.3434 57.95 61.8948C57.5213 62.4463 57.2631 63.1367 57.2631 63.8878V68.323C57.2631 69.0739 57.5211 69.7645 57.95 70.3159C57.5213 70.8673 57.2631 71.5578 57.2631 72.3089V76.7441C57.2631 78.5394 58.7239 80.0002 60.5192 80.0002H76.7439C78.5392 80.0002 80 78.5394 80 76.7441V72.3089C80 71.558 79.742 70.8673 79.3131 70.3159C79.7419 69.7645 80 69.0741 80 68.323V63.8878C80 63.1369 79.742 62.4463 79.3131 61.8948C79.7419 61.3434 80 60.653 80 59.9019V55.4667C80 54.7158 79.742 54.0252 79.3131 53.4737C79.7419 52.9223 80 52.2319 80 51.4808V47.0456ZM77.4737 76.7439C77.4737 77.1464 77.1466 77.4736 76.7441 77.4736H60.5192C60.1167 77.4736 59.7894 77.1464 59.7894 76.7439V72.3088C59.7894 71.9063 60.1166 71.5791 60.5192 71.5791H76.7439C77.1464 71.5791 77.4736 71.9063 77.4736 72.3088L77.4737 76.7439ZM77.4737 68.3228C77.4737 68.7253 77.1466 69.0527 76.7441 69.0527H60.5192C60.1167 69.0527 59.7894 68.7255 59.7894 68.3228V63.8877C59.7894 63.4852 60.1166 63.1578 60.5192 63.1578H76.7439C77.1464 63.1578 77.4736 63.485 77.4736 63.8877L77.4737 68.3228ZM77.4737 59.9019C77.4737 60.3044 77.1466 60.6317 76.7441 60.6317H60.5192C60.1167 60.6317 59.7894 60.3045 59.7894 59.9019V55.4667C59.7894 55.0642 60.1166 54.7369 60.5192 54.7369H76.7439C77.1464 54.7369 77.4736 55.0641 77.4736 55.4667L77.4737 59.9019ZM77.4737 51.4808C77.4737 51.8833 77.1466 52.2105 76.7441 52.2105H60.5192C60.1167 52.2105 59.7894 51.8833 59.7894 51.4808V47.0456C59.7894 46.6431 60.1166 46.3159 60.5192 46.3159H76.7439C77.1464 46.3159 77.4736 46.6431 77.4736 47.0456L77.4737 51.4808Z" fill="#00B0F0"/>
  <path d="M22.7369 38.6245C22.7369 36.8292 21.2761 35.3684 19.4808 35.3684H3.25609C1.46078 35.3684 0 36.8291 0 38.6245V43.0597C0 43.8106 0.257969 44.5013 0.686875 45.0527C0.257969 45.6041 0 46.2945 0 47.0456V51.4808C0 52.2317 0.257969 52.9223 0.686875 53.4738C0.257969 54.0252 0 54.7156 0 55.4666V59.9017C0 60.6527 0.257969 61.3433 0.686875 61.8947C0.257969 62.4461 0 63.1367 0 63.8877V68.3228C0 69.0738 0.257969 69.7644 0.686875 70.3158C0.257969 70.8672 0 71.5577 0 72.3088V76.7439C0 78.5392 1.46078 80 3.25609 80H19.4808C21.2761 80 22.7369 78.5392 22.7369 76.7439V72.3088C22.7369 71.5578 22.4789 70.8672 22.05 70.3158C22.4787 69.7644 22.7369 69.0739 22.7369 68.3228V63.8877C22.7369 63.1367 22.4789 62.4461 22.05 61.8947C22.4787 61.3433 22.7369 60.6528 22.7369 59.9017V55.4666C22.7369 54.7156 22.4789 54.025 22.05 53.4736C22.4787 52.9222 22.7369 52.2317 22.7369 51.4806V47.0455C22.7369 46.2945 22.4789 45.6039 22.05 45.0525C22.4787 44.5011 22.7369 43.8106 22.7369 43.0595V38.6245ZM20.2105 76.7439C20.2105 77.1464 19.8831 77.4736 19.4808 77.4736H3.25609C2.85375 77.4736 2.52641 77.1464 2.52641 76.7439V72.3088C2.52641 71.9063 2.85375 71.5791 3.25609 71.5791H19.4808C19.8831 71.5791 20.2105 71.9063 20.2105 72.3088V76.7439ZM20.2105 68.3228C20.2105 68.7253 19.8831 69.0527 19.4808 69.0527H3.25609C2.85375 69.0527 2.52641 68.7255 2.52641 68.3228V63.8877C2.52641 63.4852 2.85375 63.1578 3.25609 63.1578H19.4808C19.8831 63.1578 20.2105 63.485 20.2105 63.8877V68.3228ZM20.2105 59.9019C20.2105 60.3044 19.8831 60.6317 19.4808 60.6317H3.25609C2.85375 60.6317 2.52641 60.3045 2.52641 59.9019V55.4667C2.52641 55.0642 2.85375 54.7369 3.25609 54.7369H19.4808C19.8831 54.7369 20.2105 55.0641 20.2105 55.4667V59.9019ZM20.2105 51.4808C20.2105 51.8833 19.8831 52.2105 19.4808 52.2105H3.25609C2.85375 52.2105 2.52641 51.8833 2.52641 51.4808V47.0456C2.52641 46.6431 2.85375 46.3159 3.25609 46.3159H19.4808C19.8831 46.3159 20.2105 46.6431 20.2105 47.0456V51.4808ZM20.2105 43.0597C20.2105 43.4622 19.8831 43.7894 19.4808 43.7894H3.25609C2.85375 43.7894 2.52641 43.4622 2.52641 43.0595V38.6244C2.52641 38.2219 2.85375 37.8945 3.25609 37.8945H19.4808C19.8831 37.8945 20.2105 38.2217 20.2105 38.6244V43.0597Z" fill="#00B0F0"/>
</svg>
