<svg width="60" height="80" viewBox="0 0 60 80" fill="none" xmlns="http://www.w3.org/2000/svg">
  <path d="M56.5264 70.9133V9.08672C58.468 8.53531 59.8948 6.7475 59.8948 4.63156C59.8948 2.07766 57.817 0 55.2633 0H4.73703C2.18328 0 0.105469 2.07766 0.105469 4.63156C0.105469 6.7475 1.53234 8.53516 3.47391 9.08672V70.9134C1.53234 71.4648 0.105469 73.2527 0.105469 75.3686C0.105469 77.9225 2.18328 80.0002 4.73703 80.0002H55.2633C57.817 80.0002 59.8948 77.9225 59.8948 75.3686C59.8948 73.2525 58.468 71.4647 56.5264 70.9133ZM2.63172 4.63156C2.63172 3.47063 3.57609 2.52625 4.73703 2.52625H55.2633C56.4242 2.52625 57.3686 3.47063 57.3686 4.63156C57.3686 5.7925 56.4242 6.73688 55.2633 6.73688H4.73703C3.57609 6.73688 2.63172 5.7925 2.63172 4.63156ZM14.8423 64H6.00016V41.2631H9.78969C10.4875 41.2631 11.0528 40.6975 11.0528 40C11.0528 39.3023 10.4873 38.7369 9.78969 38.7369H6.00016V24.4211H13.158C13.8558 24.4211 14.4211 23.8555 14.4211 23.158C14.4211 22.4603 13.8558 21.8948 13.158 21.8948H6.00016V17.6844H24.9475C25.6453 17.6844 26.2106 17.1187 26.2106 16.4212C26.2106 15.7236 25.6453 15.1581 24.9475 15.1581H6.00016V9.26313H40.5264V18.1052C40.5264 20.6591 42.6042 22.7367 45.158 22.7367C45.9159 22.7367 46.6311 22.5527 47.2633 22.2284V28.2105C47.2633 30.7644 49.3411 32.842 51.8948 32.842C52.6528 32.842 53.368 32.658 54.0002 32.3338V70.7367H6.00016V66.5263H14.8422C15.54 66.5263 16.1053 65.9606 16.1053 65.2631C16.1053 64.5656 15.54 64 14.8423 64ZM51.8948 30.3158C50.7339 30.3158 49.7895 29.3714 49.7895 28.2105V18.1052C49.7895 17.4075 49.2241 16.842 48.5264 16.842C47.8287 16.842 47.2633 17.4077 47.2633 18.1052C47.2633 19.2661 46.3189 20.2105 45.158 20.2105C43.997 20.2105 43.0527 19.2661 43.0527 18.1052V9.26313H54.0002V28.2105C54.0002 29.3714 53.0558 30.3158 51.8948 30.3158ZM55.2633 77.4737H4.73703C3.57609 77.4737 2.63172 76.5294 2.63172 75.3684C2.63172 74.2075 3.57609 73.2631 4.73703 73.2631H55.2633C56.4242 73.2631 57.3686 74.2075 57.3686 75.3684C57.3686 76.5294 56.4242 77.4737 55.2633 77.4737Z" fill="#015467"/>
  <path d="M39.4155 31.6414C37.8578 29.6537 35.8141 28.2317 33.5453 27.5036C32.7314 27.2423 31.8992 27.8542 31.8992 28.7092C31.8992 29.2628 32.262 29.7448 32.7886 29.9153C34.3477 30.4194 35.7755 31.3427 36.9355 32.618L34.2797 38.3133C32.8573 37.7203 31.4284 37.4237 30.0002 37.4237C28.5717 37.4237 27.143 37.7203 25.7206 38.3133L23.0648 32.618C24.2622 31.3017 25.7452 30.362 27.3628 29.8702C27.8998 29.7067 28.2725 29.2197 28.2725 28.6581V28.6553C28.2725 27.8069 27.4528 27.1995 26.6406 27.4452C24.2975 28.1542 22.1848 29.5995 20.5847 31.6416C20.2912 32.0159 20.233 32.5234 20.4341 32.9545L23.9684 40.5339C24.1903 41.0097 24.6933 41.3159 25.2594 41.2566C25.4228 41.2394 25.5802 41.1828 25.7248 41.1053C28.6062 39.5656 31.408 39.5683 34.2895 41.1133C34.475 41.2127 34.6802 41.2631 34.8864 41.2631C35.0206 41.2631 35.1553 41.2417 35.285 41.1986C35.6145 41.0889 35.8844 40.8484 36.0311 40.5339L39.5655 32.9545C39.767 32.5233 39.7089 32.0158 39.4155 31.6414Z" fill="#015467"/>
  <path d="M27.7611 54.3905C27.6056 54.0798 27.3292 53.8472 26.9969 53.7467C23.8614 52.7998 21.877 50.8153 20.9302 47.68C20.8298 47.3475 20.5969 47.0711 20.2866 46.9158C19.9758 46.7603 19.6153 46.7394 19.2889 46.8581L11.4303 49.7184C10.9834 49.8811 10.6656 50.2811 10.6084 50.7534C10.152 54.5159 11.3689 58.1523 13.9467 60.7302C16.1686 62.952 19.1766 64.1628 22.3739 64.1628C22.8864 64.1628 23.4037 64.1317 23.9236 64.0686C24.3958 64.0114 24.7958 63.6938 24.9586 63.2467L27.8189 55.388C27.9375 55.0616 27.9166 54.7008 27.7611 54.3905ZM22.8603 61.6247C20.1527 61.7531 17.5861 60.7967 15.7333 58.9438C13.8802 57.0908 12.9241 54.5267 13.0523 51.8166L18.9575 49.6672C20.1306 52.5172 22.1597 54.5464 25.0098 55.7194L22.8603 61.6247Z" fill="#015467"/>
  <path d="M49.392 50.7533C49.3348 50.2811 49.017 49.8812 48.5702 49.7183L40.7116 46.858C40.385 46.7391 40.0244 46.76 39.7139 46.9156C39.4034 47.0709 39.1706 47.3475 39.0703 47.6798C38.1234 50.8153 36.1391 52.7997 33.0036 53.7466C32.6711 53.8469 32.3947 54.0797 32.2394 54.3903C32.0839 54.7008 32.063 55.0616 32.1817 55.3878L35.042 63.2466C35.2047 63.6936 35.6047 64.0112 36.077 64.0684C36.5969 64.1316 37.1141 64.1627 37.6267 64.1627C40.8239 64.1627 43.8322 62.9519 46.0536 60.73C48.6317 58.1522 49.8484 54.5159 49.392 50.7533ZM44.267 58.9437C42.4141 60.7969 39.8481 61.7536 37.1402 61.6245L34.9906 55.7192C37.8408 54.5464 39.87 52.5172 41.0428 49.6672L46.948 51.8166C47.0764 54.5269 46.1203 57.0906 44.267 58.9437Z" fill="#015467"/>
  <path d="M30.0002 42.1053C27.4464 42.1053 25.3686 44.183 25.3686 46.7369C25.3686 49.2908 27.4464 51.3684 30.0002 51.3684C32.5539 51.3684 34.6317 49.2908 34.6317 46.7369C34.6317 44.183 32.5539 42.1053 30.0002 42.1053ZM30.0002 48.842C28.8392 48.842 27.8948 47.8977 27.8948 46.7367C27.8948 45.5758 28.8392 44.6314 30.0002 44.6314C31.1611 44.6314 32.1055 45.5758 32.1055 46.7367C32.1055 47.8977 31.1611 48.842 30.0002 48.842Z" fill="#015467"/>
</svg>
