<svg width="32" height="28" viewBox="0 0 32 28" fill="none" xmlns="http://www.w3.org/2000/svg">
  <path d="M8.91602 0.125C8.13361 0.125 7.49935 0.759263 7.49935 1.54167V3.66667H3.24935C1.68454 3.66667 0.416016 4.93519 0.416016 6.5V24.9167C0.416016 26.4815 1.68454 27.75 3.24935 27.75H28.7493C30.3142 27.75 31.5827 26.4815 31.5827 24.9167V6.5C31.5827 4.93519 30.3142 3.66667 28.7493 3.66667H24.4993V1.54167C24.4993 0.759263 23.8651 0.125 23.0827 0.125H21.666C20.8836 0.125 20.2493 0.759263 20.2493 1.54167V3.66667H11.7493V1.54167C11.7493 0.759263 11.1151 0.125 10.3327 0.125H8.91602ZM4.8684 12.2955H27.1303V23.3712H4.8684V12.2955Z" fill="#5E8698"/>
</svg>
