<svg width="80" height="80" viewBox="0 0 80 80" fill="none" xmlns="http://www.w3.org/2000/svg">
  <path d="M57.6839 32H55.9997C55.3019 32 54.7366 32.5655 54.7366 33.2631C54.7366 33.9608 55.302 34.5262 55.9997 34.5262H57.6839C58.3817 34.5262 58.947 33.9608 58.947 33.2631C58.947 32.5655 58.3816 32 57.6839 32Z" fill="#00B0F0"/>
  <path d="M48.842 40C48.842 39.3022 48.2767 38.7369 47.5789 38.7369H20.6314C19.9336 38.7369 19.3683 39.3023 19.3683 40C19.3683 40.6978 19.9336 41.2631 20.6314 41.2631H47.5788C48.2764 41.2631 48.842 40.6978 48.842 40Z" fill="#00B0F0"/>
  <path d="M20.6314 64C19.9336 64 19.3683 64.5655 19.3683 65.2631C19.3683 65.9608 19.9336 66.5263 20.6314 66.5263H27.3683C28.0661 66.5263 28.6314 65.9608 28.6314 65.2631C28.6314 64.5655 28.0661 64 27.3683 64H20.6314Z" fill="#00B0F0"/>
  <path d="M53.9789 68.042C54.8488 69.2023 56.2339 69.8948 57.6841 69.8948C59.1342 69.8948 60.5194 69.2023 61.3894 68.0422L79.0736 44.4633C80.6059 42.4203 80.1903 39.5116 78.147 37.9789C76.1039 36.4469 73.195 36.8623 71.663 38.9055L70.7364 40.1408V4.63156C70.7366 2.07781 68.6587 0 66.105 0H12.2106C9.65656 0 7.57891 2.07781 7.57891 4.63156V5.05266H4.63156C2.07766 5.05266 0 7.13047 0 9.68422V70.3158C0 72.8695 2.07766 74.9473 4.63156 74.9473H7.57891V75.3684C7.57891 77.9222 9.65656 80 12.2105 80H66.1048C68.6586 80 70.7364 77.9222 70.7364 75.3684V61.8947C70.7364 61.1969 70.1711 60.6316 69.4733 60.6316C68.7755 60.6316 68.2102 61.1969 68.2102 61.8947V75.3684C68.2102 76.5294 67.2658 77.4737 66.1048 77.4737H12.2106C11.0497 77.4737 10.1053 76.5294 10.1053 75.3684V21.4738C10.1053 20.7759 9.53984 20.2106 8.84219 20.2106C8.14453 20.2106 7.57906 20.7761 7.57906 21.4738V72.4211H4.63156C3.47063 72.4211 2.52625 71.4767 2.52625 70.3158V9.68422C2.52625 8.52328 3.47063 7.57891 4.63156 7.57891H7.57891V16.4209C7.57891 17.1187 8.14437 17.6841 8.84203 17.6841C9.53969 17.6841 10.1052 17.1186 10.1052 16.4209V4.63156C10.1052 3.47063 11.0495 2.52625 12.2105 2.52625H66.1048C67.2658 2.52625 68.2102 3.47063 68.2102 4.63156V43.3684C68.2102 43.413 68.2125 43.4567 68.2169 43.5002L57.6841 57.5441L53.8106 52.3791C53.0684 51.3892 51.985 50.7478 50.7603 50.573C49.535 50.398 48.3158 50.7106 47.3264 51.4528C46.3366 52.195 45.6952 53.2784 45.5203 54.5031C45.3453 55.728 45.658 56.9473 46.4002 57.937L53.9789 68.042ZM48.0211 54.8603C48.1008 54.3039 48.3923 53.8114 48.8423 53.4737C49.2105 53.1975 49.6486 53.0523 50.1008 53.0523C50.2009 53.0523 50.3019 53.0595 50.403 53.0739C50.9595 53.1536 51.452 53.4452 51.7895 53.895L56.6736 60.4073C56.912 60.7255 57.2867 60.9127 57.6841 60.9127C58.0814 60.9127 58.4561 60.7255 58.6945 60.4073L73.6841 40.4213C74.3805 39.4923 75.7028 39.3038 76.6314 40.0002C77.56 40.6967 77.7489 42.0189 77.0525 42.9475L59.3683 66.5266C58.9728 67.0537 58.3433 67.3686 57.6841 67.3686C57.025 67.3686 56.3955 67.0537 56 66.5266L48.4211 56.4212C48.0836 55.9714 47.9416 55.417 48.0211 54.8603Z" fill="#00B0F0"/>
  <path d="M40.4209 58.5262C40.4209 57.8284 39.8556 57.2631 39.1578 57.2631H20.6314C19.9336 57.2631 19.3683 57.8286 19.3683 58.5262C19.3683 59.2239 19.9336 59.7894 20.6314 59.7894H39.1577C39.8553 59.7895 40.4209 59.2241 40.4209 58.5262Z" fill="#00B0F0"/>
  <path d="M29.8945 21.8947C29.1967 21.8947 28.6314 22.46 28.6314 23.1578C28.6314 23.8556 29.1967 24.4209 29.8945 24.4209H48.4209C49.1187 24.4209 49.6841 23.8556 49.6841 23.1578C49.6841 22.46 49.1187 21.8947 48.4209 21.8947H29.8945Z" fill="#00B0F0"/>
  <path d="M20.6314 34.5262H47.5788C48.2766 34.5262 48.8419 33.9608 48.8419 33.2631C48.8419 32.5655 48.2766 32 47.5788 32H20.6314C19.9336 32 19.3683 32.5655 19.3683 33.2631C19.3683 33.9608 19.9337 34.5262 20.6314 34.5262Z" fill="#00B0F0"/>
  <path d="M57.6839 15.158H20.6314C19.9336 15.158 19.3683 15.7233 19.3683 16.4211C19.3683 17.1189 19.9336 17.6842 20.6314 17.6842H57.6839C58.3817 17.6842 58.947 17.1189 58.947 16.4211C58.947 15.7233 58.3816 15.158 57.6839 15.158Z" fill="#00B0F0"/>
  <path d="M57.6839 38.7369H55.9997C55.3019 38.7369 54.7366 39.3023 54.7366 40C54.7366 40.6978 55.302 41.2631 55.9997 41.2631H57.6839C58.3817 41.2631 58.947 40.6977 58.947 40C58.947 39.3022 58.3816 38.7369 57.6839 38.7369Z" fill="#00B0F0"/>
</svg>
