<svg width="60" height="80" viewBox="0 0 60 80" fill="none" xmlns="http://www.w3.org/2000/svg">
  <path d="M58.7878 77.6562H53.0689L53.6938 55.0825C53.7914 51.5505 51.7684 48.3405 48.5398 46.9047L41.8716 43.9392C41.8312 43.9212 41.7905 43.9064 41.7494 43.8933L40.808 43.0891C45.5655 41.6461 49.1231 39.8798 49.2917 39.7956C49.8678 39.5077 50.1016 38.805 49.8177 38.227C49.7938 38.1784 47.4345 33.25 47.4345 22.4647V17.4545C47.4345 7.83 39.6044 0 29.9798 0C20.3553 0 12.5253 7.83 12.5253 17.4545V22.4647C12.5253 33.25 10.1659 38.1784 10.1441 38.2233C9.85453 38.8022 10.0892 39.5061 10.6681 39.7956C10.838 39.8805 14.3952 41.6467 19.1516 43.0894L18.0828 44.0023L11.5563 46.9048C8.32766 48.3405 6.30469 51.5505 6.40234 55.0827L7.02719 77.6562H1.17188C0.524687 77.6562 0 78.1809 0 78.8281C0 79.4753 0.524687 80 1.17188 80H58.7878C59.435 80 59.9597 79.4753 59.9597 78.8281C59.9597 78.1809 59.435 77.6562 58.7878 77.6562ZM14.8688 17.4548C14.8691 9.1225 21.6477 2.34375 29.9798 2.34375C38.312 2.34375 45.0908 9.1225 45.0908 17.4545V22.4647C45.0908 31.0261 46.5083 36.0769 47.2628 38.1588C45.7041 38.8638 42.4492 40.2378 38.6723 41.2648L38.2561 40.9094C38.0222 40.7095 37.7194 40.612 37.4144 40.633V37.7194C39.6095 36.2973 41.3989 34.2486 42.4995 31.7556C43.1438 30.2967 43.5059 28.6756 43.5472 27.0677C43.6827 21.7823 39.1483 20.4436 34.3475 19.0262C30.3258 17.8389 25.7673 16.4933 22.0294 12.8572C21.5653 12.4059 20.8236 12.4163 20.3723 12.88C19.9211 13.3441 19.9313 14.0859 20.3952 14.5372C24.5484 18.577 29.6139 20.0725 33.6839 21.2742C38.8233 22.7914 41.2898 23.6689 41.2042 27.0075C41.1708 28.3128 40.8773 29.6273 40.3555 30.8091C38.5406 34.9197 34.4678 37.5758 29.9798 37.5758C24.5066 37.5758 19.8166 33.6697 18.828 28.2881C18.607 27.085 17.4931 26.2119 16.2933 26.2997C16.162 26.3094 16.0278 26.2978 15.8928 26.2659C15.3092 26.1278 14.8689 25.5 14.8689 24.8056V23.8444C14.8689 23.133 15.3344 22.5148 15.9517 22.4066C16.4603 22.3172 16.9492 22.5047 17.2586 22.9081C17.483 23.2006 17.7817 23.4097 18.1225 23.5127C18.6217 23.6634 19.1723 23.5752 19.5958 23.2763C20.6208 22.5528 21.4897 21.635 22.1781 20.5484C22.5245 20.0017 22.3623 19.2778 21.8156 18.9313C21.2689 18.5848 20.545 18.7472 20.1984 19.2938C19.7795 19.9548 19.2748 20.5323 18.6939 21.0163C17.8573 20.2433 16.7006 19.8955 15.5464 20.098C15.3109 20.1394 15.0848 20.205 14.8688 20.29V17.4548ZM24.8889 43.1647V38.9362C26.47 39.5705 28.1895 39.9192 29.9797 39.9192C31.7572 39.9192 33.4797 39.572 35.0705 38.933V43.1645L31.5334 48.0834C31.5294 48.0891 31.5261 48.0952 31.522 48.1009C31.5181 48.1066 31.5136 48.1117 31.5097 48.1175L30.0469 50.3117C30.0384 50.3244 30.023 50.3477 29.9797 50.3477C29.9364 50.3477 29.9209 50.3244 29.9125 50.3117L28.4497 48.1175C28.4458 48.1117 28.4413 48.1066 28.4373 48.1009C28.4333 48.0952 28.4302 48.0891 28.4259 48.0834L24.8889 43.1647ZM25.8528 48.5192L24.163 49.7866C23.8458 50.0245 23.4427 50.1087 23.0567 50.0177C22.6709 49.9266 22.3478 49.6709 22.1706 49.3164L20.1655 45.3058L22.2572 43.5189L25.8528 48.5192ZM37.7027 43.5189L39.7945 45.3058L37.7892 49.3164C37.6119 49.6711 37.2889 49.9266 36.9031 50.0177C36.5172 50.1087 36.1141 50.0245 35.7969 49.7867L34.107 48.5192L37.7027 43.5189ZM12.6969 38.1589C13.2611 36.6023 14.1956 33.3853 14.6314 28.283C14.86 28.3956 15.1003 28.4867 15.353 28.5466C15.7166 28.6325 16.0858 28.6634 16.4502 28.6381C16.4772 28.6491 16.5164 28.6886 16.5228 28.7114C17.2242 32.5302 19.4711 35.7317 22.5453 37.7228V40.633C22.2402 40.612 21.9375 40.7095 21.7036 40.9094L21.2875 41.2648C17.5103 40.2377 14.2553 38.8638 12.6969 38.1589ZM12.5084 49.0462L18.1588 46.5334L20.0742 50.3645C20.5633 51.3425 21.4541 52.0475 22.5181 52.2986C22.7992 52.365 23.0836 52.3977 23.3663 52.3977C24.1533 52.3977 24.9255 52.1444 25.5692 51.6617L27.187 50.4483L27.9628 51.6119C28.4134 52.288 29.1675 52.6916 29.98 52.6916C30.7925 52.6916 31.5466 52.288 31.9972 51.6119L32.7728 50.4483L34.3906 51.6617C35.0344 52.1444 35.8066 52.3977 36.5936 52.3977C36.8761 52.3977 37.1606 52.365 37.4417 52.2986C38.5059 52.0475 39.3966 51.3425 39.8856 50.3645L41.8259 46.4839L47.5878 49.0462C48.0405 49.2475 48.4602 49.4969 48.8431 49.7861L44.5834 55.1108H15.5131L11.2533 49.7861C11.6361 49.497 12.0558 49.2477 12.5084 49.0462ZM11.4217 58.9917L12.3959 76.5269C12.418 76.9242 12.5036 77.3034 12.6409 77.6562H9.37203L8.74516 55.0177C8.71047 53.765 9.04203 52.5684 9.66141 51.5483L13.0233 55.7505C12.8062 55.898 12.6039 56.0683 12.4217 56.2609C11.7303 56.9919 11.3658 57.9872 11.4217 58.9917ZM46.1983 58.8619L45.2241 76.3972C45.1848 77.1033 44.6002 77.6564 43.893 77.6564H16.0669C15.3597 77.6564 14.775 77.1031 14.7358 76.397L13.7616 58.8617C13.7411 58.4922 13.8698 58.1406 14.1242 57.8717C14.3786 57.6028 14.7225 57.4548 15.0927 57.4548H44.8672C45.2373 57.4548 45.5812 57.6028 45.8356 57.8717C46.09 58.1406 46.2188 58.4922 46.1983 58.8619ZM50.7242 77.6562H47.3191C47.4564 77.3034 47.542 76.9242 47.5641 76.527L48.5383 58.9919C48.5941 57.9872 48.2295 56.9919 47.5383 56.2609C47.3806 56.0944 47.2078 55.9448 47.0239 55.8119L50.4348 51.5481C51.0541 52.5684 51.3856 53.7652 51.3509 55.0177L50.7242 77.6562Z" fill="#00B0F0"/>
  <path d="M29.9798 63.8784C27.607 63.8784 25.6766 65.8087 25.6766 68.1817C25.6766 70.5547 27.6069 72.485 29.9798 72.485C32.3528 72.485 34.2831 70.5547 34.2831 68.1817C34.2831 65.8087 32.3527 63.8784 29.9798 63.8784ZM29.9798 70.1411C28.8994 70.1411 28.0203 69.262 28.0203 68.1816C28.0203 67.1011 28.8992 66.222 29.9798 66.222C31.0605 66.222 31.9394 67.1011 31.9394 68.1816C31.9394 69.262 31.0603 70.1411 29.9798 70.1411Z" fill="#00B0F0"/>
</svg>
