<svg width="23" height="23" viewBox="0 0 23 23" fill="none" xmlns="http://www.w3.org/2000/svg">
  <path d="M0.164551 11.7483C0.164551 5.67316 5.08942 0.748291 11.1646 0.748291C17.2396 0.748291 22.1646 5.67315 22.1646 11.7483C22.1646 17.8234 17.2396 22.7483 11.1646 22.7483C5.08941 22.7483 0.164551 17.8234 0.164551 11.7483ZM11.1646 2.74829C6.19399 2.74829 2.16455 6.77773 2.16455 11.7483C2.16455 16.7188 6.19399 20.7483 11.1646 20.7483C16.1351 20.7483 20.1646 16.7188 20.1646 11.7483C20.1646 6.77773 16.1351 2.74829 11.1646 2.74829Z" fill="#909CA5"/>
  <path d="M14.8717 8.04118C15.2622 8.43171 15.2622 9.06487 14.8717 9.4554L8.87166 15.4554C8.48113 15.8459 7.84797 15.8459 7.45744 15.4554C7.06692 15.0649 7.06692 14.4317 7.45744 14.0412L13.4574 8.04118C13.848 7.65066 14.4811 7.65066 14.8717 8.04118Z" fill="#909CA5"/>
  <path d="M7.45744 8.04118C7.84797 7.65066 8.48113 7.65066 8.87166 8.04118L14.8717 14.0412C15.2622 14.4317 15.2622 15.0649 14.8717 15.4554C14.4811 15.8459 13.848 15.8459 13.4574 15.4554L7.45744 9.4554C7.06692 9.06487 7.06692 8.43171 7.45744 8.04118Z" fill="#909CA5"/>
</svg>
