<svg width="31" height="31" viewBox="0 0 31 31" fill="none" xmlns="http://www.w3.org/2000/svg">
  <path d="M15.1111 0C23.4567 0 30.2222 6.76547 30.2222 15.1111C30.2222 23.4567 23.4567 30.2222 15.1111 30.2222C6.76547 30.2222 0 23.4567 0 15.1111C0 6.76547 6.76547 0 15.1111 0ZM15.1111 1.88889C7.80868 1.88889 1.88889 7.80868 1.88889 15.1111C1.88889 22.4135 7.80868 28.3333 15.1111 28.3333C22.4135 28.3333 28.3333 22.4135 28.3333 15.1111C28.3333 7.80868 22.4135 1.88889 15.1111 1.88889ZM11.4689 10.1381L11.5289 10.1933L15.1111 13.7752L18.6933 10.1933C19.0621 9.82446 19.6601 9.82446 20.0289 10.1933C20.3784 10.5427 20.3967 11.0978 20.0841 11.4689L20.0289 11.5289L16.447 15.1111L20.0289 18.6933C20.3978 19.0621 20.3978 19.6601 20.0289 20.0289C19.6795 20.3784 19.1244 20.3967 18.7534 20.0841L18.6933 20.0289L15.1111 16.447L11.5289 20.0289C11.1601 20.3978 10.5621 20.3978 10.1933 20.0289C9.84387 19.6795 9.82548 19.1244 10.1381 18.7534L10.1933 18.6933L13.7752 15.1111L10.1933 11.5289C9.82446 11.1601 9.82446 10.5621 10.1933 10.1933C10.5427 9.84387 11.0978 9.82548 11.4689 10.1381Z" fill="#FF5C00"/>
</svg>
