<svg width="80" height="80" viewBox="0 0 80 80" fill="none" xmlns="http://www.w3.org/2000/svg">
  <path d="M55.9718 24.0082C49.7773 17.8138 41.5414 14.4023 32.7811 14.4023C24.0208 14.4023 15.7849 17.8138 9.59049 24.0082C-3.19683 36.7955 -3.19683 57.6019 9.59049 70.3892C14.3372 75.1359 20.3247 78.275 26.9061 79.4675C28.8694 79.8232 30.8436 79.9998 32.8098 79.9998C37.2828 79.9998 41.7118 79.0854 45.8589 77.2839C46.4639 77.0211 46.7412 76.3175 46.4785 75.7125C46.2159 75.1075 45.5123 74.83 44.9071 75.0928C39.3717 77.4973 33.2943 78.1972 27.3319 77.1168C21.2312 76.0115 15.6805 73.1009 11.2794 68.6998C5.53643 62.9566 2.37363 55.3205 2.37363 47.1985C2.37363 39.0763 5.53659 31.4404 11.2799 25.6971C17.0231 19.9538 24.6591 16.7909 32.7812 16.7909C40.9032 16.7909 48.5393 19.9538 54.2826 25.6971C60.0259 31.4404 63.1888 39.0763 63.1888 47.1985C63.1888 55.3206 60.0259 62.9566 54.2826 68.6998C52.8234 70.1592 51.2181 71.4703 49.5117 72.5972C48.9612 72.9606 48.8095 73.7015 49.1731 74.252C49.5365 74.8025 50.2774 74.9542 50.8279 74.5906C52.6684 73.3753 54.3992 71.9617 55.9718 70.3889C62.1662 64.1945 65.5777 55.9586 65.5777 47.1985C65.5777 38.4386 62.1662 30.2027 55.9718 24.0082Z" fill="#00B0F0"/>
  <path d="M51.5892 28.3907C41.2186 18.0201 24.3441 18.0199 13.9731 28.3907C3.60238 38.7614 3.60238 55.6359 13.9731 66.0065C19.1586 71.192 25.9698 73.7845 32.7811 73.7845C39.5925 73.7845 46.4039 71.1917 51.5892 66.0065C61.9598 55.6359 61.9598 38.7614 51.5892 28.3907ZM49.8999 64.3176C40.4607 73.757 25.1017 73.7572 15.662 64.3176C6.22268 54.8783 6.22268 39.5193 15.662 30.0799C20.3817 25.3604 26.5812 23.0004 32.7809 23.0004C38.9804 23.0004 45.1801 25.3602 49.8998 30.0799C59.3393 39.5193 59.3393 54.8783 49.8999 64.3176Z" fill="#00B0F0"/>
  <path d="M36.3887 3.06901C36.1409 2.4576 35.4443 2.16339 34.8329 2.41104C30.7639 4.06104 27.1136 6.48494 23.9831 9.61525C23.2061 10.3923 22.463 11.2131 21.7739 12.0546C21.3562 12.5652 21.4314 13.3176 21.9417 13.7354C22.1637 13.9171 22.4314 14.0057 22.6975 14.0057C23.0433 14.0057 23.3864 13.8563 23.6225 13.5677C24.2614 12.7871 24.9509 12.0257 25.6722 11.3045C28.5751 8.4015 31.9594 6.15416 35.7306 4.62479C36.342 4.37682 36.6365 3.68041 36.3887 3.06901Z" fill="#00B0F0"/>
  <path d="M70.3643 9.6154C62.4005 1.65151 51.0726 -1.64911 40.0618 0.785888C39.4178 0.928232 39.0111 1.56589 39.1534 2.2101C39.2959 2.85417 39.9336 3.26088 40.5776 3.11838C50.7871 0.860576 61.2912 3.92073 68.6751 11.3046C80.5308 23.1605 80.5308 42.4516 68.6751 54.3073C67.9537 55.0288 67.1921 55.7183 66.4118 56.357C65.9013 56.7748 65.8262 57.5273 66.2441 58.0378C66.4801 58.3264 66.8232 58.4758 67.1691 58.4758C67.4352 58.4758 67.7029 58.3872 67.9249 58.2056C68.7663 57.517 69.5871 56.7736 70.3641 55.9964C76.5585 49.802 79.97 41.5661 79.97 32.8058C79.97 24.0457 76.5588 15.8098 70.3643 9.6154Z" fill="#00B0F0"/>
  <path d="M73.6316 30.0663C73.008 24.0148 70.291 18.3082 65.981 13.9984C61.6716 9.689 55.9662 6.97228 49.9156 6.34869C43.9517 5.734 37.9001 7.16275 32.8761 10.372C32.3201 10.7271 32.1573 11.4656 32.5125 12.0215C32.8676 12.5774 33.6059 12.7402 34.162 12.3851C38.7334 9.46509 44.2417 8.16494 49.6704 8.72478C55.1767 9.29212 60.3693 11.7649 64.2918 15.6873C68.2146 19.6102 70.6877 24.8037 71.2552 30.3108C71.8149 35.7413 70.5146 41.25 67.594 45.8217C67.239 46.3777 67.4018 47.1161 67.9577 47.4713C68.1569 47.5984 68.3796 47.6592 68.5994 47.6592C68.9937 47.6592 69.3793 47.4644 69.6072 47.1077C72.8171 42.0835 74.2465 36.0313 73.6316 30.0663Z" fill="#00B0F0"/>
  <path d="M40.9967 55.4823C40.4872 55.0634 39.7343 55.1372 39.3156 55.6469C37.6268 57.702 35.4231 58.8337 33.1103 58.8337C29.1737 58.8337 25.8187 55.5767 24.5816 51.0474H33.6045C34.2642 51.0474 34.7989 50.5125 34.7989 49.853C34.7989 49.1933 34.264 48.6586 33.6045 48.6586H24.1448C24.098 48.18 24.0711 47.6936 24.0711 47.1988C24.0711 46.7041 24.098 46.2177 24.1448 45.7389H33.6045C34.2642 45.7389 34.7989 45.2042 34.7989 44.5446C34.7989 43.8849 34.264 43.3502 33.6045 43.3502H24.5816C25.8187 38.821 29.1737 35.5641 33.1103 35.5641C35.4231 35.5641 37.6268 36.696 39.3156 38.751C39.7343 39.2605 40.4867 39.3343 40.9967 38.9155C41.5062 38.4966 41.58 37.7441 41.1612 37.2344C39.0103 34.6168 36.1511 33.1752 33.1104 33.1752C27.8962 33.1752 23.4866 37.4828 22.1202 43.3503H20.5459C19.8863 43.3503 19.3516 43.885 19.3516 44.5447C19.3516 45.2044 19.8864 45.7391 20.5459 45.7391H21.7442C21.7036 46.2191 21.6825 46.7061 21.6825 47.1989C21.6825 47.6917 21.7036 48.1788 21.7442 48.6588H20.5459C19.8863 48.6588 19.3516 49.1936 19.3516 49.8531C19.3516 50.5128 19.8864 51.0475 20.5459 51.0475H22.1202C23.4866 56.915 27.8962 61.2228 33.1104 61.2228C36.1512 61.2228 39.0104 59.7812 41.1612 57.1636C41.58 56.6537 41.5062 55.9011 40.9967 55.4823Z" fill="#00B0F0"/>
</svg>
