<svg width="48" height="80" viewBox="0 0 48 80" fill="none" xmlns="http://www.w3.org/2000/svg">
  <path d="M43.7268 23.6099H40.1665V4.82845C40.1665 2.16602 38.0005 0 35.3382 0C32.6757 0 30.5097 2.16602 30.5097 4.82845V23.6099H17.6474V4.82845C17.6474 2.16602 15.4814 0 12.8191 0C10.1569 0 7.99083 2.16602 7.99083 4.82845V16.9293C7.99083 17.5761 8.5152 18.1005 9.16199 18.1005C9.80878 18.1005 10.3331 17.5761 10.3331 16.9293V15.0842H15.3053V23.6099H10.3331V21.9205C10.3331 21.2737 9.80878 20.7493 9.16199 20.7493C8.5152 20.7493 7.99083 21.2737 7.99083 21.9205V23.6099H4.27435C2.06929 23.6099 0.275391 25.4038 0.275391 27.6087V31.4511C0.275391 33.2487 1.46779 34.7726 3.10319 35.2747V46.8895C3.10319 49.4665 4.23016 51.9008 6.19505 53.5682L8.36342 55.4083C8.58359 55.5951 8.8528 55.6864 9.12061 55.6864C9.45259 55.6864 9.78255 55.546 10.0143 55.2731C10.4328 54.7799 10.3722 54.0409 9.87905 53.6224L7.71069 51.7823C6.27126 50.5608 5.44567 48.7775 5.44567 46.8896V35.4502H34.0043C34.6513 35.4502 35.1755 34.9258 35.1755 34.279C35.1755 33.6323 34.6513 33.1079 34.0043 33.1079H4.27435C3.36085 33.1079 2.61771 32.3647 2.61771 31.4514V27.6091C2.61771 26.6956 3.36085 25.9526 4.27435 25.9526H43.7268C44.6403 25.9526 45.3833 26.6957 45.3833 27.6091V31.4514C45.3833 32.3649 44.6401 33.1079 43.7268 33.1079H38.9953C38.3484 33.1079 37.8242 33.6323 37.8242 34.279C37.8242 34.9258 38.3484 35.4502 38.9953 35.4502H42.5556V46.8896C42.5556 48.7775 41.73 50.5608 40.2906 51.7823L30.0541 60.4687C29.7917 60.6912 29.6407 61.0177 29.6407 61.3617V64.5822C29.6407 65.2829 29.0708 65.8529 28.3701 65.8529H19.6309C18.9302 65.8529 18.3603 65.2829 18.3603 64.5822V61.3617C18.3603 61.0177 18.2091 60.6913 17.9469 60.4687L13.6864 56.8534C13.1933 56.435 12.454 56.4956 12.0357 56.9886C11.6172 57.4817 11.6778 58.2208 12.1709 58.6393L16.0181 61.9039V64.5821C16.0181 66.5743 17.6388 68.195 19.6311 68.195H20.1817V78.829C20.1817 79.4758 20.706 80.0002 21.3528 80.0002C21.9996 80.0002 22.524 79.4758 22.524 78.829V68.195H25.6336V78.829C25.6336 79.4758 26.1579 80.0002 26.8048 80.0002C27.4517 80.0002 27.976 79.4758 27.976 78.829V68.195H28.3703C30.3625 68.195 31.9832 66.5743 31.9832 64.5821V61.9039L41.8063 53.5683C43.7711 51.9009 44.8981 49.4666 44.8981 46.8896V35.2748C46.5334 34.773 47.7258 33.2489 47.7258 31.4514V27.6091C47.7256 25.4038 45.9317 23.6099 43.7268 23.6099ZM12.8191 2.34232C14.1899 2.34232 15.3051 3.45757 15.3051 4.82845V7.41656H10.333V4.82845C10.333 3.45757 11.4482 2.34232 12.8191 2.34232ZM10.333 12.7419V9.75888H15.3051V12.7419H10.333ZM32.852 9.75888H37.8242V12.7419H32.852V9.75888ZM35.3382 2.34232C36.7089 2.34232 37.8242 3.45757 37.8242 4.82845V7.41656H32.852V4.82845C32.852 3.45757 33.9675 2.34232 35.3382 2.34232ZM32.852 23.6099V15.0842H37.8242V23.6099H32.852Z" fill="#015467"/>
  <path d="M30.7558 53.4C32.5824 53.4 34.0685 51.9139 34.0685 50.0874V45.7856C34.0685 43.9591 32.5824 42.4729 30.7558 42.4729H17.2452C15.4186 42.4729 13.9325 43.9591 13.9325 45.7856V50.0874C13.9325 51.9139 15.4186 53.4 17.2452 53.4H30.7558ZM16.2748 50.0874V45.7856C16.2748 45.2506 16.7102 44.8153 17.2452 44.8153H30.7558C31.291 44.8153 31.7262 45.2506 31.7262 45.7856V50.0874C31.7262 50.6223 31.291 51.0577 30.7558 51.0577H17.2452C16.7102 51.0577 16.2748 50.6223 16.2748 50.0874Z" fill="#015467"/>
</svg>
