<svg width="80" height="68" viewBox="0 0 80 68" fill="none" xmlns="http://www.w3.org/2000/svg">
  <path d="M79.7458 39.2769C79.3425 38.7685 78.6042 38.6835 78.0958 39.0863L75.7925 40.9129L57.1765 16.4708L67.8188 9.64032C68.3646 9.29001 68.523 8.56376 68.1727 8.01798C67.8226 7.47221 67.0963 7.31377 66.5505 7.66408L54.8375 15.182C54.2693 15.5467 54.1278 16.3437 54.5374 16.8815L56.6692 19.6804L55.1534 20.8407L49.1354 18.8525C49.0178 18.814 48.8911 18.7933 48.767 18.7933H34.9902C34.4514 18.7933 33.9818 19.16 33.8511 19.6826L33.0758 22.7836L31.119 21.9596C30.9321 21.8809 30.7277 21.8521 30.5269 21.8756L25.0835 22.5131L23.234 21.4393L24.9932 18.3925C25.3129 17.8384 25.1169 17.1081 24.5635 16.7886L1.76141 3.62347C1.19938 3.2991 0.481416 3.4916 0.157511 4.05316C-0.166707 4.61472 0.0256363 5.33284 0.587197 5.65706L18.4573 15.9744L3.03453 42.6875L1.76141 41.9525C1.19938 41.628 0.481416 41.8207 0.157511 42.3822C-0.166707 42.9438 0.0256363 43.6619 0.587197 43.9861L6.79202 47.5686C7.34655 47.8886 8.07654 47.6924 8.39592 47.1389L9.29373 45.5839L11.8267 46.9349C11.0004 48.5366 11.0818 50.5359 12.2086 52.0931C13.1718 53.4242 14.6809 54.1319 16.2106 54.1319C16.721 54.1319 17.2337 54.052 17.7293 53.8911C17.7324 54.9395 18.0657 55.9473 18.6995 56.789C19.6618 58.0673 21.149 58.7447 22.652 58.7447C23.1541 58.7447 23.6582 58.6689 24.1449 58.5147C24.158 59.4947 24.4607 60.48 25.0776 61.3325C25.8498 62.3996 26.9913 63.1023 28.2918 63.3109C28.5561 63.3534 28.8207 63.3743 29.0833 63.3743C29.5932 63.3743 30.0958 63.2948 30.5768 63.1404C30.5907 64.1459 30.9105 65.121 31.5122 65.9524C32.2844 67.0195 33.426 67.7223 34.7264 67.9309C34.9908 67.9732 35.2553 67.9943 35.518 67.9942C36.5475 67.9942 37.5481 67.6721 38.3983 67.0568L41.1377 65.0746C41.7303 64.6459 42.2086 64.1042 42.5537 63.4856L47.3729 66.1123C48.1073 66.5126 48.9126 66.716 49.7264 66.716C50.194 66.716 50.6648 66.6487 51.1259 66.5129C52.3895 66.1407 53.4326 65.299 54.0629 64.1423C54.5543 63.2407 54.7479 62.232 54.6335 61.2326C54.9284 61.2868 55.2251 61.3137 55.5206 61.3137C57.2687 61.3136 58.9651 60.3831 59.859 58.7431C60.362 57.8201 60.5371 56.8058 60.4265 55.8331C60.7221 55.8876 61.0198 55.9145 61.3162 55.9145C63.0644 55.9144 64.7608 54.9839 65.6546 53.3439C66.1457 52.443 66.3393 51.4348 66.2254 50.4361C66.5183 50.4905 66.8152 50.5184 67.1137 50.5184C67.5815 50.5184 68.0521 50.4511 68.5132 50.3153C69.7768 49.9431 70.8199 49.1014 71.4504 47.9447C72.0808 46.7881 72.2233 45.4553 71.8511 44.1916C71.7618 43.8878 71.6444 43.5974 71.503 43.3218L73.5625 41.8599L74.6505 43.2883C75.043 43.8036 75.8058 43.8999 76.3142 43.4969L79.5555 40.9265C80.0634 40.5235 80.1488 39.785 79.7458 39.2769ZM6.94952 44.948L5.06827 43.8617L20.491 17.1486L22.3723 18.2348L6.94952 44.948ZM17.7179 51.2948C16.5643 52.13 14.946 51.8706 14.111 50.7166C13.2762 49.5627 13.5357 47.9444 14.6896 47.1094L22.9957 41.0996C23.4571 40.7658 23.9879 40.6043 24.5132 40.6043C25.2865 40.6043 26.048 40.9541 26.5587 41.6189C27.434 42.7589 27.1874 44.4427 26.0248 45.2847L17.7179 51.2948ZM24.1524 55.9148C23.0202 56.734 21.4154 56.4926 20.5754 55.3767C19.7051 54.2209 20.0402 52.5133 21.1923 51.6797L27.4007 47.1877C27.6266 47.0371 27.8355 46.8785 28.0887 46.7711C28.4488 46.6181 28.8432 46.5488 29.234 46.5705C29.9818 46.612 30.6819 46.9881 31.1375 47.5813C32.0129 48.7211 31.7665 50.405 30.6036 51.247L24.1524 55.9148ZM30.5869 60.5345C30.028 60.9392 29.3451 61.1018 28.6636 60.9923C27.9824 60.8831 27.3844 60.515 26.9799 59.9559C26.1454 58.8025 26.4043 57.1854 27.5568 56.3501L32.1535 53.0241C33.2939 52.1991 34.8589 52.4272 35.7164 53.5434C36.5919 54.6837 36.345 56.368 35.1818 57.2097L30.5869 60.5345ZM40.8027 61.452C40.7013 62.1487 40.3311 62.7595 39.7608 63.1721L37.0214 65.1543C35.8802 65.9803 34.2391 65.7159 33.4144 64.5759C32.586 63.431 32.856 61.7979 33.9928 60.9689L36.7324 58.9867C37.8564 58.1736 39.451 58.4067 40.2952 59.5061C40.7241 60.0643 40.9042 60.7554 40.8027 61.452ZM69.3883 46.8206C68.7151 48.056 67.1213 48.527 65.8838 47.8525L52.3087 40.4532C51.739 40.143 51.0261 40.3529 50.7157 40.9222C50.4054 41.4916 50.6153 42.2047 51.1847 42.5152L62.5605 48.7156C63.8113 49.3974 64.274 50.9694 63.5926 52.22C62.9109 53.4705 61.3388 53.9337 60.0881 53.2519L48.5456 46.9605C47.9762 46.6502 47.2631 46.8602 46.9528 47.4296C46.6425 47.9989 46.8523 48.712 47.4219 49.0225L56.7667 54.1161C58.0159 54.7984 58.4779 56.3694 57.7968 57.6194C57.1237 58.8545 55.5299 59.3259 54.2923 58.6512L44.5089 53.3186C43.9391 53.0084 43.2262 53.2183 42.9159 53.7876C42.6056 54.357 42.8155 55.0701 43.3848 55.3806L50.9689 59.5143C52.2043 60.1876 52.6753 61.7814 52.0007 63.0189C51.3276 64.2543 49.7339 64.725 48.4965 64.0506L43.1769 61.1511C43.1956 60.0433 42.8445 58.9703 42.1577 58.0759C41.2352 56.8747 39.8838 56.2122 38.49 56.1445C38.5121 56.0403 38.5322 55.9351 38.5477 55.8287C38.7414 54.4989 38.3975 53.1795 37.5789 52.1136C36.6563 50.9125 35.3049 50.25 33.9111 50.1824C33.9332 50.0781 33.9533 49.973 33.9688 49.8664C34.1625 48.5364 33.8186 47.2172 33 46.1513C32.0774 44.95 30.726 44.2877 29.3322 44.22C29.3543 44.1158 29.3744 44.0107 29.3899 43.9043C29.5836 42.5743 29.2397 41.2549 28.4212 40.1891C26.7843 38.0576 23.796 37.6222 21.6191 39.1977L13.425 45.1258L10.4684 43.5489L22.0596 23.4726L24.2421 24.7398C24.4616 24.8673 24.7168 24.9198 24.9682 24.8906L30.4925 24.2435L32.4993 25.0885L31.346 29.702C31.3229 29.7951 31.311 29.8907 31.311 29.9868V40.0063C31.311 43.4161 34.0852 46.1902 37.4949 46.1902C40.9047 46.1902 43.6787 43.416 43.6787 40.0063V30.3235L43.8922 29.9821L68.3561 43.3163C69.5915 43.9896 70.0629 45.5828 69.3883 46.8206ZM69.9485 41.545C69.7986 41.4407 69.643 41.3429 69.4804 41.2543L45.1394 27.9868L46.0425 26.542C46.3861 25.992 46.2189 25.2676 45.6689 24.924C45.1195 24.5806 44.3945 24.7475 44.0509 25.2974L41.5091 29.3645C41.3927 29.551 41.3306 29.7667 41.3306 29.9868V40.0063C41.3306 42.1211 39.6102 43.8419 37.495 43.8419C35.3799 43.8419 33.6594 42.1213 33.6594 40.0063V30.1313L35.9067 21.1415H48.5779L55.0059 23.2651C55.3712 23.3859 55.7824 23.3164 56.0878 23.0826L58.0918 21.5486L72.1383 39.9908L69.9485 41.545Z" fill="white"/>
  <path d="M79.8138 0.546452C79.4636 0.000672519 78.7374 -0.157764 78.1916 0.192547L71.6132 4.41472C71.0674 4.76503 70.909 5.49128 71.2593 6.03706C71.4835 6.38659 71.8618 6.57721 72.2483 6.57721C72.4655 6.57721 72.685 6.51705 72.8814 6.39112L79.4599 2.16895C80.0055 1.81832 80.1639 1.09207 79.8138 0.546452Z" fill="white"/>
</svg>
