<svg width="76" height="80" viewBox="0 0 76 80" fill="none" xmlns="http://www.w3.org/2000/svg">
  <path d="M74.2546 34.2022H66.4971V29.252H74.2546C74.6569 29.252 75.0311 29.0456 75.2458 28.7053C75.4603 28.3652 75.4855 27.9384 75.3122 27.5755C74.7505 26.3983 73.9685 25.3619 72.988 24.4948C72.503 24.0662 71.7624 24.1117 71.3338 24.5966C70.9052 25.0814 70.9507 25.822 71.4355 26.2508C71.6692 26.4575 71.8882 26.6769 72.0916 26.9083H65.325C64.6777 26.9083 64.1531 27.433 64.1531 28.0802V35.3741C64.1531 36.0212 64.6777 36.5459 65.325 36.5459H72.0874C70.7171 38.098 68.7178 39.0344 66.5977 39.0344C64.6003 39.0344 62.6911 38.2119 61.315 36.7717C60.9113 34.5106 58.808 32.6609 56.4199 32.6759H53.4508V28.8322H59.1566C59.5847 28.8322 59.9788 28.5988 60.1844 28.2233C61.4694 25.8773 63.9267 24.42 66.5977 24.42C66.7619 24.42 66.9277 24.4255 67.0905 24.4362C67.7371 24.4792 68.2946 23.9903 68.3372 23.3445C68.38 22.6988 67.8913 22.1405 67.2455 22.0977C67.0314 22.0834 66.8133 22.0762 66.5977 22.0762C63.3075 22.0762 60.2631 23.75 58.4917 26.4884H53.4508V25.5978C53.4508 22.767 51.1477 20.4639 48.3169 20.4639C46.7235 20.4639 45.2972 21.1937 44.3549 22.3366C43.4125 21.1937 41.9863 20.4639 40.3928 20.4639C38.7994 20.4639 37.3731 21.1937 36.4308 22.3366C35.4885 21.1937 34.0622 20.4639 32.4688 20.4639C30.2997 20.4639 28.4419 21.8167 27.6911 23.7223C26.8213 23.0455 25.7297 22.6408 24.5447 22.6408C22.158 22.6408 20.1464 24.2781 19.5741 26.4884H17.5083C17.3639 26.2655 17.2103 26.0484 17.0488 25.8387C16.6536 25.3261 15.9177 25.2311 15.405 25.6262C14.8924 26.0214 14.7974 26.7573 15.1927 27.2698C15.4244 27.5703 15.6341 27.8913 15.816 28.2233C16.0216 28.5988 16.4156 28.8322 16.8438 28.8322H19.4108V34.6222H16.8438C16.4156 34.6222 16.0216 34.8556 15.816 35.2311C14.531 37.577 12.0736 39.0344 9.40268 39.0344C7.28268 39.0344 5.2833 38.098 3.91299 36.5459H10.6753C11.3227 36.5459 11.8472 36.0212 11.8472 35.3741V28.0802C11.8472 27.433 11.3227 26.9083 10.6753 26.9083H3.91314C5.28361 25.3563 7.28252 24.42 9.40283 24.42C9.9933 24.42 10.5803 24.4905 11.1474 24.6292C11.7758 24.7834 12.4105 24.3983 12.5644 23.7697C12.7181 23.1411 12.3335 22.5067 11.7049 22.3528C10.9555 22.1694 10.181 22.0762 9.40283 22.0762C5.70299 22.0762 2.28252 24.2348 0.688613 27.5755C0.515332 27.9386 0.540488 28.3652 0.755176 28.7053C0.969707 29.0456 1.34393 29.252 1.74627 29.252H9.50377V34.2022H1.74611C1.34377 34.2022 0.96955 34.4086 0.755019 34.7489C0.540332 35.0891 0.515176 35.5158 0.688457 35.8787C2.28236 39.2194 5.70314 41.3781 9.40268 41.3781C12.6928 41.3781 15.7372 39.7044 17.5086 36.9659H19.4625C19.8146 39.4562 21.9589 41.3781 24.5447 41.3781C25.823 41.3781 26.9927 40.9075 27.8922 40.1317C28.7414 41.7986 30.4735 42.9436 32.4688 42.9436C33.7289 42.9436 34.8838 42.4864 35.7783 41.7302C36.6133 43.4375 38.3678 44.6166 40.393 44.6166C42.1255 44.6166 43.6847 43.7636 44.6222 42.3952C45.4763 42.9181 47.1713 42.9937 48.3066 42.9436L42.1989 46.8906C40.0621 48.2716 38.7864 50.6148 38.7864 53.1591C38.7864 53.8062 39.311 54.3309 39.9583 54.3309C40.6057 54.3309 41.1302 53.8062 41.1302 53.1591C41.1302 51.4137 42.0053 49.8062 43.4708 48.8591L52.9149 42.7558C53.3513 42.4737 53.5497 41.9383 53.4028 41.44C53.256 40.9417 52.7985 40.5997 52.2789 40.5997H46.9264C45.3878 40.5997 44.1363 39.348 44.1363 37.8095C44.15 36.4056 45.2777 35.0552 46.9264 35.0194H56.4199C57.6141 35.0194 58.6546 35.8273 58.9502 36.9844L60.4199 42.7345C60.7536 44.0405 60.4378 45.4386 59.5755 46.4742L51.3785 56.3166C49.2664 58.7023 47.0083 61.6542 47.1449 65.0795V78.8281C47.1449 79.4753 47.6694 80 48.3167 80C48.9641 80 49.4886 79.4753 49.4886 78.8281V65.0798C49.333 62.2239 51.5453 59.7475 53.1863 57.8084L61.3763 47.9744C62.7188 46.3625 63.21 44.1869 62.6907 42.1544L62.2238 40.3275C63.5652 41.0097 65.0616 41.378 66.5975 41.378C70.2972 41.378 73.7178 39.2194 75.3117 35.8786C75.485 35.5155 75.4599 35.0889 75.2452 34.7487C75.0311 34.4086 74.6571 34.2022 74.2546 34.2022ZM24.5449 39.0344C23.0063 39.0344 21.7547 37.7827 21.7547 36.2442V27.7747C21.7547 26.2362 23.0064 24.9845 24.5449 24.9845C26.0833 24.9845 27.3349 26.2362 27.3349 27.7747V36.2442C27.3349 37.7827 26.0831 39.0344 24.5449 39.0344ZM32.4689 40.5998C30.9303 40.5998 29.6788 39.3481 29.6788 37.8097V25.5977C29.6788 24.0592 30.9305 22.8075 32.4689 22.8075C34.0074 22.8075 35.2591 24.0592 35.2591 25.5977V37.8097C35.2591 39.3483 34.0074 40.5998 32.4689 40.5998ZM40.393 42.2728C38.8544 42.2728 37.6028 41.0211 37.6028 39.4827V25.5977C37.6028 24.0592 38.8546 22.8075 40.393 22.8075C41.9314 22.8075 43.183 24.0592 43.183 25.5977V34.3019C42.3217 35.2205 41.7927 36.4542 41.7927 37.8097C41.7927 38.958 42.1717 40.0194 42.8113 40.8756C42.3222 41.7297 41.4128 42.2728 40.393 42.2728ZM45.5269 32.8714V25.5977C45.5269 24.0592 46.7786 22.8075 48.3171 22.8075C49.8555 22.8075 51.1072 24.0592 51.1072 25.5977V32.6758H46.9266C46.4414 32.6758 45.9722 32.745 45.5269 32.8714Z" fill="#015467"/>
  <path d="M21.7545 53.9267V44.3998C21.7545 43.7527 21.23 43.228 20.5827 43.228C19.9353 43.228 19.4108 43.7527 19.4108 44.3998V53.9267C19.4108 56.2202 20.2077 58.4631 21.6544 60.2425C22.7625 61.6055 23.3728 63.3233 23.3728 65.0797V78.8281C23.3728 79.4753 23.8974 80 24.5447 80C25.192 80 25.7166 79.4753 25.7166 78.8281V65.0798C25.7166 62.7864 24.9197 60.5434 23.473 58.7641C22.365 57.4011 21.7545 55.6833 21.7545 53.9267Z" fill="#015467"/>
  <path d="M38.0003 8.08797C38.6477 8.08797 39.1722 7.56328 39.1722 6.91609V1.17188C39.1722 0.524687 38.6477 0 38.0003 0C37.353 0 36.8285 0.524687 36.8285 1.17188V6.91609C36.8285 7.56328 37.353 8.08797 38.0003 8.08797Z" fill="#015467"/>
  <path d="M45.5486 10.2994C45.7444 10.425 45.9633 10.4848 46.1799 10.4848C46.5658 10.4848 46.9438 10.2942 47.1675 9.94516L48.6847 7.57828C49.0339 7.03344 48.8753 6.30859 48.3303 5.95937C47.7858 5.61 47.0608 5.76859 46.7114 6.31359L45.1942 8.68047C44.845 9.22531 45.0036 9.95016 45.5486 10.2994Z" fill="#015467"/>
  <path d="M51.8677 17.1223C52.026 17.1223 52.1866 17.0902 52.3405 17.022L54.9122 15.8859C55.5042 15.6245 55.7722 14.9325 55.5106 14.3405C55.2491 13.7483 54.5571 13.4803 53.9652 13.742L51.3935 14.8781C50.8014 15.1395 50.5335 15.8316 50.795 16.4236C50.9886 16.8617 51.4177 17.1223 51.8677 17.1223Z" fill="#015467"/>
  <path d="M28.8331 9.94516C29.057 10.2942 29.435 10.4848 29.8208 10.4848C30.0374 10.4848 30.2563 10.4248 30.452 10.2994C30.9969 9.95016 31.1556 9.22531 30.8064 8.68047L29.2892 6.31359C28.9399 5.76859 28.215 5.61031 27.6703 5.95937C27.1255 6.30859 26.9667 7.03344 27.316 7.57828L28.8331 9.94516Z" fill="#015467"/>
  <path d="M21.0885 15.8861L23.6602 17.0222C23.8141 17.0903 23.9749 17.1225 24.133 17.1225C24.5828 17.1225 25.0121 16.8619 25.2055 16.4237C25.4671 15.8317 25.1991 15.1398 24.6071 14.8783L22.0353 13.7422C21.4439 13.4809 20.7514 13.7486 20.4899 14.3406C20.2285 14.9327 20.4964 15.6247 21.0885 15.8861Z" fill="#015467"/>
</svg>
