<svg width="80" height="80" viewBox="0 0 80 80" fill="none" xmlns="http://www.w3.org/2000/svg">
  <path d="M48.2656 13.8583C46.3961 11.989 44.2584 10.4496 41.912 9.28301C41.3188 8.98817 40.5992 9.22989 40.3044 9.82301C40.0095 10.4161 40.2513 11.1358 40.8444 11.4307C42.958 12.4813 44.8842 13.8686 46.5695 15.5543C55.0914 24.0761 55.0914 37.9424 46.5695 46.4643C42.4414 50.5925 36.9527 52.866 31.1147 52.866C25.2764 52.866 19.7878 50.5925 15.6597 46.4643C11.5314 42.3361 9.25797 36.8474 9.25797 31.0093C9.25797 25.1711 11.5314 19.6824 15.6597 15.5543C18.1502 13.0638 21.1014 11.2605 24.4311 10.1944C27.6091 9.17708 31.0384 8.89942 34.3477 9.39145C35.0036 9.48911 35.6131 9.03676 35.7103 8.38161C35.8075 7.72645 35.3556 7.11645 34.7005 7.01911C31.0297 6.47333 27.2256 6.78129 23.6997 7.9102C20.0547 9.07708 16.6878 11.134 13.9634 13.8583C9.38234 18.4394 6.85937 24.5304 6.85937 31.0093C6.85937 37.4882 9.38234 43.5791 13.9634 48.1602C18.5447 52.7415 24.6356 55.2644 31.1145 55.2644C37.5931 55.2644 43.6842 52.7415 48.2655 48.1602C57.7227 38.703 57.7227 23.3154 48.2656 13.8583Z" fill="#015467"/>
  <path d="M78.087 68.9553L57.103 47.9717C60.831 42.2322 62.5632 35.3502 61.9904 28.4784C61.3824 21.1837 58.1937 14.3109 53.0118 9.12594C47.1316 3.24234 39.3345 0.00125 31.0565 0C31.0545 0 31.0537 0 31.0516 0C22.7757 0 14.9787 3.23875 9.0982 9.11922C-3.0068 21.2244 -3.00664 40.9208 9.09836 53.0258C14.2832 58.2106 21.1568 61.4016 28.4532 62.0108C35.3276 62.5845 42.2101 60.8531 47.9509 57.1239L68.9346 78.1075C70.1963 79.3692 71.8534 80 73.5107 80C75.168 80 76.8252 79.3692 78.087 78.1075C80.6101 75.5842 80.6101 71.4786 78.087 68.9553ZM76.391 76.4116C74.8026 77.9998 72.2185 77.9997 70.6304 76.4116L48.9487 54.7297C48.7166 54.4977 48.4095 54.3784 48.1004 54.3784C47.862 54.3784 47.6221 54.4494 47.4148 54.5941C41.9705 58.3911 35.309 60.1761 28.6529 59.6208C21.921 59.0586 15.5788 56.1142 10.7946 51.3298C-0.375548 40.16 -0.375704 21.9852 10.7943 10.8152C16.2221 5.38734 23.4159 2.39844 31.0516 2.39844H31.0562C38.6934 2.39953 45.8884 5.39094 51.3155 10.8214C56.0971 15.6058 59.0395 21.9473 59.6004 28.6778C60.154 35.3186 58.3759 41.9678 54.594 47.4053C53.7801 48.412 51.5315 51.1055 50.4284 52.0619C49.9279 52.4958 49.874 53.2531 50.3079 53.7534C50.5451 54.027 50.879 54.167 51.2145 54.167C51.4929 54.167 51.7727 54.0706 51.9996 53.8739C53.0155 52.993 54.6504 51.0925 55.6432 49.9036L76.391 70.6513C77.979 72.2392 77.979 74.8234 76.391 76.4116Z" fill="#015467"/>
</svg>
