<svg width="23" height="32" viewBox="0 0 23 32" fill="none" xmlns="http://www.w3.org/2000/svg">
<path d="M11.7124 0.0458984C5.60316 0.0458984 0.632812 5.01625 0.632812 11.1255C0.632812 18.8042 11.7233 31.9209 11.7233 31.9209C11.7233 31.9209 22.792 18.4265 22.792 11.1255C22.792 5.01625 17.8218 0.0458984 11.7124 0.0458984ZM15.0554 14.3696C14.1336 15.2912 12.9231 15.7521 11.7124 15.7521C10.5019 15.7521 9.29105 15.2912 8.36966 14.3696C6.5263 12.5264 6.5263 9.52727 8.36966 7.68391C9.26225 6.79093 10.4496 6.29911 11.7124 6.29911C12.9752 6.29911 14.1624 6.79113 15.0554 7.68391C16.8987 9.52727 16.8987 12.5264 15.0554 14.3696Z" fill="#44D0F7"/>
</svg>
