<svg width="80" height="80" viewBox="0 0 80 80" fill="none" xmlns="http://www.w3.org/2000/svg">
  <path d="M9.49368 63.1392C9.17009 62.5786 8.45337 62.3867 7.8929 62.7103C7.33243 63.0339 7.1404 63.7506 7.46399 64.3111L9.89071 68.5143C10.2152 69.0767 10.9326 69.2661 11.4915 68.9432C12.052 68.6197 12.244 67.9029 11.9204 67.3425L9.49368 63.1392Z" fill="#015467"/>
  <path d="M77.7984 52.1603C73.2713 49.5466 75.5811 50.8801 71.0068 48.2392C71.1907 47.1279 71.3373 46.0041 71.4459 44.8727L74.9094 44.0068C76.4772 43.6149 77.5723 42.2123 77.5723 40.5962V32.1225C77.5723 30.5064 76.4772 29.1038 74.9094 28.7119L70.1068 27.5113C68.6789 22.0061 66.3047 16.9211 63.0937 12.6059C62.9251 12.3793 62.6802 12.2212 62.4045 12.1607L56.133 10.7869C55.1532 10.5722 54.1718 10.3773 53.1893 10.202C50.4375 9.65672 48.4516 7.25614 48.4516 4.45243V1.17186C48.4516 0.524679 47.927 0 47.2797 0H32.7195C32.0723 0 31.5476 0.524679 31.5476 1.17186V4.45243C31.5476 7.27051 29.5415 9.68125 26.7674 10.2103C26.1825 10.3148 25.598 10.4262 25.0138 10.5448C24.3794 10.6736 23.9696 11.292 24.0983 11.9262C24.2269 12.5606 24.8455 12.9706 25.4797 12.8417C35.4897 10.8114 45.6374 10.8869 55.6316 13.0762L61.4714 14.3556C68.1858 23.6092 70.4826 35.884 68.813 47.1038C68.605 47.0872 68.3934 47.1261 68.2008 47.2214C58.2461 52.1436 52.2759 62.4846 52.9906 73.5667C52.9945 73.6276 53.0032 73.6878 53.0162 73.7463C48.9917 76.3079 44.5196 77.655 39.9997 77.655C35.4799 77.655 31.0078 76.3079 26.9835 73.7463C26.9966 73.6876 27.0052 73.6274 27.0091 73.5665C27.7238 62.4845 21.7534 52.1434 11.7987 47.2214C11.606 47.1261 11.3945 47.0874 11.1865 47.1038C10.8396 44.773 10.6642 42.3901 10.6642 39.9994C10.6642 30.4358 13.4541 21.3483 18.5281 14.3556L20.0029 14.0324C20.6351 13.894 21.0354 13.2692 20.8968 12.637C20.7582 12.0048 20.1339 11.6048 19.5014 11.7431L17.5949 12.1607C17.3189 12.2212 17.0741 12.3792 16.9055 12.6059C13.6946 16.921 11.3204 22.0061 9.89247 27.5113L5.08989 28.7119C3.5221 29.1039 2.42712 30.5064 2.42712 32.1225V40.5962C2.42712 42.2123 3.5221 43.6148 5.09005 44.0068L8.55359 44.8727C8.66218 46.0041 8.80874 47.1279 8.99264 48.2391C5.16567 50.4487 6.55253 49.648 2.20103 52.1603C0.557933 53.1089 -0.290335 54.9951 0.0899712 56.8538C1.82369 65.3266 6.34222 73.1528 12.8131 78.8908C14.2327 80.1495 16.29 80.358 17.9333 79.4092C22.3071 76.8841 20.6954 77.8146 25.0655 75.2915C29.6333 78.3736 34.7808 79.9987 39.9997 79.9987C45.2185 79.9987 50.3661 78.3736 54.934 75.2913C57.318 76.6677 59.6831 78.0332 62.0662 79.4091C63.7093 80.3578 65.7669 80.1494 67.1864 78.8906C73.6571 73.1526 78.1756 65.3265 79.9095 56.8536C80.2898 54.9949 79.4415 53.1087 77.7984 52.1603ZM33.8913 4.45243V2.34371H46.1078V4.45243C46.1078 6.31381 46.7322 8.04816 47.7989 9.43876C45.5927 9.2072 43.3826 9.07408 41.1714 9.03955V6.02522C41.1714 5.37804 40.6467 4.85336 39.9995 4.85336C39.3523 4.85336 38.8276 5.37804 38.8276 6.02522V9.03955C36.6172 9.07455 34.4066 9.20798 32.1988 9.43985C33.2665 8.04909 33.8913 6.31428 33.8913 4.45243ZM8.37719 42.4128L5.65832 41.7331C5.13567 41.6025 4.77068 41.1348 4.77068 40.5962V32.1225C4.77068 31.5837 5.13567 31.1162 5.65832 30.9856L9.30217 30.0747C8.5225 33.936 8.1725 38.126 8.37719 42.4128ZM19.2753 73.8274C19.4106 74.452 19.5311 75.0859 19.6351 75.7201L16.7613 77.3793C15.9932 77.8227 15.0315 77.7253 14.368 77.1369C8.27422 71.7333 4.01897 64.3629 2.38603 56.3836C2.20822 55.5148 2.60478 54.6331 3.37273 54.1896L6.24675 52.5304C11.4515 56.7919 15.4271 62.3571 17.7694 68.6719C17.9944 69.2786 18.6687 69.588 19.2756 69.3631C19.8825 69.1381 20.1918 68.4638 19.9668 67.8569C17.5822 61.4276 13.6029 55.7299 8.40765 51.2829C8.85937 51.0222 7.22377 51.9665 11.3145 49.6047C19.9022 54.1146 25.091 63.1021 24.703 72.7943C22.5496 74.0374 23.8646 73.2784 21.796 74.4727C21.7248 74.0902 21.6481 73.7092 21.5662 73.3314C21.4293 72.6989 20.8051 72.2971 20.1729 72.434C19.54 72.5712 19.1383 73.1949 19.2753 73.8274ZM70.6973 30.0745L74.3408 30.9855C74.8636 31.1161 75.2286 31.5837 75.2286 32.1223V40.5961C75.2286 41.1348 74.8636 41.6023 74.3408 41.7329L71.6221 42.4126C71.6224 42.4064 71.6226 42.4 71.6228 42.3937C71.8131 38.3314 71.5246 34.1907 70.6973 30.0745ZM68.6852 49.6049C69.7192 50.2019 70.4832 50.6431 71.5915 51.2829C64.5813 57.276 59.8881 65.4048 58.203 74.4724C57.9661 74.3357 55.5321 72.9304 55.2966 72.7945C54.9085 63.1023 60.0975 54.1148 68.6852 49.6049ZM77.6134 56.3838C75.9807 64.3629 71.7253 71.7333 65.6316 77.1369C64.9682 77.7253 64.0065 77.8227 63.2382 77.3793L60.3642 75.7199C61.8596 66.5788 66.5839 58.3961 73.7527 52.5304L76.6267 54.1898C77.3945 54.6334 77.7911 55.5149 77.6134 56.3838Z" fill="#015467"/>
  <path d="M72.1062 62.7103C71.5454 62.3865 70.8288 62.5787 70.5054 63.1392L68.0787 67.3425C67.7551 67.9029 67.9471 68.6197 68.5076 68.9432C69.0671 69.2662 69.7841 69.0761 70.1084 68.5143L72.5351 64.3111C72.8588 63.7506 72.6666 63.0339 72.1062 62.7103Z" fill="#015467"/>
  <path d="M39.9996 43.6809C32.663 43.6809 26.6942 49.6497 26.6942 56.9863C26.6942 64.3229 32.663 70.2917 39.9996 70.2917C47.3362 70.2917 53.305 64.3229 53.305 56.9863C53.305 49.6497 47.3362 43.6809 39.9996 43.6809ZM39.9996 67.9482C33.9553 67.9482 29.0379 63.0307 29.0379 56.9865C29.0379 50.9422 33.9553 46.0247 39.9996 46.0247C46.044 46.0247 50.9613 50.9422 50.9613 56.9865C50.9613 63.0307 46.044 67.9482 39.9996 67.9482Z" fill="#015467"/>
  <path d="M39.9996 50.8828C40.6468 50.8828 41.1715 50.3582 41.1715 49.711C41.1715 49.0638 40.6468 48.5391 39.9996 48.5391C39.3524 48.5391 38.8277 49.0638 38.8277 49.711C38.8277 50.3582 39.3524 50.8828 39.9996 50.8828Z" fill="#015467"/>
  <path d="M39.9996 55.7521C40.6468 55.7521 41.1715 55.2275 41.1715 54.5803C41.1715 53.9331 40.6468 53.4084 39.9996 53.4084C39.3524 53.4084 38.8277 53.9331 38.8277 54.5803C38.8277 55.2275 39.3524 55.7521 39.9996 55.7521Z" fill="#015467"/>
  <path d="M39.9996 60.6214C40.6468 60.6214 41.1715 60.0968 41.1715 59.4496C41.1715 58.8024 40.6468 58.2777 39.9996 58.2777C39.3524 58.2777 38.8277 58.8024 38.8277 59.4496C38.8277 60.0968 39.3524 60.6214 39.9996 60.6214Z" fill="#015467"/>
  <path d="M39.9996 65.4906C40.6468 65.4906 41.1715 64.9659 41.1715 64.3187C41.1715 63.6715 40.6468 63.1468 39.9996 63.1468C39.3524 63.1468 38.8277 63.6715 38.8277 64.3187C38.8277 64.9659 39.3524 65.4906 39.9996 65.4906Z" fill="#015467"/>
  <path d="M47.3035 58.1868C47.9508 58.1868 48.4754 57.6621 48.4754 57.0149C48.4754 56.3677 47.9508 55.843 47.3035 55.843C46.6563 55.843 46.1317 56.3677 46.1317 57.0149C46.1317 57.6621 46.6563 58.1868 47.3035 58.1868Z" fill="#015467"/>
  <path d="M42.4342 58.1868C43.0815 58.1868 43.6061 57.6621 43.6061 57.0149C43.6061 56.3677 43.0815 55.843 42.4342 55.843C41.787 55.843 41.2624 56.3677 41.2624 57.0149C41.2624 57.6621 41.787 58.1868 42.4342 58.1868Z" fill="#015467"/>
  <path d="M37.5649 58.1868C38.2122 58.1868 38.7368 57.6621 38.7368 57.0149C38.7368 56.3677 38.2122 55.843 37.5649 55.843C36.9177 55.843 36.3931 56.3677 36.3931 57.0149C36.3931 57.6621 36.9177 58.1868 37.5649 58.1868Z" fill="#015467"/>
  <path d="M32.6958 58.1868C33.343 58.1868 33.8677 57.6621 33.8677 57.0149C33.8677 56.3677 33.343 55.843 32.6958 55.843C32.0486 55.843 31.5239 56.3677 31.5239 57.0149C31.5239 57.6621 32.0486 58.1868 32.6958 58.1868Z" fill="#015467"/>
  <path d="M34.835 53.0222C35.4822 53.0222 36.0069 52.4975 36.0069 51.8503C36.0069 51.2031 35.4822 50.6784 34.835 50.6784C34.1878 50.6784 33.6631 51.2031 33.6631 51.8503C33.6631 52.4975 34.1878 53.0222 34.835 53.0222Z" fill="#015467"/>
  <path d="M45.1642 63.3514C45.8114 63.3514 46.3361 62.8267 46.3361 62.1795C46.3361 61.5323 45.8114 61.0076 45.1642 61.0076C44.517 61.0076 43.9923 61.5323 43.9923 62.1795C43.9923 62.8267 44.517 63.3514 45.1642 63.3514Z" fill="#015467"/>
  <path d="M45.1642 53.0222C45.8114 53.0222 46.3361 52.4975 46.3361 51.8503C46.3361 51.2031 45.8114 50.6784 45.1642 50.6784C44.517 50.6784 43.9923 51.2031 43.9923 51.8503C43.9923 52.4975 44.517 53.0222 45.1642 53.0222Z" fill="#015467"/>
  <path d="M34.835 63.3514C35.4822 63.3514 36.0069 62.8267 36.0069 62.1795C36.0069 61.5323 35.4822 61.0076 34.835 61.0076C34.1878 61.0076 33.6631 61.5323 33.6631 62.1795C33.6631 62.8267 34.1878 63.3514 34.835 63.3514Z" fill="#015467"/>
  <path d="M23.6425 24.2671C18.6348 24.2671 14.5606 28.3413 14.5606 33.349V39.5575C14.5606 44.4284 18.508 48.4513 23.4544 48.4513C25.83 48.4513 28.0634 47.5261 29.7432 45.8463L34.2828 41.3067C37.1602 38.4292 38.7449 34.6037 38.7449 30.5345C38.7449 27.0058 35.8554 24.2671 32.4775 24.2671H23.6425ZM23.6425 26.6108H27.4637L16.9043 37.1702V33.349C16.9043 29.6336 19.9269 26.6108 23.6425 26.6108ZM32.6255 39.6497L28.0859 44.1893C26.8487 45.4265 25.2039 46.1077 23.4544 46.1077C22.7289 46.1077 22.0147 45.9885 21.3381 45.7579L36.4001 30.6959C36.3589 34.0787 35.0222 37.253 32.6255 39.6497ZM35.6093 28.1721L19.2235 44.5579C17.988 43.5106 17.1768 42.0364 16.9618 40.4272L30.7782 26.6108H32.4773C33.7155 26.6108 34.8757 27.2049 35.6093 28.1721Z" fill="#015467"/>
  <path d="M65.4387 39.5577V33.3492C65.4387 28.3371 61.3827 24.2673 56.3568 24.2673H47.522C44.0661 24.2673 41.2546 27.0788 41.2546 30.5347C41.2546 34.5821 42.8634 38.4533 45.7165 41.3069C50.5402 46.1304 48.0755 43.6659 50.2564 45.8465C51.9363 47.5263 54.1697 48.4514 56.5451 48.4514C61.4489 48.4514 65.4387 44.4616 65.4387 39.5577ZM44.7997 35.9688C44.0105 34.2718 43.5983 32.4192 43.5983 30.5347C43.5983 28.3711 45.3586 26.611 47.522 26.611H54.1576L44.7997 35.9688ZM51.5444 43.8203L55.7846 39.58C56.2423 39.1224 56.2423 38.3803 55.7846 37.9228C55.3268 37.4652 54.585 37.4652 54.1273 37.9228L49.8871 42.1631L47.3737 39.6497C46.8815 39.1575 46.4292 38.625 46.0228 38.06L57.3929 26.6899C59.3811 26.9965 61.1222 28.1771 62.1483 29.9017L58.0648 33.9853C57.6071 34.4429 57.6071 35.1849 58.0648 35.6424C58.5226 36.1001 59.2644 36.1001 59.7221 35.6424L63.0208 32.3437C63.07 32.6739 63.0948 33.0093 63.0948 33.349V39.5575C63.0948 43.1692 60.1565 46.1076 56.5448 46.1076C54.7954 46.1076 53.1505 45.4262 51.9131 44.189L51.5444 43.8203Z" fill="#015467"/>
  <path d="M47.4027 14.284C42.4799 13.7643 37.5276 13.7635 32.5964 14.284C31.9528 14.352 31.4861 14.9287 31.5541 15.5724C31.622 16.2162 32.2002 16.6832 32.8425 16.6147C37.6027 16.1124 42.3894 16.1116 47.1568 16.6147C47.7987 16.6827 48.3771 16.2174 48.4452 15.5724C48.513 14.9288 48.0463 14.352 47.4027 14.284Z" fill="#015467"/>
</svg>
