<svg width="80" height="80" viewBox="0 0 80 80" fill="none" xmlns="http://www.w3.org/2000/svg">
  <path d="M8.81175 7.56188C8.81175 8.20919 9.33626 8.7337 9.98357 8.7337H43.3324C43.9797 8.7337 44.5042 8.20919 44.5042 7.56188C44.5042 6.91456 43.9797 6.39005 43.3324 6.39005H9.98357C9.33626 6.39005 8.81175 6.91472 8.81175 7.56188Z" fill="white"/>
  <path d="M71.189 27.3839C71.189 26.7366 70.6645 26.2121 70.0172 26.2121H36.6684C36.0211 26.2121 35.4966 26.7366 35.4966 27.3839C35.4966 28.0312 36.0211 28.5557 36.6684 28.5557H70.0172C70.6645 28.5557 71.189 28.031 71.189 27.3839Z" fill="white"/>
  <path d="M53.6263 50.3642V44.4104C53.6263 41.8794 51.5672 39.8202 49.0362 39.8202H4.59223C2.06124 39.8202 0.00195312 41.8794 0.00195312 44.4104V50.3642C0.00195312 52.8952 2.06124 54.9545 4.59223 54.9545H7.72164C7.7507 54.9545 7.77741 54.9712 7.79007 54.9974L9.80327 59.1504C10.1106 59.7844 10.7392 60.1782 11.4437 60.1782C12.1482 60.1782 12.7767 59.7843 13.0841 59.1504L15.0973 54.9973C15.1099 54.9712 15.1368 54.9545 15.1657 54.9545H49.036C51.5672 54.9545 53.6263 52.8952 53.6263 50.3642ZM12.9883 53.9751L11.4437 57.1616L9.89905 53.9753C9.4975 53.1463 8.64269 52.6108 7.72148 52.6108H4.59223C3.35338 52.6108 2.34561 51.603 2.34561 50.3642V44.4104C2.34561 43.1717 3.35338 42.1639 4.59223 42.1639H49.0362C50.2749 42.1639 51.2827 43.1717 51.2827 44.4104V50.3642C51.2827 51.603 50.2749 52.6108 49.0362 52.6108H15.1657C14.2447 52.6108 13.3898 53.1463 12.9883 53.9751Z" fill="white"/>
  <path d="M43.3324 46.2103H9.98357C9.33626 46.2103 8.81175 46.7348 8.81175 47.3821C8.81175 48.0294 9.33626 48.5539 9.98357 48.5539H43.3324C43.9797 48.5539 44.5042 48.0294 44.5042 47.3821C44.5042 46.7348 43.9795 46.2103 43.3324 46.2103Z" fill="white"/>
  <path d="M71.189 67.204C71.189 66.5566 70.6645 66.0321 70.0172 66.0321H36.6684C36.0211 66.0321 35.4966 66.5566 35.4966 67.204C35.4966 67.8513 36.0211 68.3758 36.6684 68.3758H70.0172C70.6645 68.3758 71.189 67.8513 71.189 67.204Z" fill="white"/>
  <path d="M75.4085 59.6419H30.9646C28.4336 59.6419 26.3743 61.7011 26.3743 64.2321V70.186C26.3743 72.717 28.4336 74.7762 30.9646 74.7762H34.3259C34.9732 74.7762 35.4977 74.2516 35.4977 73.6043C35.4977 72.957 34.9732 72.4325 34.3259 72.4325H30.9646C29.7257 72.4325 28.718 71.4247 28.718 70.186V64.2321C28.718 62.9934 29.7257 61.9856 30.9646 61.9856H75.4085C76.6472 61.9856 77.655 62.9934 77.655 64.2322V70.1859C77.655 71.4247 76.6472 72.4325 75.4084 72.4325H72.2791C71.3579 72.4325 70.5031 72.9681 70.1014 73.7968L68.5568 76.9834L67.0122 73.7967C66.6103 72.9679 65.7557 72.4325 64.8346 72.4325H39.011C38.3637 72.4325 37.8391 72.957 37.8391 73.6043C37.8391 74.2516 38.3637 74.7762 39.011 74.7762H64.8348C64.8641 74.7762 64.8905 74.7926 64.9034 74.8191L66.9164 78.9722C67.2237 79.6063 67.8523 80 68.5568 80C69.2613 80 69.8899 79.6061 70.1972 78.9722L72.2104 74.819C72.2231 74.7929 72.2501 74.7762 72.279 74.7762H75.4082C77.9392 74.7762 79.9985 72.7169 79.9985 70.1859V64.2322C79.9987 61.7011 77.9395 59.6419 75.4085 59.6419Z" fill="white"/>
  <path d="M75.4085 19.8217H30.9646C28.4336 19.8217 26.3743 21.8808 26.3743 24.4118V30.3658C26.3743 32.8968 28.4336 34.9559 30.9646 34.9559H51.0749C51.7222 34.9559 52.2467 34.4314 52.2467 33.7841C52.2467 33.1368 51.7222 32.6123 51.0749 32.6123H30.9646C29.7257 32.6123 28.718 31.6045 28.718 30.3658V24.4118C28.718 23.1731 29.7257 22.1653 30.9646 22.1653H75.4085C76.6472 22.1653 77.655 23.1731 77.655 24.412V30.3656C77.655 31.6045 76.6472 32.6123 75.4084 32.6123H72.2791C71.3579 32.6123 70.5031 33.1479 70.1014 33.9766L68.5568 37.1632L67.0122 33.9764C66.6103 33.1477 65.7557 32.6123 64.8346 32.6123H55.7598C55.1125 32.6123 54.588 33.1368 54.588 33.7841C54.588 34.4314 55.1125 34.9559 55.7598 34.9559H64.8346C64.864 34.9559 64.8904 34.9723 64.9032 34.9989L66.9162 39.152C67.2236 39.786 67.8521 40.1798 68.5566 40.1798C69.2611 40.1798 69.8897 39.7859 70.197 39.152L72.2102 34.9987C72.2229 34.9726 72.2499 34.9559 72.2788 34.9559H75.4081C77.9391 34.9559 79.9984 32.8966 79.9984 30.3656V24.412C79.9987 21.881 77.9395 19.8217 75.4085 19.8217Z" fill="white"/>
  <path d="M4.59224 15.1342H7.72164C7.7507 15.1342 7.77742 15.1509 7.79007 15.1772L9.80327 19.3301C10.1106 19.9642 10.7392 20.3579 11.4437 20.3579C12.1482 20.3579 12.7767 19.964 13.0841 19.3301L15.0973 15.177C15.1099 15.1509 15.1368 15.1342 15.1657 15.1342H49.036C51.567 15.1342 53.6262 13.0749 53.6262 10.5439V4.59012C53.6263 2.05913 51.5672 0 49.0362 0H15.6485C15.0012 0 14.4767 0.52451 14.4767 1.17183C14.4767 1.81914 15.0012 2.34365 15.6485 2.34365H49.0362C50.2749 2.34365 51.2827 3.35143 51.2827 4.59012V10.5439C51.2827 11.7828 50.2749 12.7906 49.0362 12.7906H15.1657C14.2445 12.7906 13.3898 13.3262 12.9881 14.1549L11.4435 17.3413L9.89889 14.155C9.49735 13.326 8.64254 12.7906 7.72133 12.7906H4.59224C3.35338 12.7906 2.34561 11.7828 2.34561 10.5439V4.59012C2.34561 3.35143 3.35338 2.34365 4.59224 2.34365H10.9632C11.6105 2.34365 12.1351 1.81914 12.1351 1.17183C12.1351 0.52451 11.6105 0 10.9632 0H4.59224C2.06109 0 0.0019551 2.05913 0.0019551 4.59012V10.5439C0.0019551 13.0751 2.06109 15.1342 4.59224 15.1342Z" fill="white"/>
</svg>
