<svg width="80" height="78" viewBox="0 0 80 78" fill="none" xmlns="http://www.w3.org/2000/svg">
  <path d="M77.7428 30.3469C75.3261 28.013 71.598 28.0035 68.9375 28.088C68.5205 26.4041 66.9972 25.1518 65.1862 25.1518H63.6652V4.03568C63.6652 1.95334 61.9711 0.259277 59.8889 0.259277C58.2137 0.259277 56.7905 1.3535 56.2956 2.86381H49.8805C49.3856 1.3535 47.9622 0.259277 46.287 0.259277C44.6138 0.259277 43.1922 1.3535 42.698 2.86381H20.9673C20.4731 1.3535 19.0514 0.259277 17.3783 0.259277C15.7031 0.259277 14.2797 1.3535 13.7848 2.86381H7.36953C6.87469 1.3535 5.45141 0.259277 3.77625 0.259277C1.69406 0.259277 0 1.95318 0 4.03568V41.0688C0 43.1535 1.69406 44.8494 3.77625 44.8494C5.45187 44.8494 6.87562 43.7532 7.37 42.2407H13.7844C14.2789 43.7533 15.7025 44.8494 17.3783 44.8494C19.052 44.8494 20.4739 43.7532 20.9678 42.2407H29.3103C29.9575 42.2407 30.4822 41.7162 30.4822 41.0688C30.4822 40.4215 29.9575 39.8969 29.3103 39.8969H21.1544V5.20756H42.5109V39.8969H34.7227C34.0755 39.8969 33.5508 40.4215 33.5508 41.0688C33.5508 41.7162 34.0755 42.2407 34.7227 42.2407H42.6975C43.1914 43.7533 44.6134 44.8494 46.287 44.8494C47.9627 44.8494 49.3864 43.7532 49.8809 42.2407H56.2952C56.7897 43.7533 58.2133 44.8494 59.8889 44.8494C61.9711 44.8494 63.6652 43.1535 63.6652 41.0688V40.0393H65.1862C65.5122 40.0393 65.8288 39.9983 66.1314 39.9219V54.6002C66.1314 55.1679 65.6697 55.6297 65.102 55.6297H52.3017C51.6545 55.6297 51.1298 56.1543 51.1298 56.8016C51.1298 57.449 51.6545 57.9735 52.3017 57.9735H65.102C66.962 57.9735 68.4752 56.4602 68.4752 54.6002V38.201C68.8398 37.6113 69.0509 36.9171 69.0509 36.1743V30.4294C71.4045 30.3558 74.3922 30.3696 76.1145 32.0329C77.1519 33.0346 77.6561 34.5487 77.6561 36.6615V54.1083C77.6561 58.1569 75.4494 62.8846 69.23 62.8846H50.6233C48.5289 62.8846 46.8248 64.5885 46.8248 66.6832C46.8248 68.7801 48.5288 70.486 50.6233 70.486H59.2158C60.5228 70.486 61.6272 71.6105 61.6272 72.9418C61.6272 74.2958 60.5236 75.3976 59.167 75.3976H8.45344C7.09938 75.3976 5.99781 74.2958 5.99781 72.9418C5.99781 71.5877 7.09938 70.486 8.45344 70.486H35.6395C37.7339 70.486 39.438 68.7801 39.438 66.6832C39.438 64.5886 37.7341 62.8846 35.6395 62.8846H29.638C28.2816 62.8846 27.178 61.783 27.178 60.429C27.178 59.0749 28.2816 57.9732 29.638 57.9732H46.8895C47.5367 57.9732 48.0614 57.4487 48.0614 56.8013C48.0614 56.154 47.5367 55.6294 46.8895 55.6294H29.638C26.9892 55.6294 24.8342 57.7824 24.8342 60.429C24.8342 63.0754 26.9892 65.2283 29.638 65.2283H35.6395C36.4416 65.2283 37.0942 65.881 37.0942 66.6832C37.0942 67.4876 36.4417 68.1422 35.6395 68.1422H8.45344C5.80703 68.1422 3.65406 70.2952 3.65406 72.9418C3.65406 75.5883 5.80703 77.7413 8.45344 77.7413H59.1672C61.8161 77.7413 63.9711 75.5883 63.9711 72.9418C63.9711 70.2952 61.838 68.1422 59.2159 68.1422H50.6234C49.8214 68.1422 49.1687 67.4877 49.1687 66.6832C49.1687 65.881 49.8212 65.2283 50.6234 65.2283H69.2303C72.5216 65.2283 75.2914 64.0794 77.2403 61.906C79.0198 59.9215 80 57.1522 80 54.1083V36.6615C80 33.9179 79.2406 31.7933 77.7428 30.3469ZM50.0678 5.20756H56.1084V39.8969H50.0678V5.20756ZM7.55687 5.20756H13.5975V39.8969H7.55687V5.20756ZM5.21312 41.0686C5.21312 41.861 4.56859 42.5055 3.77625 42.5055C2.98641 42.5055 2.34375 41.861 2.34375 41.0686V4.03568C2.34375 3.24568 2.98641 2.60303 3.77625 2.60303C4.56859 2.60303 5.21312 3.24568 5.21312 4.03568V41.0686ZM18.8106 41.0686C18.8106 41.861 18.1681 42.5055 17.3783 42.5055C16.5859 42.5055 15.9414 41.861 15.9414 41.0686V4.03568C15.9414 3.24568 16.5859 2.60303 17.3783 2.60303C18.1681 2.60303 18.8106 3.24568 18.8106 4.03568V41.0686ZM47.7241 41.0686C47.7241 41.861 47.0795 42.5055 46.2872 42.5055C45.4973 42.5055 44.8548 41.861 44.8548 41.0686V4.03568C44.8548 3.24568 45.4973 2.60303 46.2872 2.60303C47.0795 2.60303 47.7241 3.24568 47.7241 4.03568V41.0686ZM61.3216 41.0686C61.3216 41.861 60.6789 42.5055 59.8891 42.5055C59.0967 42.5055 58.4522 41.861 58.4522 41.0686V4.03568C58.4522 3.24568 59.0967 2.60303 59.8891 2.60303C60.6789 2.60303 61.3216 3.24568 61.3216 4.03568V41.0686ZM63.6653 37.6954V27.4955H65.1864C66.0252 27.4955 66.7073 28.1779 66.7073 29.0166V36.1743C66.7073 36.5101 66.5967 36.8197 66.4117 37.0716C66.3889 37.0983 66.3675 37.1262 66.3472 37.1549C66.068 37.4849 65.6516 37.6954 65.1864 37.6954H63.6653Z" fill="#00B0F0"/>
  <path d="M16.5409 65.2283C19.1873 65.2283 21.3403 63.0754 21.3403 60.429C21.3403 57.7824 19.1873 55.6294 16.5409 55.6294H11.1552C8.50875 55.6294 6.35578 57.7824 6.35578 60.429C6.35578 63.0754 8.50875 65.2283 11.1552 65.2283H16.5409ZM8.69953 60.4291C8.69953 59.0751 9.80109 57.9733 11.1552 57.9733H16.5409C17.895 57.9733 18.9966 59.0751 18.9966 60.4291C18.9966 61.7832 17.895 62.8847 16.5409 62.8847H11.1552C9.80125 62.8846 8.69953 61.7832 8.69953 60.4291Z" fill="#00B0F0"/>
  <path d="M39.2639 23.9383C39.5072 23.7769 40.1531 23.3482 40.1531 22.5522C40.1531 21.7563 39.507 21.3276 39.2639 21.1662C39.2641 21.1663 39.2639 21.166 39.2639 21.1662C39.0094 20.9974 38.7177 20.7988 38.3977 20.581C35.2556 18.4429 31.9894 16.3554 29.6159 16.3554C25.6103 16.3554 23.5144 19.4738 23.5144 22.5544C23.5144 25.6351 25.6103 28.7537 29.6159 28.7537C31.9959 28.7537 35.2698 26.6574 38.4191 24.5104C38.7311 24.2972 39.0158 24.1033 39.2639 23.9383ZM37.0988 22.5737C35.1325 23.9143 31.4722 26.4097 29.6159 26.4097C27.0202 26.4097 25.8581 24.4733 25.8581 22.5543C25.8581 20.6354 27.0202 18.699 29.6159 18.699C31.4661 18.699 35.1173 21.1837 37.0791 22.5185C37.0959 22.5299 37.1127 22.5413 37.1294 22.5527C37.1191 22.5597 37.1089 22.5668 37.0988 22.5737Z" fill="#00B0F0"/>
</svg>
