<svg width="80" height="80" viewBox="0 0 80 80" fill="none" xmlns="http://www.w3.org/2000/svg">
  <path d="M59.0839 50.9027V44.2004C59.0839 39.4067 56.076 36.6571 50.8319 36.6571C48.3746 36.6571 46.4081 37.2607 45.0122 38.396L51.7413 24.6124C52.8772 22.3285 50.9241 19.5239 48.0945 19.5239C46.7352 19.5239 45.5975 20.2167 45.0586 21.3629L37.2961 37.3065C37.3779 36.8018 37.4194 36.2677 37.4194 35.705V29.0027C37.4194 24.2084 34.4116 21.4587 29.1675 21.4587C23.9233 21.4587 20.9155 24.2084 20.9155 29.0027V35.705C20.9155 40.4993 23.9233 43.2489 29.1675 43.2489C31.9141 43.2489 34.0472 42.4945 35.4559 41.0876L28.4967 55.3821C27.9797 56.416 28.0481 57.6422 28.6786 58.6633C30.2582 61.2189 34.0479 60.929 35.1331 58.631L42.6172 43.3008C42.5928 43.5925 42.58 43.8922 42.58 44.201V50.9033C42.58 55.697 45.5878 58.4467 50.8319 58.4467C56.076 58.4467 59.0839 55.697 59.0839 50.9027ZM35.0757 35.705C35.0757 36.991 35.0757 40.9045 29.1675 40.9045C25.1923 40.9045 23.2599 39.2035 23.2599 35.705V29.0027C23.2599 25.5035 25.1923 23.8025 29.1675 23.8025C35.0757 23.8025 35.0757 27.7167 35.0757 29.0027V35.705ZM33.0145 57.6288C32.7563 58.1812 31.3159 58.4717 30.6726 57.431C30.553 57.2375 30.3839 56.85 30.5988 56.4191L47.1722 22.3743C47.3309 22.038 47.641 21.8677 48.0945 21.8677C49.223 21.8677 49.9786 22.8967 49.6423 23.5699C49.6405 23.573 49.6387 23.5767 49.6375 23.5797C49.632 23.5907 33.0194 57.6178 33.0145 57.6288ZM56.7401 50.9027C56.7401 52.1887 56.7401 56.1029 50.8319 56.1029C46.8567 56.1029 44.9243 54.4019 44.9243 50.9027V44.2004C44.9243 40.7013 46.8567 39.0009 50.8319 39.0009C56.7401 39.0009 56.7401 42.9144 56.7401 44.2004V50.9027Z" fill="#00B0F0"/>
  <path d="M29.1681 25.5652C26.9861 25.5652 25.683 26.85 25.683 29.0027V35.705C25.683 37.8571 26.9861 39.1425 29.1681 39.1425C31.3464 39.1425 32.6996 37.8253 32.6996 35.705V29.0027C32.6996 26.8823 31.3464 25.5652 29.1681 25.5652ZM30.3558 35.705C30.3558 36.4301 30.1721 36.7987 29.1675 36.7987C28.2831 36.7987 28.0267 36.5533 28.0267 35.705V29.0027C28.0267 28.1543 28.2831 27.9089 29.1675 27.9089C30.1721 27.9089 30.3558 28.277 30.3558 29.0027V35.705Z" fill="#00B0F0"/>
  <path d="M50.8319 40.7629C48.6499 40.7629 47.3474 42.0483 47.3474 44.2004V50.9027C47.3474 53.0554 48.6499 54.3402 50.8319 54.3402C53.0103 54.3402 54.364 53.0231 54.364 50.9027V44.2004C54.364 42.0801 53.0103 40.7629 50.8319 40.7629ZM52.0203 50.9027C52.0203 51.6284 51.8365 51.9965 50.8319 51.9965C49.9469 51.9965 49.6912 51.7511 49.6912 50.9027V44.2004C49.6912 43.3521 49.9469 43.1067 50.8319 43.1067C51.8365 43.1067 52.0203 43.4753 52.0203 44.2004V50.9027Z" fill="#00B0F0"/>
  <path d="M77.1313 54.8297C78.6755 50.993 79.6069 46.955 79.8987 42.8168C79.9445 42.171 79.458 41.6107 78.8123 41.5656C78.1665 41.5179 77.6062 42.0062 77.5604 42.652C77.326 45.9827 76.6516 49.245 75.5518 52.3785L72.9004 48.2648C73.5822 45.567 73.9276 42.7893 73.9276 40C73.9276 21.3184 58.6786 6.07239 40 6.07239C21.319 6.07239 6.07239 21.3214 6.07239 40C6.07239 58.681 21.3214 73.9276 40 73.9276C48.0768 73.9276 55.7477 71.0876 61.8781 65.8801V70.5975C56.2128 74.668 49.5782 77.0728 42.652 77.561C42.0062 77.6062 41.5198 78.1665 41.5656 78.8123C41.6089 79.4299 42.1234 79.9017 42.7332 79.9017C42.7612 79.9017 42.7887 79.9011 42.8168 79.8993C49.6271 79.4189 56.1707 77.1948 61.8781 73.4399V77.8467C61.8781 79.0338 62.8442 80 64.032 80H71.6412C72.829 80 73.7946 79.0338 73.7946 77.8467V62.0667H77.8448C78.6334 62.0667 79.3579 61.6364 79.7357 60.9442C80.1129 60.2515 80.0824 59.4098 79.6552 58.7469L77.1313 54.8297ZM61.8781 62.7222C55.9467 68.4406 48.1964 71.5839 40 71.5839C22.5842 71.5839 8.41614 57.4152 8.41614 40C8.41614 22.5842 22.5842 8.41614 40 8.41614C57.4152 8.41614 71.5839 22.5842 71.5839 40C71.5839 41.8384 71.4227 43.6713 71.1035 45.4755L69.6466 43.2153C68.7982 41.8988 66.8744 41.9006 66.0266 43.2153L56.0181 58.7469C55.0964 60.1776 56.1255 62.0667 57.8284 62.0667H61.8781V62.7222ZM72.6233 59.7229C71.9757 59.7229 71.4508 60.2472 71.4508 60.8948V77.6562H64.2224C64.2224 73.9563 64.2224 64.566 64.2224 60.8948C64.2224 60.2472 63.6975 59.7229 63.0499 59.7229H58.1775L67.8363 44.7333C68.9978 46.5363 76.4185 58.0518 77.4951 59.7229H72.6233Z" fill="#00B0F0"/>
  <path d="M37.1832 79.8987C37.2113 79.9005 37.2388 79.9017 37.2668 79.9017C37.876 79.9017 38.3911 79.4299 38.4344 78.8123C38.4802 78.1665 37.9938 77.6062 37.348 77.5604C17.7197 76.178 2.34375 59.679 2.34375 40C2.34375 19.2365 19.2365 2.34375 40 2.34375C59.679 2.34375 76.178 17.7191 77.5604 37.348C77.6056 37.9932 78.1635 38.4814 78.8123 38.4344C79.4574 38.3893 79.9438 37.829 79.8987 37.1832C78.4302 16.333 60.9039 0 40 0C17.9755 0 0 17.9791 0 40C0 60.9045 16.333 78.4302 37.1832 79.8987Z" fill="#00B0F0"/>
</svg>
