<svg width="80" height="75" viewBox="0 0 80 75" fill="none" xmlns="http://www.w3.org/2000/svg">
  <path d="M72.9635 15.158H56.3653C56.0475 13.2494 54.3853 11.7895 52.3881 11.7895H51.1908C50.36 11.7895 49.6842 11.1136 49.6842 10.283V7.37703C49.6842 3.30937 46.3749 0 42.3072 0H37.6928C33.6252 0 30.3158 3.30937 30.3158 7.37703V10.283C30.3158 11.1137 29.6399 11.7895 28.8092 11.7895H27.6119C25.6145 11.7895 23.9527 13.2494 23.6345 15.158H7.03656C3.15656 15.158 0 18.3145 0 22.1945V67.9108C0 71.7909 3.15656 74.9473 7.03656 74.9473H72.9633C76.8435 74.9473 79.9999 71.7908 79.9999 67.9108V22.1945C80 18.3145 76.8435 15.158 72.9635 15.158ZM26.1053 15.8223C26.1053 14.9916 26.7813 14.3158 27.6119 14.3158H28.8092C31.033 14.3158 32.8422 12.5066 32.8422 10.283V7.37703C32.8422 4.70234 35.0181 2.52641 37.6928 2.52641H42.3072C44.9819 2.52641 47.1578 4.70234 47.1578 7.37703V10.283C47.1578 12.5066 48.967 14.3158 51.1906 14.3158H52.388C53.2188 14.3158 53.8945 14.9917 53.8945 15.8223V23.7564C53.8945 24.5872 53.2186 25.263 52.388 25.263H27.6117C26.7809 25.263 26.1052 24.587 26.1052 23.7564L26.1053 15.8223ZM77.4738 67.9108C77.4738 70.4017 75.4544 72.4211 72.9635 72.4211H7.03656C4.54563 72.4211 2.52625 70.4017 2.52625 67.9108V22.1945C2.52625 19.7036 4.54563 17.6842 7.03656 17.6842H23.5789V21.8947H8C7.30235 21.8947 6.73688 22.4603 6.73688 23.1578V66.9473C6.73688 67.645 7.3025 68.2105 8 68.2105H50.645C51.3427 68.2105 51.9081 67.6448 51.9081 66.9473C51.9081 66.2497 51.3425 65.6842 50.645 65.6842H9.26313V24.4211H23.6347C23.9525 26.3297 25.6147 27.7895 27.612 27.7895H52.3883C54.3856 27.7895 56.0475 26.3297 56.3655 24.4211H70.7369V65.6842H56.798C56.1003 65.6842 55.5349 66.2498 55.5349 66.9473C55.5349 67.645 56.1005 68.2105 56.798 68.2105H72C72.6977 68.2105 73.2631 67.6448 73.2631 66.9473V23.158C73.2631 22.4603 72.6975 21.8948 72 21.8948H56.4211V17.6844H72.9635C75.4544 17.6844 77.4738 19.7037 77.4738 22.1947V67.9108Z" fill="#00B0F0"/>
  <path d="M40 13.4738C37.4463 13.4738 35.3684 15.5516 35.3684 18.1053C35.3684 20.6591 37.4463 22.7369 40 22.7369C42.5537 22.7369 44.6316 20.6591 44.6316 18.1053C44.6316 15.5516 42.5537 13.4738 40 13.4738ZM40 20.2106C38.8391 20.2106 37.8947 19.2663 37.8947 18.1053C37.8947 16.9444 38.8391 16 40 16C41.1609 16 42.1053 16.9444 42.1053 18.1053C42.1053 19.2663 41.1609 20.2106 40 20.2106Z" fill="#00B0F0"/>
  <path d="M61.3406 37.7506L59.6564 34.3822C59.6536 34.3763 59.6498 34.3711 59.6469 34.3653C59.6408 34.3538 59.6341 34.3428 59.6277 34.3313C59.6067 34.2939 59.5844 34.258 59.5603 34.2234C59.5533 34.2133 59.5464 34.2031 59.5389 34.1931C59.4725 34.1038 59.3958 34.0253 59.3111 33.9583C59.3072 33.9553 59.3041 33.9516 59.3002 33.9484C59.2961 33.9452 59.2916 33.9431 59.2875 33.94C59.2438 33.907 59.1987 33.8761 59.1516 33.8492C59.1511 33.8489 59.1506 33.8486 59.1498 33.8483C59.1044 33.8225 59.0569 33.8006 59.0088 33.7808C58.9945 33.7748 58.9805 33.7697 58.9661 33.7642C58.9266 33.7495 58.8864 33.7367 58.8456 33.7261C58.8353 33.7234 58.8255 33.72 58.8152 33.7175C58.7661 33.7061 58.7164 33.698 58.6662 33.6923C58.652 33.6906 58.6378 33.69 58.6236 33.6888C58.5823 33.6856 58.5409 33.6844 58.4991 33.6852C58.4873 33.6853 58.4755 33.6852 58.4637 33.6856C58.412 33.6881 58.3602 33.6939 58.3086 33.7028C58.2983 33.7047 58.2883 33.7073 58.2781 33.7094C58.2358 33.7178 58.1939 33.7288 58.1522 33.7417C58.1383 33.7461 58.1244 33.7503 58.1105 33.7552C58.0602 33.7727 58.0103 33.7925 57.9614 33.817L54.593 35.5013C53.9691 35.8133 53.7161 36.5719 54.0281 37.1961C54.34 37.8203 55.0986 38.073 55.723 37.7609L56.6217 37.3116C54.9686 42.8536 52.0973 46.9569 48.0644 49.5295C42.1103 53.3273 35.1702 52.7527 32.7484 52.3967C32.2358 49.4255 29.6417 47.1575 26.5263 47.1575C23.0436 47.1575 20.2105 49.9906 20.2105 53.4733C20.2105 56.9559 23.0436 59.7891 26.5263 59.7891C29.5022 59.7891 32.0027 57.7194 32.6673 54.9441C33.5789 55.0711 34.8922 55.2005 36.4625 55.2005C40.022 55.2005 44.9 54.5359 49.3991 51.6745C53.8556 48.8402 57.0405 44.4205 58.8959 38.5109L59.0806 38.8803C59.3017 39.323 59.7481 39.5788 60.2114 39.5788C60.4012 39.5788 60.5939 39.5356 60.7755 39.445C61.3995 39.1334 61.6525 38.3748 61.3406 37.7506ZM26.5263 57.2633C24.4369 57.2633 22.7367 55.5633 22.7367 53.4737C22.7367 51.3844 24.4367 49.6842 26.5263 49.6842C28.6158 49.6842 30.3158 51.3842 30.3158 53.4737C30.3158 55.5631 28.6158 57.2633 26.5263 57.2633Z" fill="#00B0F0"/>
  <path d="M20.7339 35.7897L22.3669 34.1567C22.8602 33.6633 22.8602 32.8636 22.3669 32.3703C21.8734 31.8772 21.0737 31.8772 20.5805 32.3703L18.9475 34.0033L17.3145 32.3703C16.8211 31.8772 16.0214 31.8772 15.5281 32.3703C15.0348 32.8637 15.0348 33.6634 15.5281 34.1567L17.1611 35.7897L15.5281 37.4227C15.0347 37.9159 15.0347 38.7156 15.5278 39.2091C15.7745 39.4556 16.098 39.5789 16.4211 39.5789C16.7442 39.5789 17.0677 39.4556 17.3144 39.2091L18.9473 37.5761L20.5803 39.2091C20.827 39.4556 21.1505 39.5789 21.4736 39.5789C21.7967 39.5789 22.1202 39.4556 22.3669 39.2091C22.8602 38.7156 22.8602 37.9159 22.3669 37.4227L20.7339 35.7897Z" fill="#00B0F0"/>
  <path d="M64.5234 55.9998L66.1564 54.3669C66.6497 53.8734 66.6497 53.0738 66.1564 52.5805C65.663 52.0873 64.8633 52.0873 64.37 52.5805L62.737 54.2134L61.1041 52.5805C60.6105 52.0875 59.8108 52.0875 59.3173 52.5805C58.8241 53.0739 58.8241 53.8736 59.3173 54.3669L60.9503 55.9998L59.3173 57.6328C58.8241 58.1262 58.8241 58.9259 59.3173 59.4192C59.5641 59.6658 59.8875 59.7891 60.2106 59.7891C60.5338 59.7891 60.8572 59.6658 61.1039 59.4192L62.7369 57.7863L64.3699 59.4192C64.6166 59.6658 64.94 59.7891 65.2631 59.7891C65.5862 59.7891 65.9097 59.6658 66.1564 59.4192C66.6497 58.9258 66.6497 58.1261 66.1564 57.6328L64.5234 55.9998Z" fill="#00B0F0"/>
  <path d="M42.6287 39.1581L44.2617 37.5252C44.755 37.0317 44.755 36.232 44.2617 35.7388C43.7683 35.2456 42.9686 35.2456 42.4753 35.7388L40.8423 37.3717L39.2094 35.7388C38.7159 35.2456 37.9163 35.2456 37.423 35.7388C36.9297 36.2322 36.9297 37.0319 37.423 37.5252L39.0559 39.1581L37.423 40.7911C36.9295 41.2844 36.9295 42.0841 37.4227 42.5775C37.6694 42.8241 37.9928 42.9473 38.3159 42.9473C38.6391 42.9473 38.9625 42.8241 39.2092 42.5775L40.8422 40.9445L42.4752 42.5775C42.7219 42.8241 43.0453 42.9473 43.3684 42.9473C43.6916 42.9473 44.015 42.8241 44.2617 42.5775C44.755 42.0841 44.755 41.2844 44.2617 40.7911L42.6287 39.1581Z" fill="#00B0F0"/>
</svg>
