<svg width="364" height="183" viewBox="0 0 364 183" fill="none" xmlns="http://www.w3.org/2000/svg">
  <path d="M129.602 183H37.3456C36.9597 183 36.5897 182.847 36.3168 182.575C36.0439 182.302 35.8906 181.933 35.8906 181.548V70.5905C35.8898 70.317 35.9669 70.049 36.1129 69.8176C36.2588 69.5861 36.4677 69.4009 36.7151 69.2834L82.8383 47.0145C83.0378 46.9238 83.2544 46.8769 83.4736 46.8769C83.6928 46.8769 83.9095 46.9238 84.109 47.0145L130.232 69.2834C130.48 69.4009 130.688 69.5861 130.834 69.8176C130.98 70.049 131.057 70.317 131.057 70.5905V181.567C131.052 181.949 130.896 182.313 130.624 182.581C130.351 182.85 129.984 183 129.602 183ZM38.8006 180.095H128.166V71.5006L83.5464 49.9676L38.8006 71.5006V180.095Z" fill="#015467"/>
  <path d="M71.605 103.888H59.7323C59.3464 103.888 58.9764 103.735 58.7035 103.463C58.4306 103.191 58.2773 102.821 58.2773 102.436V82.9355C58.2773 82.5503 58.4306 82.1809 58.7035 81.9085C58.9764 81.6361 59.3464 81.4831 59.7323 81.4831H71.605C71.9909 81.4831 72.361 81.6361 72.6339 81.9085C72.9067 82.1809 73.06 82.5503 73.06 82.9355V102.436C73.06 102.821 72.9067 103.191 72.6339 103.463C72.361 103.735 71.9909 103.888 71.605 103.888ZM61.1873 100.984H70.1501V84.3879H61.2358L61.1873 100.984Z" fill="#015467"/>
  <path d="M59.7323 103.888H48.6269C48.241 103.888 47.8709 103.735 47.598 103.463C47.3252 103.191 47.1719 102.821 47.1719 102.436V82.9355C47.1719 82.5503 47.3252 82.1809 47.598 81.9085C47.8709 81.6361 48.241 81.4831 48.6269 81.4831H59.7624C60.1483 81.4831 60.5183 81.6361 60.7912 81.9085C61.0641 82.1809 61.2174 82.5503 61.2174 82.9355V102.436C61.2174 102.629 61.1788 102.821 61.1039 102.999C61.029 103.177 60.9192 103.338 60.781 103.473C60.6428 103.609 60.4789 103.715 60.299 103.786C60.1191 103.858 59.9258 103.892 59.7323 103.888ZM50.0334 100.984H58.3268V84.3879H50.1012L50.0334 100.984Z" fill="#015467"/>
  <path d="M83.4761 103.888H71.6034C71.2175 103.888 70.8475 103.735 70.5746 103.463C70.3017 103.191 70.1484 102.821 70.1484 102.436V82.9355C70.1484 82.5503 70.3017 82.1809 70.5746 81.9085C70.8475 81.6361 71.2175 81.4831 71.6034 81.4831H83.4761C83.862 81.4831 84.2321 81.6361 84.505 81.9085C84.7778 82.1809 84.9311 82.5503 84.9311 82.9355V102.436C84.9311 102.821 84.7778 103.191 84.505 103.463C84.2321 103.735 83.862 103.888 83.4761 103.888ZM73.0584 100.984H82.0211V84.3879H73.0584V100.984Z" fill="#015467"/>
  <path d="M118.348 103.888H107.213C106.827 103.888 106.457 103.735 106.184 103.463C105.911 103.191 105.758 102.821 105.758 102.436V82.9355C105.758 82.5503 105.911 82.1809 106.184 81.9085C106.457 81.6361 106.827 81.4831 107.213 81.4831H118.348C118.734 81.4831 119.104 81.6361 119.377 81.9085C119.65 82.1809 119.803 82.5503 119.803 82.9355V102.436C119.803 102.821 119.65 103.191 119.377 103.463C119.104 103.735 118.734 103.888 118.348 103.888ZM108.648 100.984H116.874V84.3879H108.668L108.648 100.984Z" fill="#015467"/>
  <path d="M107.216 103.888H95.3534C94.9675 103.888 94.5975 103.735 94.3246 103.463C94.0517 103.191 93.8984 102.821 93.8984 102.436V82.9355C93.8984 82.5503 94.0517 82.1809 94.3246 81.9085C94.5975 81.6361 94.9675 81.4831 95.3534 81.4831H107.216C107.602 81.4831 107.972 81.6361 108.245 81.9085C108.518 82.1809 108.671 82.5503 108.671 82.9355V102.436C108.671 102.821 108.518 103.191 108.245 103.463C107.972 103.735 107.602 103.888 107.216 103.888ZM96.8084 100.984H105.761V84.3879H96.8084V100.984Z" fill="#015467"/>
  <path d="M95.3511 103.888H83.4784C83.0925 103.888 82.7225 103.735 82.4496 103.463C82.1767 103.191 82.0234 102.821 82.0234 102.436V82.9355C82.0234 82.5503 82.1767 82.1809 82.4496 81.9085C82.7225 81.6361 83.0925 81.4831 83.4784 81.4831H95.3511C95.737 81.4831 96.1071 81.6361 96.38 81.9085C96.6528 82.1809 96.8061 82.5503 96.8061 82.9355V102.436C96.8061 102.627 96.7685 102.816 96.6954 102.992C96.6223 103.168 96.5151 103.328 96.38 103.463C96.2449 103.598 96.0845 103.705 95.9079 103.778C95.7314 103.851 95.5422 103.888 95.3511 103.888ZM84.9334 100.984H93.8962V84.3879H84.9334V100.984Z" fill="#015467"/>
  <path d="M71.605 132.034H59.7323C59.3464 132.034 58.9764 131.881 58.7035 131.609C58.4306 131.336 58.2773 130.967 58.2773 130.582V111.071C58.2773 110.686 58.4306 110.317 58.7035 110.044C58.9764 109.772 59.3464 109.619 59.7323 109.619H71.605C71.9909 109.619 72.361 109.772 72.6339 110.044C72.9067 110.317 73.06 110.686 73.06 111.071V130.582C73.06 130.967 72.9067 131.336 72.6339 131.609C72.361 131.881 71.9909 132.034 71.605 132.034ZM61.1873 129.129H70.1501V112.524H61.2358L61.1873 129.129Z" fill="#015467"/>
  <path d="M59.7323 132.034H48.6269C48.241 132.034 47.8709 131.881 47.598 131.609C47.3252 131.336 47.1719 130.967 47.1719 130.582V111.071C47.1744 110.687 47.3285 110.319 47.6008 110.047C47.8732 109.775 48.2418 109.622 48.6269 109.619H59.7624C60.1483 109.619 60.5183 109.772 60.7912 110.044C61.0641 110.317 61.2174 110.686 61.2174 111.071V130.582C61.2174 130.775 61.1788 130.966 61.1039 131.144C61.029 131.322 60.9192 131.484 60.781 131.619C60.6428 131.754 60.4789 131.861 60.299 131.932C60.1191 132.003 59.9258 132.038 59.7323 132.034ZM50.0334 129.129H58.3268V112.524H50.1012L50.0334 129.129Z" fill="#015467"/>
  <path d="M83.4761 132.034H71.6034C71.2175 132.034 70.8475 131.881 70.5746 131.609C70.3017 131.336 70.1484 130.967 70.1484 130.582V111.071C70.1484 110.686 70.3017 110.317 70.5746 110.044C70.8475 109.772 71.2175 109.619 71.6034 109.619H83.4761C83.862 109.619 84.2321 109.772 84.505 110.044C84.7778 110.317 84.9311 110.686 84.9311 111.071V130.582C84.9311 130.967 84.7778 131.336 84.505 131.609C84.2321 131.881 83.862 132.034 83.4761 132.034ZM73.0584 129.129H82.0211V112.524H73.0584V129.129Z" fill="#015467"/>
  <path d="M118.348 132.034H107.213C106.827 132.034 106.457 131.881 106.184 131.609C105.911 131.336 105.758 130.967 105.758 130.582V111.071C105.76 110.687 105.914 110.319 106.187 110.047C106.459 109.775 106.828 109.622 107.213 109.619H118.348C118.734 109.619 119.104 109.772 119.377 110.044C119.65 110.317 119.803 110.686 119.803 111.071V130.582C119.803 130.967 119.65 131.336 119.377 131.609C119.104 131.881 118.734 132.034 118.348 132.034ZM108.648 129.129H116.874V112.524H108.668L108.648 129.129Z" fill="#015467"/>
  <path d="M107.216 132.034H95.3534C94.9675 132.034 94.5975 131.881 94.3246 131.609C94.0517 131.336 93.8984 130.967 93.8984 130.582V111.071C93.8984 110.686 94.0517 110.317 94.3246 110.044C94.5975 109.772 94.9675 109.619 95.3534 109.619H107.216C107.602 109.619 107.972 109.772 108.245 110.044C108.518 110.317 108.671 110.686 108.671 111.071V130.582C108.671 130.967 108.518 131.336 108.245 131.609C107.972 131.881 107.602 132.034 107.216 132.034ZM96.8084 129.129H105.761V112.524H96.8084V129.129Z" fill="#015467"/>
  <path d="M95.3511 132.034H83.4784C83.0925 132.034 82.7225 131.881 82.4496 131.609C82.1767 131.336 82.0234 130.967 82.0234 130.582V111.071C82.0234 110.686 82.1767 110.317 82.4496 110.044C82.7225 109.772 83.0925 109.619 83.4784 109.619H95.3511C95.7362 109.622 96.1049 109.775 96.3772 110.047C96.6495 110.319 96.8036 110.687 96.8061 111.071V130.582C96.8061 130.773 96.7685 130.961 96.6954 131.138C96.6223 131.314 96.5151 131.474 96.38 131.609C96.2449 131.744 96.0845 131.851 95.9079 131.924C95.7314 131.997 95.5422 132.034 95.3511 132.034ZM84.9334 129.129H93.8962V112.524H84.9334V129.129Z" fill="#015467"/>
  <path d="M71.605 160.171H59.7323C59.3464 160.171 58.9764 160.018 58.7035 159.745C58.4306 159.473 58.2773 159.104 58.2773 158.718V139.218C58.2773 138.832 58.4306 138.463 58.7035 138.191C58.9764 137.918 59.3464 137.765 59.7323 137.765H71.605C71.9909 137.765 72.361 137.918 72.6339 138.191C72.9067 138.463 73.06 138.832 73.06 139.218V158.718C73.06 159.104 72.9067 159.473 72.6339 159.745C72.361 160.018 71.9909 160.171 71.605 160.171ZM61.1873 157.266H70.1501V140.67H61.2358L61.1873 157.266Z" fill="#015467"/>
  <path d="M59.7323 160.171H48.6269C48.241 160.171 47.8709 160.018 47.598 159.745C47.3252 159.473 47.1719 159.104 47.1719 158.718V139.218C47.1719 138.832 47.3252 138.463 47.598 138.191C47.8709 137.918 48.241 137.765 48.6269 137.765H59.7624C60.1483 137.765 60.5183 137.918 60.7912 138.191C61.0641 138.463 61.2174 138.832 61.2174 139.218V158.718C61.2174 158.912 61.1788 159.103 61.1039 159.281C61.029 159.459 60.9192 159.62 60.781 159.756C60.6428 159.891 60.4789 159.997 60.299 160.069C60.1191 160.14 59.9258 160.175 59.7323 160.171ZM50.0334 157.266H58.3268V140.67H50.1012L50.0334 157.266Z" fill="#015467"/>
  <path d="M83.4761 160.171H71.6034C71.2175 160.171 70.8475 160.018 70.5746 159.745C70.3017 159.473 70.1484 159.104 70.1484 158.718V139.218C70.1484 138.832 70.3017 138.463 70.5746 138.191C70.8475 137.918 71.2175 137.765 71.6034 137.765H83.4761C83.862 137.765 84.2321 137.918 84.505 138.191C84.7778 138.463 84.9311 138.832 84.9311 139.218V158.718C84.9311 159.104 84.7778 159.473 84.505 159.745C84.2321 160.018 83.862 160.171 83.4761 160.171ZM73.0584 157.266H82.0211V140.67H73.0584V157.266Z" fill="#015467"/>
  <path d="M118.348 160.171H107.213C106.827 160.171 106.457 160.018 106.184 159.745C105.911 159.473 105.758 159.104 105.758 158.718V139.218C105.758 138.832 105.911 138.463 106.184 138.191C106.457 137.918 106.827 137.765 107.213 137.765H118.348C118.734 137.765 119.104 137.918 119.377 138.191C119.65 138.463 119.803 138.832 119.803 139.218V158.718C119.803 159.104 119.65 159.473 119.377 159.745C119.104 160.018 118.734 160.171 118.348 160.171ZM108.648 157.266H116.874V140.67H108.668L108.648 157.266Z" fill="#015467"/>
  <path d="M107.216 160.171H95.3534C94.9675 160.171 94.5975 160.018 94.3246 159.745C94.0517 159.473 93.8984 159.104 93.8984 158.718V139.218C93.8984 138.832 94.0517 138.463 94.3246 138.191C94.5975 137.918 94.9675 137.765 95.3534 137.765H107.216C107.602 137.765 107.972 137.918 108.245 138.191C108.518 138.463 108.671 138.832 108.671 139.218V158.718C108.671 159.104 108.518 159.473 108.245 159.745C107.972 160.018 107.602 160.171 107.216 160.171ZM96.8084 157.266H105.761V140.67H96.8084V157.266Z" fill="#015467"/>
  <path d="M95.3511 160.171H83.4784C83.0925 160.171 82.7225 160.018 82.4496 159.745C82.1767 159.473 82.0234 159.104 82.0234 158.718V139.218C82.0234 138.832 82.1767 138.463 82.4496 138.191C82.7225 137.918 83.0925 137.765 83.4784 137.765H95.3511C95.737 137.765 96.1071 137.918 96.38 138.191C96.6528 138.463 96.8061 138.832 96.8061 139.218V158.718C96.8061 158.909 96.7685 159.098 96.6954 159.274C96.6223 159.45 96.5151 159.61 96.38 159.745C96.2449 159.88 96.0845 159.987 95.9079 160.06C95.7314 160.133 95.5422 160.171 95.3511 160.171ZM84.9334 157.266H93.8962V140.67H84.9334V157.266Z" fill="#015467"/>
  <path d="M198.353 18.027H141.123C140.737 18.027 140.367 17.874 140.094 17.6016C139.821 17.3293 139.668 16.9598 139.668 16.5746V10.7651C139.668 10.5362 139.722 10.3106 139.827 10.1069C139.932 9.90314 140.083 9.72719 140.269 9.59354C148.829 3.35932 159.151 0 169.747 0C180.343 0 190.666 3.35932 199.226 9.59354C199.409 9.72931 199.558 9.90593 199.66 10.1093C199.763 10.3128 199.817 10.5373 199.817 10.7651V16.5746C199.817 16.7662 199.779 16.9559 199.706 17.1327C199.632 17.3095 199.524 17.4701 199.388 17.6051C199.251 17.7401 199.09 17.8468 198.912 17.9193C198.735 17.9917 198.544 18.0283 198.353 18.027ZM142.568 15.1223H196.888V11.472C188.941 5.8753 179.454 2.87078 169.728 2.87078C160.002 2.87078 150.515 5.8753 142.568 11.472V15.1223Z" fill="#015467"/>
  <path d="M188.985 53.9183H182.408C182.022 53.9183 181.652 53.7653 181.379 53.493C181.106 53.2206 180.953 52.8512 180.953 52.466V42.4445C180.953 42.0593 181.106 41.6899 181.379 41.4175C181.652 41.1452 182.022 40.9921 182.408 40.9921H188.985C189.371 40.9921 189.741 41.1452 190.014 41.4175C190.286 41.6899 190.44 42.0593 190.44 42.4445V52.466C190.44 52.8512 190.286 53.2206 190.014 53.493C189.741 53.7653 189.371 53.9183 188.985 53.9183ZM183.863 51.0136H187.53V43.8969H183.863V51.0136Z" fill="#015467"/>
  <path d="M188.985 70.0294H182.408C182.022 70.0294 181.652 69.8764 181.379 69.604C181.106 69.3316 180.953 68.9622 180.953 68.577V58.604C180.953 58.2188 181.106 57.8494 181.379 57.577C181.652 57.3046 182.022 57.1516 182.408 57.1516H188.985C189.371 57.1516 189.741 57.3046 190.014 57.577C190.286 57.8494 190.44 58.2188 190.44 58.604V68.577C190.44 68.9622 190.286 69.3316 190.014 69.604C189.741 69.8764 189.371 70.0294 188.985 70.0294ZM183.863 67.1246H187.53V60.0176H183.863V67.1246Z" fill="#015467"/>
  <path d="M188.985 86.1502H182.408C182.022 86.1502 181.652 85.9971 181.379 85.7247C181.106 85.4524 180.953 85.083 180.953 84.6978V74.686C180.953 74.3008 181.106 73.9314 181.379 73.659C181.652 73.3867 182.022 73.2336 182.408 73.2336H188.985C189.371 73.2336 189.741 73.3867 190.014 73.659C190.286 73.9314 190.44 74.3008 190.44 74.686V84.7462C190.427 85.1229 190.268 85.48 189.997 85.742C189.725 86.004 189.362 86.1504 188.985 86.1502ZM183.863 83.2454H187.53V76.1384H183.863V83.2454Z" fill="#015467"/>
  <path d="M188.985 102.271H182.408C182.022 102.271 181.652 102.118 181.379 101.846C181.106 101.573 180.953 101.204 180.953 100.819V90.807C180.953 90.4218 181.106 90.0524 181.379 89.78C181.652 89.5076 182.022 89.3546 182.408 89.3546H188.985C189.371 89.3546 189.741 89.5076 190.014 89.78C190.286 90.0524 190.44 90.4218 190.44 90.807V100.819C190.44 101.204 190.286 101.573 190.014 101.846C189.741 102.118 189.371 102.271 188.985 102.271ZM183.863 99.3663H187.53V92.2594H183.863V99.3663Z" fill="#015467"/>
  <path d="M188.985 118.392H182.408C182.022 118.392 181.652 118.239 181.379 117.966C181.106 117.694 180.953 117.324 180.953 116.939V106.918C180.953 106.533 181.106 106.163 181.379 105.891C181.652 105.618 182.022 105.465 182.408 105.465H188.985C189.371 105.465 189.741 105.618 190.014 105.891C190.286 106.163 190.44 106.533 190.44 106.918V116.939C190.44 117.324 190.286 117.694 190.014 117.966C189.741 118.239 189.371 118.392 188.985 118.392ZM183.863 115.487H187.53V108.37H183.863V115.487Z" fill="#015467"/>
  <path d="M269.786 18.027H212.557C212.171 18.027 211.801 17.874 211.528 17.6016C211.255 17.3292 211.102 16.9598 211.102 16.5746V10.7651C211.102 10.5362 211.156 10.3105 211.261 10.1068C211.365 9.90311 211.517 9.72716 211.703 9.59351C220.261 3.3601 230.582 0.00118162 241.176 0.00118162C251.771 0.00118162 262.091 3.3601 270.649 9.59351C270.836 9.72716 270.987 9.90311 271.092 10.1068C271.196 10.3105 271.251 10.5362 271.251 10.7651V16.5746C271.251 16.7662 271.213 16.9558 271.139 17.1327C271.065 17.3095 270.957 17.47 270.821 17.605C270.685 17.74 270.524 17.8468 270.346 17.9192C270.168 17.9916 269.978 18.0283 269.786 18.027ZM214.002 15.1222H268.321V11.4719C260.375 5.87527 250.887 2.87075 241.162 2.87075C231.436 2.87075 221.949 5.87527 214.002 11.4719V15.1222Z" fill="#015467"/>
  <path d="M198.353 125.411H141.123C140.737 125.411 140.367 125.258 140.094 124.985C139.821 124.713 139.668 124.343 139.668 123.958V16.5746C139.668 16.1895 139.821 15.8192 140.094 15.5469C140.367 15.2745 140.737 15.1215 141.123 15.1215H198.353C198.738 15.1215 199.108 15.2745 199.381 15.5469C199.654 15.8192 199.807 16.1887 199.807 16.5738V123.91C199.814 124.105 199.781 124.299 199.711 124.48C199.641 124.662 199.535 124.828 199.399 124.968C199.263 125.108 199.101 125.22 198.921 125.296C198.741 125.372 198.548 125.411 198.353 125.411ZM142.568 122.506H196.888V18.0262H142.568V122.506Z" fill="#015467"/>
  <path d="M269.786 183H227.96C227.574 183 227.204 182.847 226.931 182.574C226.658 182.302 226.505 181.933 226.505 181.547V125.411H212.557C212.171 125.411 211.801 125.258 211.528 124.985C211.255 124.713 211.102 124.343 211.102 123.958L211.102 16.5746C211.102 16.1894 211.255 15.8192 211.528 15.5469C211.801 15.2745 212.171 15.1215 212.557 15.1215H269.786C270.172 15.1215 270.542 15.2745 270.815 15.5469C271.088 15.8192 271.241 16.1887 271.241 16.5738V181.567C271.236 181.949 271.08 182.313 270.808 182.581C270.536 182.849 270.169 183 269.786 183ZM229.444 180.095H268.331V18.0262H214.012V122.506H227.999C228.385 122.506 228.755 122.659 229.028 122.931C229.301 123.204 229.454 123.573 229.454 123.958L229.444 180.095Z" fill="#015467"/>
  <path d="M227.957 183H129.6C129.22 182.995 128.858 182.842 128.59 182.575C128.322 182.307 128.169 181.946 128.164 181.567V123.91C128.164 123.525 128.317 123.155 128.59 122.883C128.863 122.611 129.233 122.458 129.619 122.458H227.976C228.362 122.458 228.732 122.611 229.005 122.883C229.278 123.155 229.431 123.525 229.431 123.91V181.567C229.429 181.758 229.389 181.946 229.313 182.121C229.238 182.297 229.128 182.455 228.991 182.588C228.855 182.721 228.693 182.826 228.515 182.897C228.338 182.968 228.148 183.003 227.957 183ZM131.055 180.095H226.502V125.411H131.074L131.055 180.095Z" fill="#015467"/>
  <path d="M325.52 75.8677H292.162C291.776 75.8677 291.406 75.7147 291.133 75.4423C290.86 75.1699 290.707 74.8005 290.707 74.4153V70.2228C290.708 70.0183 290.752 69.8163 290.835 69.6296C290.919 69.4428 291.04 69.2755 291.192 69.1383C301.746 59.7269 315.937 59.7269 326.49 69.1383C326.649 69.272 326.778 69.4378 326.868 69.6246C326.958 69.8115 327.008 70.0154 327.014 70.2228V74.4153C327.014 74.6093 326.975 74.8014 326.9 74.9802C326.824 75.159 326.713 75.3209 326.574 75.4562C326.435 75.5916 326.27 75.6978 326.089 75.7685C325.908 75.8391 325.714 75.8729 325.52 75.8677ZM293.617 72.9629H324.104V70.8812C314.928 63.0674 302.832 63.0674 293.656 70.8812L293.617 72.9629Z" fill="#015467"/>
  <path d="M325.52 183H292.162C291.776 183 291.406 182.847 291.133 182.574C290.86 182.302 290.707 181.932 290.707 181.547V74.4153C290.707 74.0301 290.86 73.6601 291.133 73.3877C291.406 73.1154 291.776 72.9623 292.162 72.9623H325.52C325.906 72.9623 326.276 73.1154 326.549 73.3877C326.822 73.6601 326.975 74.0295 326.975 74.4146V181.567C326.97 181.949 326.814 182.313 326.542 182.581C326.27 182.849 325.903 183 325.52 183ZM293.617 180.095H324.104V75.867H293.617V180.095Z" fill="#015467"/>
  <path d="M260.387 53.9183H253.81C253.425 53.9183 253.054 53.7653 252.782 53.493C252.509 53.2206 252.355 52.8512 252.355 52.466V42.4445C252.355 42.0593 252.509 41.6899 252.782 41.4175C253.054 41.1452 253.425 40.9921 253.81 40.9921H260.387C260.773 40.9921 261.143 41.1452 261.416 41.4175C261.689 41.6899 261.842 42.0593 261.842 42.4445V52.466C261.842 52.8512 261.689 53.2206 261.416 53.493C261.143 53.7653 260.773 53.9183 260.387 53.9183ZM255.265 51.0136H258.932V43.8969H255.236L255.265 51.0136Z" fill="#015467"/>
  <path d="M260.387 70.0294H253.81C253.425 70.0294 253.054 69.8764 252.782 69.604C252.509 69.3316 252.355 68.9622 252.355 68.577V58.604C252.355 58.2188 252.509 57.8494 252.782 57.577C253.054 57.3046 253.425 57.1516 253.81 57.1516H260.387C260.773 57.1516 261.143 57.3046 261.416 57.577C261.689 57.8494 261.842 58.2188 261.842 58.604V68.577C261.842 68.9622 261.689 69.3316 261.416 69.604C261.143 69.8764 260.773 70.0294 260.387 70.0294ZM255.265 67.1246H258.932V60.0176H255.236L255.265 67.1246Z" fill="#015467"/>
  <path d="M260.385 86.1502H253.808C253.426 86.158 253.055 86.015 252.778 85.7523C252.5 85.4895 252.337 85.128 252.324 84.7462V74.686C252.324 74.3008 252.478 73.9314 252.75 73.659C253.023 73.3867 253.393 73.2336 253.779 73.2336H260.356C260.742 73.2336 261.112 73.3867 261.385 73.659C261.657 73.9314 261.811 74.3008 261.811 74.686V84.7462C261.798 85.1179 261.644 85.4708 261.378 85.732C261.113 85.9933 260.757 86.1429 260.385 86.1502ZM255.263 83.2454H258.93V76.1384H255.234L255.263 83.2454Z" fill="#015467"/>
  <path d="M260.387 102.271H253.81C253.425 102.271 253.054 102.118 252.782 101.846C252.509 101.573 252.355 101.204 252.355 100.819V90.807C252.355 90.4218 252.509 90.0524 252.782 89.78C253.054 89.5076 253.425 89.3546 253.81 89.3546H260.387C260.773 89.3546 261.143 89.5076 261.416 89.78C261.689 90.0524 261.842 90.4218 261.842 90.807V100.819C261.842 101.204 261.689 101.573 261.416 101.846C261.143 102.118 260.773 102.271 260.387 102.271ZM255.265 99.3663H258.932V92.2594H255.236L255.265 99.3663Z" fill="#015467"/>
  <path d="M260.387 118.392H253.81C253.425 118.392 253.054 118.239 252.782 117.966C252.509 117.694 252.355 117.324 252.355 116.939V106.918C252.355 106.533 252.509 106.163 252.782 105.891C253.054 105.618 253.425 105.465 253.81 105.465H260.387C260.773 105.465 261.143 105.618 261.416 105.891C261.689 106.163 261.842 106.533 261.842 106.918V116.939C261.842 117.324 261.689 117.694 261.416 117.966C261.143 118.239 260.773 118.392 260.387 118.392ZM255.265 115.487H258.932V108.37H255.236L255.265 115.487Z" fill="#015467"/>
  <path d="M292.165 102.271H269.787C269.401 102.271 269.031 102.118 268.758 101.846C268.485 101.573 268.332 101.204 268.332 100.819V83.3032C268.331 83.1116 268.367 82.9217 268.44 82.7444C268.513 82.567 268.62 82.4058 268.755 82.2699C268.89 82.134 269.051 82.0262 269.228 81.9526C269.405 81.879 269.595 81.8411 269.787 81.8411H292.194C292.58 81.8411 292.95 81.9941 293.223 82.2665C293.496 82.5389 293.649 82.9083 293.649 83.2935V100.819C293.649 101.012 293.61 101.203 293.535 101.381C293.46 101.56 293.351 101.721 293.212 101.856C293.074 101.992 292.91 102.098 292.73 102.169C292.551 102.24 292.358 102.275 292.165 102.271ZM271.213 99.3665H290.71V84.7459H271.213V99.3665Z" fill="#015467"/>
  <path d="M292.165 145.463H269.787C269.401 145.463 269.031 145.31 268.758 145.038C268.485 144.765 268.332 144.396 268.332 144.011V126.505C268.332 126.12 268.485 125.75 268.758 125.478C269.031 125.205 269.401 125.052 269.787 125.052H292.194C292.58 125.052 292.95 125.205 293.223 125.478C293.496 125.75 293.649 126.12 293.649 126.505V144.011C293.649 144.204 293.61 144.395 293.535 144.573C293.46 144.751 293.351 144.913 293.212 145.048C293.074 145.183 292.91 145.29 292.73 145.361C292.551 145.432 292.358 145.467 292.165 145.463ZM271.213 142.558H290.71V127.957H271.213V142.558Z" fill="#015467"/>
  <path d="M212.554 65.0237H198.392C198.007 65.0237 197.637 64.8707 197.364 64.5983C197.091 64.326 196.938 63.9565 196.938 63.5713V52.4655C196.938 52.0803 197.091 51.7108 197.364 51.4385C197.637 51.1661 198.007 51.0131 198.392 51.0131H212.554C212.94 51.0131 213.31 51.1661 213.583 51.4385C213.856 51.7108 214.009 52.0803 214.009 52.4655V63.5713C214.009 63.9565 213.856 64.326 213.583 64.5983C213.31 64.8707 212.94 65.0237 212.554 65.0237ZM199.847 62.119H211.099V53.9179H199.847V62.119Z" fill="#015467"/>
  <path d="M212.554 99.0664H198.392C198.007 99.0664 197.637 98.9133 197.364 98.641C197.091 98.3686 196.938 97.9992 196.938 97.614V86.5081C196.938 86.1229 197.091 85.7535 197.364 85.4811C197.637 85.2088 198.007 85.0557 198.392 85.0557H212.554C212.94 85.0557 213.31 85.2088 213.583 85.4811C213.856 85.7535 214.009 86.1229 214.009 86.5081V97.614C214.009 97.9992 213.856 98.3686 213.583 98.641C213.31 98.9133 212.94 99.0664 212.554 99.0664ZM199.847 96.1616H211.099V87.9605H199.847V96.1616Z" fill="#015467"/>
  <path d="M150.746 150.585H137.709C137.323 150.585 136.953 150.432 136.68 150.159C136.407 149.887 136.254 149.518 136.254 149.132V135.257C136.254 134.872 136.407 134.503 136.68 134.23C136.953 133.958 137.323 133.805 137.709 133.805H150.746C151.131 133.805 151.502 133.958 151.774 134.23C152.047 134.503 152.201 134.872 152.201 135.257V149.113C152.203 149.305 152.167 149.496 152.095 149.675C152.023 149.853 151.917 150.016 151.781 150.153C151.646 150.289 151.485 150.398 151.307 150.472C151.129 150.547 150.938 150.585 150.746 150.585ZM139.164 147.68H149.291V136.71H139.164V147.68Z" fill="#015467"/>
  <path d="M172.709 150.585H159.682C159.296 150.585 158.926 150.432 158.653 150.159C158.38 149.887 158.227 149.518 158.227 149.132V135.257C158.227 134.872 158.38 134.503 158.653 134.23C158.926 133.958 159.296 133.805 159.682 133.805H172.709C173.094 133.805 173.465 133.958 173.737 134.23C174.01 134.503 174.164 134.872 174.164 135.257V149.113C174.166 149.305 174.13 149.496 174.058 149.675C173.986 149.853 173.88 150.016 173.744 150.153C173.609 150.289 173.448 150.398 173.27 150.472C173.092 150.547 172.901 150.585 172.709 150.585ZM161.146 147.68H171.263V136.71H161.146V147.68Z" fill="#015467"/>
  <path d="M194.669 150.585H181.642C181.257 150.585 180.887 150.432 180.614 150.159C180.341 149.887 180.188 149.518 180.188 149.132V135.257C180.188 134.872 180.341 134.503 180.614 134.23C180.887 133.958 181.257 133.805 181.642 133.805H194.669C195.055 133.805 195.425 133.958 195.698 134.23C195.971 134.503 196.124 134.872 196.124 135.257V149.113C196.127 149.305 196.091 149.496 196.019 149.675C195.947 149.853 195.841 150.016 195.705 150.153C195.57 150.289 195.409 150.398 195.231 150.472C195.053 150.547 194.862 150.585 194.669 150.585ZM183.097 147.68H193.214V136.71H183.097V147.68Z" fill="#015467"/>
  <path d="M216.63 150.585H203.603C203.218 150.585 202.847 150.432 202.575 150.159C202.302 149.887 202.148 149.518 202.148 149.132V135.257C202.148 134.872 202.302 134.503 202.575 134.23C202.847 133.958 203.218 133.805 203.603 133.805H216.63C217.016 133.805 217.386 133.958 217.659 134.23C217.932 134.503 218.085 134.872 218.085 135.257V149.113C218.088 149.305 218.052 149.496 217.98 149.675C217.908 149.853 217.802 150.016 217.666 150.153C217.531 150.289 217.37 150.398 217.192 150.472C217.014 150.547 216.823 150.585 216.63 150.585ZM205.058 147.68H215.175V136.71H205.058V147.68Z" fill="#015467"/>
  <path d="M150.746 172.079H137.709C137.323 172.079 136.953 171.926 136.68 171.654C136.407 171.381 136.254 171.012 136.254 170.627V156.761C136.256 156.377 136.411 156.009 136.683 155.737C136.955 155.465 137.324 155.312 137.709 155.309H150.746C151.131 155.312 151.499 155.465 151.772 155.737C152.044 156.009 152.198 156.377 152.201 156.761V170.627C152.201 171.012 152.047 171.381 151.774 171.654C151.502 171.926 151.131 172.079 150.746 172.079ZM139.164 169.174H149.291V158.214H139.164V169.174Z" fill="#015467"/>
  <path d="M172.709 172.079H159.682C159.296 172.079 158.926 171.926 158.653 171.654C158.38 171.381 158.227 171.012 158.227 170.627V156.761C158.227 156.376 158.38 156.007 158.653 155.734C158.926 155.462 159.296 155.309 159.682 155.309H172.709C173.094 155.309 173.465 155.462 173.737 155.734C174.01 156.007 174.164 156.376 174.164 156.761V170.627C174.164 171.012 174.01 171.381 173.737 171.654C173.465 171.926 173.094 172.079 172.709 172.079ZM161.137 169.174H171.254V158.214H161.146L161.137 169.174Z" fill="#015467"/>
  <path d="M194.669 172.079H181.642C181.257 172.079 180.887 171.926 180.614 171.654C180.341 171.381 180.188 171.012 180.188 170.627V156.761C180.188 156.376 180.341 156.007 180.614 155.734C180.887 155.462 181.257 155.309 181.642 155.309H194.669C195.055 155.309 195.425 155.462 195.698 155.734C195.971 156.007 196.124 156.376 196.124 156.761V170.627C196.124 171.012 195.971 171.381 195.698 171.654C195.425 171.926 195.055 172.079 194.669 172.079ZM183.097 169.174H193.214V158.214H183.097V169.174Z" fill="#015467"/>
  <path d="M216.63 172.079H203.603C203.218 172.079 202.847 171.926 202.575 171.654C202.302 171.381 202.148 171.012 202.148 170.627V156.761C202.148 156.376 202.302 156.007 202.575 155.734C202.847 155.462 203.218 155.309 203.603 155.309H216.63C217.016 155.309 217.386 155.462 217.659 155.734C217.932 156.007 218.085 156.376 218.085 156.761V170.627C218.085 171.012 217.932 171.381 217.659 171.654C217.386 171.926 217.016 172.079 216.63 172.079ZM205.058 169.174H215.175V158.214H205.058V169.174Z" fill="#015467"/>
  <path d="M308.846 89.3642H292.162C291.776 89.3642 291.406 89.2112 291.133 88.9389C290.86 88.6665 290.707 88.297 290.707 87.9118C290.707 87.5267 290.86 87.1573 291.133 86.8849C291.406 86.6125 291.776 86.4595 292.162 86.4595H308.846C309.232 86.4595 309.602 86.6125 309.875 86.8849C310.148 87.1573 310.301 87.5267 310.301 87.9118C310.301 88.297 310.148 88.6665 309.875 88.9389C309.602 89.2112 309.232 89.3642 308.846 89.3642Z" fill="#015467"/>
  <path d="M311.494 113.385C311.108 113.385 310.738 113.232 310.465 112.96C310.192 112.688 310.039 112.318 310.039 111.933C310.039 111.548 310.192 111.178 310.465 110.906C310.738 110.634 311.108 110.481 311.494 110.481H325.569C325.955 110.481 326.325 110.634 326.597 110.906C326.87 111.178 327.024 111.548 327.024 111.933C327.024 112.318 326.87 112.688 326.597 112.96C326.325 113.232 325.955 113.385 325.569 113.385H311.494Z" fill="#015467"/>
  <path d="M308.847 102.271H298.963C298.577 102.271 298.207 102.118 297.934 101.845C297.661 101.573 297.508 101.203 297.508 100.818C297.508 100.433 297.661 100.064 297.934 99.7912C298.207 99.5188 298.577 99.3658 298.963 99.3658H308.847C309.233 99.3658 309.603 99.5188 309.876 99.7912C310.149 100.064 310.302 100.433 310.302 100.818C310.302 101.203 310.149 101.573 309.876 101.845C309.603 102.118 309.233 102.271 308.847 102.271Z" fill="#015467"/>
  <path d="M312.869 138.966H293.557C293.171 138.966 292.801 138.813 292.528 138.54C292.255 138.268 292.102 137.899 292.102 137.513C292.102 137.128 292.255 136.759 292.528 136.486C292.801 136.214 293.171 136.061 293.557 136.061H312.869C313.255 136.061 313.625 136.214 313.898 136.486C314.171 136.759 314.324 137.128 314.324 137.513C314.324 137.899 314.171 138.268 313.898 138.54C313.625 138.813 313.255 138.966 312.869 138.966Z" fill="#015467"/>
  <path d="M325.075 162.203H303.9C303.514 162.203 303.144 162.05 302.871 161.777C302.599 161.505 302.445 161.136 302.445 160.75C302.445 160.365 302.599 159.996 302.871 159.723C303.144 159.451 303.514 159.298 303.9 159.298H325.075C325.461 159.298 325.831 159.451 326.104 159.723C326.377 159.996 326.53 160.365 326.53 160.75C326.53 161.136 326.377 161.505 326.104 161.777C325.831 162.05 325.461 162.203 325.075 162.203Z" fill="#015467"/>
  <path d="M83.4771 76.1391C81.8978 76.141 80.3534 75.6753 79.0393 74.8008C77.7253 73.9264 76.7005 72.6825 76.0948 71.2266C75.4891 69.7706 75.3297 68.1681 75.6366 66.6217C75.9435 65.0753 76.7031 63.6545 77.8191 62.5391C78.9352 61.4236 80.3576 60.6637 81.9064 60.3555C83.4553 60.0472 85.0609 60.2044 86.5201 60.8073C87.9794 61.4101 89.2268 62.4315 90.1044 63.7422C90.982 65.0528 91.4504 66.5939 91.4504 68.1704C91.4479 70.2813 90.6073 72.3053 89.1129 73.7989C87.6184 75.2925 85.5919 76.134 83.4771 76.1391ZM83.4771 63.1161C82.4729 63.1142 81.4908 63.4098 80.655 63.9655C79.8193 64.5212 79.1675 65.312 78.7824 66.2377C78.3972 67.1634 78.2959 68.1824 78.4914 69.1656C78.6868 70.1488 79.1702 71.052 79.8802 71.7608C80.5903 72.4696 81.4951 72.9521 82.4801 73.1472C83.4651 73.3423 84.4859 73.2412 85.4133 72.8567C86.3407 72.4722 87.1329 71.8216 87.6896 70.9874C88.2462 70.1531 88.5424 69.1727 88.5405 68.1704C88.5379 66.8307 88.0036 65.5466 87.0546 64.5993C86.1056 63.652 84.8192 63.1186 83.4771 63.1161Z" fill="#015467"/>
  <path d="M150.416 91.3487C150.03 91.3487 149.66 91.1957 149.387 90.9233C149.114 90.651 148.961 90.2816 148.961 89.8964V45.0488C148.961 44.6636 149.114 44.2942 149.387 44.0219C149.66 43.7495 150.03 43.5965 150.416 43.5965C150.802 43.5965 151.172 43.7495 151.445 44.0219C151.718 44.2942 151.871 44.6636 151.871 45.0488V89.8964C151.871 90.2816 151.718 90.651 151.445 90.9233C151.172 91.1957 150.802 91.3487 150.416 91.3487Z" fill="#015467"/>
  <path d="M150.416 113.386C150.03 113.386 149.66 113.233 149.387 112.961C149.114 112.688 148.961 112.319 148.961 111.934V98.8139C148.961 98.4287 149.114 98.0593 149.387 97.7869C149.66 97.5145 150.03 97.3615 150.416 97.3615C150.802 97.3615 151.172 97.5145 151.445 97.7869C151.718 98.0593 151.871 98.4287 151.871 98.8139V111.934C151.871 112.319 151.718 112.688 151.445 112.961C151.172 113.233 150.802 113.386 150.416 113.386Z" fill="#015467"/>
  <path d="M221.74 92.5494C221.354 92.5494 220.984 92.3964 220.711 92.124C220.438 91.8516 220.285 91.4822 220.285 91.097V46.2494C220.285 45.8643 220.438 45.4949 220.711 45.2225C220.984 44.9502 221.354 44.7971 221.74 44.7971C222.126 44.7971 222.496 44.9502 222.769 45.2225C223.042 45.4949 223.195 45.8643 223.195 46.2494V91.097C223.195 91.4822 223.042 91.8516 222.769 92.124C222.496 92.3964 222.126 92.5494 221.74 92.5494Z" fill="#015467"/>
  <path d="M221.74 114.587C221.354 114.587 220.984 114.434 220.711 114.161C220.438 113.889 220.285 113.52 220.285 113.134V100.024C220.285 99.6391 220.438 99.2696 220.711 98.9973C220.984 98.7249 221.354 98.5719 221.74 98.5719C222.126 98.5719 222.496 98.7249 222.769 98.9973C223.042 99.2696 223.195 99.6391 223.195 100.024V113.134C223.195 113.325 223.157 113.514 223.084 113.69C223.011 113.866 222.904 114.027 222.769 114.161C222.634 114.296 222.473 114.403 222.297 114.476C222.12 114.549 221.931 114.587 221.74 114.587Z" fill="#015467"/>
  <path d="M362.544 183H1.45499C1.0691 183 0.699022 182.847 0.426159 182.575C0.153296 182.302 0 181.933 0 181.548C0 181.163 0.153296 180.793 0.426159 180.521C0.699022 180.248 1.0691 180.095 1.45499 180.095H362.544C362.93 180.095 363.3 180.248 363.573 180.521C363.846 180.793 363.999 181.163 363.999 181.548C363.999 181.933 363.846 182.302 363.573 182.575C363.3 182.847 362.93 183 362.544 183Z" fill="#015467"/>
  <path d="M303.22 37.8266H288.107C287.721 37.8266 287.351 37.6735 287.078 37.4012C286.806 37.1288 286.652 36.7594 286.652 36.3742C286.652 35.989 286.806 35.6196 287.078 35.3472C287.351 35.0748 287.721 34.9218 288.107 34.9218H303.22C303.606 34.9218 303.976 35.0748 304.249 35.3472C304.522 35.6196 304.675 35.989 304.675 36.3742C304.675 36.7594 304.522 37.1288 304.249 37.4012C303.976 37.6735 303.606 37.8266 303.22 37.8266Z" fill="#015467"/>
  <path d="M118.349 24.7746H108.494C108.108 24.7746 107.738 24.6216 107.465 24.3492C107.192 24.0769 107.039 23.7074 107.039 23.3222C107.039 22.937 107.192 22.5676 107.465 22.2952C107.738 22.0229 108.108 21.8698 108.494 21.8698H118.349C118.735 21.8698 119.105 22.0229 119.378 22.2952C119.651 22.5676 119.804 22.937 119.804 23.3222C119.804 23.7074 119.651 24.0769 119.378 24.3492C119.105 24.6216 118.735 24.7746 118.349 24.7746Z" fill="#015467"/>
  <path d="M83.4778 33.7503H59.7323C59.3464 33.7503 58.9764 33.5973 58.7035 33.3249C58.4306 33.0525 58.2773 32.6831 58.2773 32.2979C58.2773 31.9127 58.4306 31.5433 58.7035 31.271C58.9764 30.9986 59.3464 30.8455 59.7323 30.8455H83.4778C83.8636 30.8455 84.2337 30.9986 84.5066 31.271C84.7795 31.5433 84.9327 31.9127 84.9327 32.2979C84.9327 32.6831 84.7795 33.0525 84.5066 33.3249C84.2337 33.5973 83.8636 33.7503 83.4778 33.7503Z" fill="#015467"/>
  <path d="M129.601 43.8969H118.35C117.964 43.8969 117.594 43.7439 117.321 43.4715C117.048 43.1991 116.895 42.8297 116.895 42.4445C116.895 42.0593 117.048 41.6899 117.321 41.4175C117.594 41.1452 117.964 40.9921 118.35 40.9921H129.601C129.987 40.9921 130.357 41.1452 130.63 41.4175C130.903 41.6899 131.056 42.0593 131.056 42.4445C131.056 42.8297 130.903 43.1991 130.63 43.4715C130.357 43.7439 129.987 43.8969 129.601 43.8969Z" fill="#015467"/>
</svg>
