<svg width="137" height="202" viewBox="0 0 137 202" fill="none" xmlns="http://www.w3.org/2000/svg">
  <path d="M132.93 187.826L135.774 191.017L136.386 190.483L98.4657 148.008V143.651C98.4655 143.45 98.4204 143.25 98.3335 143.068C98.2466 142.885 98.1202 142.724 97.9632 142.596L81.9565 74.1135C82.1248 73.9816 82.2607 73.8138 82.354 73.6225C82.4474 73.4313 82.4959 73.2216 82.4958 73.0091V64.5141C82.4958 64.1343 82.3434 63.77 82.0722 63.5015C81.801 63.2329 81.4331 63.0821 81.0496 63.0821H80.6329V60.1573H81.981C82.1436 60.1573 82.2995 60.0934 82.4144 59.9796C82.5293 59.8658 82.5939 59.7115 82.5939 59.5505C82.5907 59.3906 82.5251 59.238 82.4109 59.1249C82.2966 59.0118 82.1426 58.9469 81.981 58.9438H80.6329V57.8879H81.981C82.1436 57.8879 82.2995 57.824 82.4144 57.7102C82.5293 57.5964 82.5939 57.4421 82.5939 57.2812C82.5939 57.1202 82.5293 56.9659 82.4144 56.8521C82.2995 56.7383 82.1436 56.6744 81.981 56.6744H80.6329V28.8834C80.6329 28.8106 80.6329 28.7378 80.6329 28.665C80.6329 28.5922 80.6329 28.665 80.6329 28.6043C80.6329 28.5436 80.6329 28.6043 80.6329 28.6043C80.6329 28.6043 80.6329 28.6043 80.6329 28.5194C80.6264 28.4386 80.6264 28.3574 80.6329 28.2766L78.1816 7.46379C78.1446 7.19296 78.0872 6.92523 78.01 6.66282C78.0413 6.54685 78.0453 6.42537 78.022 6.3076C77.9986 6.18983 77.9484 6.07888 77.8752 5.98322C78.3205 5.51251 78.57 4.89276 78.5738 4.24782V2.59735C78.5738 1.92354 78.3044 1.27715 77.8243 0.799555C77.3443 0.321964 76.6928 0.0520367 76.0123 0.0488281H69.3204C68.6378 0.0488281 67.9831 0.317339 67.5004 0.795278C67.0177 1.27322 66.7466 1.92144 66.7466 2.59735V4.24782C66.7504 4.89276 66.9999 5.51251 67.4452 5.98322C67.372 6.07888 67.3218 6.18983 67.2984 6.3076C67.2751 6.42537 67.2791 6.54685 67.3104 6.66282C67.2332 6.92523 67.1758 7.19296 67.1388 7.46379L64.6875 28.2888C64.6814 28.3655 64.6814 28.4426 64.6875 28.5194C64.6835 28.5475 64.6835 28.5761 64.6875 28.6043C64.6817 28.6241 64.6817 28.6452 64.6875 28.665C64.6814 28.7377 64.6814 28.8107 64.6875 28.8834V56.7108H63.3271C63.1646 56.7108 63.0087 56.7747 62.8938 56.8885C62.7788 57.0023 62.7143 57.1566 62.7143 57.3176C62.7143 57.4785 62.7788 57.6328 62.8938 57.7466C63.0087 57.8604 63.1646 57.9244 63.3271 57.9244H64.6875V58.9802H63.3271C63.1667 58.9833 63.0139 59.0487 62.9017 59.1621C62.7894 59.2756 62.7265 59.4281 62.7265 59.5869C62.7249 59.6661 62.7392 59.7447 62.7687 59.8182C62.7981 59.8918 62.8421 59.9588 62.898 60.0153C62.954 60.0718 63.0207 60.1167 63.0944 60.1474C63.1681 60.178 63.2472 60.1938 63.3271 60.1937H64.6875V63.1185H64.2586C63.875 63.1185 63.5071 63.2693 63.2359 63.5379C62.9647 63.8064 62.8123 64.1707 62.8123 64.5505V73.0455C62.8157 73.2912 62.8829 73.5319 63.0074 73.7444C63.1319 73.957 63.3095 74.1342 63.5232 74.2591L47.5901 142.632C47.3708 142.789 47.1921 142.995 47.0686 143.233C46.945 143.472 46.8802 143.736 46.8792 144.003V153.19C46.8792 153.19 21.9133 181.345 16.398 187.17C10.8827 192.996 8.86046 196.551 0.195312 196.551V200.787C7.94124 200.787 11.4098 198.772 19.8053 189.792C26.2765 182.838 40.6408 166.734 46.7689 159.744V199.792L41.8665 199.864V189.258H32.4169V200.046H30.8604V189.209H21.4108V200.326C14.8415 200.556 10.8092 200.762 10.8092 200.762C10.8092 200.762 18.3223 201.175 29.5857 201.454C32.3924 201.539 35.4442 201.612 38.6798 201.673L48.828 201.83C52.3455 201.83 55.9856 201.927 59.6747 201.94H70.8769H82.0914C85.7682 201.94 89.4451 201.867 92.9381 201.83C99.9732 201.745 106.555 201.624 112.18 201.466C123.444 201.175 130.957 200.762 130.957 200.762C130.957 200.762 127.452 200.58 121.642 200.362V194.998H112.193V200.083H110.648V194.998H101.199V199.852H99.201L89.9844 178.615L97.5097 161.261L98.245 193.311L99.0172 159.659L135.381 200.423L137.22 198.821L133.151 194.258L132.93 187.826ZM132.109 193.299L128.984 189.804V183.408L132.109 186.916V193.299ZM105.329 156.892L108.454 160.399V166.782L105.329 163.275V156.892ZM104.52 162.365L101.383 158.858V152.523L104.52 156.03V162.365ZM109.276 161.309L112.401 164.816V171.2L109.276 167.705V161.309ZM113.21 165.726L116.347 169.234V175.581L113.21 172.073V165.726ZM117.156 170.144L120.282 173.651V180.035L117.156 176.527V170.144ZM121.103 174.561L124.228 178.069V184.452L121.103 180.945V174.561ZM125.037 178.979L128.162 182.486V188.93L125.037 185.435V178.979ZM100.525 151.564V157.947L98.4166 155.593V149.198L100.525 151.564ZM80.5838 142.244V74.429H80.7309L96.5782 142.256L80.5838 142.244ZM92.8401 149.962C92.8401 151.358 92.7788 152.765 92.693 153.821C92.6072 154.877 92.5091 155.581 92.5091 155.581C92.5091 155.581 92.3988 154.877 92.313 153.821C92.2273 152.765 92.166 151.394 92.166 149.962C92.166 148.53 92.2273 147.147 92.313 146.091C92.3988 145.035 92.5091 144.343 92.5091 144.343C92.5091 144.343 92.6072 145.047 92.693 146.091C92.7788 147.134 92.8401 148.566 92.8401 149.974V149.962ZM89.3225 149.962C89.3225 151.358 89.2612 152.765 89.1755 153.821C89.0897 154.877 88.9916 155.581 88.9916 155.581C88.9916 155.581 88.8813 154.877 88.7955 153.821C88.7097 152.765 88.6484 151.394 88.6484 149.962C88.6484 148.53 88.7097 147.147 88.7955 146.091C88.8813 145.035 88.9916 144.343 88.9916 144.343C88.9916 144.343 89.0897 145.047 89.1755 146.091C89.2612 147.134 89.3225 148.566 89.3225 149.974V149.962ZM85.805 149.962C85.805 151.358 85.805 152.765 85.6579 153.821C85.5108 154.877 85.4741 155.581 85.4741 155.581C85.4741 155.581 85.3638 154.877 85.278 153.821C85.1922 152.765 85.1309 151.394 85.1309 149.962C85.1309 148.53 85.1309 147.147 85.278 146.091C85.425 145.035 85.4741 144.343 85.4741 144.343C85.4741 144.343 85.5721 145.047 85.6702 146.091C85.7682 147.134 85.805 148.566 85.805 149.974V149.962ZM48.7299 142.244L64.5282 74.6232V142.244H48.7299ZM49.3672 149.962C49.3672 151.358 49.306 152.765 49.2202 153.821C49.1344 154.877 49.0241 155.581 49.0241 155.581C49.0241 155.581 48.926 154.877 48.8402 153.821C48.7544 152.765 48.6932 151.394 48.6932 149.962C48.6932 148.53 48.7544 147.147 48.8402 146.091C48.926 145.035 49.0241 144.343 49.0241 144.343C49.0241 144.343 49.1344 145.047 49.2202 146.091C49.306 147.134 49.3672 148.566 49.3672 149.974V149.962ZM62.7633 149.962C62.7633 148.554 62.7633 147.147 62.8981 146.091C63.0329 145.035 63.0942 144.343 63.0942 144.343C63.0942 144.343 63.2045 145.047 63.2903 146.091C63.3761 147.134 63.4374 148.518 63.4374 149.962C63.4374 151.406 63.4374 152.765 63.2903 153.821C63.1432 154.877 63.0942 155.581 63.0942 155.581C63.0942 155.581 62.9962 154.877 62.8981 153.821C62.8001 152.765 62.7633 151.37 62.7633 149.974V149.962ZM66.7833 142.244L69.59 137.669V142.244H66.7833ZM72.5805 136.176V142.244H70.3989V136.346L72.5805 132.79L73.2669 133.931C72.86 134.623 72.6248 135.401 72.5805 136.2V136.176ZM67.678 97.9724H71.9677V105.958L67.6045 98.9554L67.678 97.9724ZM73.5243 108.518L77.1031 102.681L77.3237 114.708L73.5243 108.518ZM77.4095 117.936V118.64H73.2179V111.091L77.4095 117.936ZM73.2301 105.982V97.9967H77.0663V99.6836L73.2301 105.982ZM77.0295 96.3826H73.2301V88.3851L76.9928 94.538L77.0295 96.3826ZM72.0045 96.3826H67.7516V95.2904L71.9922 88.3851L72.0045 96.3826ZM67.1878 101.237L67.4084 111.71L67.629 101.941L71.6613 108.531L66.195 117.45V99.6107L67.1878 101.237ZM72.0045 118.628H67.3839L72.0045 111.079V118.628ZM74.039 131.237C74.052 131.467 74.052 131.698 74.039 131.928L73.61 131.237L74.0635 130.508C73.99 130.763 74.0023 130.994 74.0023 131.249L74.039 131.237ZM70.0557 133.809L69.8964 133.518C69.5242 132.908 69.341 132.204 69.3694 131.491C69.2974 130.529 69.5566 129.571 70.1048 128.773L71.6245 131.2L70.0557 133.809ZM71.502 127.948C71.8552 127.863 72.2171 127.818 72.5805 127.814C72.7969 127.801 73.0138 127.801 73.2301 127.814C73.3139 127.942 73.3877 128.076 73.4507 128.215L72.5805 129.647L71.502 127.948ZM71.9677 127.05C71.6591 127.074 71.3546 127.135 71.0608 127.232L66.7833 120.254H71.9677V127.05ZM69.6635 128.057C68.8472 129.01 68.4462 130.246 68.5482 131.491C68.5114 132.345 68.7333 133.191 69.1855 133.919C69.3259 134.168 69.437 134.433 69.5165 134.707L66.1583 140.181V122.341L69.6635 128.057ZM73.1933 127.05V120.254H77.4095V121.746L74.0513 127.232C73.7737 127.135 73.4858 127.07 73.1933 127.038V127.05ZM77.7527 120.254H78.3655L77.7404 121.273L77.7527 120.254ZM78.0591 101.091L78.966 99.6229V117.462L77.7404 115.569L78.0591 101.091ZM78.1939 93.5064L78.4758 77.7299L78.966 76.929V94.7564L78.1939 93.5064ZM76.8702 91.3341L73.4875 85.8366L76.6741 80.6304L76.8702 91.3341ZM67.7638 92.0623L68.0212 80.0236L71.5878 85.8366L67.7638 92.0623ZM66.9427 93.4094L66.1215 94.7564V76.9047L66.5995 77.7057L66.9427 93.4094ZM71.3549 144.028C71.1326 144.02 70.9165 143.953 70.7298 143.834H72.5805V146.722L71.6368 144.04L71.3549 144.028ZM75.9755 133.87C76.4167 133.138 76.6338 132.295 76.6006 131.443C76.7026 130.197 76.3015 128.962 75.4852 128.008L77.4953 124.72L77.5933 129.635L77.6791 124.428L79.0028 122.28V140.12L75.6323 134.647C75.7147 134.387 75.83 134.138 75.9755 133.906V133.87ZM76.6618 77.5722L73.1933 83.2396V75.7033H76.6251L76.6618 77.5722ZM71.9677 83.2396L68.1315 76.9775V75.7033H71.9432L71.9677 83.2396ZM69.7248 143.834C69.8467 144.093 70.0312 144.318 70.2621 144.489C70.4931 144.661 70.7632 144.773 71.0485 144.817L71.6981 146.685L71.9555 151.346L67.3471 143.834H69.7248ZM75.571 137.644L78.3655 142.219H75.571V137.644ZM66.8691 146.139L71.6245 153.894L70.497 155.727H66.8201L66.8691 146.139ZM73.4507 146.661L74.1003 144.792C74.3864 144.751 74.6574 144.64 74.8887 144.468C75.1199 144.296 75.304 144.07 75.424 143.809H77.8752L73.2669 151.321L73.4507 146.661ZM59.9689 149.914C59.9689 151.309 59.9689 152.717 59.8218 153.773C59.6747 154.829 59.6257 155.532 59.6257 155.532C59.6257 155.532 59.5277 154.829 59.4296 153.773C59.3316 152.717 59.2948 151.346 59.2948 149.914C59.2948 148.482 59.2948 147.098 59.4296 146.042C59.5644 144.986 59.6257 144.295 59.6257 144.295C59.6257 144.295 59.736 144.999 59.8218 146.042C59.9076 147.086 59.9199 148.566 59.9199 149.974L59.9689 149.914ZM56.4513 149.914C56.4513 151.309 56.3901 152.717 56.3043 153.773C56.2185 154.829 56.1082 155.532 56.1082 155.532C56.1082 155.532 56.0101 154.829 55.9121 153.773C55.814 152.717 55.7773 151.346 55.7773 149.914C55.7773 148.482 55.7773 147.098 55.9121 146.042C56.0469 144.986 56.1082 144.295 56.1082 144.295C56.1082 144.295 56.2185 144.999 56.3043 146.042C56.3901 147.086 56.4023 148.566 56.4023 149.974L56.4513 149.914ZM52.3945 146.042C52.4926 144.999 52.5906 144.295 52.5906 144.295C52.5906 144.295 52.701 144.999 52.7867 146.042C52.8725 147.086 52.9338 148.469 52.9338 149.914C52.9338 151.358 52.8725 152.717 52.7867 153.773C52.701 154.829 52.5906 155.532 52.5906 155.532C52.5906 155.532 52.4926 154.829 52.4068 153.773C52.321 152.717 52.2597 151.346 52.2597 149.914C52.2597 148.482 52.2597 147.159 52.3455 146.103L52.3945 146.042ZM52.3088 184.221H48.2274V181.649H52.3088V184.221ZM52.3088 194.525H50.4458L51.5734 191.903H52.2842L52.3088 194.525ZM52.3088 166.746L51.3037 164.452H52.3088V166.746ZM52.3088 163.639H50.9606L49.8207 161.018H52.272L52.3088 163.639ZM48.2274 161.212L49.2692 163.639H48.2274V161.212ZM48.2274 164.428H49.6246L50.7645 167.037H48.2274V164.428ZM48.2274 167.862H51.1076L52.2475 170.472H48.2274V167.862ZM48.2274 171.285H52.3088V173.906H48.2274V171.285ZM48.2274 188.445H51.4018L50.2742 191.066H48.2274V188.445ZM48.2274 191.879H49.9188L48.779 194.5H48.2274V191.879ZM51.9043 191.066L52.2597 190.253V191.066H51.9043ZM52.2597 186.369L51.7082 187.583H48.1784V184.962H52.2597V186.369ZM52.2597 180.775H48.1784V178.153H52.2597V180.775ZM52.2597 177.34H48.1784V174.719H52.2597V177.34ZM52.2597 159.137V160.18H49.4163L48.9628 159.137H52.2597ZM48.1784 195.313H48.3745L48.1784 195.763V195.313ZM50.0659 195.313H52.2597V197.923H48.926L50.0659 195.313ZM53.8898 174.367L55.6792 178.493L53.8898 182.607V174.367ZM53.8898 170.484V159.137H62.1137V163.663L56.5739 176.637L53.8898 170.484ZM62.1137 167.547V189.391L57.3583 178.469L62.1137 167.547ZM83.0351 166.891L88.0724 178.493L83.0351 190.144V166.891ZM74.6518 155.702L73.5243 153.87L78.2797 146.115V155.702H74.6518ZM81.6134 149.889C81.6134 148.482 81.6134 147.074 81.7604 146.018C81.9075 144.962 81.9565 144.27 81.9565 144.27C81.9565 144.27 82.0546 144.974 82.1526 146.018C82.2507 147.062 82.2874 148.445 82.2874 149.889C82.2874 151.333 82.2874 152.693 82.1526 153.748C82.0178 154.804 81.9565 155.508 81.9565 155.508C81.9565 155.508 81.8462 154.804 81.7604 153.748C81.6746 152.693 81.6134 151.37 81.6134 149.974V149.889ZM95.8306 146.018C95.9164 144.974 96.0144 144.27 96.0144 144.27C96.0144 144.27 96.1247 144.974 96.2105 146.018C96.2963 147.062 96.3576 148.445 96.3576 149.889C96.3576 151.333 96.2963 152.693 96.2105 153.748C96.1247 154.804 96.0144 155.508 96.0144 155.508C96.0144 155.508 95.9164 154.804 95.8306 153.748C95.7448 152.693 95.6835 151.321 95.6835 149.889C95.6835 148.457 95.7938 147.159 95.7938 146.103L95.8306 146.018ZM79.0028 63.1185H73.5243L75.3259 60.1937H79.0028V63.1185ZM79.0028 49.3686L73.5243 40.5217L79.0028 31.6747V49.3686ZM72.5805 38.9804L66.6608 29.4053H78.5003L72.5805 38.9804ZM71.6245 40.5217L66.1583 49.3686V31.6747L71.6245 40.5217ZM66.575 51.7958L72.5805 42.0872L78.5861 51.7958L78.5248 51.8929H66.624L66.575 51.7958ZM66.6853 27.8155L72.5805 16.7719L78.4635 27.8155H66.6853ZM77.532 53.5069L75.5465 56.7351H69.6023L67.6045 53.4827L77.532 53.5069ZM74.8112 57.9486L74.1616 59.0044H70.9872L70.3376 57.9486H74.8112ZM73.414 60.218L72.5805 61.5894L71.7348 60.218H73.414ZM79.0028 59.0044H76.0613L76.7109 57.9486H79.0028V59.0044ZM77.4095 56.7108L79.0028 54.2229V56.7351L77.4095 56.7108ZM78.439 24.3932L73.4507 15.0244L76.6006 9.08998L78.439 24.3932ZM69.1855 6.73563H76.0245L72.5315 13.3132L69.0262 6.73563H69.1855ZM69.8351 1.23813C70.5828 1.17745 71.5633 1.14104 72.556 1.14104C73.5488 1.14104 74.5293 1.14104 75.2646 1.23813C76 1.33522 76.4903 1.34735 76.4903 1.34735C76.4903 1.34735 76 1.42017 75.2646 1.46871C74.5293 1.51725 73.5365 1.5658 72.556 1.5658C71.5755 1.5658 70.5828 1.5658 69.8351 1.46871C69.0875 1.37163 68.6095 1.34735 68.6095 1.34735C68.6095 1.34735 69.1488 1.28667 69.8842 1.23813H69.8351ZM69.2101 2.13618C70.117 2.13618 71.3304 2.03909 72.556 2.03909C73.7816 2.03909 75.0073 2.0391 75.902 2.13618C76.7967 2.23327 77.4217 2.26968 77.4217 2.26968C77.4217 2.26968 76.8089 2.35463 75.902 2.40317C74.995 2.45172 73.7694 2.51239 72.556 2.51239C71.3426 2.51239 70.1048 2.51239 69.2101 2.40317C68.3154 2.29395 67.6903 2.26968 67.6903 2.26968C67.6903 2.26968 68.3399 2.19686 69.2591 2.13618H69.2101ZM68.4502 9.08998L71.6123 15.0244L66.6118 24.3932L68.4502 9.08998ZM66.1583 54.2229L67.6903 56.7351H66.1583V54.2229ZM66.1583 57.9486H68.4379L69.0875 59.0044H66.1583V57.9486ZM66.1583 60.218H69.8351L71.6368 63.1427H66.1705L66.1583 60.218ZM65.043 64.7325C65.4964 64.7325 66.1338 64.6233 66.9182 64.5748C68.4624 64.4777 70.5337 64.4049 72.605 64.4049C74.6763 64.4049 76.7354 64.4777 78.2919 64.5748C79.0641 64.5748 79.7136 64.6961 80.1671 64.7325L80.878 64.8053L80.1671 64.8903C79.7136 64.8903 79.0641 64.9995 78.2919 65.048C76.7354 65.1451 74.6151 65.2058 72.605 65.2179C70.595 65.2301 68.4624 65.1451 66.9182 65.0359C66.1338 65.0359 65.4964 64.9267 65.043 64.8903L64.3321 64.8053L65.043 64.7325ZM65.043 66.298C65.4964 66.298 66.1338 66.1888 66.9182 66.1403C68.4624 66.0432 70.5337 65.9704 72.605 65.9704C74.6763 65.9704 76.7354 66.0432 78.2919 66.1403C79.0641 66.1403 79.7136 66.2616 80.1671 66.298L80.878 66.3708L80.1671 66.4558C79.7136 66.4558 79.0641 66.565 78.2919 66.6014C76.7354 66.7106 74.6151 66.7713 72.605 66.7835C70.595 66.7956 68.4624 66.7106 66.9182 66.6014C66.1338 66.6014 65.4964 66.4922 65.043 66.4558L64.3321 66.3708L65.043 66.298ZM44.4403 157.377C43.3004 158.688 41.7194 160.593 39.7706 162.85C37.8219 165.108 35.5545 167.705 33.091 170.52L25.3573 179.258C22.6977 182.195 20.0259 185.144 17.4888 187.874C16.2142 189.233 14.9886 190.532 13.812 191.77C12.6981 192.965 11.4664 194.046 10.1351 194.998C9.00397 195.793 7.7316 196.369 6.38471 196.697C5.78415 196.867 5.15908 196.928 4.69334 197.025C4.22761 197.122 3.68834 197.134 3.24712 197.158C2.37693 197.158 1.69057 197.158 1.21258 197.158H0.501718H1.21258C1.67832 197.158 2.36466 197.085 3.23485 197C3.66382 197 4.14181 196.879 4.65657 196.806C5.21047 196.7 5.7586 196.566 6.2989 196.406C7.5843 196.029 8.7919 195.429 9.86547 194.634C11.1246 193.663 12.2825 192.569 13.3217 191.369C14.4493 190.156 15.6749 188.76 16.925 187.401C19.3763 184.658 22.0727 181.697 24.72 178.736L32.5272 170.071L39.3907 162.559L44.2932 157.28L46.1684 155.29L44.4403 157.377ZM48.1784 199.682L48.5706 198.784H52.2475V199.634H48.5706L48.1784 199.682ZM53.8898 199.682V186.588L56.5249 180.52L62.1137 193.396V199.61H59.4664C57.5912 199.622 55.7282 199.646 53.8898 199.67V199.682ZM97.2768 199.804L92.7298 199.743C89.5799 199.743 86.332 199.658 83.0351 199.646V194.076L88.9181 180.532L97.2768 199.804ZM83.0351 163.105V159.234H96.5169L88.9671 176.649L83.0351 163.105Z" fill="#015467"/>
</svg>
