<svg width="339" height="206" viewBox="0 0 339 206" fill="none" xmlns="http://www.w3.org/2000/svg">
  <path d="M322.017 197.788C316.562 197.788 312.123 192.365 312.123 185.705C312.123 179.045 316.544 173.631 322.017 173.631C327.49 173.631 331.902 179.045 331.902 185.705C331.902 192.365 327.473 197.788 322.017 197.788ZM322.017 176.302C318.021 176.302 314.776 180.523 314.776 185.705C314.776 190.887 318.021 195.117 322.017 195.117C326.014 195.117 329.25 190.896 329.25 185.705C329.25 180.514 326.005 176.302 322.017 176.302Z" fill="#015467"/>
  <path d="M322.045 206C321.693 206 321.356 205.859 321.107 205.609C320.859 205.358 320.719 205.018 320.719 204.664V180.142C320.719 179.788 320.859 179.448 321.107 179.198C321.356 178.947 321.693 178.806 322.045 178.806C322.397 178.806 322.734 178.947 322.983 179.198C323.232 179.448 323.371 179.788 323.371 180.142V204.664C323.371 205.018 323.232 205.358 322.983 205.609C322.734 205.859 322.397 206 322.045 206Z" fill="#015467"/>
  <path d="M322.04 191.582C320.765 191.58 319.543 191.069 318.642 190.161C317.74 189.253 317.233 188.023 317.23 186.739V185.973C317.23 185.619 317.37 185.279 317.619 185.028C317.868 184.778 318.205 184.637 318.557 184.637C318.909 184.637 319.246 184.778 319.495 185.028C319.743 185.279 319.883 185.619 319.883 185.973V186.739C319.883 187.315 320.11 187.867 320.515 188.275C320.919 188.682 321.468 188.911 322.04 188.911C322.613 188.911 323.161 188.682 323.566 188.275C323.971 187.867 324.198 187.315 324.198 186.739V185.973C324.198 185.619 324.338 185.279 324.586 185.028C324.835 184.778 325.172 184.637 325.524 184.637C325.876 184.637 326.213 184.778 326.462 185.028C326.711 185.279 326.85 185.619 326.85 185.973V186.739C326.848 188.023 326.341 189.253 325.439 190.161C324.538 191.069 323.315 191.58 322.04 191.582Z" fill="#015467"/>
  <path d="M274.78 105.23H225.513C225.316 105.231 225.122 105.187 224.944 105.103C224.767 105.018 224.61 104.894 224.487 104.74C224.361 104.585 224.272 104.404 224.224 104.21C224.177 104.016 224.173 103.814 224.213 103.618L227.157 89.3713C227.222 89.072 227.386 88.8039 227.622 88.6112C227.858 88.4185 228.153 88.3129 228.457 88.3117H271.783C272.101 88.3026 272.412 88.4091 272.659 88.6118C272.905 88.8146 273.071 89.1 273.127 89.4158L276.071 103.663C276.115 103.857 276.114 104.06 276.068 104.254C276.022 104.449 275.932 104.63 275.806 104.784C275.677 104.929 275.519 105.044 275.342 105.121C275.165 105.198 274.973 105.235 274.78 105.23ZM227.14 102.558H273.118L270.722 90.983H229.536L227.14 102.558Z" fill="#015467"/>
  <path d="M261.857 205.996H235.994C235.643 205.996 235.305 205.855 235.056 205.605C234.808 205.354 234.668 205.015 234.668 204.66V172.605C234.668 172.353 234.738 172.107 234.872 171.893C235.005 171.68 235.195 171.509 235.421 171.4C235.646 171.291 235.898 171.249 236.147 171.278C236.395 171.307 236.63 171.406 236.825 171.564L262.715 192.453C262.872 192.576 262.999 192.734 263.086 192.915C263.174 193.095 263.219 193.294 263.219 193.495V204.705C263.207 205.058 263.057 205.391 262.802 205.633C262.547 205.875 262.207 206.006 261.857 205.996ZM237.285 203.325H260.531V194.091L237.285 175.339V203.325Z" fill="#015467"/>
  <path d="M261.855 178.058C261.553 178.06 261.259 177.956 261.024 177.764L235.109 156.875C234.955 156.748 234.831 156.589 234.746 156.409C234.66 156.229 234.615 156.033 234.613 155.833V135.069H219.308C219.11 135.07 218.915 135.026 218.736 134.942C218.557 134.857 218.399 134.733 218.273 134.579C218.149 134.425 218.061 134.246 218.015 134.053C217.969 133.86 217.967 133.659 218.008 133.466L224.198 103.69C224.198 103.69 224.198 103.61 224.198 103.601C224.264 103.306 224.427 103.042 224.662 102.853C224.897 102.664 225.188 102.56 225.489 102.559H274.756C275.056 102.56 275.348 102.664 275.582 102.853C275.817 103.042 275.981 103.306 276.047 103.601C276.043 103.643 276.043 103.684 276.047 103.726L290.07 171.291C290.109 171.485 290.105 171.685 290.058 171.878C290.011 172.07 289.922 172.249 289.798 172.403C289.673 172.556 289.517 172.68 289.339 172.765C289.161 172.849 288.967 172.893 288.77 172.893H263.129V176.722C263.126 177.076 262.986 177.414 262.738 177.664C262.489 177.914 262.153 178.056 261.802 178.058H261.855ZM237.284 155.192L260.529 173.935V171.558C260.529 171.204 260.669 170.864 260.918 170.613C261.166 170.363 261.504 170.222 261.855 170.222H287.188L273.704 105.222H226.594L220.953 132.388H235.984C236.336 132.388 236.673 132.529 236.922 132.78C237.17 133.03 237.31 133.37 237.31 133.724L237.284 155.192Z" fill="#015467"/>
  <path d="M261.853 194.788C261.551 194.79 261.257 194.686 261.022 194.495L235.107 173.605C234.952 173.48 234.828 173.321 234.742 173.141C234.657 172.961 234.612 172.763 234.611 172.564V155.833C234.611 155.581 234.682 155.334 234.815 155.121C234.948 154.907 235.139 154.736 235.364 154.627C235.59 154.518 235.841 154.476 236.09 154.505C236.338 154.534 236.574 154.633 236.769 154.791L262.658 175.68C262.815 175.804 262.943 175.962 263.03 176.142C263.117 176.323 263.162 176.521 263.162 176.722V193.453C263.16 193.806 263.019 194.145 262.771 194.395C262.523 194.645 262.187 194.786 261.836 194.788H261.853ZM237.282 171.923L260.527 190.675V177.318L237.282 158.566V171.923Z" fill="#015467"/>
  <path d="M235.993 205.997H195.258C194.906 205.997 194.569 205.856 194.32 205.606C194.071 205.355 193.932 205.016 193.932 204.662V133.731C193.932 133.377 194.071 133.037 194.32 132.787C194.569 132.536 194.906 132.395 195.258 132.395H235.993C236.344 132.395 236.682 132.536 236.931 132.787C237.179 133.037 237.319 133.377 237.319 133.731V204.662C237.319 205.016 237.179 205.355 236.931 205.606C236.682 205.856 236.344 205.997 235.993 205.997ZM196.584 203.326H234.666V135.067H196.584V203.326Z" fill="#015467"/>
  <path d="M300.537 205.996H261.871C261.519 205.996 261.182 205.855 260.933 205.604C260.685 205.354 260.545 205.014 260.545 204.66V171.554C260.545 171.2 260.685 170.86 260.933 170.61C261.182 170.36 261.519 170.219 261.871 170.219H300.537C300.889 170.219 301.226 170.36 301.475 170.61C301.724 170.86 301.863 171.2 301.863 171.554V204.66C301.863 205.014 301.724 205.354 301.475 205.604C301.226 205.855 300.889 205.996 300.537 205.996ZM263.198 203.325H299.211V172.89H263.198V203.325Z" fill="#015467"/>
  <path d="M228.075 156.518H220.709C220.357 156.518 220.02 156.377 219.771 156.127C219.523 155.876 219.383 155.536 219.383 155.182V140.268C219.383 139.913 219.523 139.574 219.771 139.323C220.02 139.073 220.357 138.932 220.709 138.932H228.075C228.426 138.932 228.764 139.073 229.012 139.323C229.261 139.574 229.401 139.913 229.401 140.268V155.182C229.398 155.536 229.258 155.874 229.01 156.124C228.762 156.374 228.426 156.515 228.075 156.518ZM222.035 153.846H226.748V141.603H222.035V153.846Z" fill="#015467"/>
  <path d="M210.465 156.518H203.1C202.748 156.518 202.411 156.377 202.162 156.127C201.913 155.876 201.773 155.536 201.773 155.182V140.268C201.773 139.913 201.913 139.574 202.162 139.323C202.411 139.073 202.748 138.932 203.1 138.932H210.465C210.817 138.932 211.154 139.073 211.403 139.323C211.652 139.574 211.791 139.913 211.791 140.268V155.182C211.791 155.536 211.652 155.876 211.403 156.127C211.154 156.377 210.817 156.518 210.465 156.518ZM204.426 153.846H209.139V141.603H204.426V153.846Z" fill="#015467"/>
  <path d="M228.075 177.057H220.709C220.357 177.057 220.02 176.916 219.771 176.666C219.523 176.415 219.383 176.076 219.383 175.722V160.816C219.383 160.462 219.523 160.122 219.771 159.872C220.02 159.621 220.357 159.48 220.709 159.48H228.075C228.426 159.48 228.764 159.621 229.012 159.872C229.261 160.122 229.401 160.462 229.401 160.816V175.722C229.401 176.076 229.261 176.415 229.012 176.666C228.764 176.916 228.426 177.057 228.075 177.057ZM222.035 174.386H226.748V162.152H222.035V174.386Z" fill="#015467"/>
  <path d="M210.465 177.057H203.1C202.748 177.057 202.411 176.916 202.162 176.666C201.913 176.415 201.773 176.076 201.773 175.722V160.816C201.773 160.462 201.913 160.122 202.162 159.872C202.411 159.621 202.748 159.48 203.1 159.48H210.465C210.817 159.48 211.154 159.621 211.403 159.872C211.652 160.122 211.791 160.462 211.791 160.816V175.722C211.791 176.076 211.652 176.415 211.403 176.666C211.154 176.916 210.817 177.057 210.465 177.057ZM204.426 174.386H209.139V162.152H204.426V174.386Z" fill="#015467"/>
  <path d="M228.075 197.611H220.709C220.357 197.611 220.02 197.47 219.771 197.22C219.523 196.97 219.383 196.63 219.383 196.276V181.37C219.383 181.016 219.523 180.676 219.771 180.426C220.02 180.175 220.357 180.034 220.709 180.034H228.075C228.426 180.034 228.764 180.175 229.012 180.426C229.261 180.676 229.401 181.016 229.401 181.37V196.267C229.402 196.443 229.368 196.618 229.302 196.781C229.236 196.944 229.139 197.092 229.015 197.217C228.892 197.342 228.746 197.441 228.584 197.509C228.423 197.576 228.249 197.611 228.075 197.611ZM222.035 194.94H226.748V182.706H222.035V194.94Z" fill="#015467"/>
  <path d="M210.465 197.611H203.1C202.748 197.611 202.411 197.47 202.162 197.22C201.913 196.97 201.773 196.63 201.773 196.276V181.37C201.773 181.016 201.913 180.676 202.162 180.426C202.411 180.175 202.748 180.034 203.1 180.034H210.465C210.817 180.034 211.154 180.175 211.403 180.426C211.652 180.676 211.791 181.016 211.791 181.37V196.267C211.792 196.443 211.759 196.618 211.693 196.781C211.627 196.944 211.529 197.092 211.406 197.217C211.283 197.342 211.136 197.441 210.975 197.509C210.813 197.576 210.64 197.611 210.465 197.611ZM204.426 194.94H209.139V182.706H204.426V194.94Z" fill="#015467"/>
  <path d="M207.617 135.067H198.58C198.228 135.067 197.891 134.926 197.642 134.676C197.394 134.425 197.254 134.085 197.254 133.731V109.004C197.254 108.65 197.394 108.31 197.642 108.06C197.891 107.809 198.228 107.669 198.58 107.669H207.617C207.968 107.669 208.306 107.809 208.555 108.06C208.803 108.31 208.943 108.65 208.943 109.004V133.758C208.936 134.107 208.793 134.44 208.545 134.685C208.297 134.93 207.964 135.067 207.617 135.067ZM199.906 132.396H206.29V110.313H199.906V132.396Z" fill="#015467"/>
  <path d="M288.824 197.466H274.783C274.432 197.466 274.094 197.325 273.845 197.075C273.597 196.824 273.457 196.485 273.457 196.13V182.017C273.457 181.663 273.597 181.323 273.845 181.073C274.094 180.822 274.432 180.682 274.783 180.682H288.824C289.176 180.682 289.513 180.822 289.762 181.073C290.011 181.323 290.151 181.663 290.151 182.017V196.157C290.144 196.507 290.001 196.839 289.753 197.084C289.505 197.329 289.172 197.466 288.824 197.466ZM276.11 194.795H287.498V183.326H276.11V194.795Z" fill="#015467"/>
  <path d="M300.537 177.006H261.871C261.519 177.006 261.182 176.865 260.933 176.615C260.685 176.364 260.545 176.025 260.545 175.67C260.545 175.316 260.685 174.976 260.933 174.726C261.182 174.475 261.519 174.335 261.871 174.335H300.537C300.889 174.335 301.226 174.475 301.475 174.726C301.724 174.976 301.863 175.316 301.863 175.67C301.863 176.025 301.724 176.364 301.475 176.615C301.226 176.865 300.889 177.006 300.537 177.006Z" fill="#015467"/>
  <path d="M273.129 97.3489H257.213C256.861 97.3489 256.524 97.2082 256.275 96.9577C256.026 96.7072 255.887 96.3675 255.887 96.0133C255.887 95.6591 256.026 95.3193 256.275 95.0689C256.524 94.8184 256.861 94.6777 257.213 94.6777H273.129C273.48 94.6777 273.818 94.8184 274.066 95.0689C274.315 95.3193 274.455 95.6591 274.455 96.0133C274.455 96.3675 274.315 96.7072 274.066 96.9577C273.818 97.2082 273.48 97.3489 273.129 97.3489Z" fill="#015467"/>
  <path d="M252.988 97.3489H245.277C244.926 97.3489 244.588 97.2082 244.34 96.9577C244.091 96.7072 243.951 96.3675 243.951 96.0133C243.951 95.6591 244.091 95.3193 244.34 95.0689C244.588 94.8184 244.926 94.6777 245.277 94.6777H252.988C253.339 94.6777 253.677 94.8184 253.925 95.0689C254.174 95.3193 254.314 95.6591 254.314 96.0133C254.314 96.3675 254.174 96.7072 253.925 96.9577C253.677 97.2082 253.339 97.3489 252.988 97.3489Z" fill="#015467"/>
  <path d="M241.534 97.3489H227.149C226.797 97.3489 226.459 97.2082 226.211 96.9577C225.962 96.7072 225.822 96.3675 225.822 96.0133C225.822 95.6591 225.962 95.3193 226.211 95.0689C226.459 94.8184 226.797 94.6777 227.149 94.6777H241.534C241.886 94.6777 242.224 94.8184 242.472 95.0689C242.721 95.3193 242.861 95.6591 242.861 96.0133C242.861 96.3675 242.721 96.7072 242.472 96.9577C242.224 97.2082 241.886 97.3489 241.534 97.3489Z" fill="#015467"/>
  <path d="M232.024 83.8874C231.672 83.8874 231.334 83.7467 231.086 83.4962C230.837 83.2457 230.697 82.906 230.697 82.5518V59.9085C230.697 55.679 233.491 52.242 236.887 52.242H243.076C245.012 52.242 246.613 49.9536 246.613 47.2379C246.613 43.0084 249.407 39.5714 252.846 39.5714H274.429C274.781 39.5714 275.119 39.7121 275.367 39.9626C275.616 40.2131 275.756 40.5528 275.756 40.907C275.756 41.2612 275.616 41.601 275.367 41.8515C275.119 42.1019 274.781 42.2426 274.429 42.2426H252.846C250.91 42.2426 249.265 44.531 249.265 47.2379C249.265 51.4673 246.471 54.9132 243.076 54.9132H236.887C234.941 54.9132 233.35 57.2016 233.35 59.9085V82.5518C233.35 82.906 233.21 83.2457 232.961 83.4962C232.713 83.7467 232.375 83.8874 232.024 83.8874Z" fill="#015467"/>
  <path d="M265.772 82.6944C265.42 82.6944 265.083 82.5537 264.834 82.3033C264.585 82.0528 264.446 81.7131 264.446 81.3588V67.3526C264.429 65.9788 264.954 64.6546 265.905 63.6699C266.857 62.6851 268.157 62.1202 269.521 62.0991H274.269C274.931 62.0805 275.559 61.7982 276.015 61.3141C276.471 60.8301 276.717 60.1839 276.701 59.517C276.684 58.1417 277.21 56.816 278.163 55.831C279.117 54.846 280.419 54.2823 281.785 54.2635H298.31C298.662 54.2635 298.999 54.4042 299.248 54.6547C299.497 54.9052 299.637 55.2449 299.637 55.5992C299.637 55.9534 299.497 56.2931 299.248 56.5436C298.999 56.7941 298.662 56.9348 298.31 56.9348H281.785C281.123 56.9534 280.495 57.2357 280.039 57.7198C279.583 58.2038 279.337 58.8501 279.353 59.517C279.367 60.8916 278.841 62.2158 277.888 63.2003C276.935 64.1848 275.634 64.7493 274.269 64.7704H269.521C268.86 64.7913 268.235 65.0747 267.781 65.5585C267.327 66.0423 267.082 66.6872 267.098 67.3526V81.4034C267.087 81.7498 266.942 82.0782 266.694 82.3191C266.447 82.5601 266.116 82.6946 265.772 82.6944Z" fill="#015467"/>
  <path d="M241.725 81.4003C241.373 81.4003 241.036 81.2596 240.787 81.0091C240.538 80.7586 240.398 80.4189 240.398 80.0647V68.6762C240.398 68.322 240.538 67.9823 240.787 67.7318C241.036 67.4813 241.373 67.3406 241.725 67.3406C242.076 67.3406 242.414 67.4813 242.663 67.7318C242.911 67.9823 243.051 68.322 243.051 68.6762V80.0647C243.051 80.4189 242.911 80.7586 242.663 81.0091C242.414 81.2596 242.076 81.4003 241.725 81.4003Z" fill="#015467"/>
  <path d="M251.094 81.4002C250.742 81.4002 250.405 81.2595 250.156 81.009C249.907 80.7585 249.768 80.4188 249.768 80.0646V59.674C249.768 59.3198 249.907 58.98 250.156 58.7296C250.405 58.4791 250.742 58.3384 251.094 58.3384C251.446 58.3384 251.783 58.4791 252.032 58.7296C252.28 58.98 252.42 59.3198 252.42 59.674V80.0646C252.42 80.4188 252.28 80.7585 252.032 81.009C251.783 81.2595 251.446 81.4002 251.094 81.4002Z" fill="#015467"/>
  <path d="M258.918 81.4002C258.566 81.4002 258.229 81.2595 257.98 81.009C257.732 80.7586 257.592 80.4188 257.592 80.0646V71.4899C257.592 71.1357 257.732 70.7959 257.98 70.5455C258.229 70.295 258.566 70.1543 258.918 70.1543C259.27 70.1543 259.607 70.295 259.856 70.5455C260.105 70.7959 260.244 71.1357 260.244 71.4899V80.0646C260.244 80.4188 260.105 80.7586 259.856 81.009C259.607 81.2595 259.27 81.4002 258.918 81.4002Z" fill="#015467"/>
  <path d="M337.674 205.997H1.32629C0.974537 205.997 0.637182 205.856 0.388454 205.606C0.139726 205.355 0 205.016 0 204.662C0 204.307 0.139726 203.968 0.388454 203.717C0.637182 203.467 0.974537 203.326 1.32629 203.326H337.674C338.025 203.326 338.363 203.467 338.612 203.717C338.86 203.968 339 204.307 339 204.662C339 205.016 338.86 205.355 338.612 205.606C338.363 205.856 338.025 205.997 337.674 205.997Z" fill="#015467"/>
  <path d="M117.23 16.5793H65.0627C64.7109 16.5793 64.3735 16.4386 64.1248 16.1881C63.8761 15.9376 63.7364 15.5979 63.7364 15.2436V9.90115C63.7349 9.68914 63.7839 9.47984 63.8793 9.29084C63.9746 9.10183 64.1136 8.9386 64.2846 8.81481C72.0875 3.08644 81.4946 0 91.1508 0C100.807 0 110.214 3.08644 118.017 8.81481C118.188 8.9386 118.327 9.10183 118.422 9.29084C118.518 9.47984 118.567 9.68914 118.565 9.90115V15.2436C118.565 15.4198 118.531 15.5942 118.463 15.7568C118.396 15.9195 118.298 16.0671 118.174 16.1912C118.049 16.3154 117.902 16.4135 117.74 16.4801C117.578 16.5467 117.405 16.5804 117.23 16.5793ZM66.3801 13.908H115.895V10.5511C108.651 5.4044 100.003 2.64141 91.1375 2.64141C82.2722 2.64141 73.624 5.4044 66.3801 10.5511V13.908Z" fill="#015467"/>
  <path d="M117.23 205.997H65.0626C64.7109 205.997 64.3735 205.857 64.1248 205.606C63.8761 205.356 63.7363 205.016 63.7363 204.662L63.7364 15.2436C63.7364 14.8894 63.8761 14.5497 64.1248 14.2992C64.3735 14.0488 64.7109 13.9081 65.0626 13.9081H117.23C117.582 13.9081 117.919 14.0488 118.168 14.2992C118.417 14.5497 118.556 14.8895 118.556 15.2437V204.662C118.556 205.016 118.417 205.356 118.168 205.606C117.919 205.857 117.582 205.997 117.23 205.997ZM66.3801 203.326H115.895V16.5793H66.3801V203.326Z" fill="#015467"/>
  <path d="M53.638 107.481H23.2306C22.8788 107.481 22.5415 107.341 22.2928 107.09C22.044 106.84 21.9043 106.5 21.9043 106.146V102.29C21.9035 102.102 21.9425 101.915 22.0187 101.744C22.0949 101.572 22.2067 101.418 22.3464 101.293C31.9664 92.629 44.9022 92.629 54.5222 101.293C54.662 101.418 54.7737 101.572 54.8499 101.744C54.9262 101.915 54.9651 102.102 54.9643 102.29V106.146C54.9643 106.5 54.8246 106.84 54.5759 107.09C54.3272 107.341 53.9898 107.481 53.638 107.481ZM24.5569 104.81H52.3118V102.896C43.9473 95.7099 32.9214 95.7099 24.5569 102.896V104.81Z" fill="#015467"/>
  <path d="M53.638 205.997H23.2306C22.8788 205.997 22.5415 205.856 22.2928 205.606C22.044 205.355 21.9043 205.015 21.9043 204.661L21.9043 106.146C21.9043 105.791 22.044 105.452 22.2928 105.201C22.5415 104.951 22.8788 104.81 23.2306 104.81H53.638C53.9898 104.81 54.3271 104.951 54.5759 105.201C54.8246 105.452 54.9643 105.791 54.9643 106.146L54.9643 204.661C54.9643 205.015 54.8246 205.355 54.5759 205.606C54.3271 205.856 53.9898 205.997 53.638 205.997ZM24.5569 203.326H52.3117V107.481H24.5569V203.326Z" fill="#015467"/>
  <path d="M79.5868 87.2874H73.5919C73.2402 87.2874 72.9028 87.1467 72.6541 86.8962C72.4053 86.6457 72.2656 86.306 72.2656 85.9518V76.736C72.2656 76.3817 72.4053 76.042 72.6541 75.7915C72.9028 75.5411 73.2402 75.4003 73.5919 75.4003H79.5868C79.9385 75.4003 80.2759 75.5411 80.5246 75.7915C80.7733 76.042 80.9131 76.3817 80.9131 76.736V85.9518C80.9131 86.306 80.7733 86.6457 80.5246 86.8962C80.2759 87.1467 79.9385 87.2874 79.5868 87.2874ZM74.9182 84.6161H78.2605V78.0716H74.9182V84.6161Z" fill="#015467"/>
  <path d="M79.5868 102.112H73.5919C73.2402 102.112 72.9028 101.972 72.6541 101.721C72.4053 101.471 72.2656 101.131 72.2656 100.777V91.5611C72.2656 91.2068 72.4053 90.8671 72.6541 90.6166C72.9028 90.3662 73.2402 90.2254 73.5919 90.2254H79.5868C79.9385 90.2254 80.2759 90.3662 80.5246 90.6166C80.7733 90.8671 80.9131 91.2068 80.9131 91.5611V100.777C80.9131 101.131 80.7733 101.471 80.5246 101.721C80.2759 101.972 79.9385 102.112 79.5868 102.112ZM74.9182 99.4412H78.2605V92.8967H74.9182V99.4412Z" fill="#015467"/>
  <path d="M79.5868 116.938H73.5919C73.2402 116.938 72.9028 116.797 72.6541 116.546C72.4053 116.296 72.2656 115.956 72.2656 115.602V106.386C72.2656 106.032 72.4053 105.692 72.6541 105.442C72.9028 105.191 73.2402 105.051 73.5919 105.051H79.5868C79.9385 105.051 80.2759 105.191 80.5246 105.442C80.7733 105.692 80.9131 106.032 80.9131 106.386V115.602C80.9131 115.956 80.7733 116.296 80.5246 116.546C80.2759 116.797 79.9385 116.938 79.5868 116.938ZM74.9182 114.266H78.2605V107.722H74.9182V114.266Z" fill="#015467"/>
  <path d="M79.5868 131.756H73.5919C73.2402 131.756 72.9028 131.615 72.6541 131.365C72.4053 131.114 72.2656 130.774 72.2656 130.42V121.213C72.2656 120.859 72.4053 120.519 72.6541 120.269C72.9028 120.018 73.2402 119.878 73.5919 119.878H79.5868C79.9385 119.878 80.2759 120.018 80.5246 120.269C80.7733 120.519 80.9131 120.859 80.9131 121.213V130.42C80.9131 130.774 80.7733 131.114 80.5246 131.365C80.2759 131.615 79.9385 131.756 79.5868 131.756ZM74.9182 129.085H78.2605V122.549H74.9182V129.085Z" fill="#015467"/>
  <path d="M79.5868 146.579H73.5919C73.2402 146.579 72.9028 146.438 72.6541 146.188C72.4053 145.937 72.2656 145.597 72.2656 145.243V136.036C72.2656 135.682 72.4053 135.342 72.6541 135.092C72.9028 134.841 73.2402 134.701 73.5919 134.701H79.5868C79.9385 134.701 80.2759 134.841 80.5246 135.092C80.7733 135.342 80.9131 135.682 80.9131 136.036V145.243C80.9131 145.597 80.7733 145.937 80.5246 146.188C80.2759 146.438 79.9385 146.579 79.5868 146.579ZM74.9182 143.908H78.2605V137.372H74.9182V143.908Z" fill="#015467"/>
  <path d="M65.0479 131.754H53.6329C53.2812 131.754 52.9438 131.613 52.6951 131.363C52.4464 131.112 52.3066 130.772 52.3066 130.418V114.346C52.3066 113.992 52.4464 113.652 52.6951 113.402C52.9438 113.151 53.2812 113.011 53.6329 113.011H65.0479C65.3997 113.011 65.737 113.151 65.9857 113.402C66.2345 113.652 66.3742 113.992 66.3742 114.346V130.445C66.3673 130.794 66.2244 131.127 65.9765 131.372C65.7285 131.617 65.3951 131.754 65.0479 131.754ZM54.9592 129.083H63.7216V115.655H54.9592V129.083Z" fill="#015467"/>
  <path d="M65.0479 171.486H53.6329C53.2812 171.486 52.9438 171.345 52.6951 171.095C52.4464 170.844 52.3066 170.505 52.3066 170.15V154.043C52.3066 153.688 52.4464 153.349 52.6951 153.098C52.9438 152.848 53.2812 152.707 53.6329 152.707H65.0479C65.3997 152.707 65.737 152.848 65.9857 153.098C66.2345 153.349 66.3742 153.688 66.3742 154.043V170.15C66.3742 170.505 66.2345 170.844 65.9857 171.095C65.737 171.345 65.3997 171.486 65.0479 171.486ZM54.9592 168.815H63.7216V155.378H54.9592V168.815Z" fill="#015467"/>
  <path d="M130.14 97.5H117.231C116.879 97.5 116.541 97.3593 116.293 97.1088C116.044 96.8583 115.904 96.5186 115.904 96.1643V85.9513C115.904 85.5971 116.044 85.2573 116.293 85.0069C116.541 84.7564 116.879 84.6157 117.231 84.6157H130.14C130.492 84.6157 130.829 84.7564 131.078 85.0069C131.326 85.2573 131.466 85.5971 131.466 85.9513V96.1643C131.466 96.5186 131.326 96.8583 131.078 97.1088C130.829 97.3593 130.492 97.5 130.14 97.5ZM118.557 94.8287H128.814V87.2869H118.557V94.8287Z" fill="#015467"/>
  <path d="M130.14 128.817H117.231C116.879 128.817 116.541 128.676 116.293 128.426C116.044 128.176 115.904 127.836 115.904 127.482V117.26C115.904 116.905 116.044 116.566 116.293 116.315C116.541 116.065 116.879 115.924 117.231 115.924H130.14C130.492 115.924 130.829 116.065 131.078 116.315C131.326 116.566 131.466 116.905 131.466 117.26V127.482C131.466 127.836 131.326 128.176 131.078 128.426C130.829 128.676 130.492 128.817 130.14 128.817ZM118.557 126.146H128.814V118.595H118.557V126.146Z" fill="#015467"/>
  <path d="M130.14 160.123H117.231C116.879 160.123 116.541 159.982 116.293 159.731C116.044 159.481 115.904 159.141 115.904 158.787V148.574C115.904 148.22 116.044 147.88 116.293 147.629C116.541 147.379 116.879 147.238 117.231 147.238H130.14C130.492 147.238 130.829 147.379 131.078 147.629C131.326 147.88 131.466 148.22 131.466 148.574V158.787C131.466 159.141 131.326 159.481 131.078 159.731C130.829 159.982 130.492 160.123 130.14 160.123ZM118.557 157.451H128.814V149.909H118.557V157.451Z" fill="#015467"/>
  <path d="M195.222 156.517H182.313C181.961 156.517 181.624 156.377 181.375 156.126C181.126 155.876 180.986 155.536 180.986 155.182V140.303C180.986 139.949 181.126 139.609 181.375 139.358C181.624 139.108 181.961 138.967 182.313 138.967H195.222C195.573 138.97 195.909 139.111 196.157 139.361C196.405 139.611 196.546 139.949 196.548 140.303V155.182C196.546 155.535 196.405 155.873 196.157 156.123C195.909 156.373 195.573 156.515 195.222 156.517ZM183.639 153.846H193.896V141.638H183.639V153.846Z" fill="#015467"/>
  <path d="M195.222 197.611H182.313C181.961 197.611 181.624 197.47 181.375 197.22C181.126 196.97 180.986 196.63 180.986 196.276V181.37C180.986 181.016 181.126 180.676 181.375 180.426C181.624 180.175 181.961 180.034 182.313 180.034H195.222C195.574 180.034 195.911 180.175 196.16 180.426C196.408 180.676 196.548 181.016 196.548 181.37V196.267C196.549 196.443 196.516 196.618 196.45 196.781C196.384 196.944 196.286 197.092 196.163 197.217C196.04 197.342 195.893 197.441 195.731 197.509C195.57 197.576 195.397 197.611 195.222 197.611ZM183.639 194.94H193.896V182.706H183.639V194.94Z" fill="#015467"/>
  <path d="M53.635 119.886H38.4357C38.0839 119.886 37.7467 119.745 37.4979 119.495C37.2492 119.244 37.1094 118.904 37.1094 118.55C37.1094 118.196 37.2492 117.856 37.4979 117.606C37.7467 117.355 38.0839 117.214 38.4357 117.214H53.635C53.9868 117.214 54.3241 117.355 54.5729 117.606C54.8216 117.856 54.9613 118.196 54.9613 118.55C54.9613 118.904 54.8216 119.244 54.5729 119.495C54.3241 119.745 53.9868 119.886 53.635 119.886Z" fill="#015467"/>
  <path d="M36.0603 141.949H23.2306C22.8788 141.949 22.5415 141.809 22.2928 141.558C22.044 141.308 21.9043 140.968 21.9043 140.614C21.9043 140.259 22.044 139.92 22.2928 139.669C22.5415 139.419 22.8788 139.278 23.2306 139.278H36.0603C36.412 139.278 36.7494 139.419 36.9981 139.669C37.2468 139.92 37.3865 140.259 37.3865 140.614C37.3865 140.968 37.2468 141.308 36.9981 141.558C36.7494 141.809 36.412 141.949 36.0603 141.949Z" fill="#015467"/>
  <path d="M47.4457 131.752H38.4357C38.0839 131.752 37.7467 131.612 37.4979 131.361C37.2492 131.111 37.1094 130.771 37.1094 130.417C37.1094 130.063 37.2492 129.723 37.4979 129.472C37.7467 129.222 38.0839 129.081 38.4357 129.081H47.4457C47.7974 129.081 48.1348 129.222 48.3835 129.472C48.6322 129.723 48.7719 130.063 48.7719 130.417C48.7719 130.771 48.6322 131.111 48.3835 131.361C48.1348 131.612 47.7974 131.752 47.4457 131.752Z" fill="#015467"/>
  <path d="M52.365 165.491H34.7696C34.4179 165.491 34.0805 165.35 33.8318 165.1C33.5831 164.85 33.4434 164.51 33.4434 164.156C33.4434 163.801 33.5831 163.462 33.8318 163.211C34.0805 162.961 34.4179 162.82 34.7696 162.82H52.365C52.7168 162.82 53.0541 162.961 53.3029 163.211C53.5516 163.462 53.6913 163.801 53.6913 164.156C53.6913 164.51 53.5516 164.85 53.3029 165.1C53.0541 165.35 52.7168 165.491 52.365 165.491Z" fill="#015467"/>
  <path d="M108.818 122.815C108.467 122.815 108.129 122.674 107.881 122.423C107.632 122.173 107.492 121.833 107.492 121.479V80.2438C107.492 79.8896 107.632 79.5498 107.881 79.2993C108.129 79.0489 108.467 78.9082 108.818 78.9082C109.17 78.9082 109.508 79.0489 109.756 79.2993C110.005 79.5498 110.145 79.8896 110.145 80.2438V121.47C110.146 121.646 110.112 121.821 110.046 121.984C109.98 122.147 109.883 122.295 109.759 122.42C109.636 122.545 109.49 122.644 109.328 122.712C109.167 122.78 108.993 122.815 108.818 122.815Z" fill="#015467"/>
  <path d="M108.818 143.079C108.467 143.079 108.129 142.939 107.881 142.688C107.632 142.438 107.492 142.098 107.492 141.744V129.687C107.492 129.333 107.632 128.994 107.881 128.743C108.129 128.493 108.467 128.352 108.818 128.352C109.17 128.352 109.508 128.493 109.756 128.743C110.005 128.994 110.145 129.333 110.145 129.687V141.744C110.145 142.098 110.005 142.438 109.756 142.688C109.508 142.939 109.17 143.079 108.818 143.079Z" fill="#015467"/>
  <path d="M182.316 16.5793H130.149C129.797 16.5793 129.459 16.4386 129.211 16.1881C128.962 15.9376 128.822 15.5979 128.822 15.2436V9.90115C128.821 9.68914 128.87 9.47984 128.965 9.29084C129.061 9.10183 129.2 8.9386 129.37 8.81481C137.173 3.08644 146.58 0 156.237 0C165.893 0 175.3 3.08644 183.103 8.81481C183.274 8.9386 183.413 9.10183 183.508 9.29084C183.603 9.47984 183.653 9.68914 183.651 9.90115V15.2436C183.651 15.4198 183.616 15.5942 183.549 15.7568C183.482 15.9195 183.384 16.0671 183.26 16.1912C183.135 16.3154 182.988 16.4135 182.826 16.4801C182.664 16.5467 182.491 16.5804 182.316 16.5793ZM131.466 13.908H180.981V10.5511C173.738 5.40192 165.089 2.63744 156.223 2.63744C147.357 2.63744 138.709 5.40192 131.466 10.5511V13.908Z" fill="#015467"/>
  <path d="M182.316 205.997H130.149C129.797 205.997 129.459 205.857 129.211 205.606C128.962 205.356 128.822 205.016 128.822 204.662L128.822 15.2436C128.822 14.8894 128.962 14.5497 129.211 14.2992C129.459 14.0488 129.797 13.9081 130.149 13.9081H182.316C182.668 13.9081 183.005 14.0488 183.254 14.2992C183.503 14.5497 183.642 14.8895 183.642 15.2437V204.662C183.642 205.016 183.503 205.356 183.254 205.606C183.005 205.857 182.668 205.997 182.316 205.997ZM131.466 203.326H180.981V16.5793H131.466V203.326Z" fill="#015467"/>
  <path d="M144.673 87.2874H138.678C138.326 87.2874 137.989 87.1467 137.74 86.8962C137.491 86.6457 137.352 86.306 137.352 85.9518V76.736C137.352 76.3817 137.491 76.042 137.74 75.7915C137.989 75.5411 138.326 75.4003 138.678 75.4003H144.673C145.024 75.4003 145.362 75.5411 145.611 75.7915C145.859 76.042 145.999 76.3817 145.999 76.736V85.9518C145.999 86.306 145.859 86.6457 145.611 86.8962C145.362 87.1467 145.024 87.2874 144.673 87.2874ZM140.004 84.6161H143.346V78.0716H140.004V84.6161Z" fill="#015467"/>
  <path d="M144.673 102.112H138.678C138.326 102.112 137.989 101.972 137.74 101.721C137.491 101.471 137.352 101.131 137.352 100.777V91.5611C137.352 91.2068 137.491 90.8671 137.74 90.6166C137.989 90.3662 138.326 90.2254 138.678 90.2254H144.673C145.024 90.2254 145.362 90.3662 145.611 90.6166C145.859 90.8671 145.999 91.2068 145.999 91.5611V100.777C145.999 101.131 145.859 101.471 145.611 101.721C145.362 101.972 145.024 102.112 144.673 102.112ZM140.004 99.4412H143.346V92.8967H140.004V99.4412Z" fill="#015467"/>
  <path d="M144.673 116.938H138.678C138.326 116.938 137.989 116.797 137.74 116.546C137.491 116.296 137.352 115.956 137.352 115.602V106.386C137.352 106.032 137.491 105.692 137.74 105.442C137.989 105.191 138.326 105.051 138.678 105.051H144.673C145.024 105.051 145.362 105.191 145.611 105.442C145.859 105.692 145.999 106.032 145.999 106.386V115.602C145.999 115.956 145.859 116.296 145.611 116.546C145.362 116.797 145.024 116.938 144.673 116.938ZM140.004 114.266H143.346V107.722H140.004V114.266Z" fill="#015467"/>
  <path d="M144.673 131.756H138.678C138.326 131.756 137.989 131.615 137.74 131.365C137.491 131.114 137.352 130.774 137.352 130.42V121.213C137.352 120.859 137.491 120.519 137.74 120.269C137.989 120.018 138.326 119.878 138.678 119.878H144.673C145.024 119.878 145.362 120.018 145.611 120.269C145.859 120.519 145.999 120.859 145.999 121.213V130.42C145.999 130.774 145.859 131.114 145.611 131.365C145.362 131.615 145.024 131.756 144.673 131.756ZM140.004 129.085H143.346V122.549H140.004V129.085Z" fill="#015467"/>
  <path d="M144.673 146.579H138.678C138.326 146.579 137.989 146.438 137.74 146.188C137.491 145.937 137.352 145.597 137.352 145.243V136.036C137.352 135.682 137.491 135.342 137.74 135.092C137.989 134.841 138.326 134.701 138.678 134.701H144.673C145.024 134.701 145.362 134.841 145.611 135.092C145.859 135.342 145.999 135.682 145.999 136.036V145.243C145.999 145.597 145.859 145.937 145.611 146.188C145.362 146.438 145.024 146.579 144.673 146.579ZM140.004 143.908H143.346V137.372H140.004V143.908Z" fill="#015467"/>
  <path d="M173.901 122.815C173.549 122.815 173.211 122.674 172.963 122.423C172.714 122.173 172.574 121.833 172.574 121.479V80.2438C172.574 79.8896 172.714 79.5498 172.963 79.2993C173.211 79.0489 173.549 78.9082 173.901 78.9082C174.252 78.9082 174.59 79.0489 174.838 79.2993C175.087 79.5498 175.227 79.8896 175.227 80.2438V121.47C175.228 121.646 175.195 121.821 175.128 121.984C175.062 122.147 174.965 122.295 174.841 122.42C174.718 122.545 174.572 122.644 174.41 122.712C174.249 122.78 174.075 122.815 173.901 122.815Z" fill="#015467"/>
  <path d="M173.901 143.079C173.549 143.079 173.211 142.939 172.963 142.688C172.714 142.438 172.574 142.098 172.574 141.744V129.687C172.574 129.333 172.714 128.994 172.963 128.743C173.211 128.493 173.549 128.352 173.901 128.352C174.252 128.352 174.59 128.493 174.838 128.743C175.087 128.994 175.227 129.333 175.227 129.687V141.744C175.227 142.098 175.087 142.438 174.838 142.688C174.59 142.939 174.252 143.079 173.901 143.079Z" fill="#015467"/>
</svg>
