<svg width="80" height="80" viewBox="0 0 80 80" fill="none" xmlns="http://www.w3.org/2000/svg">
  <path d="M79.3845 3.55365L76.5016 0.670934C75.7965 -0.0345262 74.6811 -0.147213 73.849 0.402329L68.7818 3.75014C68.3164 4.05793 67.9637 4.51913 67.7889 5.04885L66.7519 8.1908L42.9826 31.9601C42.738 31.8729 42.4786 31.825 42.2112 31.825C41.5983 31.825 41.0223 32.0636 40.5887 32.497L38.3488 34.7369L36.8919 34.5167C34.8162 34.2033 32.6917 34.9017 31.2076 36.3857L26.471 41.1224L24.8007 41.5154C22.9876 41.9421 21.3332 42.8637 20.0162 44.1805L3.078 61.1184C0.60327 63.5933 0.0893142 67.2959 1.53207 70.283L1.4453 70.3697C-0.481766 72.2969 -0.481766 75.4323 1.4453 77.3593L2.58543 78.4995C3.54904 79.4629 4.8145 79.9447 6.08027 79.9447C7.34604 79.9447 8.61165 79.4629 9.57526 78.4993L9.66173 78.4128C10.7619 78.9443 11.9584 79.2119 13.1559 79.2119C15.2093 79.2118 17.2632 78.43 18.8266 76.8671L29.8493 65.8444C30.3064 65.3871 30.3064 64.6461 29.8493 64.1889C29.392 63.7319 28.6509 63.7319 28.1938 64.1889L17.1713 75.2116C14.9572 77.4258 11.3545 77.4257 9.1409 75.2116L4.7338 70.8045C2.51972 68.5905 2.51972 64.988 4.7338 62.7742L21.672 45.836C22.6809 44.8271 23.9482 44.1211 25.3372 43.7942L27.3316 43.3249C27.5434 43.2751 27.7374 43.167 27.8913 43.0132L30.2136 40.691L39.2542 49.7318L36.9321 52.0541C36.7784 52.2078 36.6702 52.4018 36.6205 52.6136L36.151 54.6082C35.8242 55.997 35.1184 57.2645 34.1094 58.2732L31.7211 60.6615C31.264 61.1188 31.264 61.8598 31.7211 62.3169C31.9498 62.5454 32.2494 62.6597 32.5489 62.6597C32.8484 62.6597 33.1481 62.5454 33.3767 62.3169L35.765 59.9287C37.082 58.6117 38.0036 56.9572 38.43 55.1443L38.8232 53.4739L43.5597 48.7373C45.0437 47.2532 45.7424 45.1284 45.4289 43.0532L45.2085 41.5959L47.4483 39.3561C47.8816 38.9227 48.1204 38.3464 48.1204 37.7335C48.1204 37.5266 48.0911 37.3243 48.0382 37.1298L52.8223 32.3455C53.2795 31.8883 53.2795 31.1473 52.8223 30.6902C52.365 30.2332 51.624 30.2332 51.1668 30.6902L46.5971 35.26L44.7957 33.4586L68.6042 9.64964C68.7334 9.52025 68.8307 9.3623 68.8879 9.18875L70.012 5.78256C70.0226 5.75041 70.0441 5.72216 70.0726 5.70358L74.9807 2.46081L77.5945 5.07444L74.3515 9.98254C74.3329 10.0109 74.3047 10.0323 74.2724 10.0431L70.8664 11.1673C70.6926 11.2246 70.5349 11.3218 70.4055 11.4511L54.6938 27.1627C54.2367 27.62 54.2367 28.361 54.6938 28.8182C55.1511 29.2752 55.8922 29.2752 56.3493 28.8182L71.8641 13.3032L75.0059 12.2661C75.536 12.0913 75.9972 11.7385 76.3048 11.2731L79.6525 6.20615C80.2025 5.37442 80.0898 4.25879 79.3845 3.55365ZM7.4851 76.8669C7.54909 76.9309 7.61511 76.9915 7.68066 77.0528C6.66087 77.851 5.17924 77.7824 4.24092 76.844L3.10079 75.7038C2.16231 74.7655 2.09395 73.2839 2.89196 72.2641C2.9533 72.3296 3.01401 72.3958 3.078 72.4598L7.4851 76.8669ZM41.9039 47.0816L40.9097 48.0759L31.8691 39.035L32.8633 38.0408C33.8236 37.0803 35.1992 36.6282 36.542 36.8312L38.2029 37.0824L42.8624 41.7418L43.1137 43.4031C43.3166 44.7461 42.8644 46.1213 41.9039 47.0816ZM43.9622 39.5309L40.414 35.9827L42.2112 34.1856L45.7593 37.7337L43.9622 39.5309Z" fill="#015467"/>
  <path d="M12.9396 65.415C13.3969 64.9579 13.3969 64.2167 12.9398 63.7597C12.4826 63.3027 11.7414 63.3024 11.2844 63.7596L8.38565 66.658C7.03467 68.0092 7.03467 70.208 8.38581 71.5593C9.06146 72.2348 9.94891 72.5725 10.8363 72.5725C11.7238 72.5725 12.6114 72.2348 13.287 71.5593L26.9174 57.9286C27.572 57.2741 27.9327 56.4037 27.9327 55.478C27.9327 54.5524 27.572 53.6819 26.9176 53.0275C26.2631 52.3729 25.3927 52.0122 24.467 52.0122C23.5414 52.0122 22.6709 52.3729 22.0163 53.0273L14.8116 60.2319C14.3544 60.6892 14.3544 61.4303 14.8116 61.8874C15.2689 62.3444 16.0099 62.3444 16.4671 61.8874L23.6717 54.6828C23.8839 54.4704 24.1664 54.3534 24.4669 54.3534C24.7672 54.3534 25.0495 54.4704 25.2619 54.6828C25.4743 54.8951 25.5914 55.1776 25.5914 55.478C25.5914 55.7783 25.4743 56.0607 25.2619 56.2731L11.6316 69.9038C11.1927 70.3422 10.4792 70.342 10.0411 69.9039C9.60257 69.4654 9.60257 68.7518 10.041 68.3135L12.9396 65.415Z" fill="#015467"/>
</svg>
