<svg width="80" height="80" viewBox="0 0 80 80" fill="none" xmlns="http://www.w3.org/2000/svg">
  <path d="M77.5002 32.3434H72.7003C72.6223 32.3434 72.5539 32.293 72.5372 32.2233C71.7197 28.7911 70.3641 25.5208 68.508 22.5033C68.4667 22.4364 68.4748 22.353 68.5273 22.3006L71.9306 18.8973C72.4028 18.425 72.6628 17.7973 72.6628 17.1297C72.6628 16.4619 72.4028 15.8341 71.9306 15.362L64.6378 8.06938C64.1658 7.59703 63.538 7.33703 62.8702 7.33703C62.2025 7.33703 61.5748 7.59703 61.1025 8.06922L57.6992 11.4725C57.6467 11.525 57.5631 11.5331 57.4966 11.4919C54.4791 9.63578 51.2087 8.28016 47.7766 7.46266C47.707 7.44609 47.6564 7.3775 47.6564 7.29969V2.49984C47.6566 1.12141 46.5352 0 45.1567 0H34.8431C33.4648 0 32.3433 1.12141 32.3433 2.49984V7.29969C32.3433 7.37766 32.2928 7.44609 32.2231 7.46266C28.7909 8.28031 25.5206 9.63578 22.5031 11.4919C22.4364 11.5333 22.3527 11.5252 22.3005 11.4725L18.8972 8.06922C18.4248 7.59703 17.7972 7.33703 17.1295 7.33703C16.4617 7.33703 15.8339 7.59703 15.3619 8.06922L8.06953 15.3622C7.59719 15.8342 7.33719 16.462 7.33719 17.1298C7.33719 17.7975 7.59719 18.4252 8.06938 18.8975L11.4727 22.3008C11.5252 22.3531 11.5333 22.4366 11.492 22.5034C9.63594 25.5209 8.28031 28.7913 7.46281 32.2234C7.44625 32.293 7.37766 32.3436 7.29969 32.3436H2.49984C1.12141 32.3434 0 33.4648 0 34.8433V45.1569C0 46.5352 1.12141 47.6567 2.49984 47.6567H7.29969C7.37766 47.6567 7.44609 47.7072 7.46281 47.7769C8.28031 51.2091 9.63594 54.4794 11.492 57.4969C11.5333 57.5638 11.5252 57.6472 11.4727 57.6995L8.06938 61.103C7.59719 61.5752 7.33719 62.203 7.33719 62.8706C7.33719 63.5384 7.59719 64.1663 8.06938 64.6383L15.3622 71.9309C15.8342 72.4031 16.462 72.6633 17.1298 72.6633C17.7975 72.6633 18.4252 72.4033 18.8975 71.9311L22.3008 68.5278C22.353 68.475 22.4367 68.4669 22.5034 68.5084C25.5208 70.3644 28.7911 71.7202 32.2237 72.5378C32.2931 72.5544 32.3436 72.623 32.3436 72.7008V77.5006C32.3436 78.8789 33.465 80.0005 34.8434 80.0005H45.157C46.5353 80.0005 47.6569 78.8791 47.6569 77.5006V72.7008C47.6569 72.623 47.7073 72.5545 47.777 72.5378C51.2094 71.7202 54.4795 70.3644 57.497 68.5084C57.5636 68.467 57.6473 68.4752 57.6997 68.5278L61.103 71.9311C61.5753 72.4031 62.203 72.6633 62.8706 72.6633C63.5384 72.6633 64.1663 72.4033 64.6381 71.9311L66.3584 70.2108C66.8152 69.7542 66.8152 69.0137 66.3586 68.5572C65.9019 68.1006 65.1614 68.1005 64.705 68.557L62.9844 70.2775C62.9455 70.3164 62.9009 70.3247 62.8705 70.3247C62.84 70.3247 62.7956 70.3164 62.7566 70.2773L59.3533 66.8741C58.5317 66.0527 57.2644 65.9056 56.2716 66.5164C53.4659 68.2423 50.4255 69.5028 47.2352 70.263C46.1066 70.5316 45.3181 71.5341 45.3181 72.7008V77.5006C45.3181 77.5895 45.2458 77.6619 45.1569 77.6619H34.8433C34.7544 77.6619 34.682 77.5895 34.682 77.5006V72.7008C34.682 71.5341 33.8937 70.5316 32.7653 70.263C29.5747 69.5028 26.5342 68.2423 23.7286 66.5164C22.7355 65.9059 21.4684 66.0527 20.6469 66.8741L17.2436 70.2773C17.2047 70.3164 17.1602 70.3247 17.1297 70.3247C17.0992 70.3247 17.0548 70.3164 17.0158 70.2773L9.72281 62.9845C9.68391 62.9456 9.67562 62.9011 9.67562 62.8706C9.67562 62.8402 9.68391 62.7958 9.72297 62.7567L13.1263 59.3534C13.9475 58.532 14.0945 57.2648 13.4839 56.2717C11.7578 53.4659 10.4975 50.4255 9.7375 47.235C9.46859 46.1066 8.46609 45.3183 7.29953 45.3183H2.49984C2.41094 45.3183 2.33859 45.2459 2.33859 45.157V34.8434C2.33859 34.7545 2.41094 34.6822 2.49984 34.6822H7.29969C8.46625 34.6822 9.46875 33.8941 9.73766 32.7655C10.4977 29.575 11.758 26.5345 13.4841 23.7288C14.0947 22.7356 13.9477 21.4684 13.1264 20.647L9.72313 17.2437C9.68406 17.2048 9.67578 17.1603 9.67578 17.1298C9.67578 17.0994 9.68406 17.055 9.72313 17.0159L17.0159 9.72297C17.0548 9.68406 17.0994 9.67578 17.1298 9.67578C17.1603 9.67578 17.2047 9.68406 17.2437 9.72313L20.647 13.1264C21.4686 13.9475 22.7356 14.0947 23.7288 13.4841C26.5345 11.758 29.575 10.4977 32.7655 9.73766C33.8939 9.46875 34.6822 8.46625 34.6822 7.29969V2.49984C34.6822 2.41094 34.7545 2.33859 34.8434 2.33859H45.157C45.2459 2.33859 45.3183 2.41094 45.3183 2.49984V7.29969C45.3183 8.46625 46.1064 9.46875 47.235 9.73766C50.4255 10.4977 53.4659 11.758 56.2717 13.4841C57.2648 14.0945 58.5319 13.9478 59.3534 13.1264L62.7567 9.72313C62.7956 9.68406 62.8402 9.67578 62.8706 9.67578C62.9011 9.67578 62.9455 9.68406 62.9845 9.72313L70.2775 17.0159C70.3164 17.0548 70.3247 17.0994 70.3247 17.1298C70.3247 17.1603 70.3164 17.2047 70.2773 17.2437L66.8741 20.647C66.0528 21.4684 65.9058 22.7356 66.5164 23.7288C68.2425 26.5345 69.5028 29.575 70.2628 32.7655C70.5317 33.8939 71.5342 34.6822 72.7008 34.6822H77.5006C77.5895 34.6822 77.6619 34.7545 77.6619 34.8434V45.157C77.6619 45.2459 77.5895 45.3183 77.5006 45.3183H72.7008C71.5342 45.3183 70.5317 46.1064 70.2628 47.235C69.5028 50.4255 68.2425 53.4659 66.5164 56.2717C65.9058 57.2648 66.0528 58.532 66.8741 59.3534L70.2773 62.7567C70.3164 62.7956 70.3247 62.8402 70.3247 62.8706C70.3247 62.9011 70.3164 62.9455 70.2773 62.9845L68.5373 64.7245C68.0808 65.1813 68.0808 65.9216 68.5373 66.3783C68.9939 66.8345 69.7342 66.8348 70.1911 66.3783L71.9309 64.6383C72.4033 64.1663 72.6633 63.5384 72.6633 62.8706C72.6633 62.203 72.4033 61.5753 71.9311 61.103L68.5278 57.6995C68.4753 57.6472 68.4672 57.5638 68.5084 57.4969C70.3645 54.4794 71.7202 51.2091 72.5377 47.7769C72.5542 47.7073 72.6228 47.6567 72.7008 47.6567H77.5006C78.8789 47.6567 80.0005 46.5353 80.0005 45.1569V34.8433C80 33.4648 78.8786 32.3434 77.5002 32.3434Z" fill="#015467"/>
  <path d="M16.5241 35.3173C15.8853 35.2214 15.2909 35.6642 15.1964 36.303C15.0166 37.5188 14.9256 38.7625 14.9256 40C14.9256 53.8261 26.1739 65.0744 40 65.0744C53.8261 65.0744 65.0744 53.8261 65.0744 40C65.0744 26.1739 53.8261 14.9256 40 14.9256C34.8816 14.9256 29.9584 16.458 25.7627 19.357C21.6648 22.1884 18.5291 26.122 16.693 30.7359L16.6456 30.8559C16.4086 31.4566 16.7033 32.1358 17.3041 32.3728C17.9045 32.6097 18.5839 32.3152 18.8209 31.7144L18.867 31.5977C20.5308 27.4167 23.375 23.8494 27.0919 21.2811C30.8952 18.6531 35.3586 17.2642 40 17.2642C52.5366 17.2642 62.7358 27.4634 62.7358 40C62.7358 52.5366 52.5366 62.7358 40 62.7358C27.4634 62.7358 17.2642 52.5366 17.2642 40C17.2642 38.8766 17.3469 37.7478 17.5098 36.6448C17.6042 36.0061 17.163 35.4117 16.5241 35.3173Z" fill="#015467"/>
  <path d="M36.6781 52.1391C36.7263 52.1391 36.7744 52.1384 36.8222 52.137C38.1717 52.0983 39.4703 51.5075 40.3853 50.5163L53.4837 36.3291C54.398 35.3389 54.872 34.052 54.8184 32.7055C54.7647 31.3589 54.19 30.1138 53.1997 29.1995C51.1558 27.3123 47.9572 27.44 46.07 29.4839L36.4728 39.8783L33.7295 37.2267C31.7289 35.2934 28.5284 35.3483 26.5952 37.3486C24.6619 39.3489 24.7164 42.5491 26.7167 44.4827L33.1719 50.7216C34.1177 51.6356 35.3628 52.1391 36.6781 52.1391ZM28.2766 38.9736C28.8069 38.425 29.5148 38.1492 30.2234 38.1492C30.9011 38.1492 31.5797 38.4016 32.1044 38.9083L35.708 42.3911C35.9342 42.6097 36.2409 42.727 36.5537 42.7192C36.8684 42.7103 37.1661 42.5748 37.3797 42.3436L47.7883 31.0702C48.8009 29.9734 50.5169 29.9055 51.6133 30.9175C52.1444 31.408 52.4528 32.0759 52.4816 32.7986C52.5103 33.5211 52.2561 34.2114 51.7655 34.7427L38.6666 48.9302C38.1759 49.4619 37.4791 49.7787 36.7547 49.7995C36.0225 49.8205 35.3227 49.5483 34.7967 49.0402L28.3417 42.8013C27.2687 41.7638 27.2395 40.0467 28.2766 38.9736Z" fill="#015467"/>
</svg>
