<svg width="325" height="460" viewBox="0 0 325 460" fill="none" xmlns="http://www.w3.org/2000/svg">
  <path d="M225.206 87.682V52.8856C225.209 51.8356 224.989 50.7969 224.559 49.8385C224.13 48.8801 223.502 48.0239 222.716 47.3268L207.134 31.7253C205.754 30.498 203.971 29.8204 202.124 29.8211H201.202V27.7942C201.202 26.8037 201.005 25.8231 200.622 24.9096C200.239 23.996 199.678 23.1678 198.971 22.4731C198.265 21.7785 197.427 21.2314 196.507 20.8636C195.586 20.4959 194.602 20.3149 193.611 20.3312H132.142C130.162 20.3312 128.262 21.1175 126.861 22.5171C125.461 23.9166 124.674 25.8149 124.674 27.7942V29.7597H123.721C121.884 29.7607 120.111 30.4387 118.742 31.6638L103.129 47.2654C102.35 47.9674 101.725 48.8246 101.297 49.7819C100.868 50.7392 100.644 51.7754 100.64 52.8242V87.682C92.3724 105.188 22.2062 249.748 8.43724 284.237C-7.20647 323.64 1.5528 340.685 30.5966 379.443C55.5835 412.704 131.374 448.084 154.025 458.157C156.785 459.372 159.768 460 162.784 460C165.8 460 168.784 459.372 171.544 458.157C194.164 448.084 269.893 412.704 294.941 379.443C323.985 340.716 332.775 323.671 317.132 284.237C303.639 249.748 233.565 105.188 225.206 87.682ZM285.629 287.738H278.13L265.621 251.928H272.506L285.629 287.738ZM172.435 157.551H226.742L227.91 160.868L165.428 162.25L164.782 123.277L215.309 124.72L225.544 154.05H172.435C171.967 154.05 171.519 154.233 171.185 154.561C170.852 154.888 170.66 155.333 170.652 155.801C170.652 156.033 170.699 156.263 170.789 156.478C170.879 156.692 171.01 156.886 171.176 157.049C171.342 157.212 171.539 157.341 171.755 157.427C171.971 157.513 172.202 157.555 172.435 157.551ZM230.092 167.102L239.835 195.05H175.17C174.616 195.05 174.084 195.27 173.693 195.662C173.301 196.053 173.08 196.585 173.08 197.139C173.08 197.695 173.3 198.23 173.691 198.626C174.082 199.023 174.613 199.25 175.17 199.258H241.187L242.54 203.189L165.981 204.571L165.366 165.69L230.092 167.102ZM244.875 209.485L254.096 236.02H178.244C177.592 236.02 176.966 236.278 176.505 236.739C176.044 237.2 175.785 237.825 175.785 238.476C175.785 239.128 176.044 239.753 176.505 240.214C176.966 240.675 177.592 240.933 178.244 240.933H255.909L257.507 245.479L166.841 246.861L166.227 208.072L244.875 209.485ZM259.659 251.836L268.418 276.989H181.071C180.376 277.062 179.733 277.389 179.265 277.908C178.797 278.427 178.538 279.101 178.538 279.799C178.538 280.498 178.797 281.171 179.265 281.69C179.733 282.209 180.376 282.536 181.071 282.609H270.446L272.26 287.799L167.517 289.182L166.903 250.423L259.659 251.836ZM270.047 245.294H263.347L250.869 209.485H257.016L270.047 245.294ZM254.434 202.974H248.594L236.086 167.133H241.341L254.434 202.974ZM225.728 124.966L238.852 160.592H233.811L221.272 124.966H225.728ZM106.387 59.5501H116.191V48.1867H107.555L123.936 33.568H132.142V24.0473C132.142 24.0473 135.984 23.8938 141.762 23.7402C144.621 23.7402 147.909 23.5867 151.597 23.5867L162.877 23.6174H174.156L183.991 23.7709L193.58 24.078V33.5987H202.001L213.988 44.2864L118.865 45.2077L216.108 46.1905L218.383 48.2174H210.422V59.5808H219.643V64.2183L119.019 65.1703L219.643 66.1224V75.3359H210.422V83.5359L118.865 84.4573L204.921 85.3172H116.191V75.2745H106.387V59.5501ZM15.5983 287.001C29.1521 252.88 98.0275 107.061 105.68 90.8453H213.25L223.362 118.302H219.151L211.652 97.3255C211.531 96.9786 211.342 96.659 211.098 96.3849C210.853 96.1107 210.557 95.8874 210.226 95.7277C209.895 95.568 209.535 95.475 209.168 95.4541C208.801 95.4331 208.434 95.4846 208.087 95.6056C207.74 95.7266 207.42 95.9147 207.145 96.1593C206.871 96.4038 206.648 96.6999 206.488 97.0307C206.328 97.3615 206.235 97.7206 206.214 98.0873C206.193 98.454 206.244 98.8213 206.365 99.1682L211.222 113.142H169.546C169.345 113.112 169.14 113.126 168.945 113.182C168.749 113.239 168.569 113.337 168.415 113.47C168.261 113.602 168.137 113.766 168.053 113.951C167.968 114.136 167.924 114.336 167.924 114.539C167.924 114.742 167.968 114.943 168.053 115.128C168.137 115.312 168.261 115.477 168.415 115.609C168.569 115.742 168.749 115.84 168.945 115.896C169.14 115.953 169.345 115.967 169.546 115.937H212.205L213.158 118.67L164.751 120.021L164.383 98.2468L164.045 120.052L157.898 120.236L158.574 98.339C158.59 97.9709 158.533 97.6033 158.405 97.2576C158.277 96.912 158.082 96.5954 157.83 96.3265C157.578 96.0575 157.275 95.8416 156.938 95.6914C156.601 95.5413 156.238 95.4599 155.869 95.4521C155.5 95.4313 155.13 95.4856 154.782 95.6117C154.435 95.7378 154.116 95.933 153.846 96.1857C153.576 96.4383 153.36 96.7431 153.211 97.0815C153.062 97.42 152.984 97.785 152.98 98.1547L152.519 112.988H109.491C109.156 113.038 108.85 113.207 108.629 113.463C108.407 113.72 108.285 114.047 108.285 114.386C108.285 114.725 108.407 115.052 108.629 115.308C108.85 115.565 109.156 115.733 109.491 115.783H152.519V120.39L106.418 121.68L152.519 123L151.566 154.019H96.8596C96.4375 154.056 96.0431 154.244 95.7492 154.549C95.4554 154.854 95.2821 155.255 95.2614 155.678C95.2693 156.14 95.4564 156.58 95.7832 156.907C96.1101 157.233 96.5511 157.42 97.0132 157.428H151.413L151.259 162.526L87.8544 163.939L151.167 165.321L150.276 194.927H84.2585C83.9607 194.891 83.6586 194.919 83.3722 195.008C83.0858 195.097 82.8217 195.246 82.5972 195.445C82.3726 195.644 82.1929 195.888 82.0698 196.162C81.9467 196.435 81.883 196.731 81.883 197.031C81.883 197.331 81.9467 197.627 82.0698 197.901C82.1929 198.174 82.3726 198.418 82.5972 198.617C82.8217 198.816 83.0858 198.965 83.3722 199.054C83.6586 199.143 83.9607 199.171 84.2585 199.135H149.999L149.815 204.816L69.168 206.291L149.722 207.734L148.862 235.958H71.6575C71.0054 235.958 70.38 236.217 69.9189 236.678C69.4578 237.139 69.1988 237.763 69.1988 238.415C69.1988 239.067 69.4578 239.692 69.9189 240.152C70.38 240.613 71.0054 240.872 71.6575 240.872H148.708L148.524 247.014L50.6353 248.519L148.432 250.024L147.51 276.989H59.0258C58.3306 277.062 57.687 277.389 57.2193 277.908C56.7515 278.427 56.4926 279.101 56.4926 279.799C56.4926 280.498 56.7515 281.171 57.2193 281.69C57.687 282.209 58.3306 282.536 59.0258 282.609H147.51L147.294 289.458L32.1948 290.993L147.202 292.529L146.68 310.373C146.655 311.117 146.925 311.841 147.431 312.387C147.938 312.934 148.64 313.258 149.384 313.29C150.116 313.29 150.818 313.004 151.341 312.493C151.863 311.983 152.165 311.287 152.181 310.557L152.734 292.591H161.217L160.449 341.576C157.713 341.576 154.978 341.576 152.243 341.576C147.725 341.576 143.237 341.576 138.781 341.146C134.325 340.716 129.899 340.716 125.535 340.224C121.17 339.733 116.868 339.518 112.657 338.904C104.236 337.921 96.0912 336.57 88.4384 335.126L77.3126 332.823L66.9859 330.274C63.6359 329.506 60.5624 328.462 57.5505 327.633C54.5385 326.803 51.711 326.036 49.0986 325.114C43.843 323.302 39.2329 322.043 35.5141 320.446L23.8351 315.962L35.3604 320.845C39.0178 322.412 43.5972 323.916 48.7913 325.974C51.4037 326.988 54.2312 327.786 57.1817 328.8C60.1322 329.813 63.3285 330.888 66.402 331.871L76.6979 334.788L87.8237 337.491C95.4765 339.18 103.621 340.839 112.073 342.129C116.314 342.866 120.648 343.326 125.043 343.91C129.438 344.493 133.864 344.831 138.351 345.261C142.838 345.691 147.387 345.845 151.935 346.182C154.701 346.182 157.437 346.397 160.203 346.459V351.066H152.15C147.632 350.881 143.145 351.066 138.689 350.605C134.232 350.144 129.807 350.175 125.442 349.714C121.078 349.254 116.775 348.977 112.565 348.363C104.144 347.38 95.999 346.029 88.3462 344.585L77.2204 342.282L66.8937 339.733C63.5437 338.996 60.4702 337.952 57.4583 337.122C54.4463 336.293 51.6188 335.525 49.0064 334.573C43.7508 332.792 39.1407 331.502 35.4219 329.936L23.7429 325.421L35.2682 330.335C38.9256 331.902 43.505 333.406 48.6991 335.433C51.3115 336.478 54.139 337.276 57.0895 338.29C60.04 339.303 63.2363 340.378 66.3098 341.361L76.6057 344.248L87.7315 346.95C95.3843 348.67 103.529 350.298 111.981 351.588C116.222 352.355 120.556 352.816 124.951 353.369C129.346 353.922 133.771 354.29 138.259 354.751C142.746 355.212 147.294 355.335 151.843 355.642C154.548 355.795 157.252 355.857 159.957 355.918V360.525C148.063 360.525 100.117 358.682 54.3849 343.234C20.8846 331.932 10.435 324.623 8.28356 316.853C8.87561 306.539 11.3548 296.421 15.5983 287.001ZM154.148 247.076L155.347 207.888L162.631 208.041L161.985 246.984L154.148 247.076ZM161.955 250.362L161.309 289.274H152.857L154.056 250.116L161.955 250.362ZM155.439 204.816L156.73 165.475H163.399L162.784 204.479L155.439 204.816ZM156.73 162.434L157.928 123.093H164.075L163.461 162.158L156.73 162.434ZM223.515 397.102C223.106 398.348 222.448 399.498 221.579 400.481C220.688 401.585 219.655 402.566 218.506 403.398C216.012 405.219 213.256 406.648 210.33 407.637C209.562 407.913 208.855 408.097 208.117 408.343C207.38 408.589 206.611 408.742 205.843 408.896C204.361 409.199 202.863 409.414 201.356 409.541C199.944 409.648 198.526 409.648 197.115 409.541C195.848 409.434 194.594 409.218 193.365 408.896C192.285 408.641 191.249 408.227 190.292 407.667C189.562 407.245 188.917 406.694 188.386 406.04C188.046 405.631 187.785 405.162 187.618 404.658L187.464 404.105L187.71 404.596C187.957 405.038 188.268 405.441 188.632 405.794C189.212 406.321 189.877 406.746 190.599 407.053C191.534 407.418 192.501 407.696 193.488 407.882C196.015 408.253 198.583 408.253 201.11 407.882C202.493 407.882 203.907 407.422 205.351 407.114C206.058 407.114 206.796 406.715 207.472 406.562L209.654 405.855C211.047 405.369 212.412 404.805 213.742 404.166C215.023 403.535 216.265 402.827 217.461 402.047C219.617 400.773 221.373 398.922 222.532 396.703C222.908 395.823 223.025 394.853 222.87 393.908C222.69 393.17 222.319 392.492 221.794 391.943C221.46 391.558 221.078 391.217 220.657 390.929L220.196 390.622L220.718 390.837C221.197 391.049 221.642 391.328 222.04 391.666C222.71 392.212 223.229 392.921 223.546 393.724C223.911 394.823 223.9 396.011 223.515 397.102ZM263.285 352.755C260.396 353.738 256.862 354.782 252.805 356.041C248.748 357.3 244.138 358.529 239.005 359.665C233.873 360.801 228.402 362.03 222.501 363.135L213.281 364.671C210.207 365.132 207.134 365.623 203.753 365.991C197.268 366.821 190.537 367.527 183.714 368.018C176.891 368.51 169.853 368.848 162.877 368.878C155.9 368.909 148.893 368.479 142.039 368.018C135.185 367.558 128.485 366.821 122 365.991C115.515 365.162 109.245 364.18 103.375 363.135H103.129L98.7958 362.429C96.3371 362.03 93.9091 361.6 91.4811 361.108C86.5943 360.187 81.7691 359.081 76.9745 358.037C72.18 356.993 67.5084 355.703 63.0519 354.444C54.0775 351.956 45.7793 349.284 38.7719 346.643C33.1202 344.572 27.6075 342.141 22.2676 339.364C20.2325 338.334 18.2711 337.164 16.3974 335.863C18.2065 337.275 20.1058 338.568 22.0832 339.733C27.2833 342.822 32.6724 345.581 38.2187 347.994C45.1032 351.066 53.2785 354.137 62.1914 357.208C66.6786 358.744 71.2579 360.279 75.991 361.63C80.7241 362.982 85.5801 364.425 90.4668 365.592C92.8948 366.237 95.3229 366.821 97.7816 367.374C100.24 367.926 102.638 368.51 105.096 369.001C109.922 370.015 114.716 370.905 119.357 371.735C123.998 372.564 128.577 373.239 132.819 373.823C137.06 374.407 141.178 374.929 144.928 375.328C152.304 376.126 158.451 376.618 162.877 376.863V441.051L160.787 440.314C154.947 438.256 147.171 435.431 139.457 432.359C131.743 429.288 124.09 426.033 118.496 423.392C115.7 422.04 113.364 420.904 111.766 420.075L109.215 418.754L111.551 420.413C113.026 421.488 115.177 422.931 117.697 424.651C122.953 428.091 129.991 432.452 137.337 436.598L141.055 438.686L135.677 436.198C132.235 434.54 128.547 432.851 124.797 430.947C121.047 429.043 117.175 427.139 113.272 425.081C109.368 423.023 105.434 420.904 101.531 418.724C97.6279 416.543 93.7554 414.27 89.9444 412.028C86.1333 409.786 82.5374 407.422 78.9722 405.18C75.4071 402.938 72.1493 400.542 68.9529 398.392C65.7565 396.243 62.9905 393.878 60.3166 391.851C57.6427 389.824 55.3991 387.674 53.2784 385.923C51.4705 384.412 49.7468 382.802 48.1151 381.102L43.966 376.802C43.966 376.802 45.472 378.491 48.0536 381.47C49.5732 383.29 51.1944 385.023 52.9096 386.661C54.9074 388.534 57.028 390.807 59.579 393.048C62.1299 395.29 64.8652 397.717 67.8465 400.204C70.8277 402.692 73.9933 405.18 77.497 407.698C81.0007 410.216 84.4122 412.858 88.1003 415.314L93.5403 419.031C70.6125 405.671 48.0844 390.008 36.8049 374.99C21.991 355.242 12.8937 341.914 9.75882 328.431C16.7969 334.573 29.859 340.716 52.7867 348.578C60.5624 351.219 68.3997 353.43 76.1447 355.335L80.1094 356.194C82.4145 356.686 84.8425 357.208 87.4241 357.638C92.526 358.651 98.0582 359.542 103.928 360.463C109.799 361.385 116.038 362.122 122.369 362.828C128.7 363.535 135.492 364.057 142.285 364.517C149.077 364.978 156.023 365.254 162.846 365.224C169.669 365.193 176.646 364.917 183.469 364.517C190.292 364.118 196.93 363.535 203.384 362.828C209.838 362.122 216.047 361.323 221.825 360.463C227.603 359.603 233.258 358.651 238.36 357.638C240.911 357.208 243.339 356.686 245.675 356.164L252.252 354.782C256.339 353.768 259.935 352.939 262.855 352.171L272.075 349.622C272.075 349.622 269.033 350.728 263.285 352.755ZM168.532 355.826C176.799 355.826 185.067 355.826 193.119 355.212L199.85 354.812L206.519 354.26C210.914 353.953 215.278 353.4 219.551 352.939C228.095 351.895 236.331 350.697 244.138 349.284C251.944 347.872 258.552 346.49 265.006 345.015C233.646 354.275 201.219 359.436 168.532 360.371V355.826ZM263.992 336.877C257.446 338.597 250.346 340.409 242.755 342.006C235.163 343.603 227.111 345.077 218.721 346.397C214.541 346.981 210.269 347.687 205.935 348.148L199.42 348.916L192.781 349.53C184.79 350.298 176.615 350.697 168.44 350.973V346.643C176.768 346.643 185.097 346.643 193.273 346.029L200.004 345.63L206.673 345.077C211.068 344.739 215.432 344.186 219.704 343.725C228.248 342.681 236.485 341.514 244.292 340.071C252.098 338.627 259.382 337.153 266.113 335.618C272.26 334.174 277.884 332.546 282.955 331.287C277.362 333.038 271.03 334.942 263.992 336.877ZM295.034 317.682C287.658 320.415 276.993 323.824 263.931 327.51C257.384 329.23 250.285 331.042 242.693 332.608C235.102 334.174 227.05 335.679 218.659 337.03C214.479 337.614 210.207 338.29 205.874 338.75L199.358 339.549L192.72 340.163C184.667 340.9 176.461 341.33 168.132 341.576L167.333 292.775L274.257 294.188L278.837 307.394C279.034 307.944 279.397 308.419 279.876 308.755C280.355 309.091 280.926 309.269 281.511 309.267C281.825 309.276 282.138 309.224 282.433 309.113C282.78 308.993 283.1 308.805 283.375 308.56C283.649 308.316 283.873 308.02 284.033 307.689C284.192 307.358 284.285 306.999 284.306 306.632C284.327 306.265 284.275 305.898 284.154 305.551L280.22 294.28H287.934L296.325 317.037L295.034 317.682Z" fill="#015467"/>
  <path d="M118.22 407.514C128.116 410.339 137.183 408.834 138.535 404.166C139.887 399.498 132.942 393.448 123.168 390.622C113.395 387.797 104.236 389.302 102.883 393.97C101.531 398.638 108.354 404.627 118.22 407.514Z" fill="#015467"/>
  <path d="M171.574 1.87348H179.043V19.6248H180.918V1.87348H188.417C188.54 1.87355 188.663 1.84873 188.777 1.80052C188.891 1.75231 188.994 1.68169 189.08 1.59285C189.166 1.50402 189.233 1.39879 189.278 1.28344C189.322 1.16809 189.343 1.04497 189.339 0.921415C189.343 0.799266 189.322 0.677539 189.277 0.563815C189.233 0.45009 189.165 0.346801 189.078 0.260375C188.992 0.173949 188.888 0.10624 188.775 0.061456C188.661 0.0166719 188.539 -0.0042295 188.417 6.04446e-05H171.574C171.451 -0.0040603 171.328 0.0167269 171.212 0.0611807C171.097 0.105634 170.991 0.172848 170.902 0.258817C170.814 0.344786 170.743 0.447755 170.695 0.561589C170.646 0.675422 170.622 0.797793 170.622 0.921415C170.622 1.17392 170.722 1.41608 170.901 1.59462C171.079 1.77317 171.322 1.87348 171.574 1.87348Z" fill="#015467"/>
  <path d="M134.878 7.73942H139.703V19.6248H141.578V7.73942H146.403C146.527 7.74354 146.65 7.72275 146.765 7.67829C146.881 7.63384 146.986 7.56663 147.075 7.48066C147.164 7.39469 147.235 7.29173 147.283 7.17789C147.331 7.06406 147.356 6.94169 147.356 6.81807C147.356 6.56556 147.255 6.3234 147.077 6.14485C146.898 5.96631 146.656 5.866 146.403 5.866H134.878C134.625 5.866 134.383 5.96631 134.204 6.14485C134.025 6.3234 133.925 6.56556 133.925 6.81807C133.925 6.94169 133.95 7.06406 133.998 7.17789C134.046 7.29173 134.117 7.39469 134.206 7.48066C134.295 7.56663 134.4 7.63384 134.515 7.67829C134.631 7.72275 134.754 7.74354 134.878 7.73942Z" fill="#015467"/>
  <path d="M202.585 69.47H196.346V75.3052H202.585V69.47Z" fill="#015467"/>
  <path d="M184.206 69.47H177.967V75.3052H184.206V69.47Z" fill="#015467"/>
  <path d="M165.827 69.47H159.588V75.3052H165.827V69.47Z" fill="#015467"/>
  <path d="M147.479 69.47H141.24V75.3052H147.479V69.47Z" fill="#015467"/>
  <path d="M129.1 69.47H122.861V75.3052H129.1V69.47Z" fill="#015467"/>
  <path d="M202.585 50.9815H196.346V56.8167H202.585V50.9815Z" fill="#015467"/>
  <path d="M184.206 50.9815H177.967V56.8167H184.206V50.9815Z" fill="#015467"/>
  <path d="M165.827 50.9815H159.588V56.8167H165.827V50.9815Z" fill="#015467"/>
  <path d="M147.479 50.9815H141.24V56.8167H147.479V50.9815Z" fill="#015467"/>
  <path d="M129.1 50.9815H122.861V56.8167H129.1V50.9815Z" fill="#015467"/>
  <path d="M144.19 24.4159H141.885L135.216 24.1702V33.6294H144.098L144.19 24.4159Z" fill="#015467"/>
  <path d="M155.869 24.5694H146.987V33.7829H155.869V24.5694Z" fill="#015467"/>
  <path d="M167.548 24.6001H158.666V33.6294H167.548V24.6001Z" fill="#015467"/>
  <path d="M179.227 24.4773H170.345V33.6908H179.227V24.4773Z" fill="#015467"/>
  <path d="M190.906 24.1702L184.114 24.3852H182.024V33.5987H190.906V24.1702Z" fill="#015467"/>
  <path d="M36.2209 261.449L49.8669 231.106L65.234 196.217C70.4281 184.301 75.5915 172.385 80.6011 161.206L102.914 108.812C105.096 103.56 106.326 100.55 106.326 100.55L102.576 108.658C100.21 113.818 96.8595 121.219 92.8026 130.156L79.1566 160.499L63.6051 195.603L48.238 230.614C43.4435 241.793 39.0178 252.113 35.1453 261.326C31.2728 270.54 28.1993 277.787 25.925 283.008C23.6507 288.229 22.5135 291.27 22.5135 291.27L26.2631 283.162C28.7833 277.726 32.164 270.325 36.2209 261.449Z" fill="#015467"/>
</svg>
