<svg width="78" height="80" viewBox="0 0 78 80" fill="none" xmlns="http://www.w3.org/2000/svg">
  <path d="M76.8759 15.8539L75.2007 13.9364C74.9137 13.6078 74.4989 13.4193 74.0625 13.4193H64.5895C64.4905 11.8379 63.1763 10.5808 61.5704 10.5808H59.329C59.1706 9.0037 57.8357 7.76833 56.2176 7.76833H53.3169L46.6496 1.43995C45.6712 0.51132 44.3897 0 43.0409 0H8.79002C4.35895 0 0.753906 3.60489 0.753906 8.03612V25.6603C0.753906 29.693 3.74002 33.0402 7.61691 33.6099V62.1418H7.38479C4.26166 62.1418 1.72071 64.6828 1.72071 67.8059V77.3053C1.72071 78.7912 2.92963 80.0002 4.41557 80.0002H35.6264C37.1123 80.0002 38.3213 78.7912 38.3213 77.3053V67.8059C38.3213 64.6828 35.7805 62.1418 32.6573 62.1418H24.0946V55.9123L25.2233 53.8667C25.5362 53.2994 25.3301 52.5858 24.7629 52.2728C24.1956 51.9599 23.482 52.1659 23.1691 52.7332L21.8944 55.0434C21.7987 55.217 21.7485 55.4119 21.7485 55.6103V62.142H9.96313V58.942H14.0712C16.4179 58.942 18.3271 57.0328 18.3271 54.6862V33.6964H24.3182L26.5773 46.5557L25.5846 48.3551C25.2716 48.9223 25.4777 49.636 26.0451 49.949C26.2248 50.0482 26.4191 50.0952 26.6107 50.0952C27.0241 50.0952 27.4251 49.8763 27.6389 49.4887L28.647 47.6616C28.8948 47.2127 28.9825 46.6871 28.8938 46.1816L28.5755 44.3694C29.8904 44.8474 31.2685 45.09 32.6547 45.09C33.7868 45.09 34.9241 44.9287 36.0357 44.6034L36.593 44.4402C37.382 44.2092 37.9914 43.6006 38.2232 42.8118C38.455 42.023 38.272 41.1815 37.7335 40.5604L34.6266 36.9771V33.6964H43.0411C44.3898 33.6964 45.6713 33.1849 46.6497 32.2565L53.3171 25.9282H56.2178C57.8359 25.9282 59.1707 24.6929 59.3292 23.1157H61.5706C63.1765 23.1157 64.4907 21.8585 64.5897 20.2773H74.0626C74.499 20.2773 74.9138 20.0888 75.2007 19.7603L76.8761 17.8425C77.3711 17.2757 77.3711 16.4207 76.8759 15.8539ZM35.975 67.8059V72.2949H15.4919C14.8441 72.2949 14.3188 72.8201 14.3188 73.468C14.3188 74.1158 14.8441 74.6411 15.4919 74.6411H35.975V77.3053C35.975 77.4975 35.8186 77.6539 35.6264 77.6539H4.41573C4.2235 77.6539 4.06708 77.4975 4.06708 77.3053V74.6411H10.5946C11.2424 74.6411 11.7677 74.1158 11.7677 73.468C11.7677 72.8201 11.2424 72.2949 10.5946 72.2949H4.06708V67.8059C4.06708 65.9765 5.55552 64.488 7.38495 64.488H32.6573C34.4868 64.488 35.975 65.9765 35.975 67.8059ZM21.6059 2.34622H41.5131V3.74175C41.5131 4.16094 41.1721 4.50193 40.7529 4.50193H22.3662C21.947 4.50193 21.606 4.16094 21.606 3.74175L21.6059 2.34622ZM9.96313 43.797H15.981V46.5036H9.96313V43.797ZM9.96313 48.8499H15.981V51.5565H9.96313V48.8499ZM15.981 41.4508H9.96313V38.7442H15.981V41.4508ZM14.0714 56.5957H9.96313V53.9027H15.981V54.686C15.981 55.739 15.1243 56.5957 14.0714 56.5957ZM15.981 36.3982H9.96313V33.6964H15.981V36.3982ZM32.7269 38.3676L35.9607 42.0971C35.9696 42.1075 35.9808 42.1204 35.9721 42.15C35.9633 42.1796 35.9469 42.1844 35.9339 42.1882L35.3768 42.3511C32.9919 43.0489 30.4619 42.8083 28.2521 41.6737L28.0871 41.5889L26.7004 33.6963H32.2802V37.1705C32.2802 37.6104 32.4388 38.0355 32.7269 38.3676ZM56.9987 22.8009C56.9987 23.2315 56.6484 23.582 56.2176 23.582H54.0219V18.3789C54.0219 17.731 53.4966 17.2058 52.8488 17.2058C52.2009 17.2058 51.6756 17.731 51.6756 18.3789V24.2512L45.0344 30.5547C44.4939 31.0677 43.7861 31.3502 43.0409 31.3502H8.79002C5.65266 31.3502 3.10013 28.7977 3.10013 25.6603V24.1775H16.6574C19.386 24.1775 21.6059 21.9576 21.6059 19.2288V14.4674C21.6059 11.7388 19.386 9.51893 16.6574 9.51893H12.6522C12.0043 9.51893 11.4791 10.0442 11.4791 10.692C11.4791 11.3399 12.0043 11.8651 12.6522 11.8651H16.6574C18.0923 11.8651 19.2596 13.0325 19.2596 14.4674V19.2288C19.2596 20.6638 18.0923 21.8313 16.6574 21.8313H3.10013V11.8651H7.65273C8.3006 11.8651 8.82584 11.3399 8.82584 10.692C8.82584 10.0442 8.3006 9.51893 7.65273 9.51893H3.10013V8.03612C3.10013 4.89875 5.65266 2.34622 8.79002 2.34622H19.2596V3.74175C19.2596 5.45465 20.6531 6.84815 22.366 6.84815H40.7529C42.4658 6.84815 43.8593 5.45465 43.8593 3.74175V2.46353C44.2951 2.59148 44.6972 2.82172 45.0343 3.14159L51.6755 9.44526V13.3796C51.6755 14.0274 52.2007 14.5527 52.8486 14.5527C53.4965 14.5527 54.0217 14.0274 54.0217 13.3796V10.1144H56.2175C56.6481 10.1144 56.9986 10.4648 56.9986 10.8955L56.9987 22.8009ZM62.253 20.0869C62.253 20.4633 61.9468 20.7695 61.5704 20.7695H59.345V12.9269H61.5704C61.9468 12.9269 62.253 13.2331 62.253 13.6095V20.0869ZM73.6832 17.9311H64.5992V15.7655H73.6832L74.6292 16.8482L73.6832 17.9311Z" fill="#015467"/>
  <path d="M41.0182 13.4191H27.9921C26.8145 13.4191 25.8563 14.3772 25.8563 15.555V18.1414C25.8563 19.3191 26.8143 20.2773 27.9921 20.2773H41.0182C42.196 20.2773 43.154 19.3192 43.154 18.1414V15.555C43.1542 14.3773 42.196 13.4191 41.0182 13.4191ZM40.8079 17.9311H28.2026V15.7655H40.8079V17.9311Z" fill="#015467"/>
  <path d="M33.4533 11.4461H41.3399C41.9878 11.4461 42.513 10.9209 42.513 10.273C42.513 9.62513 41.9878 9.09989 41.3399 9.09989H33.4533C32.8055 9.09989 32.2802 9.62513 32.2802 10.273C32.2802 10.9209 32.8055 11.4461 33.4533 11.4461Z" fill="#015467"/>
  <path d="M28.3462 11.4461H29.2674C29.9152 11.4461 30.4405 10.9209 30.4405 10.273C30.4405 9.62513 29.9152 9.09989 29.2674 9.09989H28.3462C27.6984 9.09989 27.1731 9.62513 27.1731 10.273C27.1731 10.9209 27.6984 11.4461 28.3462 11.4461Z" fill="#015467"/>
  <path d="M41.3399 22.2503H33.4533C32.8055 22.2503 32.2802 22.7755 32.2802 23.4234C32.2802 24.0713 32.8055 24.5965 33.4533 24.5965H41.3399C41.9878 24.5965 42.513 24.0713 42.513 23.4234C42.513 22.7755 41.9879 22.2503 41.3399 22.2503Z" fill="#015467"/>
  <path d="M29.2674 22.2503H28.3462C27.6984 22.2503 27.1731 22.7755 27.1731 23.4234C27.1731 24.0713 27.6984 24.5965 28.3462 24.5965H29.2674C29.9152 24.5965 30.4405 24.0713 30.4405 23.4234C30.4405 22.7755 29.9152 22.2503 29.2674 22.2503Z" fill="#015467"/>
</svg>
