<svg width="80" height="80" viewBox="0 0 80 80" fill="none" xmlns="http://www.w3.org/2000/svg">
<path d="M77.2256 56.8794C77.1084 56.5914 76.8813 56.3619 76.5948 56.2414L44.1998 42.6111C43.2715 42.3897 42.7293 42.7497 42.5734 43.6912V78.8286C42.5734 79.4758 43.0981 80.0005 43.7452 80.0005C52.5576 80.0005 61.0554 76.8044 67.6735 71.0011C68.1601 70.5744 68.2087 69.8339 67.782 69.3473C67.3551 68.8606 66.6148 68.8122 66.1282 69.2389C60.2318 74.4095 52.7395 77.3673 44.9171 77.6366V45.4558L74.5865 57.9392C73.3427 60.6278 71.7504 63.1433 69.8432 65.4305C69.4287 65.9275 69.4957 66.6666 69.9927 67.0809C70.4898 67.4953 71.2287 67.4284 71.6432 66.9314C73.9507 64.1642 75.827 61.0841 77.2201 57.7764C77.341 57.49 77.3429 57.1673 77.2256 56.8794Z" fill="#00B0F0"/>
<path d="M17.5138 38.2197C17.5138 37.5725 16.9891 37.0479 16.3419 37.0479H9.06897C8.42178 37.0479 7.89709 37.5725 7.89709 38.2197C7.89709 38.8669 8.42178 39.3916 9.06897 39.3916H16.3419C16.9891 39.3916 17.5138 38.8671 17.5138 38.2197Z" fill="#00B0F0"/>
<path d="M70.936 51.0195C71.4929 51.2539 72.2333 50.9567 72.4704 50.3945C74.351 45.9327 75.3046 41.1936 75.3046 36.3091C75.3046 16.5195 58.7849 0 38.9954 0C19.2062 0 2.68787 16.5205 2.68787 36.3091C2.68787 42.7186 4.38099 49.0192 7.58412 54.53C7.90943 55.0895 8.62646 55.2792 9.18615 54.9542C9.74568 54.6289 9.93568 53.9117 9.61037 53.3522C6.6149 48.1988 5.03146 42.3053 5.03146 36.3091C5.03146 17.9725 19.6358 2.98312 37.8233 2.36359L37.8229 18.2905C28.1296 18.8977 20.4288 26.9755 20.4288 36.8197C20.4288 46.6641 28.1297 54.742 37.8233 55.3489V70.2545C28.0471 69.9216 18.9485 65.4328 12.7124 57.823C12.3022 57.3223 11.564 57.2491 11.0632 57.6594C10.5626 58.0695 10.4894 58.808 10.8996 59.3086C17.8311 67.767 28.0715 72.6181 38.9952 72.6181C39.6424 72.6181 40.1671 72.0934 40.1671 71.4463V38.0741L70.936 51.0195ZM72.9608 36.3091C72.9608 40.4845 72.2166 44.545 70.7469 48.3972L64.6194 45.8191C68.1155 36.3336 65.9538 25.402 59.1326 17.9541C58.6954 17.4767 57.9543 17.4442 57.4769 17.8814C56.9996 18.3184 56.9671 19.0598 57.4043 19.537C63.6115 26.3145 65.6015 36.2681 62.4583 44.9097L40.1672 35.5308V11.4581C44.9735 11.6792 49.553 13.2592 53.4782 16.0611C54.0047 16.437 54.7368 16.3148 55.1127 15.7881C55.4888 15.2614 55.3666 14.5295 54.8397 14.1536C50.5151 11.0664 45.4646 9.33563 40.1671 9.11297V2.36359C58.3555 2.98328 72.9608 17.9727 72.9608 36.3091ZM22.7727 36.8197C22.7727 28.2684 29.4232 21.2411 37.823 20.6381L37.8235 53.0014C29.4233 52.3988 22.7727 45.3713 22.7727 36.8197Z" fill="#00B0F0"/>
</svg>
