<svg width="80" height="80" viewBox="0 0 80 80" fill="none" xmlns="http://www.w3.org/2000/svg">
<g clip-path="url(#clip0_1567_128303)">
<path d="M51.2474 7.94531H26.9045C26.2572 7.94531 25.7327 8.46984 25.7327 9.11719C25.7327 9.76453 26.2572 10.2891 26.9045 10.2891H51.2474C51.8947 10.2891 52.4192 9.76453 52.4192 9.11719C52.4192 8.46984 51.8947 7.94531 51.2474 7.94531Z" fill="#00B0F0"/>
<path d="M51.2474 14.8057H26.9045C26.2572 14.8057 25.7327 15.3302 25.7327 15.9775C25.7327 16.6249 26.2572 17.1494 26.9045 17.1494H51.2474C51.8947 17.1494 52.4192 16.6249 52.4192 15.9775C52.4192 15.3302 51.8947 14.8057 51.2474 14.8057Z" fill="#00B0F0"/>
<path d="M73.6758 40.5278H66.7187V37.2562C66.7187 32.9443 63.2108 29.4365 58.8989 29.4365H45.7239C41.412 29.4365 37.9041 32.9443 37.9041 37.2562V40.5278H30.947C27.448 40.5278 24.6228 43.3648 24.6228 46.852V73.6525C24.6228 77.1395 27.4598 79.9767 30.947 79.9767H73.6759C77.163 79.9767 80.0001 77.1396 80.0001 73.6525V68.5743C80.0001 67.927 79.4756 67.4025 78.8283 67.4025C78.1809 67.4025 77.6564 67.927 77.6564 68.5743V73.6525C77.6564 75.8473 75.8708 77.6329 73.6759 77.6329H30.947C28.7522 77.6329 26.9666 75.8473 26.9666 73.6525V57.0434C28.8133 59.3204 31.5914 60.8129 34.7155 60.935V62.7242C34.7155 65.0856 36.6367 67.0068 38.9981 67.0068C41.3595 67.0068 43.2808 65.0856 43.2808 62.7242V60.9431H61.342V62.7242C61.342 65.0856 63.2633 67.0068 65.6247 67.0068C67.9861 67.0068 69.9073 65.0856 69.9073 62.7242V60.935C73.0314 60.8129 75.8095 59.3204 77.6562 57.0434V63.0957C77.6562 63.7431 78.1808 64.2676 78.8281 64.2676C79.4755 64.2676 80 63.7431 80 63.0957V46.8517C80 43.3657 77.1761 40.5278 73.6758 40.5278ZM40.2478 37.2562C40.2478 34.2368 42.7044 31.7803 45.7239 31.7803H58.8989C61.9184 31.7803 64.375 34.2368 64.375 37.2562V40.5278H61.9345V37.2562C61.9345 35.5826 60.5728 34.2209 58.8989 34.2209H45.7239C44.0501 34.2209 42.6884 35.5826 42.6884 37.2562V40.5278H40.2478V37.2562ZM45.0322 40.5278V37.2562C45.0322 36.875 45.3423 36.5646 45.7239 36.5646H58.8989C59.2803 36.5646 59.5908 36.8748 59.5908 37.2562V40.5278H45.0322ZM40.937 62.7242C40.937 63.7934 40.0673 64.6631 38.9981 64.6631C37.9289 64.6631 37.0592 63.7934 37.0592 62.7242V58.535C37.0592 57.4657 37.9289 56.5961 38.9981 56.5961C40.0673 56.5961 40.937 57.4657 40.937 58.535V62.7242ZM67.5636 62.7242C67.5636 63.7934 66.6939 64.6631 65.6247 64.6631C64.5555 64.6631 63.6858 63.7934 63.6858 62.7242V59.7832C63.6858 59.7792 63.6859 59.7751 63.6859 59.7712C63.6859 59.7673 63.6858 59.7631 63.6858 59.7592V58.5351C63.6858 57.4659 64.5555 56.5962 65.6247 56.5962C66.6939 56.5962 67.5636 57.4659 67.5636 58.5351V62.7242ZM69.9073 58.5889V58.5351C69.9073 56.1737 67.9861 54.2525 65.6247 54.2525C63.2633 54.2525 61.342 56.1737 61.342 58.5351V58.5993H43.2808V58.5351C43.2808 56.1737 41.3595 54.2525 38.9981 54.2525C36.6367 54.2525 34.7155 56.1737 34.7155 58.5351V58.5889C30.4059 58.3718 26.9666 54.7976 26.9666 50.4351V46.8517C26.9666 44.6537 28.748 42.8714 30.947 42.8714H73.6759C75.8694 42.8714 77.6564 44.6481 77.6564 46.8518V50.4351C77.6562 54.7976 74.2169 58.3718 69.9073 58.5889Z" fill="#00B0F0"/>
<path d="M23.112 77.6331H5.79516C3.89203 77.6331 2.34375 76.0848 2.34375 74.1817V17.8921C2.34375 17.6392 2.37078 17.3904 2.42359 17.149H13.0884C15.3152 17.149 17.1267 15.3375 17.1267 13.1109V2.44605C17.3681 2.3934 17.6169 2.36621 17.8698 2.36621H57.6023C59.5055 2.36621 61.0537 3.91449 61.0537 5.81762V25.9242C61.0537 26.5715 61.5783 27.0961 62.2256 27.0961C62.873 27.0961 63.3975 26.5715 63.3975 25.9242V5.81762C63.3975 2.62215 60.7978 0.0224609 57.6023 0.0224609H17.8697C16.3217 0.0224609 14.8663 0.625117 13.7717 1.71965L1.69719 13.7943C0.602656 14.8889 0 16.3442 0 17.8921V74.1817C0 77.3772 2.59969 79.9768 5.79516 79.9768H23.112C23.7594 79.9768 24.2839 79.4523 24.2839 78.805C24.2839 78.1576 23.7594 77.6331 23.112 77.6331ZM14.7828 4.02355V13.1109C14.7828 14.0451 14.0227 14.8053 13.0883 14.8053H4.00109L14.7828 4.02355Z" fill="#00B0F0"/>
</g>
<defs>
<clipPath id="clip0_1567_128303">
<rect width="80" height="80" fill="white"/>
</clipPath>
</defs>
</svg>
