<svg width="80" height="80" viewBox="0 0 80 80" fill="none" xmlns="http://www.w3.org/2000/svg">
<g clip-path="url(#clip0_1567_128328)">
<path d="M76.683 56.4403H68.0703V51.8557C68.0703 49.9611 67.5805 48.142 66.6981 46.5476C66.823 39.2409 66.2905 33.8201 67.5786 25.3795C67.8997 23.2756 68.1384 21.1328 68.2886 19.0104C68.3342 18.3648 67.848 17.8045 67.2023 17.7587C66.5536 17.7125 65.9963 18.1993 65.9506 18.8451C65.805 20.9046 65.5731 22.9842 65.2617 25.0259C63.9933 33.337 64.453 38.8948 64.3544 43.6304C60.8614 40.5468 53.6269 39.607 48.942 38.9992C48.5295 38.9456 48.2075 38.595 48.2075 38.1645V32.5914C50.7592 30.5811 52.1102 27.824 52.4487 24.5407H52.9434C54.7505 24.5407 56.2208 23.0706 56.2208 21.2634V18.9303C56.2208 17.7414 55.563 16.6645 54.5684 16.0906L54.5673 9.80777C54.567 8.51355 54.3119 7.27824 53.8531 6.14652H58.8705C62.8802 6.14652 66.1423 9.40871 66.1423 13.4184C66.1423 14.0656 66.6669 14.5903 67.3142 14.5903C67.9616 14.5903 68.4861 14.0656 68.4861 13.4184C68.4861 8.11637 64.1727 3.80277 58.8705 3.80277H52.4978C50.7059 1.50699 47.9158 0.0263672 44.785 0.0263672H35.2127C32.0814 0.0263672 29.2912 1.50699 27.4998 3.80309H21.1297C15.8277 3.80309 11.5141 8.11668 11.5141 13.4187C11.5141 17.4098 11.8194 21.434 12.4214 25.3795C13.7097 33.8237 13.177 39.2464 13.3019 46.5476C12.4194 48.1418 11.9297 49.9611 11.9297 51.8557V56.4403H3.31703C1.48797 56.4403 0 57.9282 0 59.7571V61.8771C0 63.2945 0.895156 64.5036 2.14844 64.9775V76.7709C2.14844 78.5365 3.585 79.9731 5.35063 79.9731H74.6494C76.4152 79.9731 77.8516 78.5365 77.8516 76.7709V64.9775C79.1048 64.5034 80 63.2943 80 61.8771V59.7571C80 57.9282 78.512 56.4403 76.683 56.4403ZM65.7266 51.8557V56.4403H60.4806V43.9214C63.7611 45.332 65.7266 48.4982 65.7266 51.8557ZM45.9378 56.4403L51.8992 41.8009C53.8644 42.1225 56.1762 42.5654 58.1369 43.1187V56.4403H45.9378ZM32.2677 41.0654L37.8184 45.3809C33.0783 47.7565 33.2745 47.7118 33.052 47.7453L30.4847 41.4409C31.3797 41.3167 31.7291 41.31 32.2677 41.0654ZM46.0583 49.9298L43.9592 55.0845L43.0811 51.5886L44.2672 49.0589C45.6552 49.7493 45.7109 49.8103 46.0583 49.9298ZM38.902 50.2971L37.8261 48.0025L40 46.9053L42.1739 48.0025L41.098 50.2971H38.902ZM35.7328 49.059L36.9189 51.5886L36.0408 55.0845L33.9417 49.9298C34.2913 49.8096 34.3586 49.7426 35.7328 49.059ZM39.0711 52.6409H40.9287L41.883 56.4403H38.1167L39.0711 52.6409ZM49.5152 41.4409L46.9478 47.7453C46.7798 47.72 47.1052 47.8657 42.1816 45.3809L47.7323 41.0654C48.2702 41.3096 48.5866 41.312 49.5152 41.4409ZM46.1027 39.3637L40 44.1082L33.8973 39.3637C34.0516 38.9854 34.1362 38.5786 34.1362 38.1645V34.0912C35.9392 35.0029 37.8961 35.477 39.987 35.5003H40C40 35.5003 40.0088 35.5003 40.013 35.5003C42.1039 35.477 44.0608 35.0028 45.8638 34.0912V38.1645C45.8638 38.5787 45.9484 38.9854 46.1027 39.3637ZM47.1958 30.3901C45.1658 32.1382 42.7545 33.1228 40 33.1565C37.2611 33.1229 34.8472 32.1492 32.8044 30.3901C30.462 28.3732 29.89 25.4718 29.8297 23.3565C29.8297 23.3501 29.8303 23.3439 29.8302 23.3375C29.8203 15.58 29.8239 18.41 29.8231 17.7665C30.9914 17.1734 31.7548 15.9589 31.7548 14.6325V10.1573C31.7548 9.55887 32.2417 9.07199 32.8403 9.07199H33.3264C35.1945 9.07199 36.3495 10.2409 40.1114 10.2409C43.8034 10.2409 45.0677 9.07199 46.8964 9.07199H47.1597C47.7581 9.07199 48.245 9.55887 48.245 10.1573V14.6325C48.245 15.9607 49.0105 17.177 50.1817 17.769V23.2843C50.1817 23.3548 50.1802 23.3546 50.1803 23.375C50.1173 25.4842 49.5402 28.3715 47.1958 30.3901ZM26.123 18.9304C26.123 18.4959 26.4306 18.1129 26.8547 18.0198C26.9241 18.0047 26.992 17.9968 27.0566 17.9968H27.4795L27.4827 22.197H27.0566C26.5419 22.197 26.123 21.7782 26.123 21.2634V18.9304ZM53.8769 21.2636C53.8769 21.7782 53.458 22.1971 52.9433 22.1971H52.5253V17.997H52.9433C53.0078 17.997 53.0758 18.0046 53.1452 18.02C53.5691 18.1132 53.8767 18.4961 53.8767 18.9306V21.2636H53.8769ZM35.2127 2.37012H44.785C48.8858 2.37012 52.2228 5.70684 52.2234 9.8084L52.2245 15.6532H51.1883C50.8238 15.4478 50.5888 15.0568 50.5888 14.6325V10.1573C50.5888 8.26652 49.0505 6.72824 47.1597 6.72824H46.8964C44.3667 6.72824 43.6475 7.89715 40.1114 7.89715C36.6189 7.89715 35.84 6.72824 33.3264 6.72824H32.8403C30.9494 6.72824 29.4111 8.26652 29.4111 10.1573V14.6325C29.4111 15.0568 29.1761 15.4478 28.8117 15.6532C28.7823 15.6532 27.7195 15.6532 27.7752 15.6532V9.80762C27.7752 5.70652 31.1116 2.37012 35.2127 2.37012ZM21.1297 6.14684H26.1448C25.6864 7.2784 25.4314 8.5134 25.4314 9.80762V16.0911C24.437 16.665 23.7792 17.7417 23.7792 18.9306V21.2637C23.7792 23.0707 25.2494 24.5411 27.0566 24.5411H27.5595C27.9133 28.0992 29.388 30.6973 31.7923 32.5915V38.1646C31.7923 38.5992 31.4653 38.9465 31.0577 38.9993C26.4194 39.6012 19.1455 40.5407 15.6455 43.6306C15.5466 38.8845 16.0123 33.3756 14.7381 25.0261C14.1539 21.197 13.8577 17.2917 13.8577 13.4187C13.8578 9.40887 17.12 6.14684 21.1297 6.14684ZM14.2734 51.8557C14.2734 48.4911 16.2463 45.3245 19.5305 43.9167V47.1898C19.5305 47.837 20.0552 48.3617 20.7023 48.3617C21.3495 48.3617 21.8742 47.837 21.8742 47.1898V43.1156C23.8325 42.5639 26.1394 42.1218 28.1009 41.8009C28.7941 43.5029 33.417 54.8553 34.0623 56.4403H21.8742V52.6684C21.8742 52.0212 21.3495 51.4965 20.7023 51.4965C20.0552 51.4965 19.5305 52.0212 19.5305 52.6684V56.4403H14.2734V51.8557ZM2.34375 59.7571C2.34375 59.2206 2.78031 58.784 3.31703 58.784H76.6831C77.2198 58.784 77.6564 59.2206 77.6564 59.7571V61.8771C77.6564 62.4139 77.2198 62.8504 76.6831 62.8504H3.31703C2.78031 62.8504 2.34375 62.4139 2.34375 61.8771V59.7571ZM74.6494 77.6295H5.35063C4.87734 77.6295 4.49219 77.2443 4.49219 76.771V65.1942H75.5078V76.771C75.5078 77.2443 75.1227 77.6295 74.6494 77.6295Z" fill="#00B0F0"/>
</g>
<defs>
<clipPath id="clip0_1567_128328">
<rect width="80" height="80" fill="white"/>
</clipPath>
</defs>
</svg>
