<svg width="80" height="80" viewBox="0 0 80 80" fill="none" xmlns="http://www.w3.org/2000/svg">
<g clip-path="url(#clip0_1567_128314)">
<path d="M70.8318 30.4229H50.6252C49.978 30.4229 49.4535 30.9475 49.4535 31.5946C49.4535 32.2416 49.9782 32.7663 50.6252 32.7663H70.8319C71.4791 32.7663 72.0037 32.2416 72.0037 31.5946C72.0037 30.9475 71.479 30.4229 70.8318 30.4229Z" fill="#00B0F0"/>
<path d="M70.8318 37.4883H50.6252C49.978 37.4883 49.4535 38.013 49.4535 38.66C49.4535 39.307 49.9782 39.8317 50.6252 39.8317H70.8319C71.4791 39.8317 72.0037 39.307 72.0037 38.66C72.0037 38.013 71.479 37.4883 70.8318 37.4883Z" fill="#00B0F0"/>
<path d="M72.0037 45.7245C72.0037 45.0773 71.479 44.5527 70.8319 44.5527H50.6252C49.978 44.5527 49.4535 45.0774 49.4535 45.7245C49.4535 46.3715 49.9782 46.8962 50.6252 46.8962H70.8319C71.479 46.8963 72.0037 46.3716 72.0037 45.7245Z" fill="#00B0F0"/>
<path d="M50.6252 51.6172C49.978 51.6172 49.4535 52.1419 49.4535 52.7889C49.4535 53.4359 49.9782 53.9606 50.6252 53.9606H60.7285C61.3757 53.9606 61.9002 53.4359 61.9002 52.7889C61.9002 52.1419 61.3755 51.6172 60.7285 51.6172H50.6252Z" fill="#00B0F0"/>
<path d="M77.9092 13.7798L65.8278 1.69844C64.7543 0.624219 63.2836 0 61.7278 0H21.9717C18.7748 0 16.174 2.60094 16.174 5.79781V17.7948C16.174 18.442 16.6987 18.9666 17.3457 18.9666C17.9928 18.9666 18.5175 18.4419 18.5175 17.7948V5.79781C18.5175 3.89312 20.067 2.34359 21.9717 2.34359H61.7278C61.9806 2.34359 62.2292 2.37063 62.4721 2.42422V13.0955C62.4721 15.323 64.2843 17.1352 66.5118 17.1352H77.1818C77.2359 17.3797 77.2635 17.6302 77.2635 17.8795V74.2023C77.2635 76.1069 75.714 77.6566 73.8093 77.6566H58.0675C59.4376 75.608 59.2195 72.8042 57.412 70.9967L46.7581 60.3428C45.9821 59.5669 44.8526 59.3584 43.8837 59.7119L41.59 57.4181C48.0612 48.4319 47.107 35.9984 39.1929 28.0842C30.4096 19.3011 15.9987 19.1261 7.04074 28.0842C-1.82364 36.9486 -1.82364 51.372 7.04074 60.2364C14.9479 68.1438 27.3932 69.0836 36.3739 62.6327L38.6684 64.9272C38.315 65.8961 38.5234 67.0256 39.2995 67.8016L49.1545 77.6566H21.9717C20.0671 77.6566 18.5175 76.107 18.5175 74.2023V70.4469C18.5175 69.7997 17.9928 69.2752 17.3457 69.2752C16.6987 69.2752 16.174 69.7998 16.174 70.4469V74.2023C16.174 77.3992 18.775 80 21.9717 80H73.8095C77.0064 80 79.6073 77.3991 79.6073 74.2023V17.8795C79.6073 16.3589 79.0039 14.8738 77.9092 13.7798ZM8.69808 58.5792C0.747456 50.6286 0.747456 37.692 8.69808 29.7412C16.75 21.6894 29.6731 21.8784 37.536 29.7412C44.857 37.0623 45.539 48.6944 39.1223 56.7984C38.1373 58.0423 37.0006 59.1795 35.7553 60.1655C27.7029 66.5409 16.0423 65.9234 8.69808 58.5792ZM38.2193 61.1548C38.882 60.565 39.514 59.9342 40.1157 59.2581L42.0454 61.1878L40.1443 63.0889L38.2148 61.1592C38.2164 61.1577 38.2178 61.1561 38.2193 61.1548ZM51.6104 76.7981L40.9567 66.1444C40.804 65.9917 40.8037 65.7438 40.9567 65.5906L40.9721 65.5752C40.9725 65.5748 40.9728 65.5747 40.9729 65.5744L44.5475 61.9998C44.7 61.8472 44.9486 61.8472 45.1012 61.9998L55.755 72.6537C56.8975 73.7964 56.8975 75.6555 55.755 76.7981C54.6095 77.9434 52.7559 77.9434 51.6104 76.7981ZM64.8157 13.0955V4.00063L75.6067 14.7916H66.512C65.5765 14.7916 64.8157 14.0306 64.8157 13.0955Z" fill="#00B0F0"/>
<path d="M49.2768 7.60352H26.0289C24.6392 7.60352 23.5085 8.73414 23.5085 10.1238V14.6149C23.5085 16.0046 24.6392 17.1352 26.0289 17.1352H49.2768C50.6665 17.1352 51.7971 16.0046 51.7971 14.6149V10.1238C51.797 8.73414 50.6664 7.60352 49.2768 7.60352ZM49.4534 14.6148C49.4534 14.7121 49.3742 14.7915 49.2767 14.7915H26.0289C25.9315 14.7915 25.8521 14.7123 25.8521 14.6148V10.1238C25.8521 10.0265 25.9314 9.94711 26.0289 9.94711H49.2768C49.3743 9.94711 49.4535 10.0263 49.4535 10.1238V14.6148H49.4534Z" fill="#00B0F0"/>
<path d="M35.8887 56.9319C42.9312 49.8896 42.9312 38.4307 35.8887 31.3883C28.8462 24.3458 17.3876 24.3458 10.3451 31.3883C7.60507 34.1285 5.84788 37.5955 5.26351 41.4149C5.1657 42.0546 5.60476 42.6525 6.2446 42.7504C6.8846 42.8486 7.48226 42.4091 7.58007 41.7693C8.08851 38.4468 9.61757 35.43 12.0021 33.0454C18.1307 26.9168 28.1027 26.9168 34.2315 33.0454C40.1118 38.9257 40.349 48.3438 34.9451 54.5108C34.4304 53.4635 33.5549 52.6107 32.4099 52.1066C31.0218 51.4955 28.6287 51.1071 27.1566 50.913L27.1504 49.4333C28.5729 48.386 29.5826 46.8054 29.8727 44.9766C30.1229 44.8727 30.3524 44.7191 30.549 44.5211C30.9413 44.1261 31.1552 43.6022 31.1516 43.0458C31.1412 41.4928 31.1426 38.9189 31.1426 37.4196C31.1426 36.0016 30.1094 34.8202 28.7565 34.5885C28.4968 33.27 27.3319 32.2725 25.9384 32.2725H20.2816C17.3655 32.2725 14.993 34.6449 14.993 37.561V43.0677C14.993 43.9225 15.5148 44.6579 16.2565 44.9721C16.5401 46.745 17.4996 48.2857 18.8544 49.3333L18.8613 50.9478C17.391 51.1543 15.0013 51.5629 13.618 52.1857C12.5662 52.6596 11.7441 53.4632 11.2382 54.4527C9.36476 52.2961 8.12429 49.6963 7.63241 46.8691C7.52148 46.2316 6.9146 45.8046 6.2771 45.9155C5.63945 46.0264 5.21257 46.6333 5.32351 47.2708C5.96288 50.9449 7.69929 54.2855 10.3452 56.9316C17.4185 64.0054 28.8774 63.9435 35.8887 56.9319ZM20.2816 34.6163H25.9384C26.2299 34.6163 26.4671 34.8535 26.4671 35.145C26.4671 36.1079 27.2504 36.8911 28.2132 36.8911H28.2705C28.5621 36.8911 28.7993 37.1283 28.7993 37.4199V38.0488L27.3829 37.916C25.9954 37.7861 24.5763 38.1152 23.3876 38.8432C22.7355 39.2424 21.9868 39.4535 21.2223 39.4535H17.3368V37.5614C17.3366 35.9374 18.6577 34.6163 20.2816 34.6163ZM17.3366 42.8175V41.7968H21.2221C22.419 41.7968 23.5909 41.4663 24.6115 40.8413C25.3709 40.3761 26.2774 40.1658 27.1638 40.2489L28.7998 40.4024C28.8007 41.1241 28.8026 42.0763 28.8066 42.8132C28.1543 42.9277 27.6466 43.4775 27.6068 44.1588C27.4673 46.5547 25.4735 48.4314 23.0679 48.4314C20.6673 48.4314 18.6705 46.5563 18.5219 44.1622C18.4801 43.4875 17.9802 42.9411 17.3366 42.8175ZM23.0679 50.775C23.6696 50.775 24.2538 50.696 24.8116 50.5502L24.8144 51.2036C24.8157 51.5068 24.8852 51.796 25.0084 52.056C24.4257 52.4491 23.7355 52.666 23.0119 52.6682C23.0084 52.6682 23.0048 52.6682 23.0012 52.6682C22.2843 52.6682 21.5993 52.4571 21.0187 52.0722C21.1396 51.8111 21.2074 51.5218 21.2062 51.2186L21.2032 50.518C21.7973 50.6854 22.4229 50.775 23.0679 50.775ZM13.073 56.2505C13.2432 55.3932 13.7905 54.6786 14.5802 54.3227C15.3774 53.9638 16.9129 53.6033 18.8466 53.3177C19.9513 54.4019 21.4305 55.0116 23.0007 55.0116H23.0185C24.6004 55.0069 26.0876 54.3841 27.191 53.2825C29.1273 53.5519 30.6657 53.8993 31.4659 54.2516C32.3626 54.6463 32.9423 55.3982 33.0843 56.3144C27.2854 61.0772 18.8485 61.0555 13.073 56.2505Z" fill="#00B0F0"/>
</g>
<defs>
<clipPath id="clip0_1567_128314">
<rect width="80" height="80" fill="white"/>
</clipPath>
</defs>
</svg>
