<svg width="31" height="31" viewBox="0 0 31 31" fill="none" xmlns="http://www.w3.org/2000/svg">
  <path d="M15.1111 0C23.4567 0 30.2222 6.76547 30.2222 15.1111C30.2222 23.4567 23.4567 30.2222 15.1111 30.2222C6.76547 30.2222 0 23.4567 0 15.1111C0 6.76547 6.76547 0 15.1111 0ZM15.1111 1.88889C7.80868 1.88889 1.88889 7.80868 1.88889 15.1111C1.88889 22.4135 7.80868 28.3333 15.1111 28.3333C22.4135 28.3333 28.3333 22.4135 28.3333 15.1111C28.3333 7.80868 22.4135 1.88889 15.1111 1.88889ZM21.7829 10.733C22.1323 11.0824 22.1507 11.6375 21.8381 12.0085L21.7829 12.0686L13.2829 20.5686C12.9335 20.918 12.3784 20.9364 12.0073 20.6238L11.9473 20.5686L7.69726 16.3186C7.32843 15.9498 7.32843 15.3518 7.69726 14.983C8.04667 14.6336 8.60176 14.6152 8.97283 14.9278L9.0329 14.983L12.6149 18.5649L20.4473 10.733C20.8161 10.3641 21.4141 10.3641 21.7829 10.733Z" fill="#04C000"/>
</svg>
