<svg width="80" height="80" viewBox="0 0 80 80" fill="none" xmlns="http://www.w3.org/2000/svg">
  <path d="M65.6085 10.5211C63.8621 10.0509 62.0361 10.292 60.4675 11.1998C57.2344 13.0713 56.1141 17.2295 57.97 20.4697C58.87 22.0409 60.3269 23.165 62.0726 23.635C62.6561 23.7922 63.2483 23.8698 63.8371 23.8698C65.0104 23.8698 66.1693 23.5609 67.2138 22.9564C70.4469 21.085 71.5672 16.9267 69.7113 13.6866C68.8111 12.1152 67.354 10.9911 65.6085 10.5211ZM66.0396 20.9278C65.0143 21.5209 63.8219 21.6786 62.6818 21.3719C61.5425 21.0652 60.5915 20.3311 60.0035 19.3048C58.7871 17.1809 59.5218 14.4552 61.6413 13.2283C62.3243 12.8331 63.0815 12.6313 63.848 12.6313C64.2321 12.6313 64.6186 12.6819 64.999 12.7842C66.1382 13.0909 67.0894 13.825 67.6774 14.8513C68.894 16.9753 68.1593 19.7011 66.0396 20.9278Z" fill="#015467"/>
  <path d="M79.0846 20.6523L76.9054 18.7747C77.0771 17.4825 77.0577 16.1867 76.8479 14.907L78.9011 13.1452C79.8096 12.3656 80.0376 11.0463 79.443 10.008L77.5579 6.71719C76.9605 5.67469 75.7051 5.20859 74.5729 5.60906L71.8636 6.56672C70.8399 5.78062 69.714 5.15547 68.5024 4.70047L68.0135 2.03953C67.7966 0.8575 66.7683 0 65.569 0C65.5691 0 65.5688 0 65.569 0L61.7821 0.00046875C60.5854 0.00078125 59.5552 0.856406 59.3329 2.03469L58.7968 4.87469C57.6171 5.36937 56.4824 6.05328 55.4927 6.86672L52.9547 5.96859C51.8254 5.56922 50.5693 6.03328 49.9683 7.07328L48.0671 10.3644C47.4672 11.4027 47.6899 12.723 48.5965 13.5039L50.7757 15.3816C50.6041 16.6736 50.6233 17.9694 50.8333 19.2492L48.7801 21.0111C47.8716 21.7906 47.6436 23.11 48.2382 24.1483L50.123 27.4389C50.7202 28.4814 51.9752 28.9478 53.1082 28.5472L55.8174 27.5895C56.8413 28.3756 57.9672 29.0008 59.1786 29.4558L59.6675 32.117C59.8847 33.2987 60.9132 34.1562 62.1127 34.1562L65.899 34.1558C67.0957 34.1555 68.1257 33.2998 68.3482 32.1214L68.8841 29.2814C70.0633 28.7866 71.1988 28.1028 72.1882 27.2894L74.7266 28.1875C75.856 28.5872 77.1121 28.1223 77.7126 27.0828L79.614 23.7916C80.2136 22.7534 79.9908 21.4333 79.0846 20.6523ZM77.5846 22.6192L75.6832 25.9105C75.6472 25.9728 75.5737 26.0009 75.5083 25.9781L72.3269 24.8523C71.9183 24.7077 71.4633 24.8005 71.1441 25.0933C70.0779 26.0708 68.8171 26.8333 67.4565 27.3231C67.0657 27.4636 66.7786 27.8005 66.7016 28.2084L66.0452 31.6869C66.0315 31.7594 65.9699 31.812 65.8987 31.812L62.1127 31.8125C62.0443 31.8125 61.9855 31.7623 61.9727 31.6933L61.3604 28.36C61.2819 27.9334 60.9741 27.5848 60.5605 27.4542C59.1719 27.0159 57.9086 26.3162 56.806 25.3747C56.4411 25.0962 56.0574 25.025 55.6544 25.1611L52.3269 26.3372C52.2618 26.3605 52.1916 26.3344 52.1569 26.2739L50.2721 22.9833C50.2355 22.9195 50.2497 22.838 50.3063 22.7895L52.8747 20.5855C53.2022 20.3045 53.3486 19.8664 53.2563 19.445C52.9446 18.0244 52.9215 16.5734 53.1874 15.1323C53.263 14.7227 53.1155 14.3036 52.8001 14.0319L50.1263 11.7283C50.0719 11.6814 50.0594 11.6009 50.0966 11.5367L51.9979 8.24562C52.0338 8.18344 52.1074 8.15516 52.1729 8.17781L55.3543 9.30359C55.7626 9.44797 56.2177 9.35531 56.5372 9.0625C57.603 8.08516 58.864 7.32203 60.2244 6.83281C60.6152 6.69234 60.9024 6.35547 60.9794 5.9475L61.636 2.46891C61.6496 2.39641 61.7113 2.34375 61.7826 2.34375H65.5688C65.6371 2.34375 65.6957 2.39375 65.7083 2.46297L66.3208 5.79625C66.3993 6.22281 66.7071 6.57141 67.1207 6.70203C68.5096 7.14047 69.7729 7.84 70.8752 8.78156C71.1933 9.05297 71.6321 9.13453 72.0268 8.99516L75.3543 7.81891C75.4202 7.79578 75.4896 7.82203 75.5243 7.88234L77.4091 11.173C77.4457 11.2367 77.4315 11.3183 77.3749 11.3667L74.8065 13.5708C74.479 13.8517 74.3326 14.2898 74.4249 14.7113C74.7365 16.1316 74.7597 17.5825 74.4937 19.0239C74.418 19.4336 74.5655 19.8527 74.881 20.1244L77.5547 22.428C77.609 22.4747 77.6215 22.5553 77.5846 22.6192Z" fill="#015467"/>
  <path d="M17.0038 42.207C17.0032 40.1256 15.2758 38.2858 13.1629 38.2953L12.5032 38.2936L12.4983 32.4325C12.4966 30.6527 9.72067 31.0723 10.1549 32.7319L10.1594 38.2875C9.03739 38.2845 7.9152 38.2816 6.79317 38.2786L6.77645 18.1936C6.7763 17.9859 6.72099 17.782 6.6163 17.603L3.82567 12.8309L3.82411 6.53641L13.0891 6.57953L13.0907 12.7986L10.3018 17.5927C10.1974 17.7719 10.1425 17.9755 10.1427 18.1828L10.1491 25.9091C9.75692 27.5398 12.4946 27.8281 12.493 26.1848L12.4868 18.4977L15.2755 13.7039C15.3797 13.5248 15.4346 13.3214 15.4346 13.1144L15.4315 1.17156C15.4315 0.567187 14.8733 0 14.2561 0L2.64739 0.0339062C2.01192 0.035625 1.48005 0.567344 1.47896 1.20312L1.48208 13.1489C1.48208 13.3567 1.53739 13.5608 1.64224 13.7402L4.43302 18.5125L4.44942 38.2723L3.7888 38.2706C-0.773857 38.2837 -1.35526 45.3225 3.13161 46.105L3.09349 69.4667C3.08333 76.6227 13.8319 76.5681 13.8416 69.4944L13.8799 46.0639C15.6566 45.7159 17.0044 44.1177 17.0038 42.207ZM3.82349 4.19266L3.82302 2.37422L13.0879 2.34703L13.0883 4.23578L3.82349 4.19266ZM8.48177 72.6314C6.81192 72.6314 5.43489 71.1066 5.43724 69.4706L5.47536 46.1578L11.536 46.1402L11.4979 69.4911C11.4955 71.2177 10.1424 72.6266 8.48177 72.6314ZM13.1579 43.7916L3.79005 43.8189C1.89489 43.8189 1.9113 40.6198 3.78911 40.6145L13.1632 40.6391C15.0436 40.6391 15.0571 43.7859 13.1579 43.7916Z" fill="#015467"/>
  <path d="M75.0265 66.4234L75.0241 61.242C75.0207 52.7352 71.1791 44.798 64.4847 39.4656C63.8163 38.933 62.6882 38.8789 61.9643 39.3453C59.4069 37.6091 56.6049 36.3494 53.6096 35.5917C53.7277 34.963 53.6004 34.0978 52.9777 33.7742C49.2496 31.8373 44.7988 31.8389 41.0725 33.7792C40.45 34.1033 40.3235 34.9695 40.4422 35.5983C39.0679 35.947 37.7341 36.4012 36.446 36.9591L36.5608 23.1612C41.3355 21.977 43.8572 18.892 43.8708 14.1903C43.886 8.9825 40.7946 2.98578 36.68 0.241719C35.6854 -0.160937 35.078 0.162812 34.858 1.21328L34.8296 10.9533C34.7868 11.4772 34.5083 11.7656 33.9943 11.8187L29.0519 11.7941C28.59 11.7917 28.2155 11.3977 28.2169 10.9153L28.2452 1.17516C28.0322 0.125313 27.4279 -0.202656 26.4318 0.19125C22.2997 2.89531 19.1722 8.86265 19.1571 14.0717C19.1435 18.7692 21.6444 21.8773 26.4063 23.1095L26.2768 42.5681C21.639 47.6645 19.0465 54.273 19.0494 61.2655L19.0516 66.4337C14.4307 67.8445 15.3243 74.9186 20.2644 74.9186C23.721 74.9186 26.9533 75.9462 29.9707 77.5666C33.0005 79.1586 36.4121 80 39.8369 80L54.2436 79.9939C57.6718 79.9923 61.0858 79.1481 64.1168 77.5523C67.1313 75.9134 70.3618 74.8975 73.819 74.8961C78.6919 74.8942 79.7243 67.7956 75.0265 66.4234ZM60.9794 41.5123L60.9852 55.2556C60.9855 55.9028 61.5101 56.427 62.1571 56.427C62.8044 56.4267 63.3293 55.9019 63.329 55.2547L63.3232 41.5403C69.2718 46.4222 72.6772 53.5811 72.6805 61.2431L72.6829 66.2402H63.3338L63.3316 61.4837C63.3313 60.8366 62.8068 60.3123 62.1597 60.3123C62.1599 60.3123 62.1596 60.3123 62.1597 60.3123C61.5124 60.3126 60.9875 60.8375 60.9879 61.4847L60.9899 66.2403H53.6227L53.6108 38.0169C56.2524 38.7541 58.7232 39.9262 60.9794 41.5123ZM51.266 35.5522L51.279 66.24H42.7991L42.7861 35.5556C45.4852 34.3709 48.5658 34.3697 51.266 35.5522ZM40.4552 66.2402H33.0882L33.0777 41.5241C35.3083 39.9531 37.8166 38.7589 40.4433 38.0233L40.4552 66.2402ZM21.501 14.0786C21.5115 10.4719 23.3346 6.31594 25.8943 3.67625L25.8733 10.9086C25.8682 12.6806 27.289 14.1292 29.0405 14.138L33.9829 14.1627C35.6913 14.1627 37.1686 12.6645 37.1735 10.9602L37.1946 3.73641C39.7391 6.4025 41.5379 10.5767 41.5272 14.1837C41.5161 18.0231 39.441 20.2731 35.1833 21.062C34.6315 21.1642 34.2296 21.6433 34.2249 22.2045L34.0924 38.1198C33.4096 38.5006 32.7427 38.9145 32.0908 39.358C31.3669 38.8922 30.2385 38.9469 29.5707 39.4803C29.2519 39.7347 28.9418 39.9967 28.636 40.2628L28.7563 22.1831C28.7599 21.6198 28.3624 21.1333 27.8093 21.0253C23.5532 20.1928 21.4897 17.9206 21.501 14.0786ZM30.7338 41.5539L30.7443 66.24H21.3952L21.393 61.2645C21.39 53.6026 24.7893 46.4408 30.7338 41.5539ZM75.265 71.9389C74.8832 72.3342 74.3691 72.552 73.8179 72.5523C69.9858 72.5539 66.375 73.6792 63.0247 75.4784C60.329 76.898 57.2922 77.6491 54.2427 77.6502L39.8449 77.6562C39.8419 77.6562 39.8397 77.6562 39.8369 77.6562C36.7905 77.6561 33.7557 76.9078 31.0608 75.4917C27.8147 73.7558 24.0124 72.3666 20.2644 72.5748C17.6386 72.5748 17.6897 68.5848 20.3463 68.5837H73.7326C75.3847 68.6823 76.5552 70.6036 75.265 71.9389Z" fill="#015467"/>
</svg>
