<svg width="80" height="80" viewBox="0 0 80 80" fill="none" xmlns="http://www.w3.org/2000/svg">
  <path d="M79.4596 10.4405L78.4478 6.14473C78.1445 4.85731 76.9675 3.99199 75.6477 4.08454C74.5433 4.16286 73.5873 4.92797 73.2689 5.98839L70.379 15.6132C70.3365 15.755 70.243 15.875 70.1162 15.9513L67.9658 17.243C67.8189 17.331 67.6414 17.3515 67.4784 17.2991L63.6161 16.0561L62.6814 13.508L65.8667 3.2927C66.0478 2.71191 65.9824 2.07375 65.6872 1.5419C65.3921 1.01005 64.8854 0.616705 64.2966 0.463028C63.8669 0.350779 63.418 0.368445 62.998 0.514149L61.29 1.10697C59.1307 1.8566 57.201 3.16794 55.7096 4.89905C55.287 5.38963 55.3421 6.13003 55.8328 6.55276C56.3235 6.97549 57.0638 6.92015 57.4865 6.42957C58.7084 5.01098 60.2896 3.93649 62.0592 3.32225L63.5639 2.79993L60.4203 12.8814C60.2821 13.3244 60.2938 13.8088 60.4539 14.2449L60.7839 15.1447L54.906 13.253C54.9176 12.2853 55.0596 11.3252 55.3338 10.3892C55.5159 9.7678 55.1598 9.11635 54.5383 8.93422C53.9171 8.75194 53.2655 9.10822 53.0833 9.72966C52.8166 10.6398 52.6511 11.5691 52.5877 12.5068L51.0596 12.015C50.0134 11.6784 48.9039 11.7787 47.935 12.2973C46.9662 12.816 46.2674 13.6839 45.9677 14.7411L42.178 28.1047L21.4407 48.8423L3.50372 63.0865C1.43727 64.7275 0.165641 67.1797 0.0150895 69.8142C-0.135618 72.4486 0.848201 75.0297 2.71407 76.8956C4.4547 78.6364 6.81897 79.6097 9.26781 79.6096C9.43931 79.6096 9.61127 79.6049 9.7834 79.5952C12.4134 79.4482 14.8645 78.1833 16.508 76.1247L30.809 58.2126L51.5286 37.493L64.7092 34.3516C67.1332 33.7737 69.3929 32.7666 71.4255 31.358C71.9579 30.9893 72.0903 30.2587 71.7215 29.7265C71.3528 29.1942 70.6223 29.0616 70.09 29.4306C68.2979 30.6724 66.3046 31.5605 64.1655 32.0705L50.6623 35.2886C50.4513 35.339 50.2585 35.4468 50.1051 35.6002L29.1047 56.6008C29.0739 56.6316 29.0447 56.6642 29.0175 56.6983L14.6753 74.6617C13.4477 76.1993 11.6171 77.1442 9.65255 77.2539C7.68741 77.3638 5.76355 76.6286 4.37232 75.2375C2.97859 73.8438 2.24381 71.9158 2.35637 69.9481C2.46893 67.9804 3.41867 66.1488 4.96217 64.923L22.9517 50.637C22.9867 50.6092 23.02 50.5795 23.0516 50.5479L44.052 29.5474C44.1935 29.4059 44.2963 29.2306 44.3509 29.0382L48.2238 15.3812C48.3485 14.9416 48.639 14.5806 49.0419 14.365C49.4448 14.1494 49.9061 14.1077 50.3412 14.2476L66.7599 19.5314C67.5667 19.7913 68.4464 19.6899 69.1731 19.2533L71.3235 17.9617C71.9519 17.5841 72.4141 16.9897 72.6248 16.2876L75.515 6.66282C75.555 6.52963 75.6749 6.43364 75.8137 6.42379C75.9794 6.41331 76.1272 6.52103 76.1653 6.68252L77.1771 10.9783C78.4519 16.3903 77.1412 21.9501 73.5808 26.232C73.1668 26.7299 73.2348 27.4692 73.7327 27.8832C74.2305 28.2972 74.9698 28.2293 75.384 27.7312C79.4193 22.8779 80.9048 16.5757 79.4596 10.4405Z" fill="#015467"/>
  <path d="M7.57813 67.4726C7.08411 67.0541 6.34418 67.1153 5.92551 67.6093C4.56977 69.2092 4.66951 71.6243 6.15266 73.1073L6.54491 73.4997C7.33722 74.292 8.3781 74.6881 9.41898 74.6881C10.4599 74.6881 11.5007 74.292 12.2931 73.4995L15.2226 70.5701C15.9902 69.8024 16.413 68.7816 16.413 67.6961C16.413 66.6105 15.9902 65.5897 15.2225 64.8221L14.8304 64.4299C13.4881 63.0876 11.3557 62.8584 9.76011 63.8849C9.21559 64.2352 9.058 64.9606 9.40835 65.5053C9.7587 66.0501 10.4841 66.2076 11.0288 65.8571C11.703 65.4234 12.6046 65.5203 13.1721 66.0881L13.5644 66.4804C13.8891 66.8051 14.0679 67.2369 14.0679 67.6961C14.0679 68.1554 13.8891 68.5872 13.5644 68.912L10.635 71.8414C9.96444 72.512 8.87368 72.512 8.20316 71.8416L7.81092 71.4493C7.18401 70.8224 7.14164 69.8016 7.71477 69.1254C8.13328 68.6312 8.07215 67.8913 7.57813 67.4726Z" fill="#015467"/>
  <path d="M18.0309 59.9632L16.8093 61.1847C16.3514 61.6426 16.3514 62.3849 16.8093 62.8428C17.0381 63.0718 17.3383 63.1862 17.6383 63.1862C17.9383 63.1862 18.2385 63.0718 18.4674 62.8428L19.689 61.6213C20.1469 61.1634 20.1469 60.4211 19.689 59.9632C19.2312 59.5053 18.4888 59.5053 18.0309 59.9632Z" fill="#015467"/>
  <path d="M44.4988 33.4953L21.8314 56.1627C21.3735 56.6206 21.3735 57.363 21.8314 57.8208C22.0603 58.0497 22.3604 58.1643 22.6604 58.1643C22.9605 58.1643 23.2606 58.0498 23.4895 57.8208L46.1569 35.1534C46.6148 34.6955 46.6148 33.9531 46.1569 33.4953C45.6991 33.0376 44.9567 33.0376 44.4988 33.4953Z" fill="#015467"/>
  <path d="M61.2079 20.6423L53.6408 18.2556C52.9411 18.035 52.1974 18.0999 51.5465 18.4386C50.8957 18.7774 50.4158 19.3493 50.195 20.049L48.8879 24.1932C48.6672 24.8929 48.7322 25.6366 49.071 26.2875C49.4098 26.9384 49.9816 27.4184 50.6814 27.6391L58.2485 30.0259C58.5224 30.1124 58.7999 30.1533 59.073 30.1533C60.2399 30.1533 61.3252 29.4031 61.6944 28.2324L63.0014 24.0883C63.2222 23.3885 63.1573 22.6447 62.8185 21.9939C62.4797 21.343 61.9077 20.8631 61.2079 20.6423ZM51.151 25.205C51.1223 25.1498 51.0807 25.0366 51.1243 24.8986L52.4314 20.7544C52.4749 20.6164 52.574 20.5476 52.6292 20.5188C52.6844 20.4901 52.7972 20.4485 52.9354 20.4921L55.6008 21.3327L54.052 26.2434L51.3866 25.4028C51.2486 25.3591 51.1798 25.2602 51.151 25.205ZM60.7649 23.3829L59.4577 27.527C59.3911 27.7384 59.1649 27.856 58.9537 27.7894L56.2884 26.9488L57.8372 22.0383L60.5025 22.8789C60.6407 22.9223 60.7094 23.0215 60.7381 23.0765C60.7669 23.1317 60.8085 23.2447 60.7649 23.3829Z" fill="#015467"/>
</svg>
