<svg width="18" height="20" viewBox="0 0 18 20" fill="none" xmlns="http://www.w3.org/2000/svg">
<path fill-rule="evenodd" clip-rule="evenodd" d="M14.6852 2.81931C13.47 1.59304 11.5031 1.59304 10.2879 2.81931L3.90251 9.26268C1.89913 11.2843 1.89913 14.5652 3.90251 16.5868C5.87534 18.5776 9.16944 18.5741 11.1409 16.5837L14.4638 13.263C14.8154 12.9116 15.3852 12.9118 15.7366 13.2634C16.0879 13.615 16.0877 14.1849 15.7362 14.5362L12.4148 17.8554C9.71152 20.5815 5.3266 20.581 2.62398 17.8538C-0.0746906 15.1306 -0.0746911 10.7188 2.62398 7.99566L9.00933 1.55229C10.9288 -0.384617 14.0443 -0.384617 15.9637 1.55229C17.8787 3.48468 17.8787 6.61436 15.9637 8.54675L9.57838 14.9901C8.44259 16.1362 6.5977 16.1362 5.46191 14.9901C4.33059 13.8485 4.33059 12.001 5.46191 10.8594L9.04443 7.27684C9.3959 6.92537 9.96575 6.92537 10.3172 7.27684C10.6687 7.62831 10.6687 8.19816 10.3172 8.54963C9.12462 9.74223 7.92431 10.9276 6.73919 12.1277C6.30442 12.5678 6.30483 13.2835 6.74044 13.7231C7.172 14.1586 7.86829 14.1586 8.29984 13.7231L14.6852 7.27973C15.9049 6.04894 15.9049 4.0501 14.6852 2.81931Z" fill="#99A2AD"/>
</svg>
