<svg width="64" height="64" viewBox="0 0 64 64" fill="none" xmlns="http://www.w3.org/2000/svg">
<g clip-path="url(#clip0_1567_128280)">
<path d="M34.7722 29.3484H45.7498C46.2676 29.3484 46.6873 28.9287 46.6873 28.4109C46.6873 27.893 46.2676 27.4734 45.7498 27.4734H35.0406V18.3896L38.0643 22.3314C38.3648 22.7229 38.8388 22.9566 39.3324 22.9566H41.0164V23.5399C41.0164 24.1322 41.4983 24.6142 42.0906 24.6142H45.1323C45.7247 24.6142 46.2066 24.1323 46.2066 23.5399V22.9566H48.2166C48.5081 22.9566 48.783 22.8209 48.9605 22.5897L52.1824 18.3896V27.4732H50.125C49.6072 27.4732 49.1875 27.8929 49.1875 28.4107C49.1875 28.9286 49.6072 29.3483 50.125 29.3483H52.4506C53.3365 29.3483 54.0573 28.6275 54.0573 27.7415V16.2962C54.0573 15.4185 53.3461 14.6895 52.4506 14.6895H47.2253V12.0394C47.2253 11.4108 46.7139 10.8994 46.0853 10.8994H41.1374C40.5087 10.8994 39.9974 11.4108 39.9974 12.0394V14.6895H34.772C33.8853 14.6895 33.1654 15.411 33.1654 16.2962V27.7415C33.1655 28.6277 33.8862 29.3484 34.7722 29.3484ZM44.3315 22.7392H42.8914C42.8914 21.2584 42.8914 22.7574 42.8914 21.299H44.3315V22.7392ZM47.7541 21.0815H46.2066V20.4982C46.2066 19.9049 45.7237 19.4239 45.1323 19.4239C41.8166 19.4239 42.0511 19.4201 41.954 19.4325C41.4245 19.5003 41.0164 19.9534 41.0164 20.4983V21.0815H39.4687L36.0038 16.5647H51.2191L47.7541 21.0815ZM41.8725 12.7747H45.3503V14.6897H41.8725V12.7747Z" fill="#00B0F0"/>
<path d="M43.6114 0C36.356 0 29.8948 3.80904 26.2667 9.66636C25.9941 10.1065 26.1298 10.6844 26.5699 10.957C27.0103 11.2298 27.5881 11.0939 27.8607 10.6536C31.2657 5.15681 37.1538 1.87502 43.6114 1.87502C53.8199 1.87502 62.125 10.1801 62.125 20.3885C62.125 30.597 53.8199 38.9021 43.6114 38.9021C33.4029 38.9021 25.0978 30.597 25.0978 20.3885C25.0978 18.3387 25.4303 16.3253 26.0861 14.4043C26.2533 13.9143 25.9917 13.3814 25.5017 13.2142C25.0118 13.0468 24.4789 13.3085 24.3115 13.7985C22.2786 19.7539 23.0733 26.5181 26.8251 31.949L25.5079 33.2661C25.1458 33.0384 24.6617 33.082 24.3464 33.3973C24.031 33.7126 23.9873 34.1968 24.2152 34.5589L21.6596 37.1143C21.0704 36.6653 20.223 36.7097 19.6849 37.2476C18.0535 38.8792 1.36414 55.5686 0.43988 56.4929C-0.146627 57.0794 -0.146627 58.0338 0.43988 58.6204L5.37981 63.5604C5.96657 64.147 6.92058 64.1466 7.50721 63.5604L18.7843 52.2831C19.1505 51.9169 19.1505 51.3234 18.7843 50.9572C18.4182 50.5912 17.8246 50.5912 17.4586 50.9572L6.44345 61.9724L2.0279 57.5568L18.0818 41.5029L22.4974 45.9185L20.5579 47.8581C20.1917 48.2243 20.1917 48.8178 20.5579 49.184C20.9241 49.5501 21.5176 49.55 21.8836 49.184C22.6818 48.3858 25.6506 45.417 26.7523 44.3153C27.2903 43.7773 27.3348 42.9298 26.8857 42.3405L29.4411 39.785C29.8048 40.0137 30.2885 39.9678 30.6026 39.6538C30.918 39.3385 30.9617 38.8545 30.7339 38.4922L32.0509 37.1752C35.3383 39.4462 39.3222 40.7775 43.6113 40.7775C54.8536 40.7775 63.9999 31.6311 63.9999 20.3889C63.9999 9.14661 54.8538 0 43.6114 0V0ZM22.9953 38.4306L25.5245 35.9013L28.0987 38.4754L25.5694 41.0047L22.9953 38.4306ZM23.8232 44.5924L19.4075 40.1767L20.7486 38.8356C21.9536 40.0406 18.3477 36.4344 25.1643 43.2511L23.8232 44.5924ZM29.4246 37.1496L26.8504 34.5754L27.9712 33.4546C28.7513 34.3869 29.613 35.2487 30.5452 36.0287L29.4246 37.1496Z" fill="#00B0F0"/>
<path d="M43.6114 37.1809C52.8706 37.1809 60.4035 29.648 60.4035 20.3888C60.4035 11.1296 52.8705 3.59668 43.6114 3.59668C34.3523 3.59668 26.8193 11.1296 26.8193 20.3888C26.8193 29.6481 34.3522 37.1809 43.6114 37.1809ZM43.6114 5.4717C51.8368 5.4717 58.5285 12.1634 58.5285 20.3888C58.5285 28.6141 51.8366 35.3059 43.6114 35.3059C35.3862 35.3059 28.6944 28.6141 28.6944 20.3888C28.6944 12.1634 35.3861 5.4717 43.6114 5.4717Z" fill="#00B0F0"/>
<path d="M33.7211 12.5244C34.101 12.8759 34.6944 12.8529 35.0459 12.4728C37.2518 10.0876 40.3738 8.71975 43.6114 8.71975C44.1291 8.71975 44.5489 8.30012 44.5489 7.78224C44.5489 7.26436 44.1291 6.84473 43.6114 6.84473C39.8528 6.84473 36.229 8.432 33.6694 11.1997C33.3179 11.5798 33.341 12.1729 33.7211 12.5244Z" fill="#00B0F0"/>
</g>
<defs>
<clipPath id="clip0_1567_128280">
<rect width="64" height="64" fill="white"/>
</clipPath>
</defs>
</svg>
