<svg width="72" height="80" viewBox="0 0 72 80" fill="none" xmlns="http://www.w3.org/2000/svg">
  <path d="M71.5814 22.0062C71.5814 18.0866 70.2121 14.2634 67.7253 11.2413C67.3141 10.7419 66.5757 10.6698 66.0758 11.0809C65.576 11.4922 65.5043 12.2306 65.9155 12.7306C68.0579 15.3342 69.2377 18.6284 69.2377 22.0062C69.2377 25.1447 68.2429 28.0552 66.5524 30.4391C65.6689 27.6905 63.2666 25.6181 60.3378 25.2131C61.9572 23.6897 62.9714 21.53 62.9714 19.1366C62.9714 14.5344 59.2274 10.7903 54.625 10.7903C50.0227 10.7903 46.2786 14.5344 46.2786 19.1366C46.2786 21.53 47.2929 23.6898 48.9122 25.2131C45.9836 25.618 43.5811 27.6903 42.6977 30.4387C41.0074 28.0547 40.0125 25.1445 40.0125 22.0061C40.0125 13.9495 46.5677 7.39516 54.625 7.39516C57.2519 7.39516 59.8271 8.10016 62.0718 9.43375C62.6282 9.76469 63.3472 9.58109 63.6778 9.025C64.0085 8.46844 63.8254 7.74953 63.2689 7.41891C62.4574 6.93672 61.6088 6.52547 60.733 6.1875C60.1139 2.66125 57.0161 0 53.3627 0H7.90488C3.77707 0 0.418945 3.35813 0.418945 7.48594V72.5141C0.418945 76.6419 3.77707 80 7.90488 80H53.3627C57.4896 80 60.8471 76.6419 60.8471 72.5141V51.4281C60.8471 50.7808 60.3224 50.2563 59.6752 50.2563C59.028 50.2563 58.5033 50.7808 58.5033 51.4281V72.5141C58.5033 75.3494 56.1972 77.6562 53.3627 77.6562H7.90488C5.06957 77.6562 2.7627 75.3494 2.7627 72.5141V7.48594C2.7627 4.65063 5.06941 2.34375 7.90488 2.34375H53.3627C55.4408 2.34375 57.2566 3.59719 58.0611 5.40297C56.9361 5.17078 55.785 5.05156 54.6252 5.05156C54.246 5.05156 8.22051 5.05156 8.22051 5.05156C6.7041 5.05156 5.47051 6.28531 5.47051 7.80156V16.4023C5.47051 17.0497 5.9952 17.5742 6.64238 17.5742C7.28957 17.5742 7.81426 17.0497 7.81426 16.4023V7.80156C7.81426 7.5775 7.9966 7.39531 8.22051 7.39531H46.0325C41.0314 10.3472 37.6689 15.7909 37.6689 22.0062C37.6689 30.962 44.6483 38.3173 53.4533 38.9214V72.1984C53.4533 72.4225 53.271 72.6047 53.0471 72.6047H8.22051C7.99645 72.6047 7.81426 72.4225 7.81426 72.1984V21.8711C7.81426 21.2238 7.28957 20.6992 6.64238 20.6992C5.9952 20.6992 5.47051 21.2238 5.47051 21.8711V72.1984C5.47051 73.7147 6.70426 74.9484 8.22051 74.9484H53.0471C54.5635 74.9484 55.7971 73.7147 55.7971 72.1984V38.9214C56.7211 38.858 57.6254 38.7208 58.5033 38.5145V45.9594C58.5033 46.6067 59.028 47.1313 59.6752 47.1313C60.3224 47.1313 60.8471 46.6067 60.8471 45.9594V37.7803C67.1277 35.2942 71.5814 29.1606 71.5814 22.0062ZM48.6225 19.1367C48.6225 15.8269 51.3152 13.1342 54.6252 13.1342C57.9352 13.1342 60.6279 15.8269 60.6279 19.1367C60.6279 22.4467 57.9352 25.1394 54.6252 25.1394C51.3152 25.1394 48.6225 22.4466 48.6225 19.1367ZM49.9618 27.4831H59.2885C62.1799 27.4831 64.5352 29.8175 64.5719 32.7003C61.9614 35.13 58.4643 36.6189 54.6254 36.6189C50.7863 36.6189 47.2889 35.13 44.6785 32.7002C44.715 29.8173 47.0704 27.4831 49.9618 27.4831Z" fill="#00B0F0"/>
  <path d="M33.7905 10.1016H11.6932C11.046 10.1016 10.5213 10.6261 10.5213 11.2734V16.3242C10.5213 16.9716 11.046 17.4961 11.6932 17.4961H33.7905C34.4377 17.4961 34.9624 16.9716 34.9624 16.3242V11.2734C34.9624 10.6262 34.4377 10.1016 33.7905 10.1016ZM32.6186 15.1525H12.865V12.4453H32.6186V15.1525Z" fill="#00B0F0"/>
  <path d="M10.5213 26.4259C10.5213 27.0733 11.046 27.5978 11.6932 27.5978H16.7439C17.3911 27.5978 17.9158 27.0733 17.9158 26.4259V21.3752C17.9158 20.7278 17.3911 20.2033 16.7439 20.2033H11.6932C11.046 20.2033 10.5213 20.7278 10.5213 21.3752V26.4259ZM12.865 22.547H15.5721V25.2541H12.865V22.547Z" fill="#00B0F0"/>
  <path d="M21.7947 22.547H33.7904C34.4375 22.547 34.9622 22.0225 34.9622 21.3752C34.9622 20.7278 34.4375 20.2033 33.7904 20.2033H21.7947C21.1475 20.2033 20.6229 20.7278 20.6229 21.3752C20.6229 22.0225 21.1475 22.547 21.7947 22.547Z" fill="#00B0F0"/>
  <path d="M21.7947 27.5978H28.7396C29.3868 27.5978 29.9114 27.0733 29.9114 26.4259C29.9114 25.7786 29.3868 25.2541 28.7396 25.2541H21.7947C21.1475 25.2541 20.6229 25.7786 20.6229 26.4259C20.6229 27.0733 21.1475 27.5978 21.7947 27.5978Z" fill="#00B0F0"/>
  <path d="M10.5213 36.5275C10.5213 37.1748 11.046 37.6994 11.6932 37.6994H16.7439C17.3911 37.6994 17.9158 37.1748 17.9158 36.5275V31.4767C17.9158 30.8294 17.3911 30.3048 16.7439 30.3048H11.6932C11.046 30.3048 10.5213 30.8294 10.5213 31.4767V36.5275ZM12.865 32.6486H15.5721V35.3556H12.865V32.6486Z" fill="#00B0F0"/>
  <path d="M21.7947 32.6486H33.7904C34.4375 32.6486 34.9622 32.1241 34.9622 31.4767C34.9622 30.8294 34.4375 30.3048 33.7904 30.3048H21.7947C21.1475 30.3048 20.6229 30.8294 20.6229 31.4767C20.6229 32.1241 21.1475 32.6486 21.7947 32.6486Z" fill="#00B0F0"/>
  <path d="M21.7947 37.6994H28.7396C29.3868 37.6994 29.9114 37.1748 29.9114 36.5275C29.9114 35.8802 29.3868 35.3556 28.7396 35.3556H21.7947C21.1475 35.3556 20.6229 35.8802 20.6229 36.5275C20.6229 37.1748 21.1475 37.6994 21.7947 37.6994Z" fill="#00B0F0"/>
  <path d="M10.5213 46.6292C10.5213 47.2766 11.046 47.8011 11.6932 47.8011H16.7439C17.3911 47.8011 17.9158 47.2766 17.9158 46.6292V41.5784C17.9158 40.9311 17.3911 40.4066 16.7439 40.4066H11.6932C11.046 40.4066 10.5213 40.9311 10.5213 41.5784V46.6292ZM12.865 42.7503H15.5721V45.4573H12.865V42.7503Z" fill="#00B0F0"/>
  <path d="M21.7947 42.7503H33.7904C34.4375 42.7503 34.9622 42.2258 34.9622 41.5784C34.9622 40.9311 34.4375 40.4066 33.7904 40.4066H21.7947C21.1475 40.4066 20.6229 40.9311 20.6229 41.5784C20.6229 42.2258 21.1475 42.7503 21.7947 42.7503Z" fill="#00B0F0"/>
  <path d="M21.7947 47.8011H28.7396C29.3868 47.8011 29.9114 47.2766 29.9114 46.6292C29.9114 45.9819 29.3868 45.4573 28.7396 45.4573H21.7947C21.1475 45.4573 20.6229 45.9819 20.6229 46.6292C20.6229 47.2766 21.1475 47.8011 21.7947 47.8011Z" fill="#00B0F0"/>
  <path d="M10.5213 56.7308C10.5213 57.3781 11.046 57.9027 11.6932 57.9027H16.7439C17.3911 57.9027 17.9158 57.3781 17.9158 56.7308V51.68C17.9158 51.0327 17.3911 50.5081 16.7439 50.5081H11.6932C11.046 50.5081 10.5213 51.0327 10.5213 51.68V56.7308ZM12.865 52.8519H15.5721V55.5589H12.865V52.8519Z" fill="#00B0F0"/>
  <path d="M34.9624 51.68C34.9624 51.0327 34.4377 50.5081 33.7905 50.5081H21.7949C21.1477 50.5081 20.623 51.0327 20.623 51.68C20.623 52.3273 21.1477 52.8519 21.7949 52.8519H33.7905C34.4377 52.8519 34.9624 52.3273 34.9624 51.68Z" fill="#00B0F0"/>
  <path d="M21.7947 55.5589C21.1475 55.5589 20.6229 56.0834 20.6229 56.7308C20.6229 57.3781 21.1475 57.9027 21.7947 57.9027H28.7396C29.3868 57.9027 29.9114 57.3781 29.9114 56.7308C29.9114 56.0834 29.3868 55.5589 28.7396 55.5589H21.7947Z" fill="#00B0F0"/>
  <path d="M34.35 68.0044H49.5025C50.1497 68.0044 50.6744 67.4798 50.6744 66.8325V61.7817C50.6744 61.1344 50.1497 60.6098 49.5025 60.6098H34.35C33.7028 60.6098 33.1782 61.1344 33.1782 61.7817V66.8325C33.1782 67.4797 33.7028 68.0044 34.35 68.0044ZM35.5219 62.9534H48.3307V65.6605H35.5219V62.9534Z" fill="#00B0F0"/>
</svg>
