<svg width="80" height="74" viewBox="0 0 80 74" fill="none" xmlns="http://www.w3.org/2000/svg">
  <path d="M61.403 62.1782C60.7552 62.1782 60.2302 62.7032 60.2302 63.351C60.2302 63.9987 60.7552 64.5238 61.403 64.5238H65.3122C65.96 64.5238 66.485 63.9988 66.485 63.351C66.485 62.7034 65.96 62.1782 65.3122 62.1782H61.403Z" fill="#00B0F0"/>
  <path d="M61.403 47.4009H65.3122C65.96 47.4009 66.485 46.8759 66.485 46.228C66.485 45.5804 65.96 45.0552 65.3122 45.0552H61.403C60.7552 45.0552 60.2302 45.5802 60.2302 46.228C60.2303 46.8759 60.7553 47.4009 61.403 47.4009Z" fill="#00B0F0"/>
  <path d="M77.097 0.837891H45.6689C44.0681 0.837891 42.7659 2.14008 42.7659 3.74086V9.39477C42.7659 10.0424 43.2909 10.5676 43.9388 10.5676C44.5866 10.5676 45.1116 10.0426 45.1116 9.39477V3.74086C45.1116 3.43352 45.3617 3.18336 45.6691 3.18336H77.097C77.4044 3.18336 77.6545 3.43336 77.6545 3.74086V19.9698H45.1114V14.8774C45.1114 14.2298 44.5864 13.7046 43.9386 13.7046C43.2908 13.7046 42.7658 14.2296 42.7658 14.8774V24.2901C42.7658 25.8909 44.068 27.193 45.6688 27.193H56.3175L55.5077 30.9549H41.265C41.138 29.0043 40.3455 27.1266 39.0013 25.6637C37.3492 23.8655 35.0923 22.8752 32.6464 22.8752H21.2836C18.8377 22.8752 16.5808 23.8655 14.9288 25.6637C13.5847 27.1268 12.792 29.0043 12.665 30.9549H2.44609C1.09734 30.9551 0 32.0524 0 33.4012V36.3171C0 37.666 1.09734 38.7632 2.44609 38.7632H3.95609V70.8154C3.95609 72.109 5.00859 73.1613 6.30203 73.1613H8.77453C10.0681 73.1613 11.1205 72.1088 11.1205 70.8154V38.7632H14.0636L15.6091 45.6121C16.2091 48.2707 18.5316 50.1276 21.257 50.1276H22.687L22.9087 51.967H19.1683C16.5122 51.967 14.3512 54.1279 14.3512 56.784C14.3512 58.3512 15.6263 59.6262 17.1934 59.6262H25.8442V67.483H23.3366C20.6663 67.483 18.2697 69.0724 17.2313 71.5323C16.9792 72.129 17.2588 72.817 17.8555 73.0688C18.45 73.3201 19.1392 73.0432 19.392 72.4446C20.063 70.8554 21.6114 69.8285 23.3367 69.8285H30.747C32.4722 69.8285 34.0205 70.8554 34.6917 72.4448C34.9439 73.0415 35.6316 73.3207 36.2284 73.0688C36.825 72.8168 37.1045 72.1288 36.8525 71.5321C35.8136 69.0724 33.4173 67.4829 30.7472 67.4829H28.19V59.6263H36.7366C38.3037 59.6263 39.5789 58.3513 39.5789 56.7841C39.5789 54.128 37.418 51.9671 34.7619 51.9671H31.0212L31.243 50.1277H32.6731C35.3986 50.1277 37.7211 48.271 38.3209 45.6123L39.8664 38.7634H50.8433V70.6177C50.8433 72.0204 51.9844 73.1615 53.387 73.1615H73.3281C74.7308 73.1615 75.8719 72.0204 75.8719 70.6177V66.086C75.8719 65.4384 75.3469 64.9132 74.6991 64.9132C74.0513 64.9132 73.5262 65.4382 73.5262 66.086V70.6177C73.5262 70.727 73.4373 70.816 73.328 70.816H53.3872C53.2778 70.816 53.1889 70.7271 53.1889 70.6177V55.8863H73.5264V60.6113C73.5264 61.259 74.0514 61.7841 74.6992 61.7841C75.347 61.7841 75.872 61.2591 75.872 60.6113V38.7632H77.4934C78.8423 38.7632 79.9395 37.6659 79.9395 36.3171V33.4012C79.9395 32.0523 78.8422 30.9551 77.4934 30.9551H67.2581L66.4483 27.1932H77.097C78.6978 27.1932 80 25.8909 80 24.2902V3.74086C80 2.14008 78.6978 0.837891 77.097 0.837891ZM8.77469 70.8159L6.30156 70.8154V38.7632H8.775L8.77469 70.8159ZM2.44609 36.4177C2.39062 36.4177 2.34547 36.3726 2.34547 36.3171V33.4012C2.34547 33.3457 2.39062 33.3005 2.44609 33.3005H12.8333C12.8872 33.5566 13.2078 34.967 13.5345 36.4177H2.44609ZM37.2333 56.784C37.2333 57.0579 37.0105 57.2807 36.7366 57.2807H17.1938C16.9198 57.2807 16.697 57.0579 16.697 56.784C16.697 55.4212 17.8058 54.3124 19.1686 54.3124H34.7619C36.1245 54.3124 37.2333 55.4212 37.2333 56.784ZM28.6586 51.967H25.2716L25.0498 50.1276H28.8803L28.6586 51.967ZM36.033 45.0959C35.6761 46.6774 34.2945 47.7821 32.6731 47.7821H21.2572C19.6358 47.7821 18.2541 46.6776 17.8972 45.0959L15.145 32.899C14.6759 30.8221 15.2995 28.7271 16.6559 27.2507C17.8586 25.9418 19.502 25.2209 21.2836 25.2209H32.6464C34.428 25.2209 36.0716 25.9418 37.2741 27.2507C38.6873 28.7891 39.2353 30.9041 38.785 32.8991L37.78 37.3526L37.7794 37.3551L36.033 45.0959ZM73.5264 53.5407H53.1889V38.7634H73.5264V53.5407ZM77.5941 33.4012V36.3171C77.5941 36.3726 77.5489 36.4177 77.4934 36.4177H40.3958C40.8147 34.5573 41.0327 33.6068 41.097 33.3005H77.4934C77.5488 33.3005 77.5941 33.3457 77.5941 33.4012ZM64.8587 30.9551H57.907L58.7169 27.1932H64.0489L64.8587 30.9551ZM77.097 24.8476C76.2523 24.8476 46.5127 24.8476 45.6691 24.8476C45.3617 24.8476 45.1116 24.5974 45.1116 24.2901V22.3152H77.6545V24.2901C77.6545 24.5976 77.4044 24.8476 77.097 24.8476Z" fill="#00B0F0"/>
</svg>
