<svg width="79" height="80" viewBox="0 0 79 80" fill="none" xmlns="http://www.w3.org/2000/svg">
  <path d="M72.9914 52.5163C74.1691 49.1296 74.8113 45.4943 74.8113 41.7115C74.8113 37.1857 73.8944 32.8702 72.2374 28.9402C73.1828 27.2502 74.0347 25.5827 74.7814 23.9489C79.2214 14.2338 79.496 6.71281 75.5546 2.7714C70.3139 -2.46908 58.8173 -0.189859 44.7846 8.86485C43.8112 8.77797 42.8264 8.7311 41.8307 8.7311C38.6528 8.7311 35.579 9.18438 32.669 10.027C29.7188 8.17437 26.8143 6.58562 24.0079 5.30296C14.2926 0.862799 6.77129 0.588424 2.83003 4.52999C-2.58107 9.94094 -0.138724 21.6725 9.35239 35.9618C9.02254 37.8294 8.84973 39.7508 8.84973 41.7115C8.84973 42.7401 8.89958 43.5627 8.99223 44.5677C8.93567 44.7155 8.80192 44.9473 8.72754 45.0638C-0.104349 58.9048 -2.28654 70.2587 2.89003 75.4351C4.73785 77.2829 7.3716 78.2044 10.65 78.204C14.3647 78.2039 18.9071 77.0208 24.0677 74.6623C25.7015 73.9156 27.3691 73.0636 29.0591 72.1182C32.9892 73.7751 37.3046 74.6922 41.8304 74.6922C44.3598 74.6922 46.8232 74.4051 49.1906 73.8633C56.4054 77.9308 62.7328 80.0001 67.6538 79.9998C70.9502 79.9997 73.6167 79.0712 75.4938 77.194C79.4352 73.2525 79.1608 65.7314 74.7208 56.0163C74.195 54.8651 73.6174 53.6971 72.9914 52.5163ZM63.297 3.19312C66.6237 2.43796 71.1277 2.07546 73.6885 4.63671C76.7494 7.69766 76.2731 14.3369 72.3816 22.8521C71.907 23.8908 71.3867 24.9443 70.8274 26.0088C66.3061 17.6933 58.3111 11.5302 48.8045 9.47532C54.1087 6.31015 59.0744 4.15156 63.297 3.19312ZM72.1728 41.7115C72.1728 44.3427 71.8356 46.8966 71.2031 49.3326C69.3925 46.2719 67.282 43.149 64.9148 40.0224C66.9919 37.2841 68.873 34.548 70.5277 31.8538C71.5928 34.946 72.1728 38.2621 72.1728 41.7115ZM3.23706 17.0931C2.42769 13.6878 2.02394 9.06735 4.69566 6.39562C7.7566 3.33468 14.3958 3.81077 22.911 7.7025C25.0365 8.67375 27.2226 9.82938 29.444 11.147C20.2051 14.905 13.0413 22.7339 10.1916 32.3958C6.68129 26.7803 4.29191 21.5321 3.23706 17.0931ZM22.971 72.2626C14.4558 76.1542 7.8166 76.6306 4.75566 73.5695C2.23081 71.0447 2.55362 66.6295 3.2691 63.3703C4.20378 59.1117 6.37848 54.0718 9.59379 48.6835C11.6482 58.1909 17.8115 66.1867 26.1276 70.7081C25.0632 71.2678 24.0098 71.7879 22.971 72.2626ZM28.9163 69.164C18.6262 64.3039 11.4883 53.8263 11.4883 41.7115C11.4883 28.3143 20.2168 16.9186 32.2851 12.9089C37.8531 16.5103 43.5773 21.0742 49.0904 26.3291C49.6023 26.8171 50.4112 26.8038 50.9114 26.3039L50.9297 26.2857C51.4498 25.7655 51.4364 24.9202 50.904 24.4128C45.9206 19.6638 40.7587 15.461 35.6779 11.9969C37.6654 11.5859 39.7232 11.3694 41.8306 11.3694C53.9454 11.3694 64.4231 18.5072 69.2831 28.7975C67.5534 31.7708 65.5256 34.8125 63.2411 37.864C60.8672 34.8765 58.2681 31.899 55.4823 28.9836C54.975 28.4529 54.1308 28.4411 53.6115 28.9602C53.6054 28.9663 53.599 28.9727 53.5929 28.9788C53.0922 29.4794 53.0804 30.2896 53.5697 30.8015C56.4642 33.8301 59.1509 36.9233 61.5841 40.0205C58.5736 43.846 55.1789 47.6651 51.4815 51.3624C44.1387 58.7054 36.3157 64.8596 28.9163 69.164ZM41.8306 72.0537C38.3812 72.0537 35.0651 71.4737 31.9727 70.4086C39.0499 66.0617 46.4176 60.1581 53.3473 53.2282C56.9459 49.6296 60.268 45.9127 63.2394 42.1798C65.8989 45.7391 68.21 49.2845 70.1042 52.7226C65.6869 64.0256 54.6792 72.0537 41.8306 72.0537ZM73.6283 75.3286C71.3553 77.6015 67.5719 77.5569 64.7989 77.1193C61.3395 76.5736 57.2333 75.0942 52.8029 72.8132C61.1311 69.8665 67.9328 63.6646 71.6727 55.7435C71.8964 56.2024 72.1144 56.6596 72.3217 57.1132C76.213 65.6281 76.6892 72.2676 73.6283 75.3286Z" fill="#00B0F0"/>
</svg>
