<svg width="481" height="504" viewBox="0 0 481 504" fill="none" xmlns="http://www.w3.org/2000/svg">
<path d="M332.665 159.488H179.676V166.234H332.665V159.488Z" fill="#015467"/>
<path d="M291.238 223.572H265.326V282.356H291.238V223.572Z" fill="#015467"/>
<path d="M280.532 238.508H221.881V288.137H280.532V238.508Z" fill="#015467"/>
<path d="M344.767 274.646H168.814V289.583H344.767V274.646Z" fill="#015467"/>
<path d="M339.647 192.252H303.185V196.588H339.647V192.252Z" fill="#015467"/>
<path d="M325.838 161.414H323.666V176.351H325.838V161.414Z" fill="#015467"/>
<path d="M338.406 281.392V191.288L324.752 166.715L311.098 191.288V281.392H338.406Z" fill="#015467"/>
<path d="M233.362 192.252H203.416V196.588H233.362V192.252Z" fill="#015467"/>
<path d="M219.398 161.414H217.226V176.351H219.398V161.414Z" fill="#015467"/>
<path d="M232.12 281.392V191.288L218.31 166.715L204.656 191.288V281.392H232.12Z" fill="#015467"/>
<path d="M204.347 192.252H174.4V196.588H204.347V192.252Z" fill="#015467"/>
<path d="M190.537 161.414H188.364V176.351H190.537V161.414Z" fill="#015467"/>
<path d="M203.104 281.392V191.288L189.45 166.715L175.641 191.288V281.392H203.104Z" fill="#015467"/>
<path d="M317.614 256.818L317.304 102.631H314.046L313.735 256.818H317.614Z" fill="#015467"/>
<path d="M323.665 256.818L323.355 102.631H320.096L319.786 256.818H323.665Z" fill="#015467"/>
<path d="M225.604 256.818L225.293 0H222.035L221.725 256.818H225.604Z" fill="#015467"/>
<path d="M231.654 256.818L231.344 0H228.086L227.775 256.818H231.654Z" fill="#015467"/>
<path d="M246.55 203.816C243.913 203.816 241.896 210.08 241.896 218.271V225.499H242.982V218.271C242.982 212.008 244.533 207.189 246.55 207.189H254.308V203.816H246.55Z" fill="#015467"/>
<path d="M246.55 186.951C243.913 186.951 241.896 193.215 241.896 201.406V208.634H242.982V201.406C242.982 195.142 244.533 190.324 246.55 190.324H254.308V186.951H246.55Z" fill="#015467"/>
<path d="M246.55 152.26C243.913 152.26 241.896 158.524 241.896 166.715V276.573H242.982V166.715C242.982 160.451 244.533 155.633 246.55 155.633H254.308V152.26H246.55Z" fill="#015467"/>
<path d="M262.843 281.391V158.523C262.843 145.995 259.585 135.877 255.55 135.877C251.516 135.877 248.258 145.995 248.258 158.523V281.391H262.843Z" fill="#015467"/>
<path d="M165.556 281.392V88.1763C165.556 83.358 164.315 79.0215 162.608 79.0215C160.901 79.0215 159.66 82.8761 159.66 88.1763V281.392H165.556Z" fill="#015467"/>
<path d="M240.809 281.392V152.742C240.809 146.478 239.102 141.178 237.085 141.178C235.068 141.178 233.361 146.478 233.361 152.742V281.392H240.809Z" fill="#015467"/>
<path d="M305.046 281.392V69.3839C305.046 59.2654 302.408 51.0742 299.15 51.0742C295.892 51.0742 293.254 59.2654 293.254 69.3839V281.392H305.046Z" fill="#015467"/>
<path d="M305.046 50.5938V54.9302C305.046 60.7123 302.408 65.5307 299.15 65.5307C295.892 65.5307 293.254 60.7123 293.254 54.9302V50.5938H305.046Z" fill="#015467"/>
<path d="M302.719 41.9199H295.736V55.4113H302.719V41.9199Z" fill="#015467"/>
<path d="M180.452 281.392V69.3839C180.452 59.2654 177.815 51.0742 174.556 51.0742C171.298 51.0742 168.66 59.2654 168.66 69.3839V281.392H180.452Z" fill="#015467"/>
<path d="M180.297 50.5938V54.9302C180.297 60.7123 177.659 65.5307 174.401 65.5307C171.143 65.5307 168.505 60.7123 168.505 54.9302V50.5938H180.297Z" fill="#015467"/>
<path d="M177.814 41.9199H170.832V55.4113H177.814V41.9199Z" fill="#015467"/>
<path d="M290.772 131.059C285.962 131.059 281.928 143.586 281.928 158.523V251.999H283.014V158.523C283.014 145.032 286.427 134.431 290.772 134.431C295.116 134.431 298.53 145.032 298.53 158.523V253.445H299.616V158.523C299.616 143.586 295.582 131.059 290.772 131.059Z" fill="#015467"/>
<path d="M290.772 148.887C285.962 148.887 281.928 161.415 281.928 176.351V269.827H283.014V176.351C283.014 162.86 286.427 152.26 290.772 152.26C295.116 152.26 298.53 162.86 298.53 176.351V271.273H299.616V176.351C299.616 160.933 295.582 148.887 290.772 148.887Z" fill="#015467"/>
<path d="M260.514 79.0215C255.704 79.0215 251.67 91.5493 251.67 106.486V199.962H252.756V106.486C252.756 92.9948 256.17 82.3944 260.514 82.3944C264.859 82.3944 268.272 92.9948 268.272 106.486V201.408H269.358V106.486C269.203 91.0674 265.324 79.0215 260.514 79.0215Z" fill="#015467"/>
<path d="M260.514 96.3672C255.704 96.3672 251.67 108.895 251.67 123.832V217.308H252.756V123.832C252.756 110.34 256.17 99.7401 260.514 99.7401C264.859 99.7401 268.272 110.34 268.272 123.832V218.753H269.358V123.832C269.203 108.895 265.324 96.3672 260.514 96.3672Z" fill="#015467"/>
<path d="M163.074 102.631V106.004C166.333 108.895 168.66 118.05 168.66 129.132V270.31H169.746V129.132C169.746 116.122 166.953 105.522 163.074 102.631Z" fill="#015467"/>
<path d="M168.66 201.89V211.526H169.746V201.89C169.746 188.88 166.953 178.28 163.074 175.389V178.762C166.333 181.653 168.66 190.807 168.66 201.89Z" fill="#015467"/>
<path d="M168.66 172.015V181.651H169.746V172.015C169.746 159.005 166.953 148.405 163.074 145.514V148.886C166.333 151.777 168.66 161.414 168.66 172.015Z" fill="#015467"/>
<path d="M260.514 153.705C255.704 153.705 251.67 166.233 251.67 181.17V274.646H252.756V181.17C252.756 167.678 256.17 157.078 260.514 157.078C264.859 157.078 268.272 167.678 268.272 181.17V276.091H269.358V181.17C269.203 166.233 265.324 153.705 260.514 153.705Z" fill="#015467"/>
<path d="M425.296 215.38V209.598H435.691V215.38H425.296ZM425.296 218.753V292.474H435.691V218.753H425.296ZM424.365 224.053V291.992H416.762V225.499C416.607 220.68 415.365 216.826 413.969 216.826H410.555H410.4C413.193 221.162 415.055 230.317 415.365 240.917H397.832C398.142 225.499 401.866 213.453 406.676 213.453C407.452 213.453 408.228 213.935 409.004 214.416C409.469 213.453 410.09 212.971 410.71 212.971H414.124C415.52 212.971 416.762 215.38 417.382 219.235C417.693 217.789 418.313 216.826 418.934 216.826H420.175V180.688C420.175 173.942 421.882 168.16 424.054 168.16H427.468C429.64 168.16 431.347 173.942 431.347 180.688V185.024H433.209C434.76 185.024 436.002 189.361 436.002 194.661V206.225H425.606V196.588C424.52 198.034 423.899 201.407 423.899 205.262V218.753C424.054 220.198 424.365 222.126 424.365 224.053ZM422.658 205.262C422.658 199.48 423.744 194.661 425.451 193.216C425.761 188.879 426.847 185.506 428.244 185.506H430.261V181.17C430.261 175.87 429.019 171.533 427.468 171.533H424.054C422.503 171.533 421.261 175.87 421.261 181.17V217.307H422.503C422.658 217.307 422.658 217.307 422.813 217.307V205.262H422.658ZM415.365 251.036V244.29H397.832V251.036H415.365ZM397.832 253.927V291.992H415.365V253.927H397.832ZM444.846 233.208V226.944L440.036 233.208V226.944L434.916 234.172H432.278V292.474H449.656V237.063V234.172V226.944L444.846 233.208ZM439.105 258.745H435.226V252.963H439.105V258.745ZM439.105 249.109H435.226V243.327H439.105V249.109ZM443.915 258.745H440.036V252.963H443.915V258.745ZM443.915 249.109H440.036V243.327H443.915V249.109ZM448.57 258.745H444.691V252.963H448.57V258.745ZM448.57 249.109H444.691V243.327H448.57V249.109Z" fill="#015467"/>
<path d="M406.522 229.355C407.298 229.355 407.763 222.609 408.539 223.091C409.16 222.127 409.935 229.355 410.556 229.355H410.711L410.246 161.416H406.212L405.746 229.837C406.212 229.355 406.367 229.355 406.522 229.355Z" fill="#015467"/>
<path d="M418.159 291.993L417.693 160.934H413.659L413.193 291.993H418.159Z" fill="#015467"/>
<path d="M462.225 281.393H26.2217V296.811H462.225V281.393Z" fill="#015467"/>
<path d="M156.867 164.789H104.423V208.636H156.867V164.789Z" fill="#015467"/>
<path d="M156.867 119.014L123.042 159.006V186.471H156.867V119.014Z" fill="#015467"/>
<path d="M172.694 275.129H171.918V232.246C171.918 224.055 169.746 217.309 167.108 217.309H163.074V193.699H93.5616V217.791H145.075V220.2H93.5616H91.2342V275.611H90.9238V287.657H172.694V275.129ZM102.716 252.965H94.0271V243.328H102.716V252.965ZM102.716 237.546H94.0271V227.909H102.716V237.546ZM113.422 252.965H104.733V243.328H113.422V252.965ZM113.422 237.546H104.733V227.909H113.422V237.546ZM124.284 252.965H115.594V243.328H124.284V252.965ZM124.284 237.546H115.594V227.909H124.284V237.546ZM134.99 252.965H126.301V243.328H134.99V252.965ZM134.99 237.546H126.301V227.909H134.99V237.546ZM145.851 252.965H137.162V243.328H145.851V252.965ZM145.851 237.546H137.162V227.909H145.851V237.546ZM168.194 275.129H163.229V249.592H164.625C166.643 249.592 168.194 254.41 168.194 260.674V275.129ZM170.677 275.129H169.28V260.674C169.28 252.483 167.108 245.737 164.47 245.737H163.074V220.682H167.108C169.125 220.682 170.677 225.5 170.677 231.764V275.129Z" fill="#015467"/>
<path d="M114.818 107.932L114.353 172.016H120.404L119.938 107.932H114.818Z" fill="#015467"/>
<path d="M105.664 107.932L105.043 172.016H111.094L110.629 107.932H105.664Z" fill="#015467"/>
<path d="M101.32 107.932H96.1995L95.2686 198.517L102.251 197.553L101.32 107.932Z" fill="#015467"/>
<path d="M38.1688 219.236L33.9795 291.994H55.5469L51.3576 219.236H38.1688Z" fill="#015467"/>
<path d="M89.0616 144.069V142.624H89.3719V140.215H85.0274V142.624H85.4929V144.069H84.5619V146.479H85.4929V148.406C84.5619 148.888 83.7861 151.779 83.631 154.67H82.0794C80.8381 154.67 79.7519 158.043 79.7519 161.897V182.134H78.9761V180.689H79.2865V178.762H75.2523V180.689H75.7178V182.134H74.7868V184.062H75.7178V185.989C74.7868 186.471 74.1661 188.88 74.011 191.771H72.4594C71.2181 191.771 70.2871 194.662 70.2871 198.517V235.618H70.7526V209.599H74.011V216.827C73.08 217.79 72.3042 220.199 72.3042 223.09V235.618H72.7697V229.836H74.011V235.618H80.3726V205.744H80.8381V235.618H81.6139V234.173H81.3036V232.245H81.6139V230.8H81.3036V228.873H81.6139V227.427H81.3036V225.5H81.6139V224.054H81.3036V222.127H81.6139V220.681H81.3036V218.754H81.6139V217.309H81.3036V215.381H81.6139V213.936H81.3036V212.008H81.6139V210.563H81.3036V208.635H81.6139V208.154H81.9242V238.027H82.3897V228.873H83.631V238.027H90.6132V157.561C90.6132 154.188 89.9926 151.779 89.0616 150.815V148.406H91.0787V238.027H91.5442V236.1H91.8545V234.655H91.5442V232.245H91.8545V230.8H91.5442V228.391H91.8545V226.945H91.5442V224.536H91.8545V223.09H91.5442V220.681H91.8545V219.236H91.5442V214.417H91.8545V212.972H91.5442V210.563H91.8545V209.117H91.5442V206.708H91.8545V204.781H91.5442V202.372H91.8545V200.926H91.5442V198.517H91.8545V197.071H91.5442V194.662H91.8545V193.217H91.5442V190.326H91.8545V188.88H91.5442V186.471H91.8545V185.025H91.5442V182.616H91.8545V180.689H91.5442V178.28H91.8545V176.834H91.5442V174.425H91.8545V172.98H91.5442V170.57H91.8545V169.125H91.5442V166.716H91.8545V165.27H91.5442V162.861H91.8545V161.416H91.5442V159.006H91.8545V157.561H91.5442V155.152H91.8545V153.706H91.5442V146.961H93.4061V144.551H89.0616V144.069ZM74.011 229.354H72.7697V224.054C72.7697 221.645 73.2352 219.718 74.011 218.754V229.354ZM74.011 209.117H70.7526V198.999C70.7526 196.108 71.5284 193.699 72.4594 193.699H74.011V209.117ZM78.5107 186.471C78.3555 186.471 78.2003 186.471 78.0452 186.471H76.0281V184.544H78.5107V186.471ZM78.5107 182.616H76.0281V181.171H78.5107V182.616ZM79.7519 188.398C79.5968 187.435 79.2865 186.953 78.9761 186.471V184.062H79.7519V188.398ZM80.8381 204.781H80.3726V193.217C80.3726 192.253 80.3726 191.771 80.2174 190.808V184.544H80.8381V204.781ZM81.9242 188.88V204.781H81.3036V203.335H81.6139V201.89H81.3036V199.962H81.6139V198.517H81.3036V196.59H81.6139V195.144H81.3036V193.217H81.6139V191.771H81.3036V185.507H82.5449C82.0794 185.507 81.9242 187.435 81.9242 188.88ZM83.631 225.5H82.3897V215.863H83.631V225.5ZM83.631 214.417H82.3897V206.226H83.631V214.417ZM83.631 204.781H82.3897V196.108H83.631V204.781ZM83.631 194.662H82.3897V188.88C82.3897 186.471 83.0103 184.062 83.631 183.58V194.662ZM83.631 182.134C83.3207 182.134 83.1655 182.616 82.8552 183.098V182.616H80.0623V174.425H83.4758V182.134H83.631ZM83.631 172.98H80.2174V162.379C80.2174 159.006 80.9932 156.597 82.0794 156.597H83.631V172.98ZM88.5961 148.406C88.441 148.406 88.2858 148.406 88.1307 148.406H85.9584V146.479H88.5961V148.406ZM88.5961 144.069H85.9584V142.624H88.5961V144.069Z" fill="#015467"/>
<path d="M49.3413 198.518H37.8594V214.9H49.3413V198.518Z" fill="#015467"/>
<path d="M50.5826 186.471H37.8594V238.991H50.5826V186.471Z" fill="#015467"/>
<path d="M51.3584 233.691L54.3065 291.512H73.2361V282.839H80.2184V291.512H82.701V282.839H89.6832V291.512H92.321V233.691H51.3584ZM61.4439 269.829H56.4787V263.565H61.4439V269.829ZM61.4439 259.229H56.4787V252.965H61.4439V259.229ZM68.5813 269.829H63.6161V263.565H68.5813V269.829ZM68.5813 259.229H63.6161V252.965H68.5813V259.229ZM75.7187 269.829H70.7536V263.565H75.7187V269.829ZM75.7187 259.229H70.7536V252.965H75.7187V259.229ZM82.701 269.829H77.7358V263.565H82.701V269.829ZM82.701 259.229H77.7358V252.965H82.701V259.229ZM89.8384 269.829H84.8732V263.565H89.8384V269.829ZM89.8384 259.229H84.8732V252.965H89.8384V259.229Z" fill="#015467"/>
<path d="M68.115 178.761V160.451L65.1669 165.751V160.451L62.0637 166.233V160.451L54.4608 174.425V178.761H47.4785V189.361H49.9611V224.535L50.5817 238.509H69.2011V178.761H68.115ZM54.1505 222.126H51.6679V213.935H54.1505V222.126ZM54.1505 208.153H51.6679V199.962H54.1505V208.153ZM54.1505 194.18H51.6679V185.989H54.1505V194.18ZM58.495 222.126H56.0124V213.935H58.495V222.126ZM58.495 208.153H56.0124V199.962H58.495V208.153ZM58.495 194.18H56.0124V185.989H58.495V194.18ZM62.8395 222.126H60.3569V213.935H62.8395V222.126ZM62.8395 208.153H60.3569V199.962H62.8395V208.153ZM62.8395 194.18H60.3569V185.989H62.8395V194.18ZM67.184 222.126H64.7014V213.935H67.184V222.126ZM67.184 208.153H64.7014V199.962H67.184V208.153ZM67.184 194.18H64.7014V185.989H67.184V194.18Z" fill="#015467"/>
<path d="M355.008 161.895L337.01 151.295V172.496L355.008 161.895Z" fill="#015467"/>
<path d="M357.026 159.006L334.372 172.497V286.692H357.026V159.006ZM338.561 264.528H336.234V249.591H338.561V264.528ZM338.561 246.7H336.234V231.763H338.561V246.7ZM338.561 228.872H336.234V213.935H338.561V228.872ZM338.561 210.562H336.234V195.625H338.561V210.562ZM338.561 192.734H336.234V177.797H338.561V192.734ZM342.751 264.528H340.423V249.591H342.751V264.528ZM342.751 246.7H340.423V231.763H342.751V246.7ZM342.751 228.872H340.423V213.935H342.751V228.872ZM342.751 210.562H340.423V195.625H342.751V210.562ZM342.751 192.734H340.423V177.797H342.751V192.734ZM347.095 264.528H344.768V249.591H347.095V264.528ZM347.095 246.7H344.768V231.763H347.095V246.7ZM347.095 228.872H344.768V213.935H347.095V228.872ZM347.095 210.562H344.768V195.625H347.095V210.562ZM347.095 192.734H344.768V177.797H347.095V192.734ZM351.285 264.528H348.957V249.591H351.285V264.528ZM351.285 246.7H348.957V231.763H351.285V246.7ZM351.285 228.872H348.957V213.935H351.285V228.872ZM351.285 210.562H348.957V195.625H351.285V210.562ZM351.285 192.734H348.957V177.797H351.285V192.734ZM355.474 264.528H353.147V249.591H355.474V264.528ZM355.474 246.7H353.147V231.763H355.474V246.7ZM355.474 228.872H353.147V213.935H355.474V228.872ZM355.474 210.562H353.147V195.625H355.474V210.562ZM355.474 192.734H353.147V177.797H355.474V192.734Z" fill="#015467"/>
<path d="M396.281 196.107H363.697V234.172H396.281V196.107Z" fill="#015467"/>
<path d="M396.592 164.305V155.632H398.454V132.504H390.541V141.177L387.748 149.85L372.387 197.552H374.249L374.869 195.624V197.552H375.49V193.697L377.352 187.915V198.034H379.214L380.61 193.697L391.316 160.45V169.605L390.075 171.051V197.552V226.944H391.782V286.691H402.333V158.041L396.592 164.305ZM379.834 189.842L377.973 195.624V185.506L379.834 179.724V189.842ZM382.472 182.133L380.61 187.915V177.796L382.472 172.014V182.133ZM385.11 173.942L383.248 179.724V169.605L385.11 163.823V173.942ZM387.593 165.751L385.731 171.533V161.414L387.593 155.632V165.751ZM388.368 163.823V153.705L390.696 146.477V155.15H391.006L388.368 163.823ZM394.885 165.751L392.713 168.16V155.632H394.885V165.751Z" fill="#015467"/>
<path d="M358.422 231.762V286.691H392.402V231.762H358.422ZM366.335 258.263H360.129V250.553H366.335V258.263ZM366.335 245.735H360.129V238.507H366.335V245.735ZM374.559 258.263H368.352V250.553H374.559V258.263ZM374.559 245.735H368.352V238.507H374.559V245.735ZM382.627 258.263H376.421V250.553H382.627V258.263ZM382.627 245.735H376.421V238.507H382.627V245.735ZM390.695 258.263H384.489V250.553H390.695V258.263ZM390.695 245.735H384.489V238.507H390.695V245.735Z" fill="#015467"/>
<path d="M368.663 99.2578L368.508 205.262H370.525L373.163 197.07L373.007 99.2578H368.663Z" fill="#015467"/>
<path d="M365.404 235.135L365.248 99.2578H360.749L360.438 235.135H365.404Z" fill="#015467"/>
<mask id="mask0_1566_110092" style="mask-type:alpha" maskUnits="userSpaceOnUse" x="0" y="294" width="481" height="210">
<path d="M481 294.883H0V503.999H481V294.883Z" fill="url(#paint0_linear_1566_110092)"/>
</mask>
<g mask="url(#mask0_1566_110092)">
<path d="M332.667 384.504H179.678V388.841H332.667V384.504Z" fill="url(#paint1_linear_1566_110092)"/>
<path d="M291.238 304.037H265.326V344.511H291.238V304.037Z" fill="url(#paint2_linear_1566_110092)"/>
<path d="M280.532 299.701H221.881V333.911H280.532V299.701Z" fill="url(#paint3_linear_1566_110092)"/>
<path d="M344.769 299.219H168.816V309.337H344.769V299.219Z" fill="url(#paint4_linear_1566_110092)"/>
<path d="M339.648 362.822H303.186V365.713H339.648V362.822Z" fill="url(#paint5_linear_1566_110092)"/>
<path d="M325.84 377.277H323.668V387.396H325.84V377.277Z" fill="url(#paint6_linear_1566_110092)"/>
<path d="M338.407 304.52V366.676L324.753 384.022L311.099 366.676V304.52H338.407Z" fill="url(#paint7_linear_1566_110092)"/>
<path d="M233.363 362.822H203.417V365.713H233.363V362.822Z" fill="url(#paint8_linear_1566_110092)"/>
<path d="M219.399 377.277H217.227V387.396H219.399V377.277Z" fill="url(#paint9_linear_1566_110092)"/>
<path d="M232.122 304.52V366.676L218.312 384.022L204.658 366.676V304.52H232.122Z" fill="url(#paint10_linear_1566_110092)"/>
<path d="M204.348 362.822H174.402V365.713H204.348V362.822Z" fill="url(#paint11_linear_1566_110092)"/>
<path d="M190.539 377.277H188.367V387.396H190.539V377.277Z" fill="url(#paint12_linear_1566_110092)"/>
<path d="M203.107 304.52V366.676L189.453 384.022L175.644 366.676V304.52H203.107Z" fill="url(#paint13_linear_1566_110092)"/>
<path d="M317.615 321.383L317.305 427.868H314.047L313.736 321.383H317.615Z" fill="url(#paint14_linear_1566_110092)"/>
<path d="M323.666 321.383L323.356 427.868H320.097L319.787 321.383H323.666Z" fill="url(#paint15_linear_1566_110092)"/>
<path d="M225.606 321.383L225.295 498.698H222.037L221.727 321.383H225.606Z" fill="url(#paint16_linear_1566_110092)"/>
<path d="M231.656 321.383L231.346 498.698H228.088L227.777 321.383H231.656Z" fill="url(#paint17_linear_1566_110092)"/>
<path d="M246.551 358.486C243.914 358.486 241.896 354.149 241.896 348.367V343.549H242.983V348.367C242.983 352.704 244.534 356.077 246.551 356.077H254.309V358.486H246.551Z" fill="url(#paint18_linear_1566_110092)"/>
<path d="M246.551 369.568C243.914 369.568 241.896 365.231 241.896 359.449V354.631H242.983V359.449C242.983 363.786 244.534 367.159 246.551 367.159H254.309V369.568H246.551Z" fill="url(#paint19_linear_1566_110092)"/>
<path d="M246.551 393.659C243.914 393.659 241.896 389.323 241.896 383.541V307.893H242.983V383.541C242.983 387.877 244.534 391.25 246.551 391.25H254.309V393.659H246.551Z" fill="url(#paint20_linear_1566_110092)"/>
<path d="M262.843 304.52V389.322C262.843 397.995 259.585 404.741 255.55 404.741C251.516 404.741 248.258 397.995 248.258 389.322V304.52H262.843Z" fill="url(#paint21_linear_1566_110092)"/>
<path d="M165.557 304.52V437.988C165.557 441.361 164.316 444.252 162.609 444.252C160.902 444.252 159.661 441.361 159.661 437.988V304.52H165.557Z" fill="url(#paint22_linear_1566_110092)"/>
<path d="M240.811 304.52V393.177C240.811 397.514 239.104 401.368 237.087 401.368C235.07 401.368 233.363 397.514 233.363 393.177V304.52H240.811Z" fill="url(#paint23_linear_1566_110092)"/>
<path d="M305.048 304.52V450.998C305.048 458.225 302.41 463.525 299.152 463.525C295.894 463.525 293.256 457.743 293.256 450.998V304.52H305.048Z" fill="url(#paint24_linear_1566_110092)"/>
<path d="M305.048 464.007V461.116C305.048 457.262 302.41 453.889 299.152 453.889C295.894 453.889 293.256 457.262 293.256 461.116V464.007H305.048Z" fill="url(#paint25_linear_1566_110092)"/>
<path d="M302.721 460.635H295.738V469.79H302.721V460.635Z" fill="url(#paint26_linear_1566_110092)"/>
<path d="M180.453 304.52V450.998C180.453 458.225 177.816 463.525 174.557 463.525C171.299 463.525 168.661 457.743 168.661 450.998V304.52H180.453Z" fill="url(#paint27_linear_1566_110092)"/>
<path d="M180.298 464.007V461.116C180.298 457.262 177.66 453.889 174.402 453.889C171.144 453.889 168.506 457.262 168.506 461.116V464.007H180.298Z" fill="url(#paint28_linear_1566_110092)"/>
<path d="M177.815 460.635H170.833V469.79H177.815V460.635Z" fill="url(#paint29_linear_1566_110092)"/>
<path d="M290.772 408.114C285.962 408.114 281.928 399.441 281.928 389.322V324.757H283.014V389.322C283.014 398.477 286.427 406.187 290.772 406.187C295.116 406.187 298.53 398.959 298.53 389.322V323.793H299.616V389.322C299.616 399.923 295.582 408.114 290.772 408.114Z" fill="url(#paint30_linear_1566_110092)"/>
<path d="M290.772 396.067C285.962 396.067 281.928 387.394 281.928 377.276V312.71H283.014V377.276C283.014 386.43 286.427 394.14 290.772 394.14C295.116 394.14 298.53 386.912 298.53 377.276V311.746H299.616V377.276C299.616 387.876 295.582 396.067 290.772 396.067Z" fill="url(#paint31_linear_1566_110092)"/>
<path d="M260.516 444.253C255.706 444.253 251.672 435.58 251.672 425.461V360.895H252.758V425.461C252.758 434.616 256.172 442.325 260.516 442.325C264.861 442.325 268.274 435.098 268.274 425.461V359.932H269.36V425.461C269.205 436.062 265.326 444.253 260.516 444.253Z" fill="url(#paint32_linear_1566_110092)"/>
<path d="M260.516 432.206C255.706 432.206 251.672 423.533 251.672 413.414V348.848H252.758V413.414C252.758 422.569 256.172 430.279 260.516 430.279C264.861 430.279 268.274 423.051 268.274 413.414V347.885H269.36V413.414C269.205 423.533 265.326 432.206 260.516 432.206Z" fill="url(#paint33_linear_1566_110092)"/>
<path d="M163.075 427.869V425.46C166.334 423.533 168.661 417.269 168.661 409.559V312.229H169.747V409.559C169.747 418.714 166.954 425.942 163.075 427.869Z" fill="url(#paint34_linear_1566_110092)"/>
<path d="M168.661 359.449V352.703H169.747V359.449C169.747 368.122 166.954 375.831 163.075 377.758V375.349C166.334 373.422 168.661 367.158 168.661 359.449Z" fill="url(#paint35_linear_1566_110092)"/>
<path d="M168.661 380.168V373.422H169.747V380.168C169.747 388.841 166.954 396.55 163.075 398.477V396.068C166.334 394.141 168.661 387.395 168.661 380.168Z" fill="url(#paint36_linear_1566_110092)"/>
<path d="M260.516 392.696C255.706 392.696 251.672 384.023 251.672 373.905V309.339H252.758V373.905C252.758 383.06 256.172 390.769 260.516 390.769C264.861 390.769 268.274 383.541 268.274 373.905V308.375H269.36V373.905C269.205 384.023 265.326 392.696 260.516 392.696Z" fill="url(#paint37_linear_1566_110092)"/>
<path d="M435.848 349.812V354.149H425.452V349.812H435.848ZM435.848 347.885V297.292H425.452V347.885H435.848ZM423.591 347.885V357.04C423.591 359.931 424.366 361.858 425.297 362.822V356.076H435.693V363.786C435.693 367.159 434.452 370.531 432.9 370.531H431.038V373.422C431.038 378.241 429.332 382.095 427.159 382.095H423.746C421.573 382.095 419.867 378.241 419.867 373.422V348.367H418.625C418.005 348.367 417.384 347.885 417.074 346.44C416.453 348.849 415.212 350.776 413.815 350.776H410.402C409.781 350.776 409.316 350.294 408.695 349.812C407.919 350.294 407.143 350.776 406.368 350.776C401.713 350.776 397.834 342.585 397.523 331.984H415.057C414.902 339.212 412.884 345.476 410.092 348.849H410.247H413.66C415.212 348.849 416.453 345.958 416.453 342.585V296.811H424.056V343.549C424.366 345.476 424.056 346.921 423.591 347.885ZM422.66 348.849C422.504 348.849 422.504 348.849 422.349 348.849H421.108V373.904C421.108 377.277 422.349 380.65 423.901 380.65H427.314C428.866 380.65 430.107 377.759 430.107 373.904V371.013H428.09C426.694 371.013 425.608 368.604 425.297 365.713C423.746 364.749 422.504 361.377 422.504 357.522V348.849H422.66ZM397.834 325.721V330.057H415.367V325.721H397.834ZM415.367 323.793V297.292H397.834V323.793H415.367ZM449.658 342.103V337.285V335.357V296.811H432.28V337.285H434.917L440.038 342.103V337.767L444.848 342.103V337.767L449.658 342.103ZM439.107 324.275H435.228V320.42H439.107V324.275ZM439.107 330.539H435.228V326.684H439.107V330.539ZM443.917 324.275H440.038V320.42H443.917V324.275ZM443.917 330.539H440.038V326.684H443.917V330.539ZM448.572 324.275H444.693V320.42H448.572V324.275ZM448.572 330.539H444.693V326.684H448.572V330.539Z" fill="url(#paint38_linear_1566_110092)"/>
<path d="M406.523 340.658C407.299 340.658 407.764 345.477 408.54 344.995C409.161 345.477 409.936 340.658 410.557 340.658H410.712L410.247 387.878H406.213L405.747 340.658C406.213 340.658 406.368 340.658 406.523 340.658Z" fill="url(#paint39_linear_1566_110092)"/>
<path d="M418.16 297.293L417.694 387.878H413.66L413.194 297.293H418.16Z" fill="url(#paint40_linear_1566_110092)"/>
<path d="M462.226 294.883H26.2227V302.11H462.226V294.883Z" fill="url(#paint41_linear_1566_110092)"/>
<path d="M156.868 354.631H104.424V384.986H156.868V354.631Z" fill="url(#paint42_linear_1566_110092)"/>
<path d="M156.868 416.787L123.043 389.322V370.049H156.868V416.787Z" fill="url(#paint43_linear_1566_110092)"/>
<path d="M172.696 300.664H90.9258V309.337H91.2361V347.402H93.5635H145.077V348.848H93.5635V365.23H163.076V348.848H167.11C169.748 348.848 171.92 344.029 171.92 338.729V309.337H172.696V300.664ZM102.718 331.02H94.029V324.274H102.718V331.02ZM102.718 341.62H94.029V334.874H102.718V341.62ZM113.424 331.02H104.735V324.274H113.424V331.02ZM113.424 341.62H104.735V334.874H113.424V341.62ZM124.285 331.02H115.596V324.274H124.285V331.02ZM124.285 341.62H115.596V334.874H124.285V341.62ZM134.992 331.02H126.303V324.274H134.992V331.02ZM134.992 341.62H126.303V334.874H134.992V341.62ZM145.853 331.02H137.164V324.274H145.853V331.02ZM145.853 341.62H137.164V334.874H145.853V341.62ZM168.196 318.974C168.196 323.31 166.644 326.683 164.627 326.683H163.231V308.855H168.196V318.974ZM170.679 338.729C170.679 343.066 169.127 346.438 167.11 346.438H163.076V329.092H164.472C167.11 329.092 169.282 324.274 169.282 318.974V309.337H170.679V338.729Z" fill="url(#paint44_linear_1566_110092)"/>
<path d="M114.819 424.497L114.354 380.168H120.405L119.939 424.497H114.819Z" fill="url(#paint45_linear_1566_110092)"/>
<path d="M105.666 424.497L105.045 380.168H111.096L110.631 424.497H105.666Z" fill="url(#paint46_linear_1566_110092)"/>
<path d="M101.321 424.496H96.2005L95.2695 361.857L102.252 362.339L101.321 424.496Z" fill="url(#paint47_linear_1566_110092)"/>
<path d="M38.1698 347.886L33.9805 297.293H55.5479L51.3585 347.886H38.1698Z" fill="url(#paint48_linear_1566_110092)"/>
<path d="M93.4071 399.443V397.997H91.5452V393.179H91.8555V392.215H91.5452V390.77H91.8555V389.806H91.5452V387.879H91.8555V386.915H91.5452V385.47H91.8555V384.506H91.5452V383.06H91.8555V382.097H91.5452V380.651H91.8555V378.242H91.5452V376.797H91.8555V375.833H91.5452V374.387H91.8555V373.424H91.5452V371.978H91.8555V371.014H91.5452V368.605H91.8555V367.642H91.5452V366.196H91.8555V365.232H91.5452V363.787H91.8555V362.823H91.5452V361.378H91.8555V360.414H91.5452V358.969H91.8555V358.005H91.5452V356.559H91.8555V355.596H91.5452V354.15H91.8555V353.187H91.5452V349.332H91.8555V348.368H91.5452V346.923H91.8555V345.959H91.5452V344.514H91.8555V343.55H91.5452V342.104H91.8555V341.141H91.5452V339.695H91.8555V338.731H91.5452V337.286H91.0797V399.443H89.0626V397.997C89.9936 397.034 90.6142 395.588 90.6142 393.179V337.768H83.632V344.032H82.3907V337.768H81.9252V358.487H81.6149V358.005H81.3045V356.559H81.6149V355.596H81.3045V354.15H81.6149V353.187H81.3045V349.332H81.6149V348.368H81.3045V346.923H81.6149V345.959H81.3045V344.514H81.6149V343.55H81.3045V342.104H81.6149V341.141H81.3045V339.695H81.6149V338.731H81.3045V337.286H81.6149V336.322H80.839V357.041H80.3736V336.322H74.012V340.177H72.7707V336.322H72.3052V344.995C72.3052 346.923 72.9258 348.85 74.012 349.332V354.15H70.7536V336.322H70.2881V361.86C70.2881 364.269 71.2191 366.678 72.4603 366.678H74.012C74.1671 368.605 74.7878 370.533 75.7187 371.014V372.46H74.7878V373.906H75.7187V374.869H75.2532V376.315H79.2874V374.869H78.9771V373.906H79.7529V387.879C79.7529 390.77 80.8391 392.697 82.0803 392.697H83.632C83.7871 395.106 84.5629 396.552 85.4939 397.034V398.479H84.5629V399.925H85.4939V400.888H85.0284V402.334H89.3729V400.888H89.0626V399.925H93.4071V399.443ZM74.012 347.886C73.3913 347.405 72.7707 345.959 72.7707 344.514V340.659H74.012V347.886ZM74.012 365.232H72.4603C71.5294 365.232 70.7536 363.787 70.7536 361.378V354.632H74.012V365.232ZM78.5116 371.496H76.029V370.533H78.0462C78.2013 370.533 78.3565 370.533 78.5116 370.533V371.496ZM78.5116 373.906H76.029V372.942H78.5116V373.906ZM79.7529 371.496H78.9771V370.051C79.2874 369.569 79.5978 369.569 79.7529 369.087V371.496ZM80.839 371.496H80.2184V367.16C80.2184 366.678 80.3736 366.196 80.3736 365.714V357.523H80.839V371.496ZM82.3907 371.496H81.3045V367.16H81.6149V366.196H81.3045V364.751H81.6149V363.787H81.3045V362.342H81.6149V361.378H81.3045V359.932H81.6149V358.969H81.3045V358.005H81.9252V369.087C81.9252 369.569 82.0803 370.533 82.3907 371.496ZM83.632 349.814H82.3907V343.068H83.632V349.814ZM83.632 356.559H82.3907V350.777H83.632V356.559ZM83.632 363.305H82.3907V357.523H83.632V363.305ZM83.632 372.46C82.8561 371.978 82.3907 370.533 82.3907 368.605V364.751H83.632V372.46ZM83.632 378.724H80.2184V372.942H83.0113V372.46C83.1665 372.942 83.4768 372.942 83.7871 372.942V378.724H83.632ZM83.632 390.77H82.0803C80.9942 390.77 80.2184 388.842 80.2184 386.915V379.687H83.632V390.77ZM88.5971 397.997H85.9594V396.552H88.1316C88.2868 396.552 88.4419 396.552 88.5971 396.552V397.997ZM88.5971 400.406H85.9594V399.443H88.5971V400.406Z" fill="url(#paint49_linear_1566_110092)"/>
<path d="M49.3413 350.777H37.8594V361.86H49.3413V350.777Z" fill="url(#paint50_linear_1566_110092)"/>
<path d="M50.5826 333.912H37.8594V370.05H50.5826V333.912Z" fill="url(#paint51_linear_1566_110092)"/>
<path d="M92.0114 337.768V297.775H89.3737V304.039H82.3914V297.775H79.9088V304.039H72.9266V297.775H53.9969L51.0488 337.768H92.0114ZM61.4446 316.567H56.4795V312.23H61.4446V316.567ZM61.4446 323.795H56.4795V319.458H61.4446V323.795ZM68.5821 316.567H63.6169V312.23H68.5821V316.567ZM68.5821 323.795H63.6169V319.458H68.5821V323.795ZM75.7195 316.567H70.7543V312.23H75.7195V316.567ZM75.7195 323.795H70.7543V319.458H75.7195V323.795ZM82.7017 316.567H77.7366V312.23H82.7017V316.567ZM82.7017 323.795H77.7366V319.458H82.7017V323.795ZM89.8391 316.567H84.874V312.23H89.8391V316.567ZM89.8391 323.795H84.874V319.458H89.8391V323.795Z" fill="url(#paint52_linear_1566_110092)"/>
<path d="M69.2031 375.35V333.912H50.5837L49.9631 343.549V367.641H47.4805V374.868H54.4627V377.759L62.0656 387.396V383.541L65.1689 387.396V383.541L68.1169 387.396V374.868H69.2031V375.35ZM54.1524 351.258H51.6698V345.476H54.1524V351.258ZM54.1524 360.895H51.6698V355.113H54.1524V360.895ZM54.1524 370.532H51.6698V364.75H54.1524V370.532ZM58.4969 351.258H56.0143V345.476H58.4969V351.258ZM58.4969 360.895H56.0143V355.113H58.4969V360.895ZM58.4969 370.532H56.0143V364.75H58.4969V370.532ZM62.8414 351.258H60.3589V345.476H62.8414V351.258ZM62.8414 360.895H60.3589V355.113H62.8414V360.895ZM62.8414 370.532H60.3589V364.75H62.8414V370.532ZM67.186 351.258H64.7034V345.476H67.186V351.258ZM67.186 360.895H64.7034V355.113H67.186V360.895ZM67.186 370.532H64.7034V364.75H67.186V370.532Z" fill="url(#paint53_linear_1566_110092)"/>
<path d="M355.01 387.395L337.012 394.622V379.686L355.01 387.395Z" fill="url(#paint54_linear_1566_110092)"/>
<path d="M357.027 301.146H334.373V379.686L357.027 388.841V301.146ZM338.562 326.202H336.235V316.083H338.562V326.202ZM338.562 338.73H336.235V328.611H338.562V338.73ZM338.562 351.257H336.235V341.139H338.562V351.257ZM338.562 363.785H336.235V353.667H338.562V363.785ZM338.562 376.313H336.235V366.194H338.562V376.313ZM342.752 326.202H340.424V316.083H342.752V326.202ZM342.752 338.73H340.424V328.611H342.752V338.73ZM342.752 351.257H340.424V341.139H342.752V351.257ZM342.752 363.785H340.424V353.667H342.752V363.785ZM342.752 376.313H340.424V366.194H342.752V376.313ZM347.096 326.202H344.769V316.083H347.096V326.202ZM347.096 338.73H344.769V328.611H347.096V338.73ZM347.096 351.257H344.769V341.139H347.096V351.257ZM347.096 363.785H344.769V353.667H347.096V363.785ZM347.096 376.313H344.769V366.194H347.096V376.313ZM351.286 326.202H348.958V316.083H351.286V326.202ZM351.286 338.73H348.958V328.611H351.286V338.73ZM351.286 351.257H348.958V341.139H351.286V351.257ZM351.286 363.785H348.958V353.667H351.286V363.785ZM351.286 376.313H348.958V366.194H351.286V376.313ZM355.475 326.202H353.148V316.083H355.475V326.202ZM355.475 338.73H353.148V328.611H355.475V338.73ZM355.475 351.257H353.148V341.139H355.475V351.257ZM355.475 363.785H353.148V353.667H355.475V363.785ZM355.475 376.313H353.148V366.194H355.475V376.313Z" fill="url(#paint55_linear_1566_110092)"/>
<path d="M396.282 337.283H363.698V363.302H396.282V337.283Z" fill="url(#paint56_linear_1566_110092)"/>
<path d="M402.334 389.804V301.146H391.783V342.103H390.076V362.34V380.649L391.317 381.613V387.877L380.611 365.231L379.215 362.34H377.353V369.085L375.491 364.749V361.858H374.87V363.303L374.25 361.858H372.388L387.749 394.623L390.542 400.886V406.668H398.455V390.768H396.593V384.986L402.334 389.804ZM379.835 374.386L377.974 370.049V363.785L379.835 368.122V374.386ZM382.473 380.167L380.611 375.831V369.085L382.473 373.422V380.167ZM385.111 385.468L383.249 381.131V374.386L385.111 378.722V385.468ZM387.593 391.25L385.732 386.913V380.167L387.593 384.504V391.25ZM391.007 391.25H390.697V397.032L388.369 392.213V385.468L391.007 391.25ZM394.886 391.25H392.714V382.577L394.886 384.022V391.25Z" fill="url(#paint57_linear_1566_110092)"/>
<path d="M392.403 338.73V301.146H358.423V339.211H392.403V338.73ZM366.336 325.72H360.13V320.42H366.336V325.72ZM366.336 334.393H360.13V329.093H366.336V334.393ZM374.56 325.72H368.353V320.42H374.56V325.72ZM374.56 334.393H368.353V329.093H374.56V334.393ZM382.628 325.72H376.422V320.42H382.628V325.72ZM382.628 334.393H376.422V329.093H382.628V334.393ZM390.696 325.72H384.49V320.42H390.696V325.72ZM390.696 334.393H384.49V329.093H390.696V334.393Z" fill="url(#paint58_linear_1566_110092)"/>
<path d="M368.664 430.279L368.509 357.521H370.526L373.164 362.822L373.008 430.279H368.664Z" fill="url(#paint59_linear_1566_110092)"/>
<path d="M365.405 336.803L365.249 430.279H360.75L360.439 336.803H365.405Z" fill="url(#paint60_linear_1566_110092)"/>
</g>
<defs>
<linearGradient id="paint0_linear_1566_110092" x1="240.512" y1="435.789" x2="240.512" y2="266.582" gradientUnits="userSpaceOnUse">
<stop/>
<stop offset="0.1242" stop-color="#040404"/>
<stop offset="0.2495" stop-color="#101010"/>
<stop offset="0.3755" stop-color="#242424"/>
<stop offset="0.502" stop-color="#414141"/>
<stop offset="0.6289" stop-color="#656565"/>
<stop offset="0.7561" stop-color="#929292"/>
<stop offset="0.8811" stop-color="#C6C6C6"/>
<stop offset="1" stop-color="white"/>
</linearGradient>
<linearGradient id="paint1_linear_1566_110092" x1="256.172" y1="384.504" x2="256.172" y2="388.841" gradientUnits="userSpaceOnUse">
<stop stop-color="#015467" stop-opacity="0.57"/>
<stop offset="1" stop-color="#015467" stop-opacity="0"/>
</linearGradient>
<linearGradient id="paint2_linear_1566_110092" x1="278.282" y1="304.037" x2="278.282" y2="344.511" gradientUnits="userSpaceOnUse">
<stop stop-color="#015467" stop-opacity="0.57"/>
<stop offset="1" stop-color="#015467" stop-opacity="0"/>
</linearGradient>
<linearGradient id="paint3_linear_1566_110092" x1="251.206" y1="299.701" x2="251.206" y2="333.911" gradientUnits="userSpaceOnUse">
<stop stop-color="#015467" stop-opacity="0.27"/>
<stop offset="1" stop-color="#015467" stop-opacity="0"/>
</linearGradient>
<linearGradient id="paint4_linear_1566_110092" x1="256.793" y1="299.219" x2="256.793" y2="309.337" gradientUnits="userSpaceOnUse">
<stop stop-color="#015467" stop-opacity="0.57"/>
<stop offset="1" stop-color="#015467" stop-opacity="0"/>
</linearGradient>
<linearGradient id="paint5_linear_1566_110092" x1="321.417" y1="362.822" x2="321.417" y2="365.713" gradientUnits="userSpaceOnUse">
<stop stop-color="#015467" stop-opacity="0.27"/>
<stop offset="1" stop-color="#015467" stop-opacity="0"/>
</linearGradient>
<linearGradient id="paint6_linear_1566_110092" x1="324.754" y1="377.277" x2="324.754" y2="387.396" gradientUnits="userSpaceOnUse">
<stop stop-color="#015467" stop-opacity="0.27"/>
<stop offset="1" stop-color="#015467" stop-opacity="0"/>
</linearGradient>
<linearGradient id="paint7_linear_1566_110092" x1="324.753" y1="304.52" x2="324.753" y2="384.022" gradientUnits="userSpaceOnUse">
<stop stop-color="#015467" stop-opacity="0.27"/>
<stop offset="1" stop-color="#015467" stop-opacity="0"/>
</linearGradient>
<linearGradient id="paint8_linear_1566_110092" x1="218.39" y1="362.822" x2="218.39" y2="365.713" gradientUnits="userSpaceOnUse">
<stop stop-color="#015467" stop-opacity="0.27"/>
<stop offset="1" stop-color="#015467" stop-opacity="0"/>
</linearGradient>
<linearGradient id="paint9_linear_1566_110092" x1="218.313" y1="377.277" x2="218.313" y2="387.396" gradientUnits="userSpaceOnUse">
<stop stop-color="#015467" stop-opacity="0.27"/>
<stop offset="1" stop-color="#015467" stop-opacity="0"/>
</linearGradient>
<linearGradient id="paint10_linear_1566_110092" x1="218.39" y1="304.52" x2="218.39" y2="384.022" gradientUnits="userSpaceOnUse">
<stop stop-color="#015467" stop-opacity="0.27"/>
<stop offset="1" stop-color="#015467" stop-opacity="0"/>
</linearGradient>
<linearGradient id="paint11_linear_1566_110092" x1="189.375" y1="362.822" x2="189.375" y2="365.713" gradientUnits="userSpaceOnUse">
<stop stop-color="#015467" stop-opacity="0.57"/>
<stop offset="1" stop-color="#015467" stop-opacity="0"/>
</linearGradient>
<linearGradient id="paint12_linear_1566_110092" x1="189.453" y1="377.277" x2="189.453" y2="387.396" gradientUnits="userSpaceOnUse">
<stop stop-color="#015467" stop-opacity="0.57"/>
<stop offset="1" stop-color="#015467" stop-opacity="0"/>
</linearGradient>
<linearGradient id="paint13_linear_1566_110092" x1="189.375" y1="304.52" x2="189.375" y2="384.022" gradientUnits="userSpaceOnUse">
<stop stop-color="#015467" stop-opacity="0.57"/>
<stop offset="1" stop-color="#015467" stop-opacity="0"/>
</linearGradient>
<linearGradient id="paint14_linear_1566_110092" x1="315.676" y1="321.383" x2="315.676" y2="427.868" gradientUnits="userSpaceOnUse">
<stop stop-color="#015467" stop-opacity="0.57"/>
<stop offset="1" stop-color="#015467" stop-opacity="0"/>
</linearGradient>
<linearGradient id="paint15_linear_1566_110092" x1="321.727" y1="321.383" x2="321.727" y2="427.868" gradientUnits="userSpaceOnUse">
<stop stop-color="#015467" stop-opacity="0.57"/>
<stop offset="1" stop-color="#015467" stop-opacity="0"/>
</linearGradient>
<linearGradient id="paint16_linear_1566_110092" x1="223.666" y1="321.383" x2="223.666" y2="498.698" gradientUnits="userSpaceOnUse">
<stop stop-color="#015467" stop-opacity="0.27"/>
<stop offset="1" stop-color="#015467" stop-opacity="0"/>
</linearGradient>
<linearGradient id="paint17_linear_1566_110092" x1="229.717" y1="321.383" x2="229.717" y2="498.698" gradientUnits="userSpaceOnUse">
<stop stop-color="#015467" stop-opacity="0.27"/>
<stop offset="1" stop-color="#015467" stop-opacity="0"/>
</linearGradient>
<linearGradient id="paint18_linear_1566_110092" x1="248.103" y1="343.549" x2="248.103" y2="358.486" gradientUnits="userSpaceOnUse">
<stop stop-color="#015467" stop-opacity="0.57"/>
<stop offset="1" stop-color="#015467" stop-opacity="0"/>
</linearGradient>
<linearGradient id="paint19_linear_1566_110092" x1="248.103" y1="354.631" x2="248.103" y2="369.568" gradientUnits="userSpaceOnUse">
<stop stop-color="#015467" stop-opacity="0.57"/>
<stop offset="1" stop-color="#015467" stop-opacity="0"/>
</linearGradient>
<linearGradient id="paint20_linear_1566_110092" x1="248.103" y1="307.893" x2="248.103" y2="393.659" gradientUnits="userSpaceOnUse">
<stop stop-color="#015467" stop-opacity="0.57"/>
<stop offset="1" stop-color="#015467" stop-opacity="0"/>
</linearGradient>
<linearGradient id="paint21_linear_1566_110092" x1="255.55" y1="304.52" x2="255.55" y2="404.741" gradientUnits="userSpaceOnUse">
<stop stop-color="#015467" stop-opacity="0.27"/>
<stop offset="1" stop-color="#015467" stop-opacity="0"/>
</linearGradient>
<linearGradient id="paint22_linear_1566_110092" x1="162.609" y1="304.52" x2="162.609" y2="444.252" gradientUnits="userSpaceOnUse">
<stop stop-color="#015467" stop-opacity="0.57"/>
<stop offset="1" stop-color="#015467" stop-opacity="0"/>
</linearGradient>
<linearGradient id="paint23_linear_1566_110092" x1="237.087" y1="304.52" x2="237.087" y2="401.368" gradientUnits="userSpaceOnUse">
<stop stop-color="#015467" stop-opacity="0.27"/>
<stop offset="1" stop-color="#015467" stop-opacity="0"/>
</linearGradient>
<linearGradient id="paint24_linear_1566_110092" x1="299.152" y1="304.52" x2="299.152" y2="463.525" gradientUnits="userSpaceOnUse">
<stop stop-color="#015467" stop-opacity="0.27"/>
<stop offset="1" stop-color="#015467" stop-opacity="0"/>
</linearGradient>
<linearGradient id="paint25_linear_1566_110092" x1="299.152" y1="453.889" x2="299.152" y2="464.007" gradientUnits="userSpaceOnUse">
<stop stop-color="#015467" stop-opacity="0.09"/>
<stop offset="1" stop-color="#015467" stop-opacity="0"/>
</linearGradient>
<linearGradient id="paint26_linear_1566_110092" x1="299.229" y1="460.635" x2="299.229" y2="469.79" gradientUnits="userSpaceOnUse">
<stop stop-color="#015467" stop-opacity="0.09"/>
<stop offset="1" stop-color="#015467" stop-opacity="0"/>
</linearGradient>
<linearGradient id="paint27_linear_1566_110092" x1="174.557" y1="304.52" x2="174.557" y2="463.525" gradientUnits="userSpaceOnUse">
<stop stop-color="#015467" stop-opacity="0.27"/>
<stop offset="1" stop-color="#015467" stop-opacity="0"/>
</linearGradient>
<linearGradient id="paint28_linear_1566_110092" x1="174.402" y1="453.889" x2="174.402" y2="464.007" gradientUnits="userSpaceOnUse">
<stop stop-color="#015467" stop-opacity="0.27"/>
<stop offset="1" stop-color="#015467" stop-opacity="0"/>
</linearGradient>
<linearGradient id="paint29_linear_1566_110092" x1="174.324" y1="460.635" x2="174.324" y2="469.79" gradientUnits="userSpaceOnUse">
<stop stop-color="#015467" stop-opacity="0.27"/>
<stop offset="1" stop-color="#015467" stop-opacity="0"/>
</linearGradient>
<linearGradient id="paint30_linear_1566_110092" x1="290.772" y1="323.793" x2="290.772" y2="408.114" gradientUnits="userSpaceOnUse">
<stop stop-color="#015467" stop-opacity="0.57"/>
<stop offset="1" stop-color="#015467" stop-opacity="0"/>
</linearGradient>
<linearGradient id="paint31_linear_1566_110092" x1="290.772" y1="311.746" x2="290.772" y2="396.067" gradientUnits="userSpaceOnUse">
<stop stop-color="#015467" stop-opacity="0.27"/>
<stop offset="1" stop-color="#015467" stop-opacity="0"/>
</linearGradient>
<linearGradient id="paint32_linear_1566_110092" x1="260.516" y1="359.932" x2="260.516" y2="444.253" gradientUnits="userSpaceOnUse">
<stop stop-color="#015467" stop-opacity="0.57"/>
<stop offset="1" stop-color="#015467" stop-opacity="0"/>
</linearGradient>
<linearGradient id="paint33_linear_1566_110092" x1="260.516" y1="347.885" x2="260.516" y2="432.206" gradientUnits="userSpaceOnUse">
<stop stop-color="#015467" stop-opacity="0.57"/>
<stop offset="1" stop-color="#015467" stop-opacity="0"/>
</linearGradient>
<linearGradient id="paint34_linear_1566_110092" x1="166.411" y1="312.229" x2="166.411" y2="427.869" gradientUnits="userSpaceOnUse">
<stop stop-color="#015467" stop-opacity="0.57"/>
<stop offset="1" stop-color="#015467" stop-opacity="0"/>
</linearGradient>
<linearGradient id="paint35_linear_1566_110092" x1="166.411" y1="352.703" x2="166.411" y2="377.758" gradientUnits="userSpaceOnUse">
<stop stop-color="#015467" stop-opacity="0.57"/>
<stop offset="1" stop-color="#015467" stop-opacity="0"/>
</linearGradient>
<linearGradient id="paint36_linear_1566_110092" x1="166.411" y1="373.422" x2="166.411" y2="398.477" gradientUnits="userSpaceOnUse">
<stop stop-color="#015467" stop-opacity="0.57"/>
<stop offset="1" stop-color="#015467" stop-opacity="0"/>
</linearGradient>
<linearGradient id="paint37_linear_1566_110092" x1="260.516" y1="308.375" x2="260.516" y2="392.696" gradientUnits="userSpaceOnUse">
<stop stop-color="#015467" stop-opacity="0.27"/>
<stop offset="1" stop-color="#015467" stop-opacity="0"/>
</linearGradient>
<linearGradient id="paint38_linear_1566_110092" x1="423.591" y1="296.811" x2="423.591" y2="382.095" gradientUnits="userSpaceOnUse">
<stop stop-color="#015467" stop-opacity="0.57"/>
<stop offset="1" stop-color="#015467" stop-opacity="0"/>
</linearGradient>
<linearGradient id="paint39_linear_1566_110092" x1="408.23" y1="340.658" x2="408.23" y2="387.878" gradientUnits="userSpaceOnUse">
<stop stop-color="#015467" stop-opacity="0.57"/>
<stop offset="1" stop-color="#015467" stop-opacity="0"/>
</linearGradient>
<linearGradient id="paint40_linear_1566_110092" x1="415.677" y1="297.293" x2="415.677" y2="387.878" gradientUnits="userSpaceOnUse">
<stop stop-color="#015467" stop-opacity="0.57"/>
<stop offset="1" stop-color="#015467" stop-opacity="0"/>
</linearGradient>
<linearGradient id="paint41_linear_1566_110092" x1="244.224" y1="294.883" x2="244.224" y2="302.11" gradientUnits="userSpaceOnUse">
<stop stop-color="#015467" stop-opacity="0.57"/>
<stop offset="1" stop-color="#015467" stop-opacity="0"/>
</linearGradient>
<linearGradient id="paint42_linear_1566_110092" x1="130.646" y1="354.631" x2="130.646" y2="384.986" gradientUnits="userSpaceOnUse">
<stop stop-color="#015467" stop-opacity="0.27"/>
<stop offset="1" stop-color="#015467" stop-opacity="0"/>
</linearGradient>
<linearGradient id="paint43_linear_1566_110092" x1="139.956" y1="370.049" x2="139.956" y2="416.787" gradientUnits="userSpaceOnUse">
<stop stop-color="#015467" stop-opacity="0.27"/>
<stop offset="1" stop-color="#015467" stop-opacity="0"/>
</linearGradient>
<linearGradient id="paint44_linear_1566_110092" x1="131.811" y1="300.664" x2="131.811" y2="365.23" gradientUnits="userSpaceOnUse">
<stop stop-color="#015467" stop-opacity="0.38"/>
<stop offset="1" stop-color="#015467" stop-opacity="0"/>
</linearGradient>
<linearGradient id="paint45_linear_1566_110092" x1="117.379" y1="380.168" x2="117.379" y2="424.497" gradientUnits="userSpaceOnUse">
<stop stop-color="#015467" stop-opacity="0.27"/>
<stop offset="1" stop-color="#015467" stop-opacity="0"/>
</linearGradient>
<linearGradient id="paint46_linear_1566_110092" x1="108.071" y1="380.168" x2="108.071" y2="424.497" gradientUnits="userSpaceOnUse">
<stop stop-color="#015467" stop-opacity="0.27"/>
<stop offset="1" stop-color="#015467" stop-opacity="0"/>
</linearGradient>
<linearGradient id="paint47_linear_1566_110092" x1="98.7607" y1="361.857" x2="98.7607" y2="424.496" gradientUnits="userSpaceOnUse">
<stop stop-color="#015467" stop-opacity="0.27"/>
<stop offset="1" stop-color="#015467" stop-opacity="0"/>
</linearGradient>
<linearGradient id="paint48_linear_1566_110092" x1="44.7642" y1="297.293" x2="44.7642" y2="347.886" gradientUnits="userSpaceOnUse">
<stop stop-color="#015467" stop-opacity="0.57"/>
<stop offset="1" stop-color="#015467" stop-opacity="0"/>
</linearGradient>
<linearGradient id="paint49_linear_1566_110092" x1="81.8476" y1="336.322" x2="81.8476" y2="402.334" gradientUnits="userSpaceOnUse">
<stop stop-color="#015467" stop-opacity="0.27"/>
<stop offset="1" stop-color="#015467" stop-opacity="0"/>
</linearGradient>
<linearGradient id="paint50_linear_1566_110092" x1="43.6003" y1="350.777" x2="43.6003" y2="361.86" gradientUnits="userSpaceOnUse">
<stop stop-color="#015467" stop-opacity="0.57"/>
<stop offset="1" stop-color="#015467" stop-opacity="0"/>
</linearGradient>
<linearGradient id="paint51_linear_1566_110092" x1="44.221" y1="333.912" x2="44.221" y2="370.05" gradientUnits="userSpaceOnUse">
<stop stop-color="#015467" stop-opacity="0.27"/>
<stop offset="1" stop-color="#015467" stop-opacity="0"/>
</linearGradient>
<linearGradient id="paint52_linear_1566_110092" x1="71.5301" y1="297.775" x2="71.5301" y2="337.768" gradientUnits="userSpaceOnUse">
<stop stop-color="#015467" stop-opacity="0.57"/>
<stop offset="1" stop-color="#015467" stop-opacity="0"/>
</linearGradient>
<linearGradient id="paint53_linear_1566_110092" x1="58.3418" y1="333.912" x2="58.3418" y2="387.396" gradientUnits="userSpaceOnUse">
<stop stop-color="#015467" stop-opacity="0.27"/>
<stop offset="1" stop-color="#015467" stop-opacity="0"/>
</linearGradient>
<linearGradient id="paint54_linear_1566_110092" x1="346.011" y1="379.686" x2="346.011" y2="394.622" gradientUnits="userSpaceOnUse">
<stop stop-color="#015467" stop-opacity="0.57"/>
<stop offset="1" stop-color="#015467" stop-opacity="0"/>
</linearGradient>
<linearGradient id="paint55_linear_1566_110092" x1="345.7" y1="301.146" x2="345.7" y2="388.841" gradientUnits="userSpaceOnUse">
<stop stop-color="#015467" stop-opacity="0.57"/>
<stop offset="1" stop-color="#015467" stop-opacity="0"/>
</linearGradient>
<linearGradient id="paint56_linear_1566_110092" x1="379.99" y1="337.283" x2="379.99" y2="363.302" gradientUnits="userSpaceOnUse">
<stop stop-color="#015467" stop-opacity="0.57"/>
<stop offset="1" stop-color="#015467" stop-opacity="0"/>
</linearGradient>
<linearGradient id="paint57_linear_1566_110092" x1="387.361" y1="301.146" x2="387.361" y2="406.668" gradientUnits="userSpaceOnUse">
<stop stop-color="#015467" stop-opacity="0.57"/>
<stop offset="1" stop-color="#015467" stop-opacity="0"/>
</linearGradient>
<linearGradient id="paint58_linear_1566_110092" x1="375.413" y1="301.146" x2="375.413" y2="339.211" gradientUnits="userSpaceOnUse">
<stop stop-color="#015467" stop-opacity="0.57"/>
<stop offset="1" stop-color="#015467" stop-opacity="0"/>
</linearGradient>
<linearGradient id="paint59_linear_1566_110092" x1="370.836" y1="357.521" x2="370.836" y2="430.279" gradientUnits="userSpaceOnUse">
<stop stop-color="#015467" stop-opacity="0.57"/>
<stop offset="1" stop-color="#015467" stop-opacity="0"/>
</linearGradient>
<linearGradient id="paint60_linear_1566_110092" x1="362.922" y1="336.803" x2="362.922" y2="430.279" gradientUnits="userSpaceOnUse">
<stop stop-color="#015467" stop-opacity="0.57"/>
<stop offset="1" stop-color="#015467" stop-opacity="0"/>
</linearGradient>
</defs>
</svg>
